G75*
%MOIN*%
%OFA0B0*%
%FSLAX26Y26*%
%IPPOS*%
%LPD*%
%AMOC8*
5,1,8,0,0,1.08239X$1,22.5*
%
%ADD10R,0.048000X0.058000*%
%ADD11R,0.058000X0.048000*%
%ADD12R,0.027685X0.047370*%
%ADD13R,0.067000X0.067000*%
%ADD14C,0.067000*%
%ADD15C,0.040000*%
D10*
X00166811Y00070000D03*
X00252795Y00070000D03*
X00477205Y00270000D03*
X00563189Y00270000D03*
X00562795Y00350000D03*
X00476811Y00350000D03*
X00536811Y00440000D03*
X00622795Y00440000D03*
X00646811Y00370000D03*
X00732795Y00370000D03*
X00312795Y00320000D03*
X00226811Y00320000D03*
D11*
X00150000Y00232795D03*
X00150000Y00146811D03*
D12*
X00225197Y00140000D03*
X00262598Y00140000D03*
X00300000Y00140000D03*
X00300000Y00242362D03*
X00262598Y00242362D03*
X00225197Y00242362D03*
D13*
X00050000Y00450000D03*
D14*
X00050000Y00050000D03*
X00050000Y00150000D03*
X00050000Y00250000D03*
X00050000Y00350000D03*
D15*
X00168000Y00292000D03*
X00230000Y00310000D03*
X00380000Y00309000D03*
X00410000Y00350000D03*
X00420000Y00400000D03*
X00510000Y00400000D03*
X00590000Y00440000D03*
X00710000Y00420000D03*
X00776000Y00425000D03*
X00688000Y00321000D03*
X00590000Y00350000D03*
X00540000Y00200000D03*
X00450000Y00160000D03*
X00525000Y00123000D03*
X00324000Y00030000D03*
X00310000Y00079000D03*
X00090000Y00099000D03*
X00072000Y00200000D03*
M02*
