G75*
%MOIN*%
%OFA0B0*%
%FSLAX26Y26*%
%IPPOS*%
%LPD*%
%AMOC8*
5,1,8,0,0,1.08239X$1,22.5*
%
%ADD10C,0.000000*%
%ADD11C,0.005000*%
%ADD12C,0.002000*%
%ADD13C,0.001000*%
%ADD14C,0.004000*%
%ADD15C,0.003000*%
%ADD16C,0.003937*%
D10*
X00000000Y00000000D02*
X00000000Y00500000D01*
X00900000Y00500000D01*
X00900000Y00000000D01*
X00000000Y00000000D01*
D11*
X00100000Y00000000D01*
X00100000Y00500000D01*
X00000000Y00500000D01*
X00000000Y00000000D01*
X00150000Y00020000D02*
X00150000Y00100000D01*
X00180000Y00090000D02*
X00180000Y00070000D01*
X00150000Y00020000D02*
X00330000Y00020000D01*
X00360000Y00050000D01*
X00360000Y00100000D01*
X00340000Y00080000D02*
X00320000Y00080000D01*
X00330000Y00070000D02*
X00330000Y00090000D01*
X00360000Y00160000D02*
X00360000Y00210000D01*
X00330000Y00240000D01*
X00150000Y00240000D01*
X00150000Y00160000D01*
X00150000Y00260000D02*
X00150000Y00340000D01*
X00180000Y00330000D02*
X00180000Y00310000D01*
X00150000Y00260000D02*
X00330000Y00260000D01*
X00360000Y00290000D01*
X00360000Y00340000D01*
X00340000Y00320000D02*
X00320000Y00320000D01*
X00330000Y00310000D02*
X00330000Y00330000D01*
X00360000Y00400000D02*
X00360000Y00450000D01*
X00330000Y00480000D01*
X00150000Y00480000D01*
X00150000Y00400000D01*
X00493307Y00305669D02*
X00493307Y00285984D01*
X00493307Y00305669D02*
X00887008Y00305669D01*
X00887008Y00014331D01*
X00493307Y00014331D01*
X00493307Y00034016D01*
X00493307Y00108819D02*
X00493307Y00211181D01*
X00620000Y00330000D02*
X00620000Y00390000D01*
X00760000Y00390000D01*
X00760000Y00330000D01*
X00620000Y00330000D01*
X00630630Y00404567D02*
X00630630Y00408504D01*
X00630630Y00404567D02*
X00709370Y00404567D01*
X00709370Y00408504D01*
X00720000Y00405000D02*
X00720002Y00405141D01*
X00720008Y00405282D01*
X00720018Y00405422D01*
X00720032Y00405562D01*
X00720050Y00405702D01*
X00720071Y00405841D01*
X00720097Y00405980D01*
X00720126Y00406118D01*
X00720160Y00406254D01*
X00720197Y00406390D01*
X00720238Y00406525D01*
X00720283Y00406659D01*
X00720332Y00406791D01*
X00720384Y00406922D01*
X00720440Y00407051D01*
X00720500Y00407178D01*
X00720563Y00407304D01*
X00720629Y00407428D01*
X00720700Y00407551D01*
X00720773Y00407671D01*
X00720850Y00407789D01*
X00720930Y00407905D01*
X00721014Y00408018D01*
X00721100Y00408129D01*
X00721190Y00408238D01*
X00721283Y00408344D01*
X00721378Y00408447D01*
X00721477Y00408548D01*
X00721578Y00408646D01*
X00721682Y00408741D01*
X00721789Y00408833D01*
X00721898Y00408922D01*
X00722010Y00409007D01*
X00722124Y00409090D01*
X00722240Y00409170D01*
X00722359Y00409246D01*
X00722480Y00409318D01*
X00722602Y00409388D01*
X00722727Y00409453D01*
X00722853Y00409516D01*
X00722981Y00409574D01*
X00723111Y00409629D01*
X00723242Y00409681D01*
X00723375Y00409728D01*
X00723509Y00409772D01*
X00723644Y00409813D01*
X00723780Y00409849D01*
X00723917Y00409881D01*
X00724055Y00409910D01*
X00724193Y00409935D01*
X00724333Y00409955D01*
X00724473Y00409972D01*
X00724613Y00409985D01*
X00724754Y00409994D01*
X00724894Y00409999D01*
X00725035Y00410000D01*
X00725176Y00409997D01*
X00725317Y00409990D01*
X00725457Y00409979D01*
X00725597Y00409964D01*
X00725737Y00409945D01*
X00725876Y00409923D01*
X00726014Y00409896D01*
X00726152Y00409866D01*
X00726288Y00409831D01*
X00726424Y00409793D01*
X00726558Y00409751D01*
X00726692Y00409705D01*
X00726824Y00409656D01*
X00726954Y00409602D01*
X00727083Y00409545D01*
X00727210Y00409485D01*
X00727336Y00409421D01*
X00727459Y00409353D01*
X00727581Y00409282D01*
X00727701Y00409208D01*
X00727818Y00409130D01*
X00727933Y00409049D01*
X00728046Y00408965D01*
X00728157Y00408878D01*
X00728265Y00408787D01*
X00728370Y00408694D01*
X00728473Y00408597D01*
X00728573Y00408498D01*
X00728670Y00408396D01*
X00728764Y00408291D01*
X00728855Y00408184D01*
X00728943Y00408074D01*
X00729028Y00407962D01*
X00729110Y00407847D01*
X00729189Y00407730D01*
X00729264Y00407611D01*
X00729336Y00407490D01*
X00729404Y00407367D01*
X00729469Y00407242D01*
X00729531Y00407115D01*
X00729588Y00406986D01*
X00729643Y00406856D01*
X00729693Y00406725D01*
X00729740Y00406592D01*
X00729783Y00406458D01*
X00729822Y00406322D01*
X00729857Y00406186D01*
X00729889Y00406049D01*
X00729916Y00405911D01*
X00729940Y00405772D01*
X00729960Y00405632D01*
X00729976Y00405492D01*
X00729988Y00405352D01*
X00729996Y00405211D01*
X00730000Y00405070D01*
X00730000Y00404930D01*
X00729996Y00404789D01*
X00729988Y00404648D01*
X00729976Y00404508D01*
X00729960Y00404368D01*
X00729940Y00404228D01*
X00729916Y00404089D01*
X00729889Y00403951D01*
X00729857Y00403814D01*
X00729822Y00403678D01*
X00729783Y00403542D01*
X00729740Y00403408D01*
X00729693Y00403275D01*
X00729643Y00403144D01*
X00729588Y00403014D01*
X00729531Y00402885D01*
X00729469Y00402758D01*
X00729404Y00402633D01*
X00729336Y00402510D01*
X00729264Y00402389D01*
X00729189Y00402270D01*
X00729110Y00402153D01*
X00729028Y00402038D01*
X00728943Y00401926D01*
X00728855Y00401816D01*
X00728764Y00401709D01*
X00728670Y00401604D01*
X00728573Y00401502D01*
X00728473Y00401403D01*
X00728370Y00401306D01*
X00728265Y00401213D01*
X00728157Y00401122D01*
X00728046Y00401035D01*
X00727933Y00400951D01*
X00727818Y00400870D01*
X00727701Y00400792D01*
X00727581Y00400718D01*
X00727459Y00400647D01*
X00727336Y00400579D01*
X00727210Y00400515D01*
X00727083Y00400455D01*
X00726954Y00400398D01*
X00726824Y00400344D01*
X00726692Y00400295D01*
X00726558Y00400249D01*
X00726424Y00400207D01*
X00726288Y00400169D01*
X00726152Y00400134D01*
X00726014Y00400104D01*
X00725876Y00400077D01*
X00725737Y00400055D01*
X00725597Y00400036D01*
X00725457Y00400021D01*
X00725317Y00400010D01*
X00725176Y00400003D01*
X00725035Y00400000D01*
X00724894Y00400001D01*
X00724754Y00400006D01*
X00724613Y00400015D01*
X00724473Y00400028D01*
X00724333Y00400045D01*
X00724193Y00400065D01*
X00724055Y00400090D01*
X00723917Y00400119D01*
X00723780Y00400151D01*
X00723644Y00400187D01*
X00723509Y00400228D01*
X00723375Y00400272D01*
X00723242Y00400319D01*
X00723111Y00400371D01*
X00722981Y00400426D01*
X00722853Y00400484D01*
X00722727Y00400547D01*
X00722602Y00400612D01*
X00722480Y00400682D01*
X00722359Y00400754D01*
X00722240Y00400830D01*
X00722124Y00400910D01*
X00722010Y00400993D01*
X00721898Y00401078D01*
X00721789Y00401167D01*
X00721682Y00401259D01*
X00721578Y00401354D01*
X00721477Y00401452D01*
X00721378Y00401553D01*
X00721283Y00401656D01*
X00721190Y00401762D01*
X00721100Y00401871D01*
X00721014Y00401982D01*
X00720930Y00402095D01*
X00720850Y00402211D01*
X00720773Y00402329D01*
X00720700Y00402449D01*
X00720629Y00402572D01*
X00720563Y00402696D01*
X00720500Y00402822D01*
X00720440Y00402949D01*
X00720384Y00403078D01*
X00720332Y00403209D01*
X00720283Y00403341D01*
X00720238Y00403475D01*
X00720197Y00403610D01*
X00720160Y00403746D01*
X00720126Y00403882D01*
X00720097Y00404020D01*
X00720071Y00404159D01*
X00720050Y00404298D01*
X00720032Y00404438D01*
X00720018Y00404578D01*
X00720008Y00404718D01*
X00720002Y00404859D01*
X00720000Y00405000D01*
X00804567Y00419370D02*
X00808504Y00419370D01*
X00804567Y00419370D02*
X00804567Y00340630D01*
X00808504Y00340630D01*
X00800000Y00325000D02*
X00800002Y00325141D01*
X00800008Y00325282D01*
X00800018Y00325422D01*
X00800032Y00325562D01*
X00800050Y00325702D01*
X00800071Y00325841D01*
X00800097Y00325980D01*
X00800126Y00326118D01*
X00800160Y00326254D01*
X00800197Y00326390D01*
X00800238Y00326525D01*
X00800283Y00326659D01*
X00800332Y00326791D01*
X00800384Y00326922D01*
X00800440Y00327051D01*
X00800500Y00327178D01*
X00800563Y00327304D01*
X00800629Y00327428D01*
X00800700Y00327551D01*
X00800773Y00327671D01*
X00800850Y00327789D01*
X00800930Y00327905D01*
X00801014Y00328018D01*
X00801100Y00328129D01*
X00801190Y00328238D01*
X00801283Y00328344D01*
X00801378Y00328447D01*
X00801477Y00328548D01*
X00801578Y00328646D01*
X00801682Y00328741D01*
X00801789Y00328833D01*
X00801898Y00328922D01*
X00802010Y00329007D01*
X00802124Y00329090D01*
X00802240Y00329170D01*
X00802359Y00329246D01*
X00802480Y00329318D01*
X00802602Y00329388D01*
X00802727Y00329453D01*
X00802853Y00329516D01*
X00802981Y00329574D01*
X00803111Y00329629D01*
X00803242Y00329681D01*
X00803375Y00329728D01*
X00803509Y00329772D01*
X00803644Y00329813D01*
X00803780Y00329849D01*
X00803917Y00329881D01*
X00804055Y00329910D01*
X00804193Y00329935D01*
X00804333Y00329955D01*
X00804473Y00329972D01*
X00804613Y00329985D01*
X00804754Y00329994D01*
X00804894Y00329999D01*
X00805035Y00330000D01*
X00805176Y00329997D01*
X00805317Y00329990D01*
X00805457Y00329979D01*
X00805597Y00329964D01*
X00805737Y00329945D01*
X00805876Y00329923D01*
X00806014Y00329896D01*
X00806152Y00329866D01*
X00806288Y00329831D01*
X00806424Y00329793D01*
X00806558Y00329751D01*
X00806692Y00329705D01*
X00806824Y00329656D01*
X00806954Y00329602D01*
X00807083Y00329545D01*
X00807210Y00329485D01*
X00807336Y00329421D01*
X00807459Y00329353D01*
X00807581Y00329282D01*
X00807701Y00329208D01*
X00807818Y00329130D01*
X00807933Y00329049D01*
X00808046Y00328965D01*
X00808157Y00328878D01*
X00808265Y00328787D01*
X00808370Y00328694D01*
X00808473Y00328597D01*
X00808573Y00328498D01*
X00808670Y00328396D01*
X00808764Y00328291D01*
X00808855Y00328184D01*
X00808943Y00328074D01*
X00809028Y00327962D01*
X00809110Y00327847D01*
X00809189Y00327730D01*
X00809264Y00327611D01*
X00809336Y00327490D01*
X00809404Y00327367D01*
X00809469Y00327242D01*
X00809531Y00327115D01*
X00809588Y00326986D01*
X00809643Y00326856D01*
X00809693Y00326725D01*
X00809740Y00326592D01*
X00809783Y00326458D01*
X00809822Y00326322D01*
X00809857Y00326186D01*
X00809889Y00326049D01*
X00809916Y00325911D01*
X00809940Y00325772D01*
X00809960Y00325632D01*
X00809976Y00325492D01*
X00809988Y00325352D01*
X00809996Y00325211D01*
X00810000Y00325070D01*
X00810000Y00324930D01*
X00809996Y00324789D01*
X00809988Y00324648D01*
X00809976Y00324508D01*
X00809960Y00324368D01*
X00809940Y00324228D01*
X00809916Y00324089D01*
X00809889Y00323951D01*
X00809857Y00323814D01*
X00809822Y00323678D01*
X00809783Y00323542D01*
X00809740Y00323408D01*
X00809693Y00323275D01*
X00809643Y00323144D01*
X00809588Y00323014D01*
X00809531Y00322885D01*
X00809469Y00322758D01*
X00809404Y00322633D01*
X00809336Y00322510D01*
X00809264Y00322389D01*
X00809189Y00322270D01*
X00809110Y00322153D01*
X00809028Y00322038D01*
X00808943Y00321926D01*
X00808855Y00321816D01*
X00808764Y00321709D01*
X00808670Y00321604D01*
X00808573Y00321502D01*
X00808473Y00321403D01*
X00808370Y00321306D01*
X00808265Y00321213D01*
X00808157Y00321122D01*
X00808046Y00321035D01*
X00807933Y00320951D01*
X00807818Y00320870D01*
X00807701Y00320792D01*
X00807581Y00320718D01*
X00807459Y00320647D01*
X00807336Y00320579D01*
X00807210Y00320515D01*
X00807083Y00320455D01*
X00806954Y00320398D01*
X00806824Y00320344D01*
X00806692Y00320295D01*
X00806558Y00320249D01*
X00806424Y00320207D01*
X00806288Y00320169D01*
X00806152Y00320134D01*
X00806014Y00320104D01*
X00805876Y00320077D01*
X00805737Y00320055D01*
X00805597Y00320036D01*
X00805457Y00320021D01*
X00805317Y00320010D01*
X00805176Y00320003D01*
X00805035Y00320000D01*
X00804894Y00320001D01*
X00804754Y00320006D01*
X00804613Y00320015D01*
X00804473Y00320028D01*
X00804333Y00320045D01*
X00804193Y00320065D01*
X00804055Y00320090D01*
X00803917Y00320119D01*
X00803780Y00320151D01*
X00803644Y00320187D01*
X00803509Y00320228D01*
X00803375Y00320272D01*
X00803242Y00320319D01*
X00803111Y00320371D01*
X00802981Y00320426D01*
X00802853Y00320484D01*
X00802727Y00320547D01*
X00802602Y00320612D01*
X00802480Y00320682D01*
X00802359Y00320754D01*
X00802240Y00320830D01*
X00802124Y00320910D01*
X00802010Y00320993D01*
X00801898Y00321078D01*
X00801789Y00321167D01*
X00801682Y00321259D01*
X00801578Y00321354D01*
X00801477Y00321452D01*
X00801378Y00321553D01*
X00801283Y00321656D01*
X00801190Y00321762D01*
X00801100Y00321871D01*
X00801014Y00321982D01*
X00800930Y00322095D01*
X00800850Y00322211D01*
X00800773Y00322329D01*
X00800700Y00322449D01*
X00800629Y00322572D01*
X00800563Y00322696D01*
X00800500Y00322822D01*
X00800440Y00322949D01*
X00800384Y00323078D01*
X00800332Y00323209D01*
X00800283Y00323341D01*
X00800238Y00323475D01*
X00800197Y00323610D01*
X00800160Y00323746D01*
X00800126Y00323882D01*
X00800097Y00324020D01*
X00800071Y00324159D01*
X00800050Y00324298D01*
X00800032Y00324438D01*
X00800018Y00324578D01*
X00800008Y00324718D01*
X00800002Y00324859D01*
X00800000Y00325000D01*
X00871496Y00340630D02*
X00875433Y00340630D01*
X00875433Y00419370D01*
X00871496Y00419370D01*
X00709370Y00471496D02*
X00709370Y00475433D01*
X00630630Y00475433D01*
X00630630Y00471496D01*
D12*
X00702761Y00396898D02*
X00716773Y00396898D01*
X00721443Y00392227D01*
X00721443Y00382886D01*
X00716773Y00378215D01*
X00702761Y00378215D01*
X00712102Y00378215D02*
X00721443Y00368874D01*
X00730384Y00368874D02*
X00749067Y00387557D01*
X00749067Y00392227D01*
X00744396Y00396898D01*
X00735055Y00396898D01*
X00730384Y00392227D01*
X00702761Y00396898D02*
X00702761Y00368874D01*
X00730384Y00368874D02*
X00749067Y00368874D01*
X00768850Y00340298D02*
X00768850Y00321616D01*
X00782862Y00321616D01*
X00778191Y00330957D01*
X00778191Y00335628D01*
X00782862Y00340298D01*
X00792203Y00340298D01*
X00796874Y00335628D01*
X00796874Y00326286D01*
X00792203Y00321616D01*
X00792203Y00312675D02*
X00796874Y00308004D01*
X00796874Y00298663D01*
X00792203Y00293992D01*
X00773521Y00293992D01*
X00768850Y00298663D01*
X00768850Y00308004D01*
X00773521Y00312675D01*
X00302059Y00294353D02*
X00302059Y00289683D01*
X00297388Y00285012D01*
X00288047Y00285012D01*
X00283376Y00289683D01*
X00283376Y00294353D01*
X00288047Y00299024D01*
X00297388Y00299024D01*
X00302059Y00294353D01*
X00292059Y00294353D02*
X00292059Y00289683D01*
X00287388Y00285012D01*
X00278047Y00285012D01*
X00273376Y00289683D01*
X00273376Y00294353D01*
X00278047Y00299024D01*
X00287388Y00299024D01*
X00292059Y00294353D01*
X00288047Y00285012D02*
X00283376Y00280341D01*
X00283376Y00275671D01*
X00288047Y00271000D01*
X00297388Y00271000D01*
X00302059Y00275671D01*
X00302059Y00280341D01*
X00297388Y00285012D01*
X00292059Y00280341D02*
X00292059Y00275671D01*
X00287388Y00271000D01*
X00278047Y00271000D01*
X00273376Y00275671D01*
X00273376Y00280341D01*
X00278047Y00285012D01*
X00287388Y00285012D02*
X00292059Y00280341D01*
X00274435Y00275671D02*
X00269765Y00271000D01*
X00260423Y00271000D01*
X00255753Y00275671D01*
X00255753Y00294353D01*
X00260423Y00299024D01*
X00269765Y00299024D01*
X00274435Y00294353D01*
X00264435Y00294353D02*
X00259765Y00299024D01*
X00250423Y00299024D01*
X00245753Y00294353D01*
X00245753Y00275671D01*
X00250423Y00271000D01*
X00259765Y00271000D01*
X00264435Y00275671D01*
X00260423Y00059024D02*
X00255753Y00054353D01*
X00255753Y00035671D01*
X00260423Y00031000D01*
X00269765Y00031000D01*
X00274435Y00035671D01*
X00273376Y00045012D02*
X00292059Y00045012D01*
X00283376Y00045012D02*
X00302059Y00045012D01*
X00297388Y00031000D02*
X00297388Y00059024D01*
X00283376Y00045012D01*
X00273376Y00045012D02*
X00287388Y00059024D01*
X00287388Y00031000D01*
X00264435Y00035671D02*
X00259765Y00031000D01*
X00250423Y00031000D01*
X00245753Y00035671D01*
X00245753Y00054353D01*
X00250423Y00059024D01*
X00259765Y00059024D01*
X00264435Y00054353D01*
X00260423Y00059024D02*
X00269765Y00059024D01*
X00274435Y00054353D01*
D13*
X00704342Y00305130D02*
X00711848Y00305130D01*
X00714350Y00307632D01*
X00714350Y00317641D01*
X00711848Y00320143D01*
X00704342Y00320143D01*
X00704342Y00305130D01*
X00719074Y00305130D02*
X00729083Y00315138D01*
X00729083Y00317641D01*
X00726581Y00320143D01*
X00721577Y00320143D01*
X00719074Y00317641D01*
X00719074Y00305130D02*
X00729083Y00305130D01*
D14*
X00758362Y00000559D02*
X00773709Y00000559D01*
X00766035Y00000559D02*
X00766035Y-00045480D01*
X00758362Y-00045480D02*
X00773709Y-00045480D01*
X00789055Y-00037807D02*
X00796728Y-00045480D01*
X00812075Y-00045480D01*
X00819748Y-00037807D01*
X00835094Y-00045480D02*
X00865787Y-00014788D01*
X00865787Y-00007114D01*
X00858114Y00000559D01*
X00842767Y00000559D01*
X00835094Y-00007114D01*
X00819748Y-00007114D02*
X00812075Y00000559D01*
X00796728Y00000559D01*
X00789055Y-00007114D01*
X00789055Y-00037807D01*
X00835094Y-00045480D02*
X00865787Y-00045480D01*
D15*
X00150862Y00423450D02*
X00144795Y00417383D01*
X00150862Y00423450D02*
X00150862Y00429517D01*
X00144795Y00435584D01*
X00114461Y00435584D01*
X00114461Y00441650D02*
X00114461Y00429517D01*
X00126595Y00453634D02*
X00114461Y00465768D01*
X00150862Y00465768D01*
X00150862Y00453634D02*
X00150862Y00477902D01*
X00454020Y00471185D02*
X00466153Y00471185D01*
X00460086Y00471185D02*
X00460086Y00507586D01*
X00454020Y00507586D02*
X00466153Y00507586D01*
X00478187Y00501519D02*
X00478187Y00477252D01*
X00484254Y00471185D01*
X00496388Y00471185D01*
X00502455Y00477252D01*
X00514439Y00477252D02*
X00520505Y00471185D01*
X00532639Y00471185D01*
X00538706Y00477252D01*
X00538706Y00483319D01*
X00532639Y00489386D01*
X00526572Y00489386D01*
X00532639Y00489386D02*
X00538706Y00495452D01*
X00538706Y00501519D01*
X00532639Y00507586D01*
X00520505Y00507586D01*
X00514439Y00501519D01*
X00502455Y00501519D02*
X00496388Y00507586D01*
X00484254Y00507586D01*
X00478187Y00501519D01*
D16*
X00474173Y00460236D02*
X00545039Y00460236D01*
X00545039Y00452362D01*
X00545039Y00424803D02*
X00545039Y00414961D01*
X00545039Y00387402D02*
X00545039Y00377559D01*
X00545039Y00350000D02*
X00545039Y00342126D01*
X00474173Y00342126D01*
X00474173Y00350000D01*
X00474173Y00377559D02*
X00474173Y00424803D01*
X00474173Y00452362D02*
X00474173Y00460236D01*
M02*
