G75*
%MOIN*%
%OFA0B0*%
%FSLAX26Y26*%
%IPPOS*%
%LPD*%
%AMOC8*
5,1,8,0,0,1.08239X$1,22.5*
%
%ADD10R,0.108000X0.043000*%
%ADD11R,0.055244X0.035559*%
%ADD12R,0.303276X0.271780*%
%ADD13R,0.145795X0.070992*%
%ADD14R,0.048000X0.058000*%
%ADD15R,0.067000X0.067000*%
%ADD16C,0.067000*%
%ADD17R,0.047370X0.027685*%
%ADD18R,0.058000X0.048000*%
%ADD19C,0.040000*%
D10*
X00170000Y00130000D03*
X00340000Y00130000D03*
X00340000Y00370000D03*
X00170000Y00370000D03*
D11*
X00617165Y00360000D03*
X00762835Y00360000D03*
D12*
X00725591Y00160000D03*
D13*
X00440157Y00071417D03*
X00440157Y00248583D03*
D14*
X00626811Y00440000D03*
X00712795Y00440000D03*
D15*
X00050000Y00450000D03*
D16*
X00050000Y00050000D03*
X00050000Y00150000D03*
X00050000Y00250000D03*
X00050000Y00350000D03*
D17*
X00458425Y00363780D03*
X00560787Y00363780D03*
X00560787Y00401181D03*
X00560787Y00438583D03*
X00458425Y00438583D03*
D18*
X00840000Y00423189D03*
X00840000Y00337205D03*
D19*
X00776000Y00425000D03*
X00710000Y00420000D03*
X00590000Y00440000D03*
X00510000Y00400000D03*
X00590000Y00350000D03*
X00688000Y00321000D03*
X00540000Y00200000D03*
X00450000Y00160000D03*
X00525000Y00123000D03*
X00324000Y00030000D03*
X00310000Y00079000D03*
X00090000Y00099000D03*
X00072000Y00200000D03*
X00168000Y00292000D03*
X00230000Y00310000D03*
X00380000Y00309000D03*
X00410000Y00350000D03*
X00420000Y00400000D03*
M02*
