%
M48
M72
T01C0.02362
T02C0.04724
T03C0.06496
%
T01
X14214Y27020
X15198Y28004
X16183Y28989
X51113Y7019
X51113Y6034
X51113Y5050
X91348Y16183
X92332Y15198
X93316Y14214
X113318Y51113
X114302Y51113
X115286Y51113
X104153Y91348
X105138Y92332
X106122Y93316
X69223Y113318
X69223Y114302
X69223Y115286
X28989Y104153
X28004Y105138
X27020Y106122
X7019Y69223
X6034Y69223
X5050Y69223
T02
X20798Y69026
X20798Y68042
X20798Y67058
X20798Y66074
X20798Y65089
X20798Y64105
X20798Y63121
X20798Y62137
X20798Y61152
X20798Y60168
X20798Y59184
X20798Y58200
X20798Y57215
X20798Y56231
X20798Y55247
X20798Y54263
X20798Y53278
X20798Y52294
X20798Y51310
X20798Y50326
X20798Y49341
X20798Y48357
X20798Y70011
X20798Y70995
X20798Y71979
X99538Y71979
X99538Y70995
X99538Y70011
X99538Y69026
X99538Y68042
X99538Y67058
X99538Y66074
X99538Y65089
X99538Y64105
X99538Y63121
X99538Y62137
X99538Y61152
X99538Y60168
X99538Y59184
X99538Y58200
X99538Y57215
X99538Y56231
X99538Y55247
X99538Y54263
X99538Y53278
X99538Y52294
X99538Y51310
X99538Y50326
X99538Y49341
X99538Y48357
T03
X24814Y24814
X10168Y60168
X24814Y95522
X60168Y110168
X95522Y95522
X110168Y60168
X95522Y24814
X60168Y10168
M30
