G75*
%MOIN*%
%OFA0B0*%
%FSLAX25Y25*%
%IPPOS*%
%LPD*%
%AMOC8*
5,1,8,0,0,1.08239X$1,22.5*
%
%ADD10C,0.00039*%
%ADD11C,0.07087*%
%ADD12C,0.09744*%
%ADD13C,0.03962*%
%ADD14C,0.04000*%
D10*
X0018337Y0048357D02*
X0018337Y0071979D01*
X0018339Y0072077D01*
X0018345Y0072175D01*
X0018354Y0072272D01*
X0018368Y0072369D01*
X0018385Y0072465D01*
X0018407Y0072561D01*
X0018432Y0072655D01*
X0018460Y0072749D01*
X0018493Y0072841D01*
X0018529Y0072932D01*
X0018569Y0073022D01*
X0018612Y0073109D01*
X0018659Y0073195D01*
X0018709Y0073279D01*
X0018762Y0073361D01*
X0018819Y0073441D01*
X0018878Y0073519D01*
X0018941Y0073594D01*
X0019007Y0073667D01*
X0019075Y0073736D01*
X0019146Y0073804D01*
X0019220Y0073868D01*
X0019297Y0073929D01*
X0019375Y0073987D01*
X0019456Y0074042D01*
X0019539Y0074094D01*
X0019624Y0074142D01*
X0019711Y0074187D01*
X0019800Y0074229D01*
X0019890Y0074266D01*
X0019982Y0074301D01*
X0020075Y0074331D01*
X0020169Y0074358D01*
X0020264Y0074381D01*
X0020360Y0074401D01*
X0020457Y0074416D01*
X0020554Y0074428D01*
X0020651Y0074436D01*
X0020749Y0074440D01*
X0020847Y0074440D01*
X0020945Y0074436D01*
X0021042Y0074428D01*
X0021139Y0074416D01*
X0021236Y0074401D01*
X0021332Y0074381D01*
X0021427Y0074358D01*
X0021521Y0074331D01*
X0021614Y0074301D01*
X0021706Y0074266D01*
X0021796Y0074229D01*
X0021885Y0074187D01*
X0021972Y0074142D01*
X0022057Y0074094D01*
X0022140Y0074042D01*
X0022221Y0073987D01*
X0022299Y0073929D01*
X0022376Y0073868D01*
X0022450Y0073804D01*
X0022521Y0073736D01*
X0022589Y0073667D01*
X0022655Y0073594D01*
X0022718Y0073519D01*
X0022777Y0073441D01*
X0022834Y0073361D01*
X0022887Y0073279D01*
X0022937Y0073195D01*
X0022984Y0073109D01*
X0023027Y0073022D01*
X0023067Y0072932D01*
X0023103Y0072841D01*
X0023136Y0072749D01*
X0023164Y0072655D01*
X0023189Y0072561D01*
X0023211Y0072465D01*
X0023228Y0072369D01*
X0023242Y0072272D01*
X0023251Y0072175D01*
X0023257Y0072077D01*
X0023259Y0071979D01*
X0023259Y0048357D01*
X0023257Y0048259D01*
X0023251Y0048161D01*
X0023242Y0048064D01*
X0023228Y0047967D01*
X0023211Y0047871D01*
X0023189Y0047775D01*
X0023164Y0047681D01*
X0023136Y0047587D01*
X0023103Y0047495D01*
X0023067Y0047404D01*
X0023027Y0047314D01*
X0022984Y0047227D01*
X0022937Y0047141D01*
X0022887Y0047057D01*
X0022834Y0046975D01*
X0022777Y0046895D01*
X0022718Y0046817D01*
X0022655Y0046742D01*
X0022589Y0046669D01*
X0022521Y0046600D01*
X0022450Y0046532D01*
X0022376Y0046468D01*
X0022299Y0046407D01*
X0022221Y0046349D01*
X0022140Y0046294D01*
X0022057Y0046242D01*
X0021972Y0046194D01*
X0021885Y0046149D01*
X0021796Y0046107D01*
X0021706Y0046070D01*
X0021614Y0046035D01*
X0021521Y0046005D01*
X0021427Y0045978D01*
X0021332Y0045955D01*
X0021236Y0045935D01*
X0021139Y0045920D01*
X0021042Y0045908D01*
X0020945Y0045900D01*
X0020847Y0045896D01*
X0020749Y0045896D01*
X0020651Y0045900D01*
X0020554Y0045908D01*
X0020457Y0045920D01*
X0020360Y0045935D01*
X0020264Y0045955D01*
X0020169Y0045978D01*
X0020075Y0046005D01*
X0019982Y0046035D01*
X0019890Y0046070D01*
X0019800Y0046107D01*
X0019711Y0046149D01*
X0019624Y0046194D01*
X0019539Y0046242D01*
X0019456Y0046294D01*
X0019375Y0046349D01*
X0019297Y0046407D01*
X0019220Y0046468D01*
X0019146Y0046532D01*
X0019075Y0046600D01*
X0019007Y0046669D01*
X0018941Y0046742D01*
X0018878Y0046817D01*
X0018819Y0046895D01*
X0018762Y0046975D01*
X0018709Y0047057D01*
X0018659Y0047141D01*
X0018612Y0047227D01*
X0018569Y0047314D01*
X0018529Y0047404D01*
X0018493Y0047495D01*
X0018460Y0047587D01*
X0018432Y0047681D01*
X0018407Y0047775D01*
X0018385Y0047871D01*
X0018368Y0047967D01*
X0018354Y0048064D01*
X0018345Y0048161D01*
X0018339Y0048259D01*
X0018337Y0048357D01*
X0028672Y0060168D02*
X0028681Y0060941D01*
X0028710Y0061713D01*
X0028757Y0062485D01*
X0028824Y0063255D01*
X0028909Y0064023D01*
X0029013Y0064789D01*
X0029136Y0065553D01*
X0029277Y0066313D01*
X0029437Y0067069D01*
X0029616Y0067821D01*
X0029813Y0068568D01*
X0030028Y0069311D01*
X0030262Y0070048D01*
X0030513Y0070779D01*
X0030782Y0071503D01*
X0031069Y0072221D01*
X0031374Y0072931D01*
X0031696Y0073634D01*
X0032035Y0074329D01*
X0032391Y0075015D01*
X0032764Y0075692D01*
X0033153Y0076360D01*
X0033558Y0077018D01*
X0033980Y0077666D01*
X0034417Y0078304D01*
X0034870Y0078930D01*
X0035338Y0079545D01*
X0035821Y0080149D01*
X0036319Y0080740D01*
X0036831Y0081319D01*
X0037357Y0081886D01*
X0037897Y0082439D01*
X0038450Y0082979D01*
X0039017Y0083505D01*
X0039596Y0084017D01*
X0040187Y0084515D01*
X0040791Y0084998D01*
X0041406Y0085466D01*
X0042032Y0085919D01*
X0042670Y0086356D01*
X0043318Y0086778D01*
X0043976Y0087183D01*
X0044644Y0087572D01*
X0045321Y0087945D01*
X0046007Y0088301D01*
X0046702Y0088640D01*
X0047405Y0088962D01*
X0048115Y0089267D01*
X0048833Y0089554D01*
X0049557Y0089823D01*
X0050288Y0090074D01*
X0051025Y0090308D01*
X0051768Y0090523D01*
X0052515Y0090720D01*
X0053267Y0090899D01*
X0054023Y0091059D01*
X0054783Y0091200D01*
X0055547Y0091323D01*
X0056313Y0091427D01*
X0057081Y0091512D01*
X0057851Y0091579D01*
X0058623Y0091626D01*
X0059395Y0091655D01*
X0060168Y0091664D01*
X0060941Y0091655D01*
X0061713Y0091626D01*
X0062485Y0091579D01*
X0063255Y0091512D01*
X0064023Y0091427D01*
X0064789Y0091323D01*
X0065553Y0091200D01*
X0066313Y0091059D01*
X0067069Y0090899D01*
X0067821Y0090720D01*
X0068568Y0090523D01*
X0069311Y0090308D01*
X0070048Y0090074D01*
X0070779Y0089823D01*
X0071503Y0089554D01*
X0072221Y0089267D01*
X0072931Y0088962D01*
X0073634Y0088640D01*
X0074329Y0088301D01*
X0075015Y0087945D01*
X0075692Y0087572D01*
X0076360Y0087183D01*
X0077018Y0086778D01*
X0077666Y0086356D01*
X0078304Y0085919D01*
X0078930Y0085466D01*
X0079545Y0084998D01*
X0080149Y0084515D01*
X0080740Y0084017D01*
X0081319Y0083505D01*
X0081886Y0082979D01*
X0082439Y0082439D01*
X0082979Y0081886D01*
X0083505Y0081319D01*
X0084017Y0080740D01*
X0084515Y0080149D01*
X0084998Y0079545D01*
X0085466Y0078930D01*
X0085919Y0078304D01*
X0086356Y0077666D01*
X0086778Y0077018D01*
X0087183Y0076360D01*
X0087572Y0075692D01*
X0087945Y0075015D01*
X0088301Y0074329D01*
X0088640Y0073634D01*
X0088962Y0072931D01*
X0089267Y0072221D01*
X0089554Y0071503D01*
X0089823Y0070779D01*
X0090074Y0070048D01*
X0090308Y0069311D01*
X0090523Y0068568D01*
X0090720Y0067821D01*
X0090899Y0067069D01*
X0091059Y0066313D01*
X0091200Y0065553D01*
X0091323Y0064789D01*
X0091427Y0064023D01*
X0091512Y0063255D01*
X0091579Y0062485D01*
X0091626Y0061713D01*
X0091655Y0060941D01*
X0091664Y0060168D01*
X0091655Y0059395D01*
X0091626Y0058623D01*
X0091579Y0057851D01*
X0091512Y0057081D01*
X0091427Y0056313D01*
X0091323Y0055547D01*
X0091200Y0054783D01*
X0091059Y0054023D01*
X0090899Y0053267D01*
X0090720Y0052515D01*
X0090523Y0051768D01*
X0090308Y0051025D01*
X0090074Y0050288D01*
X0089823Y0049557D01*
X0089554Y0048833D01*
X0089267Y0048115D01*
X0088962Y0047405D01*
X0088640Y0046702D01*
X0088301Y0046007D01*
X0087945Y0045321D01*
X0087572Y0044644D01*
X0087183Y0043976D01*
X0086778Y0043318D01*
X0086356Y0042670D01*
X0085919Y0042032D01*
X0085466Y0041406D01*
X0084998Y0040791D01*
X0084515Y0040187D01*
X0084017Y0039596D01*
X0083505Y0039017D01*
X0082979Y0038450D01*
X0082439Y0037897D01*
X0081886Y0037357D01*
X0081319Y0036831D01*
X0080740Y0036319D01*
X0080149Y0035821D01*
X0079545Y0035338D01*
X0078930Y0034870D01*
X0078304Y0034417D01*
X0077666Y0033980D01*
X0077018Y0033558D01*
X0076360Y0033153D01*
X0075692Y0032764D01*
X0075015Y0032391D01*
X0074329Y0032035D01*
X0073634Y0031696D01*
X0072931Y0031374D01*
X0072221Y0031069D01*
X0071503Y0030782D01*
X0070779Y0030513D01*
X0070048Y0030262D01*
X0069311Y0030028D01*
X0068568Y0029813D01*
X0067821Y0029616D01*
X0067069Y0029437D01*
X0066313Y0029277D01*
X0065553Y0029136D01*
X0064789Y0029013D01*
X0064023Y0028909D01*
X0063255Y0028824D01*
X0062485Y0028757D01*
X0061713Y0028710D01*
X0060941Y0028681D01*
X0060168Y0028672D01*
X0059395Y0028681D01*
X0058623Y0028710D01*
X0057851Y0028757D01*
X0057081Y0028824D01*
X0056313Y0028909D01*
X0055547Y0029013D01*
X0054783Y0029136D01*
X0054023Y0029277D01*
X0053267Y0029437D01*
X0052515Y0029616D01*
X0051768Y0029813D01*
X0051025Y0030028D01*
X0050288Y0030262D01*
X0049557Y0030513D01*
X0048833Y0030782D01*
X0048115Y0031069D01*
X0047405Y0031374D01*
X0046702Y0031696D01*
X0046007Y0032035D01*
X0045321Y0032391D01*
X0044644Y0032764D01*
X0043976Y0033153D01*
X0043318Y0033558D01*
X0042670Y0033980D01*
X0042032Y0034417D01*
X0041406Y0034870D01*
X0040791Y0035338D01*
X0040187Y0035821D01*
X0039596Y0036319D01*
X0039017Y0036831D01*
X0038450Y0037357D01*
X0037897Y0037897D01*
X0037357Y0038450D01*
X0036831Y0039017D01*
X0036319Y0039596D01*
X0035821Y0040187D01*
X0035338Y0040791D01*
X0034870Y0041406D01*
X0034417Y0042032D01*
X0033980Y0042670D01*
X0033558Y0043318D01*
X0033153Y0043976D01*
X0032764Y0044644D01*
X0032391Y0045321D01*
X0032035Y0046007D01*
X0031696Y0046702D01*
X0031374Y0047405D01*
X0031069Y0048115D01*
X0030782Y0048833D01*
X0030513Y0049557D01*
X0030262Y0050288D01*
X0030028Y0051025D01*
X0029813Y0051768D01*
X0029616Y0052515D01*
X0029437Y0053267D01*
X0029277Y0054023D01*
X0029136Y0054783D01*
X0029013Y0055547D01*
X0028909Y0056313D01*
X0028824Y0057081D01*
X0028757Y0057851D01*
X0028710Y0058623D01*
X0028681Y0059395D01*
X0028672Y0060168D01*
X0004066Y0060168D02*
X0004083Y0061545D01*
X0004134Y0062921D01*
X0004218Y0064295D01*
X0004336Y0065667D01*
X0004488Y0067035D01*
X0004673Y0068400D01*
X0004892Y0069759D01*
X0005144Y0071113D01*
X0005429Y0072460D01*
X0005747Y0073800D01*
X0006098Y0075131D01*
X0006482Y0076454D01*
X0006898Y0077766D01*
X0007345Y0079068D01*
X0007825Y0080359D01*
X0008337Y0081637D01*
X0008879Y0082903D01*
X0009452Y0084155D01*
X0010056Y0085392D01*
X0010690Y0086614D01*
X0011354Y0087821D01*
X0012048Y0089010D01*
X0012770Y0090182D01*
X0013521Y0091337D01*
X0014300Y0092472D01*
X0015106Y0093588D01*
X0015940Y0094684D01*
X0016801Y0095759D01*
X0017687Y0096812D01*
X0018599Y0097844D01*
X0019536Y0098853D01*
X0020498Y0099838D01*
X0021483Y0100800D01*
X0022492Y0101737D01*
X0023524Y0102649D01*
X0024577Y0103535D01*
X0025652Y0104396D01*
X0026748Y0105230D01*
X0027864Y0106036D01*
X0028999Y0106815D01*
X0030154Y0107566D01*
X0031326Y0108288D01*
X0032515Y0108982D01*
X0033722Y0109646D01*
X0034944Y0110280D01*
X0036181Y0110884D01*
X0037433Y0111457D01*
X0038699Y0111999D01*
X0039977Y0112511D01*
X0041268Y0112991D01*
X0042570Y0113438D01*
X0043882Y0113854D01*
X0045205Y0114238D01*
X0046536Y0114589D01*
X0047876Y0114907D01*
X0049223Y0115192D01*
X0050577Y0115444D01*
X0051936Y0115663D01*
X0053301Y0115848D01*
X0054669Y0116000D01*
X0056041Y0116118D01*
X0057415Y0116202D01*
X0058791Y0116253D01*
X0060168Y0116270D01*
X0061545Y0116253D01*
X0062921Y0116202D01*
X0064295Y0116118D01*
X0065667Y0116000D01*
X0067035Y0115848D01*
X0068400Y0115663D01*
X0069759Y0115444D01*
X0071113Y0115192D01*
X0072460Y0114907D01*
X0073800Y0114589D01*
X0075131Y0114238D01*
X0076454Y0113854D01*
X0077766Y0113438D01*
X0079068Y0112991D01*
X0080359Y0112511D01*
X0081637Y0111999D01*
X0082903Y0111457D01*
X0084155Y0110884D01*
X0085392Y0110280D01*
X0086614Y0109646D01*
X0087821Y0108982D01*
X0089010Y0108288D01*
X0090182Y0107566D01*
X0091337Y0106815D01*
X0092472Y0106036D01*
X0093588Y0105230D01*
X0094684Y0104396D01*
X0095759Y0103535D01*
X0096812Y0102649D01*
X0097844Y0101737D01*
X0098853Y0100800D01*
X0099838Y0099838D01*
X0100800Y0098853D01*
X0101737Y0097844D01*
X0102649Y0096812D01*
X0103535Y0095759D01*
X0104396Y0094684D01*
X0105230Y0093588D01*
X0106036Y0092472D01*
X0106815Y0091337D01*
X0107566Y0090182D01*
X0108288Y0089010D01*
X0108982Y0087821D01*
X0109646Y0086614D01*
X0110280Y0085392D01*
X0110884Y0084155D01*
X0111457Y0082903D01*
X0111999Y0081637D01*
X0112511Y0080359D01*
X0112991Y0079068D01*
X0113438Y0077766D01*
X0113854Y0076454D01*
X0114238Y0075131D01*
X0114589Y0073800D01*
X0114907Y0072460D01*
X0115192Y0071113D01*
X0115444Y0069759D01*
X0115663Y0068400D01*
X0115848Y0067035D01*
X0116000Y0065667D01*
X0116118Y0064295D01*
X0116202Y0062921D01*
X0116253Y0061545D01*
X0116270Y0060168D01*
X0116253Y0058791D01*
X0116202Y0057415D01*
X0116118Y0056041D01*
X0116000Y0054669D01*
X0115848Y0053301D01*
X0115663Y0051936D01*
X0115444Y0050577D01*
X0115192Y0049223D01*
X0114907Y0047876D01*
X0114589Y0046536D01*
X0114238Y0045205D01*
X0113854Y0043882D01*
X0113438Y0042570D01*
X0112991Y0041268D01*
X0112511Y0039977D01*
X0111999Y0038699D01*
X0111457Y0037433D01*
X0110884Y0036181D01*
X0110280Y0034944D01*
X0109646Y0033722D01*
X0108982Y0032515D01*
X0108288Y0031326D01*
X0107566Y0030154D01*
X0106815Y0028999D01*
X0106036Y0027864D01*
X0105230Y0026748D01*
X0104396Y0025652D01*
X0103535Y0024577D01*
X0102649Y0023524D01*
X0101737Y0022492D01*
X0100800Y0021483D01*
X0099838Y0020498D01*
X0098853Y0019536D01*
X0097844Y0018599D01*
X0096812Y0017687D01*
X0095759Y0016801D01*
X0094684Y0015940D01*
X0093588Y0015106D01*
X0092472Y0014300D01*
X0091337Y0013521D01*
X0090182Y0012770D01*
X0089010Y0012048D01*
X0087821Y0011354D01*
X0086614Y0010690D01*
X0085392Y0010056D01*
X0084155Y0009452D01*
X0082903Y0008879D01*
X0081637Y0008337D01*
X0080359Y0007825D01*
X0079068Y0007345D01*
X0077766Y0006898D01*
X0076454Y0006482D01*
X0075131Y0006098D01*
X0073800Y0005747D01*
X0072460Y0005429D01*
X0071113Y0005144D01*
X0069759Y0004892D01*
X0068400Y0004673D01*
X0067035Y0004488D01*
X0065667Y0004336D01*
X0064295Y0004218D01*
X0062921Y0004134D01*
X0061545Y0004083D01*
X0060168Y0004066D01*
X0058791Y0004083D01*
X0057415Y0004134D01*
X0056041Y0004218D01*
X0054669Y0004336D01*
X0053301Y0004488D01*
X0051936Y0004673D01*
X0050577Y0004892D01*
X0049223Y0005144D01*
X0047876Y0005429D01*
X0046536Y0005747D01*
X0045205Y0006098D01*
X0043882Y0006482D01*
X0042570Y0006898D01*
X0041268Y0007345D01*
X0039977Y0007825D01*
X0038699Y0008337D01*
X0037433Y0008879D01*
X0036181Y0009452D01*
X0034944Y0010056D01*
X0033722Y0010690D01*
X0032515Y0011354D01*
X0031326Y0012048D01*
X0030154Y0012770D01*
X0028999Y0013521D01*
X0027864Y0014300D01*
X0026748Y0015106D01*
X0025652Y0015940D01*
X0024577Y0016801D01*
X0023524Y0017687D01*
X0022492Y0018599D01*
X0021483Y0019536D01*
X0020498Y0020498D01*
X0019536Y0021483D01*
X0018599Y0022492D01*
X0017687Y0023524D01*
X0016801Y0024577D01*
X0015940Y0025652D01*
X0015106Y0026748D01*
X0014300Y0027864D01*
X0013521Y0028999D01*
X0012770Y0030154D01*
X0012048Y0031326D01*
X0011354Y0032515D01*
X0010690Y0033722D01*
X0010056Y0034944D01*
X0009452Y0036181D01*
X0008879Y0037433D01*
X0008337Y0038699D01*
X0007825Y0039977D01*
X0007345Y0041268D01*
X0006898Y0042570D01*
X0006482Y0043882D01*
X0006098Y0045205D01*
X0005747Y0046536D01*
X0005429Y0047876D01*
X0005144Y0049223D01*
X0004892Y0050577D01*
X0004673Y0051936D01*
X0004488Y0053301D01*
X0004336Y0054669D01*
X0004218Y0056041D01*
X0004134Y0057415D01*
X0004083Y0058791D01*
X0004066Y0060168D01*
X0097078Y0071979D02*
X0097078Y0048357D01*
X0097077Y0048357D02*
X0097079Y0048259D01*
X0097085Y0048161D01*
X0097094Y0048064D01*
X0097108Y0047967D01*
X0097125Y0047871D01*
X0097147Y0047775D01*
X0097172Y0047681D01*
X0097200Y0047587D01*
X0097233Y0047495D01*
X0097269Y0047404D01*
X0097309Y0047314D01*
X0097352Y0047227D01*
X0097399Y0047141D01*
X0097449Y0047057D01*
X0097502Y0046975D01*
X0097559Y0046895D01*
X0097618Y0046817D01*
X0097681Y0046742D01*
X0097747Y0046669D01*
X0097815Y0046600D01*
X0097886Y0046532D01*
X0097960Y0046468D01*
X0098037Y0046407D01*
X0098115Y0046349D01*
X0098196Y0046294D01*
X0098279Y0046242D01*
X0098364Y0046194D01*
X0098451Y0046149D01*
X0098540Y0046107D01*
X0098630Y0046070D01*
X0098722Y0046035D01*
X0098815Y0046005D01*
X0098909Y0045978D01*
X0099004Y0045955D01*
X0099100Y0045935D01*
X0099197Y0045920D01*
X0099294Y0045908D01*
X0099391Y0045900D01*
X0099489Y0045896D01*
X0099587Y0045896D01*
X0099685Y0045900D01*
X0099782Y0045908D01*
X0099879Y0045920D01*
X0099976Y0045935D01*
X0100072Y0045955D01*
X0100167Y0045978D01*
X0100261Y0046005D01*
X0100354Y0046035D01*
X0100446Y0046070D01*
X0100536Y0046107D01*
X0100625Y0046149D01*
X0100712Y0046194D01*
X0100797Y0046242D01*
X0100880Y0046294D01*
X0100961Y0046349D01*
X0101039Y0046407D01*
X0101116Y0046468D01*
X0101190Y0046532D01*
X0101261Y0046600D01*
X0101329Y0046669D01*
X0101395Y0046742D01*
X0101458Y0046817D01*
X0101517Y0046895D01*
X0101574Y0046975D01*
X0101627Y0047057D01*
X0101677Y0047141D01*
X0101724Y0047227D01*
X0101767Y0047314D01*
X0101807Y0047404D01*
X0101843Y0047495D01*
X0101876Y0047587D01*
X0101904Y0047681D01*
X0101929Y0047775D01*
X0101951Y0047871D01*
X0101968Y0047967D01*
X0101982Y0048064D01*
X0101991Y0048161D01*
X0101997Y0048259D01*
X0101999Y0048357D01*
X0101999Y0071979D01*
X0101997Y0072077D01*
X0101991Y0072175D01*
X0101982Y0072272D01*
X0101968Y0072369D01*
X0101951Y0072465D01*
X0101929Y0072561D01*
X0101904Y0072655D01*
X0101876Y0072749D01*
X0101843Y0072841D01*
X0101807Y0072932D01*
X0101767Y0073022D01*
X0101724Y0073109D01*
X0101677Y0073195D01*
X0101627Y0073279D01*
X0101574Y0073361D01*
X0101517Y0073441D01*
X0101458Y0073519D01*
X0101395Y0073594D01*
X0101329Y0073667D01*
X0101261Y0073736D01*
X0101190Y0073804D01*
X0101116Y0073868D01*
X0101039Y0073929D01*
X0100961Y0073987D01*
X0100880Y0074042D01*
X0100797Y0074094D01*
X0100712Y0074142D01*
X0100625Y0074187D01*
X0100536Y0074229D01*
X0100446Y0074266D01*
X0100354Y0074301D01*
X0100261Y0074331D01*
X0100167Y0074358D01*
X0100072Y0074381D01*
X0099976Y0074401D01*
X0099879Y0074416D01*
X0099782Y0074428D01*
X0099685Y0074436D01*
X0099587Y0074440D01*
X0099489Y0074440D01*
X0099391Y0074436D01*
X0099294Y0074428D01*
X0099197Y0074416D01*
X0099100Y0074401D01*
X0099004Y0074381D01*
X0098909Y0074358D01*
X0098815Y0074331D01*
X0098722Y0074301D01*
X0098630Y0074266D01*
X0098540Y0074229D01*
X0098451Y0074187D01*
X0098364Y0074142D01*
X0098279Y0074094D01*
X0098196Y0074042D01*
X0098115Y0073987D01*
X0098037Y0073929D01*
X0097960Y0073868D01*
X0097886Y0073804D01*
X0097815Y0073736D01*
X0097747Y0073667D01*
X0097681Y0073594D01*
X0097618Y0073519D01*
X0097559Y0073441D01*
X0097502Y0073361D01*
X0097449Y0073279D01*
X0097399Y0073195D01*
X0097352Y0073109D01*
X0097309Y0073022D01*
X0097269Y0072932D01*
X0097233Y0072841D01*
X0097200Y0072749D01*
X0097172Y0072655D01*
X0097147Y0072561D01*
X0097125Y0072465D01*
X0097108Y0072369D01*
X0097094Y0072272D01*
X0097085Y0072175D01*
X0097079Y0072077D01*
X0097077Y0071979D01*
D11*
X0099538Y0071979D03*
X0099538Y0070995D03*
X0099538Y0070011D03*
X0099538Y0069026D03*
X0099538Y0068042D03*
X0099538Y0067058D03*
X0099538Y0066074D03*
X0099538Y0065089D03*
X0099538Y0064105D03*
X0099538Y0063121D03*
X0099538Y0062137D03*
X0099538Y0061152D03*
X0099538Y0060168D03*
X0099538Y0059184D03*
X0099538Y0058200D03*
X0099538Y0057215D03*
X0099538Y0056231D03*
X0099538Y0055247D03*
X0099538Y0054263D03*
X0099538Y0053278D03*
X0099538Y0052294D03*
X0099538Y0051310D03*
X0099538Y0050326D03*
X0099538Y0049341D03*
X0099538Y0048357D03*
X0020798Y0048357D03*
X0020798Y0049341D03*
X0020798Y0050326D03*
X0020798Y0051310D03*
X0020798Y0052294D03*
X0020798Y0053278D03*
X0020798Y0054263D03*
X0020798Y0055247D03*
X0020798Y0056231D03*
X0020798Y0057215D03*
X0020798Y0058200D03*
X0020798Y0059184D03*
X0020798Y0060168D03*
X0020798Y0061152D03*
X0020798Y0062137D03*
X0020798Y0063121D03*
X0020798Y0064105D03*
X0020798Y0065089D03*
X0020798Y0066074D03*
X0020798Y0067058D03*
X0020798Y0068042D03*
X0020798Y0069026D03*
X0020798Y0070011D03*
X0020798Y0070995D03*
X0020798Y0071979D03*
D12*
X0010168Y0060168D03*
X0024814Y0095522D03*
X0060168Y0110168D03*
X0095522Y0095522D03*
X0110168Y0060168D03*
X0095522Y0024814D03*
X0060168Y0010168D03*
X0024814Y0024814D03*
D13*
X0016183Y0028989D03*
X0015198Y0028004D03*
X0014214Y0027020D03*
X0051113Y0007019D03*
X0051113Y0006034D03*
X0051113Y0005050D03*
X0091348Y0016183D03*
X0092332Y0015198D03*
X0093316Y0014214D03*
X0113318Y0051113D03*
X0114302Y0051113D03*
X0115286Y0051113D03*
X0104153Y0091348D03*
X0105138Y0092332D03*
X0106122Y0093316D03*
X0069223Y0113318D03*
X0069223Y0114302D03*
X0069223Y0115286D03*
X0028989Y0104153D03*
X0028004Y0105138D03*
X0027020Y0106122D03*
X0007019Y0069223D03*
X0006034Y0069223D03*
X0005050Y0069223D03*
D14*
X0016183Y0028989D02*
X0024814Y0024814D01*
X0051113Y0007019D02*
X0060168Y0010168D01*
X0091348Y0016183D02*
X0095522Y0024814D01*
X0113318Y0051113D02*
X0110168Y0060168D01*
X0104153Y0091348D02*
X0095522Y0095522D01*
X0069223Y0113318D02*
X0060168Y0110168D01*
X0028989Y0104153D02*
X0024814Y0095522D01*
X0007019Y0069223D02*
X0010168Y0060168D01*
M02*
