%
M48
M72
T01C0.00394
T02C0.01969
T03C0.03937
T04C0.05906
T05C0.07874
%
T01
X60075Y20705
X79760Y20705
X79760Y40390
X99445Y40390
X99445Y60075
X119130Y60075
X158500Y99445
X197870Y178185
X217555Y178185
X237240Y178185
T02
X256925Y178185
X276610Y178185
X296295Y178185
X276610Y158500
X256925Y158500
X256925Y138815
X217555Y99445
X197870Y99445
X178185Y99445
X197870Y79760
X178185Y60075
X158500Y60075
X138815Y60075
X138815Y40390
X158500Y40390
X138815Y20705
X119130Y20705
X99445Y20705
X119130Y40390
T03
X158500Y20705
X178185Y20705
X197870Y20705
X197870Y40390
X178185Y40390
X197870Y60075
X217555Y60075
X237240Y60075
X237240Y79760
X217555Y79760
X237240Y99445
X256925Y99445
X276610Y99445
X276610Y119130
X256925Y119130
X276610Y138815
X296295Y138815
X315980Y138815
X315980Y158500
X296295Y158500
X315980Y178185
X296295Y119130
X256925Y79760
X217555Y40390
T04
X237240Y40390
X256925Y40390
X276610Y40390
X276610Y60075
X256925Y60075
X276610Y79760
X296295Y79760
X315980Y79760
X315980Y99445
X296295Y99445
X315980Y119130
X296295Y60075
X256925Y20705
X237240Y20705
X217555Y20705
T05
X276610Y20705
X296295Y20705
X315980Y20705
X315980Y40390
X296295Y40390
X315980Y60075
M30
