G75*
%MOIN*%
%OFA0B0*%
%FSLAX25Y25*%
%IPPOS*%
%LPD*%
%AMOC8*
5,1,8,0,0,1.08239X$1,22.5*
%
%ADD10R,0.10000X0.03500*%
%ADD11R,0.04724X0.02756*%
%ADD12R,0.29528X0.26378*%
%ADD13R,0.13780X0.06299*%
%ADD14R,0.04000X0.05000*%
%ADD15R,0.05900X0.05900*%
%ADD16C,0.05900*%
%ADD17R,0.03937X0.01969*%
%ADD18R,0.05000X0.04000*%
%ADD19C,0.03200*%
%ADD20C,0.01600*%
%ADD21C,0.01200*%
%ADD22C,0.03200*%
%ADD23C,0.02400*%
D10*
X0018600Y0020415D03*
X0035600Y0020415D03*
X0035600Y0044415D03*
X0018600Y0044415D03*
D11*
X0063317Y0043415D03*
X0077883Y0043415D03*
D12*
X0074159Y0023415D03*
D13*
X0045616Y0032273D03*
X0045616Y0014556D03*
D14*
X0064281Y0051415D03*
X0072880Y0051415D03*
D15*
X0006600Y0052415D03*
D16*
X0006600Y0042415D03*
X0006600Y0032415D03*
X0006600Y0022415D03*
X0006600Y0012415D03*
D17*
X0047443Y0043793D03*
X0057679Y0043793D03*
X0057679Y0047533D03*
X0057679Y0051273D03*
X0047443Y0051273D03*
D18*
X0085600Y0049734D03*
X0085600Y0041135D03*
D19*
X0079200Y0049915D03*
X0072600Y0049415D03*
X0060600Y0051415D03*
X0052600Y0047415D03*
X0060600Y0042415D03*
X0070400Y0039515D03*
X0055600Y0027415D03*
X0046600Y0023415D03*
X0054100Y0019715D03*
X0034000Y0010415D03*
X0032600Y0015315D03*
X0010600Y0017315D03*
X0008800Y0027415D03*
X0018400Y0036615D03*
X0024600Y0038415D03*
X0039600Y0038315D03*
X0042600Y0042415D03*
X0043600Y0047415D03*
D20*
X0047443Y0043793D02*
X0046065Y0042415D01*
X0045600Y0042415D01*
X0042600Y0042415D01*
X0047443Y0043793D02*
X0047443Y0051273D01*
X0052600Y0047415D02*
X0057561Y0047415D01*
X0057679Y0047533D01*
X0057679Y0043793D02*
X0059057Y0042415D01*
X0060600Y0042415D01*
X0062317Y0042415D01*
X0063317Y0043415D01*
X0072600Y0049415D02*
X0072880Y0049694D01*
X0072880Y0051415D01*
X0085600Y0041135D02*
X0073600Y0029135D01*
X0073600Y0025415D01*
X0074159Y0024856D01*
X0074159Y0023415D01*
X0018400Y0036615D02*
X0012400Y0036615D01*
X0006600Y0042415D01*
D21*
X0010416Y0044569D02*
X0018325Y0044569D01*
X0018325Y0044690D02*
X0018325Y0044140D01*
X0012000Y0044140D01*
X0012000Y0042454D01*
X0012109Y0042047D01*
X0012320Y0041682D01*
X0012618Y0041384D01*
X0012982Y0041174D01*
X0013389Y0041065D01*
X0018325Y0041065D01*
X0018325Y0044140D01*
X0018875Y0044140D01*
X0018875Y0044690D01*
X0018325Y0044690D01*
X0018325Y0047765D01*
X0013389Y0047765D01*
X0012982Y0047656D01*
X0012618Y0047445D01*
X0012320Y0047147D01*
X0012109Y0046782D01*
X0012000Y0046375D01*
X0012000Y0044690D01*
X0018325Y0044690D01*
X0018875Y0044690D02*
X0018875Y0047765D01*
X0023811Y0047765D01*
X0024218Y0047656D01*
X0024582Y0047445D01*
X0024880Y0047147D01*
X0025091Y0046782D01*
X0025200Y0046375D01*
X0025200Y0044690D01*
X0018875Y0044690D01*
X0018875Y0044569D02*
X0029200Y0044569D01*
X0029200Y0045767D02*
X0025200Y0045767D01*
X0024985Y0046966D02*
X0029421Y0046966D01*
X0029200Y0046745D02*
X0029200Y0042085D01*
X0030020Y0041265D01*
X0032586Y0041265D01*
X0032537Y0030504D01*
X0014192Y0030504D01*
X0013090Y0030047D01*
X0012246Y0029203D01*
X0009105Y0026062D01*
X0009064Y0026102D01*
X0007465Y0026765D01*
X0006200Y0026765D01*
X0006200Y0028065D01*
X0007465Y0028065D01*
X0009064Y0028727D01*
X0010288Y0029951D01*
X0010950Y0031549D01*
X0010950Y0033280D01*
X0010288Y0034879D01*
X0009064Y0036102D01*
X0007465Y0036765D01*
X0006200Y0036765D01*
X0006200Y0038065D01*
X0007465Y0038065D01*
X0007729Y0038174D01*
X0011489Y0034415D01*
X0016357Y0034415D01*
X0016701Y0034071D01*
X0017803Y0033615D01*
X0018997Y0033615D01*
X0020099Y0034071D01*
X0020943Y0034915D01*
X0021400Y0036018D01*
X0021400Y0037211D01*
X0020943Y0038314D01*
X0020099Y0039158D01*
X0018997Y0039615D01*
X0017803Y0039615D01*
X0016701Y0039158D01*
X0016357Y0038815D01*
X0013311Y0038815D01*
X0010841Y0041285D01*
X0010950Y0041549D01*
X0010950Y0043280D01*
X0010288Y0044879D01*
X0009064Y0046102D01*
X0007465Y0046765D01*
X0006200Y0046765D01*
X0006200Y0047865D01*
X0006225Y0047865D01*
X0006225Y0052040D01*
X0006975Y0052040D01*
X0006975Y0052790D01*
X0011150Y0052790D01*
X0011150Y0052815D01*
X0044074Y0052815D01*
X0044074Y0049709D01*
X0044894Y0048889D01*
X0045243Y0048889D01*
X0045243Y0046177D01*
X0044894Y0046177D01*
X0044132Y0045415D01*
X0042000Y0045415D01*
X0042000Y0046745D01*
X0041180Y0047565D01*
X0030020Y0047565D01*
X0029200Y0046745D01*
X0029200Y0043370D02*
X0025200Y0043370D01*
X0025200Y0044140D02*
X0018875Y0044140D01*
X0018875Y0041065D01*
X0023811Y0041065D01*
X0024218Y0041174D01*
X0024582Y0041384D01*
X0024880Y0041682D01*
X0025091Y0042047D01*
X0025200Y0042454D01*
X0025200Y0044140D01*
X0025124Y0042172D02*
X0029200Y0042172D01*
X0032584Y0040973D02*
X0011153Y0040973D01*
X0010950Y0042172D02*
X0012076Y0042172D01*
X0012000Y0043370D02*
X0010913Y0043370D01*
X0012000Y0045767D02*
X0009399Y0045767D01*
X0012215Y0046966D02*
X0006200Y0046966D01*
X0006975Y0047865D02*
X0009761Y0047865D01*
X0010168Y0047974D01*
X0010532Y0048184D01*
X0010830Y0048482D01*
X0011041Y0048847D01*
X0011150Y0049254D01*
X0011150Y0052040D01*
X0006975Y0052040D01*
X0006975Y0047865D01*
X0006975Y0048164D02*
X0006225Y0048164D01*
X0006225Y0049363D02*
X0006975Y0049363D01*
X0006975Y0050561D02*
X0006225Y0050561D01*
X0006225Y0051760D02*
X0006975Y0051760D01*
X0011150Y0051760D02*
X0044074Y0051760D01*
X0044074Y0050561D02*
X0011150Y0050561D01*
X0011150Y0049363D02*
X0044420Y0049363D01*
X0045243Y0048164D02*
X0010497Y0048164D01*
X0018325Y0046966D02*
X0018875Y0046966D01*
X0018875Y0045767D02*
X0018325Y0045767D01*
X0018325Y0043370D02*
X0018875Y0043370D01*
X0018875Y0042172D02*
X0018325Y0042172D01*
X0020681Y0038576D02*
X0032574Y0038576D01*
X0032579Y0039774D02*
X0012351Y0039774D01*
X0008526Y0037377D02*
X0006200Y0037377D01*
X0008879Y0036179D02*
X0009724Y0036179D01*
X0010186Y0034980D02*
X0010923Y0034980D01*
X0010742Y0033782D02*
X0017399Y0033782D01*
X0019401Y0033782D02*
X0032552Y0033782D01*
X0032558Y0034980D02*
X0020970Y0034980D01*
X0021400Y0036179D02*
X0032563Y0036179D01*
X0032568Y0037377D02*
X0021331Y0037377D01*
X0013426Y0030186D02*
X0010385Y0030186D01*
X0010882Y0031385D02*
X0032541Y0031385D01*
X0032547Y0032583D02*
X0010950Y0032583D01*
X0012031Y0028988D02*
X0009325Y0028988D01*
X0010832Y0027789D02*
X0006200Y0027789D01*
X0007885Y0026591D02*
X0009634Y0026591D01*
X0015293Y0023765D02*
X0016032Y0024504D01*
X0032527Y0024504D01*
X0032543Y0023565D01*
X0030020Y0023565D01*
X0029200Y0022745D01*
X0029200Y0018085D01*
X0030020Y0017265D01*
X0034507Y0017265D01*
X0037326Y0014446D01*
X0037326Y0012015D01*
X0036584Y0012015D01*
X0036543Y0012114D01*
X0035699Y0012958D01*
X0034597Y0013415D01*
X0010894Y0013415D01*
X0010288Y0014879D01*
X0009064Y0016102D01*
X0007465Y0016765D01*
X0006200Y0016765D01*
X0006200Y0018065D01*
X0007465Y0018065D01*
X0009064Y0018727D01*
X0009752Y0019415D01*
X0010297Y0019415D01*
X0011399Y0019871D01*
X0012218Y0020690D01*
X0018325Y0020690D01*
X0018325Y0023765D01*
X0015293Y0023765D01*
X0015722Y0024194D02*
X0032532Y0024194D01*
X0029451Y0022995D02*
X0024968Y0022995D01*
X0024880Y0023147D02*
X0024582Y0023445D01*
X0024218Y0023656D01*
X0023811Y0023765D01*
X0018875Y0023765D01*
X0018875Y0020690D01*
X0018325Y0020690D01*
X0018325Y0020140D01*
X0012000Y0020140D01*
X0012000Y0018454D01*
X0012109Y0018047D01*
X0012320Y0017682D01*
X0012618Y0017384D01*
X0012982Y0017174D01*
X0013389Y0017065D01*
X0018325Y0017065D01*
X0018325Y0020140D01*
X0018875Y0020140D01*
X0018875Y0020690D01*
X0025200Y0020690D01*
X0025200Y0022375D01*
X0025091Y0022782D01*
X0024880Y0023147D01*
X0025200Y0021797D02*
X0029200Y0021797D01*
X0029200Y0020598D02*
X0018875Y0020598D01*
X0018875Y0020140D02*
X0025200Y0020140D01*
X0025200Y0018454D01*
X0025091Y0018047D01*
X0024880Y0017682D01*
X0024582Y0017384D01*
X0024218Y0017174D01*
X0023811Y0017065D01*
X0018875Y0017065D01*
X0018875Y0020140D01*
X0018325Y0020598D02*
X0012126Y0020598D01*
X0012000Y0019400D02*
X0009737Y0019400D01*
X0007795Y0018201D02*
X0012068Y0018201D01*
X0009362Y0015804D02*
X0035968Y0015804D01*
X0037166Y0014606D02*
X0010401Y0014606D01*
X0006200Y0017003D02*
X0034769Y0017003D01*
X0029200Y0018201D02*
X0025132Y0018201D01*
X0025200Y0019400D02*
X0029200Y0019400D01*
X0034615Y0013407D02*
X0037326Y0013407D01*
X0037326Y0012209D02*
X0036449Y0012209D01*
X0042000Y0019106D02*
X0042000Y0022745D01*
X0041180Y0023565D01*
X0038544Y0023565D01*
X0038500Y0026017D01*
X0038514Y0026877D01*
X0038521Y0026893D01*
X0038521Y0026900D01*
X0038524Y0026907D01*
X0038524Y0027479D01*
X0038525Y0027523D01*
X0045016Y0027523D01*
X0045016Y0031673D01*
X0046216Y0031673D01*
X0046216Y0032873D01*
X0054105Y0032873D01*
X0054105Y0035633D01*
X0053996Y0036040D01*
X0053786Y0036405D01*
X0053488Y0036703D01*
X0053123Y0036914D01*
X0052716Y0037023D01*
X0046216Y0037023D01*
X0046216Y0032873D01*
X0045016Y0032873D01*
X0045016Y0037023D01*
X0038567Y0037023D01*
X0038577Y0039415D01*
X0046197Y0039415D01*
X0047299Y0039871D01*
X0048143Y0040715D01*
X0048430Y0041408D01*
X0049991Y0041408D01*
X0050811Y0042228D01*
X0050811Y0045357D01*
X0049991Y0046177D01*
X0049643Y0046177D01*
X0049643Y0048889D01*
X0049991Y0048889D01*
X0050811Y0049709D01*
X0050811Y0052815D01*
X0054310Y0052815D01*
X0054310Y0049709D01*
X0054475Y0049544D01*
X0054430Y0049499D01*
X0054219Y0049135D01*
X0054110Y0048728D01*
X0054110Y0047533D01*
X0057679Y0047533D01*
X0061247Y0047533D01*
X0061247Y0047969D01*
X0061701Y0047515D01*
X0066861Y0047515D01*
X0067681Y0048335D01*
X0067681Y0052815D01*
X0069480Y0052815D01*
X0069480Y0048335D01*
X0070027Y0047787D01*
X0070057Y0047715D01*
X0070289Y0047483D01*
X0070396Y0047225D01*
X0071127Y0046494D01*
X0074121Y0043500D01*
X0074121Y0041457D01*
X0074941Y0040637D01*
X0080826Y0040637D01*
X0081646Y0041457D01*
X0081646Y0045373D01*
X0080826Y0046193D01*
X0078782Y0046193D01*
X0076280Y0048696D01*
X0076280Y0052815D01*
X0081918Y0052815D01*
X0081820Y0052716D01*
X0081609Y0052351D01*
X0081500Y0051944D01*
X0081500Y0050134D01*
X0085200Y0050134D01*
X0085200Y0049334D01*
X0081500Y0049334D01*
X0081500Y0047523D01*
X0081609Y0047116D01*
X0081820Y0046751D01*
X0082118Y0046453D01*
X0082482Y0046243D01*
X0082889Y0046134D01*
X0085200Y0046134D01*
X0085200Y0049334D01*
X0086000Y0049334D01*
X0086000Y0046134D01*
X0087000Y0046134D01*
X0087000Y0044535D01*
X0082520Y0044535D01*
X0081700Y0043715D01*
X0081700Y0040346D01*
X0079357Y0038004D01*
X0058815Y0038004D01*
X0057995Y0037184D01*
X0057995Y0026015D01*
X0048162Y0026015D01*
X0047197Y0026415D01*
X0046003Y0026415D01*
X0044901Y0025958D01*
X0044057Y0025114D01*
X0043600Y0024011D01*
X0043600Y0022818D01*
X0044057Y0021715D01*
X0044901Y0020871D01*
X0046003Y0020415D01*
X0047197Y0020415D01*
X0048162Y0020815D01*
X0057995Y0020815D01*
X0057995Y0012015D01*
X0053905Y0012015D01*
X0053905Y0018286D01*
X0053085Y0019106D01*
X0042000Y0019106D01*
X0042000Y0019400D02*
X0057995Y0019400D01*
X0057995Y0018201D02*
X0053905Y0018201D01*
X0053905Y0017003D02*
X0057995Y0017003D01*
X0057995Y0015804D02*
X0053905Y0015804D01*
X0053905Y0014606D02*
X0057995Y0014606D01*
X0057995Y0013407D02*
X0053905Y0013407D01*
X0053905Y0012209D02*
X0057995Y0012209D01*
X0057995Y0020598D02*
X0047640Y0020598D01*
X0045560Y0020598D02*
X0042000Y0020598D01*
X0042000Y0021797D02*
X0044023Y0021797D01*
X0043600Y0022995D02*
X0041749Y0022995D01*
X0043676Y0024194D02*
X0038533Y0024194D01*
X0038512Y0025392D02*
X0044335Y0025392D01*
X0046216Y0027523D02*
X0052716Y0027523D01*
X0053123Y0027632D01*
X0053488Y0027843D01*
X0053786Y0028141D01*
X0053996Y0028506D01*
X0054105Y0028913D01*
X0054105Y0031673D01*
X0046216Y0031673D01*
X0046216Y0027523D01*
X0046216Y0027789D02*
X0045016Y0027789D01*
X0045016Y0028988D02*
X0046216Y0028988D01*
X0046216Y0030186D02*
X0045016Y0030186D01*
X0045016Y0031385D02*
X0046216Y0031385D01*
X0046216Y0032583D02*
X0057995Y0032583D01*
X0057995Y0031385D02*
X0054105Y0031385D01*
X0054105Y0030186D02*
X0057995Y0030186D01*
X0057995Y0028988D02*
X0054105Y0028988D01*
X0053395Y0027789D02*
X0057995Y0027789D01*
X0057995Y0026591D02*
X0038510Y0026591D01*
X0045016Y0033782D02*
X0046216Y0033782D01*
X0046216Y0034980D02*
X0045016Y0034980D01*
X0045016Y0036179D02*
X0046216Y0036179D01*
X0047065Y0039774D02*
X0059135Y0039774D01*
X0058901Y0039871D02*
X0058557Y0040215D01*
X0058145Y0040215D01*
X0056952Y0041408D01*
X0055130Y0041408D01*
X0054310Y0042228D01*
X0054310Y0045357D01*
X0054475Y0045521D01*
X0054430Y0045566D01*
X0054219Y0045931D01*
X0054110Y0046338D01*
X0054110Y0047533D01*
X0057679Y0047533D01*
X0057679Y0047533D01*
X0061247Y0047533D01*
X0061247Y0046338D01*
X0061208Y0046193D01*
X0066259Y0046193D01*
X0067079Y0045373D01*
X0067079Y0041457D01*
X0066259Y0040637D01*
X0063650Y0040637D01*
X0063228Y0040215D01*
X0062643Y0040215D01*
X0062299Y0039871D01*
X0061197Y0039415D01*
X0060003Y0039415D01*
X0058901Y0039871D01*
X0057387Y0040973D02*
X0048250Y0040973D01*
X0050754Y0042172D02*
X0054367Y0042172D01*
X0054310Y0043370D02*
X0050811Y0043370D01*
X0050811Y0044569D02*
X0054310Y0044569D01*
X0054314Y0045767D02*
X0050401Y0045767D01*
X0049643Y0046966D02*
X0054110Y0046966D01*
X0054110Y0048164D02*
X0049643Y0048164D01*
X0050465Y0049363D02*
X0054351Y0049363D01*
X0054310Y0050561D02*
X0050811Y0050561D01*
X0050811Y0051760D02*
X0054310Y0051760D01*
X0057679Y0051273D02*
X0057820Y0051415D01*
X0060600Y0051415D01*
X0064281Y0051415D01*
X0067681Y0051760D02*
X0069480Y0051760D01*
X0069480Y0050561D02*
X0067681Y0050561D01*
X0067681Y0049363D02*
X0069480Y0049363D01*
X0069650Y0048164D02*
X0067510Y0048164D01*
X0070656Y0046966D02*
X0061247Y0046966D01*
X0057679Y0047533D02*
X0057679Y0047533D01*
X0066684Y0045767D02*
X0071854Y0045767D01*
X0073053Y0044569D02*
X0067079Y0044569D01*
X0067079Y0043370D02*
X0074121Y0043370D01*
X0074121Y0042172D02*
X0067079Y0042172D01*
X0066595Y0040973D02*
X0074605Y0040973D01*
X0079930Y0038576D02*
X0038574Y0038576D01*
X0038568Y0037377D02*
X0058189Y0037377D01*
X0057995Y0036179D02*
X0053916Y0036179D01*
X0054105Y0034980D02*
X0057995Y0034980D01*
X0057995Y0033782D02*
X0054105Y0033782D01*
X0062065Y0039774D02*
X0081128Y0039774D01*
X0081162Y0040973D02*
X0081700Y0040973D01*
X0081700Y0042172D02*
X0081646Y0042172D01*
X0081646Y0043370D02*
X0081700Y0043370D01*
X0081646Y0044569D02*
X0087000Y0044569D01*
X0087000Y0045767D02*
X0081251Y0045767D01*
X0081696Y0046966D02*
X0078010Y0046966D01*
X0076811Y0048164D02*
X0081500Y0048164D01*
X0085200Y0048164D02*
X0086000Y0048164D01*
X0086000Y0046966D02*
X0085200Y0046966D01*
X0085200Y0049363D02*
X0076280Y0049363D01*
X0076280Y0050561D02*
X0081500Y0050561D01*
X0081500Y0051760D02*
X0076280Y0051760D01*
X0045243Y0046966D02*
X0041779Y0046966D01*
X0042000Y0045767D02*
X0044484Y0045767D01*
X0018875Y0022995D02*
X0018325Y0022995D01*
X0018325Y0021797D02*
X0018875Y0021797D01*
X0018875Y0019400D02*
X0018325Y0019400D01*
X0018325Y0018201D02*
X0018875Y0018201D01*
D22*
X0008600Y0010415D02*
X0034000Y0010415D01*
X0041458Y0014556D02*
X0045616Y0014556D01*
X0041458Y0014556D02*
X0035600Y0020415D01*
X0035500Y0026015D01*
X0035524Y0027504D01*
X0014789Y0027504D01*
X0009700Y0022415D01*
X0006600Y0022415D01*
X0006600Y0012415D02*
X0008600Y0010415D01*
X0035524Y0027504D02*
X0035600Y0044415D01*
X0037600Y0042415D01*
X0045600Y0042415D01*
D23*
X0071600Y0027135D02*
X0071600Y0024415D01*
X0070600Y0023415D01*
X0046600Y0023415D01*
X0071600Y0027135D02*
X0073600Y0029135D01*
X0077883Y0043415D02*
X0072600Y0048698D01*
X0072600Y0049415D01*
M02*
