G75*
%MOIN*%
%OFA0B0*%
%FSLAX25Y25*%
%IPPOS*%
%LPD*%
%AMOC8*
5,1,8,0,0,1.08239X$1,22.5*
%
%ADD10C,0.00500*%
%ADD11C,0.00200*%
%ADD12C,0.00000*%
D10*
X0086500Y0002000D02*
X0166500Y0002000D01*
X0166500Y0012000D01*
X0086500Y0012000D01*
X0086500Y0002000D01*
X0086500Y0116000D02*
X0166500Y0116000D01*
X0166500Y0126000D01*
X0086500Y0126000D01*
X0086500Y0116000D01*
D11*
X0081911Y0007100D02*
X0081600Y0007100D01*
X0081911Y0007100D02*
X0081960Y0007102D01*
X0082008Y0007108D01*
X0082056Y0007117D01*
X0082103Y0007130D01*
X0082149Y0007147D01*
X0082193Y0007168D01*
X0082236Y0007192D01*
X0082277Y0007219D01*
X0082315Y0007249D01*
X0082351Y0007282D01*
X0082384Y0007318D01*
X0082414Y0007356D01*
X0082441Y0007397D01*
X0082465Y0007440D01*
X0082486Y0007484D01*
X0082503Y0007530D01*
X0082516Y0007577D01*
X0082525Y0007625D01*
X0082531Y0007673D01*
X0082533Y0007722D01*
X0082533Y0009900D01*
X0085080Y0008655D02*
X0085115Y0008692D01*
X0085148Y0008730D01*
X0085179Y0008771D01*
X0085206Y0008813D01*
X0085231Y0008858D01*
X0085252Y0008904D01*
X0085271Y0008951D01*
X0085286Y0008999D01*
X0085298Y0009049D01*
X0085306Y0009099D01*
X0085311Y0009149D01*
X0085313Y0009200D01*
X0085080Y0008656D02*
X0083758Y0007100D01*
X0085313Y0007100D01*
X0083758Y0009278D02*
X0083777Y0009331D01*
X0083799Y0009383D01*
X0083825Y0009433D01*
X0083854Y0009482D01*
X0083885Y0009529D01*
X0083920Y0009574D01*
X0083957Y0009616D01*
X0083997Y0009656D01*
X0084040Y0009693D01*
X0084084Y0009728D01*
X0084131Y0009760D01*
X0084180Y0009789D01*
X0084230Y0009814D01*
X0084282Y0009837D01*
X0084335Y0009856D01*
X0084389Y0009872D01*
X0084444Y0009884D01*
X0084500Y0009893D01*
X0084557Y0009898D01*
X0084613Y0009900D01*
X0084663Y0009898D01*
X0084713Y0009893D01*
X0084762Y0009884D01*
X0084810Y0009872D01*
X0084858Y0009856D01*
X0084904Y0009837D01*
X0084948Y0009814D01*
X0084991Y0009789D01*
X0085032Y0009760D01*
X0085071Y0009729D01*
X0085108Y0009695D01*
X0085142Y0009658D01*
X0085173Y0009619D01*
X0085202Y0009578D01*
X0085227Y0009535D01*
X0085250Y0009491D01*
X0085269Y0009445D01*
X0085285Y0009397D01*
X0085297Y0009349D01*
X0085306Y0009300D01*
X0085311Y0009250D01*
X0085313Y0009200D01*
X0169100Y0118600D02*
X0169411Y0118600D01*
X0169460Y0118602D01*
X0169508Y0118608D01*
X0169556Y0118617D01*
X0169603Y0118630D01*
X0169649Y0118647D01*
X0169693Y0118668D01*
X0169736Y0118692D01*
X0169777Y0118719D01*
X0169815Y0118749D01*
X0169851Y0118782D01*
X0169884Y0118818D01*
X0169914Y0118856D01*
X0169941Y0118897D01*
X0169965Y0118940D01*
X0169986Y0118984D01*
X0170003Y0119030D01*
X0170016Y0119077D01*
X0170025Y0119125D01*
X0170031Y0119173D01*
X0170033Y0119222D01*
X0170033Y0121400D01*
X0171258Y0120778D02*
X0172035Y0121400D01*
X0172035Y0118600D01*
X0171258Y0118600D02*
X0172813Y0118600D01*
D12*
X0130000Y0121000D02*
X0123000Y0121000D01*
X0126500Y0117500D02*
X0126500Y0124500D01*
X0126500Y0010500D02*
X0126500Y0003500D01*
X0123000Y0007000D02*
X0130000Y0007000D01*
M02*
