G75*
%MOIN*%
%OFA0B0*%
%FSLAX25Y25*%
%IPPOS*%
%LPD*%
%AMOC8*
5,1,8,0,0,1.08239X$1,22.5*
%
%ADD10R,0.05900X0.05900*%
%ADD11C,0.05900*%
%ADD12C,0.14000*%
%ADD13C,0.03200*%
%ADD14C,0.03200*%
%ADD15C,0.01000*%
D10*
X0091500Y0007000D03*
X0091500Y0121000D03*
D11*
X0101500Y0121000D03*
X0111500Y0121000D03*
X0121500Y0121000D03*
X0131500Y0121000D03*
X0141500Y0121000D03*
X0151500Y0121000D03*
X0161500Y0121000D03*
X0161500Y0007000D03*
X0151500Y0007000D03*
X0141500Y0007000D03*
X0131500Y0007000D03*
X0121500Y0007000D03*
X0111500Y0007000D03*
X0101500Y0007000D03*
D12*
X0064000Y0014000D03*
X0028645Y0028645D03*
X0014000Y0064000D03*
X0028645Y0099355D03*
X0064000Y0114000D03*
X0099355Y0099355D03*
X0153645Y0099355D03*
X0189000Y0114000D03*
X0224355Y0099355D03*
X0239000Y0064000D03*
X0224355Y0028645D03*
X0189000Y0014000D03*
X0153645Y0028645D03*
X0099355Y0028645D03*
X0114000Y0064000D03*
X0139000Y0064000D03*
D13*
X0151395Y0079577D02*
X0151395Y0046895D01*
X0111500Y0007000D01*
X0091500Y0007000D02*
X0121500Y0037000D01*
X0133500Y0037000D01*
X0101605Y0048423D02*
X0101605Y0081105D01*
X0141500Y0121000D01*
X0161500Y0121000D02*
X0129500Y0089000D01*
X0116500Y0089000D01*
X0116687Y0088813D01*
X0102735Y0115850D02*
X0088490Y0101605D01*
X0048423Y0101605D01*
X0026395Y0079577D01*
X0026395Y0076395D01*
X0014000Y0064000D01*
X0028645Y0099355D02*
X0036345Y0099355D01*
X0060189Y0123200D01*
X0067811Y0123200D01*
X0075161Y0115850D01*
X0095361Y0115850D01*
X0100511Y0121000D01*
X0101500Y0121000D01*
X0103633Y0115850D02*
X0108783Y0121000D01*
X0111500Y0121000D01*
X0103633Y0115850D02*
X0102735Y0115850D01*
X0153645Y0099355D02*
X0153645Y0081826D01*
X0151395Y0079577D01*
X0101605Y0048423D02*
X0099355Y0046174D01*
X0099355Y0028645D01*
X0141500Y0007000D02*
X0144217Y0007000D01*
X0149367Y0012150D01*
X0153993Y0012150D01*
X0168238Y0026395D01*
X0204577Y0026395D01*
X0226605Y0048423D01*
X0226605Y0051605D01*
X0239000Y0064000D01*
X0224355Y0028645D02*
X0216655Y0028645D01*
X0192811Y0004800D01*
X0185189Y0004800D01*
X0177839Y0012150D01*
X0159367Y0012150D01*
X0154217Y0007000D01*
X0151500Y0007000D01*
D14*
X0133500Y0037000D03*
X0116687Y0088813D03*
D15*
X0055900Y0014481D02*
X0028648Y0014481D01*
X0027183Y0015479D02*
X0055900Y0015479D01*
X0055900Y0015611D02*
X0055900Y0012389D01*
X0057133Y0009412D01*
X0059412Y0007133D01*
X0062389Y0005900D01*
X0065611Y0005900D01*
X0068588Y0007133D01*
X0070867Y0009412D01*
X0072100Y0012389D01*
X0072100Y0015611D01*
X0070867Y0018588D01*
X0068588Y0020867D01*
X0065611Y0022100D01*
X0062389Y0022100D01*
X0059412Y0020867D01*
X0057133Y0018588D01*
X0055900Y0015611D01*
X0056259Y0016478D02*
X0025785Y0016478D01*
X0025967Y0016308D02*
X0019284Y0022509D01*
X0013599Y0029637D01*
X0009041Y0037533D01*
X0005710Y0046020D01*
X0003681Y0054908D01*
X0003000Y0064000D01*
X0003681Y0073092D01*
X0005710Y0081980D01*
X0009041Y0090467D01*
X0013599Y0098363D01*
X0019284Y0105491D01*
X0025967Y0111692D01*
X0033500Y0116828D01*
X0041714Y0120783D01*
X0050426Y0123471D01*
X0057745Y0124574D01*
X0035981Y0102810D01*
X0035512Y0103944D01*
X0033233Y0106222D01*
X0030256Y0107455D01*
X0027034Y0107455D01*
X0024056Y0106222D01*
X0021778Y0103944D01*
X0020545Y0100967D01*
X0020545Y0097744D01*
X0021778Y0094767D01*
X0024056Y0092488D01*
X0027034Y0091255D01*
X0030256Y0091255D01*
X0033233Y0092488D01*
X0035512Y0094767D01*
X0036294Y0096655D01*
X0036882Y0096655D01*
X0037874Y0097066D01*
X0055900Y0115092D01*
X0055900Y0112389D01*
X0057133Y0109412D01*
X0059412Y0107133D01*
X0062389Y0105900D01*
X0065611Y0105900D01*
X0068588Y0107133D01*
X0070867Y0109412D01*
X0072100Y0112389D01*
X0072100Y0115092D01*
X0072872Y0114321D01*
X0072872Y0114321D01*
X0073631Y0113561D01*
X0074624Y0113150D01*
X0095898Y0113150D01*
X0096442Y0113375D01*
X0087372Y0104305D01*
X0047886Y0104305D01*
X0046894Y0103894D01*
X0046135Y0103134D01*
X0024866Y0081865D01*
X0024106Y0081106D01*
X0023695Y0080114D01*
X0023695Y0077513D01*
X0017499Y0071318D01*
X0015611Y0072100D01*
X0012389Y0072100D01*
X0009412Y0070867D01*
X0007133Y0068588D01*
X0005900Y0065611D01*
X0005900Y0062389D01*
X0007133Y0059412D01*
X0009412Y0057133D01*
X0012389Y0055900D01*
X0015611Y0055900D01*
X0018588Y0057133D01*
X0020867Y0059412D01*
X0022100Y0062389D01*
X0022100Y0065611D01*
X0021318Y0067499D01*
X0028684Y0074866D01*
X0029095Y0075858D01*
X0029095Y0078458D01*
X0049542Y0098905D01*
X0089027Y0098905D01*
X0090020Y0099316D01*
X0090779Y0100076D01*
X0091255Y0100552D01*
X0091255Y0097744D01*
X0092488Y0094767D01*
X0094767Y0092488D01*
X0097744Y0091255D01*
X0100966Y0091255D01*
X0103944Y0092488D01*
X0106222Y0094767D01*
X0107455Y0097744D01*
X0107455Y0100967D01*
X0106222Y0103944D01*
X0103944Y0106222D01*
X0100966Y0107455D01*
X0098159Y0107455D01*
X0103854Y0113150D01*
X0104170Y0113150D01*
X0105163Y0113561D01*
X0105922Y0114321D01*
X0109187Y0117585D01*
X0109206Y0117567D01*
X0110694Y0116950D01*
X0112306Y0116950D01*
X0113794Y0117567D01*
X0114933Y0118706D01*
X0115550Y0120194D01*
X0115550Y0121806D01*
X0114933Y0123294D01*
X0113794Y0124433D01*
X0112426Y0125000D01*
X0120574Y0125000D01*
X0119206Y0124433D01*
X0118067Y0123294D01*
X0117450Y0121806D01*
X0117450Y0120194D01*
X0118067Y0118706D01*
X0119206Y0117567D01*
X0120694Y0116950D01*
X0122306Y0116950D01*
X0123794Y0117567D01*
X0124933Y0118706D01*
X0125550Y0120194D01*
X0125550Y0121806D01*
X0124933Y0123294D01*
X0123794Y0124433D01*
X0122426Y0125000D01*
X0130574Y0125000D01*
X0129206Y0124433D01*
X0128067Y0123294D01*
X0127450Y0121806D01*
X0127450Y0120194D01*
X0128067Y0118706D01*
X0129206Y0117567D01*
X0130694Y0116950D01*
X0132306Y0116950D01*
X0133794Y0117567D01*
X0134933Y0118706D01*
X0135550Y0120194D01*
X0135550Y0121806D01*
X0134933Y0123294D01*
X0133794Y0124433D01*
X0132426Y0125000D01*
X0140574Y0125000D01*
X0139206Y0124433D01*
X0138067Y0123294D01*
X0137450Y0121806D01*
X0137450Y0120768D01*
X0100076Y0083394D01*
X0099316Y0082634D01*
X0098905Y0081642D01*
X0098905Y0049542D01*
X0097826Y0048463D01*
X0097066Y0047703D01*
X0096655Y0046711D01*
X0096655Y0036294D01*
X0094767Y0035512D01*
X0092488Y0033233D01*
X0091255Y0030256D01*
X0091255Y0027034D01*
X0092488Y0024056D01*
X0094767Y0021778D01*
X0097744Y0020545D01*
X0100966Y0020545D01*
X0101410Y0020728D01*
X0091732Y0011050D01*
X0088094Y0011050D01*
X0087450Y0010406D01*
X0087450Y0003594D01*
X0088044Y0003000D01*
X0064000Y0003000D01*
X0059441Y0003171D01*
X0050426Y0004529D01*
X0041714Y0007217D01*
X0033500Y0011172D01*
X0025967Y0016308D01*
X0024708Y0017476D02*
X0056673Y0017476D01*
X0057086Y0018475D02*
X0023632Y0018475D01*
X0022556Y0019473D02*
X0058018Y0019473D01*
X0059017Y0020472D02*
X0021480Y0020472D01*
X0020404Y0021470D02*
X0024799Y0021470D01*
X0024056Y0021778D02*
X0027034Y0020545D01*
X0030256Y0020545D01*
X0033233Y0021778D01*
X0035512Y0024056D01*
X0036745Y0027034D01*
X0036745Y0030256D01*
X0035512Y0033233D01*
X0033233Y0035512D01*
X0030256Y0036745D01*
X0027034Y0036745D01*
X0024056Y0035512D01*
X0021778Y0033233D01*
X0020545Y0030256D01*
X0020545Y0027034D01*
X0021778Y0024056D01*
X0024056Y0021778D01*
X0023366Y0022469D02*
X0019328Y0022469D01*
X0018520Y0023467D02*
X0022367Y0023467D01*
X0021608Y0024466D02*
X0017724Y0024466D01*
X0016927Y0025464D02*
X0021195Y0025464D01*
X0020781Y0026463D02*
X0016131Y0026463D01*
X0015335Y0027461D02*
X0020545Y0027461D01*
X0020545Y0028460D02*
X0014539Y0028460D01*
X0013742Y0029458D02*
X0020545Y0029458D01*
X0020628Y0030457D02*
X0013126Y0030457D01*
X0012550Y0031455D02*
X0021042Y0031455D01*
X0021455Y0032454D02*
X0011973Y0032454D01*
X0011397Y0033452D02*
X0021997Y0033452D01*
X0022996Y0034451D02*
X0010820Y0034451D01*
X0010244Y0035449D02*
X0023994Y0035449D01*
X0026317Y0036448D02*
X0009667Y0036448D01*
X0009091Y0037446D02*
X0096655Y0037446D01*
X0096655Y0036448D02*
X0030972Y0036448D01*
X0033295Y0035449D02*
X0094705Y0035449D01*
X0093706Y0034451D02*
X0034294Y0034451D01*
X0035292Y0033452D02*
X0092708Y0033452D01*
X0092166Y0032454D02*
X0035834Y0032454D01*
X0036248Y0031455D02*
X0091752Y0031455D01*
X0091339Y0030457D02*
X0036661Y0030457D01*
X0036745Y0029458D02*
X0091255Y0029458D01*
X0091255Y0028460D02*
X0036745Y0028460D01*
X0036745Y0027461D02*
X0091255Y0027461D01*
X0091492Y0026463D02*
X0036508Y0026463D01*
X0036095Y0025464D02*
X0091905Y0025464D01*
X0092319Y0024466D02*
X0035681Y0024466D01*
X0034922Y0023467D02*
X0093078Y0023467D01*
X0094076Y0022469D02*
X0033924Y0022469D01*
X0032490Y0021470D02*
X0060868Y0021470D01*
X0067132Y0021470D02*
X0095510Y0021470D01*
X0099156Y0018475D02*
X0070914Y0018475D01*
X0071327Y0017476D02*
X0098158Y0017476D01*
X0097159Y0016478D02*
X0071741Y0016478D01*
X0072100Y0015479D02*
X0096161Y0015479D01*
X0095162Y0014481D02*
X0072100Y0014481D01*
X0072100Y0013482D02*
X0094164Y0013482D01*
X0093165Y0012484D02*
X0072100Y0012484D01*
X0071726Y0011485D02*
X0092167Y0011485D01*
X0087531Y0010487D02*
X0071312Y0010487D01*
X0070898Y0009488D02*
X0087450Y0009488D01*
X0087450Y0008490D02*
X0069945Y0008490D01*
X0068946Y0007491D02*
X0087450Y0007491D01*
X0087450Y0006493D02*
X0067042Y0006493D01*
X0060958Y0006493D02*
X0044062Y0006493D01*
X0041144Y0007491D02*
X0059054Y0007491D01*
X0058055Y0008490D02*
X0039071Y0008490D01*
X0036998Y0009488D02*
X0057102Y0009488D01*
X0056688Y0010487D02*
X0034924Y0010487D01*
X0033041Y0011485D02*
X0056274Y0011485D01*
X0055900Y0012484D02*
X0031577Y0012484D01*
X0030112Y0013482D02*
X0055900Y0013482D01*
X0068983Y0020472D02*
X0101153Y0020472D01*
X0100155Y0019473D02*
X0069982Y0019473D01*
X0095550Y0007232D02*
X0122618Y0034300D01*
X0134037Y0034300D01*
X0135029Y0034711D01*
X0135789Y0035471D01*
X0136200Y0036463D01*
X0136200Y0037537D01*
X0135789Y0038529D01*
X0135029Y0039289D01*
X0134037Y0039700D01*
X0120963Y0039700D01*
X0119971Y0039289D01*
X0119211Y0038529D01*
X0107272Y0026590D01*
X0107455Y0027034D01*
X0107455Y0030256D01*
X0106222Y0033233D01*
X0103944Y0035512D01*
X0102055Y0036294D01*
X0102055Y0045055D01*
X0103134Y0046135D01*
X0103894Y0046894D01*
X0104305Y0047886D01*
X0104305Y0079987D01*
X0113800Y0089482D01*
X0113800Y0088463D01*
X0114211Y0087471D01*
X0114398Y0087284D01*
X0115158Y0086524D01*
X0116150Y0086113D01*
X0117224Y0086113D01*
X0117676Y0086300D01*
X0130037Y0086300D01*
X0131029Y0086711D01*
X0131789Y0087471D01*
X0145728Y0101410D01*
X0145545Y0100967D01*
X0145545Y0097744D01*
X0146778Y0094767D01*
X0149056Y0092488D01*
X0150945Y0091706D01*
X0150945Y0082945D01*
X0149866Y0081865D01*
X0149106Y0081106D01*
X0148695Y0080114D01*
X0148695Y0048013D01*
X0111732Y0011050D01*
X0110694Y0011050D01*
X0109206Y0010433D01*
X0108067Y0009294D01*
X0107450Y0007806D01*
X0107450Y0006194D01*
X0108067Y0004706D01*
X0109206Y0003567D01*
X0110574Y0003000D01*
X0102426Y0003000D01*
X0103794Y0003567D01*
X0104933Y0004706D01*
X0105550Y0006194D01*
X0105550Y0007806D01*
X0104933Y0009294D01*
X0103794Y0010433D01*
X0102306Y0011050D01*
X0100694Y0011050D01*
X0099206Y0010433D01*
X0098067Y0009294D01*
X0097450Y0007806D01*
X0097450Y0006194D01*
X0098067Y0004706D01*
X0099206Y0003567D01*
X0100574Y0003000D01*
X0094956Y0003000D01*
X0095550Y0003594D01*
X0095550Y0007232D01*
X0095809Y0007491D02*
X0097450Y0007491D01*
X0097450Y0006493D02*
X0095550Y0006493D01*
X0095550Y0005494D02*
X0097740Y0005494D01*
X0098277Y0004496D02*
X0095550Y0004496D01*
X0095453Y0003497D02*
X0099374Y0003497D01*
X0103626Y0003497D02*
X0109374Y0003497D01*
X0108277Y0004496D02*
X0104723Y0004496D01*
X0105260Y0005494D02*
X0107740Y0005494D01*
X0107450Y0006493D02*
X0105550Y0006493D01*
X0105550Y0007491D02*
X0107450Y0007491D01*
X0107733Y0008490D02*
X0105267Y0008490D01*
X0104739Y0009488D02*
X0108261Y0009488D01*
X0109334Y0010487D02*
X0103666Y0010487D01*
X0100802Y0012484D02*
X0113165Y0012484D01*
X0114164Y0013482D02*
X0101801Y0013482D01*
X0102799Y0014481D02*
X0115162Y0014481D01*
X0116161Y0015479D02*
X0103798Y0015479D01*
X0104796Y0016478D02*
X0117159Y0016478D01*
X0118158Y0017476D02*
X0105795Y0017476D01*
X0106793Y0018475D02*
X0119156Y0018475D01*
X0120155Y0019473D02*
X0107792Y0019473D01*
X0108790Y0020472D02*
X0121153Y0020472D01*
X0122152Y0021470D02*
X0109789Y0021470D01*
X0110787Y0022469D02*
X0123150Y0022469D01*
X0124149Y0023467D02*
X0111786Y0023467D01*
X0112784Y0024466D02*
X0125147Y0024466D01*
X0126146Y0025464D02*
X0113783Y0025464D01*
X0114781Y0026463D02*
X0127144Y0026463D01*
X0128143Y0027461D02*
X0115780Y0027461D01*
X0116778Y0028460D02*
X0129141Y0028460D01*
X0130140Y0029458D02*
X0117777Y0029458D01*
X0118775Y0030457D02*
X0131138Y0030457D01*
X0132137Y0031455D02*
X0119774Y0031455D01*
X0120772Y0032454D02*
X0133135Y0032454D01*
X0134134Y0033452D02*
X0121771Y0033452D01*
X0117130Y0036448D02*
X0102055Y0036448D01*
X0102055Y0037446D02*
X0118128Y0037446D01*
X0119127Y0038445D02*
X0102055Y0038445D01*
X0102055Y0039443D02*
X0120344Y0039443D01*
X0116131Y0035449D02*
X0104006Y0035449D01*
X0105004Y0034451D02*
X0115133Y0034451D01*
X0114134Y0033452D02*
X0106003Y0033452D01*
X0106545Y0032454D02*
X0113135Y0032454D01*
X0112137Y0031455D02*
X0106958Y0031455D01*
X0107372Y0030457D02*
X0111138Y0030457D01*
X0110140Y0029458D02*
X0107455Y0029458D01*
X0107455Y0028460D02*
X0109141Y0028460D01*
X0108143Y0027461D02*
X0107455Y0027461D01*
X0125795Y0017476D02*
X0155501Y0017476D01*
X0156499Y0018475D02*
X0126793Y0018475D01*
X0127792Y0019473D02*
X0157498Y0019473D01*
X0158496Y0020472D02*
X0128790Y0020472D01*
X0129789Y0021470D02*
X0149799Y0021470D01*
X0149056Y0021778D02*
X0152034Y0020545D01*
X0155256Y0020545D01*
X0158233Y0021778D01*
X0160512Y0024056D01*
X0161745Y0027034D01*
X0161745Y0030256D01*
X0160512Y0033233D01*
X0158233Y0035512D01*
X0155256Y0036745D01*
X0152034Y0036745D01*
X0149056Y0035512D01*
X0146778Y0033233D01*
X0145545Y0030256D01*
X0145545Y0027034D01*
X0146778Y0024056D01*
X0149056Y0021778D01*
X0148366Y0022469D02*
X0130787Y0022469D01*
X0131786Y0023467D02*
X0147367Y0023467D01*
X0146608Y0024466D02*
X0132784Y0024466D01*
X0133783Y0025464D02*
X0146195Y0025464D01*
X0145781Y0026463D02*
X0134781Y0026463D01*
X0135780Y0027461D02*
X0145545Y0027461D01*
X0145545Y0028460D02*
X0136778Y0028460D01*
X0137777Y0029458D02*
X0145545Y0029458D01*
X0145628Y0030457D02*
X0138775Y0030457D01*
X0139774Y0031455D02*
X0146042Y0031455D01*
X0146455Y0032454D02*
X0140772Y0032454D01*
X0141771Y0033452D02*
X0146997Y0033452D01*
X0147996Y0034451D02*
X0142769Y0034451D01*
X0143768Y0035449D02*
X0148994Y0035449D01*
X0151317Y0036448D02*
X0144766Y0036448D01*
X0145765Y0037446D02*
X0211810Y0037446D01*
X0210811Y0036448D02*
X0155972Y0036448D01*
X0158295Y0035449D02*
X0209813Y0035449D01*
X0208814Y0034451D02*
X0159294Y0034451D01*
X0160292Y0033452D02*
X0207816Y0033452D01*
X0206817Y0032454D02*
X0160834Y0032454D01*
X0161248Y0031455D02*
X0205819Y0031455D01*
X0204820Y0030457D02*
X0161661Y0030457D01*
X0161745Y0029458D02*
X0203822Y0029458D01*
X0203458Y0029095D02*
X0167701Y0029095D01*
X0166708Y0028684D01*
X0165949Y0027924D01*
X0152874Y0014850D01*
X0148830Y0014850D01*
X0147837Y0014439D01*
X0147078Y0013679D01*
X0143813Y0010415D01*
X0143794Y0010433D01*
X0142306Y0011050D01*
X0140694Y0011050D01*
X0139206Y0010433D01*
X0138067Y0009294D01*
X0137450Y0007806D01*
X0137450Y0006194D01*
X0138067Y0004706D01*
X0139206Y0003567D01*
X0140574Y0003000D01*
X0132426Y0003000D01*
X0133794Y0003567D01*
X0134933Y0004706D01*
X0135550Y0006194D01*
X0135550Y0007806D01*
X0134933Y0009294D01*
X0133794Y0010433D01*
X0132306Y0011050D01*
X0130694Y0011050D01*
X0129206Y0010433D01*
X0128067Y0009294D01*
X0127450Y0007806D01*
X0127450Y0006194D01*
X0128067Y0004706D01*
X0129206Y0003567D01*
X0130574Y0003000D01*
X0122426Y0003000D01*
X0123794Y0003567D01*
X0124933Y0004706D01*
X0125550Y0006194D01*
X0125550Y0007806D01*
X0124933Y0009294D01*
X0123794Y0010433D01*
X0122306Y0011050D01*
X0120694Y0011050D01*
X0119206Y0010433D01*
X0118067Y0009294D01*
X0117450Y0007806D01*
X0117450Y0006194D01*
X0118067Y0004706D01*
X0119206Y0003567D01*
X0120574Y0003000D01*
X0112426Y0003000D01*
X0113794Y0003567D01*
X0114933Y0004706D01*
X0115550Y0006194D01*
X0115550Y0007232D01*
X0152924Y0044606D01*
X0153684Y0045366D01*
X0154095Y0046358D01*
X0154095Y0078458D01*
X0155174Y0079537D01*
X0155934Y0080297D01*
X0156345Y0081289D01*
X0156345Y0091706D01*
X0158233Y0092488D01*
X0160512Y0094767D01*
X0161745Y0097744D01*
X0161745Y0100967D01*
X0160512Y0103944D01*
X0158233Y0106222D01*
X0155256Y0107455D01*
X0152034Y0107455D01*
X0151590Y0107272D01*
X0161268Y0116950D01*
X0162306Y0116950D01*
X0163794Y0117567D01*
X0164933Y0118706D01*
X0165550Y0120194D01*
X0165550Y0121806D01*
X0164933Y0123294D01*
X0163794Y0124433D01*
X0162426Y0125000D01*
X0189000Y0125000D01*
X0193559Y0124829D01*
X0202574Y0123471D01*
X0211286Y0120783D01*
X0219500Y0116828D01*
X0227033Y0111692D01*
X0233716Y0105491D01*
X0239401Y0098363D01*
X0243959Y0090467D01*
X0247290Y0081980D01*
X0249319Y0073092D01*
X0250000Y0064000D01*
X0249319Y0054908D01*
X0247290Y0046020D01*
X0243959Y0037533D01*
X0239401Y0029637D01*
X0233716Y0022509D01*
X0227033Y0016308D01*
X0219500Y0011172D01*
X0211286Y0007217D01*
X0202574Y0004529D01*
X0195255Y0003426D01*
X0217019Y0025190D01*
X0217488Y0024056D01*
X0219767Y0021778D01*
X0222744Y0020545D01*
X0225966Y0020545D01*
X0228944Y0021778D01*
X0231222Y0024056D01*
X0232455Y0027034D01*
X0232455Y0030256D01*
X0231222Y0033233D01*
X0228944Y0035512D01*
X0225966Y0036745D01*
X0222744Y0036745D01*
X0219767Y0035512D01*
X0217488Y0033233D01*
X0216706Y0031345D01*
X0216118Y0031345D01*
X0215126Y0030934D01*
X0197100Y0012908D01*
X0197100Y0015611D01*
X0195867Y0018588D01*
X0193588Y0020867D01*
X0190611Y0022100D01*
X0187389Y0022100D01*
X0184412Y0020867D01*
X0182133Y0018588D01*
X0180900Y0015611D01*
X0180900Y0012908D01*
X0179369Y0014439D01*
X0178376Y0014850D01*
X0160511Y0014850D01*
X0169356Y0023695D01*
X0205114Y0023695D01*
X0206106Y0024106D01*
X0206865Y0024866D01*
X0228134Y0046135D01*
X0228134Y0046135D01*
X0228894Y0046894D01*
X0229305Y0047886D01*
X0229305Y0050487D01*
X0235501Y0056682D01*
X0237389Y0055900D01*
X0240611Y0055900D01*
X0243588Y0057133D01*
X0245867Y0059412D01*
X0247100Y0062389D01*
X0247100Y0065611D01*
X0245867Y0068588D01*
X0243588Y0070867D01*
X0240611Y0072100D01*
X0237389Y0072100D01*
X0234412Y0070867D01*
X0232133Y0068588D01*
X0230900Y0065611D01*
X0230900Y0062389D01*
X0231682Y0060501D01*
X0224316Y0053134D01*
X0223905Y0052142D01*
X0223905Y0049542D01*
X0203458Y0029095D01*
X0208463Y0026463D02*
X0210655Y0026463D01*
X0211654Y0027461D02*
X0209461Y0027461D01*
X0210460Y0028460D02*
X0212652Y0028460D01*
X0213651Y0029458D02*
X0211458Y0029458D01*
X0212457Y0030457D02*
X0214649Y0030457D01*
X0213455Y0031455D02*
X0216752Y0031455D01*
X0217166Y0032454D02*
X0214454Y0032454D01*
X0215452Y0033452D02*
X0217708Y0033452D01*
X0218706Y0034451D02*
X0216451Y0034451D01*
X0217449Y0035449D02*
X0219705Y0035449D01*
X0218448Y0036448D02*
X0222028Y0036448D01*
X0219446Y0037446D02*
X0243909Y0037446D01*
X0244317Y0038445D02*
X0220445Y0038445D01*
X0221443Y0039443D02*
X0244709Y0039443D01*
X0245101Y0040442D02*
X0222442Y0040442D01*
X0223440Y0041440D02*
X0245493Y0041440D01*
X0245885Y0042439D02*
X0224439Y0042439D01*
X0225437Y0043437D02*
X0246276Y0043437D01*
X0246668Y0044436D02*
X0226436Y0044436D01*
X0227434Y0045434D02*
X0247060Y0045434D01*
X0247384Y0046433D02*
X0228433Y0046433D01*
X0229117Y0047432D02*
X0247612Y0047432D01*
X0247840Y0048430D02*
X0229305Y0048430D01*
X0229305Y0049429D02*
X0248068Y0049429D01*
X0248296Y0050427D02*
X0229305Y0050427D01*
X0230244Y0051426D02*
X0248524Y0051426D01*
X0248752Y0052424D02*
X0231242Y0052424D01*
X0232241Y0053423D02*
X0248980Y0053423D01*
X0249207Y0054421D02*
X0233239Y0054421D01*
X0234238Y0055420D02*
X0249357Y0055420D01*
X0249319Y0054908D02*
X0249319Y0054908D01*
X0249432Y0056418D02*
X0241862Y0056418D01*
X0243872Y0057417D02*
X0249507Y0057417D01*
X0249581Y0058415D02*
X0244870Y0058415D01*
X0245868Y0059414D02*
X0249656Y0059414D01*
X0249731Y0060412D02*
X0246281Y0060412D01*
X0246695Y0061411D02*
X0249806Y0061411D01*
X0249881Y0062409D02*
X0247100Y0062409D01*
X0247100Y0063408D02*
X0249956Y0063408D01*
X0249970Y0064406D02*
X0247100Y0064406D01*
X0247100Y0065405D02*
X0249895Y0065405D01*
X0249820Y0066403D02*
X0246772Y0066403D01*
X0246358Y0067402D02*
X0249745Y0067402D01*
X0249670Y0068400D02*
X0245945Y0068400D01*
X0245056Y0069399D02*
X0249595Y0069399D01*
X0249521Y0070397D02*
X0244058Y0070397D01*
X0242311Y0071396D02*
X0249446Y0071396D01*
X0249371Y0072394D02*
X0200666Y0072394D01*
X0200443Y0072780D02*
X0197780Y0075443D01*
X0194520Y0077325D01*
X0190883Y0078300D01*
X0187117Y0078300D01*
X0183480Y0077325D01*
X0180220Y0075443D01*
X0177557Y0072780D01*
X0175675Y0069520D01*
X0174700Y0065883D01*
X0174700Y0062117D01*
X0175675Y0058480D01*
X0177557Y0055220D01*
X0180220Y0052557D01*
X0183480Y0050675D01*
X0187117Y0049700D01*
X0190883Y0049700D01*
X0194520Y0050675D01*
X0197780Y0052557D01*
X0200443Y0055220D01*
X0202325Y0058480D01*
X0203300Y0062117D01*
X0203300Y0065883D01*
X0202325Y0069520D01*
X0200443Y0072780D01*
X0199830Y0073393D02*
X0249250Y0073393D01*
X0249022Y0074391D02*
X0198832Y0074391D01*
X0197833Y0075390D02*
X0248794Y0075390D01*
X0248566Y0076388D02*
X0196143Y0076388D01*
X0194290Y0077387D02*
X0248338Y0077387D01*
X0248110Y0078385D02*
X0154095Y0078385D01*
X0154095Y0077387D02*
X0183710Y0077387D01*
X0181857Y0076388D02*
X0154095Y0076388D01*
X0154095Y0075390D02*
X0180167Y0075390D01*
X0179168Y0074391D02*
X0154095Y0074391D01*
X0154095Y0073393D02*
X0178170Y0073393D01*
X0177334Y0072394D02*
X0154095Y0072394D01*
X0154095Y0071396D02*
X0176758Y0071396D01*
X0176181Y0070397D02*
X0154095Y0070397D01*
X0154095Y0069399D02*
X0175642Y0069399D01*
X0175375Y0068400D02*
X0154095Y0068400D01*
X0154095Y0067402D02*
X0175107Y0067402D01*
X0174840Y0066403D02*
X0154095Y0066403D01*
X0154095Y0065405D02*
X0174700Y0065405D01*
X0174700Y0064406D02*
X0154095Y0064406D01*
X0154095Y0063408D02*
X0174700Y0063408D01*
X0174700Y0062409D02*
X0154095Y0062409D01*
X0154095Y0061411D02*
X0174889Y0061411D01*
X0175157Y0060412D02*
X0154095Y0060412D01*
X0154095Y0059414D02*
X0175424Y0059414D01*
X0175712Y0058415D02*
X0154095Y0058415D01*
X0154095Y0057417D02*
X0176289Y0057417D01*
X0176865Y0056418D02*
X0154095Y0056418D01*
X0154095Y0055420D02*
X0177442Y0055420D01*
X0178356Y0054421D02*
X0154095Y0054421D01*
X0154095Y0053423D02*
X0179354Y0053423D01*
X0180450Y0052424D02*
X0154095Y0052424D01*
X0154095Y0051426D02*
X0182180Y0051426D01*
X0184404Y0050427D02*
X0154095Y0050427D01*
X0154095Y0049429D02*
X0223792Y0049429D01*
X0223905Y0050427D02*
X0193596Y0050427D01*
X0195820Y0051426D02*
X0223905Y0051426D01*
X0224022Y0052424D02*
X0197550Y0052424D01*
X0198646Y0053423D02*
X0224604Y0053423D01*
X0225603Y0054421D02*
X0199644Y0054421D01*
X0200558Y0055420D02*
X0226601Y0055420D01*
X0227600Y0056418D02*
X0201135Y0056418D01*
X0201711Y0057417D02*
X0228598Y0057417D01*
X0229597Y0058415D02*
X0202288Y0058415D01*
X0202576Y0059414D02*
X0230595Y0059414D01*
X0231594Y0060412D02*
X0202843Y0060412D01*
X0203111Y0061411D02*
X0231305Y0061411D01*
X0230900Y0062409D02*
X0203300Y0062409D01*
X0203300Y0063408D02*
X0230900Y0063408D01*
X0230900Y0064406D02*
X0203300Y0064406D01*
X0203300Y0065405D02*
X0230900Y0065405D01*
X0231228Y0066403D02*
X0203160Y0066403D01*
X0202893Y0067402D02*
X0231642Y0067402D01*
X0232055Y0068400D02*
X0202625Y0068400D01*
X0202358Y0069399D02*
X0232944Y0069399D01*
X0233942Y0070397D02*
X0201819Y0070397D01*
X0201242Y0071396D02*
X0235689Y0071396D01*
X0247882Y0079384D02*
X0155021Y0079384D01*
X0155969Y0080382D02*
X0247655Y0080382D01*
X0247427Y0081381D02*
X0156345Y0081381D01*
X0156345Y0082379D02*
X0247133Y0082379D01*
X0246741Y0083378D02*
X0156345Y0083378D01*
X0156345Y0084376D02*
X0246349Y0084376D01*
X0245958Y0085375D02*
X0156345Y0085375D01*
X0156345Y0086373D02*
X0245566Y0086373D01*
X0245174Y0087372D02*
X0156345Y0087372D01*
X0156345Y0088370D02*
X0244782Y0088370D01*
X0244390Y0089369D02*
X0156345Y0089369D01*
X0156345Y0090368D02*
X0243998Y0090368D01*
X0243440Y0091366D02*
X0226234Y0091366D01*
X0225966Y0091255D02*
X0228944Y0092488D01*
X0231222Y0094767D01*
X0232455Y0097744D01*
X0232455Y0100967D01*
X0231222Y0103944D01*
X0228944Y0106222D01*
X0225966Y0107455D01*
X0222744Y0107455D01*
X0219767Y0106222D01*
X0217488Y0103944D01*
X0216255Y0100967D01*
X0216255Y0097744D01*
X0217488Y0094767D01*
X0219767Y0092488D01*
X0222744Y0091255D01*
X0225966Y0091255D01*
X0228644Y0092365D02*
X0242863Y0092365D01*
X0242287Y0093363D02*
X0229818Y0093363D01*
X0230817Y0094362D02*
X0241711Y0094362D01*
X0241134Y0095360D02*
X0231468Y0095360D01*
X0231881Y0096359D02*
X0240558Y0096359D01*
X0239981Y0097357D02*
X0232295Y0097357D01*
X0232455Y0098356D02*
X0239405Y0098356D01*
X0238610Y0099354D02*
X0232455Y0099354D01*
X0232455Y0100353D02*
X0237814Y0100353D01*
X0237017Y0101351D02*
X0232296Y0101351D01*
X0231882Y0102350D02*
X0236221Y0102350D01*
X0235425Y0103348D02*
X0231469Y0103348D01*
X0230819Y0104347D02*
X0234628Y0104347D01*
X0233832Y0105345D02*
X0229821Y0105345D01*
X0228650Y0106344D02*
X0232797Y0106344D01*
X0231721Y0107342D02*
X0226240Y0107342D01*
X0222471Y0107342D02*
X0193797Y0107342D01*
X0193588Y0107133D02*
X0195867Y0109412D01*
X0197100Y0112389D01*
X0197100Y0115611D01*
X0195867Y0118588D01*
X0193588Y0120867D01*
X0190611Y0122100D01*
X0187389Y0122100D01*
X0184412Y0120867D01*
X0182133Y0118588D01*
X0180900Y0115611D01*
X0180900Y0112389D01*
X0182133Y0109412D01*
X0184412Y0107133D01*
X0187389Y0105900D01*
X0190611Y0105900D01*
X0193588Y0107133D01*
X0194796Y0108341D02*
X0230644Y0108341D01*
X0229568Y0109339D02*
X0195794Y0109339D01*
X0196250Y0110338D02*
X0228492Y0110338D01*
X0227416Y0111336D02*
X0196664Y0111336D01*
X0197078Y0112335D02*
X0226090Y0112335D01*
X0224625Y0113333D02*
X0197100Y0113333D01*
X0197100Y0114332D02*
X0223161Y0114332D01*
X0221696Y0115330D02*
X0197100Y0115330D01*
X0196803Y0116329D02*
X0220232Y0116329D01*
X0218462Y0117327D02*
X0196389Y0117327D01*
X0195976Y0118326D02*
X0216389Y0118326D01*
X0214315Y0119324D02*
X0195131Y0119324D01*
X0194132Y0120323D02*
X0212242Y0120323D01*
X0209541Y0121321D02*
X0192491Y0121321D01*
X0196959Y0124317D02*
X0163911Y0124317D01*
X0164909Y0123318D02*
X0203067Y0123318D01*
X0206304Y0122320D02*
X0165337Y0122320D01*
X0165550Y0121321D02*
X0185509Y0121321D01*
X0183868Y0120323D02*
X0165550Y0120323D01*
X0165190Y0119324D02*
X0182869Y0119324D01*
X0182024Y0118326D02*
X0164553Y0118326D01*
X0163216Y0117327D02*
X0181611Y0117327D01*
X0181197Y0116329D02*
X0160647Y0116329D01*
X0159649Y0115330D02*
X0180900Y0115330D01*
X0180900Y0114332D02*
X0158650Y0114332D01*
X0157652Y0113333D02*
X0180900Y0113333D01*
X0180922Y0112335D02*
X0156653Y0112335D01*
X0155655Y0111336D02*
X0181336Y0111336D01*
X0181750Y0110338D02*
X0154656Y0110338D01*
X0153658Y0109339D02*
X0182206Y0109339D01*
X0183204Y0108341D02*
X0152659Y0108341D01*
X0151760Y0107342D02*
X0151661Y0107342D01*
X0155529Y0107342D02*
X0184203Y0107342D01*
X0186318Y0106344D02*
X0157940Y0106344D01*
X0159110Y0105345D02*
X0218890Y0105345D01*
X0217891Y0104347D02*
X0160108Y0104347D01*
X0160758Y0103348D02*
X0217242Y0103348D01*
X0216828Y0102350D02*
X0161172Y0102350D01*
X0161585Y0101351D02*
X0216415Y0101351D01*
X0216255Y0100353D02*
X0161745Y0100353D01*
X0161745Y0099354D02*
X0216255Y0099354D01*
X0216255Y0098356D02*
X0161745Y0098356D01*
X0161584Y0097357D02*
X0216416Y0097357D01*
X0216829Y0096359D02*
X0161171Y0096359D01*
X0160757Y0095360D02*
X0217243Y0095360D01*
X0217894Y0094362D02*
X0160106Y0094362D01*
X0159108Y0093363D02*
X0218892Y0093363D01*
X0220066Y0092365D02*
X0157934Y0092365D01*
X0156345Y0091366D02*
X0222477Y0091366D01*
X0220060Y0106344D02*
X0191682Y0106344D01*
X0157450Y0120768D02*
X0128382Y0091700D01*
X0116018Y0091700D01*
X0141268Y0116950D01*
X0142306Y0116950D01*
X0143794Y0117567D01*
X0144933Y0118706D01*
X0145550Y0120194D01*
X0145550Y0121806D01*
X0144933Y0123294D01*
X0143794Y0124433D01*
X0142426Y0125000D01*
X0150574Y0125000D01*
X0149206Y0124433D01*
X0148067Y0123294D01*
X0147450Y0121806D01*
X0147450Y0120194D01*
X0148067Y0118706D01*
X0149206Y0117567D01*
X0150694Y0116950D01*
X0152306Y0116950D01*
X0153794Y0117567D01*
X0154933Y0118706D01*
X0155550Y0120194D01*
X0155550Y0121806D01*
X0154933Y0123294D01*
X0153794Y0124433D01*
X0152426Y0125000D01*
X0160574Y0125000D01*
X0159206Y0124433D01*
X0158067Y0123294D01*
X0157450Y0121806D01*
X0157450Y0120768D01*
X0157450Y0121321D02*
X0155550Y0121321D01*
X0155550Y0120323D02*
X0157004Y0120323D01*
X0156006Y0119324D02*
X0155190Y0119324D01*
X0155007Y0118326D02*
X0154553Y0118326D01*
X0154009Y0117327D02*
X0153216Y0117327D01*
X0153010Y0116329D02*
X0140647Y0116329D01*
X0139649Y0115330D02*
X0152012Y0115330D01*
X0151013Y0114332D02*
X0138650Y0114332D01*
X0137652Y0113333D02*
X0150015Y0113333D01*
X0149016Y0112335D02*
X0136653Y0112335D01*
X0135655Y0111336D02*
X0148018Y0111336D01*
X0147019Y0110338D02*
X0134656Y0110338D01*
X0133658Y0109339D02*
X0146021Y0109339D01*
X0145022Y0108341D02*
X0132659Y0108341D01*
X0131661Y0107342D02*
X0144024Y0107342D01*
X0143025Y0106344D02*
X0130662Y0106344D01*
X0129664Y0105345D02*
X0142027Y0105345D01*
X0141028Y0104347D02*
X0128665Y0104347D01*
X0127667Y0103348D02*
X0140030Y0103348D01*
X0139031Y0102350D02*
X0126668Y0102350D01*
X0125669Y0101351D02*
X0138033Y0101351D01*
X0137034Y0100353D02*
X0124671Y0100353D01*
X0123672Y0099354D02*
X0136036Y0099354D01*
X0135037Y0098356D02*
X0122674Y0098356D01*
X0121675Y0097357D02*
X0134039Y0097357D01*
X0133040Y0096359D02*
X0120677Y0096359D01*
X0119678Y0095360D02*
X0132042Y0095360D01*
X0131043Y0094362D02*
X0118680Y0094362D01*
X0117681Y0093363D02*
X0130045Y0093363D01*
X0129046Y0092365D02*
X0116683Y0092365D01*
X0112042Y0095360D02*
X0106468Y0095360D01*
X0106881Y0096359D02*
X0113040Y0096359D01*
X0114039Y0097357D02*
X0107295Y0097357D01*
X0107455Y0098356D02*
X0115037Y0098356D01*
X0116036Y0099354D02*
X0107455Y0099354D01*
X0107455Y0100353D02*
X0117034Y0100353D01*
X0118033Y0101351D02*
X0107296Y0101351D01*
X0106882Y0102350D02*
X0119031Y0102350D01*
X0120030Y0103348D02*
X0106469Y0103348D01*
X0105819Y0104347D02*
X0121028Y0104347D01*
X0122027Y0105345D02*
X0104821Y0105345D01*
X0103650Y0106344D02*
X0123025Y0106344D01*
X0124024Y0107342D02*
X0101240Y0107342D01*
X0099044Y0108341D02*
X0125022Y0108341D01*
X0126021Y0109339D02*
X0100043Y0109339D01*
X0101041Y0110338D02*
X0127019Y0110338D01*
X0128018Y0111336D02*
X0102040Y0111336D01*
X0103038Y0112335D02*
X0129016Y0112335D01*
X0130015Y0113333D02*
X0104613Y0113333D01*
X0105933Y0114332D02*
X0131013Y0114332D01*
X0132012Y0115330D02*
X0106932Y0115330D01*
X0107930Y0116329D02*
X0133010Y0116329D01*
X0133216Y0117327D02*
X0134009Y0117327D01*
X0134553Y0118326D02*
X0135007Y0118326D01*
X0135190Y0119324D02*
X0136006Y0119324D01*
X0135550Y0120323D02*
X0137004Y0120323D01*
X0137450Y0121321D02*
X0135550Y0121321D01*
X0135337Y0122320D02*
X0137663Y0122320D01*
X0138091Y0123318D02*
X0134909Y0123318D01*
X0133911Y0124317D02*
X0139089Y0124317D01*
X0143911Y0124317D02*
X0149089Y0124317D01*
X0148091Y0123318D02*
X0144909Y0123318D01*
X0145337Y0122320D02*
X0147663Y0122320D01*
X0147450Y0121321D02*
X0145550Y0121321D01*
X0145550Y0120323D02*
X0147450Y0120323D01*
X0147810Y0119324D02*
X0145190Y0119324D01*
X0144553Y0118326D02*
X0148447Y0118326D01*
X0149783Y0117327D02*
X0143216Y0117327D01*
X0155337Y0122320D02*
X0157663Y0122320D01*
X0158091Y0123318D02*
X0154909Y0123318D01*
X0153911Y0124317D02*
X0159089Y0124317D01*
X0129089Y0124317D02*
X0123911Y0124317D01*
X0124909Y0123318D02*
X0128091Y0123318D01*
X0127663Y0122320D02*
X0125337Y0122320D01*
X0125550Y0121321D02*
X0127450Y0121321D01*
X0127450Y0120323D02*
X0125550Y0120323D01*
X0125190Y0119324D02*
X0127810Y0119324D01*
X0128447Y0118326D02*
X0124553Y0118326D01*
X0123216Y0117327D02*
X0129783Y0117327D01*
X0119783Y0117327D02*
X0113216Y0117327D01*
X0114553Y0118326D02*
X0118447Y0118326D01*
X0117810Y0119324D02*
X0115190Y0119324D01*
X0115550Y0120323D02*
X0117450Y0120323D01*
X0117450Y0121321D02*
X0115550Y0121321D01*
X0115337Y0122320D02*
X0117663Y0122320D01*
X0118091Y0123318D02*
X0114909Y0123318D01*
X0113911Y0124317D02*
X0119089Y0124317D01*
X0110574Y0125000D02*
X0109206Y0124433D01*
X0108472Y0123700D01*
X0108246Y0123700D01*
X0107254Y0123289D01*
X0105550Y0121585D01*
X0105550Y0121806D01*
X0104933Y0123294D01*
X0103794Y0124433D01*
X0102426Y0125000D01*
X0110574Y0125000D01*
X0109089Y0124317D02*
X0103911Y0124317D01*
X0104909Y0123318D02*
X0107325Y0123318D01*
X0106285Y0122320D02*
X0105337Y0122320D01*
X0100574Y0125000D02*
X0099206Y0124433D01*
X0098067Y0123294D01*
X0097450Y0121806D01*
X0097450Y0121757D01*
X0095550Y0119857D01*
X0095550Y0124406D01*
X0094956Y0125000D01*
X0100574Y0125000D01*
X0099089Y0124317D02*
X0095550Y0124317D01*
X0095550Y0123318D02*
X0098091Y0123318D01*
X0097663Y0122320D02*
X0095550Y0122320D01*
X0095550Y0121321D02*
X0097014Y0121321D01*
X0096016Y0120323D02*
X0095550Y0120323D01*
X0087450Y0120323D02*
X0074506Y0120323D01*
X0073508Y0121321D02*
X0087450Y0121321D01*
X0087450Y0122320D02*
X0072509Y0122320D01*
X0071511Y0123318D02*
X0087450Y0123318D01*
X0087450Y0124317D02*
X0070512Y0124317D01*
X0070100Y0124729D02*
X0070100Y0124729D01*
X0076279Y0118550D01*
X0087450Y0118550D01*
X0087450Y0124406D01*
X0088044Y0125000D01*
X0069829Y0125000D01*
X0070100Y0124729D01*
X0075505Y0119324D02*
X0087450Y0119324D01*
X0096341Y0113333D02*
X0096400Y0113333D01*
X0095402Y0112335D02*
X0072078Y0112335D01*
X0072100Y0113333D02*
X0074181Y0113333D01*
X0072861Y0114332D02*
X0072100Y0114332D01*
X0071664Y0111336D02*
X0094403Y0111336D01*
X0093405Y0110338D02*
X0071250Y0110338D01*
X0070794Y0109339D02*
X0092406Y0109339D01*
X0091408Y0108341D02*
X0069796Y0108341D01*
X0068797Y0107342D02*
X0090409Y0107342D01*
X0089411Y0106344D02*
X0066682Y0106344D01*
X0061318Y0106344D02*
X0047151Y0106344D01*
X0048150Y0107342D02*
X0059203Y0107342D01*
X0058204Y0108341D02*
X0049148Y0108341D01*
X0050147Y0109339D02*
X0057206Y0109339D01*
X0056750Y0110338D02*
X0051145Y0110338D01*
X0052144Y0111336D02*
X0056336Y0111336D01*
X0055922Y0112335D02*
X0053142Y0112335D01*
X0054141Y0113333D02*
X0055900Y0113333D01*
X0055900Y0114332D02*
X0055139Y0114332D01*
X0050498Y0117327D02*
X0034538Y0117327D01*
X0032768Y0116329D02*
X0049500Y0116329D01*
X0048501Y0115330D02*
X0031304Y0115330D01*
X0029839Y0114332D02*
X0047503Y0114332D01*
X0046504Y0113333D02*
X0028375Y0113333D01*
X0026910Y0112335D02*
X0045506Y0112335D01*
X0044507Y0111336D02*
X0025584Y0111336D01*
X0024508Y0110338D02*
X0043509Y0110338D01*
X0042510Y0109339D02*
X0023432Y0109339D01*
X0022356Y0108341D02*
X0041512Y0108341D01*
X0040513Y0107342D02*
X0030529Y0107342D01*
X0032940Y0106344D02*
X0039515Y0106344D01*
X0038516Y0105345D02*
X0034110Y0105345D01*
X0035108Y0104347D02*
X0037518Y0104347D01*
X0036519Y0103348D02*
X0035758Y0103348D01*
X0041160Y0100353D02*
X0043353Y0100353D01*
X0044351Y0101351D02*
X0042159Y0101351D01*
X0043157Y0102350D02*
X0045350Y0102350D01*
X0046135Y0103134D02*
X0046135Y0103134D01*
X0046348Y0103348D02*
X0044156Y0103348D01*
X0045154Y0104347D02*
X0087414Y0104347D01*
X0088412Y0105345D02*
X0046153Y0105345D01*
X0042354Y0099354D02*
X0040162Y0099354D01*
X0039163Y0098356D02*
X0041356Y0098356D01*
X0040357Y0097357D02*
X0038165Y0097357D01*
X0039359Y0096359D02*
X0036171Y0096359D01*
X0035757Y0095360D02*
X0038360Y0095360D01*
X0037362Y0094362D02*
X0035106Y0094362D01*
X0034108Y0093363D02*
X0036363Y0093363D01*
X0035365Y0092365D02*
X0032934Y0092365D01*
X0034366Y0091366D02*
X0030523Y0091366D01*
X0033368Y0090368D02*
X0009002Y0090368D01*
X0008610Y0089369D02*
X0032369Y0089369D01*
X0031371Y0088370D02*
X0008218Y0088370D01*
X0007826Y0087372D02*
X0030372Y0087372D01*
X0029374Y0086373D02*
X0007434Y0086373D01*
X0007042Y0085375D02*
X0028375Y0085375D01*
X0027377Y0084376D02*
X0006651Y0084376D01*
X0006259Y0083378D02*
X0026378Y0083378D01*
X0025380Y0082379D02*
X0005867Y0082379D01*
X0005573Y0081381D02*
X0024381Y0081381D01*
X0023806Y0080382D02*
X0005345Y0080382D01*
X0005117Y0079384D02*
X0023695Y0079384D01*
X0023695Y0078385D02*
X0004890Y0078385D01*
X0004662Y0077387D02*
X0023569Y0077387D01*
X0022570Y0076388D02*
X0004434Y0076388D01*
X0004206Y0075390D02*
X0021571Y0075390D01*
X0020573Y0074391D02*
X0003978Y0074391D01*
X0003750Y0073393D02*
X0019574Y0073393D01*
X0018576Y0072394D02*
X0003629Y0072394D01*
X0003554Y0071396D02*
X0010689Y0071396D01*
X0008942Y0070397D02*
X0003479Y0070397D01*
X0003405Y0069399D02*
X0007944Y0069399D01*
X0007055Y0068400D02*
X0003330Y0068400D01*
X0003255Y0067402D02*
X0006642Y0067402D01*
X0006228Y0066403D02*
X0003180Y0066403D01*
X0003105Y0065405D02*
X0005900Y0065405D01*
X0005900Y0064406D02*
X0003030Y0064406D01*
X0003044Y0063408D02*
X0005900Y0063408D01*
X0005900Y0062409D02*
X0003119Y0062409D01*
X0003194Y0061411D02*
X0006305Y0061411D01*
X0006719Y0060412D02*
X0003269Y0060412D01*
X0003344Y0059414D02*
X0007132Y0059414D01*
X0008130Y0058415D02*
X0003419Y0058415D01*
X0003493Y0057417D02*
X0009128Y0057417D01*
X0011138Y0056418D02*
X0003568Y0056418D01*
X0003643Y0055420D02*
X0052442Y0055420D01*
X0052557Y0055220D02*
X0055220Y0052557D01*
X0058480Y0050675D01*
X0062117Y0049700D01*
X0065883Y0049700D01*
X0069520Y0050675D01*
X0072780Y0052557D01*
X0075443Y0055220D01*
X0077325Y0058480D01*
X0078300Y0062117D01*
X0078300Y0065883D01*
X0077325Y0069520D01*
X0075443Y0072780D01*
X0072780Y0075443D01*
X0069520Y0077325D01*
X0065883Y0078300D01*
X0062117Y0078300D01*
X0058480Y0077325D01*
X0055220Y0075443D01*
X0052557Y0072780D01*
X0050675Y0069520D01*
X0049700Y0065883D01*
X0049700Y0062117D01*
X0050675Y0058480D01*
X0052557Y0055220D01*
X0053356Y0054421D02*
X0003793Y0054421D01*
X0004020Y0053423D02*
X0054354Y0053423D01*
X0055450Y0052424D02*
X0004248Y0052424D01*
X0004476Y0051426D02*
X0057180Y0051426D01*
X0059404Y0050427D02*
X0004704Y0050427D01*
X0004932Y0049429D02*
X0098792Y0049429D01*
X0098905Y0050427D02*
X0068596Y0050427D01*
X0070820Y0051426D02*
X0098905Y0051426D01*
X0098905Y0052424D02*
X0072550Y0052424D01*
X0073646Y0053423D02*
X0098905Y0053423D01*
X0098905Y0054421D02*
X0074644Y0054421D01*
X0075558Y0055420D02*
X0098905Y0055420D01*
X0098905Y0056418D02*
X0076135Y0056418D01*
X0076711Y0057417D02*
X0098905Y0057417D01*
X0098905Y0058415D02*
X0077288Y0058415D01*
X0077576Y0059414D02*
X0098905Y0059414D01*
X0098905Y0060412D02*
X0077843Y0060412D01*
X0078111Y0061411D02*
X0098905Y0061411D01*
X0098905Y0062409D02*
X0078300Y0062409D01*
X0078300Y0063408D02*
X0098905Y0063408D01*
X0098905Y0064406D02*
X0078300Y0064406D01*
X0078300Y0065405D02*
X0098905Y0065405D01*
X0098905Y0066403D02*
X0078160Y0066403D01*
X0077893Y0067402D02*
X0098905Y0067402D01*
X0098905Y0068400D02*
X0077625Y0068400D01*
X0077358Y0069399D02*
X0098905Y0069399D01*
X0098905Y0070397D02*
X0076819Y0070397D01*
X0076242Y0071396D02*
X0098905Y0071396D01*
X0098905Y0072394D02*
X0075666Y0072394D01*
X0074830Y0073393D02*
X0098905Y0073393D01*
X0098905Y0074391D02*
X0073832Y0074391D01*
X0072833Y0075390D02*
X0098905Y0075390D01*
X0098905Y0076388D02*
X0071143Y0076388D01*
X0069290Y0077387D02*
X0098905Y0077387D01*
X0098905Y0078385D02*
X0029095Y0078385D01*
X0029095Y0077387D02*
X0058710Y0077387D01*
X0056857Y0076388D02*
X0029095Y0076388D01*
X0028901Y0075390D02*
X0055167Y0075390D01*
X0054168Y0074391D02*
X0028210Y0074391D01*
X0027211Y0073393D02*
X0053170Y0073393D01*
X0052334Y0072394D02*
X0026213Y0072394D01*
X0025214Y0071396D02*
X0051758Y0071396D01*
X0051181Y0070397D02*
X0024216Y0070397D01*
X0023217Y0069399D02*
X0050642Y0069399D01*
X0050375Y0068400D02*
X0022219Y0068400D01*
X0021358Y0067402D02*
X0050107Y0067402D01*
X0049840Y0066403D02*
X0021772Y0066403D01*
X0022100Y0065405D02*
X0049700Y0065405D01*
X0049700Y0064406D02*
X0022100Y0064406D01*
X0022100Y0063408D02*
X0049700Y0063408D01*
X0049700Y0062409D02*
X0022100Y0062409D01*
X0021695Y0061411D02*
X0049889Y0061411D01*
X0050157Y0060412D02*
X0021281Y0060412D01*
X0020868Y0059414D02*
X0050424Y0059414D01*
X0050712Y0058415D02*
X0019870Y0058415D01*
X0018872Y0057417D02*
X0051289Y0057417D01*
X0051865Y0056418D02*
X0016862Y0056418D01*
X0005160Y0048430D02*
X0097793Y0048430D01*
X0096954Y0047432D02*
X0005388Y0047432D01*
X0005616Y0046433D02*
X0096655Y0046433D01*
X0096655Y0045434D02*
X0005940Y0045434D01*
X0006332Y0044436D02*
X0096655Y0044436D01*
X0096655Y0043437D02*
X0006724Y0043437D01*
X0007115Y0042439D02*
X0096655Y0042439D01*
X0096655Y0041440D02*
X0007507Y0041440D01*
X0007899Y0040442D02*
X0096655Y0040442D01*
X0096655Y0039443D02*
X0008291Y0039443D01*
X0008683Y0038445D02*
X0096655Y0038445D01*
X0102055Y0040442D02*
X0141124Y0040442D01*
X0142122Y0041440D02*
X0102055Y0041440D01*
X0102055Y0042439D02*
X0143121Y0042439D01*
X0144119Y0043437D02*
X0102055Y0043437D01*
X0102055Y0044436D02*
X0145118Y0044436D01*
X0146116Y0045434D02*
X0102434Y0045434D01*
X0103433Y0046433D02*
X0147115Y0046433D01*
X0148113Y0047432D02*
X0104117Y0047432D01*
X0104305Y0048430D02*
X0148695Y0048430D01*
X0148695Y0049429D02*
X0104305Y0049429D01*
X0104305Y0050427D02*
X0148695Y0050427D01*
X0148695Y0051426D02*
X0104305Y0051426D01*
X0104305Y0052424D02*
X0148695Y0052424D01*
X0148695Y0053423D02*
X0104305Y0053423D01*
X0104305Y0054421D02*
X0148695Y0054421D01*
X0148695Y0055420D02*
X0104305Y0055420D01*
X0104305Y0056418D02*
X0111138Y0056418D01*
X0112389Y0055900D02*
X0109412Y0057133D01*
X0107133Y0059412D01*
X0105900Y0062389D01*
X0105900Y0065611D01*
X0107133Y0068588D01*
X0109412Y0070867D01*
X0112389Y0072100D01*
X0115611Y0072100D01*
X0118588Y0070867D01*
X0120867Y0068588D01*
X0122100Y0065611D01*
X0122100Y0062389D01*
X0120867Y0059412D01*
X0118588Y0057133D01*
X0115611Y0055900D01*
X0112389Y0055900D01*
X0109128Y0057417D02*
X0104305Y0057417D01*
X0104305Y0058415D02*
X0108130Y0058415D01*
X0107132Y0059414D02*
X0104305Y0059414D01*
X0104305Y0060412D02*
X0106719Y0060412D01*
X0106305Y0061411D02*
X0104305Y0061411D01*
X0104305Y0062409D02*
X0105900Y0062409D01*
X0105900Y0063408D02*
X0104305Y0063408D01*
X0104305Y0064406D02*
X0105900Y0064406D01*
X0105900Y0065405D02*
X0104305Y0065405D01*
X0104305Y0066403D02*
X0106228Y0066403D01*
X0106642Y0067402D02*
X0104305Y0067402D01*
X0104305Y0068400D02*
X0107055Y0068400D01*
X0107944Y0069399D02*
X0104305Y0069399D01*
X0104305Y0070397D02*
X0108942Y0070397D01*
X0110689Y0071396D02*
X0104305Y0071396D01*
X0104305Y0072394D02*
X0148695Y0072394D01*
X0148695Y0071396D02*
X0142311Y0071396D01*
X0143588Y0070867D02*
X0140611Y0072100D01*
X0137389Y0072100D01*
X0134412Y0070867D01*
X0132133Y0068588D01*
X0130900Y0065611D01*
X0130900Y0062389D01*
X0132133Y0059412D01*
X0134412Y0057133D01*
X0137389Y0055900D01*
X0140611Y0055900D01*
X0143588Y0057133D01*
X0145867Y0059412D01*
X0147100Y0062389D01*
X0147100Y0065611D01*
X0145867Y0068588D01*
X0143588Y0070867D01*
X0144058Y0070397D02*
X0148695Y0070397D01*
X0148695Y0069399D02*
X0145056Y0069399D01*
X0145945Y0068400D02*
X0148695Y0068400D01*
X0148695Y0067402D02*
X0146358Y0067402D01*
X0146772Y0066403D02*
X0148695Y0066403D01*
X0148695Y0065405D02*
X0147100Y0065405D01*
X0147100Y0064406D02*
X0148695Y0064406D01*
X0148695Y0063408D02*
X0147100Y0063408D01*
X0147100Y0062409D02*
X0148695Y0062409D01*
X0148695Y0061411D02*
X0146695Y0061411D01*
X0146281Y0060412D02*
X0148695Y0060412D01*
X0148695Y0059414D02*
X0145868Y0059414D01*
X0144870Y0058415D02*
X0148695Y0058415D01*
X0148695Y0057417D02*
X0143872Y0057417D01*
X0141862Y0056418D02*
X0148695Y0056418D01*
X0136138Y0056418D02*
X0116862Y0056418D01*
X0118872Y0057417D02*
X0134128Y0057417D01*
X0133130Y0058415D02*
X0119870Y0058415D01*
X0120868Y0059414D02*
X0132132Y0059414D01*
X0131719Y0060412D02*
X0121281Y0060412D01*
X0121695Y0061411D02*
X0131305Y0061411D01*
X0130900Y0062409D02*
X0122100Y0062409D01*
X0122100Y0063408D02*
X0130900Y0063408D01*
X0130900Y0064406D02*
X0122100Y0064406D01*
X0122100Y0065405D02*
X0130900Y0065405D01*
X0131228Y0066403D02*
X0121772Y0066403D01*
X0121358Y0067402D02*
X0131642Y0067402D01*
X0132055Y0068400D02*
X0120945Y0068400D01*
X0120056Y0069399D02*
X0132944Y0069399D01*
X0133942Y0070397D02*
X0119058Y0070397D01*
X0117311Y0071396D02*
X0135689Y0071396D01*
X0148695Y0073393D02*
X0104305Y0073393D01*
X0104305Y0074391D02*
X0148695Y0074391D01*
X0148695Y0075390D02*
X0104305Y0075390D01*
X0104305Y0076388D02*
X0148695Y0076388D01*
X0148695Y0077387D02*
X0104305Y0077387D01*
X0104305Y0078385D02*
X0148695Y0078385D01*
X0148695Y0079384D02*
X0104305Y0079384D01*
X0104701Y0080382D02*
X0148806Y0080382D01*
X0149381Y0081381D02*
X0105699Y0081381D01*
X0106698Y0082379D02*
X0150380Y0082379D01*
X0150945Y0083378D02*
X0107696Y0083378D01*
X0108695Y0084376D02*
X0150945Y0084376D01*
X0150945Y0085375D02*
X0109693Y0085375D01*
X0110692Y0086373D02*
X0115521Y0086373D01*
X0114310Y0087372D02*
X0111690Y0087372D01*
X0112689Y0088370D02*
X0113838Y0088370D01*
X0113800Y0089369D02*
X0113687Y0089369D01*
X0108048Y0091366D02*
X0101234Y0091366D01*
X0103644Y0092365D02*
X0109046Y0092365D01*
X0110045Y0093363D02*
X0104818Y0093363D01*
X0105817Y0094362D02*
X0111043Y0094362D01*
X0107049Y0090368D02*
X0041004Y0090368D01*
X0042003Y0091366D02*
X0097477Y0091366D01*
X0095066Y0092365D02*
X0043001Y0092365D01*
X0044000Y0093363D02*
X0093892Y0093363D01*
X0092894Y0094362D02*
X0044998Y0094362D01*
X0045997Y0095360D02*
X0092243Y0095360D01*
X0091829Y0096359D02*
X0046995Y0096359D01*
X0047994Y0097357D02*
X0091416Y0097357D01*
X0091255Y0098356D02*
X0048992Y0098356D01*
X0040006Y0089369D02*
X0106051Y0089369D01*
X0105052Y0088370D02*
X0039007Y0088370D01*
X0038009Y0087372D02*
X0104054Y0087372D01*
X0103055Y0086373D02*
X0037010Y0086373D01*
X0036012Y0085375D02*
X0102057Y0085375D01*
X0101058Y0084376D02*
X0035013Y0084376D01*
X0034015Y0083378D02*
X0100060Y0083378D01*
X0099210Y0082379D02*
X0033016Y0082379D01*
X0032018Y0081381D02*
X0098905Y0081381D01*
X0098905Y0080382D02*
X0031019Y0080382D01*
X0030021Y0079384D02*
X0098905Y0079384D01*
X0130214Y0086373D02*
X0150945Y0086373D01*
X0150945Y0087372D02*
X0131690Y0087372D01*
X0132689Y0088370D02*
X0150945Y0088370D01*
X0150945Y0089369D02*
X0133687Y0089369D01*
X0134686Y0090368D02*
X0150945Y0090368D01*
X0150945Y0091366D02*
X0135684Y0091366D01*
X0136683Y0092365D02*
X0149356Y0092365D01*
X0148182Y0093363D02*
X0137681Y0093363D01*
X0138680Y0094362D02*
X0147183Y0094362D01*
X0146532Y0095360D02*
X0139678Y0095360D01*
X0140677Y0096359D02*
X0146119Y0096359D01*
X0145705Y0097357D02*
X0141675Y0097357D01*
X0142674Y0098356D02*
X0145545Y0098356D01*
X0145545Y0099354D02*
X0143672Y0099354D01*
X0144671Y0100353D02*
X0145545Y0100353D01*
X0145669Y0101351D02*
X0145704Y0101351D01*
X0109783Y0117327D02*
X0108929Y0117327D01*
X0091255Y0100353D02*
X0091056Y0100353D01*
X0091255Y0099354D02*
X0090058Y0099354D01*
X0051497Y0118326D02*
X0036611Y0118326D01*
X0038685Y0119324D02*
X0052495Y0119324D01*
X0053494Y0120323D02*
X0040758Y0120323D01*
X0043459Y0121321D02*
X0054492Y0121321D01*
X0055491Y0122320D02*
X0046696Y0122320D01*
X0049933Y0123318D02*
X0056489Y0123318D01*
X0056041Y0124317D02*
X0057488Y0124317D01*
X0026760Y0107342D02*
X0021279Y0107342D01*
X0020203Y0106344D02*
X0024350Y0106344D01*
X0023179Y0105345D02*
X0019168Y0105345D01*
X0018372Y0104347D02*
X0022181Y0104347D01*
X0021531Y0103348D02*
X0017575Y0103348D01*
X0016779Y0102350D02*
X0021118Y0102350D01*
X0020704Y0101351D02*
X0015983Y0101351D01*
X0015186Y0100353D02*
X0020545Y0100353D01*
X0020545Y0099354D02*
X0014390Y0099354D01*
X0013595Y0098356D02*
X0020545Y0098356D01*
X0020705Y0097357D02*
X0013019Y0097357D01*
X0012442Y0096359D02*
X0021119Y0096359D01*
X0021532Y0095360D02*
X0011866Y0095360D01*
X0011289Y0094362D02*
X0022183Y0094362D01*
X0023182Y0093363D02*
X0010713Y0093363D01*
X0010136Y0092365D02*
X0024356Y0092365D01*
X0026766Y0091366D02*
X0009560Y0091366D01*
X0017311Y0071396D02*
X0017577Y0071396D01*
X0123798Y0015479D02*
X0153504Y0015479D01*
X0154502Y0016478D02*
X0124796Y0016478D01*
X0122799Y0014481D02*
X0147938Y0014481D01*
X0146881Y0013482D02*
X0121800Y0013482D01*
X0120802Y0012484D02*
X0145882Y0012484D01*
X0144884Y0011485D02*
X0119803Y0011485D01*
X0119334Y0010487D02*
X0118805Y0010487D01*
X0118261Y0009488D02*
X0117806Y0009488D01*
X0117733Y0008490D02*
X0116808Y0008490D01*
X0117450Y0007491D02*
X0115809Y0007491D01*
X0115550Y0006493D02*
X0117450Y0006493D01*
X0117740Y0005494D02*
X0115260Y0005494D01*
X0114723Y0004496D02*
X0118277Y0004496D01*
X0119374Y0003497D02*
X0113626Y0003497D01*
X0123626Y0003497D02*
X0129374Y0003497D01*
X0128277Y0004496D02*
X0124723Y0004496D01*
X0125260Y0005494D02*
X0127740Y0005494D01*
X0127450Y0006493D02*
X0125550Y0006493D01*
X0125550Y0007491D02*
X0127450Y0007491D01*
X0127733Y0008490D02*
X0125267Y0008490D01*
X0124739Y0009488D02*
X0128261Y0009488D01*
X0129334Y0010487D02*
X0123666Y0010487D01*
X0133666Y0010487D02*
X0139334Y0010487D01*
X0138261Y0009488D02*
X0134739Y0009488D01*
X0135267Y0008490D02*
X0137733Y0008490D01*
X0137450Y0007491D02*
X0135550Y0007491D01*
X0135550Y0006493D02*
X0137450Y0006493D01*
X0137740Y0005494D02*
X0135260Y0005494D01*
X0134723Y0004496D02*
X0138277Y0004496D01*
X0139374Y0003497D02*
X0133626Y0003497D01*
X0142426Y0003000D02*
X0143794Y0003567D01*
X0144528Y0004300D01*
X0144754Y0004300D01*
X0145746Y0004711D01*
X0147450Y0006415D01*
X0147450Y0006194D01*
X0148067Y0004706D01*
X0149206Y0003567D01*
X0150574Y0003000D01*
X0142426Y0003000D01*
X0143626Y0003497D02*
X0149374Y0003497D01*
X0148277Y0004496D02*
X0145226Y0004496D01*
X0146529Y0005494D02*
X0147740Y0005494D01*
X0152426Y0003000D02*
X0153794Y0003567D01*
X0154528Y0004300D01*
X0154754Y0004300D01*
X0155746Y0004711D01*
X0157450Y0006415D01*
X0157450Y0006194D01*
X0158067Y0004706D01*
X0159206Y0003567D01*
X0160574Y0003000D01*
X0152426Y0003000D01*
X0153626Y0003497D02*
X0159374Y0003497D01*
X0158277Y0004496D02*
X0155226Y0004496D01*
X0156529Y0005494D02*
X0157740Y0005494D01*
X0162426Y0003000D02*
X0183171Y0003000D01*
X0182900Y0003271D01*
X0176721Y0009450D01*
X0164778Y0009450D01*
X0164933Y0009294D01*
X0165550Y0007806D01*
X0165550Y0006194D01*
X0164933Y0004706D01*
X0163794Y0003567D01*
X0162426Y0003000D01*
X0163626Y0003497D02*
X0182674Y0003497D01*
X0181675Y0004496D02*
X0164723Y0004496D01*
X0165260Y0005494D02*
X0180677Y0005494D01*
X0179678Y0006493D02*
X0165550Y0006493D01*
X0165550Y0007491D02*
X0178680Y0007491D01*
X0177681Y0008490D02*
X0165267Y0008490D01*
X0179268Y0014481D02*
X0180900Y0014481D01*
X0180900Y0015479D02*
X0161140Y0015479D01*
X0162139Y0016478D02*
X0181259Y0016478D01*
X0181673Y0017476D02*
X0163137Y0017476D01*
X0164136Y0018475D02*
X0182086Y0018475D01*
X0183018Y0019473D02*
X0165134Y0019473D01*
X0166133Y0020472D02*
X0184017Y0020472D01*
X0185868Y0021470D02*
X0167131Y0021470D01*
X0168130Y0022469D02*
X0206661Y0022469D01*
X0207660Y0023467D02*
X0169128Y0023467D01*
X0164487Y0026463D02*
X0161508Y0026463D01*
X0161745Y0027461D02*
X0165486Y0027461D01*
X0166484Y0028460D02*
X0161745Y0028460D01*
X0161095Y0025464D02*
X0163489Y0025464D01*
X0162490Y0024466D02*
X0160681Y0024466D01*
X0159922Y0023467D02*
X0161492Y0023467D01*
X0160493Y0022469D02*
X0158924Y0022469D01*
X0159495Y0021470D02*
X0157490Y0021470D01*
X0143885Y0010487D02*
X0143666Y0010487D01*
X0112167Y0011485D02*
X0099803Y0011485D01*
X0099334Y0010487D02*
X0098805Y0010487D01*
X0098261Y0009488D02*
X0097806Y0009488D01*
X0097733Y0008490D02*
X0096808Y0008490D01*
X0087450Y0005494D02*
X0047299Y0005494D01*
X0050651Y0004496D02*
X0087450Y0004496D01*
X0087547Y0003497D02*
X0057275Y0003497D01*
X0134401Y0034451D02*
X0135133Y0034451D01*
X0135768Y0035449D02*
X0136131Y0035449D01*
X0136194Y0036448D02*
X0137130Y0036448D01*
X0136200Y0037446D02*
X0138128Y0037446D01*
X0139127Y0038445D02*
X0135824Y0038445D01*
X0134656Y0039443D02*
X0140125Y0039443D01*
X0146763Y0038445D02*
X0212808Y0038445D01*
X0213807Y0039443D02*
X0147762Y0039443D01*
X0148760Y0040442D02*
X0214805Y0040442D01*
X0215804Y0041440D02*
X0149759Y0041440D01*
X0150757Y0042439D02*
X0216802Y0042439D01*
X0217801Y0043437D02*
X0151756Y0043437D01*
X0152754Y0044436D02*
X0218799Y0044436D01*
X0219798Y0045434D02*
X0153712Y0045434D01*
X0154095Y0046433D02*
X0220796Y0046433D01*
X0221795Y0047432D02*
X0154095Y0047432D01*
X0154095Y0048430D02*
X0222793Y0048430D01*
X0235236Y0056418D02*
X0236138Y0056418D01*
X0243333Y0036448D02*
X0226683Y0036448D01*
X0229006Y0035449D02*
X0242756Y0035449D01*
X0242180Y0034451D02*
X0230004Y0034451D01*
X0231003Y0033452D02*
X0241603Y0033452D01*
X0241027Y0032454D02*
X0231545Y0032454D01*
X0231958Y0031455D02*
X0240450Y0031455D01*
X0239874Y0030457D02*
X0232372Y0030457D01*
X0232455Y0029458D02*
X0239258Y0029458D01*
X0238461Y0028460D02*
X0232455Y0028460D01*
X0232455Y0027461D02*
X0237665Y0027461D01*
X0236869Y0026463D02*
X0232219Y0026463D01*
X0231805Y0025464D02*
X0236073Y0025464D01*
X0235276Y0024466D02*
X0231392Y0024466D01*
X0230633Y0023467D02*
X0234480Y0023467D01*
X0233672Y0022469D02*
X0229634Y0022469D01*
X0228201Y0021470D02*
X0232596Y0021470D01*
X0231520Y0020472D02*
X0212301Y0020472D01*
X0213299Y0021470D02*
X0220510Y0021470D01*
X0219076Y0022469D02*
X0214298Y0022469D01*
X0215296Y0023467D02*
X0218078Y0023467D01*
X0217319Y0024466D02*
X0216295Y0024466D01*
X0209657Y0025464D02*
X0207464Y0025464D01*
X0206865Y0024866D02*
X0206865Y0024866D01*
X0206466Y0024466D02*
X0208658Y0024466D01*
X0205663Y0021470D02*
X0192132Y0021470D01*
X0193983Y0020472D02*
X0204664Y0020472D01*
X0203666Y0019473D02*
X0194982Y0019473D01*
X0195914Y0018475D02*
X0202667Y0018475D01*
X0201669Y0017476D02*
X0196327Y0017476D01*
X0196741Y0016478D02*
X0200670Y0016478D01*
X0199672Y0015479D02*
X0197100Y0015479D01*
X0197100Y0014481D02*
X0198673Y0014481D01*
X0197675Y0013482D02*
X0197100Y0013482D01*
X0202316Y0010487D02*
X0218076Y0010487D01*
X0219959Y0011485D02*
X0203314Y0011485D01*
X0204313Y0012484D02*
X0221423Y0012484D01*
X0222888Y0013482D02*
X0205311Y0013482D01*
X0206310Y0014481D02*
X0224352Y0014481D01*
X0225817Y0015479D02*
X0207308Y0015479D01*
X0208307Y0016478D02*
X0227215Y0016478D01*
X0228292Y0017476D02*
X0209305Y0017476D01*
X0210304Y0018475D02*
X0229368Y0018475D01*
X0230444Y0019473D02*
X0211302Y0019473D01*
X0216002Y0009488D02*
X0201317Y0009488D01*
X0200319Y0008490D02*
X0213929Y0008490D01*
X0211856Y0007491D02*
X0199320Y0007491D01*
X0198322Y0006493D02*
X0208938Y0006493D01*
X0205701Y0005494D02*
X0197323Y0005494D01*
X0196325Y0004496D02*
X0202349Y0004496D01*
X0195724Y0003497D02*
X0195326Y0003497D01*
X0180900Y0013482D02*
X0180325Y0013482D01*
M02*
