%
M48
M72
T01C0.01600
T02C0.03900
T03C0.10000
T04C0.25600
%
T01
X133500Y37000
X116687Y88813
T02
X121500Y121000
X131500Y121000
X141500Y121000
X151500Y121000
X161500Y121000
X111500Y121000
X101500Y121000
X91500Y121000
X91500Y7000
X101500Y7000
X111500Y7000
X121500Y7000
X131500Y7000
X141500Y7000
X151500Y7000
X161500Y7000
T03
X28645Y28645
X64000Y14000
X99355Y28645
X153645Y28645
X189000Y14000
X224355Y28645
X239000Y64000
X224355Y99355
X189000Y114000
X153645Y99355
X99355Y99355
X64000Y114000
X28645Y99355
X14000Y64000
X114000Y64000
X139000Y64000
T04
X189000Y64000
X64000Y64000
M30
