G75*
%MOIN*%
%OFA0B0*%
%FSLAX25Y25*%
%IPPOS*%
%LPD*%
%AMOC8*
5,1,8,0,0,1.08239X$1,22.5*
%
%ADD10C,0.00000*%
%ADD11R,0.05900X0.05900*%
%ADD12C,0.05900*%
%ADD13C,0.14000*%
%ADD14C,0.03200*%
%ADD15C,0.03200*%
%ADD16C,0.01000*%
D10*
X0064000Y0001500D02*
X0189000Y0001500D01*
X0176200Y0064000D02*
X0176204Y0064314D01*
X0176215Y0064628D01*
X0176235Y0064942D01*
X0176262Y0065255D01*
X0176296Y0065567D01*
X0176339Y0065878D01*
X0176388Y0066188D01*
X0176446Y0066497D01*
X0176511Y0066804D01*
X0176584Y0067110D01*
X0176664Y0067414D01*
X0176751Y0067716D01*
X0176846Y0068015D01*
X0176948Y0068312D01*
X0177058Y0068607D01*
X0177174Y0068898D01*
X0177298Y0069187D01*
X0177429Y0069473D01*
X0177567Y0069755D01*
X0177711Y0070034D01*
X0177863Y0070309D01*
X0178021Y0070581D01*
X0178186Y0070848D01*
X0178357Y0071111D01*
X0178535Y0071370D01*
X0178719Y0071625D01*
X0178909Y0071875D01*
X0179105Y0072120D01*
X0179308Y0072361D01*
X0179516Y0072596D01*
X0179730Y0072826D01*
X0179949Y0073051D01*
X0180174Y0073270D01*
X0180404Y0073484D01*
X0180639Y0073692D01*
X0180880Y0073895D01*
X0181125Y0074091D01*
X0181375Y0074281D01*
X0181630Y0074465D01*
X0181889Y0074643D01*
X0182152Y0074814D01*
X0182419Y0074979D01*
X0182691Y0075137D01*
X0182966Y0075289D01*
X0183245Y0075433D01*
X0183527Y0075571D01*
X0183813Y0075702D01*
X0184102Y0075826D01*
X0184393Y0075942D01*
X0184688Y0076052D01*
X0184985Y0076154D01*
X0185284Y0076249D01*
X0185586Y0076336D01*
X0185890Y0076416D01*
X0186196Y0076489D01*
X0186503Y0076554D01*
X0186812Y0076612D01*
X0187122Y0076661D01*
X0187433Y0076704D01*
X0187745Y0076738D01*
X0188058Y0076765D01*
X0188372Y0076785D01*
X0188686Y0076796D01*
X0189000Y0076800D01*
X0189314Y0076796D01*
X0189628Y0076785D01*
X0189942Y0076765D01*
X0190255Y0076738D01*
X0190567Y0076704D01*
X0190878Y0076661D01*
X0191188Y0076612D01*
X0191497Y0076554D01*
X0191804Y0076489D01*
X0192110Y0076416D01*
X0192414Y0076336D01*
X0192716Y0076249D01*
X0193015Y0076154D01*
X0193312Y0076052D01*
X0193607Y0075942D01*
X0193898Y0075826D01*
X0194187Y0075702D01*
X0194473Y0075571D01*
X0194755Y0075433D01*
X0195034Y0075289D01*
X0195309Y0075137D01*
X0195581Y0074979D01*
X0195848Y0074814D01*
X0196111Y0074643D01*
X0196370Y0074465D01*
X0196625Y0074281D01*
X0196875Y0074091D01*
X0197120Y0073895D01*
X0197361Y0073692D01*
X0197596Y0073484D01*
X0197826Y0073270D01*
X0198051Y0073051D01*
X0198270Y0072826D01*
X0198484Y0072596D01*
X0198692Y0072361D01*
X0198895Y0072120D01*
X0199091Y0071875D01*
X0199281Y0071625D01*
X0199465Y0071370D01*
X0199643Y0071111D01*
X0199814Y0070848D01*
X0199979Y0070581D01*
X0200137Y0070309D01*
X0200289Y0070034D01*
X0200433Y0069755D01*
X0200571Y0069473D01*
X0200702Y0069187D01*
X0200826Y0068898D01*
X0200942Y0068607D01*
X0201052Y0068312D01*
X0201154Y0068015D01*
X0201249Y0067716D01*
X0201336Y0067414D01*
X0201416Y0067110D01*
X0201489Y0066804D01*
X0201554Y0066497D01*
X0201612Y0066188D01*
X0201661Y0065878D01*
X0201704Y0065567D01*
X0201738Y0065255D01*
X0201765Y0064942D01*
X0201785Y0064628D01*
X0201796Y0064314D01*
X0201800Y0064000D01*
X0201796Y0063686D01*
X0201785Y0063372D01*
X0201765Y0063058D01*
X0201738Y0062745D01*
X0201704Y0062433D01*
X0201661Y0062122D01*
X0201612Y0061812D01*
X0201554Y0061503D01*
X0201489Y0061196D01*
X0201416Y0060890D01*
X0201336Y0060586D01*
X0201249Y0060284D01*
X0201154Y0059985D01*
X0201052Y0059688D01*
X0200942Y0059393D01*
X0200826Y0059102D01*
X0200702Y0058813D01*
X0200571Y0058527D01*
X0200433Y0058245D01*
X0200289Y0057966D01*
X0200137Y0057691D01*
X0199979Y0057419D01*
X0199814Y0057152D01*
X0199643Y0056889D01*
X0199465Y0056630D01*
X0199281Y0056375D01*
X0199091Y0056125D01*
X0198895Y0055880D01*
X0198692Y0055639D01*
X0198484Y0055404D01*
X0198270Y0055174D01*
X0198051Y0054949D01*
X0197826Y0054730D01*
X0197596Y0054516D01*
X0197361Y0054308D01*
X0197120Y0054105D01*
X0196875Y0053909D01*
X0196625Y0053719D01*
X0196370Y0053535D01*
X0196111Y0053357D01*
X0195848Y0053186D01*
X0195581Y0053021D01*
X0195309Y0052863D01*
X0195034Y0052711D01*
X0194755Y0052567D01*
X0194473Y0052429D01*
X0194187Y0052298D01*
X0193898Y0052174D01*
X0193607Y0052058D01*
X0193312Y0051948D01*
X0193015Y0051846D01*
X0192716Y0051751D01*
X0192414Y0051664D01*
X0192110Y0051584D01*
X0191804Y0051511D01*
X0191497Y0051446D01*
X0191188Y0051388D01*
X0190878Y0051339D01*
X0190567Y0051296D01*
X0190255Y0051262D01*
X0189942Y0051235D01*
X0189628Y0051215D01*
X0189314Y0051204D01*
X0189000Y0051200D01*
X0188686Y0051204D01*
X0188372Y0051215D01*
X0188058Y0051235D01*
X0187745Y0051262D01*
X0187433Y0051296D01*
X0187122Y0051339D01*
X0186812Y0051388D01*
X0186503Y0051446D01*
X0186196Y0051511D01*
X0185890Y0051584D01*
X0185586Y0051664D01*
X0185284Y0051751D01*
X0184985Y0051846D01*
X0184688Y0051948D01*
X0184393Y0052058D01*
X0184102Y0052174D01*
X0183813Y0052298D01*
X0183527Y0052429D01*
X0183245Y0052567D01*
X0182966Y0052711D01*
X0182691Y0052863D01*
X0182419Y0053021D01*
X0182152Y0053186D01*
X0181889Y0053357D01*
X0181630Y0053535D01*
X0181375Y0053719D01*
X0181125Y0053909D01*
X0180880Y0054105D01*
X0180639Y0054308D01*
X0180404Y0054516D01*
X0180174Y0054730D01*
X0179949Y0054949D01*
X0179730Y0055174D01*
X0179516Y0055404D01*
X0179308Y0055639D01*
X0179105Y0055880D01*
X0178909Y0056125D01*
X0178719Y0056375D01*
X0178535Y0056630D01*
X0178357Y0056889D01*
X0178186Y0057152D01*
X0178021Y0057419D01*
X0177863Y0057691D01*
X0177711Y0057966D01*
X0177567Y0058245D01*
X0177429Y0058527D01*
X0177298Y0058813D01*
X0177174Y0059102D01*
X0177058Y0059393D01*
X0176948Y0059688D01*
X0176846Y0059985D01*
X0176751Y0060284D01*
X0176664Y0060586D01*
X0176584Y0060890D01*
X0176511Y0061196D01*
X0176446Y0061503D01*
X0176388Y0061812D01*
X0176339Y0062122D01*
X0176296Y0062433D01*
X0176262Y0062745D01*
X0176235Y0063058D01*
X0176215Y0063372D01*
X0176204Y0063686D01*
X0176200Y0064000D01*
X0189000Y0001500D02*
X0190522Y0001519D01*
X0192043Y0001574D01*
X0193562Y0001667D01*
X0195079Y0001796D01*
X0196592Y0001963D01*
X0198100Y0002166D01*
X0199603Y0002406D01*
X0201100Y0002682D01*
X0202589Y0002995D01*
X0204071Y0003344D01*
X0205543Y0003729D01*
X0207006Y0004150D01*
X0208458Y0004606D01*
X0209899Y0005098D01*
X0211327Y0005624D01*
X0212742Y0006185D01*
X0214143Y0006780D01*
X0215529Y0007409D01*
X0216899Y0008072D01*
X0218252Y0008768D01*
X0219589Y0009497D01*
X0220907Y0010258D01*
X0222206Y0011051D01*
X0223485Y0011875D01*
X0224745Y0012730D01*
X0225982Y0013616D01*
X0227198Y0014531D01*
X0228392Y0015476D01*
X0229562Y0016450D01*
X0230707Y0017452D01*
X0231829Y0018481D01*
X0232924Y0019538D01*
X0233994Y0020620D01*
X0235037Y0021729D01*
X0236053Y0022862D01*
X0237040Y0024020D01*
X0238000Y0025202D01*
X0238930Y0026407D01*
X0239831Y0027634D01*
X0240701Y0028882D01*
X0241541Y0030152D01*
X0242350Y0031441D01*
X0243127Y0032750D01*
X0243872Y0034077D01*
X0244584Y0035422D01*
X0245263Y0036784D01*
X0245909Y0038162D01*
X0246522Y0039556D01*
X0247100Y0040964D01*
X0247644Y0042386D01*
X0248152Y0043820D01*
X0248626Y0045266D01*
X0249065Y0046724D01*
X0249468Y0048192D01*
X0249835Y0049669D01*
X0250166Y0051154D01*
X0250460Y0052648D01*
X0250719Y0054148D01*
X0250940Y0055654D01*
X0251125Y0057164D01*
X0251273Y0058679D01*
X0251384Y0060197D01*
X0251458Y0061717D01*
X0251495Y0063239D01*
X0251495Y0064761D01*
X0251458Y0066283D01*
X0251384Y0067803D01*
X0251273Y0069321D01*
X0251125Y0070836D01*
X0250940Y0072346D01*
X0250719Y0073852D01*
X0250460Y0075352D01*
X0250166Y0076846D01*
X0249835Y0078331D01*
X0249468Y0079808D01*
X0249065Y0081276D01*
X0248626Y0082734D01*
X0248152Y0084180D01*
X0247644Y0085614D01*
X0247100Y0087036D01*
X0246522Y0088444D01*
X0245909Y0089838D01*
X0245263Y0091216D01*
X0244584Y0092578D01*
X0243872Y0093923D01*
X0243127Y0095250D01*
X0242350Y0096559D01*
X0241541Y0097848D01*
X0240701Y0099118D01*
X0239831Y0100366D01*
X0238930Y0101593D01*
X0238000Y0102798D01*
X0237040Y0103980D01*
X0236053Y0105138D01*
X0235037Y0106271D01*
X0233994Y0107380D01*
X0232924Y0108462D01*
X0231829Y0109519D01*
X0230707Y0110548D01*
X0229562Y0111550D01*
X0228392Y0112524D01*
X0227198Y0113469D01*
X0225982Y0114384D01*
X0224745Y0115270D01*
X0223485Y0116125D01*
X0222206Y0116949D01*
X0220907Y0117742D01*
X0219589Y0118503D01*
X0218252Y0119232D01*
X0216899Y0119928D01*
X0215529Y0120591D01*
X0214143Y0121220D01*
X0212742Y0121815D01*
X0211327Y0122376D01*
X0209899Y0122902D01*
X0208458Y0123394D01*
X0207006Y0123850D01*
X0205543Y0124271D01*
X0204071Y0124656D01*
X0202589Y0125005D01*
X0201100Y0125318D01*
X0199603Y0125594D01*
X0198100Y0125834D01*
X0196592Y0126037D01*
X0195079Y0126204D01*
X0193562Y0126333D01*
X0192043Y0126426D01*
X0190522Y0126481D01*
X0189000Y0126500D01*
X0064000Y0126500D01*
X0051200Y0064000D02*
X0051204Y0064314D01*
X0051215Y0064628D01*
X0051235Y0064942D01*
X0051262Y0065255D01*
X0051296Y0065567D01*
X0051339Y0065878D01*
X0051388Y0066188D01*
X0051446Y0066497D01*
X0051511Y0066804D01*
X0051584Y0067110D01*
X0051664Y0067414D01*
X0051751Y0067716D01*
X0051846Y0068015D01*
X0051948Y0068312D01*
X0052058Y0068607D01*
X0052174Y0068898D01*
X0052298Y0069187D01*
X0052429Y0069473D01*
X0052567Y0069755D01*
X0052711Y0070034D01*
X0052863Y0070309D01*
X0053021Y0070581D01*
X0053186Y0070848D01*
X0053357Y0071111D01*
X0053535Y0071370D01*
X0053719Y0071625D01*
X0053909Y0071875D01*
X0054105Y0072120D01*
X0054308Y0072361D01*
X0054516Y0072596D01*
X0054730Y0072826D01*
X0054949Y0073051D01*
X0055174Y0073270D01*
X0055404Y0073484D01*
X0055639Y0073692D01*
X0055880Y0073895D01*
X0056125Y0074091D01*
X0056375Y0074281D01*
X0056630Y0074465D01*
X0056889Y0074643D01*
X0057152Y0074814D01*
X0057419Y0074979D01*
X0057691Y0075137D01*
X0057966Y0075289D01*
X0058245Y0075433D01*
X0058527Y0075571D01*
X0058813Y0075702D01*
X0059102Y0075826D01*
X0059393Y0075942D01*
X0059688Y0076052D01*
X0059985Y0076154D01*
X0060284Y0076249D01*
X0060586Y0076336D01*
X0060890Y0076416D01*
X0061196Y0076489D01*
X0061503Y0076554D01*
X0061812Y0076612D01*
X0062122Y0076661D01*
X0062433Y0076704D01*
X0062745Y0076738D01*
X0063058Y0076765D01*
X0063372Y0076785D01*
X0063686Y0076796D01*
X0064000Y0076800D01*
X0064314Y0076796D01*
X0064628Y0076785D01*
X0064942Y0076765D01*
X0065255Y0076738D01*
X0065567Y0076704D01*
X0065878Y0076661D01*
X0066188Y0076612D01*
X0066497Y0076554D01*
X0066804Y0076489D01*
X0067110Y0076416D01*
X0067414Y0076336D01*
X0067716Y0076249D01*
X0068015Y0076154D01*
X0068312Y0076052D01*
X0068607Y0075942D01*
X0068898Y0075826D01*
X0069187Y0075702D01*
X0069473Y0075571D01*
X0069755Y0075433D01*
X0070034Y0075289D01*
X0070309Y0075137D01*
X0070581Y0074979D01*
X0070848Y0074814D01*
X0071111Y0074643D01*
X0071370Y0074465D01*
X0071625Y0074281D01*
X0071875Y0074091D01*
X0072120Y0073895D01*
X0072361Y0073692D01*
X0072596Y0073484D01*
X0072826Y0073270D01*
X0073051Y0073051D01*
X0073270Y0072826D01*
X0073484Y0072596D01*
X0073692Y0072361D01*
X0073895Y0072120D01*
X0074091Y0071875D01*
X0074281Y0071625D01*
X0074465Y0071370D01*
X0074643Y0071111D01*
X0074814Y0070848D01*
X0074979Y0070581D01*
X0075137Y0070309D01*
X0075289Y0070034D01*
X0075433Y0069755D01*
X0075571Y0069473D01*
X0075702Y0069187D01*
X0075826Y0068898D01*
X0075942Y0068607D01*
X0076052Y0068312D01*
X0076154Y0068015D01*
X0076249Y0067716D01*
X0076336Y0067414D01*
X0076416Y0067110D01*
X0076489Y0066804D01*
X0076554Y0066497D01*
X0076612Y0066188D01*
X0076661Y0065878D01*
X0076704Y0065567D01*
X0076738Y0065255D01*
X0076765Y0064942D01*
X0076785Y0064628D01*
X0076796Y0064314D01*
X0076800Y0064000D01*
X0076796Y0063686D01*
X0076785Y0063372D01*
X0076765Y0063058D01*
X0076738Y0062745D01*
X0076704Y0062433D01*
X0076661Y0062122D01*
X0076612Y0061812D01*
X0076554Y0061503D01*
X0076489Y0061196D01*
X0076416Y0060890D01*
X0076336Y0060586D01*
X0076249Y0060284D01*
X0076154Y0059985D01*
X0076052Y0059688D01*
X0075942Y0059393D01*
X0075826Y0059102D01*
X0075702Y0058813D01*
X0075571Y0058527D01*
X0075433Y0058245D01*
X0075289Y0057966D01*
X0075137Y0057691D01*
X0074979Y0057419D01*
X0074814Y0057152D01*
X0074643Y0056889D01*
X0074465Y0056630D01*
X0074281Y0056375D01*
X0074091Y0056125D01*
X0073895Y0055880D01*
X0073692Y0055639D01*
X0073484Y0055404D01*
X0073270Y0055174D01*
X0073051Y0054949D01*
X0072826Y0054730D01*
X0072596Y0054516D01*
X0072361Y0054308D01*
X0072120Y0054105D01*
X0071875Y0053909D01*
X0071625Y0053719D01*
X0071370Y0053535D01*
X0071111Y0053357D01*
X0070848Y0053186D01*
X0070581Y0053021D01*
X0070309Y0052863D01*
X0070034Y0052711D01*
X0069755Y0052567D01*
X0069473Y0052429D01*
X0069187Y0052298D01*
X0068898Y0052174D01*
X0068607Y0052058D01*
X0068312Y0051948D01*
X0068015Y0051846D01*
X0067716Y0051751D01*
X0067414Y0051664D01*
X0067110Y0051584D01*
X0066804Y0051511D01*
X0066497Y0051446D01*
X0066188Y0051388D01*
X0065878Y0051339D01*
X0065567Y0051296D01*
X0065255Y0051262D01*
X0064942Y0051235D01*
X0064628Y0051215D01*
X0064314Y0051204D01*
X0064000Y0051200D01*
X0063686Y0051204D01*
X0063372Y0051215D01*
X0063058Y0051235D01*
X0062745Y0051262D01*
X0062433Y0051296D01*
X0062122Y0051339D01*
X0061812Y0051388D01*
X0061503Y0051446D01*
X0061196Y0051511D01*
X0060890Y0051584D01*
X0060586Y0051664D01*
X0060284Y0051751D01*
X0059985Y0051846D01*
X0059688Y0051948D01*
X0059393Y0052058D01*
X0059102Y0052174D01*
X0058813Y0052298D01*
X0058527Y0052429D01*
X0058245Y0052567D01*
X0057966Y0052711D01*
X0057691Y0052863D01*
X0057419Y0053021D01*
X0057152Y0053186D01*
X0056889Y0053357D01*
X0056630Y0053535D01*
X0056375Y0053719D01*
X0056125Y0053909D01*
X0055880Y0054105D01*
X0055639Y0054308D01*
X0055404Y0054516D01*
X0055174Y0054730D01*
X0054949Y0054949D01*
X0054730Y0055174D01*
X0054516Y0055404D01*
X0054308Y0055639D01*
X0054105Y0055880D01*
X0053909Y0056125D01*
X0053719Y0056375D01*
X0053535Y0056630D01*
X0053357Y0056889D01*
X0053186Y0057152D01*
X0053021Y0057419D01*
X0052863Y0057691D01*
X0052711Y0057966D01*
X0052567Y0058245D01*
X0052429Y0058527D01*
X0052298Y0058813D01*
X0052174Y0059102D01*
X0052058Y0059393D01*
X0051948Y0059688D01*
X0051846Y0059985D01*
X0051751Y0060284D01*
X0051664Y0060586D01*
X0051584Y0060890D01*
X0051511Y0061196D01*
X0051446Y0061503D01*
X0051388Y0061812D01*
X0051339Y0062122D01*
X0051296Y0062433D01*
X0051262Y0062745D01*
X0051235Y0063058D01*
X0051215Y0063372D01*
X0051204Y0063686D01*
X0051200Y0064000D01*
X0064000Y0126500D02*
X0062478Y0126481D01*
X0060957Y0126426D01*
X0059438Y0126333D01*
X0057921Y0126204D01*
X0056408Y0126037D01*
X0054900Y0125834D01*
X0053397Y0125594D01*
X0051900Y0125318D01*
X0050411Y0125005D01*
X0048929Y0124656D01*
X0047457Y0124271D01*
X0045994Y0123850D01*
X0044542Y0123394D01*
X0043101Y0122902D01*
X0041673Y0122376D01*
X0040258Y0121815D01*
X0038857Y0121220D01*
X0037471Y0120591D01*
X0036101Y0119928D01*
X0034748Y0119232D01*
X0033411Y0118503D01*
X0032093Y0117742D01*
X0030794Y0116949D01*
X0029515Y0116125D01*
X0028255Y0115270D01*
X0027018Y0114384D01*
X0025802Y0113469D01*
X0024608Y0112524D01*
X0023438Y0111550D01*
X0022293Y0110548D01*
X0021171Y0109519D01*
X0020076Y0108462D01*
X0019006Y0107380D01*
X0017963Y0106271D01*
X0016947Y0105138D01*
X0015960Y0103980D01*
X0015000Y0102798D01*
X0014070Y0101593D01*
X0013169Y0100366D01*
X0012299Y0099118D01*
X0011459Y0097848D01*
X0010650Y0096559D01*
X0009873Y0095250D01*
X0009128Y0093923D01*
X0008416Y0092578D01*
X0007737Y0091216D01*
X0007091Y0089838D01*
X0006478Y0088444D01*
X0005900Y0087036D01*
X0005356Y0085614D01*
X0004848Y0084180D01*
X0004374Y0082734D01*
X0003935Y0081276D01*
X0003532Y0079808D01*
X0003165Y0078331D01*
X0002834Y0076846D01*
X0002540Y0075352D01*
X0002281Y0073852D01*
X0002060Y0072346D01*
X0001875Y0070836D01*
X0001727Y0069321D01*
X0001616Y0067803D01*
X0001542Y0066283D01*
X0001505Y0064761D01*
X0001505Y0063239D01*
X0001542Y0061717D01*
X0001616Y0060197D01*
X0001727Y0058679D01*
X0001875Y0057164D01*
X0002060Y0055654D01*
X0002281Y0054148D01*
X0002540Y0052648D01*
X0002834Y0051154D01*
X0003165Y0049669D01*
X0003532Y0048192D01*
X0003935Y0046724D01*
X0004374Y0045266D01*
X0004848Y0043820D01*
X0005356Y0042386D01*
X0005900Y0040964D01*
X0006478Y0039556D01*
X0007091Y0038162D01*
X0007737Y0036784D01*
X0008416Y0035422D01*
X0009128Y0034077D01*
X0009873Y0032750D01*
X0010650Y0031441D01*
X0011459Y0030152D01*
X0012299Y0028882D01*
X0013169Y0027634D01*
X0014070Y0026407D01*
X0015000Y0025202D01*
X0015960Y0024020D01*
X0016947Y0022862D01*
X0017963Y0021729D01*
X0019006Y0020620D01*
X0020076Y0019538D01*
X0021171Y0018481D01*
X0022293Y0017452D01*
X0023438Y0016450D01*
X0024608Y0015476D01*
X0025802Y0014531D01*
X0027018Y0013616D01*
X0028255Y0012730D01*
X0029515Y0011875D01*
X0030794Y0011051D01*
X0032093Y0010258D01*
X0033411Y0009497D01*
X0034748Y0008768D01*
X0036101Y0008072D01*
X0037471Y0007409D01*
X0038857Y0006780D01*
X0040258Y0006185D01*
X0041673Y0005624D01*
X0043101Y0005098D01*
X0044542Y0004606D01*
X0045994Y0004150D01*
X0047457Y0003729D01*
X0048929Y0003344D01*
X0050411Y0002995D01*
X0051900Y0002682D01*
X0053397Y0002406D01*
X0054900Y0002166D01*
X0056408Y0001963D01*
X0057921Y0001796D01*
X0059438Y0001667D01*
X0060957Y0001574D01*
X0062478Y0001519D01*
X0064000Y0001500D01*
D11*
X0091500Y0007000D03*
X0091500Y0121000D03*
D12*
X0101500Y0121000D03*
X0111500Y0121000D03*
X0121500Y0121000D03*
X0131500Y0121000D03*
X0141500Y0121000D03*
X0151500Y0121000D03*
X0161500Y0121000D03*
X0161500Y0007000D03*
X0151500Y0007000D03*
X0141500Y0007000D03*
X0131500Y0007000D03*
X0121500Y0007000D03*
X0111500Y0007000D03*
X0101500Y0007000D03*
D13*
X0064000Y0014000D03*
X0028645Y0028645D03*
X0014000Y0064000D03*
X0028645Y0099355D03*
X0064000Y0114000D03*
X0099355Y0099355D03*
X0153645Y0099355D03*
X0189000Y0114000D03*
X0224355Y0099355D03*
X0239000Y0064000D03*
X0224355Y0028645D03*
X0189000Y0014000D03*
X0153645Y0028645D03*
X0099355Y0028645D03*
X0114000Y0064000D03*
X0139000Y0064000D03*
D14*
X0118000Y0043000D01*
X0118000Y0023500D01*
X0101500Y0007000D01*
X0121500Y0007000D02*
X0121500Y0021626D01*
X0121800Y0021926D01*
X0121800Y0033300D01*
X0151395Y0062895D01*
X0151395Y0079577D01*
X0173423Y0101605D01*
X0176605Y0101605D01*
X0189000Y0114000D01*
X0224355Y0099355D02*
X0226500Y0097211D01*
X0226500Y0079682D01*
X0226605Y0079577D01*
X0226605Y0048423D01*
X0204577Y0026395D01*
X0168395Y0026395D01*
X0154150Y0012150D01*
X0139367Y0012150D01*
X0134217Y0007000D01*
X0131500Y0007000D01*
X0161500Y0007000D02*
X0182000Y0007000D01*
X0189000Y0014000D01*
X0153645Y0028645D02*
X0145289Y0037000D01*
X0133500Y0037000D01*
X0101605Y0048423D02*
X0101605Y0065116D01*
X0131500Y0095011D01*
X0131500Y0121000D01*
X0121500Y0121000D02*
X0118783Y0121000D01*
X0113633Y0115850D01*
X0102850Y0115850D01*
X0088605Y0101605D01*
X0048423Y0101605D01*
X0026395Y0079577D01*
X0026395Y0048423D01*
X0026500Y0048318D01*
X0026500Y0030789D01*
X0028645Y0028645D01*
X0064000Y0014000D02*
X0076395Y0026395D01*
X0079577Y0026395D01*
X0101605Y0048423D01*
X0114000Y0064000D02*
X0114000Y0071637D01*
X0135300Y0092937D01*
X0135300Y0104800D01*
X0151500Y0121000D01*
X0109898Y0088813D02*
X0099355Y0099355D01*
X0109898Y0088813D02*
X0116687Y0088813D01*
X0073500Y0121000D02*
X0064000Y0114000D01*
X0073500Y0121000D02*
X0091500Y0121000D01*
D15*
X0116687Y0088813D03*
X0133500Y0037000D03*
D16*
X0055900Y0014481D02*
X0028648Y0014481D01*
X0027183Y0015479D02*
X0055900Y0015479D01*
X0055900Y0015611D02*
X0055900Y0012389D01*
X0057133Y0009412D01*
X0059412Y0007133D01*
X0062389Y0005900D01*
X0065611Y0005900D01*
X0068588Y0007133D01*
X0070867Y0009412D01*
X0072100Y0012389D01*
X0072100Y0015611D01*
X0071318Y0017499D01*
X0077513Y0023695D01*
X0080114Y0023695D01*
X0081106Y0024106D01*
X0081865Y0024866D01*
X0103134Y0046135D01*
X0103134Y0046135D01*
X0103894Y0046894D01*
X0104305Y0047886D01*
X0104305Y0063997D01*
X0105900Y0065592D01*
X0105900Y0062389D01*
X0107133Y0059412D01*
X0109412Y0057133D01*
X0112389Y0055900D01*
X0115611Y0055900D01*
X0118588Y0057133D01*
X0120867Y0059412D01*
X0122100Y0062389D01*
X0122100Y0065611D01*
X0120867Y0068588D01*
X0118588Y0070867D01*
X0117499Y0071318D01*
X0137589Y0091407D01*
X0138000Y0092400D01*
X0138000Y0103682D01*
X0151268Y0116950D01*
X0152306Y0116950D01*
X0153794Y0117567D01*
X0154933Y0118706D01*
X0155550Y0120194D01*
X0155550Y0121806D01*
X0154933Y0123294D01*
X0153794Y0124433D01*
X0152426Y0125000D01*
X0160574Y0125000D01*
X0159206Y0124433D01*
X0158067Y0123294D01*
X0157450Y0121806D01*
X0157450Y0120194D01*
X0158067Y0118706D01*
X0159206Y0117567D01*
X0160694Y0116950D01*
X0162306Y0116950D01*
X0163794Y0117567D01*
X0164933Y0118706D01*
X0165550Y0120194D01*
X0165550Y0121806D01*
X0164933Y0123294D01*
X0163794Y0124433D01*
X0162426Y0125000D01*
X0189000Y0125000D01*
X0193559Y0124829D01*
X0202574Y0123471D01*
X0211286Y0120783D01*
X0219500Y0116828D01*
X0227033Y0111692D01*
X0233716Y0105491D01*
X0239401Y0098363D01*
X0243959Y0090467D01*
X0247290Y0081980D01*
X0249319Y0073092D01*
X0250000Y0064000D01*
X0249319Y0054908D01*
X0247290Y0046020D01*
X0243959Y0037533D01*
X0239401Y0029637D01*
X0233716Y0022509D01*
X0227033Y0016308D01*
X0219500Y0011172D01*
X0211286Y0007217D01*
X0202574Y0004529D01*
X0193559Y0003171D01*
X0189000Y0003000D01*
X0162426Y0003000D01*
X0163794Y0003567D01*
X0164528Y0004300D01*
X0182537Y0004300D01*
X0183529Y0004711D01*
X0185501Y0006682D01*
X0187389Y0005900D01*
X0190611Y0005900D01*
X0193588Y0007133D01*
X0195867Y0009412D01*
X0197100Y0012389D01*
X0197100Y0015611D01*
X0195867Y0018588D01*
X0193588Y0020867D01*
X0190611Y0022100D01*
X0187389Y0022100D01*
X0184412Y0020867D01*
X0182133Y0018588D01*
X0180900Y0015611D01*
X0180900Y0012389D01*
X0181682Y0010501D01*
X0180882Y0009700D01*
X0164528Y0009700D01*
X0163794Y0010433D01*
X0162306Y0011050D01*
X0160694Y0011050D01*
X0159206Y0010433D01*
X0158067Y0009294D01*
X0157450Y0007806D01*
X0157450Y0006194D01*
X0158067Y0004706D01*
X0159206Y0003567D01*
X0160574Y0003000D01*
X0152426Y0003000D01*
X0153794Y0003567D01*
X0154933Y0004706D01*
X0155550Y0006194D01*
X0155550Y0007806D01*
X0154933Y0009294D01*
X0154751Y0009477D01*
X0155679Y0009861D01*
X0156439Y0010621D01*
X0169513Y0023695D01*
X0205114Y0023695D01*
X0206106Y0024106D01*
X0228134Y0046135D01*
X0228894Y0046894D01*
X0229305Y0047886D01*
X0229305Y0080114D01*
X0229200Y0080367D01*
X0229200Y0092745D01*
X0231222Y0094767D01*
X0232455Y0097744D01*
X0232455Y0100967D01*
X0231222Y0103944D01*
X0228944Y0106222D01*
X0225966Y0107455D01*
X0222744Y0107455D01*
X0219767Y0106222D01*
X0217488Y0103944D01*
X0216255Y0100967D01*
X0216255Y0097744D01*
X0217488Y0094767D01*
X0219767Y0092488D01*
X0222744Y0091255D01*
X0223800Y0091255D01*
X0223800Y0079144D01*
X0223905Y0078891D01*
X0223905Y0049542D01*
X0203458Y0029095D01*
X0167858Y0029095D01*
X0166866Y0028684D01*
X0166106Y0027924D01*
X0153032Y0014850D01*
X0138830Y0014850D01*
X0137837Y0014439D01*
X0137078Y0013679D01*
X0133813Y0010415D01*
X0133794Y0010433D01*
X0132306Y0011050D01*
X0130694Y0011050D01*
X0129206Y0010433D01*
X0128067Y0009294D01*
X0127450Y0007806D01*
X0127450Y0006194D01*
X0128067Y0004706D01*
X0129206Y0003567D01*
X0130574Y0003000D01*
X0122426Y0003000D01*
X0123794Y0003567D01*
X0124933Y0004706D01*
X0125550Y0006194D01*
X0125550Y0007806D01*
X0124933Y0009294D01*
X0124200Y0010028D01*
X0124200Y0020665D01*
X0124500Y0021389D01*
X0124500Y0032182D01*
X0152924Y0060606D01*
X0153684Y0061366D01*
X0154095Y0062358D01*
X0154095Y0078458D01*
X0174542Y0098905D01*
X0177142Y0098905D01*
X0178134Y0099316D01*
X0185501Y0106682D01*
X0187389Y0105900D01*
X0190611Y0105900D01*
X0193588Y0107133D01*
X0195867Y0109412D01*
X0197100Y0112389D01*
X0197100Y0115611D01*
X0195867Y0118588D01*
X0193588Y0120867D01*
X0190611Y0122100D01*
X0187389Y0122100D01*
X0184412Y0120867D01*
X0182133Y0118588D01*
X0180900Y0115611D01*
X0180900Y0112389D01*
X0181682Y0110501D01*
X0175487Y0104305D01*
X0172886Y0104305D01*
X0171894Y0103894D01*
X0171135Y0103134D01*
X0149866Y0081865D01*
X0149866Y0081865D01*
X0149106Y0081106D01*
X0148695Y0080114D01*
X0148695Y0064013D01*
X0147100Y0062418D01*
X0147100Y0065611D01*
X0145867Y0068588D01*
X0143588Y0070867D01*
X0140611Y0072100D01*
X0137389Y0072100D01*
X0134412Y0070867D01*
X0132133Y0068588D01*
X0130900Y0065611D01*
X0130900Y0062389D01*
X0131682Y0060501D01*
X0116471Y0045289D01*
X0115711Y0044529D01*
X0115300Y0043537D01*
X0115300Y0024618D01*
X0101732Y0011050D01*
X0100694Y0011050D01*
X0099206Y0010433D01*
X0098067Y0009294D01*
X0097450Y0007806D01*
X0097450Y0006194D01*
X0098067Y0004706D01*
X0099206Y0003567D01*
X0100574Y0003000D01*
X0094956Y0003000D01*
X0095550Y0003594D01*
X0095550Y0010406D01*
X0094906Y0011050D01*
X0088094Y0011050D01*
X0087450Y0010406D01*
X0087450Y0003594D01*
X0088044Y0003000D01*
X0064000Y0003000D01*
X0059441Y0003171D01*
X0050426Y0004529D01*
X0041714Y0007217D01*
X0033500Y0011172D01*
X0025967Y0016308D01*
X0019284Y0022509D01*
X0013599Y0029637D01*
X0009041Y0037533D01*
X0005710Y0046020D01*
X0003681Y0054908D01*
X0003000Y0064000D01*
X0003681Y0073092D01*
X0005710Y0081980D01*
X0009041Y0090467D01*
X0013599Y0098363D01*
X0019284Y0105491D01*
X0025967Y0111692D01*
X0033500Y0116828D01*
X0041714Y0120783D01*
X0050426Y0123471D01*
X0059441Y0124829D01*
X0064000Y0125000D01*
X0088044Y0125000D01*
X0087450Y0124406D01*
X0087450Y0123700D01*
X0073703Y0123700D01*
X0073373Y0123750D01*
X0073171Y0123700D01*
X0072963Y0123700D01*
X0072655Y0123572D01*
X0072331Y0123492D01*
X0072163Y0123369D01*
X0071971Y0123289D01*
X0071735Y0123053D01*
X0068664Y0120791D01*
X0068588Y0120867D01*
X0065611Y0122100D01*
X0062389Y0122100D01*
X0059412Y0120867D01*
X0057133Y0118588D01*
X0055900Y0115611D01*
X0055900Y0112389D01*
X0057133Y0109412D01*
X0059412Y0107133D01*
X0062389Y0105900D01*
X0065611Y0105900D01*
X0068588Y0107133D01*
X0070867Y0109412D01*
X0072100Y0112389D01*
X0072100Y0115611D01*
X0071782Y0116380D01*
X0074387Y0118300D01*
X0087450Y0118300D01*
X0087450Y0117594D01*
X0088094Y0116950D01*
X0094906Y0116950D01*
X0095550Y0117594D01*
X0095550Y0124406D01*
X0094956Y0125000D01*
X0100574Y0125000D01*
X0099206Y0124433D01*
X0098067Y0123294D01*
X0097450Y0121806D01*
X0097450Y0120194D01*
X0098067Y0118706D01*
X0099206Y0117567D01*
X0100296Y0117115D01*
X0087487Y0104305D01*
X0047886Y0104305D01*
X0046894Y0103894D01*
X0046135Y0103134D01*
X0024866Y0081865D01*
X0024866Y0081865D01*
X0024106Y0081106D01*
X0023695Y0080114D01*
X0023695Y0047886D01*
X0023800Y0047633D01*
X0023800Y0035255D01*
X0021778Y0033233D01*
X0020545Y0030256D01*
X0020545Y0027034D01*
X0021778Y0024056D01*
X0024056Y0021778D01*
X0027034Y0020545D01*
X0030256Y0020545D01*
X0033233Y0021778D01*
X0035512Y0024056D01*
X0036745Y0027034D01*
X0036745Y0030256D01*
X0035512Y0033233D01*
X0033233Y0035512D01*
X0030256Y0036745D01*
X0029200Y0036745D01*
X0029200Y0048856D01*
X0029095Y0049109D01*
X0029095Y0078458D01*
X0049542Y0098905D01*
X0089142Y0098905D01*
X0090134Y0099316D01*
X0090894Y0100076D01*
X0091255Y0100437D01*
X0091255Y0097744D01*
X0092488Y0094767D01*
X0094767Y0092488D01*
X0097744Y0091255D01*
X0100966Y0091255D01*
X0102855Y0092037D01*
X0107609Y0087284D01*
X0108368Y0086524D01*
X0109361Y0086113D01*
X0117224Y0086113D01*
X0118216Y0086524D01*
X0118976Y0087284D01*
X0119387Y0088276D01*
X0119387Y0089350D01*
X0118976Y0090342D01*
X0118216Y0091102D01*
X0117224Y0091513D01*
X0111016Y0091513D01*
X0106673Y0095856D01*
X0107455Y0097744D01*
X0107455Y0100967D01*
X0106222Y0103944D01*
X0103944Y0106222D01*
X0100966Y0107455D01*
X0098274Y0107455D01*
X0103968Y0113150D01*
X0114170Y0113150D01*
X0115163Y0113561D01*
X0115922Y0114321D01*
X0119187Y0117585D01*
X0119206Y0117567D01*
X0120694Y0116950D01*
X0122306Y0116950D01*
X0123794Y0117567D01*
X0124933Y0118706D01*
X0125550Y0120194D01*
X0125550Y0121806D01*
X0124933Y0123294D01*
X0123794Y0124433D01*
X0122426Y0125000D01*
X0130574Y0125000D01*
X0129206Y0124433D01*
X0128067Y0123294D01*
X0127450Y0121806D01*
X0127450Y0120194D01*
X0128067Y0118706D01*
X0128800Y0117972D01*
X0128800Y0096129D01*
X0100076Y0067405D01*
X0099316Y0066645D01*
X0098905Y0065653D01*
X0098905Y0049542D01*
X0078458Y0029095D01*
X0075858Y0029095D01*
X0074866Y0028684D01*
X0067499Y0021318D01*
X0065611Y0022100D01*
X0062389Y0022100D01*
X0059412Y0020867D01*
X0057133Y0018588D01*
X0055900Y0015611D01*
X0056259Y0016478D02*
X0025785Y0016478D01*
X0024708Y0017476D02*
X0056673Y0017476D01*
X0057086Y0018475D02*
X0023632Y0018475D01*
X0022556Y0019473D02*
X0058018Y0019473D01*
X0059017Y0020472D02*
X0021480Y0020472D01*
X0020404Y0021470D02*
X0024799Y0021470D01*
X0023366Y0022469D02*
X0019328Y0022469D01*
X0018520Y0023467D02*
X0022367Y0023467D01*
X0021608Y0024466D02*
X0017724Y0024466D01*
X0016927Y0025464D02*
X0021195Y0025464D01*
X0020781Y0026463D02*
X0016131Y0026463D01*
X0015335Y0027461D02*
X0020545Y0027461D01*
X0020545Y0028460D02*
X0014539Y0028460D01*
X0013742Y0029458D02*
X0020545Y0029458D01*
X0020628Y0030457D02*
X0013126Y0030457D01*
X0012550Y0031455D02*
X0021042Y0031455D01*
X0021455Y0032454D02*
X0011973Y0032454D01*
X0011397Y0033452D02*
X0021997Y0033452D01*
X0022996Y0034451D02*
X0010820Y0034451D01*
X0010244Y0035449D02*
X0023800Y0035449D01*
X0023800Y0036448D02*
X0009667Y0036448D01*
X0009091Y0037446D02*
X0023800Y0037446D01*
X0023800Y0038445D02*
X0008683Y0038445D01*
X0008291Y0039443D02*
X0023800Y0039443D01*
X0023800Y0040442D02*
X0007899Y0040442D01*
X0007507Y0041440D02*
X0023800Y0041440D01*
X0023800Y0042439D02*
X0007115Y0042439D01*
X0006724Y0043437D02*
X0023800Y0043437D01*
X0023800Y0044436D02*
X0006332Y0044436D01*
X0005940Y0045434D02*
X0023800Y0045434D01*
X0023800Y0046433D02*
X0005616Y0046433D01*
X0005388Y0047432D02*
X0023800Y0047432D01*
X0023695Y0048430D02*
X0005160Y0048430D01*
X0004932Y0049429D02*
X0023695Y0049429D01*
X0023695Y0050427D02*
X0004704Y0050427D01*
X0004476Y0051426D02*
X0023695Y0051426D01*
X0023695Y0052424D02*
X0004248Y0052424D01*
X0004020Y0053423D02*
X0023695Y0053423D01*
X0023695Y0054421D02*
X0003793Y0054421D01*
X0003643Y0055420D02*
X0023695Y0055420D01*
X0023695Y0056418D02*
X0016862Y0056418D01*
X0015611Y0055900D02*
X0018588Y0057133D01*
X0020867Y0059412D01*
X0022100Y0062389D01*
X0022100Y0065611D01*
X0020867Y0068588D01*
X0018588Y0070867D01*
X0015611Y0072100D01*
X0012389Y0072100D01*
X0009412Y0070867D01*
X0007133Y0068588D01*
X0005900Y0065611D01*
X0005900Y0062389D01*
X0007133Y0059412D01*
X0009412Y0057133D01*
X0012389Y0055900D01*
X0015611Y0055900D01*
X0018872Y0057417D02*
X0023695Y0057417D01*
X0023695Y0058415D02*
X0019870Y0058415D01*
X0020868Y0059414D02*
X0023695Y0059414D01*
X0023695Y0060412D02*
X0021281Y0060412D01*
X0021695Y0061411D02*
X0023695Y0061411D01*
X0023695Y0062409D02*
X0022100Y0062409D01*
X0022100Y0063408D02*
X0023695Y0063408D01*
X0023695Y0064406D02*
X0022100Y0064406D01*
X0022100Y0065405D02*
X0023695Y0065405D01*
X0023695Y0066403D02*
X0021772Y0066403D01*
X0021358Y0067402D02*
X0023695Y0067402D01*
X0023695Y0068400D02*
X0020945Y0068400D01*
X0020056Y0069399D02*
X0023695Y0069399D01*
X0023695Y0070397D02*
X0019058Y0070397D01*
X0017311Y0071396D02*
X0023695Y0071396D01*
X0023695Y0072394D02*
X0003629Y0072394D01*
X0003554Y0071396D02*
X0010689Y0071396D01*
X0008942Y0070397D02*
X0003479Y0070397D01*
X0003405Y0069399D02*
X0007944Y0069399D01*
X0007055Y0068400D02*
X0003330Y0068400D01*
X0003255Y0067402D02*
X0006642Y0067402D01*
X0006228Y0066403D02*
X0003180Y0066403D01*
X0003105Y0065405D02*
X0005900Y0065405D01*
X0005900Y0064406D02*
X0003030Y0064406D01*
X0003044Y0063408D02*
X0005900Y0063408D01*
X0005900Y0062409D02*
X0003119Y0062409D01*
X0003194Y0061411D02*
X0006305Y0061411D01*
X0006719Y0060412D02*
X0003269Y0060412D01*
X0003344Y0059414D02*
X0007132Y0059414D01*
X0008130Y0058415D02*
X0003419Y0058415D01*
X0003493Y0057417D02*
X0009128Y0057417D01*
X0011138Y0056418D02*
X0003568Y0056418D01*
X0029095Y0056418D02*
X0051865Y0056418D01*
X0052442Y0055420D02*
X0029095Y0055420D01*
X0029095Y0054421D02*
X0053356Y0054421D01*
X0052557Y0055220D02*
X0055220Y0052557D01*
X0058480Y0050675D01*
X0062117Y0049700D01*
X0065883Y0049700D01*
X0069520Y0050675D01*
X0072780Y0052557D01*
X0075443Y0055220D01*
X0077325Y0058480D01*
X0078300Y0062117D01*
X0078300Y0065883D01*
X0077325Y0069520D01*
X0075443Y0072780D01*
X0072780Y0075443D01*
X0069520Y0077325D01*
X0065883Y0078300D01*
X0062117Y0078300D01*
X0058480Y0077325D01*
X0055220Y0075443D01*
X0052557Y0072780D01*
X0050675Y0069520D01*
X0049700Y0065883D01*
X0049700Y0062117D01*
X0050675Y0058480D01*
X0052557Y0055220D01*
X0051289Y0057417D02*
X0029095Y0057417D01*
X0029095Y0058415D02*
X0050712Y0058415D01*
X0050424Y0059414D02*
X0029095Y0059414D01*
X0029095Y0060412D02*
X0050157Y0060412D01*
X0049889Y0061411D02*
X0029095Y0061411D01*
X0029095Y0062409D02*
X0049700Y0062409D01*
X0049700Y0063408D02*
X0029095Y0063408D01*
X0029095Y0064406D02*
X0049700Y0064406D01*
X0049700Y0065405D02*
X0029095Y0065405D01*
X0029095Y0066403D02*
X0049840Y0066403D01*
X0050107Y0067402D02*
X0029095Y0067402D01*
X0029095Y0068400D02*
X0050375Y0068400D01*
X0050642Y0069399D02*
X0029095Y0069399D01*
X0029095Y0070397D02*
X0051181Y0070397D01*
X0051758Y0071396D02*
X0029095Y0071396D01*
X0029095Y0072394D02*
X0052334Y0072394D01*
X0053170Y0073393D02*
X0029095Y0073393D01*
X0029095Y0074391D02*
X0054168Y0074391D01*
X0055167Y0075390D02*
X0029095Y0075390D01*
X0029095Y0076388D02*
X0056857Y0076388D01*
X0058710Y0077387D02*
X0029095Y0077387D01*
X0029095Y0078385D02*
X0111056Y0078385D01*
X0110058Y0077387D02*
X0069290Y0077387D01*
X0071143Y0076388D02*
X0109059Y0076388D01*
X0108061Y0075390D02*
X0072833Y0075390D01*
X0073832Y0074391D02*
X0107062Y0074391D01*
X0106064Y0073393D02*
X0074830Y0073393D01*
X0075666Y0072394D02*
X0105065Y0072394D01*
X0104067Y0071396D02*
X0076242Y0071396D01*
X0076819Y0070397D02*
X0103068Y0070397D01*
X0102070Y0069399D02*
X0077358Y0069399D01*
X0077625Y0068400D02*
X0101071Y0068400D01*
X0100073Y0067402D02*
X0077893Y0067402D01*
X0078160Y0066403D02*
X0099216Y0066403D01*
X0098905Y0065405D02*
X0078300Y0065405D01*
X0078300Y0064406D02*
X0098905Y0064406D01*
X0098905Y0063408D02*
X0078300Y0063408D01*
X0078300Y0062409D02*
X0098905Y0062409D01*
X0098905Y0061411D02*
X0078111Y0061411D01*
X0077843Y0060412D02*
X0098905Y0060412D01*
X0098905Y0059414D02*
X0077576Y0059414D01*
X0077288Y0058415D02*
X0098905Y0058415D01*
X0098905Y0057417D02*
X0076711Y0057417D01*
X0076135Y0056418D02*
X0098905Y0056418D01*
X0098905Y0055420D02*
X0075558Y0055420D01*
X0074644Y0054421D02*
X0098905Y0054421D01*
X0098905Y0053423D02*
X0073646Y0053423D01*
X0072550Y0052424D02*
X0098905Y0052424D01*
X0098905Y0051426D02*
X0070820Y0051426D01*
X0068596Y0050427D02*
X0098905Y0050427D01*
X0098792Y0049429D02*
X0029095Y0049429D01*
X0029095Y0050427D02*
X0059404Y0050427D01*
X0057180Y0051426D02*
X0029095Y0051426D01*
X0029095Y0052424D02*
X0055450Y0052424D01*
X0054354Y0053423D02*
X0029095Y0053423D01*
X0029200Y0048430D02*
X0097793Y0048430D01*
X0096795Y0047432D02*
X0029200Y0047432D01*
X0029200Y0046433D02*
X0095796Y0046433D01*
X0094798Y0045434D02*
X0029200Y0045434D01*
X0029200Y0044436D02*
X0093799Y0044436D01*
X0092801Y0043437D02*
X0029200Y0043437D01*
X0029200Y0042439D02*
X0091802Y0042439D01*
X0090804Y0041440D02*
X0029200Y0041440D01*
X0029200Y0040442D02*
X0089805Y0040442D01*
X0088807Y0039443D02*
X0029200Y0039443D01*
X0029200Y0038445D02*
X0087808Y0038445D01*
X0086810Y0037446D02*
X0029200Y0037446D01*
X0030972Y0036448D02*
X0085811Y0036448D01*
X0084813Y0035449D02*
X0033295Y0035449D01*
X0034294Y0034451D02*
X0083814Y0034451D01*
X0082816Y0033452D02*
X0035292Y0033452D01*
X0035834Y0032454D02*
X0081817Y0032454D01*
X0080819Y0031455D02*
X0036248Y0031455D01*
X0036661Y0030457D02*
X0079820Y0030457D01*
X0078821Y0029458D02*
X0036745Y0029458D01*
X0036745Y0028460D02*
X0074641Y0028460D01*
X0073643Y0027461D02*
X0036745Y0027461D01*
X0036508Y0026463D02*
X0072644Y0026463D01*
X0071646Y0025464D02*
X0036095Y0025464D01*
X0035681Y0024466D02*
X0070647Y0024466D01*
X0069649Y0023467D02*
X0034922Y0023467D01*
X0033924Y0022469D02*
X0068650Y0022469D01*
X0067652Y0021470D02*
X0067132Y0021470D01*
X0072293Y0018475D02*
X0109156Y0018475D01*
X0108158Y0017476D02*
X0071327Y0017476D01*
X0071741Y0016478D02*
X0107159Y0016478D01*
X0106161Y0015479D02*
X0072100Y0015479D01*
X0072100Y0014481D02*
X0105162Y0014481D01*
X0104164Y0013482D02*
X0072100Y0013482D01*
X0072100Y0012484D02*
X0103165Y0012484D01*
X0102167Y0011485D02*
X0071726Y0011485D01*
X0071312Y0010487D02*
X0087531Y0010487D01*
X0087450Y0009488D02*
X0070898Y0009488D01*
X0069945Y0008490D02*
X0087450Y0008490D01*
X0087450Y0007491D02*
X0068946Y0007491D01*
X0067042Y0006493D02*
X0087450Y0006493D01*
X0087450Y0005494D02*
X0047299Y0005494D01*
X0044062Y0006493D02*
X0060958Y0006493D01*
X0059054Y0007491D02*
X0041144Y0007491D01*
X0039071Y0008490D02*
X0058055Y0008490D01*
X0057102Y0009488D02*
X0036998Y0009488D01*
X0034924Y0010487D02*
X0056688Y0010487D01*
X0056274Y0011485D02*
X0033041Y0011485D01*
X0031577Y0012484D02*
X0055900Y0012484D01*
X0055900Y0013482D02*
X0030112Y0013482D01*
X0032490Y0021470D02*
X0060868Y0021470D01*
X0073292Y0019473D02*
X0110155Y0019473D01*
X0111153Y0020472D02*
X0074290Y0020472D01*
X0075289Y0021470D02*
X0095510Y0021470D01*
X0094767Y0021778D02*
X0097744Y0020545D01*
X0100966Y0020545D01*
X0103944Y0021778D01*
X0106222Y0024056D01*
X0107455Y0027034D01*
X0107455Y0030256D01*
X0106222Y0033233D01*
X0103944Y0035512D01*
X0100966Y0036745D01*
X0097744Y0036745D01*
X0094767Y0035512D01*
X0092488Y0033233D01*
X0091255Y0030256D01*
X0091255Y0027034D01*
X0092488Y0024056D01*
X0094767Y0021778D01*
X0094076Y0022469D02*
X0076287Y0022469D01*
X0077286Y0023467D02*
X0093078Y0023467D01*
X0092319Y0024466D02*
X0081466Y0024466D01*
X0082464Y0025464D02*
X0091905Y0025464D01*
X0091492Y0026463D02*
X0083463Y0026463D01*
X0084461Y0027461D02*
X0091255Y0027461D01*
X0091255Y0028460D02*
X0085460Y0028460D01*
X0086458Y0029458D02*
X0091255Y0029458D01*
X0091339Y0030457D02*
X0087457Y0030457D01*
X0088455Y0031455D02*
X0091752Y0031455D01*
X0092166Y0032454D02*
X0089454Y0032454D01*
X0090452Y0033452D02*
X0092708Y0033452D01*
X0093706Y0034451D02*
X0091451Y0034451D01*
X0092449Y0035449D02*
X0094705Y0035449D01*
X0093448Y0036448D02*
X0097028Y0036448D01*
X0094446Y0037446D02*
X0115300Y0037446D01*
X0115300Y0036448D02*
X0101683Y0036448D01*
X0104006Y0035449D02*
X0115300Y0035449D01*
X0115300Y0034451D02*
X0105004Y0034451D01*
X0106003Y0033452D02*
X0115300Y0033452D01*
X0115300Y0032454D02*
X0106545Y0032454D01*
X0106958Y0031455D02*
X0115300Y0031455D01*
X0115300Y0030457D02*
X0107372Y0030457D01*
X0107455Y0029458D02*
X0115300Y0029458D01*
X0115300Y0028460D02*
X0107455Y0028460D01*
X0107455Y0027461D02*
X0115300Y0027461D01*
X0115300Y0026463D02*
X0107219Y0026463D01*
X0106805Y0025464D02*
X0115300Y0025464D01*
X0115147Y0024466D02*
X0106392Y0024466D01*
X0105633Y0023467D02*
X0114149Y0023467D01*
X0113150Y0022469D02*
X0104634Y0022469D01*
X0103201Y0021470D02*
X0112152Y0021470D01*
X0116793Y0018475D02*
X0118800Y0018475D01*
X0118800Y0019473D02*
X0117792Y0019473D01*
X0118790Y0020472D02*
X0118800Y0020472D01*
X0118800Y0020482D02*
X0118800Y0010028D01*
X0118067Y0009294D01*
X0117450Y0007806D01*
X0117450Y0006194D01*
X0118067Y0004706D01*
X0119206Y0003567D01*
X0120574Y0003000D01*
X0112426Y0003000D01*
X0113794Y0003567D01*
X0114933Y0004706D01*
X0115550Y0006194D01*
X0115550Y0007806D01*
X0114933Y0009294D01*
X0113794Y0010433D01*
X0112306Y0011050D01*
X0110694Y0011050D01*
X0109206Y0010433D01*
X0108067Y0009294D01*
X0107450Y0007806D01*
X0107450Y0006194D01*
X0108067Y0004706D01*
X0109206Y0003567D01*
X0110574Y0003000D01*
X0102426Y0003000D01*
X0103794Y0003567D01*
X0104933Y0004706D01*
X0105550Y0006194D01*
X0105550Y0007232D01*
X0118800Y0020482D01*
X0118800Y0017476D02*
X0115795Y0017476D01*
X0114796Y0016478D02*
X0118800Y0016478D01*
X0118800Y0015479D02*
X0113798Y0015479D01*
X0112799Y0014481D02*
X0118800Y0014481D01*
X0118800Y0013482D02*
X0111800Y0013482D01*
X0110802Y0012484D02*
X0118800Y0012484D01*
X0118800Y0011485D02*
X0109803Y0011485D01*
X0109334Y0010487D02*
X0108805Y0010487D01*
X0108261Y0009488D02*
X0107806Y0009488D01*
X0107733Y0008490D02*
X0106808Y0008490D01*
X0107450Y0007491D02*
X0105809Y0007491D01*
X0105550Y0006493D02*
X0107450Y0006493D01*
X0107740Y0005494D02*
X0105260Y0005494D01*
X0104723Y0004496D02*
X0108277Y0004496D01*
X0109374Y0003497D02*
X0103626Y0003497D01*
X0099374Y0003497D02*
X0095453Y0003497D01*
X0095550Y0004496D02*
X0098277Y0004496D01*
X0097740Y0005494D02*
X0095550Y0005494D01*
X0095550Y0006493D02*
X0097450Y0006493D01*
X0097450Y0007491D02*
X0095550Y0007491D01*
X0095550Y0008490D02*
X0097733Y0008490D01*
X0098261Y0009488D02*
X0095550Y0009488D01*
X0095469Y0010487D02*
X0099334Y0010487D01*
X0087450Y0004496D02*
X0050651Y0004496D01*
X0057275Y0003497D02*
X0087547Y0003497D01*
X0113626Y0003497D02*
X0119374Y0003497D01*
X0118277Y0004496D02*
X0114723Y0004496D01*
X0115260Y0005494D02*
X0117740Y0005494D01*
X0117450Y0006493D02*
X0115550Y0006493D01*
X0115550Y0007491D02*
X0117450Y0007491D01*
X0117733Y0008490D02*
X0115267Y0008490D01*
X0114739Y0009488D02*
X0118261Y0009488D01*
X0118800Y0010487D02*
X0113666Y0010487D01*
X0124200Y0010487D02*
X0129334Y0010487D01*
X0128261Y0009488D02*
X0124739Y0009488D01*
X0125267Y0008490D02*
X0127733Y0008490D01*
X0127450Y0007491D02*
X0125550Y0007491D01*
X0125550Y0006493D02*
X0127450Y0006493D01*
X0127740Y0005494D02*
X0125260Y0005494D01*
X0124723Y0004496D02*
X0128277Y0004496D01*
X0129374Y0003497D02*
X0123626Y0003497D01*
X0132426Y0003000D02*
X0133794Y0003567D01*
X0134528Y0004300D01*
X0134754Y0004300D01*
X0135746Y0004711D01*
X0137450Y0006415D01*
X0137450Y0006194D01*
X0138067Y0004706D01*
X0139206Y0003567D01*
X0140574Y0003000D01*
X0132426Y0003000D01*
X0133626Y0003497D02*
X0139374Y0003497D01*
X0138277Y0004496D02*
X0135226Y0004496D01*
X0136529Y0005494D02*
X0137740Y0005494D01*
X0142426Y0003000D02*
X0143794Y0003567D01*
X0144933Y0004706D01*
X0145550Y0006194D01*
X0145550Y0007806D01*
X0144933Y0009294D01*
X0144778Y0009450D01*
X0148222Y0009450D01*
X0148067Y0009294D01*
X0147450Y0007806D01*
X0147450Y0006194D01*
X0148067Y0004706D01*
X0149206Y0003567D01*
X0150574Y0003000D01*
X0142426Y0003000D01*
X0143626Y0003497D02*
X0149374Y0003497D01*
X0148277Y0004496D02*
X0144723Y0004496D01*
X0145260Y0005494D02*
X0147740Y0005494D01*
X0147450Y0006493D02*
X0145550Y0006493D01*
X0145550Y0007491D02*
X0147450Y0007491D01*
X0147733Y0008490D02*
X0145267Y0008490D01*
X0154779Y0009488D02*
X0158261Y0009488D01*
X0157733Y0008490D02*
X0155267Y0008490D01*
X0155550Y0007491D02*
X0157450Y0007491D01*
X0157450Y0006493D02*
X0155550Y0006493D01*
X0155260Y0005494D02*
X0157740Y0005494D01*
X0158277Y0004496D02*
X0154723Y0004496D01*
X0153626Y0003497D02*
X0159374Y0003497D01*
X0163626Y0003497D02*
X0195724Y0003497D01*
X0202349Y0004496D02*
X0183009Y0004496D01*
X0184312Y0005494D02*
X0205701Y0005494D01*
X0208938Y0006493D02*
X0192042Y0006493D01*
X0193946Y0007491D02*
X0211856Y0007491D01*
X0213929Y0008490D02*
X0194945Y0008490D01*
X0195898Y0009488D02*
X0216002Y0009488D01*
X0218076Y0010487D02*
X0196312Y0010487D01*
X0196726Y0011485D02*
X0219959Y0011485D01*
X0221423Y0012484D02*
X0197100Y0012484D01*
X0197100Y0013482D02*
X0222888Y0013482D01*
X0224352Y0014481D02*
X0197100Y0014481D01*
X0197100Y0015479D02*
X0225817Y0015479D01*
X0227215Y0016478D02*
X0196741Y0016478D01*
X0196327Y0017476D02*
X0228292Y0017476D01*
X0229368Y0018475D02*
X0195914Y0018475D01*
X0194982Y0019473D02*
X0230444Y0019473D01*
X0231520Y0020472D02*
X0193983Y0020472D01*
X0192132Y0021470D02*
X0220510Y0021470D01*
X0219767Y0021778D02*
X0222744Y0020545D01*
X0225966Y0020545D01*
X0228944Y0021778D01*
X0231222Y0024056D01*
X0232455Y0027034D01*
X0232455Y0030256D01*
X0231222Y0033233D01*
X0228944Y0035512D01*
X0225966Y0036745D01*
X0222744Y0036745D01*
X0219767Y0035512D01*
X0217488Y0033233D01*
X0216255Y0030256D01*
X0216255Y0027034D01*
X0217488Y0024056D01*
X0219767Y0021778D01*
X0219076Y0022469D02*
X0168287Y0022469D01*
X0169286Y0023467D02*
X0218078Y0023467D01*
X0217319Y0024466D02*
X0206466Y0024466D01*
X0207464Y0025464D02*
X0216905Y0025464D01*
X0216492Y0026463D02*
X0208463Y0026463D01*
X0209461Y0027461D02*
X0216255Y0027461D01*
X0216255Y0028460D02*
X0210460Y0028460D01*
X0211458Y0029458D02*
X0216255Y0029458D01*
X0216339Y0030457D02*
X0212457Y0030457D01*
X0213455Y0031455D02*
X0216752Y0031455D01*
X0217166Y0032454D02*
X0214454Y0032454D01*
X0215452Y0033452D02*
X0217708Y0033452D01*
X0218706Y0034451D02*
X0216451Y0034451D01*
X0217449Y0035449D02*
X0219705Y0035449D01*
X0218448Y0036448D02*
X0222028Y0036448D01*
X0219446Y0037446D02*
X0243909Y0037446D01*
X0244317Y0038445D02*
X0220445Y0038445D01*
X0221443Y0039443D02*
X0244709Y0039443D01*
X0245101Y0040442D02*
X0222442Y0040442D01*
X0223440Y0041440D02*
X0245493Y0041440D01*
X0245885Y0042439D02*
X0224439Y0042439D01*
X0225437Y0043437D02*
X0246276Y0043437D01*
X0246668Y0044436D02*
X0226436Y0044436D01*
X0227434Y0045434D02*
X0247060Y0045434D01*
X0247384Y0046433D02*
X0228433Y0046433D01*
X0229117Y0047432D02*
X0247612Y0047432D01*
X0247840Y0048430D02*
X0229305Y0048430D01*
X0229305Y0049429D02*
X0248068Y0049429D01*
X0248296Y0050427D02*
X0229305Y0050427D01*
X0229305Y0051426D02*
X0248524Y0051426D01*
X0248752Y0052424D02*
X0229305Y0052424D01*
X0229305Y0053423D02*
X0248980Y0053423D01*
X0249207Y0054421D02*
X0229305Y0054421D01*
X0229305Y0055420D02*
X0249357Y0055420D01*
X0249319Y0054908D02*
X0249319Y0054908D01*
X0249432Y0056418D02*
X0241862Y0056418D01*
X0240611Y0055900D02*
X0243588Y0057133D01*
X0245867Y0059412D01*
X0247100Y0062389D01*
X0247100Y0065611D01*
X0245867Y0068588D01*
X0243588Y0070867D01*
X0240611Y0072100D01*
X0237389Y0072100D01*
X0234412Y0070867D01*
X0232133Y0068588D01*
X0230900Y0065611D01*
X0230900Y0062389D01*
X0232133Y0059412D01*
X0234412Y0057133D01*
X0237389Y0055900D01*
X0240611Y0055900D01*
X0243872Y0057417D02*
X0249507Y0057417D01*
X0249581Y0058415D02*
X0244870Y0058415D01*
X0245868Y0059414D02*
X0249656Y0059414D01*
X0249731Y0060412D02*
X0246281Y0060412D01*
X0246695Y0061411D02*
X0249806Y0061411D01*
X0249881Y0062409D02*
X0247100Y0062409D01*
X0247100Y0063408D02*
X0249956Y0063408D01*
X0249970Y0064406D02*
X0247100Y0064406D01*
X0247100Y0065405D02*
X0249895Y0065405D01*
X0249820Y0066403D02*
X0246772Y0066403D01*
X0246358Y0067402D02*
X0249745Y0067402D01*
X0249670Y0068400D02*
X0245945Y0068400D01*
X0245056Y0069399D02*
X0249595Y0069399D01*
X0249521Y0070397D02*
X0244058Y0070397D01*
X0242311Y0071396D02*
X0249446Y0071396D01*
X0249371Y0072394D02*
X0229305Y0072394D01*
X0229305Y0071396D02*
X0235689Y0071396D01*
X0233942Y0070397D02*
X0229305Y0070397D01*
X0229305Y0069399D02*
X0232944Y0069399D01*
X0232055Y0068400D02*
X0229305Y0068400D01*
X0229305Y0067402D02*
X0231642Y0067402D01*
X0231228Y0066403D02*
X0229305Y0066403D01*
X0229305Y0065405D02*
X0230900Y0065405D01*
X0230900Y0064406D02*
X0229305Y0064406D01*
X0229305Y0063408D02*
X0230900Y0063408D01*
X0230900Y0062409D02*
X0229305Y0062409D01*
X0229305Y0061411D02*
X0231305Y0061411D01*
X0231719Y0060412D02*
X0229305Y0060412D01*
X0229305Y0059414D02*
X0232132Y0059414D01*
X0233130Y0058415D02*
X0229305Y0058415D01*
X0229305Y0057417D02*
X0234128Y0057417D01*
X0236138Y0056418D02*
X0229305Y0056418D01*
X0223905Y0056418D02*
X0201135Y0056418D01*
X0200558Y0055420D02*
X0223905Y0055420D01*
X0223905Y0054421D02*
X0199644Y0054421D01*
X0200443Y0055220D02*
X0197780Y0052557D01*
X0194520Y0050675D01*
X0190883Y0049700D01*
X0187117Y0049700D01*
X0183480Y0050675D01*
X0180220Y0052557D01*
X0177557Y0055220D01*
X0175675Y0058480D01*
X0174700Y0062117D01*
X0174700Y0065883D01*
X0175675Y0069520D01*
X0177557Y0072780D01*
X0180220Y0075443D01*
X0183480Y0077325D01*
X0187117Y0078300D01*
X0190883Y0078300D01*
X0194520Y0077325D01*
X0197780Y0075443D01*
X0200443Y0072780D01*
X0202325Y0069520D01*
X0203300Y0065883D01*
X0203300Y0062117D01*
X0202325Y0058480D01*
X0200443Y0055220D01*
X0201711Y0057417D02*
X0223905Y0057417D01*
X0223905Y0058415D02*
X0202288Y0058415D01*
X0202576Y0059414D02*
X0223905Y0059414D01*
X0223905Y0060412D02*
X0202843Y0060412D01*
X0203111Y0061411D02*
X0223905Y0061411D01*
X0223905Y0062409D02*
X0203300Y0062409D01*
X0203300Y0063408D02*
X0223905Y0063408D01*
X0223905Y0064406D02*
X0203300Y0064406D01*
X0203300Y0065405D02*
X0223905Y0065405D01*
X0223905Y0066403D02*
X0203160Y0066403D01*
X0202893Y0067402D02*
X0223905Y0067402D01*
X0223905Y0068400D02*
X0202625Y0068400D01*
X0202358Y0069399D02*
X0223905Y0069399D01*
X0223905Y0070397D02*
X0201819Y0070397D01*
X0201242Y0071396D02*
X0223905Y0071396D01*
X0223905Y0072394D02*
X0200666Y0072394D01*
X0199830Y0073393D02*
X0223905Y0073393D01*
X0223905Y0074391D02*
X0198832Y0074391D01*
X0197833Y0075390D02*
X0223905Y0075390D01*
X0223905Y0076388D02*
X0196143Y0076388D01*
X0194290Y0077387D02*
X0223905Y0077387D01*
X0223905Y0078385D02*
X0154095Y0078385D01*
X0154095Y0077387D02*
X0183710Y0077387D01*
X0181857Y0076388D02*
X0154095Y0076388D01*
X0154095Y0075390D02*
X0180167Y0075390D01*
X0179168Y0074391D02*
X0154095Y0074391D01*
X0154095Y0073393D02*
X0178170Y0073393D01*
X0177334Y0072394D02*
X0154095Y0072394D01*
X0154095Y0071396D02*
X0176758Y0071396D01*
X0176181Y0070397D02*
X0154095Y0070397D01*
X0154095Y0069399D02*
X0175642Y0069399D01*
X0175375Y0068400D02*
X0154095Y0068400D01*
X0154095Y0067402D02*
X0175107Y0067402D01*
X0174840Y0066403D02*
X0154095Y0066403D01*
X0154095Y0065405D02*
X0174700Y0065405D01*
X0174700Y0064406D02*
X0154095Y0064406D01*
X0154095Y0063408D02*
X0174700Y0063408D01*
X0174700Y0062409D02*
X0154095Y0062409D01*
X0153703Y0061411D02*
X0174889Y0061411D01*
X0175157Y0060412D02*
X0152731Y0060412D01*
X0151732Y0059414D02*
X0175424Y0059414D01*
X0175712Y0058415D02*
X0150734Y0058415D01*
X0149735Y0057417D02*
X0176289Y0057417D01*
X0176865Y0056418D02*
X0148736Y0056418D01*
X0147738Y0055420D02*
X0177442Y0055420D01*
X0178356Y0054421D02*
X0146739Y0054421D01*
X0145741Y0053423D02*
X0179354Y0053423D01*
X0180450Y0052424D02*
X0144742Y0052424D01*
X0143744Y0051426D02*
X0182180Y0051426D01*
X0184404Y0050427D02*
X0142745Y0050427D01*
X0141747Y0049429D02*
X0223792Y0049429D01*
X0223905Y0050427D02*
X0193596Y0050427D01*
X0195820Y0051426D02*
X0223905Y0051426D01*
X0223905Y0052424D02*
X0197550Y0052424D01*
X0198646Y0053423D02*
X0223905Y0053423D01*
X0222793Y0048430D02*
X0140748Y0048430D01*
X0139750Y0047432D02*
X0221795Y0047432D01*
X0220796Y0046433D02*
X0138751Y0046433D01*
X0137753Y0045434D02*
X0219798Y0045434D01*
X0218799Y0044436D02*
X0136754Y0044436D01*
X0135756Y0043437D02*
X0217801Y0043437D01*
X0216802Y0042439D02*
X0134757Y0042439D01*
X0133759Y0041440D02*
X0215804Y0041440D01*
X0214805Y0040442D02*
X0132760Y0040442D01*
X0132963Y0039700D02*
X0144752Y0039700D01*
X0145826Y0039700D01*
X0146819Y0039289D01*
X0150145Y0035963D01*
X0152034Y0036745D01*
X0155256Y0036745D01*
X0158233Y0035512D01*
X0160512Y0033233D01*
X0161745Y0030256D01*
X0161745Y0027034D01*
X0160512Y0024056D01*
X0158233Y0021778D01*
X0155256Y0020545D01*
X0152034Y0020545D01*
X0149056Y0021778D01*
X0146778Y0024056D01*
X0145545Y0027034D01*
X0145545Y0030256D01*
X0146327Y0032144D01*
X0144171Y0034300D01*
X0132963Y0034300D01*
X0131971Y0034711D01*
X0131211Y0035471D01*
X0130800Y0036463D01*
X0130800Y0037537D01*
X0131211Y0038529D01*
X0131971Y0039289D01*
X0132963Y0039700D01*
X0132344Y0039443D02*
X0131762Y0039443D01*
X0131176Y0038445D02*
X0130763Y0038445D01*
X0130800Y0037446D02*
X0129765Y0037446D01*
X0128766Y0036448D02*
X0130806Y0036448D01*
X0131232Y0035449D02*
X0127768Y0035449D01*
X0126769Y0034451D02*
X0132599Y0034451D01*
X0125771Y0033452D02*
X0145019Y0033452D01*
X0146017Y0032454D02*
X0124772Y0032454D01*
X0124500Y0031455D02*
X0146042Y0031455D01*
X0145628Y0030457D02*
X0124500Y0030457D01*
X0124500Y0029458D02*
X0145545Y0029458D01*
X0145545Y0028460D02*
X0124500Y0028460D01*
X0124500Y0027461D02*
X0145545Y0027461D01*
X0145781Y0026463D02*
X0124500Y0026463D01*
X0124500Y0025464D02*
X0146195Y0025464D01*
X0146608Y0024466D02*
X0124500Y0024466D01*
X0124500Y0023467D02*
X0147367Y0023467D01*
X0148366Y0022469D02*
X0124500Y0022469D01*
X0124500Y0021470D02*
X0149799Y0021470D01*
X0156656Y0018475D02*
X0124200Y0018475D01*
X0124200Y0019473D02*
X0157655Y0019473D01*
X0158653Y0020472D02*
X0124200Y0020472D01*
X0124200Y0017476D02*
X0155658Y0017476D01*
X0154659Y0016478D02*
X0124200Y0016478D01*
X0124200Y0015479D02*
X0153661Y0015479D01*
X0159300Y0013482D02*
X0180900Y0013482D01*
X0180900Y0012484D02*
X0158302Y0012484D01*
X0157303Y0011485D02*
X0181274Y0011485D01*
X0181668Y0010487D02*
X0163666Y0010487D01*
X0159334Y0010487D02*
X0156305Y0010487D01*
X0156439Y0010621D02*
X0156439Y0010621D01*
X0160299Y0014481D02*
X0180900Y0014481D01*
X0180900Y0015479D02*
X0161298Y0015479D01*
X0162296Y0016478D02*
X0181259Y0016478D01*
X0181673Y0017476D02*
X0163295Y0017476D01*
X0164293Y0018475D02*
X0182086Y0018475D01*
X0183018Y0019473D02*
X0165292Y0019473D01*
X0166290Y0020472D02*
X0184017Y0020472D01*
X0185868Y0021470D02*
X0167289Y0021470D01*
X0163646Y0025464D02*
X0161095Y0025464D01*
X0160681Y0024466D02*
X0162647Y0024466D01*
X0161649Y0023467D02*
X0159922Y0023467D01*
X0160650Y0022469D02*
X0158924Y0022469D01*
X0159652Y0021470D02*
X0157490Y0021470D01*
X0161508Y0026463D02*
X0164644Y0026463D01*
X0165643Y0027461D02*
X0161745Y0027461D01*
X0161745Y0028460D02*
X0166641Y0028460D01*
X0166106Y0027924D02*
X0166106Y0027924D01*
X0161745Y0029458D02*
X0203821Y0029458D01*
X0204820Y0030457D02*
X0161661Y0030457D01*
X0161248Y0031455D02*
X0205819Y0031455D01*
X0206817Y0032454D02*
X0160834Y0032454D01*
X0160292Y0033452D02*
X0207816Y0033452D01*
X0208814Y0034451D02*
X0159294Y0034451D01*
X0158295Y0035449D02*
X0209813Y0035449D01*
X0210811Y0036448D02*
X0155972Y0036448D01*
X0151317Y0036448D02*
X0149660Y0036448D01*
X0148661Y0037446D02*
X0211810Y0037446D01*
X0212808Y0038445D02*
X0147663Y0038445D01*
X0146446Y0039443D02*
X0213807Y0039443D01*
X0226683Y0036448D02*
X0243333Y0036448D01*
X0242756Y0035449D02*
X0229006Y0035449D01*
X0230004Y0034451D02*
X0242180Y0034451D01*
X0241603Y0033452D02*
X0231003Y0033452D01*
X0231545Y0032454D02*
X0241027Y0032454D01*
X0240450Y0031455D02*
X0231958Y0031455D01*
X0232372Y0030457D02*
X0239874Y0030457D01*
X0239258Y0029458D02*
X0232455Y0029458D01*
X0232455Y0028460D02*
X0238461Y0028460D01*
X0237665Y0027461D02*
X0232455Y0027461D01*
X0232219Y0026463D02*
X0236869Y0026463D01*
X0236073Y0025464D02*
X0231805Y0025464D01*
X0231392Y0024466D02*
X0235276Y0024466D01*
X0234480Y0023467D02*
X0230633Y0023467D01*
X0229634Y0022469D02*
X0233672Y0022469D01*
X0232596Y0021470D02*
X0228201Y0021470D01*
X0185958Y0006493D02*
X0185311Y0006493D01*
X0137938Y0014481D02*
X0124200Y0014481D01*
X0124200Y0013482D02*
X0136881Y0013482D01*
X0135882Y0012484D02*
X0124200Y0012484D01*
X0124200Y0011485D02*
X0134884Y0011485D01*
X0133885Y0010487D02*
X0133666Y0010487D01*
X0120700Y0036018D02*
X0120700Y0041882D01*
X0135501Y0056682D01*
X0137389Y0055900D01*
X0140582Y0055900D01*
X0120700Y0036018D01*
X0120700Y0036448D02*
X0121130Y0036448D01*
X0120700Y0037446D02*
X0122128Y0037446D01*
X0123127Y0038445D02*
X0120700Y0038445D01*
X0120700Y0039443D02*
X0124125Y0039443D01*
X0125124Y0040442D02*
X0120700Y0040442D01*
X0120700Y0041440D02*
X0126122Y0041440D01*
X0127121Y0042439D02*
X0121257Y0042439D01*
X0122256Y0043437D02*
X0128119Y0043437D01*
X0129118Y0044436D02*
X0123254Y0044436D01*
X0124253Y0045434D02*
X0130116Y0045434D01*
X0131115Y0046433D02*
X0125251Y0046433D01*
X0126250Y0047432D02*
X0132113Y0047432D01*
X0133112Y0048430D02*
X0127248Y0048430D01*
X0128247Y0049429D02*
X0134110Y0049429D01*
X0135109Y0050427D02*
X0129245Y0050427D01*
X0130244Y0051426D02*
X0136107Y0051426D01*
X0137106Y0052424D02*
X0131242Y0052424D01*
X0132241Y0053423D02*
X0138104Y0053423D01*
X0139103Y0054421D02*
X0133239Y0054421D01*
X0134238Y0055420D02*
X0140101Y0055420D01*
X0136138Y0056418D02*
X0135236Y0056418D01*
X0130595Y0059414D02*
X0120868Y0059414D01*
X0121281Y0060412D02*
X0131594Y0060412D01*
X0131305Y0061411D02*
X0121695Y0061411D01*
X0122100Y0062409D02*
X0130900Y0062409D01*
X0130900Y0063408D02*
X0122100Y0063408D01*
X0122100Y0064406D02*
X0130900Y0064406D01*
X0130900Y0065405D02*
X0122100Y0065405D01*
X0121772Y0066403D02*
X0131228Y0066403D01*
X0131642Y0067402D02*
X0121358Y0067402D01*
X0120945Y0068400D02*
X0132055Y0068400D01*
X0132944Y0069399D02*
X0120056Y0069399D01*
X0119058Y0070397D02*
X0133942Y0070397D01*
X0135689Y0071396D02*
X0117577Y0071396D01*
X0118576Y0072394D02*
X0148695Y0072394D01*
X0148695Y0071396D02*
X0142311Y0071396D01*
X0144058Y0070397D02*
X0148695Y0070397D01*
X0148695Y0069399D02*
X0145056Y0069399D01*
X0145945Y0068400D02*
X0148695Y0068400D01*
X0148695Y0067402D02*
X0146358Y0067402D01*
X0146772Y0066403D02*
X0148695Y0066403D01*
X0148695Y0065405D02*
X0147100Y0065405D01*
X0147100Y0064406D02*
X0148695Y0064406D01*
X0148089Y0063408D02*
X0147100Y0063408D01*
X0129597Y0058415D02*
X0119870Y0058415D01*
X0118872Y0057417D02*
X0128598Y0057417D01*
X0127600Y0056418D02*
X0116862Y0056418D01*
X0111138Y0056418D02*
X0104305Y0056418D01*
X0104305Y0055420D02*
X0126601Y0055420D01*
X0125603Y0054421D02*
X0104305Y0054421D01*
X0104305Y0053423D02*
X0124604Y0053423D01*
X0123606Y0052424D02*
X0104305Y0052424D01*
X0104305Y0051426D02*
X0122607Y0051426D01*
X0121609Y0050427D02*
X0104305Y0050427D01*
X0104305Y0049429D02*
X0120610Y0049429D01*
X0119612Y0048430D02*
X0104305Y0048430D01*
X0104117Y0047432D02*
X0118613Y0047432D01*
X0117615Y0046433D02*
X0103433Y0046433D01*
X0102434Y0045434D02*
X0116616Y0045434D01*
X0115672Y0044436D02*
X0101436Y0044436D01*
X0100437Y0043437D02*
X0115300Y0043437D01*
X0115300Y0042439D02*
X0099439Y0042439D01*
X0098440Y0041440D02*
X0115300Y0041440D01*
X0115300Y0040442D02*
X0097442Y0040442D01*
X0096443Y0039443D02*
X0115300Y0039443D01*
X0115300Y0038445D02*
X0095445Y0038445D01*
X0104305Y0057417D02*
X0109128Y0057417D01*
X0108130Y0058415D02*
X0104305Y0058415D01*
X0104305Y0059414D02*
X0107132Y0059414D01*
X0106719Y0060412D02*
X0104305Y0060412D01*
X0104305Y0061411D02*
X0106305Y0061411D01*
X0105900Y0062409D02*
X0104305Y0062409D01*
X0104305Y0063408D02*
X0105900Y0063408D01*
X0105900Y0064406D02*
X0104714Y0064406D01*
X0105712Y0065405D02*
X0105900Y0065405D01*
X0119574Y0073393D02*
X0148695Y0073393D01*
X0148695Y0074391D02*
X0120573Y0074391D01*
X0121571Y0075390D02*
X0148695Y0075390D01*
X0148695Y0076388D02*
X0122570Y0076388D01*
X0123568Y0077387D02*
X0148695Y0077387D01*
X0148695Y0078385D02*
X0124567Y0078385D01*
X0125565Y0079384D02*
X0148695Y0079384D01*
X0148806Y0080382D02*
X0126564Y0080382D01*
X0127563Y0081381D02*
X0149381Y0081381D01*
X0150380Y0082379D02*
X0128561Y0082379D01*
X0129560Y0083378D02*
X0151378Y0083378D01*
X0152377Y0084376D02*
X0130558Y0084376D01*
X0131557Y0085375D02*
X0153375Y0085375D01*
X0154374Y0086373D02*
X0132555Y0086373D01*
X0133554Y0087372D02*
X0155372Y0087372D01*
X0156371Y0088370D02*
X0134552Y0088370D01*
X0135551Y0089369D02*
X0157369Y0089369D01*
X0158368Y0090368D02*
X0136549Y0090368D01*
X0137548Y0091366D02*
X0151766Y0091366D01*
X0152034Y0091255D02*
X0149056Y0092488D01*
X0146778Y0094767D01*
X0145545Y0097744D01*
X0145545Y0100967D01*
X0146778Y0103944D01*
X0149056Y0106222D01*
X0152034Y0107455D01*
X0155256Y0107455D01*
X0158233Y0106222D01*
X0160512Y0103944D01*
X0161745Y0100967D01*
X0161745Y0097744D01*
X0160512Y0094767D01*
X0158233Y0092488D01*
X0155256Y0091255D01*
X0152034Y0091255D01*
X0149356Y0092365D02*
X0137985Y0092365D01*
X0138000Y0093363D02*
X0148182Y0093363D01*
X0147183Y0094362D02*
X0138000Y0094362D01*
X0138000Y0095360D02*
X0146532Y0095360D01*
X0146119Y0096359D02*
X0138000Y0096359D01*
X0138000Y0097357D02*
X0145705Y0097357D01*
X0145545Y0098356D02*
X0138000Y0098356D01*
X0138000Y0099354D02*
X0145545Y0099354D01*
X0145545Y0100353D02*
X0138000Y0100353D01*
X0138000Y0101351D02*
X0145704Y0101351D01*
X0146118Y0102350D02*
X0138000Y0102350D01*
X0138000Y0103348D02*
X0146531Y0103348D01*
X0147181Y0104347D02*
X0138665Y0104347D01*
X0139664Y0105345D02*
X0148179Y0105345D01*
X0149350Y0106344D02*
X0140662Y0106344D01*
X0141661Y0107342D02*
X0151760Y0107342D01*
X0155529Y0107342D02*
X0178524Y0107342D01*
X0177525Y0106344D02*
X0157940Y0106344D01*
X0159110Y0105345D02*
X0176527Y0105345D01*
X0175528Y0104347D02*
X0160108Y0104347D01*
X0160758Y0103348D02*
X0171348Y0103348D01*
X0170350Y0102350D02*
X0161172Y0102350D01*
X0161585Y0101351D02*
X0169351Y0101351D01*
X0168353Y0100353D02*
X0161745Y0100353D01*
X0161745Y0099354D02*
X0167354Y0099354D01*
X0166356Y0098356D02*
X0161745Y0098356D01*
X0161584Y0097357D02*
X0165357Y0097357D01*
X0164359Y0096359D02*
X0161171Y0096359D01*
X0160757Y0095360D02*
X0163360Y0095360D01*
X0162362Y0094362D02*
X0160106Y0094362D01*
X0159108Y0093363D02*
X0161363Y0093363D01*
X0160365Y0092365D02*
X0157934Y0092365D01*
X0159366Y0091366D02*
X0155523Y0091366D01*
X0163009Y0087372D02*
X0223800Y0087372D01*
X0223800Y0088370D02*
X0164007Y0088370D01*
X0165006Y0089369D02*
X0223800Y0089369D01*
X0223800Y0090368D02*
X0166004Y0090368D01*
X0167003Y0091366D02*
X0222477Y0091366D01*
X0220066Y0092365D02*
X0168001Y0092365D01*
X0169000Y0093363D02*
X0218892Y0093363D01*
X0217894Y0094362D02*
X0169998Y0094362D01*
X0170997Y0095360D02*
X0217243Y0095360D01*
X0216829Y0096359D02*
X0171995Y0096359D01*
X0172994Y0097357D02*
X0216416Y0097357D01*
X0216255Y0098356D02*
X0173992Y0098356D01*
X0178172Y0099354D02*
X0216255Y0099354D01*
X0216255Y0100353D02*
X0179171Y0100353D01*
X0180169Y0101351D02*
X0216415Y0101351D01*
X0216828Y0102350D02*
X0181168Y0102350D01*
X0182167Y0103348D02*
X0217242Y0103348D01*
X0217891Y0104347D02*
X0183165Y0104347D01*
X0184164Y0105345D02*
X0218890Y0105345D01*
X0220060Y0106344D02*
X0191682Y0106344D01*
X0193797Y0107342D02*
X0222471Y0107342D01*
X0226240Y0107342D02*
X0231721Y0107342D01*
X0232797Y0106344D02*
X0228650Y0106344D01*
X0229821Y0105345D02*
X0233832Y0105345D01*
X0234628Y0104347D02*
X0230819Y0104347D01*
X0231469Y0103348D02*
X0235425Y0103348D01*
X0236221Y0102350D02*
X0231882Y0102350D01*
X0232296Y0101351D02*
X0237017Y0101351D01*
X0237814Y0100353D02*
X0232455Y0100353D01*
X0232455Y0099354D02*
X0238610Y0099354D01*
X0239405Y0098356D02*
X0232455Y0098356D01*
X0232295Y0097357D02*
X0239981Y0097357D01*
X0240558Y0096359D02*
X0231881Y0096359D01*
X0231468Y0095360D02*
X0241134Y0095360D01*
X0241711Y0094362D02*
X0230817Y0094362D01*
X0229818Y0093363D02*
X0242287Y0093363D01*
X0242863Y0092365D02*
X0229200Y0092365D01*
X0229200Y0091366D02*
X0243440Y0091366D01*
X0243998Y0090368D02*
X0229200Y0090368D01*
X0229200Y0089369D02*
X0244390Y0089369D01*
X0244782Y0088370D02*
X0229200Y0088370D01*
X0229200Y0087372D02*
X0245174Y0087372D01*
X0245566Y0086373D02*
X0229200Y0086373D01*
X0229200Y0085375D02*
X0245958Y0085375D01*
X0246349Y0084376D02*
X0229200Y0084376D01*
X0229200Y0083378D02*
X0246741Y0083378D01*
X0247133Y0082379D02*
X0229200Y0082379D01*
X0229200Y0081381D02*
X0247427Y0081381D01*
X0247655Y0080382D02*
X0229200Y0080382D01*
X0229305Y0079384D02*
X0247882Y0079384D01*
X0248110Y0078385D02*
X0229305Y0078385D01*
X0229305Y0077387D02*
X0248338Y0077387D01*
X0248566Y0076388D02*
X0229305Y0076388D01*
X0229305Y0075390D02*
X0248794Y0075390D01*
X0249022Y0074391D02*
X0229305Y0074391D01*
X0229305Y0073393D02*
X0249250Y0073393D01*
X0223800Y0079384D02*
X0155021Y0079384D01*
X0156019Y0080382D02*
X0223800Y0080382D01*
X0223800Y0081381D02*
X0157018Y0081381D01*
X0158016Y0082379D02*
X0223800Y0082379D01*
X0223800Y0083378D02*
X0159015Y0083378D01*
X0160013Y0084376D02*
X0223800Y0084376D01*
X0223800Y0085375D02*
X0161012Y0085375D01*
X0162010Y0086373D02*
X0223800Y0086373D01*
X0186318Y0106344D02*
X0185162Y0106344D01*
X0180521Y0109339D02*
X0143658Y0109339D01*
X0144656Y0110338D02*
X0181519Y0110338D01*
X0181336Y0111336D02*
X0145655Y0111336D01*
X0146653Y0112335D02*
X0180922Y0112335D01*
X0180900Y0113333D02*
X0147652Y0113333D01*
X0148650Y0114332D02*
X0180900Y0114332D01*
X0180900Y0115330D02*
X0149649Y0115330D01*
X0150647Y0116329D02*
X0181197Y0116329D01*
X0181611Y0117327D02*
X0163216Y0117327D01*
X0164553Y0118326D02*
X0182024Y0118326D01*
X0182869Y0119324D02*
X0165190Y0119324D01*
X0165550Y0120323D02*
X0183868Y0120323D01*
X0185509Y0121321D02*
X0165550Y0121321D01*
X0165337Y0122320D02*
X0206304Y0122320D01*
X0203067Y0123318D02*
X0164909Y0123318D01*
X0163911Y0124317D02*
X0196959Y0124317D01*
X0194132Y0120323D02*
X0212242Y0120323D01*
X0214315Y0119324D02*
X0195131Y0119324D01*
X0195976Y0118326D02*
X0216389Y0118326D01*
X0218462Y0117327D02*
X0196389Y0117327D01*
X0196803Y0116329D02*
X0220232Y0116329D01*
X0221696Y0115330D02*
X0197100Y0115330D01*
X0197100Y0114332D02*
X0223161Y0114332D01*
X0224625Y0113333D02*
X0197100Y0113333D01*
X0197078Y0112335D02*
X0226090Y0112335D01*
X0227416Y0111336D02*
X0196664Y0111336D01*
X0196250Y0110338D02*
X0228492Y0110338D01*
X0229568Y0109339D02*
X0195794Y0109339D01*
X0194796Y0108341D02*
X0230644Y0108341D01*
X0209541Y0121321D02*
X0192491Y0121321D01*
X0179522Y0108341D02*
X0142659Y0108341D01*
X0138018Y0111336D02*
X0134200Y0111336D01*
X0134200Y0110338D02*
X0137019Y0110338D01*
X0136021Y0109339D02*
X0134200Y0109339D01*
X0134200Y0108341D02*
X0135022Y0108341D01*
X0134200Y0107518D02*
X0134200Y0117972D01*
X0134933Y0118706D01*
X0135550Y0120194D01*
X0135550Y0121806D01*
X0134933Y0123294D01*
X0133794Y0124433D01*
X0132426Y0125000D01*
X0140574Y0125000D01*
X0139206Y0124433D01*
X0138067Y0123294D01*
X0137450Y0121806D01*
X0137450Y0120194D01*
X0138067Y0118706D01*
X0139206Y0117567D01*
X0140694Y0116950D01*
X0142306Y0116950D01*
X0143794Y0117567D01*
X0144933Y0118706D01*
X0145550Y0120194D01*
X0145550Y0121806D01*
X0144933Y0123294D01*
X0143794Y0124433D01*
X0142426Y0125000D01*
X0150574Y0125000D01*
X0149206Y0124433D01*
X0148067Y0123294D01*
X0147450Y0121806D01*
X0147450Y0120768D01*
X0134200Y0107518D01*
X0128800Y0107342D02*
X0101240Y0107342D01*
X0099159Y0108341D02*
X0128800Y0108341D01*
X0128800Y0109339D02*
X0100158Y0109339D01*
X0101156Y0110338D02*
X0128800Y0110338D01*
X0128800Y0111336D02*
X0102155Y0111336D01*
X0103153Y0112335D02*
X0128800Y0112335D01*
X0128800Y0113333D02*
X0114613Y0113333D01*
X0115933Y0114332D02*
X0128800Y0114332D01*
X0128800Y0115330D02*
X0116932Y0115330D01*
X0117930Y0116329D02*
X0128800Y0116329D01*
X0128800Y0117327D02*
X0123216Y0117327D01*
X0124553Y0118326D02*
X0128447Y0118326D01*
X0127810Y0119324D02*
X0125190Y0119324D01*
X0125550Y0120323D02*
X0127450Y0120323D01*
X0127450Y0121321D02*
X0125550Y0121321D01*
X0125337Y0122320D02*
X0127663Y0122320D01*
X0128091Y0123318D02*
X0124909Y0123318D01*
X0123911Y0124317D02*
X0129089Y0124317D01*
X0133911Y0124317D02*
X0139089Y0124317D01*
X0138091Y0123318D02*
X0134909Y0123318D01*
X0135337Y0122320D02*
X0137663Y0122320D01*
X0137450Y0121321D02*
X0135550Y0121321D01*
X0135550Y0120323D02*
X0137450Y0120323D01*
X0137810Y0119324D02*
X0135190Y0119324D01*
X0134553Y0118326D02*
X0138447Y0118326D01*
X0139783Y0117327D02*
X0134200Y0117327D01*
X0134200Y0116329D02*
X0143010Y0116329D01*
X0143216Y0117327D02*
X0144009Y0117327D01*
X0144553Y0118326D02*
X0145007Y0118326D01*
X0145190Y0119324D02*
X0146006Y0119324D01*
X0145550Y0120323D02*
X0147004Y0120323D01*
X0147450Y0121321D02*
X0145550Y0121321D01*
X0145337Y0122320D02*
X0147663Y0122320D01*
X0148091Y0123318D02*
X0144909Y0123318D01*
X0143911Y0124317D02*
X0149089Y0124317D01*
X0153911Y0124317D02*
X0159089Y0124317D01*
X0158091Y0123318D02*
X0154909Y0123318D01*
X0155337Y0122320D02*
X0157663Y0122320D01*
X0157450Y0121321D02*
X0155550Y0121321D01*
X0155550Y0120323D02*
X0157450Y0120323D01*
X0157810Y0119324D02*
X0155190Y0119324D01*
X0154553Y0118326D02*
X0158447Y0118326D01*
X0159783Y0117327D02*
X0153216Y0117327D01*
X0142012Y0115330D02*
X0134200Y0115330D01*
X0134200Y0114332D02*
X0141013Y0114332D01*
X0140015Y0113333D02*
X0134200Y0113333D01*
X0134200Y0112335D02*
X0139016Y0112335D01*
X0128800Y0106344D02*
X0103650Y0106344D01*
X0104821Y0105345D02*
X0128800Y0105345D01*
X0128800Y0104347D02*
X0105819Y0104347D01*
X0106469Y0103348D02*
X0128800Y0103348D01*
X0128800Y0102350D02*
X0106882Y0102350D01*
X0107296Y0101351D02*
X0128800Y0101351D01*
X0128800Y0100353D02*
X0107455Y0100353D01*
X0107455Y0099354D02*
X0128800Y0099354D01*
X0128800Y0098356D02*
X0107455Y0098356D01*
X0107295Y0097357D02*
X0128800Y0097357D01*
X0128800Y0096359D02*
X0106881Y0096359D01*
X0107169Y0095360D02*
X0128031Y0095360D01*
X0127032Y0094362D02*
X0108167Y0094362D01*
X0109166Y0093363D02*
X0126034Y0093363D01*
X0125035Y0092365D02*
X0110164Y0092365D01*
X0104525Y0090368D02*
X0041004Y0090368D01*
X0042003Y0091366D02*
X0097477Y0091366D01*
X0095066Y0092365D02*
X0043001Y0092365D01*
X0044000Y0093363D02*
X0093892Y0093363D01*
X0092894Y0094362D02*
X0044998Y0094362D01*
X0045997Y0095360D02*
X0092243Y0095360D01*
X0091829Y0096359D02*
X0046995Y0096359D01*
X0047994Y0097357D02*
X0091416Y0097357D01*
X0091255Y0098356D02*
X0048992Y0098356D01*
X0043353Y0100353D02*
X0036745Y0100353D01*
X0036745Y0100967D02*
X0035512Y0103944D01*
X0033233Y0106222D01*
X0030256Y0107455D01*
X0027034Y0107455D01*
X0024056Y0106222D01*
X0021778Y0103944D01*
X0020545Y0100967D01*
X0020545Y0097744D01*
X0021778Y0094767D01*
X0024056Y0092488D01*
X0027034Y0091255D01*
X0030256Y0091255D01*
X0033233Y0092488D01*
X0035512Y0094767D01*
X0036745Y0097744D01*
X0036745Y0100967D01*
X0036585Y0101351D02*
X0044351Y0101351D01*
X0045350Y0102350D02*
X0036172Y0102350D01*
X0035758Y0103348D02*
X0046348Y0103348D01*
X0046135Y0103134D02*
X0046135Y0103134D01*
X0042354Y0099354D02*
X0036745Y0099354D01*
X0036745Y0098356D02*
X0041356Y0098356D01*
X0040357Y0097357D02*
X0036584Y0097357D01*
X0036171Y0096359D02*
X0039359Y0096359D01*
X0038360Y0095360D02*
X0035757Y0095360D01*
X0035106Y0094362D02*
X0037362Y0094362D01*
X0036363Y0093363D02*
X0034108Y0093363D01*
X0032934Y0092365D02*
X0035365Y0092365D01*
X0034366Y0091366D02*
X0030523Y0091366D01*
X0033368Y0090368D02*
X0009002Y0090368D01*
X0008610Y0089369D02*
X0032369Y0089369D01*
X0031371Y0088370D02*
X0008218Y0088370D01*
X0007826Y0087372D02*
X0030372Y0087372D01*
X0029374Y0086373D02*
X0007434Y0086373D01*
X0007042Y0085375D02*
X0028375Y0085375D01*
X0027377Y0084376D02*
X0006651Y0084376D01*
X0006259Y0083378D02*
X0026378Y0083378D01*
X0025380Y0082379D02*
X0005867Y0082379D01*
X0005573Y0081381D02*
X0024381Y0081381D01*
X0023806Y0080382D02*
X0005345Y0080382D01*
X0005117Y0079384D02*
X0023695Y0079384D01*
X0023695Y0078385D02*
X0004890Y0078385D01*
X0004662Y0077387D02*
X0023695Y0077387D01*
X0023695Y0076388D02*
X0004434Y0076388D01*
X0004206Y0075390D02*
X0023695Y0075390D01*
X0023695Y0074391D02*
X0003978Y0074391D01*
X0003750Y0073393D02*
X0023695Y0073393D01*
X0030021Y0079384D02*
X0112055Y0079384D01*
X0113053Y0080382D02*
X0031019Y0080382D01*
X0032018Y0081381D02*
X0114052Y0081381D01*
X0115050Y0082379D02*
X0033016Y0082379D01*
X0034015Y0083378D02*
X0116049Y0083378D01*
X0117047Y0084376D02*
X0035013Y0084376D01*
X0036012Y0085375D02*
X0118046Y0085375D01*
X0117853Y0086373D02*
X0119044Y0086373D01*
X0119013Y0087372D02*
X0120043Y0087372D01*
X0119387Y0088370D02*
X0121041Y0088370D01*
X0122040Y0089369D02*
X0119379Y0089369D01*
X0118951Y0090368D02*
X0123038Y0090368D01*
X0124037Y0091366D02*
X0117579Y0091366D01*
X0108732Y0086373D02*
X0037010Y0086373D01*
X0038009Y0087372D02*
X0107520Y0087372D01*
X0106522Y0088370D02*
X0039007Y0088370D01*
X0040006Y0089369D02*
X0105523Y0089369D01*
X0103526Y0091366D02*
X0101234Y0091366D01*
X0091255Y0099354D02*
X0090172Y0099354D01*
X0090894Y0100076D02*
X0090894Y0100076D01*
X0091171Y0100353D02*
X0091255Y0100353D01*
X0087528Y0104347D02*
X0035108Y0104347D01*
X0034110Y0105345D02*
X0088527Y0105345D01*
X0089525Y0106344D02*
X0066682Y0106344D01*
X0068797Y0107342D02*
X0090524Y0107342D01*
X0091522Y0108341D02*
X0069796Y0108341D01*
X0070794Y0109339D02*
X0092521Y0109339D01*
X0093519Y0110338D02*
X0071250Y0110338D01*
X0071664Y0111336D02*
X0094518Y0111336D01*
X0095516Y0112335D02*
X0072078Y0112335D01*
X0072100Y0113333D02*
X0096515Y0113333D01*
X0097513Y0114332D02*
X0072100Y0114332D01*
X0072100Y0115330D02*
X0098512Y0115330D01*
X0099510Y0116329D02*
X0071803Y0116329D01*
X0073067Y0117327D02*
X0087717Y0117327D01*
X0095283Y0117327D02*
X0099783Y0117327D01*
X0098447Y0118326D02*
X0095550Y0118326D01*
X0095550Y0119324D02*
X0097810Y0119324D01*
X0097450Y0120323D02*
X0095550Y0120323D01*
X0095550Y0121321D02*
X0097450Y0121321D01*
X0097663Y0122320D02*
X0095550Y0122320D01*
X0095550Y0123318D02*
X0098091Y0123318D01*
X0099089Y0124317D02*
X0095550Y0124317D01*
X0102426Y0125000D02*
X0110574Y0125000D01*
X0109206Y0124433D01*
X0108067Y0123294D01*
X0107450Y0121806D01*
X0107450Y0120194D01*
X0108067Y0118706D01*
X0108222Y0118550D01*
X0104778Y0118550D01*
X0104933Y0118706D01*
X0105550Y0120194D01*
X0105550Y0121806D01*
X0104933Y0123294D01*
X0103794Y0124433D01*
X0102426Y0125000D01*
X0103911Y0124317D02*
X0109089Y0124317D01*
X0108091Y0123318D02*
X0104909Y0123318D01*
X0105337Y0122320D02*
X0107663Y0122320D01*
X0107450Y0121321D02*
X0105550Y0121321D01*
X0105550Y0120323D02*
X0107450Y0120323D01*
X0107810Y0119324D02*
X0105190Y0119324D01*
X0112426Y0125000D02*
X0120574Y0125000D01*
X0119206Y0124433D01*
X0118472Y0123700D01*
X0118246Y0123700D01*
X0117254Y0123289D01*
X0115550Y0121585D01*
X0115550Y0121806D01*
X0114933Y0123294D01*
X0113794Y0124433D01*
X0112426Y0125000D01*
X0113911Y0124317D02*
X0119089Y0124317D01*
X0117325Y0123318D02*
X0114909Y0123318D01*
X0115337Y0122320D02*
X0116285Y0122320D01*
X0118929Y0117327D02*
X0119783Y0117327D01*
X0087450Y0124317D02*
X0056041Y0124317D01*
X0058868Y0120323D02*
X0040758Y0120323D01*
X0038685Y0119324D02*
X0057869Y0119324D01*
X0057024Y0118326D02*
X0036611Y0118326D01*
X0034538Y0117327D02*
X0056611Y0117327D01*
X0056197Y0116329D02*
X0032768Y0116329D01*
X0031304Y0115330D02*
X0055900Y0115330D01*
X0055900Y0114332D02*
X0029839Y0114332D01*
X0028375Y0113333D02*
X0055900Y0113333D01*
X0055922Y0112335D02*
X0026910Y0112335D01*
X0025584Y0111336D02*
X0056336Y0111336D01*
X0056750Y0110338D02*
X0024508Y0110338D01*
X0023432Y0109339D02*
X0057206Y0109339D01*
X0058204Y0108341D02*
X0022356Y0108341D01*
X0021279Y0107342D02*
X0026760Y0107342D01*
X0024350Y0106344D02*
X0020203Y0106344D01*
X0019168Y0105345D02*
X0023179Y0105345D01*
X0022181Y0104347D02*
X0018372Y0104347D01*
X0017575Y0103348D02*
X0021531Y0103348D01*
X0021118Y0102350D02*
X0016779Y0102350D01*
X0015983Y0101351D02*
X0020704Y0101351D01*
X0020545Y0100353D02*
X0015186Y0100353D01*
X0014390Y0099354D02*
X0020545Y0099354D01*
X0020545Y0098356D02*
X0013595Y0098356D01*
X0013019Y0097357D02*
X0020705Y0097357D01*
X0021119Y0096359D02*
X0012442Y0096359D01*
X0011866Y0095360D02*
X0021532Y0095360D01*
X0022183Y0094362D02*
X0011289Y0094362D01*
X0010713Y0093363D02*
X0023182Y0093363D01*
X0024356Y0092365D02*
X0010136Y0092365D01*
X0009560Y0091366D02*
X0026766Y0091366D01*
X0032940Y0106344D02*
X0061318Y0106344D01*
X0059203Y0107342D02*
X0030529Y0107342D01*
X0043459Y0121321D02*
X0060509Y0121321D01*
X0067491Y0121321D02*
X0069385Y0121321D01*
X0070740Y0122320D02*
X0046696Y0122320D01*
X0049933Y0123318D02*
X0072042Y0123318D01*
M02*
