G75*
%MOIN*%
%OFA0B0*%
%FSLAX25Y25*%
%IPPOS*%
%LPD*%
%AMOC8*
5,1,8,0,0,1.08239X$1,22.5*
%
%ADD10R,0.03150X0.04724*%
%ADD11R,0.04724X0.03150*%
%ADD12R,0.02500X0.05000*%
%ADD13R,0.20000X0.10000*%
%ADD14R,0.05000X0.02500*%
%ADD15R,0.10000X0.20000*%
%ADD16C,0.05900*%
%ADD17R,0.05900X0.05900*%
%ADD18C,0.05937*%
%ADD19R,0.06299X0.07087*%
%ADD20R,0.07087X0.06299*%
%ADD21C,0.02400*%
%ADD22C,0.20000*%
%ADD23C,0.01000*%
%ADD24C,0.02600*%
%ADD25C,0.02000*%
%ADD26C,0.05000*%
%ADD27C,0.01600*%
D10*
X0046557Y0016500D03*
X0053643Y0016500D03*
X0058557Y0016500D03*
X0065643Y0016500D03*
X0072457Y0032500D03*
X0079543Y0032500D03*
G36*
X0084512Y0032951D02*
X0086739Y0035178D01*
X0090078Y0031839D01*
X0087851Y0029612D01*
X0084512Y0032951D01*
G37*
G36*
X0089522Y0037961D02*
X0091749Y0040188D01*
X0095088Y0036849D01*
X0092861Y0034622D01*
X0089522Y0037961D01*
G37*
X0110357Y0032400D03*
X0117443Y0032400D03*
X0133457Y0033000D03*
X0140543Y0033000D03*
X0142957Y0078500D03*
X0138043Y0078500D03*
X0138043Y0084500D03*
X0142957Y0084500D03*
X0150043Y0084500D03*
X0150043Y0078500D03*
X0151543Y0095500D03*
X0144457Y0095500D03*
X0130957Y0084500D03*
X0130957Y0078500D03*
X0117043Y0078500D03*
X0117043Y0084500D03*
X0109957Y0084500D03*
X0105043Y0084500D03*
X0105043Y0078500D03*
X0109957Y0078500D03*
X0097957Y0078500D03*
X0097957Y0084500D03*
X0111957Y0118500D03*
X0111957Y0124000D03*
X0119043Y0124000D03*
X0119043Y0118500D03*
X0066043Y0049500D03*
X0058957Y0049500D03*
X0054543Y0049500D03*
X0047457Y0049500D03*
D11*
X0027500Y0049457D03*
X0027500Y0056543D03*
X0027500Y0061457D03*
X0027500Y0068543D03*
X0021500Y0068543D03*
X0021500Y0061457D03*
X0021500Y0056543D03*
X0021500Y0049457D03*
X0021500Y0035543D03*
X0027500Y0035543D03*
X0027500Y0028457D03*
X0027500Y0023543D03*
X0027500Y0016457D03*
X0021500Y0016457D03*
X0021500Y0023543D03*
X0021500Y0028457D03*
X0095100Y0053157D03*
X0098000Y0048043D03*
X0098000Y0040957D03*
X0095100Y0060243D03*
X0121500Y0098457D03*
X0127500Y0098457D03*
X0127500Y0105543D03*
X0121500Y0105543D03*
X0131500Y0113357D03*
X0137200Y0113357D03*
X0137200Y0120443D03*
X0131500Y0120443D03*
X0128400Y0060043D03*
X0128400Y0052957D03*
X0131000Y0048043D03*
X0131000Y0040957D03*
D12*
X0138000Y0050000D03*
X0143000Y0050000D03*
X0148000Y0050000D03*
X0153000Y0050000D03*
X0153000Y0072500D03*
X0148000Y0072500D03*
X0143000Y0072500D03*
X0138000Y0072500D03*
X0120000Y0072500D03*
X0115000Y0072500D03*
X0110000Y0072500D03*
X0105000Y0072500D03*
X0105000Y0050000D03*
X0110000Y0050000D03*
X0115000Y0050000D03*
X0120000Y0050000D03*
D13*
X0109000Y0061250D03*
X0142000Y0061250D03*
D14*
X0056000Y0061500D03*
X0056000Y0066500D03*
X0056000Y0071500D03*
X0056000Y0056500D03*
X0056000Y0038500D03*
X0056000Y0033500D03*
X0056000Y0028500D03*
X0056000Y0023500D03*
X0033500Y0023500D03*
X0033500Y0028500D03*
X0033500Y0033500D03*
X0033500Y0038500D03*
X0033500Y0056500D03*
X0033500Y0061500D03*
X0033500Y0066500D03*
X0033500Y0071500D03*
D15*
X0044750Y0060500D03*
X0044750Y0027500D03*
D16*
X0042000Y0095000D03*
X0042000Y0105000D03*
X0042000Y0115000D03*
X0144500Y0113000D03*
X0144500Y0103000D03*
X0154500Y0103000D03*
X0154500Y0113000D03*
X0154500Y0123000D03*
D17*
X0144500Y0123000D03*
X0042000Y0125000D03*
D18*
X0056000Y0122269D02*
X0056000Y0116331D01*
X0066000Y0116331D02*
X0066000Y0122269D01*
X0076000Y0122269D02*
X0076000Y0116331D01*
X0025969Y0115000D02*
X0020031Y0115000D01*
X0020031Y0105000D02*
X0025969Y0105000D01*
X0025969Y0095000D02*
X0020031Y0095000D01*
X0020031Y0125000D02*
X0025969Y0125000D01*
X0072000Y0025969D02*
X0072000Y0020031D01*
X0082000Y0020031D02*
X0082000Y0025969D01*
X0092000Y0025969D02*
X0092000Y0020031D01*
X0102000Y0020031D02*
X0102000Y0025969D01*
X0112000Y0025969D02*
X0112000Y0020031D01*
X0122000Y0020031D02*
X0122000Y0025969D01*
X0132000Y0025969D02*
X0132000Y0020031D01*
X0142000Y0020031D02*
X0142000Y0025969D01*
D19*
X0138488Y0042500D03*
X0149512Y0042500D03*
X0116512Y0042500D03*
X0105488Y0042500D03*
D20*
X0063500Y0035012D03*
X0063500Y0023988D03*
X0063500Y0056988D03*
X0063500Y0068012D03*
D21*
X0061988Y0066500D01*
X0056000Y0066500D01*
X0056000Y0061500D02*
X0054000Y0061500D01*
X0056000Y0061500D02*
X0058988Y0061500D01*
X0063500Y0056988D01*
X0066043Y0054445D01*
X0066043Y0049500D01*
X0056000Y0056500D02*
X0054543Y0055043D01*
X0054543Y0049500D01*
X0047600Y0049500D02*
X0047500Y0049400D01*
X0047100Y0049400D01*
X0047200Y0049500D01*
X0047300Y0049500D01*
X0047200Y0049600D01*
X0047200Y0050900D01*
X0047600Y0049700D02*
X0047600Y0049500D01*
X0047457Y0049500D02*
X0047513Y0052357D01*
X0047700Y0052157D02*
X0047457Y0049500D01*
X0045957Y0059293D01*
X0044750Y0060500D01*
X0045800Y0050300D02*
X0045800Y0049600D01*
X0045900Y0049700D01*
X0047600Y0049700D01*
X0045800Y0049600D02*
X0044800Y0049600D01*
X0054200Y0038500D02*
X0056000Y0038500D01*
X0056000Y0033500D02*
X0061988Y0033500D01*
X0063500Y0035012D01*
X0058988Y0028500D02*
X0056000Y0028500D01*
X0054000Y0028500D01*
X0058988Y0028500D02*
X0063500Y0023988D01*
X0065643Y0023045D01*
X0065643Y0016500D01*
X0072000Y0023000D02*
X0072457Y0023457D01*
X0072457Y0032500D01*
X0056000Y0023500D02*
X0053643Y0021143D01*
X0053643Y0016500D01*
X0045957Y0026293D02*
X0044750Y0027500D01*
X0038750Y0033500D01*
X0033500Y0033500D01*
X0033500Y0035500D01*
X0033457Y0035543D01*
X0027500Y0035543D01*
X0021500Y0035543D01*
X0021500Y0028457D02*
X0027500Y0028457D01*
X0027543Y0028500D01*
X0033500Y0028500D01*
X0033457Y0023543D02*
X0027500Y0023543D01*
X0027500Y0023000D01*
X0027500Y0023543D02*
X0021500Y0023543D01*
X0033457Y0023543D02*
X0033500Y0023500D01*
X0033500Y0035500D02*
X0033500Y0038500D01*
X0033500Y0056500D02*
X0033457Y0056543D01*
X0027500Y0056543D01*
X0027500Y0056600D01*
X0027500Y0056543D02*
X0021500Y0056543D01*
X0021500Y0061457D02*
X0027500Y0061457D01*
X0027543Y0061500D01*
X0033500Y0061500D01*
X0033500Y0066500D02*
X0029543Y0066500D01*
X0027500Y0068543D01*
X0054500Y0071500D02*
X0056000Y0071500D01*
X0053000Y0110000D02*
X0060900Y0110000D01*
X0053000Y0110000D02*
X0049000Y0114000D01*
X0049000Y0118000D01*
X0042000Y0125000D01*
X0097957Y0084500D02*
X0097957Y0078500D01*
X0104500Y0079000D02*
X0105000Y0083457D01*
X0105043Y0083500D01*
X0105000Y0083500D01*
X0105043Y0083500D02*
X0105043Y0084500D01*
X0105043Y0083500D02*
X0105043Y0079500D01*
X0105000Y0079500D01*
X0105043Y0079457D01*
X0105043Y0078500D01*
X0105043Y0072543D01*
X0105043Y0072500D02*
X0105000Y0072500D01*
X0110000Y0072500D02*
X0110000Y0078457D01*
X0109957Y0078500D01*
X0109957Y0084500D01*
X0110043Y0084587D01*
X0105043Y0079500D02*
X0105043Y0079457D01*
X0109000Y0061250D02*
X0107750Y0060000D01*
X0100557Y0060200D01*
X0095100Y0060243D01*
X0095557Y0060187D01*
X0095100Y0053157D02*
X0101843Y0053157D01*
X0105000Y0050000D01*
X0110000Y0050000D02*
X0110000Y0046512D01*
X0105488Y0042500D01*
X0103945Y0040957D01*
X0098000Y0040957D01*
X0110000Y0050000D02*
X0110000Y0052000D01*
X0115000Y0050000D02*
X0115000Y0045012D01*
X0116512Y0042500D01*
X0120000Y0050000D02*
X0120000Y0051500D01*
X0128400Y0052957D02*
X0134957Y0052957D01*
X0138000Y0050000D01*
X0143000Y0050000D02*
X0143000Y0047012D01*
X0138488Y0042500D01*
X0136945Y0040957D01*
X0131000Y0040957D01*
X0133457Y0033000D02*
X0133457Y0024457D01*
X0132000Y0023000D01*
X0140543Y0024457D02*
X0140543Y0033000D01*
X0140543Y0024457D02*
X0142000Y0023000D01*
X0149000Y0038500D02*
X0149000Y0042500D01*
X0149512Y0042500D01*
X0148000Y0044512D01*
X0148000Y0050000D01*
X0143000Y0050000D02*
X0143000Y0052000D01*
X0142000Y0061250D02*
X0136707Y0059750D01*
X0128400Y0060043D01*
X0129100Y0059843D01*
X0129000Y0060000D02*
X0131457Y0060000D01*
X0128400Y0060043D01*
X0138000Y0072500D02*
X0138043Y0084500D01*
X0138043Y0078500D01*
X0137500Y0078500D01*
X0130957Y0078500D02*
X0130957Y0084500D01*
X0130957Y0077543D01*
X0131000Y0077500D01*
X0142957Y0078500D02*
X0142957Y0084500D01*
X0142957Y0078500D02*
X0143000Y0077043D01*
X0143000Y0072500D01*
X0148000Y0072500D02*
X0150500Y0072500D01*
X0150500Y0069750D01*
X0142000Y0061250D01*
X0150500Y0072500D02*
X0153000Y0072500D01*
X0153000Y0077043D01*
X0150043Y0078500D01*
X0150043Y0084500D01*
X0144457Y0095500D02*
X0144457Y0102957D01*
X0144500Y0103000D01*
X0153000Y0051500D02*
X0153000Y0050000D01*
X0120000Y0032043D02*
X0120000Y0032000D01*
X0120000Y0032043D02*
X0117443Y0032400D01*
X0112000Y0030757D02*
X0112000Y0023000D01*
X0112000Y0030757D02*
X0110357Y0032400D01*
D22*
X0083500Y0089000D03*
X0060000Y0089000D03*
D23*
X0015000Y0080461D02*
X0015000Y0012500D01*
X0148661Y0012500D01*
X0147202Y0013960D01*
X0146250Y0016257D01*
X0146250Y0018743D01*
X0147202Y0021040D01*
X0148960Y0022798D01*
X0151257Y0023750D01*
X0153743Y0023750D01*
X0156040Y0022798D01*
X0157400Y0021439D01*
X0157400Y0099890D01*
X0156907Y0099397D01*
X0155345Y0098750D01*
X0154338Y0098750D01*
X0154516Y0098441D01*
X0154618Y0098060D01*
X0154618Y0095787D01*
X0151831Y0095787D01*
X0151831Y0095213D01*
X0154618Y0095213D01*
X0154618Y0092940D01*
X0154516Y0092559D01*
X0154318Y0092217D01*
X0154039Y0091937D01*
X0153697Y0091740D01*
X0153316Y0091638D01*
X0151831Y0091638D01*
X0151831Y0095213D01*
X0151256Y0095213D01*
X0148469Y0095213D01*
X0148469Y0092940D01*
X0148571Y0092559D01*
X0148768Y0092217D01*
X0149047Y0091937D01*
X0149390Y0091740D01*
X0149771Y0091638D01*
X0151256Y0091638D01*
X0151256Y0095213D01*
X0151256Y0095787D01*
X0148468Y0095787D01*
X0148469Y0098060D01*
X0148571Y0098441D01*
X0148768Y0098783D01*
X0149047Y0099062D01*
X0149390Y0099260D01*
X0149771Y0099362D01*
X0151256Y0099362D01*
X0151256Y0095787D01*
X0151831Y0095787D01*
X0151831Y0099362D01*
X0152177Y0099362D01*
X0152093Y0099397D01*
X0150897Y0100593D01*
X0150250Y0102155D01*
X0150250Y0103845D01*
X0150897Y0105407D01*
X0152093Y0106603D01*
X0153655Y0107250D01*
X0155345Y0107250D01*
X0156907Y0106603D01*
X0157400Y0106110D01*
X0157400Y0109890D01*
X0156907Y0109397D01*
X0155345Y0108750D01*
X0153655Y0108750D01*
X0152093Y0109397D01*
X0150897Y0110593D01*
X0150250Y0112155D01*
X0150250Y0113845D01*
X0148750Y0113845D01*
X0148103Y0115407D01*
X0146907Y0116603D01*
X0145345Y0117250D01*
X0143655Y0117250D01*
X0142093Y0116603D01*
X0140897Y0115407D01*
X0140862Y0115323D01*
X0140862Y0115470D01*
X0140101Y0116231D01*
X0130614Y0116231D01*
X0129477Y0117369D01*
X0131213Y0117368D01*
X0131213Y0120156D01*
X0131787Y0120156D01*
X0131787Y0117369D01*
X0134060Y0117369D01*
X0134350Y0117446D01*
X0134640Y0117369D01*
X0136913Y0117368D01*
X0136913Y0120156D01*
X0137487Y0120156D01*
X0137487Y0117369D01*
X0139760Y0117369D01*
X0140141Y0117471D01*
X0140483Y0117668D01*
X0140762Y0117947D01*
X0140960Y0118290D01*
X0141051Y0118631D01*
X0141353Y0118550D01*
X0144025Y0118550D01*
X0144025Y0122525D01*
X0140979Y0122525D01*
X0140960Y0122597D01*
X0140762Y0122939D01*
X0140483Y0123218D01*
X0140141Y0123416D01*
X0139760Y0123518D01*
X0137487Y0123518D01*
X0137487Y0120731D01*
X0136913Y0120731D01*
X0136913Y0123518D01*
X0134640Y0123518D01*
X0134350Y0123440D01*
X0134060Y0123518D01*
X0131787Y0123518D01*
X0131787Y0120731D01*
X0131213Y0120731D01*
X0131213Y0123518D01*
X0128940Y0123518D01*
X0128559Y0123416D01*
X0128217Y0123218D01*
X0127937Y0122939D01*
X0127740Y0122597D01*
X0127638Y0122216D01*
X0127638Y0120731D01*
X0131213Y0120731D01*
X0131213Y0120156D01*
X0127638Y0120156D01*
X0127638Y0119208D01*
X0125546Y0121300D01*
X0124054Y0121300D01*
X0123877Y0121300D01*
X0123473Y0121704D01*
X0122517Y0122100D01*
X0121918Y0122100D01*
X0121918Y0126200D01*
X0140064Y0126200D01*
X0140050Y0126147D01*
X0140050Y0123475D01*
X0144025Y0123475D01*
X0144025Y0122525D01*
X0144975Y0122525D01*
X0144975Y0123475D01*
X0148950Y0123475D01*
X0148950Y0126004D01*
X0150502Y0124453D01*
X0150250Y0123845D01*
X0150250Y0122155D01*
X0150897Y0120593D01*
X0152093Y0119397D01*
X0153655Y0118750D01*
X0155345Y0118750D01*
X0156907Y0119397D01*
X0157400Y0119890D01*
X0157400Y0116110D01*
X0156907Y0116603D01*
X0155345Y0117250D01*
X0153655Y0117250D01*
X0152093Y0116603D01*
X0150897Y0115407D01*
X0150250Y0113845D01*
X0150250Y0112847D02*
X0148750Y0112847D01*
X0148750Y0112155D02*
X0148750Y0113845D01*
X0148336Y0114844D02*
X0150664Y0114844D01*
X0151332Y0115842D02*
X0147668Y0115842D01*
X0146333Y0116841D02*
X0152667Y0116841D01*
X0153443Y0118838D02*
X0148350Y0118838D01*
X0148371Y0118850D02*
X0148650Y0119129D01*
X0148848Y0119471D01*
X0148950Y0119853D01*
X0148950Y0122525D01*
X0144975Y0122525D01*
X0144975Y0118550D01*
X0147647Y0118550D01*
X0148029Y0118652D01*
X0148371Y0118850D01*
X0148946Y0119836D02*
X0151653Y0119836D01*
X0150797Y0120835D02*
X0148950Y0120835D01*
X0148950Y0121833D02*
X0150383Y0121833D01*
X0150250Y0122832D02*
X0144975Y0122832D01*
X0144025Y0122832D02*
X0140824Y0122832D01*
X0140050Y0123830D02*
X0121918Y0123830D01*
X0121918Y0122832D02*
X0127876Y0122832D01*
X0127638Y0121833D02*
X0123161Y0121833D01*
X0122000Y0119500D02*
X0124800Y0119500D01*
X0131700Y0112600D01*
X0133500Y0112500D01*
X0133500Y0112000D01*
X0134453Y0109700D02*
X0134547Y0109700D01*
X0140295Y0103953D01*
X0140250Y0103845D01*
X0140250Y0102155D01*
X0140502Y0101547D01*
X0139211Y0100257D01*
X0131162Y0100257D01*
X0131162Y0100570D01*
X0130401Y0101331D01*
X0124599Y0101331D01*
X0124500Y0101232D01*
X0124401Y0101331D01*
X0122845Y0101331D01*
X0122473Y0101704D01*
X0121517Y0102100D01*
X0120483Y0102100D01*
X0119527Y0101704D01*
X0119155Y0101331D01*
X0118599Y0101331D01*
X0118321Y0101054D01*
X0118339Y0102698D01*
X0118559Y0102571D01*
X0118940Y0102469D01*
X0121213Y0102468D01*
X0121213Y0105256D01*
X0121787Y0105256D01*
X0121787Y0102469D01*
X0124060Y0102469D01*
X0124441Y0102571D01*
X0124500Y0102605D01*
X0124559Y0102571D01*
X0124940Y0102469D01*
X0127213Y0102468D01*
X0127213Y0105256D01*
X0127787Y0105256D01*
X0127787Y0102469D01*
X0130060Y0102469D01*
X0130441Y0102571D01*
X0130783Y0102768D01*
X0131062Y0103047D01*
X0131260Y0103390D01*
X0131362Y0103771D01*
X0131362Y0105256D01*
X0127787Y0105256D01*
X0127787Y0105831D01*
X0131362Y0105831D01*
X0131362Y0107000D01*
X0131753Y0107000D01*
X0134453Y0109700D01*
X0133605Y0108853D02*
X0135395Y0108853D01*
X0136393Y0107854D02*
X0132607Y0107854D01*
X0131362Y0106856D02*
X0137392Y0106856D01*
X0138390Y0105857D02*
X0131362Y0105857D01*
X0131362Y0104859D02*
X0139389Y0104859D01*
X0140256Y0103860D02*
X0131362Y0103860D01*
X0130877Y0102862D02*
X0140250Y0102862D01*
X0140371Y0101863D02*
X0122089Y0101863D01*
X0121787Y0102862D02*
X0121213Y0102862D01*
X0121213Y0103860D02*
X0121787Y0103860D01*
X0121787Y0104859D02*
X0121213Y0104859D01*
X0121787Y0105256D02*
X0121787Y0105831D01*
X0127213Y0105831D01*
X0127213Y0105256D01*
X0123638Y0105256D01*
X0121787Y0105256D01*
X0119911Y0101863D02*
X0118330Y0101863D01*
X0116500Y0099000D02*
X0109957Y0092457D01*
X0109957Y0084500D01*
X0112831Y0084888D02*
X0113969Y0084888D01*
X0113968Y0084787D02*
X0116756Y0084787D01*
X0116756Y0084213D01*
X0113969Y0084213D01*
X0113969Y0081940D01*
X0114071Y0081559D01*
X0114105Y0081500D01*
X0114071Y0081441D01*
X0113969Y0081060D01*
X0113968Y0078787D01*
X0116756Y0078787D01*
X0116756Y0078213D01*
X0113969Y0078213D01*
X0113969Y0076500D01*
X0113553Y0076500D01*
X0113171Y0076398D01*
X0112831Y0076202D01*
X0112831Y0081401D01*
X0112732Y0081500D01*
X0112831Y0081599D01*
X0112831Y0087401D01*
X0112070Y0088162D01*
X0111757Y0088162D01*
X0111757Y0091711D01*
X0117766Y0097721D01*
X0117838Y0097791D01*
X0117838Y0096343D01*
X0118599Y0095582D01*
X0124401Y0095582D01*
X0124500Y0095681D01*
X0124599Y0095582D01*
X0130401Y0095582D01*
X0131162Y0096343D01*
X0131162Y0096657D01*
X0140702Y0096657D01*
X0141582Y0097536D01*
X0141582Y0092599D01*
X0142343Y0091838D01*
X0146570Y0091838D01*
X0147331Y0092599D01*
X0147331Y0098401D01*
X0146957Y0098775D01*
X0146957Y0099446D01*
X0148103Y0100593D01*
X0148750Y0102155D01*
X0148750Y0103845D01*
X0148103Y0105407D01*
X0146907Y0106603D01*
X0145345Y0107250D01*
X0143655Y0107250D01*
X0143547Y0107205D01*
X0140186Y0110567D01*
X0140696Y0111077D01*
X0140897Y0110593D01*
X0142093Y0109397D01*
X0143655Y0108750D01*
X0145345Y0108750D01*
X0146907Y0109397D01*
X0148103Y0110593D01*
X0148750Y0112155D01*
X0148623Y0111848D02*
X0150377Y0111848D01*
X0150791Y0110850D02*
X0148209Y0110850D01*
X0147362Y0109851D02*
X0151638Y0109851D01*
X0153407Y0108853D02*
X0145593Y0108853D01*
X0146298Y0106856D02*
X0152702Y0106856D01*
X0151347Y0105857D02*
X0147653Y0105857D01*
X0148330Y0104859D02*
X0150670Y0104859D01*
X0150256Y0103860D02*
X0148744Y0103860D01*
X0148750Y0102862D02*
X0150250Y0102862D01*
X0150371Y0101863D02*
X0148629Y0101863D01*
X0148216Y0100865D02*
X0150784Y0100865D01*
X0151624Y0099866D02*
X0147376Y0099866D01*
X0146957Y0098868D02*
X0148852Y0098868D01*
X0148469Y0097869D02*
X0147331Y0097869D01*
X0147331Y0096870D02*
X0148469Y0096870D01*
X0148469Y0095872D02*
X0147331Y0095872D01*
X0147331Y0094873D02*
X0148469Y0094873D01*
X0148469Y0093875D02*
X0147331Y0093875D01*
X0147331Y0092876D02*
X0148486Y0092876D01*
X0149151Y0091878D02*
X0146610Y0091878D01*
X0147890Y0088260D02*
X0147547Y0088062D01*
X0147268Y0087783D01*
X0147071Y0087441D01*
X0146969Y0087060D01*
X0146968Y0084787D01*
X0149756Y0084787D01*
X0149756Y0084213D01*
X0146969Y0084213D01*
X0146969Y0081940D01*
X0147071Y0081559D01*
X0147105Y0081500D01*
X0147071Y0081441D01*
X0146969Y0081060D01*
X0146968Y0078787D01*
X0149756Y0078787D01*
X0149756Y0078213D01*
X0146969Y0078213D01*
X0146969Y0076500D01*
X0146553Y0076500D01*
X0146171Y0076398D01*
X0145831Y0076202D01*
X0145831Y0081401D01*
X0145732Y0081500D01*
X0145831Y0081599D01*
X0145831Y0087401D01*
X0145070Y0088162D01*
X0140843Y0088162D01*
X0140500Y0087819D01*
X0140157Y0088162D01*
X0135930Y0088162D01*
X0135169Y0087401D01*
X0135169Y0081599D01*
X0135268Y0081500D01*
X0135169Y0081401D01*
X0135169Y0079665D01*
X0134900Y0079017D01*
X0134900Y0077983D01*
X0135169Y0077335D01*
X0135169Y0075599D01*
X0135450Y0075318D01*
X0135450Y0069462D01*
X0136212Y0068700D01*
X0139788Y0068700D01*
X0140500Y0069412D01*
X0141212Y0068700D01*
X0144788Y0068700D01*
X0145410Y0069321D01*
X0145550Y0069079D01*
X0145829Y0068800D01*
X0146171Y0068602D01*
X0146553Y0068500D01*
X0147875Y0068500D01*
X0147875Y0072375D01*
X0148125Y0072375D01*
X0148125Y0072625D01*
X0152875Y0072625D01*
X0152875Y0075315D01*
X0153016Y0075559D01*
X0153118Y0075940D01*
X0153118Y0078213D01*
X0150331Y0078213D01*
X0150331Y0078787D01*
X0153118Y0078787D01*
X0153118Y0081060D01*
X0153016Y0081441D01*
X0152982Y0081500D01*
X0153016Y0081559D01*
X0153118Y0081940D01*
X0153118Y0084213D01*
X0150331Y0084213D01*
X0150331Y0084787D01*
X0153118Y0084787D01*
X0153118Y0087060D01*
X0153016Y0087441D01*
X0152818Y0087783D01*
X0152539Y0088062D01*
X0152197Y0088260D01*
X0151816Y0088362D01*
X0150331Y0088362D01*
X0150331Y0084787D01*
X0149756Y0084787D01*
X0149756Y0088362D01*
X0148271Y0088362D01*
X0147890Y0088260D01*
X0147369Y0087884D02*
X0145348Y0087884D01*
X0145831Y0086885D02*
X0146969Y0086885D01*
X0146969Y0085887D02*
X0145831Y0085887D01*
X0145831Y0084888D02*
X0146969Y0084888D01*
X0146969Y0083890D02*
X0145831Y0083890D01*
X0145831Y0082891D02*
X0146969Y0082891D01*
X0146981Y0081893D02*
X0145831Y0081893D01*
X0145831Y0080894D02*
X0146969Y0080894D01*
X0146969Y0079896D02*
X0145831Y0079896D01*
X0145831Y0078897D02*
X0146969Y0078897D01*
X0146969Y0077899D02*
X0145831Y0077899D01*
X0145831Y0076900D02*
X0146969Y0076900D01*
X0149756Y0078787D02*
X0149756Y0084213D01*
X0150331Y0084213D01*
X0150331Y0080638D01*
X0150331Y0078787D01*
X0149756Y0078787D01*
X0149756Y0078897D02*
X0150331Y0078897D01*
X0150331Y0079896D02*
X0149756Y0079896D01*
X0149756Y0080894D02*
X0150331Y0080894D01*
X0150331Y0081893D02*
X0149756Y0081893D01*
X0149756Y0082891D02*
X0150331Y0082891D01*
X0150331Y0083890D02*
X0149756Y0083890D01*
X0149756Y0084888D02*
X0150331Y0084888D01*
X0150331Y0085887D02*
X0149756Y0085887D01*
X0149756Y0086885D02*
X0150331Y0086885D01*
X0150331Y0087884D02*
X0149756Y0087884D01*
X0152718Y0087884D02*
X0157400Y0087884D01*
X0157400Y0088882D02*
X0131428Y0088882D01*
X0131244Y0088362D02*
X0131244Y0084787D01*
X0134031Y0084787D01*
X0134031Y0087060D01*
X0133929Y0087441D01*
X0133732Y0087783D01*
X0133453Y0088062D01*
X0133110Y0088260D01*
X0132729Y0088362D01*
X0131244Y0088362D01*
X0131244Y0087884D02*
X0130669Y0087884D01*
X0130669Y0088124D02*
X0133446Y0090900D01*
X0134017Y0090900D01*
X0134973Y0091296D01*
X0135704Y0092027D01*
X0136100Y0092983D01*
X0136100Y0094017D01*
X0135704Y0094973D01*
X0134973Y0095704D01*
X0134017Y0096100D01*
X0132983Y0096100D01*
X0132027Y0095704D01*
X0131296Y0094973D01*
X0130900Y0094017D01*
X0130900Y0093446D01*
X0122700Y0085246D01*
X0122700Y0075384D01*
X0122648Y0075579D01*
X0122450Y0075921D01*
X0122171Y0076200D01*
X0121829Y0076398D01*
X0121447Y0076500D01*
X0120125Y0076500D01*
X0120125Y0072625D01*
X0119875Y0072625D01*
X0119875Y0075315D01*
X0120016Y0075559D01*
X0120118Y0075940D01*
X0120118Y0078213D01*
X0117331Y0078213D01*
X0117331Y0078787D01*
X0120118Y0078787D01*
X0120118Y0081060D01*
X0120016Y0081441D01*
X0119982Y0081500D01*
X0120016Y0081559D01*
X0120118Y0081940D01*
X0120118Y0084213D01*
X0117331Y0084213D01*
X0117331Y0084787D01*
X0120118Y0084787D01*
X0120118Y0087060D01*
X0120016Y0087441D01*
X0119818Y0087783D01*
X0119539Y0088062D01*
X0119197Y0088260D01*
X0118816Y0088362D01*
X0117331Y0088362D01*
X0117331Y0084787D01*
X0116756Y0084787D01*
X0116756Y0088362D01*
X0115271Y0088362D01*
X0114890Y0088260D01*
X0114547Y0088062D01*
X0114268Y0087783D01*
X0114071Y0087441D01*
X0113969Y0087060D01*
X0113968Y0084787D01*
X0113969Y0083890D02*
X0112831Y0083890D01*
X0112831Y0082891D02*
X0113969Y0082891D01*
X0113981Y0081893D02*
X0112831Y0081893D01*
X0112831Y0080894D02*
X0113969Y0080894D01*
X0113969Y0079896D02*
X0112831Y0079896D01*
X0112831Y0078897D02*
X0113969Y0078897D01*
X0113969Y0077899D02*
X0112831Y0077899D01*
X0112831Y0076900D02*
X0113969Y0076900D01*
X0116756Y0078787D02*
X0116756Y0084213D01*
X0117331Y0084213D01*
X0117331Y0080638D01*
X0117331Y0078787D01*
X0116756Y0078787D01*
X0116756Y0078897D02*
X0117331Y0078897D01*
X0117331Y0079896D02*
X0116756Y0079896D01*
X0116756Y0080894D02*
X0117331Y0080894D01*
X0117331Y0081893D02*
X0116756Y0081893D01*
X0116756Y0082891D02*
X0117331Y0082891D01*
X0117331Y0083890D02*
X0116756Y0083890D01*
X0116756Y0084888D02*
X0117331Y0084888D01*
X0117331Y0085887D02*
X0116756Y0085887D01*
X0116756Y0086885D02*
X0117331Y0086885D01*
X0117331Y0087884D02*
X0116756Y0087884D01*
X0114369Y0087884D02*
X0112348Y0087884D01*
X0112831Y0086885D02*
X0113969Y0086885D01*
X0113969Y0085887D02*
X0112831Y0085887D01*
X0111757Y0088882D02*
X0126337Y0088882D01*
X0125338Y0087884D02*
X0119718Y0087884D01*
X0120118Y0086885D02*
X0124340Y0086885D01*
X0123341Y0085887D02*
X0120118Y0085887D01*
X0120118Y0084888D02*
X0122700Y0084888D01*
X0122700Y0083890D02*
X0120118Y0083890D01*
X0120118Y0082891D02*
X0122700Y0082891D01*
X0122700Y0081893D02*
X0120105Y0081893D01*
X0120118Y0080894D02*
X0122700Y0080894D01*
X0122700Y0079896D02*
X0120118Y0079896D01*
X0120118Y0078897D02*
X0122700Y0078897D01*
X0122700Y0077899D02*
X0120118Y0077899D01*
X0120118Y0076900D02*
X0122700Y0076900D01*
X0122700Y0075902D02*
X0122461Y0075902D01*
X0120125Y0075902D02*
X0120108Y0075902D01*
X0120125Y0074903D02*
X0119875Y0074903D01*
X0119875Y0073905D02*
X0120125Y0073905D01*
X0120125Y0072906D02*
X0119875Y0072906D01*
X0119875Y0072625D02*
X0119875Y0072375D01*
X0117250Y0072375D01*
X0115125Y0072375D01*
X0115125Y0072625D01*
X0119875Y0072625D01*
X0121500Y0068000D02*
X0124500Y0071000D01*
X0124500Y0084500D01*
X0133500Y0093500D01*
X0132432Y0095872D02*
X0130691Y0095872D01*
X0131255Y0094873D02*
X0114919Y0094873D01*
X0113921Y0093875D02*
X0130900Y0093875D01*
X0130331Y0092876D02*
X0112922Y0092876D01*
X0111923Y0091878D02*
X0129332Y0091878D01*
X0128334Y0090879D02*
X0111757Y0090879D01*
X0111757Y0089881D02*
X0127335Y0089881D01*
X0130669Y0088124D02*
X0130669Y0084787D01*
X0130669Y0084213D01*
X0127882Y0084213D01*
X0127882Y0081940D01*
X0127984Y0081559D01*
X0128018Y0081500D01*
X0127984Y0081441D01*
X0127882Y0081060D01*
X0127882Y0078787D01*
X0130669Y0078787D01*
X0130669Y0078213D01*
X0127882Y0078213D01*
X0127882Y0075940D01*
X0127984Y0075559D01*
X0128182Y0075217D01*
X0128461Y0074938D01*
X0128803Y0074740D01*
X0129184Y0074638D01*
X0130669Y0074638D01*
X0130669Y0078213D01*
X0131244Y0078213D01*
X0131244Y0078787D01*
X0134031Y0078787D01*
X0134031Y0081060D01*
X0133929Y0081441D01*
X0133895Y0081500D01*
X0133929Y0081559D01*
X0134031Y0081940D01*
X0134031Y0084213D01*
X0131244Y0084213D01*
X0131244Y0084787D01*
X0130669Y0084787D01*
X0127882Y0084787D01*
X0127882Y0085336D01*
X0126300Y0083754D01*
X0126300Y0070254D01*
X0125246Y0069200D01*
X0122246Y0066200D01*
X0120500Y0066200D01*
X0120500Y0061750D01*
X0109500Y0061750D01*
X0109500Y0060750D01*
X0120500Y0060750D01*
X0120500Y0056053D01*
X0120398Y0055671D01*
X0120200Y0055329D01*
X0119921Y0055050D01*
X0119579Y0054852D01*
X0119197Y0054750D01*
X0109500Y0054750D01*
X0109500Y0060750D01*
X0108500Y0060750D01*
X0098962Y0060750D01*
X0098962Y0061750D01*
X0108500Y0061750D01*
X0108500Y0060750D01*
X0108500Y0054750D01*
X0103786Y0054750D01*
X0103963Y0054573D01*
X0104736Y0053800D01*
X0106788Y0053800D01*
X0107500Y0053088D01*
X0107733Y0053322D01*
X0107796Y0053473D01*
X0108527Y0054204D01*
X0109483Y0054600D01*
X0110517Y0054600D01*
X0111473Y0054204D01*
X0112204Y0053473D01*
X0112267Y0053322D01*
X0112500Y0053088D01*
X0113212Y0053800D01*
X0116788Y0053800D01*
X0117500Y0053088D01*
X0118212Y0053800D01*
X0118759Y0053800D01*
X0119483Y0054100D01*
X0120517Y0054100D01*
X0121241Y0053800D01*
X0121788Y0053800D01*
X0122550Y0053038D01*
X0122550Y0052138D01*
X0122600Y0052017D01*
X0122600Y0050983D01*
X0122550Y0050862D01*
X0122550Y0046962D01*
X0121788Y0046200D01*
X0120961Y0046200D01*
X0120961Y0038418D01*
X0120312Y0037769D01*
X0120312Y0037062D01*
X0123221Y0034153D01*
X0125221Y0032153D01*
X0125800Y0030756D01*
X0125800Y0027949D01*
X0126268Y0026818D01*
X0126268Y0019182D01*
X0125619Y0017614D01*
X0124418Y0016413D01*
X0122849Y0015763D01*
X0121151Y0015763D01*
X0119582Y0016413D01*
X0118381Y0017614D01*
X0117731Y0019182D01*
X0117731Y0026818D01*
X0118200Y0027949D01*
X0118200Y0028426D01*
X0117888Y0028738D01*
X0115330Y0028738D01*
X0114569Y0029499D01*
X0114569Y0032057D01*
X0114359Y0032267D01*
X0113290Y0033336D01*
X0113231Y0033478D01*
X0113231Y0033061D01*
X0113416Y0032876D01*
X0114119Y0032173D01*
X0114500Y0031254D01*
X0114500Y0029505D01*
X0115619Y0028386D01*
X0116268Y0026818D01*
X0116268Y0019182D01*
X0115619Y0017614D01*
X0114418Y0016413D01*
X0112849Y0015763D01*
X0111151Y0015763D01*
X0109582Y0016413D01*
X0108381Y0017614D01*
X0107731Y0019182D01*
X0107731Y0026818D01*
X0108381Y0028386D01*
X0108733Y0028738D01*
X0108243Y0028738D01*
X0107482Y0029499D01*
X0107482Y0035301D01*
X0108243Y0036062D01*
X0112470Y0036062D01*
X0112712Y0035820D01*
X0112712Y0037769D01*
X0112062Y0038418D01*
X0112062Y0045035D01*
X0112033Y0044974D01*
X0111716Y0044692D01*
X0111416Y0044392D01*
X0111346Y0044363D01*
X0109938Y0043111D01*
X0109938Y0038418D01*
X0109176Y0037657D01*
X0101800Y0037657D01*
X0101138Y0038319D01*
X0100901Y0038082D01*
X0098392Y0038082D01*
X0104153Y0032321D01*
X0105221Y0031253D01*
X0105800Y0029856D01*
X0105800Y0027949D01*
X0106268Y0026818D01*
X0106268Y0019182D01*
X0105619Y0017614D01*
X0104418Y0016413D01*
X0102849Y0015763D01*
X0101151Y0015763D01*
X0099582Y0016413D01*
X0098381Y0017614D01*
X0097731Y0019182D01*
X0097731Y0026818D01*
X0098076Y0027650D01*
X0093736Y0031990D01*
X0093370Y0031979D01*
X0093315Y0032000D01*
X0093255Y0032000D01*
X0093160Y0032039D01*
X0094113Y0031127D01*
X0094153Y0031110D01*
X0094658Y0030605D01*
X0095174Y0030111D01*
X0095191Y0030072D01*
X0095221Y0030042D01*
X0095495Y0029382D01*
X0095783Y0028727D01*
X0095784Y0028684D01*
X0095800Y0028645D01*
X0095800Y0027949D01*
X0096268Y0026818D01*
X0096268Y0019182D01*
X0095619Y0017614D01*
X0094418Y0016413D01*
X0092849Y0015763D01*
X0091151Y0015763D01*
X0089582Y0016413D01*
X0088381Y0017614D01*
X0087731Y0019182D01*
X0087731Y0026715D01*
X0085707Y0028654D01*
X0085715Y0028153D01*
X0086268Y0026818D01*
X0086268Y0019182D01*
X0085619Y0017614D01*
X0084418Y0016413D01*
X0082849Y0015763D01*
X0081151Y0015763D01*
X0079582Y0016413D01*
X0078381Y0017614D01*
X0077731Y0019182D01*
X0077731Y0026818D01*
X0078030Y0027539D01*
X0077391Y0028179D01*
X0076322Y0029247D01*
X0075743Y0030644D01*
X0075743Y0032960D01*
X0075331Y0033364D01*
X0075331Y0029599D01*
X0074957Y0029225D01*
X0074957Y0029048D01*
X0075619Y0028386D01*
X0076268Y0026818D01*
X0076268Y0019182D01*
X0075619Y0017614D01*
X0074418Y0016413D01*
X0072849Y0015763D01*
X0071151Y0015763D01*
X0069582Y0016413D01*
X0068518Y0017477D01*
X0068518Y0013599D01*
X0067757Y0012838D01*
X0063530Y0012838D01*
X0062769Y0013599D01*
X0062769Y0019401D01*
X0062906Y0019539D01*
X0061473Y0019539D01*
X0061529Y0019441D01*
X0061631Y0019060D01*
X0061631Y0016787D01*
X0058844Y0016787D01*
X0058844Y0016213D01*
X0061631Y0016213D01*
X0061631Y0013940D01*
X0061529Y0013559D01*
X0061332Y0013217D01*
X0061053Y0012937D01*
X0060710Y0012740D01*
X0060329Y0012638D01*
X0058844Y0012638D01*
X0058844Y0016213D01*
X0058269Y0016213D01*
X0058269Y0012638D01*
X0056784Y0012638D01*
X0056403Y0012740D01*
X0056061Y0012937D01*
X0055959Y0013040D01*
X0055757Y0012838D01*
X0051530Y0012838D01*
X0050769Y0013599D01*
X0050769Y0016397D01*
X0050671Y0016300D01*
X0050329Y0016102D01*
X0049947Y0016000D01*
X0049631Y0016000D01*
X0049631Y0013940D01*
X0049529Y0013559D01*
X0049332Y0013217D01*
X0049053Y0012937D01*
X0048710Y0012740D01*
X0048329Y0012638D01*
X0046844Y0012638D01*
X0046844Y0016000D01*
X0046269Y0016000D01*
X0046269Y0012638D01*
X0044784Y0012638D01*
X0044403Y0012740D01*
X0044061Y0012937D01*
X0043782Y0013217D01*
X0043584Y0013559D01*
X0043482Y0013940D01*
X0043482Y0016000D01*
X0039553Y0016000D01*
X0039171Y0016102D01*
X0038829Y0016300D01*
X0038550Y0016579D01*
X0038352Y0016921D01*
X0038250Y0017303D01*
X0038250Y0027000D01*
X0044250Y0027000D01*
X0044250Y0020172D01*
X0044403Y0020260D01*
X0044784Y0020362D01*
X0045250Y0020362D01*
X0045250Y0027000D01*
X0045250Y0028000D01*
X0044250Y0028000D01*
X0044250Y0039000D01*
X0039553Y0039000D01*
X0039171Y0038898D01*
X0038829Y0038700D01*
X0038550Y0038421D01*
X0038352Y0038079D01*
X0038250Y0037697D01*
X0038250Y0028000D01*
X0044250Y0028000D01*
X0044250Y0027000D01*
X0045250Y0027000D01*
X0051250Y0027000D01*
X0051250Y0021898D01*
X0051524Y0022559D01*
X0052200Y0023236D01*
X0052200Y0025288D01*
X0052912Y0026000D01*
X0052678Y0026233D01*
X0052527Y0026296D01*
X0051796Y0027027D01*
X0051400Y0027983D01*
X0051400Y0029017D01*
X0051796Y0029973D01*
X0052527Y0030704D01*
X0052678Y0030767D01*
X0052912Y0031000D01*
X0052200Y0031712D01*
X0052200Y0035288D01*
X0052912Y0036000D01*
X0052200Y0036712D01*
X0052200Y0036823D01*
X0051996Y0037027D01*
X0051600Y0037983D01*
X0051600Y0039017D01*
X0051996Y0039973D01*
X0052200Y0040177D01*
X0052200Y0040288D01*
X0052962Y0041050D01*
X0053562Y0041050D01*
X0053683Y0041100D01*
X0054717Y0041100D01*
X0054838Y0041050D01*
X0059038Y0041050D01*
X0059800Y0040288D01*
X0059800Y0039461D01*
X0062576Y0039461D01*
X0064814Y0041700D01*
X0032846Y0041700D01*
X0032396Y0041250D01*
X0033375Y0041250D01*
X0033375Y0038625D01*
X0033625Y0038625D01*
X0033625Y0041250D01*
X0036197Y0041250D01*
X0036579Y0041148D01*
X0036921Y0040950D01*
X0037200Y0040671D01*
X0037398Y0040329D01*
X0037500Y0039947D01*
X0037500Y0038625D01*
X0033625Y0038625D01*
X0033625Y0038375D01*
X0037500Y0038375D01*
X0037500Y0037053D01*
X0037398Y0036671D01*
X0037200Y0036329D01*
X0036921Y0036050D01*
X0036835Y0036000D01*
X0036921Y0035950D01*
X0037200Y0035671D01*
X0037398Y0035329D01*
X0037500Y0034947D01*
X0037500Y0033625D01*
X0033625Y0033625D01*
X0033375Y0033625D01*
X0033375Y0038375D01*
X0033625Y0038375D01*
X0033625Y0036250D01*
X0033625Y0033625D01*
X0033625Y0033375D01*
X0037500Y0033375D01*
X0037500Y0032053D01*
X0037398Y0031671D01*
X0037200Y0031329D01*
X0036921Y0031050D01*
X0036679Y0030910D01*
X0037300Y0030288D01*
X0037300Y0026712D01*
X0036588Y0026000D01*
X0037300Y0025288D01*
X0037300Y0021712D01*
X0036538Y0020950D01*
X0030682Y0020950D01*
X0030401Y0020669D01*
X0028665Y0020669D01*
X0028017Y0020400D01*
X0026983Y0020400D01*
X0026335Y0020669D01*
X0024599Y0020669D01*
X0024500Y0020768D01*
X0024401Y0020669D01*
X0018599Y0020669D01*
X0017838Y0021430D01*
X0017838Y0025657D01*
X0018181Y0026000D01*
X0017838Y0026343D01*
X0017838Y0027117D01*
X0016754Y0028200D01*
X0015700Y0029254D01*
X0015700Y0039546D01*
X0016754Y0040600D01*
X0017354Y0041200D01*
X0027254Y0041200D01*
X0031354Y0045300D01*
X0066900Y0045300D01*
X0066900Y0045517D01*
X0067033Y0045838D01*
X0063930Y0045838D01*
X0063169Y0046599D01*
X0063169Y0052401D01*
X0063306Y0052539D01*
X0061873Y0052539D01*
X0061929Y0052441D01*
X0062031Y0052060D01*
X0062031Y0049787D01*
X0059244Y0049787D01*
X0059244Y0049213D01*
X0062031Y0049213D01*
X0062031Y0046940D01*
X0061929Y0046559D01*
X0061732Y0046217D01*
X0061453Y0045937D01*
X0061110Y0045740D01*
X0060729Y0045638D01*
X0059244Y0045638D01*
X0059244Y0049213D01*
X0058669Y0049213D01*
X0058669Y0045638D01*
X0057184Y0045638D01*
X0056803Y0045740D01*
X0056634Y0045838D01*
X0052430Y0045838D01*
X0051669Y0046599D01*
X0051669Y0052401D01*
X0052043Y0052775D01*
X0052043Y0055541D01*
X0052200Y0055919D01*
X0052200Y0058288D01*
X0052912Y0059000D01*
X0052678Y0059233D01*
X0052527Y0059296D01*
X0051796Y0060027D01*
X0051400Y0060983D01*
X0051400Y0062017D01*
X0051796Y0062973D01*
X0052527Y0063704D01*
X0052678Y0063767D01*
X0052912Y0064000D01*
X0052200Y0064712D01*
X0052200Y0068288D01*
X0052912Y0069000D01*
X0052200Y0069712D01*
X0052200Y0070259D01*
X0051900Y0070983D01*
X0051900Y0072017D01*
X0052200Y0072741D01*
X0052200Y0073288D01*
X0052962Y0074050D01*
X0053862Y0074050D01*
X0053983Y0074100D01*
X0055017Y0074100D01*
X0055138Y0074050D01*
X0059038Y0074050D01*
X0059800Y0073288D01*
X0059800Y0072461D01*
X0067582Y0072461D01*
X0068343Y0071700D01*
X0068343Y0071564D01*
X0069141Y0071233D01*
X0070210Y0070164D01*
X0076721Y0063653D01*
X0077300Y0062256D01*
X0077300Y0059470D01*
X0094338Y0042339D01*
X0094338Y0043070D01*
X0095099Y0043831D01*
X0100901Y0043831D01*
X0101039Y0043694D01*
X0101039Y0045127D01*
X0100941Y0045071D01*
X0100560Y0044969D01*
X0098287Y0044969D01*
X0098287Y0047756D01*
X0097713Y0047756D01*
X0097713Y0044968D01*
X0095440Y0044969D01*
X0095059Y0045071D01*
X0094717Y0045268D01*
X0094437Y0045547D01*
X0094240Y0045890D01*
X0094138Y0046271D01*
X0094138Y0047756D01*
X0097713Y0047756D01*
X0097713Y0048331D01*
X0094138Y0048331D01*
X0094138Y0049816D01*
X0094240Y0050197D01*
X0094289Y0050282D01*
X0092199Y0050282D01*
X0091438Y0051043D01*
X0091438Y0055270D01*
X0092199Y0056031D01*
X0097506Y0056031D01*
X0097500Y0056053D01*
X0097500Y0057169D01*
X0095387Y0057169D01*
X0095387Y0059956D01*
X0094813Y0059956D01*
X0094813Y0057168D01*
X0092540Y0057169D01*
X0092159Y0057271D01*
X0091817Y0057468D01*
X0091537Y0057747D01*
X0091340Y0058090D01*
X0091238Y0058471D01*
X0091238Y0059108D01*
X0091204Y0059027D01*
X0090473Y0058296D01*
X0089517Y0057900D01*
X0088483Y0057900D01*
X0087527Y0058296D01*
X0086796Y0059027D01*
X0086400Y0059983D01*
X0086400Y0061017D01*
X0086796Y0061973D01*
X0087200Y0062377D01*
X0087200Y0064746D01*
X0092254Y0069800D01*
X0102450Y0069800D01*
X0102450Y0075318D01*
X0102169Y0075599D01*
X0102169Y0077835D01*
X0101900Y0078483D01*
X0101900Y0079517D01*
X0102095Y0079988D01*
X0102169Y0080642D01*
X0102169Y0081401D01*
X0102264Y0081497D01*
X0102265Y0081503D01*
X0102169Y0081599D01*
X0102169Y0087401D01*
X0102930Y0088162D01*
X0107157Y0088162D01*
X0107500Y0087819D01*
X0107843Y0088162D01*
X0108157Y0088162D01*
X0108157Y0093202D01*
X0109211Y0094257D01*
X0109211Y0094257D01*
X0114708Y0099753D01*
X0114781Y0106742D01*
X0114396Y0107127D01*
X0114000Y0108083D01*
X0114000Y0109117D01*
X0114241Y0109700D01*
X0113453Y0109700D01*
X0109108Y0105355D01*
X0109473Y0105204D01*
X0110204Y0104473D01*
X0110600Y0103517D01*
X0110600Y0102483D01*
X0110204Y0101527D01*
X0109473Y0100796D01*
X0108517Y0100400D01*
X0107946Y0100400D01*
X0107746Y0100200D01*
X0091754Y0100200D01*
X0091254Y0100700D01*
X0069646Y0100700D01*
X0068700Y0099754D01*
X0068700Y0099754D01*
X0067646Y0098700D01*
X0065799Y0098700D01*
X0066938Y0098042D01*
X0069042Y0095938D01*
X0070530Y0093362D01*
X0071300Y0090488D01*
X0071300Y0087512D01*
X0070530Y0084638D01*
X0069042Y0082062D01*
X0066938Y0079958D01*
X0064362Y0078470D01*
X0061488Y0077700D01*
X0058512Y0077700D01*
X0055638Y0078470D01*
X0053062Y0079958D01*
X0050958Y0082062D01*
X0049470Y0084638D01*
X0048700Y0087512D01*
X0048700Y0090488D01*
X0049470Y0093362D01*
X0049556Y0093510D01*
X0028746Y0072700D01*
X0021202Y0072700D01*
X0020120Y0071618D01*
X0021213Y0071618D01*
X0021213Y0068831D01*
X0021787Y0068831D01*
X0021787Y0071618D01*
X0024060Y0071618D01*
X0024441Y0071516D01*
X0024500Y0071482D01*
X0024559Y0071516D01*
X0024940Y0071618D01*
X0027213Y0071618D01*
X0027213Y0068831D01*
X0027787Y0068831D01*
X0027787Y0071618D01*
X0030060Y0071618D01*
X0030441Y0071516D01*
X0030685Y0071375D01*
X0033375Y0071375D01*
X0033625Y0071375D01*
X0033625Y0071625D01*
X0033375Y0071625D01*
X0033375Y0074250D01*
X0030803Y0074250D01*
X0030421Y0074148D01*
X0030079Y0073950D01*
X0029800Y0073671D01*
X0029602Y0073329D01*
X0029500Y0072947D01*
X0029500Y0071625D01*
X0033375Y0071625D01*
X0033375Y0071375D01*
X0033375Y0066625D01*
X0033625Y0066625D01*
X0033625Y0068750D01*
X0033625Y0071375D01*
X0037500Y0071375D01*
X0037500Y0070053D01*
X0037398Y0069671D01*
X0037200Y0069329D01*
X0036921Y0069050D01*
X0036835Y0069000D01*
X0036921Y0068950D01*
X0037200Y0068671D01*
X0037398Y0068329D01*
X0037500Y0067947D01*
X0037500Y0066625D01*
X0033625Y0066625D01*
X0033625Y0066375D01*
X0037500Y0066375D01*
X0037500Y0065053D01*
X0037398Y0064671D01*
X0037200Y0064329D01*
X0036921Y0064050D01*
X0036679Y0063910D01*
X0037300Y0063288D01*
X0037300Y0059712D01*
X0036588Y0059000D01*
X0037300Y0058288D01*
X0037300Y0054712D01*
X0036538Y0053950D01*
X0030682Y0053950D01*
X0030401Y0053669D01*
X0024599Y0053669D01*
X0024500Y0053768D01*
X0024401Y0053669D01*
X0018599Y0053669D01*
X0017838Y0054430D01*
X0017838Y0058657D01*
X0018181Y0059000D01*
X0017838Y0059343D01*
X0017838Y0060117D01*
X0016754Y0061200D01*
X0015700Y0062254D01*
X0015700Y0072289D01*
X0019711Y0076300D01*
X0027254Y0076300D01*
X0041704Y0090750D01*
X0041155Y0090750D01*
X0039593Y0091397D01*
X0038397Y0092593D01*
X0037750Y0094155D01*
X0037750Y0095845D01*
X0038397Y0097407D01*
X0039290Y0098300D01*
X0036154Y0098300D01*
X0035100Y0099354D01*
X0033818Y0100637D01*
X0030400Y0103200D01*
X0029843Y0103200D01*
X0029587Y0102582D01*
X0028386Y0101381D01*
X0026818Y0100731D01*
X0019182Y0100731D01*
X0017614Y0101381D01*
X0016413Y0102582D01*
X0015763Y0104151D01*
X0015763Y0105849D01*
X0016413Y0107418D01*
X0017614Y0108619D01*
X0019182Y0109268D01*
X0026818Y0109268D01*
X0028386Y0108619D01*
X0029587Y0107418D01*
X0029843Y0106800D01*
X0030872Y0106800D01*
X0031484Y0106887D01*
X0031600Y0106800D01*
X0031746Y0106800D01*
X0032182Y0106363D01*
X0035600Y0103800D01*
X0035746Y0103800D01*
X0036182Y0103363D01*
X0036676Y0102993D01*
X0036697Y0102849D01*
X0037646Y0101900D01*
X0039090Y0101900D01*
X0038397Y0102593D01*
X0037750Y0104155D01*
X0037750Y0105845D01*
X0038397Y0107407D01*
X0039190Y0108200D01*
X0035254Y0108200D01*
X0034200Y0109254D01*
X0030254Y0113200D01*
X0029843Y0113200D01*
X0029587Y0112582D01*
X0028386Y0111381D01*
X0026818Y0110731D01*
X0019182Y0110731D01*
X0017614Y0111381D01*
X0016413Y0112582D01*
X0015763Y0114151D01*
X0015763Y0115849D01*
X0016413Y0117418D01*
X0017614Y0118619D01*
X0019182Y0119268D01*
X0026818Y0119268D01*
X0028386Y0118619D01*
X0029587Y0117418D01*
X0029843Y0116800D01*
X0031746Y0116800D01*
X0036746Y0111800D01*
X0038907Y0111800D01*
X0038606Y0112101D01*
X0038194Y0112668D01*
X0037876Y0113292D01*
X0037660Y0113958D01*
X0037570Y0114525D01*
X0041525Y0114525D01*
X0041525Y0115475D01*
X0041525Y0119430D01*
X0040958Y0119340D01*
X0040292Y0119124D01*
X0039668Y0118806D01*
X0039101Y0118394D01*
X0038606Y0117899D01*
X0038194Y0117332D01*
X0037876Y0116708D01*
X0037660Y0116042D01*
X0037570Y0115475D01*
X0041525Y0115475D01*
X0042475Y0115475D01*
X0042475Y0119430D01*
X0043042Y0119340D01*
X0043708Y0119124D01*
X0044332Y0118806D01*
X0044899Y0118394D01*
X0045394Y0117899D01*
X0045806Y0117332D01*
X0046124Y0116708D01*
X0046340Y0116042D01*
X0046430Y0115475D01*
X0042475Y0115475D01*
X0042475Y0114525D01*
X0046430Y0114525D01*
X0046340Y0113958D01*
X0046124Y0113292D01*
X0045806Y0112668D01*
X0045394Y0112101D01*
X0044899Y0111606D01*
X0044633Y0111413D01*
X0048900Y0107146D01*
X0048900Y0107517D01*
X0049296Y0108473D01*
X0050027Y0109204D01*
X0050192Y0109272D01*
X0046881Y0112584D01*
X0046500Y0113503D01*
X0046500Y0116964D01*
X0042714Y0120750D01*
X0038512Y0120750D01*
X0037750Y0121512D01*
X0037750Y0128488D01*
X0037762Y0128500D01*
X0028753Y0128500D01*
X0028880Y0128408D01*
X0029377Y0127911D01*
X0029790Y0127342D01*
X0030110Y0126715D01*
X0030327Y0126046D01*
X0030416Y0125484D01*
X0023484Y0125484D01*
X0023484Y0124516D01*
X0023484Y0120531D01*
X0026320Y0120531D01*
X0027015Y0120642D01*
X0027684Y0120859D01*
X0028311Y0121178D01*
X0028880Y0121592D01*
X0029377Y0122089D01*
X0029790Y0122658D01*
X0030110Y0123285D01*
X0030327Y0123954D01*
X0030416Y0124516D01*
X0023484Y0124516D01*
X0022516Y0124516D01*
X0022516Y0120531D01*
X0019680Y0120531D01*
X0018985Y0120642D01*
X0018316Y0120859D01*
X0017689Y0121178D01*
X0017120Y0121592D01*
X0016623Y0122089D01*
X0016210Y0122658D01*
X0015890Y0123285D01*
X0015673Y0123954D01*
X0015584Y0124516D01*
X0022516Y0124516D01*
X0022516Y0125484D01*
X0015584Y0125484D01*
X0015673Y0126046D01*
X0015890Y0126715D01*
X0016210Y0127342D01*
X0016623Y0127911D01*
X0017120Y0128408D01*
X0017247Y0128500D01*
X0015000Y0128500D01*
X0015000Y0088139D01*
X0016460Y0089598D01*
X0018757Y0090550D01*
X0021243Y0090550D01*
X0023540Y0089598D01*
X0025298Y0087840D01*
X0026250Y0085543D01*
X0026250Y0083057D01*
X0025298Y0080760D01*
X0023540Y0079002D01*
X0021243Y0078050D01*
X0018757Y0078050D01*
X0016460Y0079002D01*
X0015000Y0080461D01*
X0015000Y0079896D02*
X0015565Y0079896D01*
X0015000Y0078897D02*
X0016711Y0078897D01*
X0015000Y0077899D02*
X0028853Y0077899D01*
X0029852Y0078897D02*
X0023289Y0078897D01*
X0024435Y0079896D02*
X0030850Y0079896D01*
X0031849Y0080894D02*
X0025354Y0080894D01*
X0025768Y0081893D02*
X0032847Y0081893D01*
X0033846Y0082891D02*
X0026181Y0082891D01*
X0026250Y0083890D02*
X0034844Y0083890D01*
X0035843Y0084888D02*
X0026250Y0084888D01*
X0026108Y0085887D02*
X0036841Y0085887D01*
X0037840Y0086885D02*
X0025694Y0086885D01*
X0025255Y0087884D02*
X0038838Y0087884D01*
X0039837Y0088882D02*
X0024256Y0088882D01*
X0022859Y0089881D02*
X0040835Y0089881D01*
X0040842Y0090879D02*
X0027175Y0090879D01*
X0026818Y0090731D02*
X0028386Y0091381D01*
X0029587Y0092582D01*
X0030237Y0094151D01*
X0030237Y0095849D01*
X0029587Y0097418D01*
X0028386Y0098619D01*
X0026818Y0099268D01*
X0019182Y0099268D01*
X0017614Y0098619D01*
X0016413Y0097418D01*
X0015763Y0095849D01*
X0015763Y0094151D01*
X0016413Y0092582D01*
X0017614Y0091381D01*
X0019182Y0090731D01*
X0026818Y0090731D01*
X0028883Y0091878D02*
X0039112Y0091878D01*
X0038279Y0092876D02*
X0029709Y0092876D01*
X0030123Y0093875D02*
X0037866Y0093875D01*
X0037750Y0094873D02*
X0030237Y0094873D01*
X0030228Y0095872D02*
X0037761Y0095872D01*
X0038175Y0096870D02*
X0029814Y0096870D01*
X0029136Y0097869D02*
X0038859Y0097869D01*
X0036900Y0100100D02*
X0045900Y0100100D01*
X0047800Y0102000D01*
X0054000Y0102000D01*
X0054500Y0102500D01*
X0066000Y0102500D01*
X0068500Y0105000D01*
X0088500Y0105000D01*
X0092500Y0109000D01*
X0095500Y0109000D01*
X0093500Y0112000D02*
X0108500Y0112000D01*
X0111000Y0114500D01*
X0123800Y0114500D01*
X0125800Y0112500D01*
X0130005Y0116841D02*
X0142667Y0116841D01*
X0141332Y0115842D02*
X0140490Y0115842D01*
X0140654Y0117839D02*
X0157400Y0117839D01*
X0157400Y0116841D02*
X0156333Y0116841D01*
X0155557Y0118838D02*
X0157400Y0118838D01*
X0157400Y0119836D02*
X0157347Y0119836D01*
X0154500Y0123000D02*
X0149500Y0128000D01*
X0104500Y0128000D01*
X0103500Y0127000D01*
X0103500Y0124000D01*
X0107500Y0120000D01*
X0109390Y0118213D02*
X0109704Y0118527D01*
X0109812Y0118787D01*
X0111669Y0118787D01*
X0111669Y0118213D01*
X0109390Y0118213D01*
X0108882Y0117758D02*
X0108882Y0115940D01*
X0108984Y0115559D01*
X0109178Y0115223D01*
X0107754Y0113800D01*
X0094246Y0113800D01*
X0093346Y0114700D01*
X0094246Y0114700D01*
X0095300Y0115754D01*
X0099300Y0119754D01*
X0099300Y0121400D01*
X0099517Y0121400D01*
X0100473Y0121796D01*
X0101204Y0122527D01*
X0101600Y0123483D01*
X0101600Y0124517D01*
X0101204Y0125473D01*
X0100473Y0126204D01*
X0099517Y0126600D01*
X0098483Y0126600D01*
X0097527Y0126204D01*
X0096796Y0125473D01*
X0096768Y0125406D01*
X0096298Y0126540D01*
X0094540Y0128298D01*
X0094054Y0128500D01*
X0102454Y0128500D01*
X0101700Y0127746D01*
X0101700Y0123254D01*
X0104900Y0120054D01*
X0104900Y0119483D01*
X0105296Y0118527D01*
X0106027Y0117796D01*
X0106983Y0117400D01*
X0108017Y0117400D01*
X0108882Y0117758D01*
X0108882Y0116841D02*
X0096386Y0116841D01*
X0095388Y0115842D02*
X0108908Y0115842D01*
X0108500Y0115000D02*
X0112000Y0118500D01*
X0111957Y0118500D02*
X0111957Y0124000D01*
X0112244Y0123830D02*
X0116169Y0123830D01*
X0116169Y0122832D02*
X0115031Y0122832D01*
X0115031Y0123713D02*
X0112244Y0123713D01*
X0112244Y0124287D01*
X0115031Y0124287D01*
X0115031Y0126200D01*
X0116169Y0126200D01*
X0116169Y0116300D01*
X0115031Y0116300D01*
X0115031Y0118213D01*
X0112244Y0118213D01*
X0112244Y0118787D01*
X0115031Y0118787D01*
X0115031Y0121060D01*
X0114980Y0121250D01*
X0115031Y0121440D01*
X0115031Y0123713D01*
X0115031Y0124829D02*
X0116169Y0124829D01*
X0116169Y0125827D02*
X0115031Y0125827D01*
X0112244Y0123713D02*
X0112244Y0118787D01*
X0111669Y0118787D01*
X0111669Y0122362D01*
X0111669Y0123713D01*
X0108882Y0123713D01*
X0108882Y0122242D01*
X0108017Y0122600D01*
X0107446Y0122600D01*
X0105300Y0124746D01*
X0105300Y0126200D01*
X0108882Y0126200D01*
X0108882Y0124287D01*
X0111669Y0124287D01*
X0111669Y0123713D01*
X0112244Y0123713D01*
X0111669Y0123830D02*
X0106215Y0123830D01*
X0105300Y0124829D02*
X0108882Y0124829D01*
X0108882Y0125827D02*
X0105300Y0125827D01*
X0107214Y0122832D02*
X0108882Y0122832D01*
X0111669Y0122832D02*
X0112244Y0122832D01*
X0112244Y0121833D02*
X0111669Y0121833D01*
X0111669Y0120835D02*
X0112244Y0120835D01*
X0112244Y0119836D02*
X0111669Y0119836D01*
X0111669Y0118838D02*
X0112244Y0118838D01*
X0112244Y0118213D02*
X0112244Y0116300D01*
X0111669Y0116300D01*
X0111669Y0118213D01*
X0112244Y0118213D01*
X0112244Y0117839D02*
X0111669Y0117839D01*
X0111669Y0116841D02*
X0112244Y0116841D01*
X0115031Y0116841D02*
X0116169Y0116841D01*
X0116169Y0117839D02*
X0115031Y0117839D01*
X0115031Y0118838D02*
X0116169Y0118838D01*
X0116169Y0119836D02*
X0115031Y0119836D01*
X0115031Y0120835D02*
X0116169Y0120835D01*
X0116169Y0121833D02*
X0115031Y0121833D01*
X0119043Y0124000D02*
X0119043Y0118500D01*
X0121918Y0124829D02*
X0140050Y0124829D01*
X0140050Y0125827D02*
X0121918Y0125827D01*
X0126011Y0120835D02*
X0127638Y0120835D01*
X0127638Y0119836D02*
X0127009Y0119836D01*
X0131213Y0119836D02*
X0131787Y0119836D01*
X0131787Y0120156D02*
X0131787Y0120731D01*
X0135362Y0120731D01*
X0136913Y0120731D01*
X0136913Y0120156D01*
X0131787Y0120156D01*
X0131787Y0120835D02*
X0131213Y0120835D01*
X0131213Y0121833D02*
X0131787Y0121833D01*
X0131787Y0122832D02*
X0131213Y0122832D01*
X0131213Y0118838D02*
X0131787Y0118838D01*
X0131787Y0117839D02*
X0131213Y0117839D01*
X0136913Y0117839D02*
X0137487Y0117839D01*
X0137487Y0118838D02*
X0136913Y0118838D01*
X0136913Y0119836D02*
X0137487Y0119836D01*
X0137487Y0120835D02*
X0136913Y0120835D01*
X0136913Y0121833D02*
X0137487Y0121833D01*
X0137487Y0122832D02*
X0136913Y0122832D01*
X0144025Y0121833D02*
X0144975Y0121833D01*
X0144975Y0120835D02*
X0144025Y0120835D01*
X0144025Y0119836D02*
X0144975Y0119836D01*
X0144975Y0118838D02*
X0144025Y0118838D01*
X0148950Y0123830D02*
X0150250Y0123830D01*
X0150126Y0124829D02*
X0148950Y0124829D01*
X0148950Y0125827D02*
X0149127Y0125827D01*
X0140791Y0110850D02*
X0140468Y0110850D01*
X0140902Y0109851D02*
X0141638Y0109851D01*
X0141900Y0108853D02*
X0143407Y0108853D01*
X0142899Y0107854D02*
X0157400Y0107854D01*
X0157400Y0106856D02*
X0156298Y0106856D01*
X0155593Y0108853D02*
X0157400Y0108853D01*
X0157362Y0109851D02*
X0157400Y0109851D01*
X0157376Y0099866D02*
X0157400Y0099866D01*
X0157400Y0098868D02*
X0155629Y0098868D01*
X0154618Y0097869D02*
X0157400Y0097869D01*
X0157400Y0096870D02*
X0154618Y0096870D01*
X0154618Y0095872D02*
X0157400Y0095872D01*
X0157400Y0094873D02*
X0154618Y0094873D01*
X0154618Y0093875D02*
X0157400Y0093875D01*
X0157400Y0092876D02*
X0154601Y0092876D01*
X0153936Y0091878D02*
X0157400Y0091878D01*
X0157400Y0090879D02*
X0133425Y0090879D01*
X0132426Y0089881D02*
X0157400Y0089881D01*
X0157400Y0086885D02*
X0153118Y0086885D01*
X0153118Y0085887D02*
X0157400Y0085887D01*
X0157400Y0084888D02*
X0153118Y0084888D01*
X0153118Y0083890D02*
X0157400Y0083890D01*
X0157400Y0082891D02*
X0153118Y0082891D01*
X0153105Y0081893D02*
X0157400Y0081893D01*
X0157400Y0080894D02*
X0153118Y0080894D01*
X0153118Y0079896D02*
X0157400Y0079896D01*
X0157400Y0078897D02*
X0153118Y0078897D01*
X0153118Y0077899D02*
X0157400Y0077899D01*
X0157400Y0076900D02*
X0153118Y0076900D01*
X0153125Y0076500D02*
X0153125Y0072625D01*
X0152875Y0072625D01*
X0152875Y0072375D01*
X0153125Y0072375D01*
X0153125Y0072625D01*
X0155750Y0072625D01*
X0155750Y0075197D01*
X0155648Y0075579D01*
X0155450Y0075921D01*
X0155171Y0076200D01*
X0154829Y0076398D01*
X0154447Y0076500D01*
X0153125Y0076500D01*
X0153108Y0075902D02*
X0153125Y0075902D01*
X0153125Y0074903D02*
X0152875Y0074903D01*
X0152875Y0073905D02*
X0153125Y0073905D01*
X0153125Y0072906D02*
X0152875Y0072906D01*
X0152875Y0072375D02*
X0150250Y0072375D01*
X0148125Y0072375D01*
X0148125Y0068500D01*
X0149447Y0068500D01*
X0149829Y0068602D01*
X0150171Y0068800D01*
X0150450Y0069079D01*
X0150500Y0069165D01*
X0150550Y0069079D01*
X0150829Y0068800D01*
X0151171Y0068602D01*
X0151553Y0068500D01*
X0152875Y0068500D01*
X0152875Y0072375D01*
X0153125Y0072375D02*
X0153125Y0068500D01*
X0154447Y0068500D01*
X0154829Y0068602D01*
X0155171Y0068800D01*
X0155450Y0069079D01*
X0155648Y0069421D01*
X0155750Y0069803D01*
X0155750Y0072375D01*
X0153125Y0072375D01*
X0153125Y0071908D02*
X0152875Y0071908D01*
X0152875Y0070909D02*
X0153125Y0070909D01*
X0153125Y0069911D02*
X0152875Y0069911D01*
X0152875Y0068912D02*
X0153125Y0068912D01*
X0152579Y0067648D02*
X0152921Y0067450D01*
X0153200Y0067171D01*
X0153398Y0066829D01*
X0153500Y0066447D01*
X0153500Y0061750D01*
X0142500Y0061750D01*
X0141500Y0061750D01*
X0141500Y0067750D01*
X0131803Y0067750D01*
X0131421Y0067648D01*
X0131079Y0067450D01*
X0130800Y0067171D01*
X0130602Y0066829D01*
X0130500Y0066447D01*
X0130500Y0063118D01*
X0128687Y0063118D01*
X0128687Y0060331D01*
X0128113Y0060331D01*
X0128113Y0063118D01*
X0125840Y0063118D01*
X0125459Y0063016D01*
X0125117Y0062818D01*
X0124837Y0062539D01*
X0124640Y0062197D01*
X0124538Y0061816D01*
X0124538Y0060331D01*
X0128113Y0060331D01*
X0128113Y0059756D01*
X0128687Y0059756D01*
X0128687Y0056969D01*
X0130500Y0056969D01*
X0130500Y0056053D01*
X0130559Y0055831D01*
X0125499Y0055831D01*
X0124738Y0055070D01*
X0124738Y0050843D01*
X0125499Y0050082D01*
X0127209Y0050082D01*
X0127138Y0049816D01*
X0127138Y0048331D01*
X0130713Y0048331D01*
X0130713Y0047756D01*
X0131287Y0047756D01*
X0131287Y0044969D01*
X0133560Y0044969D01*
X0133941Y0045071D01*
X0134039Y0045127D01*
X0134039Y0043694D01*
X0133901Y0043831D01*
X0128099Y0043831D01*
X0127338Y0043070D01*
X0127338Y0038843D01*
X0128099Y0038082D01*
X0133901Y0038082D01*
X0134138Y0038319D01*
X0134800Y0037657D01*
X0142176Y0037657D01*
X0142938Y0038418D01*
X0142938Y0043414D01*
X0144416Y0044892D01*
X0145062Y0045538D01*
X0145062Y0038418D01*
X0145712Y0037769D01*
X0145712Y0032086D01*
X0143566Y0029940D01*
X0143349Y0030030D01*
X0143418Y0030099D01*
X0143418Y0035901D01*
X0142657Y0036662D01*
X0138430Y0036662D01*
X0137669Y0035901D01*
X0137669Y0030099D01*
X0138043Y0029725D01*
X0138043Y0027570D01*
X0137731Y0026818D01*
X0137731Y0019182D01*
X0138381Y0017614D01*
X0139582Y0016413D01*
X0141151Y0015763D01*
X0142849Y0015763D01*
X0144418Y0016413D01*
X0145619Y0017614D01*
X0146268Y0019182D01*
X0146268Y0021895D01*
X0151664Y0027290D01*
X0152733Y0028359D01*
X0153312Y0029756D01*
X0153312Y0037769D01*
X0153961Y0038418D01*
X0153961Y0046200D01*
X0154788Y0046200D01*
X0155550Y0046962D01*
X0155550Y0050862D01*
X0155600Y0050983D01*
X0155600Y0052017D01*
X0155550Y0052138D01*
X0155550Y0053038D01*
X0154788Y0053800D01*
X0154241Y0053800D01*
X0153517Y0054100D01*
X0152483Y0054100D01*
X0151759Y0053800D01*
X0151212Y0053800D01*
X0150500Y0053088D01*
X0149788Y0053800D01*
X0146212Y0053800D01*
X0145500Y0053088D01*
X0145267Y0053322D01*
X0145204Y0053473D01*
X0144473Y0054204D01*
X0143517Y0054600D01*
X0142483Y0054600D01*
X0141527Y0054204D01*
X0140796Y0053473D01*
X0140733Y0053322D01*
X0140500Y0053088D01*
X0139788Y0053800D01*
X0137676Y0053800D01*
X0136712Y0054737D01*
X0136699Y0054750D01*
X0141500Y0054750D01*
X0141500Y0060750D01*
X0142500Y0060750D01*
X0142500Y0061750D01*
X0142500Y0067750D01*
X0152197Y0067750D01*
X0152579Y0067648D01*
X0153348Y0066915D02*
X0157400Y0066915D01*
X0157400Y0065917D02*
X0153500Y0065917D01*
X0153500Y0064918D02*
X0157400Y0064918D01*
X0157400Y0063920D02*
X0153500Y0063920D01*
X0153500Y0062921D02*
X0157400Y0062921D01*
X0157400Y0061923D02*
X0153500Y0061923D01*
X0153500Y0060750D02*
X0142500Y0060750D01*
X0142500Y0054750D01*
X0152197Y0054750D01*
X0152579Y0054852D01*
X0152921Y0055050D01*
X0153200Y0055329D01*
X0153398Y0055671D01*
X0153500Y0056053D01*
X0153500Y0060750D01*
X0153500Y0059926D02*
X0157400Y0059926D01*
X0157400Y0060924D02*
X0142500Y0060924D01*
X0142500Y0059926D02*
X0141500Y0059926D01*
X0141500Y0060750D02*
X0132262Y0060750D01*
X0132262Y0061750D01*
X0141500Y0061750D01*
X0141500Y0060750D01*
X0141500Y0060924D02*
X0132262Y0060924D01*
X0130500Y0060331D02*
X0128687Y0060331D01*
X0128687Y0059756D01*
X0130500Y0059756D01*
X0130500Y0060331D01*
X0130500Y0059926D02*
X0128687Y0059926D01*
X0128113Y0059926D02*
X0120500Y0059926D01*
X0120500Y0058927D02*
X0124538Y0058927D01*
X0124538Y0058271D02*
X0124640Y0057890D01*
X0124837Y0057547D01*
X0125117Y0057268D01*
X0125459Y0057071D01*
X0125840Y0056969D01*
X0128113Y0056968D01*
X0128113Y0059756D01*
X0124538Y0059756D01*
X0124538Y0058271D01*
X0124630Y0057929D02*
X0120500Y0057929D01*
X0120500Y0056930D02*
X0130500Y0056930D01*
X0130532Y0055932D02*
X0120468Y0055932D01*
X0119719Y0054933D02*
X0124738Y0054933D01*
X0124738Y0053934D02*
X0120917Y0053934D01*
X0122550Y0052936D02*
X0124738Y0052936D01*
X0124738Y0051937D02*
X0122600Y0051937D01*
X0122582Y0050939D02*
X0124738Y0050939D01*
X0122550Y0049940D02*
X0127171Y0049940D01*
X0127138Y0048942D02*
X0122550Y0048942D01*
X0122550Y0047943D02*
X0130713Y0047943D01*
X0130713Y0047756D02*
X0127138Y0047756D01*
X0127138Y0046271D01*
X0127240Y0045890D01*
X0127437Y0045547D01*
X0127717Y0045268D01*
X0128059Y0045071D01*
X0128440Y0044969D01*
X0130713Y0044968D01*
X0130713Y0047756D01*
X0131287Y0047756D02*
X0131287Y0048331D01*
X0134862Y0048331D01*
X0134862Y0049563D01*
X0135450Y0048992D01*
X0135450Y0047343D01*
X0134862Y0047343D01*
X0134862Y0047756D01*
X0131287Y0047756D01*
X0131287Y0047943D02*
X0135450Y0047943D01*
X0135450Y0048942D02*
X0134862Y0048942D01*
X0134039Y0044948D02*
X0120961Y0044948D01*
X0120961Y0045946D02*
X0127225Y0045946D01*
X0127138Y0046945D02*
X0122533Y0046945D01*
X0120961Y0043949D02*
X0134039Y0043949D01*
X0131287Y0045946D02*
X0130713Y0045946D01*
X0130713Y0046945D02*
X0131287Y0046945D01*
X0127338Y0042951D02*
X0120961Y0042951D01*
X0120961Y0041952D02*
X0127338Y0041952D01*
X0127338Y0040954D02*
X0120961Y0040954D01*
X0120961Y0039955D02*
X0127338Y0039955D01*
X0127338Y0038957D02*
X0120961Y0038957D01*
X0120502Y0037958D02*
X0134498Y0037958D01*
X0135570Y0036662D02*
X0131343Y0036662D01*
X0130582Y0035901D01*
X0130582Y0030099D01*
X0130651Y0030030D01*
X0129582Y0029587D01*
X0128381Y0028386D01*
X0127731Y0026818D01*
X0127731Y0019182D01*
X0128381Y0017614D01*
X0129582Y0016413D01*
X0131151Y0015763D01*
X0132849Y0015763D01*
X0134418Y0016413D01*
X0135619Y0017614D01*
X0136268Y0019182D01*
X0136268Y0026818D01*
X0135957Y0027570D01*
X0135957Y0029725D01*
X0136331Y0030099D01*
X0136331Y0035901D01*
X0135570Y0036662D01*
X0136271Y0035961D02*
X0137729Y0035961D01*
X0137669Y0034963D02*
X0136331Y0034963D01*
X0136331Y0033964D02*
X0137669Y0033964D01*
X0137669Y0032966D02*
X0136331Y0032966D01*
X0136331Y0031967D02*
X0137669Y0031967D01*
X0137669Y0030969D02*
X0136331Y0030969D01*
X0136202Y0029970D02*
X0137798Y0029970D01*
X0138043Y0028972D02*
X0135957Y0028972D01*
X0135957Y0027973D02*
X0138043Y0027973D01*
X0137797Y0026975D02*
X0136203Y0026975D01*
X0136268Y0025976D02*
X0137731Y0025976D01*
X0137731Y0024978D02*
X0136268Y0024978D01*
X0136268Y0023979D02*
X0137731Y0023979D01*
X0137731Y0022981D02*
X0136268Y0022981D01*
X0136268Y0021982D02*
X0137731Y0021982D01*
X0137731Y0020984D02*
X0136268Y0020984D01*
X0136268Y0019985D02*
X0137731Y0019985D01*
X0137813Y0018987D02*
X0136187Y0018987D01*
X0135774Y0017988D02*
X0138226Y0017988D01*
X0139005Y0016990D02*
X0134995Y0016990D01*
X0133400Y0015991D02*
X0140600Y0015991D01*
X0143400Y0015991D02*
X0146360Y0015991D01*
X0146250Y0016990D02*
X0144995Y0016990D01*
X0145774Y0017988D02*
X0146250Y0017988D01*
X0146187Y0018987D02*
X0146351Y0018987D01*
X0146268Y0019985D02*
X0146764Y0019985D01*
X0147178Y0020984D02*
X0146268Y0020984D01*
X0146356Y0021982D02*
X0148143Y0021982D01*
X0147355Y0022981D02*
X0149399Y0022981D01*
X0148353Y0023979D02*
X0157400Y0023979D01*
X0157400Y0022981D02*
X0155601Y0022981D01*
X0156857Y0021982D02*
X0157400Y0021982D01*
X0157400Y0024978D02*
X0149352Y0024978D01*
X0150350Y0025976D02*
X0157400Y0025976D01*
X0157400Y0026975D02*
X0151349Y0026975D01*
X0152347Y0027973D02*
X0157400Y0027973D01*
X0157400Y0028972D02*
X0152987Y0028972D01*
X0153312Y0029970D02*
X0157400Y0029970D01*
X0157400Y0030969D02*
X0153312Y0030969D01*
X0153312Y0031967D02*
X0157400Y0031967D01*
X0157400Y0032966D02*
X0153312Y0032966D01*
X0153312Y0033964D02*
X0157400Y0033964D01*
X0157400Y0034963D02*
X0153312Y0034963D01*
X0153312Y0035961D02*
X0157400Y0035961D01*
X0157400Y0036960D02*
X0153312Y0036960D01*
X0153502Y0037958D02*
X0157400Y0037958D01*
X0157400Y0038957D02*
X0153961Y0038957D01*
X0153961Y0039955D02*
X0157400Y0039955D01*
X0157400Y0040954D02*
X0153961Y0040954D01*
X0153961Y0041952D02*
X0157400Y0041952D01*
X0157400Y0042951D02*
X0153961Y0042951D01*
X0153961Y0043949D02*
X0157400Y0043949D01*
X0157400Y0044948D02*
X0153961Y0044948D01*
X0153961Y0045946D02*
X0157400Y0045946D01*
X0157400Y0046945D02*
X0155533Y0046945D01*
X0155550Y0047943D02*
X0157400Y0047943D01*
X0157400Y0048942D02*
X0155550Y0048942D01*
X0155550Y0049940D02*
X0157400Y0049940D01*
X0157400Y0050939D02*
X0155582Y0050939D01*
X0155600Y0051937D02*
X0157400Y0051937D01*
X0157400Y0052936D02*
X0155550Y0052936D01*
X0153917Y0053934D02*
X0157400Y0053934D01*
X0157400Y0054933D02*
X0152719Y0054933D01*
X0152083Y0053934D02*
X0144742Y0053934D01*
X0142500Y0054933D02*
X0141500Y0054933D01*
X0141500Y0055932D02*
X0142500Y0055932D01*
X0142500Y0056930D02*
X0141500Y0056930D01*
X0141500Y0057929D02*
X0142500Y0057929D01*
X0142500Y0058927D02*
X0141500Y0058927D01*
X0141500Y0061923D02*
X0142500Y0061923D01*
X0142500Y0062921D02*
X0141500Y0062921D01*
X0141500Y0063920D02*
X0142500Y0063920D01*
X0142500Y0064918D02*
X0141500Y0064918D01*
X0141500Y0065917D02*
X0142500Y0065917D01*
X0142500Y0066915D02*
X0141500Y0066915D01*
X0140999Y0068912D02*
X0140001Y0068912D01*
X0135999Y0068912D02*
X0124958Y0068912D01*
X0125956Y0069911D02*
X0135450Y0069911D01*
X0135450Y0070909D02*
X0126300Y0070909D01*
X0126300Y0071908D02*
X0135450Y0071908D01*
X0135450Y0072906D02*
X0126300Y0072906D01*
X0126300Y0073905D02*
X0135450Y0073905D01*
X0135450Y0074903D02*
X0133393Y0074903D01*
X0133453Y0074938D02*
X0133732Y0075217D01*
X0133929Y0075559D01*
X0134031Y0075940D01*
X0134031Y0078213D01*
X0131244Y0078213D01*
X0131244Y0074638D01*
X0132729Y0074638D01*
X0133110Y0074740D01*
X0133453Y0074938D01*
X0134021Y0075902D02*
X0135169Y0075902D01*
X0135169Y0076900D02*
X0134031Y0076900D01*
X0134031Y0077899D02*
X0134935Y0077899D01*
X0134900Y0078897D02*
X0134031Y0078897D01*
X0134031Y0079896D02*
X0135169Y0079896D01*
X0135169Y0080894D02*
X0134031Y0080894D01*
X0134019Y0081893D02*
X0135169Y0081893D01*
X0135169Y0082891D02*
X0134031Y0082891D01*
X0134031Y0083890D02*
X0135169Y0083890D01*
X0135169Y0084888D02*
X0134031Y0084888D01*
X0134031Y0085887D02*
X0135169Y0085887D01*
X0135169Y0086885D02*
X0134031Y0086885D01*
X0133631Y0087884D02*
X0135652Y0087884D01*
X0135555Y0091878D02*
X0142303Y0091878D01*
X0141582Y0092876D02*
X0136056Y0092876D01*
X0136100Y0093875D02*
X0141582Y0093875D01*
X0141582Y0094873D02*
X0135745Y0094873D01*
X0134568Y0095872D02*
X0141582Y0095872D01*
X0141582Y0096870D02*
X0140916Y0096870D01*
X0139957Y0098457D02*
X0127500Y0098457D01*
X0120543Y0099000D01*
X0121000Y0099500D01*
X0121500Y0098457D02*
X0127500Y0098457D01*
X0130868Y0100865D02*
X0139819Y0100865D01*
X0139957Y0098457D02*
X0144500Y0103000D01*
X0151256Y0098868D02*
X0151831Y0098868D01*
X0151831Y0097869D02*
X0151256Y0097869D01*
X0151256Y0096870D02*
X0151831Y0096870D01*
X0151831Y0095872D02*
X0151256Y0095872D01*
X0151256Y0094873D02*
X0151831Y0094873D01*
X0151831Y0093875D02*
X0151256Y0093875D01*
X0151256Y0092876D02*
X0151831Y0092876D01*
X0151831Y0091878D02*
X0151256Y0091878D01*
X0140565Y0087884D02*
X0140435Y0087884D01*
X0131244Y0086885D02*
X0130669Y0086885D01*
X0130669Y0085887D02*
X0131244Y0085887D01*
X0131244Y0084888D02*
X0130669Y0084888D01*
X0130669Y0084213D02*
X0131244Y0084213D01*
X0131244Y0082362D01*
X0131244Y0078787D01*
X0130669Y0078787D01*
X0130669Y0084213D01*
X0130669Y0083890D02*
X0131244Y0083890D01*
X0131244Y0082891D02*
X0130669Y0082891D01*
X0130669Y0081893D02*
X0131244Y0081893D01*
X0131244Y0080894D02*
X0130669Y0080894D01*
X0130669Y0079896D02*
X0131244Y0079896D01*
X0131244Y0078897D02*
X0130669Y0078897D01*
X0130669Y0077899D02*
X0131244Y0077899D01*
X0131244Y0076900D02*
X0130669Y0076900D01*
X0130669Y0075902D02*
X0131244Y0075902D01*
X0131244Y0074903D02*
X0130669Y0074903D01*
X0128520Y0074903D02*
X0126300Y0074903D01*
X0126300Y0075902D02*
X0127892Y0075902D01*
X0127882Y0076900D02*
X0126300Y0076900D01*
X0126300Y0077899D02*
X0127882Y0077899D01*
X0127882Y0078897D02*
X0126300Y0078897D01*
X0126300Y0079896D02*
X0127882Y0079896D01*
X0127882Y0080894D02*
X0126300Y0080894D01*
X0126300Y0081893D02*
X0127895Y0081893D01*
X0127882Y0082891D02*
X0126300Y0082891D01*
X0126435Y0083890D02*
X0127882Y0083890D01*
X0127882Y0084888D02*
X0127434Y0084888D01*
X0118309Y0095872D02*
X0115918Y0095872D01*
X0116916Y0096870D02*
X0117838Y0096870D01*
X0116500Y0099000D02*
X0116600Y0108600D01*
X0114667Y0106856D02*
X0110608Y0106856D01*
X0111607Y0107854D02*
X0114095Y0107854D01*
X0114000Y0108853D02*
X0112605Y0108853D01*
X0114771Y0105857D02*
X0109610Y0105857D01*
X0109818Y0104859D02*
X0114761Y0104859D01*
X0114751Y0103860D02*
X0110458Y0103860D01*
X0110600Y0102862D02*
X0114740Y0102862D01*
X0114730Y0101863D02*
X0110343Y0101863D01*
X0109541Y0100865D02*
X0114719Y0100865D01*
X0114709Y0099866D02*
X0068812Y0099866D01*
X0067813Y0098868D02*
X0113822Y0098868D01*
X0112823Y0097869D02*
X0067112Y0097869D01*
X0068110Y0096870D02*
X0111825Y0096870D01*
X0110826Y0095872D02*
X0069081Y0095872D01*
X0069657Y0094873D02*
X0109828Y0094873D01*
X0108829Y0093875D02*
X0070234Y0093875D01*
X0070660Y0092876D02*
X0108157Y0092876D01*
X0108157Y0091878D02*
X0070927Y0091878D01*
X0071195Y0090879D02*
X0108157Y0090879D01*
X0108157Y0089881D02*
X0071300Y0089881D01*
X0071300Y0088882D02*
X0108157Y0088882D01*
X0107565Y0087884D02*
X0107435Y0087884D01*
X0105043Y0083500D02*
X0104750Y0083207D01*
X0102169Y0082891D02*
X0101031Y0082891D01*
X0101031Y0081940D02*
X0101031Y0084213D01*
X0098244Y0084213D01*
X0098244Y0084787D01*
X0101031Y0084787D01*
X0101031Y0087060D01*
X0100929Y0087441D01*
X0100732Y0087783D01*
X0100453Y0088062D01*
X0100110Y0088260D01*
X0099729Y0088362D01*
X0098244Y0088362D01*
X0098244Y0084787D01*
X0097669Y0084787D01*
X0097669Y0084213D01*
X0094882Y0084213D01*
X0094882Y0081940D01*
X0094984Y0081559D01*
X0095018Y0081500D01*
X0094984Y0081441D01*
X0094882Y0081060D01*
X0094882Y0078787D01*
X0097669Y0078787D01*
X0097669Y0078213D01*
X0094882Y0078213D01*
X0094882Y0075940D01*
X0094984Y0075559D01*
X0095182Y0075217D01*
X0095461Y0074938D01*
X0095803Y0074740D01*
X0096184Y0074638D01*
X0097669Y0074638D01*
X0097669Y0078213D01*
X0098244Y0078213D01*
X0098244Y0078787D01*
X0101031Y0078787D01*
X0101031Y0081060D01*
X0100929Y0081441D01*
X0100895Y0081500D01*
X0100929Y0081559D01*
X0101031Y0081940D01*
X0101019Y0081893D02*
X0102169Y0081893D01*
X0102169Y0080894D02*
X0101031Y0080894D01*
X0101031Y0079896D02*
X0102057Y0079896D01*
X0101900Y0078897D02*
X0101031Y0078897D01*
X0101031Y0078213D02*
X0098244Y0078213D01*
X0098244Y0074638D01*
X0099729Y0074638D01*
X0100110Y0074740D01*
X0100453Y0074938D01*
X0100732Y0075217D01*
X0100929Y0075559D01*
X0101031Y0075940D01*
X0101031Y0078213D01*
X0101031Y0077899D02*
X0102142Y0077899D01*
X0102169Y0076900D02*
X0101031Y0076900D01*
X0101021Y0075902D02*
X0102169Y0075902D01*
X0102450Y0074903D02*
X0100393Y0074903D01*
X0098244Y0074903D02*
X0097669Y0074903D01*
X0097669Y0075902D02*
X0098244Y0075902D01*
X0098244Y0076900D02*
X0097669Y0076900D01*
X0097669Y0077899D02*
X0098244Y0077899D01*
X0098244Y0078787D02*
X0097669Y0078787D01*
X0097669Y0080638D01*
X0097669Y0084213D01*
X0098244Y0084213D01*
X0098244Y0078787D01*
X0098244Y0078897D02*
X0097669Y0078897D01*
X0097669Y0079896D02*
X0098244Y0079896D01*
X0098244Y0080894D02*
X0097669Y0080894D01*
X0097669Y0081893D02*
X0098244Y0081893D01*
X0098244Y0082891D02*
X0097669Y0082891D01*
X0097669Y0083890D02*
X0098244Y0083890D01*
X0098244Y0084888D02*
X0097669Y0084888D01*
X0097669Y0084787D02*
X0097669Y0088362D01*
X0096184Y0088362D01*
X0095803Y0088260D01*
X0095461Y0088062D01*
X0095182Y0087783D01*
X0094984Y0087441D01*
X0094882Y0087060D01*
X0094882Y0084787D01*
X0097669Y0084787D01*
X0097669Y0085887D02*
X0098244Y0085887D01*
X0098244Y0086885D02*
X0097669Y0086885D01*
X0097669Y0087884D02*
X0098244Y0087884D01*
X0100631Y0087884D02*
X0102652Y0087884D01*
X0102169Y0086885D02*
X0101031Y0086885D01*
X0101031Y0085887D02*
X0102169Y0085887D01*
X0102169Y0084888D02*
X0101031Y0084888D01*
X0101031Y0083890D02*
X0102169Y0083890D01*
X0094882Y0083890D02*
X0070098Y0083890D01*
X0070597Y0084888D02*
X0094882Y0084888D01*
X0094882Y0085887D02*
X0070864Y0085887D01*
X0071132Y0086885D02*
X0094882Y0086885D01*
X0095282Y0087884D02*
X0071300Y0087884D01*
X0069521Y0082891D02*
X0094882Y0082891D01*
X0094895Y0081893D02*
X0068873Y0081893D01*
X0067875Y0080894D02*
X0094882Y0080894D01*
X0094882Y0079896D02*
X0066831Y0079896D01*
X0065102Y0078897D02*
X0094882Y0078897D01*
X0094882Y0077899D02*
X0062229Y0077899D01*
X0059184Y0073905D02*
X0102450Y0073905D01*
X0102450Y0072906D02*
X0059800Y0072906D01*
X0057770Y0077899D02*
X0033944Y0077899D01*
X0032946Y0076900D02*
X0094882Y0076900D01*
X0094892Y0075902D02*
X0031947Y0075902D01*
X0030949Y0074903D02*
X0095520Y0074903D01*
X0091367Y0068912D02*
X0071462Y0068912D01*
X0072460Y0067914D02*
X0090368Y0067914D01*
X0089370Y0066915D02*
X0073459Y0066915D01*
X0074457Y0065917D02*
X0088371Y0065917D01*
X0087373Y0064918D02*
X0075456Y0064918D01*
X0076454Y0063920D02*
X0087200Y0063920D01*
X0087200Y0062921D02*
X0077024Y0062921D01*
X0077300Y0061923D02*
X0086775Y0061923D01*
X0086400Y0060924D02*
X0077300Y0060924D01*
X0077300Y0059926D02*
X0086424Y0059926D01*
X0086896Y0058927D02*
X0077840Y0058927D01*
X0078833Y0057929D02*
X0088414Y0057929D01*
X0089586Y0057929D02*
X0091433Y0057929D01*
X0091238Y0058927D02*
X0091104Y0058927D01*
X0089000Y0060500D02*
X0089000Y0064000D01*
X0093000Y0068000D01*
X0121500Y0068000D01*
X0122961Y0066915D02*
X0130652Y0066915D01*
X0130500Y0065917D02*
X0120500Y0065917D01*
X0120500Y0064918D02*
X0130500Y0064918D01*
X0130500Y0063920D02*
X0120500Y0063920D01*
X0120500Y0062921D02*
X0125295Y0062921D01*
X0124566Y0061923D02*
X0120500Y0061923D01*
X0124538Y0060924D02*
X0109500Y0060924D01*
X0109500Y0059926D02*
X0108500Y0059926D01*
X0108500Y0060924D02*
X0098962Y0060924D01*
X0097500Y0060531D02*
X0095387Y0060531D01*
X0094813Y0060531D01*
X0094813Y0063318D01*
X0092540Y0063318D01*
X0092159Y0063216D01*
X0091817Y0063018D01*
X0091537Y0062739D01*
X0091340Y0062397D01*
X0091238Y0062016D01*
X0091238Y0061892D01*
X0091204Y0061973D01*
X0090800Y0062377D01*
X0090800Y0063254D01*
X0093746Y0066200D01*
X0097500Y0066200D01*
X0097500Y0063318D01*
X0095387Y0063318D01*
X0095387Y0060531D01*
X0095387Y0059956D01*
X0097500Y0059956D01*
X0097500Y0060531D01*
X0095387Y0060924D02*
X0094813Y0060924D01*
X0094813Y0059926D02*
X0095387Y0059926D01*
X0095387Y0058927D02*
X0094813Y0058927D01*
X0094813Y0057929D02*
X0095387Y0057929D01*
X0097500Y0056930D02*
X0079826Y0056930D01*
X0080819Y0055932D02*
X0092099Y0055932D01*
X0091438Y0054933D02*
X0081812Y0054933D01*
X0082806Y0053934D02*
X0091438Y0053934D01*
X0091438Y0052936D02*
X0083799Y0052936D01*
X0084792Y0051937D02*
X0091438Y0051937D01*
X0091542Y0050939D02*
X0085785Y0050939D01*
X0086778Y0049940D02*
X0094171Y0049940D01*
X0094138Y0048942D02*
X0087771Y0048942D01*
X0088764Y0047943D02*
X0097713Y0047943D01*
X0098287Y0047943D02*
X0102450Y0047943D01*
X0102450Y0047343D02*
X0102450Y0049014D01*
X0101862Y0049602D01*
X0101862Y0048331D01*
X0098287Y0048331D01*
X0098287Y0047756D01*
X0101862Y0047756D01*
X0101862Y0047343D01*
X0102450Y0047343D01*
X0102450Y0048942D02*
X0101862Y0048942D01*
X0101039Y0044948D02*
X0091743Y0044948D01*
X0090750Y0045946D02*
X0094225Y0045946D01*
X0094138Y0046945D02*
X0089757Y0046945D01*
X0092736Y0043949D02*
X0101039Y0043949D01*
X0098287Y0045946D02*
X0097713Y0045946D01*
X0097713Y0046945D02*
X0098287Y0046945D01*
X0094338Y0042951D02*
X0093729Y0042951D01*
X0098516Y0037958D02*
X0101498Y0037958D01*
X0099514Y0036960D02*
X0112712Y0036960D01*
X0112712Y0035961D02*
X0112571Y0035961D01*
X0112522Y0037958D02*
X0109478Y0037958D01*
X0109938Y0038957D02*
X0112062Y0038957D01*
X0112062Y0039955D02*
X0109938Y0039955D01*
X0109938Y0040954D02*
X0112062Y0040954D01*
X0112062Y0041952D02*
X0109938Y0041952D01*
X0109938Y0042951D02*
X0112062Y0042951D01*
X0112062Y0043949D02*
X0110880Y0043949D01*
X0112003Y0044948D02*
X0112062Y0044948D01*
X0108143Y0035961D02*
X0100513Y0035961D01*
X0101511Y0034963D02*
X0107482Y0034963D01*
X0107482Y0033964D02*
X0102510Y0033964D01*
X0103508Y0032966D02*
X0107482Y0032966D01*
X0107482Y0031967D02*
X0104507Y0031967D01*
X0105339Y0030969D02*
X0107482Y0030969D01*
X0107482Y0029970D02*
X0105753Y0029970D01*
X0105800Y0028972D02*
X0108009Y0028972D01*
X0108210Y0027973D02*
X0105800Y0027973D01*
X0106203Y0026975D02*
X0107797Y0026975D01*
X0107731Y0025976D02*
X0106268Y0025976D01*
X0106268Y0024978D02*
X0107731Y0024978D01*
X0107731Y0023979D02*
X0106268Y0023979D01*
X0106268Y0022981D02*
X0107731Y0022981D01*
X0107731Y0021982D02*
X0106268Y0021982D01*
X0106268Y0020984D02*
X0107731Y0020984D01*
X0107731Y0019985D02*
X0106268Y0019985D01*
X0106187Y0018987D02*
X0107813Y0018987D01*
X0108226Y0017988D02*
X0105774Y0017988D01*
X0104995Y0016990D02*
X0109005Y0016990D01*
X0110600Y0015991D02*
X0103400Y0015991D01*
X0100600Y0015991D02*
X0093400Y0015991D01*
X0094995Y0016990D02*
X0099005Y0016990D01*
X0098226Y0017988D02*
X0095774Y0017988D01*
X0096187Y0018987D02*
X0097813Y0018987D01*
X0097731Y0019985D02*
X0096268Y0019985D01*
X0096268Y0020984D02*
X0097731Y0020984D01*
X0097731Y0021982D02*
X0096268Y0021982D01*
X0096268Y0022981D02*
X0097731Y0022981D01*
X0097731Y0023979D02*
X0096268Y0023979D01*
X0096268Y0024978D02*
X0097731Y0024978D01*
X0097731Y0025976D02*
X0096268Y0025976D01*
X0096203Y0026975D02*
X0097797Y0026975D01*
X0097753Y0027973D02*
X0095800Y0027973D01*
X0095675Y0028972D02*
X0096754Y0028972D01*
X0095756Y0029970D02*
X0095251Y0029970D01*
X0094757Y0030969D02*
X0094294Y0030969D01*
X0093759Y0031967D02*
X0093235Y0031967D01*
X0087460Y0026975D02*
X0086203Y0026975D01*
X0086268Y0025976D02*
X0087731Y0025976D01*
X0087731Y0024978D02*
X0086268Y0024978D01*
X0086268Y0023979D02*
X0087731Y0023979D01*
X0087731Y0022981D02*
X0086268Y0022981D01*
X0086268Y0021982D02*
X0087731Y0021982D01*
X0087731Y0020984D02*
X0086268Y0020984D01*
X0086268Y0019985D02*
X0087731Y0019985D01*
X0087813Y0018987D02*
X0086187Y0018987D01*
X0085774Y0017988D02*
X0088226Y0017988D01*
X0089005Y0016990D02*
X0084995Y0016990D01*
X0083400Y0015991D02*
X0090600Y0015991D01*
X0080600Y0015991D02*
X0073400Y0015991D01*
X0074995Y0016990D02*
X0079005Y0016990D01*
X0078226Y0017988D02*
X0075774Y0017988D01*
X0076187Y0018987D02*
X0077813Y0018987D01*
X0077731Y0019985D02*
X0076268Y0019985D01*
X0076268Y0020984D02*
X0077731Y0020984D01*
X0077731Y0021982D02*
X0076268Y0021982D01*
X0076268Y0022981D02*
X0077731Y0022981D01*
X0077731Y0023979D02*
X0076268Y0023979D01*
X0076268Y0024978D02*
X0077731Y0024978D01*
X0077731Y0025976D02*
X0076268Y0025976D01*
X0076203Y0026975D02*
X0077797Y0026975D01*
X0077596Y0027973D02*
X0075790Y0027973D01*
X0075033Y0028972D02*
X0076598Y0028972D01*
X0076022Y0029970D02*
X0075331Y0029970D01*
X0075331Y0030969D02*
X0075743Y0030969D01*
X0075743Y0031967D02*
X0075331Y0031967D01*
X0075331Y0032966D02*
X0075738Y0032966D01*
X0085790Y0027973D02*
X0086417Y0027973D01*
X0070600Y0015991D02*
X0068518Y0015991D01*
X0068518Y0014993D02*
X0146774Y0014993D01*
X0147187Y0013994D02*
X0068518Y0013994D01*
X0067914Y0012996D02*
X0148166Y0012996D01*
X0143596Y0029970D02*
X0143493Y0029970D01*
X0143418Y0030969D02*
X0144595Y0030969D01*
X0145593Y0031967D02*
X0143418Y0031967D01*
X0143418Y0032966D02*
X0145712Y0032966D01*
X0145712Y0033964D02*
X0143418Y0033964D01*
X0143418Y0034963D02*
X0145712Y0034963D01*
X0145712Y0035961D02*
X0143357Y0035961D01*
X0142478Y0037958D02*
X0145522Y0037958D01*
X0145712Y0036960D02*
X0120414Y0036960D01*
X0121413Y0035961D02*
X0130643Y0035961D01*
X0130582Y0034963D02*
X0122411Y0034963D01*
X0123410Y0033964D02*
X0130582Y0033964D01*
X0130582Y0032966D02*
X0124408Y0032966D01*
X0125298Y0031967D02*
X0130582Y0031967D01*
X0130582Y0030969D02*
X0125712Y0030969D01*
X0125800Y0029970D02*
X0130507Y0029970D01*
X0128967Y0028972D02*
X0125800Y0028972D01*
X0125800Y0027973D02*
X0128210Y0027973D01*
X0127797Y0026975D02*
X0126203Y0026975D01*
X0126268Y0025976D02*
X0127731Y0025976D01*
X0127731Y0024978D02*
X0126268Y0024978D01*
X0126268Y0023979D02*
X0127731Y0023979D01*
X0127731Y0022981D02*
X0126268Y0022981D01*
X0126268Y0021982D02*
X0127731Y0021982D01*
X0127731Y0020984D02*
X0126268Y0020984D01*
X0126268Y0019985D02*
X0127731Y0019985D01*
X0127813Y0018987D02*
X0126187Y0018987D01*
X0125774Y0017988D02*
X0128226Y0017988D01*
X0129005Y0016990D02*
X0124995Y0016990D01*
X0123400Y0015991D02*
X0130600Y0015991D01*
X0120600Y0015991D02*
X0113400Y0015991D01*
X0114995Y0016990D02*
X0119005Y0016990D01*
X0118226Y0017988D02*
X0115774Y0017988D01*
X0116187Y0018987D02*
X0117813Y0018987D01*
X0117731Y0019985D02*
X0116268Y0019985D01*
X0116268Y0020984D02*
X0117731Y0020984D01*
X0117731Y0021982D02*
X0116268Y0021982D01*
X0116268Y0022981D02*
X0117731Y0022981D01*
X0117731Y0023979D02*
X0116268Y0023979D01*
X0116268Y0024978D02*
X0117731Y0024978D01*
X0117731Y0025976D02*
X0116268Y0025976D01*
X0116203Y0026975D02*
X0117797Y0026975D01*
X0118200Y0027973D02*
X0115790Y0027973D01*
X0115096Y0028972D02*
X0115033Y0028972D01*
X0114569Y0029970D02*
X0114500Y0029970D01*
X0114500Y0030969D02*
X0114569Y0030969D01*
X0114569Y0031967D02*
X0114205Y0031967D01*
X0113660Y0032966D02*
X0113326Y0032966D01*
X0111742Y0053934D02*
X0119083Y0053934D01*
X0109500Y0054933D02*
X0108500Y0054933D01*
X0108500Y0055932D02*
X0109500Y0055932D01*
X0109500Y0056930D02*
X0108500Y0056930D01*
X0108500Y0057929D02*
X0109500Y0057929D01*
X0109500Y0058927D02*
X0108500Y0058927D01*
X0108258Y0053934D02*
X0104601Y0053934D01*
X0097500Y0063920D02*
X0091465Y0063920D01*
X0091719Y0062921D02*
X0090800Y0062921D01*
X0091225Y0061923D02*
X0091238Y0061923D01*
X0092464Y0064918D02*
X0097500Y0064918D01*
X0097500Y0065917D02*
X0093462Y0065917D01*
X0094813Y0062921D02*
X0095387Y0062921D01*
X0095387Y0061923D02*
X0094813Y0061923D01*
X0102450Y0069911D02*
X0070463Y0069911D01*
X0069465Y0070909D02*
X0102450Y0070909D01*
X0102450Y0071908D02*
X0068135Y0071908D01*
X0054898Y0078897D02*
X0034943Y0078897D01*
X0035941Y0079896D02*
X0053169Y0079896D01*
X0052125Y0080894D02*
X0036940Y0080894D01*
X0037938Y0081893D02*
X0051127Y0081893D01*
X0050479Y0082891D02*
X0038937Y0082891D01*
X0039935Y0083890D02*
X0049902Y0083890D01*
X0049403Y0084888D02*
X0040934Y0084888D01*
X0041932Y0085887D02*
X0049136Y0085887D01*
X0048868Y0086885D02*
X0042931Y0086885D01*
X0043929Y0087884D02*
X0048700Y0087884D01*
X0048700Y0088882D02*
X0044928Y0088882D01*
X0045926Y0089881D02*
X0048700Y0089881D01*
X0048805Y0090879D02*
X0046925Y0090879D01*
X0047923Y0091878D02*
X0049073Y0091878D01*
X0048922Y0092876D02*
X0049340Y0092876D01*
X0053500Y0100000D02*
X0028000Y0074500D01*
X0020457Y0074500D01*
X0017500Y0071543D01*
X0017500Y0063000D01*
X0019043Y0061457D01*
X0021500Y0061457D01*
X0019300Y0064331D02*
X0019300Y0065469D01*
X0021213Y0065468D01*
X0021213Y0068256D01*
X0021787Y0068256D01*
X0021787Y0065469D01*
X0024060Y0065469D01*
X0024441Y0065571D01*
X0024500Y0065605D01*
X0024559Y0065571D01*
X0024940Y0065469D01*
X0027213Y0065468D01*
X0027213Y0068256D01*
X0027787Y0068256D01*
X0027787Y0065469D01*
X0029500Y0065469D01*
X0029500Y0065053D01*
X0029602Y0064671D01*
X0029798Y0064331D01*
X0024599Y0064331D01*
X0024500Y0064232D01*
X0024401Y0064331D01*
X0019300Y0064331D01*
X0019300Y0064918D02*
X0029536Y0064918D01*
X0027787Y0065917D02*
X0027213Y0065917D01*
X0027213Y0066915D02*
X0027787Y0066915D01*
X0027787Y0067914D02*
X0027213Y0067914D01*
X0027213Y0068256D02*
X0021787Y0068256D01*
X0021787Y0068831D01*
X0025362Y0068831D01*
X0027213Y0068831D01*
X0027213Y0068256D01*
X0027213Y0068912D02*
X0027787Y0068912D01*
X0027787Y0069911D02*
X0027213Y0069911D01*
X0027213Y0070909D02*
X0027787Y0070909D01*
X0029500Y0071908D02*
X0020410Y0071908D01*
X0021213Y0070909D02*
X0021787Y0070909D01*
X0021787Y0069911D02*
X0021213Y0069911D01*
X0021213Y0068912D02*
X0021787Y0068912D01*
X0021787Y0067914D02*
X0021213Y0067914D01*
X0021213Y0066915D02*
X0021787Y0066915D01*
X0021787Y0065917D02*
X0021213Y0065917D01*
X0015700Y0065917D02*
X0015000Y0065917D01*
X0015000Y0066915D02*
X0015700Y0066915D01*
X0015700Y0067914D02*
X0015000Y0067914D01*
X0015000Y0068912D02*
X0015700Y0068912D01*
X0015700Y0069911D02*
X0015000Y0069911D01*
X0015000Y0070909D02*
X0015700Y0070909D01*
X0015700Y0071908D02*
X0015000Y0071908D01*
X0015000Y0072906D02*
X0016317Y0072906D01*
X0017316Y0073905D02*
X0015000Y0073905D01*
X0015000Y0074903D02*
X0018314Y0074903D01*
X0019313Y0075902D02*
X0015000Y0075902D01*
X0015000Y0076900D02*
X0027855Y0076900D01*
X0029950Y0073905D02*
X0030033Y0073905D01*
X0029500Y0072906D02*
X0028952Y0072906D01*
X0033375Y0072906D02*
X0033625Y0072906D01*
X0033625Y0071908D02*
X0033375Y0071908D01*
X0033625Y0071625D02*
X0033625Y0074250D01*
X0036197Y0074250D01*
X0036579Y0074148D01*
X0036921Y0073950D01*
X0037200Y0073671D01*
X0037398Y0073329D01*
X0037500Y0072947D01*
X0037500Y0071625D01*
X0033625Y0071625D01*
X0033625Y0070909D02*
X0033375Y0070909D01*
X0033375Y0069911D02*
X0033625Y0069911D01*
X0033625Y0068912D02*
X0033375Y0068912D01*
X0033375Y0067914D02*
X0033625Y0067914D01*
X0033625Y0066915D02*
X0033375Y0066915D01*
X0036696Y0063920D02*
X0038250Y0063920D01*
X0038250Y0064918D02*
X0037464Y0064918D01*
X0037500Y0065917D02*
X0038250Y0065917D01*
X0038250Y0066915D02*
X0037500Y0066915D01*
X0037500Y0067914D02*
X0038250Y0067914D01*
X0038250Y0068912D02*
X0036959Y0068912D01*
X0037462Y0069911D02*
X0038250Y0069911D01*
X0038250Y0070697D02*
X0038250Y0061000D01*
X0044250Y0061000D01*
X0044250Y0072000D01*
X0039553Y0072000D01*
X0039171Y0071898D01*
X0038829Y0071700D01*
X0038550Y0071421D01*
X0038352Y0071079D01*
X0038250Y0070697D01*
X0038307Y0070909D02*
X0037500Y0070909D01*
X0037500Y0071908D02*
X0039208Y0071908D01*
X0037500Y0072906D02*
X0052200Y0072906D01*
X0051900Y0071908D02*
X0050292Y0071908D01*
X0050329Y0071898D02*
X0049947Y0072000D01*
X0045250Y0072000D01*
X0045250Y0061000D01*
X0044250Y0061000D01*
X0044250Y0060000D01*
X0045250Y0060000D01*
X0045250Y0061000D01*
X0051250Y0061000D01*
X0051250Y0070697D01*
X0051148Y0071079D01*
X0050950Y0071421D01*
X0050671Y0071700D01*
X0050329Y0071898D01*
X0051193Y0070909D02*
X0051930Y0070909D01*
X0052200Y0069911D02*
X0051250Y0069911D01*
X0051250Y0068912D02*
X0052824Y0068912D01*
X0052200Y0067914D02*
X0051250Y0067914D01*
X0051250Y0066915D02*
X0052200Y0066915D01*
X0052200Y0065917D02*
X0051250Y0065917D01*
X0051250Y0064918D02*
X0052200Y0064918D01*
X0052831Y0063920D02*
X0051250Y0063920D01*
X0051250Y0062921D02*
X0051774Y0062921D01*
X0051400Y0061923D02*
X0051250Y0061923D01*
X0051424Y0060924D02*
X0045250Y0060924D01*
X0045250Y0060000D02*
X0051250Y0060000D01*
X0051250Y0050303D01*
X0051148Y0049921D01*
X0050950Y0049579D01*
X0050671Y0049300D01*
X0050520Y0049213D01*
X0050531Y0049213D01*
X0050531Y0046940D01*
X0050429Y0046559D01*
X0050232Y0046217D01*
X0049953Y0045937D01*
X0049610Y0045740D01*
X0049229Y0045638D01*
X0047744Y0045638D01*
X0047744Y0049000D01*
X0047169Y0049000D01*
X0047169Y0045638D01*
X0045684Y0045638D01*
X0045303Y0045740D01*
X0044961Y0045937D01*
X0044682Y0046217D01*
X0044484Y0046559D01*
X0044382Y0046940D01*
X0044382Y0049213D01*
X0045250Y0049213D01*
X0045250Y0049787D01*
X0044382Y0049787D01*
X0044382Y0052060D01*
X0044484Y0052441D01*
X0044682Y0052783D01*
X0044961Y0053062D01*
X0045250Y0053229D01*
X0045250Y0060000D01*
X0045250Y0059926D02*
X0044250Y0059926D01*
X0044250Y0060000D02*
X0044250Y0049000D01*
X0039553Y0049000D01*
X0039171Y0049102D01*
X0038829Y0049300D01*
X0038550Y0049579D01*
X0038352Y0049921D01*
X0038250Y0050303D01*
X0038250Y0060000D01*
X0044250Y0060000D01*
X0044250Y0060924D02*
X0037300Y0060924D01*
X0037300Y0059926D02*
X0038250Y0059926D01*
X0038250Y0058927D02*
X0036661Y0058927D01*
X0037300Y0057929D02*
X0038250Y0057929D01*
X0038250Y0056930D02*
X0037300Y0056930D01*
X0037300Y0055932D02*
X0038250Y0055932D01*
X0038250Y0054933D02*
X0037300Y0054933D01*
X0038250Y0053934D02*
X0030667Y0053934D01*
X0030441Y0052429D02*
X0030060Y0052531D01*
X0027787Y0052531D01*
X0027787Y0049744D01*
X0027213Y0049744D01*
X0027213Y0052531D01*
X0024940Y0052531D01*
X0024559Y0052429D01*
X0024500Y0052395D01*
X0024441Y0052429D01*
X0024060Y0052531D01*
X0021787Y0052531D01*
X0021787Y0049744D01*
X0021213Y0049744D01*
X0021213Y0052531D01*
X0018940Y0052531D01*
X0018559Y0052429D01*
X0018217Y0052232D01*
X0017938Y0051953D01*
X0017740Y0051610D01*
X0017638Y0051229D01*
X0017638Y0049744D01*
X0021213Y0049744D01*
X0021213Y0049169D01*
X0021787Y0049169D01*
X0021787Y0046382D01*
X0024060Y0046382D01*
X0024441Y0046484D01*
X0024500Y0046518D01*
X0024559Y0046484D01*
X0024940Y0046382D01*
X0027213Y0046382D01*
X0027213Y0049169D01*
X0027787Y0049169D01*
X0027787Y0046382D01*
X0030060Y0046382D01*
X0030441Y0046484D01*
X0030783Y0046682D01*
X0031062Y0046961D01*
X0031260Y0047303D01*
X0031362Y0047684D01*
X0031362Y0049169D01*
X0027787Y0049169D01*
X0027787Y0049744D01*
X0031362Y0049744D01*
X0031362Y0051229D01*
X0031260Y0051610D01*
X0031062Y0051953D01*
X0030783Y0052232D01*
X0030441Y0052429D01*
X0031071Y0051937D02*
X0038250Y0051937D01*
X0038250Y0050939D02*
X0031362Y0050939D01*
X0031362Y0049940D02*
X0038347Y0049940D01*
X0038250Y0052936D02*
X0015000Y0052936D01*
X0015000Y0053934D02*
X0018333Y0053934D01*
X0017838Y0054933D02*
X0015000Y0054933D01*
X0015000Y0055932D02*
X0017838Y0055932D01*
X0017838Y0056930D02*
X0015000Y0056930D01*
X0015000Y0057929D02*
X0017838Y0057929D01*
X0018108Y0058927D02*
X0015000Y0058927D01*
X0015000Y0059926D02*
X0017838Y0059926D01*
X0017030Y0060924D02*
X0015000Y0060924D01*
X0015000Y0061923D02*
X0016032Y0061923D01*
X0015700Y0062921D02*
X0015000Y0062921D01*
X0015000Y0063920D02*
X0015700Y0063920D01*
X0015700Y0064918D02*
X0015000Y0064918D01*
X0015000Y0051937D02*
X0017929Y0051937D01*
X0017638Y0050939D02*
X0015000Y0050939D01*
X0015000Y0049940D02*
X0017638Y0049940D01*
X0017638Y0049169D02*
X0017638Y0047684D01*
X0017740Y0047303D01*
X0017938Y0046961D01*
X0018217Y0046682D01*
X0018559Y0046484D01*
X0018940Y0046382D01*
X0021213Y0046382D01*
X0021213Y0049169D01*
X0017638Y0049169D01*
X0017638Y0048942D02*
X0015000Y0048942D01*
X0015000Y0047943D02*
X0017638Y0047943D01*
X0017953Y0046945D02*
X0015000Y0046945D01*
X0015000Y0045946D02*
X0044952Y0045946D01*
X0044382Y0046945D02*
X0031047Y0046945D01*
X0031362Y0047943D02*
X0044382Y0047943D01*
X0044382Y0048942D02*
X0031362Y0048942D01*
X0027787Y0048942D02*
X0027213Y0048942D01*
X0027213Y0049169D02*
X0025362Y0049169D01*
X0021787Y0049169D01*
X0021787Y0049744D01*
X0027213Y0049744D01*
X0027213Y0049169D01*
X0027213Y0049940D02*
X0027787Y0049940D01*
X0027787Y0050939D02*
X0027213Y0050939D01*
X0027213Y0051937D02*
X0027787Y0051937D01*
X0027787Y0047943D02*
X0027213Y0047943D01*
X0027213Y0046945D02*
X0027787Y0046945D01*
X0030004Y0043949D02*
X0015000Y0043949D01*
X0015000Y0042951D02*
X0029005Y0042951D01*
X0028007Y0041952D02*
X0015000Y0041952D01*
X0015000Y0040954D02*
X0017108Y0040954D01*
X0016110Y0039955D02*
X0015000Y0039955D01*
X0015000Y0038957D02*
X0015700Y0038957D01*
X0015700Y0037958D02*
X0015000Y0037958D01*
X0015000Y0036960D02*
X0015700Y0036960D01*
X0015700Y0035961D02*
X0015000Y0035961D01*
X0015000Y0034963D02*
X0015700Y0034963D01*
X0015700Y0033964D02*
X0015000Y0033964D01*
X0015000Y0032966D02*
X0015700Y0032966D01*
X0015700Y0031967D02*
X0015000Y0031967D01*
X0015000Y0030969D02*
X0015700Y0030969D01*
X0015700Y0029970D02*
X0015000Y0029970D01*
X0015000Y0028972D02*
X0015983Y0028972D01*
X0015000Y0027973D02*
X0016981Y0027973D01*
X0017838Y0026975D02*
X0015000Y0026975D01*
X0015000Y0025976D02*
X0018157Y0025976D01*
X0017838Y0024978D02*
X0015000Y0024978D01*
X0015000Y0023979D02*
X0017838Y0023979D01*
X0017838Y0022981D02*
X0015000Y0022981D01*
X0015000Y0021982D02*
X0017838Y0021982D01*
X0018284Y0020984D02*
X0015000Y0020984D01*
X0015000Y0019985D02*
X0038250Y0019985D01*
X0038250Y0018987D02*
X0031028Y0018987D01*
X0031062Y0018953D02*
X0030783Y0019232D01*
X0030441Y0019429D01*
X0030060Y0019531D01*
X0027787Y0019531D01*
X0027787Y0016744D01*
X0027213Y0016744D01*
X0027213Y0019531D01*
X0024940Y0019531D01*
X0024559Y0019429D01*
X0024500Y0019395D01*
X0024441Y0019429D01*
X0024060Y0019531D01*
X0021787Y0019531D01*
X0021787Y0016744D01*
X0021213Y0016744D01*
X0021213Y0019531D01*
X0018940Y0019531D01*
X0018559Y0019429D01*
X0018217Y0019232D01*
X0017938Y0018953D01*
X0017740Y0018610D01*
X0017638Y0018229D01*
X0017638Y0016744D01*
X0021213Y0016744D01*
X0021213Y0016169D01*
X0021787Y0016169D01*
X0021787Y0013382D01*
X0024060Y0013382D01*
X0024441Y0013484D01*
X0024500Y0013518D01*
X0024559Y0013484D01*
X0024940Y0013382D01*
X0027213Y0013382D01*
X0027213Y0016169D01*
X0027787Y0016169D01*
X0027787Y0013382D01*
X0030060Y0013382D01*
X0030441Y0013484D01*
X0030783Y0013682D01*
X0031062Y0013961D01*
X0031260Y0014303D01*
X0031362Y0014684D01*
X0031362Y0016169D01*
X0027787Y0016169D01*
X0027787Y0016744D01*
X0031362Y0016744D01*
X0031362Y0018229D01*
X0031260Y0018610D01*
X0031062Y0018953D01*
X0031362Y0017988D02*
X0038250Y0017988D01*
X0038334Y0016990D02*
X0031362Y0016990D01*
X0031362Y0015991D02*
X0043482Y0015991D01*
X0043482Y0014993D02*
X0031362Y0014993D01*
X0031082Y0013994D02*
X0043482Y0013994D01*
X0044003Y0012996D02*
X0015000Y0012996D01*
X0015000Y0013994D02*
X0017918Y0013994D01*
X0017938Y0013961D02*
X0018217Y0013682D01*
X0018559Y0013484D01*
X0018940Y0013382D01*
X0021213Y0013382D01*
X0021213Y0016169D01*
X0017638Y0016169D01*
X0017638Y0014684D01*
X0017740Y0014303D01*
X0017938Y0013961D01*
X0017638Y0014993D02*
X0015000Y0014993D01*
X0015000Y0015991D02*
X0017638Y0015991D01*
X0017638Y0016990D02*
X0015000Y0016990D01*
X0015000Y0017988D02*
X0017638Y0017988D01*
X0017972Y0018987D02*
X0015000Y0018987D01*
X0021213Y0018987D02*
X0021787Y0018987D01*
X0021787Y0017988D02*
X0021213Y0017988D01*
X0021213Y0016990D02*
X0021787Y0016990D01*
X0021787Y0016744D02*
X0025362Y0016744D01*
X0027213Y0016744D01*
X0027213Y0016169D01*
X0021787Y0016169D01*
X0021787Y0016744D01*
X0021787Y0015991D02*
X0021213Y0015991D01*
X0021213Y0014993D02*
X0021787Y0014993D01*
X0021787Y0013994D02*
X0021213Y0013994D01*
X0027213Y0013994D02*
X0027787Y0013994D01*
X0027787Y0014993D02*
X0027213Y0014993D01*
X0027213Y0015991D02*
X0027787Y0015991D01*
X0027787Y0016990D02*
X0027213Y0016990D01*
X0027213Y0017988D02*
X0027787Y0017988D01*
X0027787Y0018987D02*
X0027213Y0018987D01*
X0036572Y0020984D02*
X0038250Y0020984D01*
X0038250Y0021982D02*
X0037300Y0021982D01*
X0037300Y0022981D02*
X0038250Y0022981D01*
X0038250Y0023979D02*
X0037300Y0023979D01*
X0037300Y0024978D02*
X0038250Y0024978D01*
X0038250Y0025976D02*
X0036612Y0025976D01*
X0037300Y0026975D02*
X0038250Y0026975D01*
X0037300Y0027973D02*
X0044250Y0027973D01*
X0044250Y0026975D02*
X0045250Y0026975D01*
X0045250Y0027973D02*
X0051404Y0027973D01*
X0051250Y0028000D02*
X0051250Y0037697D01*
X0051148Y0038079D01*
X0050950Y0038421D01*
X0050671Y0038700D01*
X0050329Y0038898D01*
X0049947Y0039000D01*
X0045250Y0039000D01*
X0045250Y0028000D01*
X0051250Y0028000D01*
X0051250Y0028972D02*
X0051400Y0028972D01*
X0051250Y0029970D02*
X0051795Y0029970D01*
X0051250Y0030969D02*
X0052880Y0030969D01*
X0052200Y0031967D02*
X0051250Y0031967D01*
X0051250Y0032966D02*
X0052200Y0032966D01*
X0052200Y0033964D02*
X0051250Y0033964D01*
X0051250Y0034963D02*
X0052200Y0034963D01*
X0052873Y0035961D02*
X0051250Y0035961D01*
X0051250Y0036960D02*
X0052063Y0036960D01*
X0051610Y0037958D02*
X0051180Y0037958D01*
X0051600Y0038957D02*
X0050109Y0038957D01*
X0051989Y0039955D02*
X0037498Y0039955D01*
X0037500Y0038957D02*
X0039391Y0038957D01*
X0038320Y0037958D02*
X0037500Y0037958D01*
X0037475Y0036960D02*
X0038250Y0036960D01*
X0038250Y0035961D02*
X0036902Y0035961D01*
X0037496Y0034963D02*
X0038250Y0034963D01*
X0038250Y0033964D02*
X0037500Y0033964D01*
X0037500Y0032966D02*
X0038250Y0032966D01*
X0038250Y0031967D02*
X0037477Y0031967D01*
X0036781Y0030969D02*
X0038250Y0030969D01*
X0038250Y0029970D02*
X0037300Y0029970D01*
X0037300Y0028972D02*
X0038250Y0028972D01*
X0033625Y0033964D02*
X0033375Y0033964D01*
X0033375Y0034963D02*
X0033625Y0034963D01*
X0033625Y0035961D02*
X0033375Y0035961D01*
X0033375Y0036960D02*
X0033625Y0036960D01*
X0033625Y0037958D02*
X0033375Y0037958D01*
X0033375Y0038957D02*
X0033625Y0038957D01*
X0033625Y0039955D02*
X0033375Y0039955D01*
X0033375Y0040954D02*
X0033625Y0040954D01*
X0032100Y0043500D02*
X0028000Y0039400D01*
X0018100Y0039400D01*
X0017500Y0038800D01*
X0017500Y0030000D01*
X0019043Y0028457D01*
X0021500Y0028457D01*
X0019300Y0031331D02*
X0019300Y0032469D01*
X0021213Y0032468D01*
X0021213Y0035256D01*
X0021787Y0035256D01*
X0021787Y0032469D01*
X0024060Y0032469D01*
X0024441Y0032571D01*
X0024500Y0032605D01*
X0024559Y0032571D01*
X0024940Y0032469D01*
X0027213Y0032468D01*
X0027213Y0035256D01*
X0027787Y0035256D01*
X0027787Y0032469D01*
X0029500Y0032469D01*
X0029500Y0032053D01*
X0029602Y0031671D01*
X0029798Y0031331D01*
X0024599Y0031331D01*
X0024500Y0031232D01*
X0024401Y0031331D01*
X0019300Y0031331D01*
X0019300Y0031967D02*
X0029523Y0031967D01*
X0027787Y0032966D02*
X0027213Y0032966D01*
X0027213Y0033964D02*
X0027787Y0033964D01*
X0027787Y0034963D02*
X0027213Y0034963D01*
X0027213Y0035256D02*
X0021787Y0035256D01*
X0021787Y0035831D01*
X0023638Y0035831D01*
X0027213Y0035831D01*
X0027213Y0035256D01*
X0021787Y0034963D02*
X0021213Y0034963D01*
X0021213Y0033964D02*
X0021787Y0033964D01*
X0021787Y0032966D02*
X0021213Y0032966D01*
X0015000Y0044948D02*
X0031002Y0044948D01*
X0032100Y0043500D02*
X0068000Y0043500D01*
X0069500Y0045000D01*
X0063821Y0045946D02*
X0061461Y0045946D01*
X0062031Y0046945D02*
X0063169Y0046945D01*
X0063169Y0047943D02*
X0062031Y0047943D01*
X0062031Y0048942D02*
X0063169Y0048942D01*
X0063169Y0049940D02*
X0062031Y0049940D01*
X0062031Y0050939D02*
X0063169Y0050939D01*
X0063169Y0051937D02*
X0062031Y0051937D01*
X0059244Y0048942D02*
X0058669Y0048942D01*
X0058669Y0047943D02*
X0059244Y0047943D01*
X0059244Y0046945D02*
X0058669Y0046945D01*
X0058669Y0045946D02*
X0059244Y0045946D01*
X0059135Y0040954D02*
X0064068Y0040954D01*
X0063070Y0039955D02*
X0059800Y0039955D01*
X0052865Y0040954D02*
X0036915Y0040954D01*
X0044250Y0038957D02*
X0045250Y0038957D01*
X0045250Y0037958D02*
X0044250Y0037958D01*
X0044250Y0036960D02*
X0045250Y0036960D01*
X0045250Y0035961D02*
X0044250Y0035961D01*
X0044250Y0034963D02*
X0045250Y0034963D01*
X0045250Y0033964D02*
X0044250Y0033964D01*
X0044250Y0032966D02*
X0045250Y0032966D01*
X0045250Y0031967D02*
X0044250Y0031967D01*
X0044250Y0030969D02*
X0045250Y0030969D01*
X0045250Y0029970D02*
X0044250Y0029970D01*
X0044250Y0028972D02*
X0045250Y0028972D01*
X0045250Y0025976D02*
X0044250Y0025976D01*
X0044250Y0024978D02*
X0045250Y0024978D01*
X0045250Y0023979D02*
X0044250Y0023979D01*
X0044250Y0022981D02*
X0045250Y0022981D01*
X0045250Y0021982D02*
X0044250Y0021982D01*
X0044250Y0020984D02*
X0045250Y0020984D01*
X0046269Y0015991D02*
X0046844Y0015991D01*
X0046844Y0014993D02*
X0046269Y0014993D01*
X0046269Y0013994D02*
X0046844Y0013994D01*
X0046844Y0012996D02*
X0046269Y0012996D01*
X0049111Y0012996D02*
X0051372Y0012996D01*
X0050769Y0013994D02*
X0049631Y0013994D01*
X0049631Y0014993D02*
X0050769Y0014993D01*
X0050769Y0015991D02*
X0049631Y0015991D01*
X0051250Y0021982D02*
X0051285Y0021982D01*
X0051250Y0022981D02*
X0051945Y0022981D01*
X0052200Y0023979D02*
X0051250Y0023979D01*
X0051250Y0024978D02*
X0052200Y0024978D01*
X0052888Y0025976D02*
X0051250Y0025976D01*
X0051250Y0026975D02*
X0051848Y0026975D01*
X0056986Y0020950D02*
X0058657Y0020950D01*
X0058657Y0020300D01*
X0058844Y0020113D01*
X0058844Y0016787D01*
X0058269Y0016787D01*
X0058269Y0020362D01*
X0056784Y0020362D01*
X0056403Y0020260D01*
X0056149Y0020113D01*
X0056986Y0020950D01*
X0058269Y0019985D02*
X0058844Y0019985D01*
X0058844Y0018987D02*
X0058269Y0018987D01*
X0058269Y0017988D02*
X0058844Y0017988D01*
X0058844Y0016990D02*
X0058269Y0016990D01*
X0058269Y0015991D02*
X0058844Y0015991D01*
X0058844Y0014993D02*
X0058269Y0014993D01*
X0058269Y0013994D02*
X0058844Y0013994D01*
X0058844Y0012996D02*
X0058269Y0012996D01*
X0056003Y0012996D02*
X0055914Y0012996D01*
X0061111Y0012996D02*
X0063372Y0012996D01*
X0062769Y0013994D02*
X0061631Y0013994D01*
X0061631Y0014993D02*
X0062769Y0014993D01*
X0062769Y0015991D02*
X0061631Y0015991D01*
X0061631Y0016990D02*
X0062769Y0016990D01*
X0062769Y0017988D02*
X0061631Y0017988D01*
X0061631Y0018987D02*
X0062769Y0018987D01*
X0068518Y0016990D02*
X0069005Y0016990D01*
X0052321Y0045946D02*
X0049961Y0045946D01*
X0050531Y0046945D02*
X0051669Y0046945D01*
X0051669Y0047943D02*
X0050531Y0047943D01*
X0050531Y0048942D02*
X0051669Y0048942D01*
X0051669Y0049940D02*
X0051153Y0049940D01*
X0051250Y0050939D02*
X0051669Y0050939D01*
X0051669Y0051937D02*
X0051250Y0051937D01*
X0051250Y0052936D02*
X0052043Y0052936D01*
X0052043Y0053934D02*
X0051250Y0053934D01*
X0051250Y0054933D02*
X0052043Y0054933D01*
X0052200Y0055932D02*
X0051250Y0055932D01*
X0051250Y0056930D02*
X0052200Y0056930D01*
X0052200Y0057929D02*
X0051250Y0057929D01*
X0051250Y0058927D02*
X0052839Y0058927D01*
X0051897Y0059926D02*
X0051250Y0059926D01*
X0045250Y0058927D02*
X0044250Y0058927D01*
X0044250Y0057929D02*
X0045250Y0057929D01*
X0045250Y0056930D02*
X0044250Y0056930D01*
X0044250Y0055932D02*
X0045250Y0055932D01*
X0045250Y0054933D02*
X0044250Y0054933D01*
X0044250Y0053934D02*
X0045250Y0053934D01*
X0044834Y0052936D02*
X0044250Y0052936D01*
X0044250Y0051937D02*
X0044382Y0051937D01*
X0044382Y0050939D02*
X0044250Y0050939D01*
X0044250Y0049940D02*
X0044382Y0049940D01*
X0047169Y0048942D02*
X0047744Y0048942D01*
X0047744Y0047943D02*
X0047169Y0047943D01*
X0047169Y0046945D02*
X0047744Y0046945D01*
X0047744Y0045946D02*
X0047169Y0045946D01*
X0045250Y0061923D02*
X0044250Y0061923D01*
X0044250Y0062921D02*
X0045250Y0062921D01*
X0045250Y0063920D02*
X0044250Y0063920D01*
X0044250Y0064918D02*
X0045250Y0064918D01*
X0045250Y0065917D02*
X0044250Y0065917D01*
X0044250Y0066915D02*
X0045250Y0066915D01*
X0045250Y0067914D02*
X0044250Y0067914D01*
X0044250Y0068912D02*
X0045250Y0068912D01*
X0045250Y0069911D02*
X0044250Y0069911D01*
X0044250Y0070909D02*
X0045250Y0070909D01*
X0045250Y0071908D02*
X0044250Y0071908D01*
X0036967Y0073905D02*
X0052816Y0073905D01*
X0038250Y0062921D02*
X0037300Y0062921D01*
X0037300Y0061923D02*
X0038250Y0061923D01*
X0033625Y0073905D02*
X0033375Y0073905D01*
X0018825Y0090879D02*
X0015000Y0090879D01*
X0015000Y0089881D02*
X0017141Y0089881D01*
X0015744Y0088882D02*
X0015000Y0088882D01*
X0015000Y0091878D02*
X0017117Y0091878D01*
X0016291Y0092876D02*
X0015000Y0092876D01*
X0015000Y0093875D02*
X0015877Y0093875D01*
X0015763Y0094873D02*
X0015000Y0094873D01*
X0015000Y0095872D02*
X0015772Y0095872D01*
X0016186Y0096870D02*
X0015000Y0096870D01*
X0015000Y0097869D02*
X0016864Y0097869D01*
X0018214Y0098868D02*
X0015000Y0098868D01*
X0015000Y0099866D02*
X0034588Y0099866D01*
X0035587Y0098868D02*
X0027786Y0098868D01*
X0027139Y0100865D02*
X0033514Y0100865D01*
X0032183Y0101863D02*
X0028868Y0101863D01*
X0029703Y0102862D02*
X0030851Y0102862D01*
X0031000Y0105000D02*
X0023000Y0105000D01*
X0018861Y0100865D02*
X0015000Y0100865D01*
X0015000Y0101863D02*
X0017132Y0101863D01*
X0016297Y0102862D02*
X0015000Y0102862D01*
X0015000Y0103860D02*
X0015883Y0103860D01*
X0015763Y0104859D02*
X0015000Y0104859D01*
X0015000Y0105857D02*
X0015766Y0105857D01*
X0016180Y0106856D02*
X0015000Y0106856D01*
X0015000Y0107854D02*
X0016849Y0107854D01*
X0018178Y0108853D02*
X0015000Y0108853D01*
X0015000Y0109851D02*
X0033603Y0109851D01*
X0032605Y0110850D02*
X0027103Y0110850D01*
X0028853Y0111848D02*
X0031606Y0111848D01*
X0030608Y0112847D02*
X0029697Y0112847D01*
X0031000Y0115000D02*
X0036000Y0110000D01*
X0043500Y0110000D01*
X0049500Y0104000D01*
X0052500Y0104000D01*
X0053000Y0104500D01*
X0064900Y0104600D01*
X0067400Y0107100D01*
X0086000Y0107000D01*
X0089500Y0110500D01*
X0088500Y0113500D02*
X0092000Y0113500D01*
X0093500Y0112000D01*
X0094200Y0113845D02*
X0107800Y0113845D01*
X0108798Y0114844D02*
X0094389Y0114844D01*
X0093500Y0116500D02*
X0088000Y0116500D01*
X0084500Y0120000D01*
X0084500Y0125500D01*
X0082000Y0128000D01*
X0063500Y0128000D01*
X0056000Y0120500D01*
X0056000Y0119300D01*
X0060268Y0118838D02*
X0061731Y0118838D01*
X0061731Y0119836D02*
X0060268Y0119836D01*
X0060268Y0120835D02*
X0061731Y0120835D01*
X0061731Y0121833D02*
X0060268Y0121833D01*
X0060268Y0122223D02*
X0062133Y0124088D01*
X0061731Y0123118D01*
X0061731Y0115482D01*
X0062381Y0113914D01*
X0063582Y0112713D01*
X0065151Y0112063D01*
X0066849Y0112063D01*
X0068418Y0112713D01*
X0069619Y0113914D01*
X0070268Y0115482D01*
X0070268Y0123118D01*
X0069619Y0124686D01*
X0068418Y0125887D01*
X0067663Y0126200D01*
X0073873Y0126200D01*
X0073658Y0126090D01*
X0073089Y0125677D01*
X0072592Y0125180D01*
X0072178Y0124611D01*
X0071859Y0123984D01*
X0071642Y0123315D01*
X0071531Y0122620D01*
X0071531Y0119784D01*
X0075516Y0119784D01*
X0075516Y0118816D01*
X0076484Y0118816D01*
X0076484Y0111884D01*
X0077046Y0111973D01*
X0077715Y0112190D01*
X0078342Y0112510D01*
X0078911Y0112923D01*
X0079408Y0113420D01*
X0079822Y0113989D01*
X0080141Y0114616D01*
X0080358Y0115285D01*
X0080468Y0115980D01*
X0080468Y0118816D01*
X0076484Y0118816D01*
X0076484Y0119784D01*
X0080468Y0119784D01*
X0080468Y0122620D01*
X0080358Y0123315D01*
X0080141Y0123984D01*
X0079822Y0124611D01*
X0079408Y0125180D01*
X0078911Y0125677D01*
X0078342Y0126090D01*
X0078127Y0126200D01*
X0081254Y0126200D01*
X0082700Y0124754D01*
X0082700Y0119254D01*
X0083754Y0118200D01*
X0087204Y0114750D01*
X0086700Y0114246D01*
X0083254Y0110800D01*
X0065454Y0110800D01*
X0063454Y0108800D01*
X0063217Y0108800D01*
X0063500Y0109483D01*
X0063500Y0110517D01*
X0063104Y0111473D01*
X0062373Y0112204D01*
X0061417Y0112600D01*
X0060383Y0112600D01*
X0060141Y0112500D01*
X0057904Y0112500D01*
X0058418Y0112713D01*
X0059619Y0113914D01*
X0060268Y0115482D01*
X0060268Y0122223D01*
X0060877Y0122832D02*
X0061731Y0122832D01*
X0061876Y0123830D02*
X0062027Y0123830D01*
X0061731Y0117839D02*
X0060268Y0117839D01*
X0060268Y0116841D02*
X0061731Y0116841D01*
X0061731Y0115842D02*
X0060268Y0115842D01*
X0060004Y0114844D02*
X0061996Y0114844D01*
X0062450Y0113845D02*
X0059550Y0113845D01*
X0058552Y0112847D02*
X0063448Y0112847D01*
X0062729Y0111848D02*
X0084303Y0111848D01*
X0085301Y0112847D02*
X0078806Y0112847D01*
X0079717Y0113845D02*
X0086300Y0113845D01*
X0087111Y0114844D02*
X0080215Y0114844D01*
X0080447Y0115842D02*
X0086112Y0115842D01*
X0085114Y0116841D02*
X0080468Y0116841D01*
X0080468Y0117839D02*
X0084115Y0117839D01*
X0083117Y0118838D02*
X0076484Y0118838D01*
X0075516Y0118838D02*
X0070268Y0118838D01*
X0070268Y0119836D02*
X0071531Y0119836D01*
X0071531Y0120835D02*
X0070268Y0120835D01*
X0070268Y0121833D02*
X0071531Y0121833D01*
X0071565Y0122832D02*
X0070268Y0122832D01*
X0069973Y0123830D02*
X0071809Y0123830D01*
X0072337Y0124829D02*
X0069476Y0124829D01*
X0068478Y0125827D02*
X0073296Y0125827D01*
X0078704Y0125827D02*
X0081627Y0125827D01*
X0082626Y0124829D02*
X0079663Y0124829D01*
X0080191Y0123830D02*
X0082700Y0123830D01*
X0082700Y0122832D02*
X0080435Y0122832D01*
X0080468Y0121833D02*
X0082700Y0121833D01*
X0082700Y0120835D02*
X0080468Y0120835D01*
X0080468Y0119836D02*
X0082700Y0119836D01*
X0088500Y0113500D02*
X0084000Y0109000D01*
X0066200Y0109000D01*
X0064200Y0107000D01*
X0051500Y0107000D01*
X0049676Y0108853D02*
X0047193Y0108853D01*
X0046194Y0109851D02*
X0049613Y0109851D01*
X0048615Y0110850D02*
X0045196Y0110850D01*
X0045141Y0111848D02*
X0047616Y0111848D01*
X0046772Y0112847D02*
X0045897Y0112847D01*
X0046304Y0113845D02*
X0046500Y0113845D01*
X0046500Y0114844D02*
X0042475Y0114844D01*
X0041525Y0114844D02*
X0033702Y0114844D01*
X0032703Y0115842D02*
X0037628Y0115842D01*
X0037944Y0116841D02*
X0029826Y0116841D01*
X0029166Y0117839D02*
X0038562Y0117839D01*
X0039730Y0118838D02*
X0027858Y0118838D01*
X0027610Y0120835D02*
X0038427Y0120835D01*
X0037750Y0121833D02*
X0029121Y0121833D01*
X0029879Y0122832D02*
X0037750Y0122832D01*
X0037750Y0123830D02*
X0030287Y0123830D01*
X0030362Y0125827D02*
X0037750Y0125827D01*
X0037750Y0124829D02*
X0023484Y0124829D01*
X0022516Y0124829D02*
X0015000Y0124829D01*
X0015000Y0125827D02*
X0015638Y0125827D01*
X0015947Y0126826D02*
X0015000Y0126826D01*
X0015000Y0127824D02*
X0016560Y0127824D01*
X0015713Y0123830D02*
X0015000Y0123830D01*
X0015000Y0122832D02*
X0016121Y0122832D01*
X0016879Y0121833D02*
X0015000Y0121833D01*
X0015000Y0120835D02*
X0018390Y0120835D01*
X0018142Y0118838D02*
X0015000Y0118838D01*
X0015000Y0119836D02*
X0043628Y0119836D01*
X0044270Y0118838D02*
X0044627Y0118838D01*
X0045438Y0117839D02*
X0045625Y0117839D01*
X0046056Y0116841D02*
X0046500Y0116841D01*
X0046500Y0115842D02*
X0046372Y0115842D01*
X0042475Y0115842D02*
X0041525Y0115842D01*
X0041525Y0116841D02*
X0042475Y0116841D01*
X0042475Y0117839D02*
X0041525Y0117839D01*
X0041525Y0118838D02*
X0042475Y0118838D01*
X0037696Y0113845D02*
X0034700Y0113845D01*
X0035699Y0112847D02*
X0038103Y0112847D01*
X0038859Y0111848D02*
X0036697Y0111848D01*
X0034602Y0108853D02*
X0027822Y0108853D01*
X0029151Y0107854D02*
X0038844Y0107854D01*
X0038168Y0106856D02*
X0031526Y0106856D01*
X0031261Y0106856D02*
X0029820Y0106856D01*
X0031000Y0105000D02*
X0035000Y0102000D01*
X0036900Y0100100D01*
X0036695Y0102862D02*
X0038286Y0102862D01*
X0037872Y0103860D02*
X0035520Y0103860D01*
X0034189Y0104859D02*
X0037750Y0104859D01*
X0037755Y0105857D02*
X0032857Y0105857D01*
X0031000Y0115000D02*
X0023000Y0115000D01*
X0018897Y0110850D02*
X0015000Y0110850D01*
X0015000Y0111848D02*
X0017147Y0111848D01*
X0016303Y0112847D02*
X0015000Y0112847D01*
X0015000Y0113845D02*
X0015890Y0113845D01*
X0015763Y0114844D02*
X0015000Y0114844D01*
X0015000Y0115842D02*
X0015763Y0115842D01*
X0016174Y0116841D02*
X0015000Y0116841D01*
X0015000Y0117839D02*
X0016834Y0117839D01*
X0022516Y0120835D02*
X0023484Y0120835D01*
X0023484Y0121833D02*
X0022516Y0121833D01*
X0022516Y0122832D02*
X0023484Y0122832D01*
X0023484Y0123830D02*
X0022516Y0123830D01*
X0029440Y0127824D02*
X0037750Y0127824D01*
X0037750Y0126826D02*
X0030053Y0126826D01*
X0048191Y0107854D02*
X0049040Y0107854D01*
X0053500Y0100000D02*
X0055500Y0100000D01*
X0056000Y0100500D01*
X0066900Y0100500D01*
X0068900Y0102500D01*
X0092000Y0102500D01*
X0092500Y0102000D01*
X0107000Y0102000D01*
X0108000Y0103000D01*
X0105984Y0117839D02*
X0097385Y0117839D01*
X0098383Y0118838D02*
X0105167Y0118838D01*
X0104900Y0119836D02*
X0099300Y0119836D01*
X0099300Y0120835D02*
X0104120Y0120835D01*
X0103121Y0121833D02*
X0100510Y0121833D01*
X0101330Y0122832D02*
X0102123Y0122832D01*
X0101700Y0123830D02*
X0101600Y0123830D01*
X0101700Y0124829D02*
X0101471Y0124829D01*
X0101700Y0125827D02*
X0100850Y0125827D01*
X0101700Y0126826D02*
X0096013Y0126826D01*
X0096594Y0125827D02*
X0097150Y0125827D01*
X0099000Y0124000D02*
X0097500Y0122500D01*
X0097500Y0120500D01*
X0093500Y0116500D01*
X0095014Y0127824D02*
X0101779Y0127824D01*
X0083304Y0110850D02*
X0063362Y0110850D01*
X0063500Y0109851D02*
X0064506Y0109851D01*
X0063507Y0108853D02*
X0063239Y0108853D01*
X0068552Y0112847D02*
X0073194Y0112847D01*
X0073089Y0112923D02*
X0073658Y0112510D01*
X0074285Y0112190D01*
X0074954Y0111973D01*
X0075516Y0111884D01*
X0075516Y0118816D01*
X0071531Y0118816D01*
X0071531Y0115980D01*
X0071642Y0115285D01*
X0071859Y0114616D01*
X0072178Y0113989D01*
X0072592Y0113420D01*
X0073089Y0112923D01*
X0072283Y0113845D02*
X0069550Y0113845D01*
X0070004Y0114844D02*
X0071785Y0114844D01*
X0071553Y0115842D02*
X0070268Y0115842D01*
X0070268Y0116841D02*
X0071531Y0116841D01*
X0071531Y0117839D02*
X0070268Y0117839D01*
X0075516Y0117839D02*
X0076484Y0117839D01*
X0076484Y0116841D02*
X0075516Y0116841D01*
X0075516Y0115842D02*
X0076484Y0115842D01*
X0076484Y0114844D02*
X0075516Y0114844D01*
X0075516Y0113845D02*
X0076484Y0113845D01*
X0076484Y0112847D02*
X0075516Y0112847D01*
X0105043Y0072543D02*
X0105000Y0072500D01*
X0123959Y0067914D02*
X0157400Y0067914D01*
X0157400Y0068912D02*
X0155283Y0068912D01*
X0155750Y0069911D02*
X0157400Y0069911D01*
X0157400Y0070909D02*
X0155750Y0070909D01*
X0155750Y0071908D02*
X0157400Y0071908D01*
X0157400Y0072906D02*
X0155750Y0072906D01*
X0155750Y0073905D02*
X0157400Y0073905D01*
X0157400Y0074903D02*
X0155750Y0074903D01*
X0155461Y0075902D02*
X0157400Y0075902D01*
X0150717Y0068912D02*
X0150283Y0068912D01*
X0148125Y0068912D02*
X0147875Y0068912D01*
X0147875Y0069911D02*
X0148125Y0069911D01*
X0148125Y0070909D02*
X0147875Y0070909D01*
X0147875Y0071908D02*
X0148125Y0071908D01*
X0145717Y0068912D02*
X0145001Y0068912D01*
X0153500Y0058927D02*
X0157400Y0058927D01*
X0157400Y0057929D02*
X0153500Y0057929D01*
X0153500Y0056930D02*
X0157400Y0056930D01*
X0157400Y0055932D02*
X0153468Y0055932D01*
X0145062Y0044948D02*
X0144472Y0044948D01*
X0145062Y0043949D02*
X0143473Y0043949D01*
X0142938Y0042951D02*
X0145062Y0042951D01*
X0145062Y0041952D02*
X0142938Y0041952D01*
X0142938Y0040954D02*
X0145062Y0040954D01*
X0145062Y0039955D02*
X0142938Y0039955D01*
X0142938Y0038957D02*
X0145062Y0038957D01*
X0141258Y0053934D02*
X0137538Y0053934D01*
X0128687Y0057929D02*
X0128113Y0057929D01*
X0128113Y0058927D02*
X0128687Y0058927D01*
X0128687Y0060924D02*
X0128113Y0060924D01*
X0128113Y0061923D02*
X0128687Y0061923D01*
X0128687Y0062921D02*
X0128113Y0062921D01*
X0127787Y0102862D02*
X0127213Y0102862D01*
X0127213Y0103860D02*
X0127787Y0103860D01*
X0127787Y0104859D02*
X0127213Y0104859D01*
X0021787Y0051937D02*
X0021213Y0051937D01*
X0021213Y0050939D02*
X0021787Y0050939D01*
X0021787Y0049940D02*
X0021213Y0049940D01*
X0021213Y0048942D02*
X0021787Y0048942D01*
X0021787Y0047943D02*
X0021213Y0047943D01*
X0021213Y0046945D02*
X0021787Y0046945D01*
D24*
X0025100Y0043600D03*
X0027500Y0056600D03*
X0045000Y0057000D03*
X0045000Y0066000D03*
X0054000Y0061500D03*
X0054500Y0071500D03*
X0053000Y0078500D03*
X0046600Y0088800D03*
X0035500Y0091500D03*
X0030500Y0100000D03*
X0035300Y0106600D03*
X0048500Y0109200D03*
X0051500Y0107000D03*
X0060900Y0110000D03*
X0071000Y0112000D03*
X0085500Y0115000D03*
X0089500Y0110500D03*
X0095500Y0109000D03*
X0093500Y0105000D03*
X0096500Y0115500D03*
X0099000Y0124000D03*
X0107500Y0120000D03*
X0112000Y0118500D03*
X0116600Y0108600D03*
X0112500Y0106500D03*
X0108000Y0103000D03*
X0111500Y0099500D03*
X0120100Y0089000D03*
X0121000Y0099500D03*
X0127500Y0102500D03*
X0133500Y0093500D03*
X0130300Y0086000D03*
X0137500Y0078500D03*
X0142957Y0084500D03*
X0144700Y0090100D03*
X0155500Y0080500D03*
X0147500Y0061000D03*
X0143000Y0052000D03*
X0138500Y0061000D03*
X0127000Y0069500D03*
X0121700Y0077700D03*
X0114500Y0061000D03*
X0110000Y0052000D03*
X0105500Y0061000D03*
X0089000Y0060500D03*
X0085500Y0063000D03*
X0089500Y0051500D03*
X0072500Y0070000D03*
X0072000Y0050500D03*
X0069500Y0045000D03*
X0054200Y0038500D03*
X0054000Y0028500D03*
X0045000Y0024000D03*
X0045000Y0033000D03*
X0027500Y0023000D03*
X0016600Y0014000D03*
X0077000Y0015500D03*
X0097000Y0015500D03*
X0117000Y0015500D03*
X0126100Y0035100D03*
X0111000Y0038500D03*
X0120000Y0051500D03*
X0144000Y0038000D03*
X0154500Y0026000D03*
X0137000Y0015500D03*
X0153000Y0051500D03*
X0104500Y0079000D03*
X0125800Y0112500D03*
X0129100Y0119300D03*
X0122000Y0119500D03*
X0135000Y0124500D03*
X0033700Y0120900D03*
X0027200Y0087700D03*
D25*
X0093500Y0105000D02*
X0105500Y0105000D01*
X0112500Y0112000D01*
X0118200Y0112000D01*
X0120900Y0109300D01*
X0130800Y0109300D01*
X0133500Y0112000D01*
X0135500Y0112000D01*
X0144500Y0103000D01*
X0131057Y0120000D02*
X0131500Y0120443D01*
X0131057Y0120000D02*
X0129100Y0119300D01*
X0122000Y0119500D02*
X0121000Y0118500D01*
X0119043Y0118500D01*
D26*
X0066988Y0068012D02*
X0073500Y0061500D01*
X0073500Y0057500D01*
X0073900Y0057500D01*
X0092205Y0039095D01*
X0092305Y0037405D01*
X0094011Y0035800D01*
X0095300Y0035800D01*
X0102000Y0029100D01*
X0102000Y0023000D01*
X0092000Y0023000D02*
X0092000Y0027889D01*
X0087295Y0032395D01*
X0085700Y0034189D01*
X0085700Y0036900D01*
X0072100Y0050500D01*
X0072000Y0050500D01*
X0074500Y0039500D02*
X0067988Y0039500D01*
X0063500Y0035012D01*
X0074500Y0039500D02*
X0079543Y0034557D01*
X0079543Y0032500D01*
X0079543Y0031400D01*
X0081900Y0029043D01*
X0082000Y0023000D01*
X0116512Y0035488D02*
X0116512Y0042500D01*
X0116512Y0035488D02*
X0120000Y0032000D01*
X0122000Y0030000D01*
X0122000Y0023000D01*
X0142000Y0023000D02*
X0149512Y0030512D01*
X0149512Y0042500D01*
X0066988Y0068012D02*
X0063500Y0068012D01*
D27*
X0131700Y0112600D02*
X0133400Y0113357D01*
X0131500Y0113357D01*
X0137200Y0113357D01*
M02*
