%
M48
M72
T01C0.01000
T02C0.03900
T03C0.03937
T04C0.07500
T05C0.16000
%
T01
X16600Y14000
X27500Y23000
X45000Y24000
X45000Y33000
X54000Y28500
X54200Y38500
X69500Y45000
X72000Y50500
X85500Y63000
X89000Y60500
X89500Y51500
X105500Y61000
X110000Y52000
X114500Y61000
X120000Y51500
X111000Y38500
X126100Y35100
X144000Y38000
X143000Y52000
X138500Y61000
X147500Y61000
X153000Y51500
X154500Y26000
X137000Y15500
X117000Y15500
X97000Y15500
X77000Y15500
X45000Y57000
X45000Y66000
X54000Y61500
X54500Y71500
X53000Y78500
X46600Y88800
X35500Y91500
X30500Y100000
X35300Y106600
X48500Y109200
X51500Y107000
X60900Y110000
X71000Y112000
X85500Y115000
X89500Y110500
X95500Y109000
X93500Y105000
X96500Y115500
X99000Y124000
X107500Y120000
X112000Y118500
X116600Y108600
X112500Y106500
X108000Y103000
X111500Y99500
X120100Y89000
X121000Y99500
X127500Y102500
X133500Y93500
X130300Y86000
X137500Y78500
X142957Y84500
X144700Y90100
X155500Y80500
X127000Y69500
X121700Y77700
X104500Y79000
X125800Y112500
X129100Y119300
X122000Y119500
X135000Y124500
X72500Y70000
X33700Y120900
X27200Y87700
X27500Y56600
X25100Y43600
T02
X42000Y95000
X42000Y105000
X42000Y115000
X42000Y125000
X144500Y123000
X144500Y113000
X144500Y103000
X154500Y103000
X154500Y113000
X154500Y123000
T03
X76000Y119300
X66000Y119300
X56000Y119300
X23000Y115000
X23000Y105000
X23000Y95000
X23000Y125000
X72000Y23000
X82000Y23000
X92000Y23000
X102000Y23000
X112000Y23000
X122000Y23000
X132000Y23000
X142000Y23000
T04
X152500Y17500
X91000Y123000
X20000Y84300
T05
X60000Y89000
X83500Y89000
M30
