G75*
%MOIN*%
%OFA0B0*%
%FSLAX25Y25*%
%IPPOS*%
%LPD*%
%AMOC8*
5,1,8,0,0,1.08239X$1,22.5*
%
%ADD10R,0.05800X0.04800*%
%ADD11R,0.04800X0.05800*%
%ADD12R,0.02600X0.04800*%
%ADD13OC8,0.06400*%
%ADD14R,0.06700X0.06700*%
%ADD15C,0.06700*%
%ADD16R,0.01824X0.06706*%
%ADD17R,0.06706X0.01824*%
%ADD18R,0.05556X0.05556*%
%ADD19C,0.05556*%
%ADD20C,0.03778*%
%ADD21C,0.03800*%
D10*
X0112000Y0023181D03*
X0112000Y0031780D03*
X0108500Y0105220D03*
X0108500Y0113819D03*
X0107500Y0121181D03*
X0097500Y0121181D03*
X0097500Y0113819D03*
X0097500Y0105220D03*
X0086500Y0105220D03*
X0086500Y0113819D03*
X0088000Y0120681D03*
X0088000Y0129280D03*
X0097500Y0129780D03*
X0107500Y0129780D03*
X0117500Y0129780D03*
X0127500Y0129780D03*
X0127500Y0121181D03*
X0130500Y0113819D03*
X0130500Y0105220D03*
X0119500Y0105220D03*
X0119500Y0113819D03*
X0117500Y0121181D03*
D11*
X0147220Y0086500D03*
X0155819Y0086500D03*
X0163181Y0085500D03*
X0171780Y0085500D03*
X0171780Y0075500D03*
X0163181Y0075500D03*
X0155819Y0075500D03*
X0147220Y0075500D03*
X0147220Y0064500D03*
X0155819Y0064500D03*
X0163181Y0065500D03*
X0171780Y0065500D03*
X0171780Y0055500D03*
X0163181Y0055500D03*
X0155819Y0053500D03*
X0147220Y0053500D03*
X0147220Y0042500D03*
X0155819Y0042500D03*
X0163181Y0045500D03*
X0171780Y0045500D03*
X0169819Y0026000D03*
X0161220Y0026000D03*
X0146780Y0029500D03*
X0138181Y0029500D03*
X0138220Y0020500D03*
X0146819Y0020500D03*
X0090319Y0019500D03*
X0081720Y0019500D03*
X0067819Y0035000D03*
X0059220Y0035000D03*
X0059181Y0044500D03*
X0067780Y0044500D03*
X0067780Y0055500D03*
X0059181Y0055500D03*
X0051819Y0056500D03*
X0043220Y0056500D03*
X0043220Y0065500D03*
X0051819Y0065500D03*
X0059181Y0066500D03*
X0067780Y0066500D03*
X0067780Y0077500D03*
X0059181Y0077500D03*
X0051819Y0074500D03*
X0043220Y0074500D03*
X0043220Y0083500D03*
X0051819Y0083500D03*
X0059181Y0088500D03*
X0067780Y0088500D03*
X0053280Y0022000D03*
X0044681Y0022000D03*
D12*
X0038100Y0025300D03*
X0035500Y0025300D03*
X0032900Y0025300D03*
X0030300Y0025300D03*
X0030300Y0033100D03*
X0032900Y0033100D03*
X0035500Y0033100D03*
X0038100Y0033100D03*
X0038100Y0061300D03*
X0035500Y0061300D03*
X0032900Y0061300D03*
X0030300Y0061300D03*
X0030300Y0069100D03*
X0032900Y0069100D03*
X0035500Y0069100D03*
X0038100Y0069100D03*
X0037100Y0097300D03*
X0034500Y0097300D03*
X0031900Y0097300D03*
X0029300Y0097300D03*
X0029300Y0105100D03*
X0031900Y0105100D03*
X0034500Y0105100D03*
X0037100Y0105100D03*
X0037100Y0133300D03*
X0034500Y0133300D03*
X0031900Y0133300D03*
X0029300Y0133300D03*
X0029300Y0141100D03*
X0031900Y0141100D03*
X0034500Y0141100D03*
X0037100Y0141100D03*
X0183900Y0141700D03*
X0186500Y0141700D03*
X0189100Y0141700D03*
X0191700Y0141700D03*
X0191700Y0133900D03*
X0189100Y0133900D03*
X0186500Y0133900D03*
X0183900Y0133900D03*
X0183900Y0105700D03*
X0186500Y0105700D03*
X0189100Y0105700D03*
X0191700Y0105700D03*
X0191700Y0097900D03*
X0189100Y0097900D03*
X0186500Y0097900D03*
X0183900Y0097900D03*
X0183900Y0069700D03*
X0186500Y0069700D03*
X0189100Y0069700D03*
X0191700Y0069700D03*
X0191700Y0061900D03*
X0189100Y0061900D03*
X0186500Y0061900D03*
X0183900Y0061900D03*
X0183900Y0033700D03*
X0186500Y0033700D03*
X0189100Y0033700D03*
X0191700Y0033700D03*
X0191700Y0025900D03*
X0189100Y0025900D03*
X0186500Y0025900D03*
X0183900Y0025900D03*
D13*
X0195500Y0020500D03*
X0210500Y0020500D03*
X0210500Y0038500D03*
X0195500Y0038500D03*
X0195500Y0056500D03*
X0210500Y0056500D03*
X0210500Y0074500D03*
X0195500Y0074500D03*
X0195500Y0092500D03*
X0210500Y0092500D03*
X0210500Y0110500D03*
X0195500Y0110500D03*
X0195500Y0128500D03*
X0210500Y0128500D03*
X0210500Y0146500D03*
X0195500Y0146500D03*
X0025500Y0146500D03*
X0010500Y0146500D03*
X0010500Y0128500D03*
X0025500Y0128500D03*
X0025500Y0110500D03*
X0010500Y0110500D03*
X0010500Y0092500D03*
X0025500Y0092500D03*
X0025500Y0074500D03*
X0010500Y0074500D03*
X0010500Y0056500D03*
X0025500Y0056500D03*
X0025500Y0038500D03*
X0010500Y0038500D03*
X0010500Y0020500D03*
X0025500Y0020500D03*
D14*
X0105500Y0008500D03*
X0195500Y0008500D03*
X0115500Y0175500D03*
X0095500Y0175500D03*
D15*
X0085500Y0175500D03*
X0075500Y0175500D03*
X0065500Y0175500D03*
X0055500Y0175500D03*
X0045500Y0175500D03*
X0035500Y0175500D03*
X0025500Y0175500D03*
X0125500Y0175500D03*
X0135500Y0175500D03*
X0145500Y0175500D03*
X0155500Y0175500D03*
X0165500Y0175500D03*
X0175500Y0175500D03*
X0185500Y0175500D03*
X0195500Y0175500D03*
X0185500Y0008500D03*
X0175500Y0008500D03*
X0165500Y0008500D03*
X0155500Y0008500D03*
X0145500Y0008500D03*
X0135500Y0008500D03*
X0125500Y0008500D03*
X0115500Y0008500D03*
X0095500Y0008500D03*
X0085500Y0008500D03*
X0075500Y0008500D03*
X0065500Y0008500D03*
X0055500Y0008500D03*
X0045500Y0008500D03*
X0035500Y0008500D03*
X0025500Y0008500D03*
D16*
X0088799Y0037941D03*
X0090768Y0037941D03*
X0092736Y0037941D03*
X0094705Y0037941D03*
X0096673Y0037941D03*
X0098642Y0037941D03*
X0100610Y0037941D03*
X0102579Y0037941D03*
X0104547Y0037941D03*
X0106516Y0037941D03*
X0108484Y0037941D03*
X0110453Y0037941D03*
X0112421Y0037941D03*
X0114390Y0037941D03*
X0116358Y0037941D03*
X0118327Y0037941D03*
X0120295Y0037941D03*
X0122264Y0037941D03*
X0124232Y0037941D03*
X0126201Y0037941D03*
X0126201Y0093059D03*
X0124232Y0093059D03*
X0122264Y0093059D03*
X0120295Y0093059D03*
X0118327Y0093059D03*
X0116358Y0093059D03*
X0114390Y0093059D03*
X0112421Y0093059D03*
X0110453Y0093059D03*
X0108484Y0093059D03*
X0106516Y0093059D03*
X0104547Y0093059D03*
X0102579Y0093059D03*
X0100610Y0093059D03*
X0098642Y0093059D03*
X0096673Y0093059D03*
X0094705Y0093059D03*
X0092736Y0093059D03*
X0090768Y0093059D03*
X0088799Y0093059D03*
D17*
X0079941Y0084201D03*
X0079941Y0082232D03*
X0079941Y0080264D03*
X0079941Y0078295D03*
X0079941Y0076327D03*
X0079941Y0074358D03*
X0079941Y0072390D03*
X0079941Y0070421D03*
X0079941Y0068453D03*
X0079941Y0066484D03*
X0079941Y0064516D03*
X0079941Y0062547D03*
X0079941Y0060579D03*
X0079941Y0058610D03*
X0079941Y0056642D03*
X0079941Y0054673D03*
X0079941Y0052705D03*
X0079941Y0050736D03*
X0079941Y0048768D03*
X0079941Y0046799D03*
X0135059Y0046799D03*
X0135059Y0048768D03*
X0135059Y0050736D03*
X0135059Y0052705D03*
X0135059Y0054673D03*
X0135059Y0056642D03*
X0135059Y0058610D03*
X0135059Y0060579D03*
X0135059Y0062547D03*
X0135059Y0064516D03*
X0135059Y0066484D03*
X0135059Y0068453D03*
X0135059Y0070421D03*
X0135059Y0072390D03*
X0135059Y0074358D03*
X0135059Y0076327D03*
X0135059Y0078295D03*
X0135059Y0080264D03*
X0135059Y0082232D03*
X0135059Y0084201D03*
D18*
X0074004Y0149563D03*
D19*
X0081878Y0149563D03*
X0089752Y0149563D03*
X0097626Y0149563D03*
X0105500Y0149563D03*
X0105500Y0157437D03*
X0097626Y0157437D03*
X0089752Y0157437D03*
X0081878Y0157437D03*
X0074004Y0157437D03*
X0113374Y0157437D03*
X0121248Y0157437D03*
X0121248Y0149563D03*
X0113374Y0149563D03*
X0129122Y0149563D03*
X0136996Y0149563D03*
X0136996Y0157437D03*
X0129122Y0157437D03*
D20*
X0158089Y0152911D03*
X0162775Y0158225D03*
X0167461Y0163539D03*
X0179500Y0155000D03*
X0185500Y0157948D03*
X0151500Y0086500D03*
X0129000Y0080500D03*
X0098500Y0063000D03*
X0092500Y0065000D03*
X0096500Y0069500D03*
X0088000Y0071500D03*
X0094500Y0087500D03*
X0086500Y0109500D03*
X0038500Y0119500D03*
X0044000Y0154500D03*
X0070450Y0165889D03*
X0094000Y0167000D03*
X0117681Y0053500D03*
X0117000Y0047319D03*
X0112000Y0045500D03*
X0107500Y0031500D03*
X0097000Y0045000D03*
X0090319Y0019500D03*
X0059220Y0027941D03*
X0134000Y0038000D03*
X0160500Y0011500D03*
X0169819Y0026000D03*
D21*
X0015500Y0010500D03*
X0034000Y0016500D03*
X0045500Y0032000D03*
X0063500Y0044500D03*
X0082000Y0036000D03*
X0097500Y0050000D03*
X0101500Y0043500D03*
X0085200Y0053500D03*
X0100500Y0067500D03*
X0109500Y0063500D03*
X0122500Y0080500D03*
X0087000Y0076500D03*
X0063000Y0098500D03*
X0061000Y0114500D03*
X0063500Y0136500D03*
X0036500Y0115500D03*
X0031500Y0124500D03*
X0014500Y0119500D03*
X0033000Y0088500D03*
X0036500Y0080500D03*
X0014500Y0083500D03*
X0014500Y0065500D03*
X0014500Y0047500D03*
X0014500Y0029500D03*
X0062500Y0017000D03*
X0081500Y0020000D03*
X0102000Y0017500D03*
X0122500Y0015500D03*
X0155000Y0026500D03*
X0167000Y0018500D03*
X0163500Y0038500D03*
X0170000Y0039500D03*
X0179500Y0046500D03*
X0203500Y0047500D03*
X0205500Y0029500D03*
X0205500Y0065500D03*
X0204500Y0083500D03*
X0205500Y0102500D03*
X0204500Y0119500D03*
X0187500Y0125500D03*
X0179500Y0117500D03*
X0175500Y0103500D03*
X0172500Y0092500D03*
X0148500Y0109500D03*
X0154500Y0137500D03*
X0180500Y0149500D03*
X0204500Y0156500D03*
X0206500Y0137500D03*
X0113000Y0139000D03*
X0034000Y0153500D03*
X0015500Y0156500D03*
X0127000Y0046000D03*
M02*
