%
M48
M72
T01C0.01378
T02C0.01400
T03C0.02756
T04C0.03600
T05C0.03900
%
T01
X59220Y27941
X90319Y19500
X107500Y31500
X112000Y45500
X117000Y47319
X117681Y53500
X134000Y38000
X160500Y11500
X169819Y26000
X129000Y80500
X151500Y86500
X98500Y63000
X92500Y65000
X96500Y69500
X88000Y71500
X94500Y87500
X86500Y109500
X38500Y119500
X44000Y154500
X70450Y165889
X94000Y167000
X158089Y152911
X162775Y158225
X167461Y163539
X179500Y155000
X185500Y157948
X97000Y45000
T02
X15500Y10500
X34000Y16500
X45500Y32000
X63500Y44500
X82000Y36000
X97500Y50000
X101500Y43500
X85200Y53500
X100500Y67500
X109500Y63500
X122500Y80500
X87000Y76500
X63000Y98500
X61000Y114500
X63500Y136500
X36500Y115500
X31500Y124500
X14500Y119500
X33000Y88500
X36500Y80500
X14500Y83500
X14500Y65500
X14500Y47500
X14500Y29500
X62500Y17000
X81500Y20000
X102000Y17500
X122500Y15500
X155000Y26500
X167000Y18500
X163500Y38500
X170000Y39500
X179500Y46500
X203500Y47500
X205500Y29500
X205500Y65500
X204500Y83500
X205500Y102500
X204500Y119500
X187500Y125500
X179500Y117500
X175500Y103500
X172500Y92500
X148500Y109500
X154500Y137500
X180500Y149500
X204500Y156500
X206500Y137500
X113000Y139000
X34000Y153500
X15500Y156500
X127000Y46000
T03
X129122Y149563
X136996Y149563
X136996Y157437
X129122Y157437
X121248Y157437
X113374Y157437
X113374Y149563
X121248Y149563
X105500Y149563
X97626Y149563
X97626Y157437
X105500Y157437
X89752Y157437
X89752Y149563
X81878Y149563
X74004Y149563
X74004Y157437
X81878Y157437
T04
X25500Y146500
X10500Y146500
X10500Y128500
X25500Y128500
X25500Y110500
X10500Y110500
X10500Y92500
X25500Y92500
X25500Y74500
X10500Y74500
X10500Y56500
X25500Y56500
X25500Y38500
X10500Y38500
X10500Y20500
X25500Y20500
X195500Y20500
X210500Y20500
X210500Y38500
X195500Y38500
X195500Y56500
X210500Y56500
X210500Y74500
X195500Y74500
X195500Y92500
X210500Y92500
X210500Y110500
X195500Y110500
X195500Y128500
X210500Y128500
X210500Y146500
X195500Y146500
T05
X195500Y175500
X185500Y175500
X175500Y175500
X165500Y175500
X155500Y175500
X145500Y175500
X135500Y175500
X125500Y175500
X115500Y175500
X95500Y175500
X85500Y175500
X75500Y175500
X65500Y175500
X55500Y175500
X45500Y175500
X35500Y175500
X25500Y175500
X25500Y8500
X35500Y8500
X45500Y8500
X55500Y8500
X65500Y8500
X75500Y8500
X85500Y8500
X95500Y8500
X105500Y8500
X115500Y8500
X125500Y8500
X135500Y8500
X145500Y8500
X155500Y8500
X165500Y8500
X175500Y8500
X185500Y8500
X195500Y8500
M30
