G75*
%MOIN*%
%OFA0B0*%
%FSLAX25Y25*%
%IPPOS*%
%LPD*%
%AMOC8*
5,1,8,0,0,1.08239X$1,22.5*
%
%ADD10C,0.00500*%
%ADD11C,0.00200*%
%ADD12C,0.00000*%
%ADD13C,0.00394*%
D10*
X0079457Y0040563D02*
X0079457Y0048437D01*
X0079850Y0048437D01*
X0086150Y0048437D02*
X0086543Y0048437D01*
X0086543Y0040563D01*
X0086150Y0040563D01*
X0087457Y0040563D02*
X0087457Y0048437D01*
X0087850Y0048437D01*
X0094150Y0048437D02*
X0094543Y0048437D01*
X0094543Y0040563D01*
X0094150Y0040563D01*
X0094000Y0039000D02*
X0094002Y0039044D01*
X0094008Y0039088D01*
X0094018Y0039131D01*
X0094031Y0039173D01*
X0094048Y0039214D01*
X0094069Y0039253D01*
X0094093Y0039290D01*
X0094120Y0039325D01*
X0094150Y0039357D01*
X0094183Y0039387D01*
X0094219Y0039413D01*
X0094256Y0039437D01*
X0094296Y0039456D01*
X0094337Y0039473D01*
X0094380Y0039485D01*
X0094423Y0039494D01*
X0094467Y0039499D01*
X0094511Y0039500D01*
X0094555Y0039497D01*
X0094599Y0039490D01*
X0094642Y0039479D01*
X0094684Y0039465D01*
X0094724Y0039447D01*
X0094763Y0039425D01*
X0094799Y0039401D01*
X0094833Y0039373D01*
X0094865Y0039342D01*
X0094894Y0039308D01*
X0094920Y0039272D01*
X0094942Y0039234D01*
X0094961Y0039194D01*
X0094976Y0039152D01*
X0094988Y0039110D01*
X0094996Y0039066D01*
X0095000Y0039022D01*
X0095000Y0038978D01*
X0094996Y0038934D01*
X0094988Y0038890D01*
X0094976Y0038848D01*
X0094961Y0038806D01*
X0094942Y0038766D01*
X0094920Y0038728D01*
X0094894Y0038692D01*
X0094865Y0038658D01*
X0094833Y0038627D01*
X0094799Y0038599D01*
X0094763Y0038575D01*
X0094724Y0038553D01*
X0094684Y0038535D01*
X0094642Y0038521D01*
X0094599Y0038510D01*
X0094555Y0038503D01*
X0094511Y0038500D01*
X0094467Y0038501D01*
X0094423Y0038506D01*
X0094380Y0038515D01*
X0094337Y0038527D01*
X0094296Y0038544D01*
X0094256Y0038563D01*
X0094219Y0038587D01*
X0094183Y0038613D01*
X0094150Y0038643D01*
X0094120Y0038675D01*
X0094093Y0038710D01*
X0094069Y0038747D01*
X0094048Y0038786D01*
X0094031Y0038827D01*
X0094018Y0038869D01*
X0094008Y0038912D01*
X0094002Y0038956D01*
X0094000Y0039000D01*
X0087850Y0040563D02*
X0087457Y0040563D01*
X0086000Y0039000D02*
X0086002Y0039044D01*
X0086008Y0039088D01*
X0086018Y0039131D01*
X0086031Y0039173D01*
X0086048Y0039214D01*
X0086069Y0039253D01*
X0086093Y0039290D01*
X0086120Y0039325D01*
X0086150Y0039357D01*
X0086183Y0039387D01*
X0086219Y0039413D01*
X0086256Y0039437D01*
X0086296Y0039456D01*
X0086337Y0039473D01*
X0086380Y0039485D01*
X0086423Y0039494D01*
X0086467Y0039499D01*
X0086511Y0039500D01*
X0086555Y0039497D01*
X0086599Y0039490D01*
X0086642Y0039479D01*
X0086684Y0039465D01*
X0086724Y0039447D01*
X0086763Y0039425D01*
X0086799Y0039401D01*
X0086833Y0039373D01*
X0086865Y0039342D01*
X0086894Y0039308D01*
X0086920Y0039272D01*
X0086942Y0039234D01*
X0086961Y0039194D01*
X0086976Y0039152D01*
X0086988Y0039110D01*
X0086996Y0039066D01*
X0087000Y0039022D01*
X0087000Y0038978D01*
X0086996Y0038934D01*
X0086988Y0038890D01*
X0086976Y0038848D01*
X0086961Y0038806D01*
X0086942Y0038766D01*
X0086920Y0038728D01*
X0086894Y0038692D01*
X0086865Y0038658D01*
X0086833Y0038627D01*
X0086799Y0038599D01*
X0086763Y0038575D01*
X0086724Y0038553D01*
X0086684Y0038535D01*
X0086642Y0038521D01*
X0086599Y0038510D01*
X0086555Y0038503D01*
X0086511Y0038500D01*
X0086467Y0038501D01*
X0086423Y0038506D01*
X0086380Y0038515D01*
X0086337Y0038527D01*
X0086296Y0038544D01*
X0086256Y0038563D01*
X0086219Y0038587D01*
X0086183Y0038613D01*
X0086150Y0038643D01*
X0086120Y0038675D01*
X0086093Y0038710D01*
X0086069Y0038747D01*
X0086048Y0038786D01*
X0086031Y0038827D01*
X0086018Y0038869D01*
X0086008Y0038912D01*
X0086002Y0038956D01*
X0086000Y0039000D01*
X0079850Y0040563D02*
X0079457Y0040563D01*
X0098457Y0025437D02*
X0098850Y0025437D01*
X0098457Y0025437D02*
X0098457Y0017563D01*
X0098850Y0017563D01*
X0105150Y0017563D02*
X0105543Y0017563D01*
X0105543Y0025437D01*
X0105150Y0025437D01*
X0106957Y0025437D02*
X0107350Y0025437D01*
X0106957Y0025437D02*
X0106957Y0017563D01*
X0107350Y0017563D01*
X0105000Y0016000D02*
X0105002Y0016044D01*
X0105008Y0016088D01*
X0105018Y0016131D01*
X0105031Y0016173D01*
X0105048Y0016214D01*
X0105069Y0016253D01*
X0105093Y0016290D01*
X0105120Y0016325D01*
X0105150Y0016357D01*
X0105183Y0016387D01*
X0105219Y0016413D01*
X0105256Y0016437D01*
X0105296Y0016456D01*
X0105337Y0016473D01*
X0105380Y0016485D01*
X0105423Y0016494D01*
X0105467Y0016499D01*
X0105511Y0016500D01*
X0105555Y0016497D01*
X0105599Y0016490D01*
X0105642Y0016479D01*
X0105684Y0016465D01*
X0105724Y0016447D01*
X0105763Y0016425D01*
X0105799Y0016401D01*
X0105833Y0016373D01*
X0105865Y0016342D01*
X0105894Y0016308D01*
X0105920Y0016272D01*
X0105942Y0016234D01*
X0105961Y0016194D01*
X0105976Y0016152D01*
X0105988Y0016110D01*
X0105996Y0016066D01*
X0106000Y0016022D01*
X0106000Y0015978D01*
X0105996Y0015934D01*
X0105988Y0015890D01*
X0105976Y0015848D01*
X0105961Y0015806D01*
X0105942Y0015766D01*
X0105920Y0015728D01*
X0105894Y0015692D01*
X0105865Y0015658D01*
X0105833Y0015627D01*
X0105799Y0015599D01*
X0105763Y0015575D01*
X0105724Y0015553D01*
X0105684Y0015535D01*
X0105642Y0015521D01*
X0105599Y0015510D01*
X0105555Y0015503D01*
X0105511Y0015500D01*
X0105467Y0015501D01*
X0105423Y0015506D01*
X0105380Y0015515D01*
X0105337Y0015527D01*
X0105296Y0015544D01*
X0105256Y0015563D01*
X0105219Y0015587D01*
X0105183Y0015613D01*
X0105150Y0015643D01*
X0105120Y0015675D01*
X0105093Y0015710D01*
X0105069Y0015747D01*
X0105048Y0015786D01*
X0105031Y0015827D01*
X0105018Y0015869D01*
X0105008Y0015912D01*
X0105002Y0015956D01*
X0105000Y0016000D01*
X0113650Y0017563D02*
X0114043Y0017563D01*
X0114043Y0025437D01*
X0113650Y0025437D01*
X0113500Y0016000D02*
X0113502Y0016044D01*
X0113508Y0016088D01*
X0113518Y0016131D01*
X0113531Y0016173D01*
X0113548Y0016214D01*
X0113569Y0016253D01*
X0113593Y0016290D01*
X0113620Y0016325D01*
X0113650Y0016357D01*
X0113683Y0016387D01*
X0113719Y0016413D01*
X0113756Y0016437D01*
X0113796Y0016456D01*
X0113837Y0016473D01*
X0113880Y0016485D01*
X0113923Y0016494D01*
X0113967Y0016499D01*
X0114011Y0016500D01*
X0114055Y0016497D01*
X0114099Y0016490D01*
X0114142Y0016479D01*
X0114184Y0016465D01*
X0114224Y0016447D01*
X0114263Y0016425D01*
X0114299Y0016401D01*
X0114333Y0016373D01*
X0114365Y0016342D01*
X0114394Y0016308D01*
X0114420Y0016272D01*
X0114442Y0016234D01*
X0114461Y0016194D01*
X0114476Y0016152D01*
X0114488Y0016110D01*
X0114496Y0016066D01*
X0114500Y0016022D01*
X0114500Y0015978D01*
X0114496Y0015934D01*
X0114488Y0015890D01*
X0114476Y0015848D01*
X0114461Y0015806D01*
X0114442Y0015766D01*
X0114420Y0015728D01*
X0114394Y0015692D01*
X0114365Y0015658D01*
X0114333Y0015627D01*
X0114299Y0015599D01*
X0114263Y0015575D01*
X0114224Y0015553D01*
X0114184Y0015535D01*
X0114142Y0015521D01*
X0114099Y0015510D01*
X0114055Y0015503D01*
X0114011Y0015500D01*
X0113967Y0015501D01*
X0113923Y0015506D01*
X0113880Y0015515D01*
X0113837Y0015527D01*
X0113796Y0015544D01*
X0113756Y0015563D01*
X0113719Y0015587D01*
X0113683Y0015613D01*
X0113650Y0015643D01*
X0113620Y0015675D01*
X0113593Y0015710D01*
X0113569Y0015747D01*
X0113548Y0015786D01*
X0113531Y0015827D01*
X0113518Y0015869D01*
X0113508Y0015912D01*
X0113502Y0015956D01*
X0113500Y0016000D01*
X0120000Y0037500D02*
X0120002Y0037544D01*
X0120008Y0037588D01*
X0120018Y0037631D01*
X0120031Y0037673D01*
X0120048Y0037714D01*
X0120069Y0037753D01*
X0120093Y0037790D01*
X0120120Y0037825D01*
X0120150Y0037857D01*
X0120183Y0037887D01*
X0120219Y0037913D01*
X0120256Y0037937D01*
X0120296Y0037956D01*
X0120337Y0037973D01*
X0120380Y0037985D01*
X0120423Y0037994D01*
X0120467Y0037999D01*
X0120511Y0038000D01*
X0120555Y0037997D01*
X0120599Y0037990D01*
X0120642Y0037979D01*
X0120684Y0037965D01*
X0120724Y0037947D01*
X0120763Y0037925D01*
X0120799Y0037901D01*
X0120833Y0037873D01*
X0120865Y0037842D01*
X0120894Y0037808D01*
X0120920Y0037772D01*
X0120942Y0037734D01*
X0120961Y0037694D01*
X0120976Y0037652D01*
X0120988Y0037610D01*
X0120996Y0037566D01*
X0121000Y0037522D01*
X0121000Y0037478D01*
X0120996Y0037434D01*
X0120988Y0037390D01*
X0120976Y0037348D01*
X0120961Y0037306D01*
X0120942Y0037266D01*
X0120920Y0037228D01*
X0120894Y0037192D01*
X0120865Y0037158D01*
X0120833Y0037127D01*
X0120799Y0037099D01*
X0120763Y0037075D01*
X0120724Y0037053D01*
X0120684Y0037035D01*
X0120642Y0037021D01*
X0120599Y0037010D01*
X0120555Y0037003D01*
X0120511Y0037000D01*
X0120467Y0037001D01*
X0120423Y0037006D01*
X0120380Y0037015D01*
X0120337Y0037027D01*
X0120296Y0037044D01*
X0120256Y0037063D01*
X0120219Y0037087D01*
X0120183Y0037113D01*
X0120150Y0037143D01*
X0120120Y0037175D01*
X0120093Y0037210D01*
X0120069Y0037247D01*
X0120048Y0037286D01*
X0120031Y0037327D01*
X0120018Y0037369D01*
X0120008Y0037412D01*
X0120002Y0037456D01*
X0120000Y0037500D01*
X0120150Y0039063D02*
X0120543Y0039063D01*
X0120543Y0046937D01*
X0120150Y0046937D01*
X0118063Y0049957D02*
X0118063Y0050350D01*
X0118063Y0049957D02*
X0125937Y0049957D01*
X0125937Y0050350D01*
X0125937Y0056650D02*
X0125937Y0057043D01*
X0118063Y0057043D01*
X0118063Y0056650D01*
X0113043Y0058437D02*
X0113043Y0050563D01*
X0112650Y0050563D01*
X0113457Y0046937D02*
X0113850Y0046937D01*
X0113457Y0046937D02*
X0113457Y0039063D01*
X0113850Y0039063D01*
X0106350Y0050563D02*
X0105957Y0050563D01*
X0105957Y0058437D01*
X0106350Y0058437D01*
X0105500Y0060000D02*
X0105502Y0060044D01*
X0105508Y0060088D01*
X0105518Y0060131D01*
X0105531Y0060173D01*
X0105548Y0060214D01*
X0105569Y0060253D01*
X0105593Y0060290D01*
X0105620Y0060325D01*
X0105650Y0060357D01*
X0105683Y0060387D01*
X0105719Y0060413D01*
X0105756Y0060437D01*
X0105796Y0060456D01*
X0105837Y0060473D01*
X0105880Y0060485D01*
X0105923Y0060494D01*
X0105967Y0060499D01*
X0106011Y0060500D01*
X0106055Y0060497D01*
X0106099Y0060490D01*
X0106142Y0060479D01*
X0106184Y0060465D01*
X0106224Y0060447D01*
X0106263Y0060425D01*
X0106299Y0060401D01*
X0106333Y0060373D01*
X0106365Y0060342D01*
X0106394Y0060308D01*
X0106420Y0060272D01*
X0106442Y0060234D01*
X0106461Y0060194D01*
X0106476Y0060152D01*
X0106488Y0060110D01*
X0106496Y0060066D01*
X0106500Y0060022D01*
X0106500Y0059978D01*
X0106496Y0059934D01*
X0106488Y0059890D01*
X0106476Y0059848D01*
X0106461Y0059806D01*
X0106442Y0059766D01*
X0106420Y0059728D01*
X0106394Y0059692D01*
X0106365Y0059658D01*
X0106333Y0059627D01*
X0106299Y0059599D01*
X0106263Y0059575D01*
X0106224Y0059553D01*
X0106184Y0059535D01*
X0106142Y0059521D01*
X0106099Y0059510D01*
X0106055Y0059503D01*
X0106011Y0059500D01*
X0105967Y0059501D01*
X0105923Y0059506D01*
X0105880Y0059515D01*
X0105837Y0059527D01*
X0105796Y0059544D01*
X0105756Y0059563D01*
X0105719Y0059587D01*
X0105683Y0059613D01*
X0105650Y0059643D01*
X0105620Y0059675D01*
X0105593Y0059710D01*
X0105569Y0059747D01*
X0105548Y0059786D01*
X0105531Y0059827D01*
X0105518Y0059869D01*
X0105508Y0059912D01*
X0105502Y0059956D01*
X0105500Y0060000D01*
X0101966Y0060594D02*
X0101968Y0060668D01*
X0101974Y0060742D01*
X0101984Y0060815D01*
X0101997Y0060888D01*
X0102015Y0060960D01*
X0102036Y0061031D01*
X0102062Y0061101D01*
X0102090Y0061169D01*
X0102123Y0061236D01*
X0102159Y0061301D01*
X0102198Y0061363D01*
X0102241Y0061424D01*
X0102286Y0061482D01*
X0102335Y0061538D01*
X0102387Y0061591D01*
X0102441Y0061642D01*
X0102498Y0061689D01*
X0102558Y0061733D01*
X0102620Y0061774D01*
X0102684Y0061812D01*
X0102749Y0061846D01*
X0102817Y0061876D01*
X0102886Y0061903D01*
X0102956Y0061927D01*
X0103028Y0061946D01*
X0103100Y0061962D01*
X0103173Y0061974D01*
X0103247Y0061982D01*
X0103321Y0061986D01*
X0103395Y0061986D01*
X0103469Y0061982D01*
X0103543Y0061974D01*
X0103616Y0061962D01*
X0103688Y0061946D01*
X0103760Y0061927D01*
X0103830Y0061903D01*
X0103899Y0061876D01*
X0103967Y0061846D01*
X0104032Y0061812D01*
X0104096Y0061774D01*
X0104158Y0061733D01*
X0104218Y0061689D01*
X0104275Y0061642D01*
X0104329Y0061591D01*
X0104381Y0061538D01*
X0104430Y0061482D01*
X0104475Y0061424D01*
X0104518Y0061363D01*
X0104557Y0061301D01*
X0104593Y0061236D01*
X0104626Y0061169D01*
X0104654Y0061101D01*
X0104680Y0061031D01*
X0104701Y0060960D01*
X0104719Y0060888D01*
X0104732Y0060815D01*
X0104742Y0060742D01*
X0104748Y0060668D01*
X0104750Y0060594D01*
X0104748Y0060520D01*
X0104742Y0060446D01*
X0104732Y0060373D01*
X0104719Y0060300D01*
X0104701Y0060228D01*
X0104680Y0060157D01*
X0104654Y0060087D01*
X0104626Y0060019D01*
X0104593Y0059952D01*
X0104557Y0059887D01*
X0104518Y0059825D01*
X0104475Y0059764D01*
X0104430Y0059706D01*
X0104381Y0059650D01*
X0104329Y0059597D01*
X0104275Y0059546D01*
X0104218Y0059499D01*
X0104158Y0059455D01*
X0104096Y0059414D01*
X0104032Y0059376D01*
X0103967Y0059342D01*
X0103899Y0059312D01*
X0103830Y0059285D01*
X0103760Y0059261D01*
X0103688Y0059242D01*
X0103616Y0059226D01*
X0103543Y0059214D01*
X0103469Y0059206D01*
X0103395Y0059202D01*
X0103321Y0059202D01*
X0103247Y0059206D01*
X0103173Y0059214D01*
X0103100Y0059226D01*
X0103028Y0059242D01*
X0102956Y0059261D01*
X0102886Y0059285D01*
X0102817Y0059312D01*
X0102749Y0059342D01*
X0102684Y0059376D01*
X0102620Y0059414D01*
X0102558Y0059455D01*
X0102498Y0059499D01*
X0102441Y0059546D01*
X0102387Y0059597D01*
X0102335Y0059650D01*
X0102286Y0059706D01*
X0102241Y0059764D01*
X0102198Y0059825D01*
X0102159Y0059887D01*
X0102123Y0059952D01*
X0102090Y0060019D01*
X0102062Y0060087D01*
X0102036Y0060157D01*
X0102015Y0060228D01*
X0101997Y0060300D01*
X0101984Y0060373D01*
X0101974Y0060446D01*
X0101968Y0060520D01*
X0101966Y0060594D01*
X0100406Y0060594D02*
X0100406Y0072406D01*
X0088594Y0072406D01*
X0088594Y0060594D01*
X0100406Y0060594D01*
X0110063Y0065457D02*
X0110063Y0065850D01*
X0110063Y0065457D02*
X0117937Y0065457D01*
X0117937Y0065850D01*
X0117937Y0072150D02*
X0117937Y0072543D01*
X0110063Y0072543D01*
X0110063Y0072150D01*
X0111937Y0073457D02*
X0111937Y0073850D01*
X0111937Y0073457D02*
X0104063Y0073457D01*
X0104063Y0073850D01*
X0104063Y0080150D02*
X0104063Y0080543D01*
X0111937Y0080543D01*
X0111937Y0080150D01*
X0113000Y0080500D02*
X0113002Y0080544D01*
X0113008Y0080588D01*
X0113018Y0080631D01*
X0113031Y0080673D01*
X0113048Y0080714D01*
X0113069Y0080753D01*
X0113093Y0080790D01*
X0113120Y0080825D01*
X0113150Y0080857D01*
X0113183Y0080887D01*
X0113219Y0080913D01*
X0113256Y0080937D01*
X0113296Y0080956D01*
X0113337Y0080973D01*
X0113380Y0080985D01*
X0113423Y0080994D01*
X0113467Y0080999D01*
X0113511Y0081000D01*
X0113555Y0080997D01*
X0113599Y0080990D01*
X0113642Y0080979D01*
X0113684Y0080965D01*
X0113724Y0080947D01*
X0113763Y0080925D01*
X0113799Y0080901D01*
X0113833Y0080873D01*
X0113865Y0080842D01*
X0113894Y0080808D01*
X0113920Y0080772D01*
X0113942Y0080734D01*
X0113961Y0080694D01*
X0113976Y0080652D01*
X0113988Y0080610D01*
X0113996Y0080566D01*
X0114000Y0080522D01*
X0114000Y0080478D01*
X0113996Y0080434D01*
X0113988Y0080390D01*
X0113976Y0080348D01*
X0113961Y0080306D01*
X0113942Y0080266D01*
X0113920Y0080228D01*
X0113894Y0080192D01*
X0113865Y0080158D01*
X0113833Y0080127D01*
X0113799Y0080099D01*
X0113763Y0080075D01*
X0113724Y0080053D01*
X0113684Y0080035D01*
X0113642Y0080021D01*
X0113599Y0080010D01*
X0113555Y0080003D01*
X0113511Y0080000D01*
X0113467Y0080001D01*
X0113423Y0080006D01*
X0113380Y0080015D01*
X0113337Y0080027D01*
X0113296Y0080044D01*
X0113256Y0080063D01*
X0113219Y0080087D01*
X0113183Y0080113D01*
X0113150Y0080143D01*
X0113120Y0080175D01*
X0113093Y0080210D01*
X0113069Y0080247D01*
X0113048Y0080286D01*
X0113031Y0080327D01*
X0113018Y0080369D01*
X0113008Y0080412D01*
X0113002Y0080456D01*
X0113000Y0080500D01*
X0106043Y0083563D02*
X0105650Y0083563D01*
X0106043Y0083563D02*
X0106043Y0091437D01*
X0105650Y0091437D01*
X0099350Y0091437D02*
X0098957Y0091437D01*
X0098957Y0083563D01*
X0099350Y0083563D01*
X0095437Y0085650D02*
X0095437Y0086043D01*
X0087563Y0086043D01*
X0087563Y0085650D01*
X0087563Y0079350D02*
X0087563Y0078957D01*
X0095437Y0078957D01*
X0095437Y0079350D01*
X0085500Y0079000D02*
X0085502Y0079044D01*
X0085508Y0079088D01*
X0085518Y0079131D01*
X0085531Y0079173D01*
X0085548Y0079214D01*
X0085569Y0079253D01*
X0085593Y0079290D01*
X0085620Y0079325D01*
X0085650Y0079357D01*
X0085683Y0079387D01*
X0085719Y0079413D01*
X0085756Y0079437D01*
X0085796Y0079456D01*
X0085837Y0079473D01*
X0085880Y0079485D01*
X0085923Y0079494D01*
X0085967Y0079499D01*
X0086011Y0079500D01*
X0086055Y0079497D01*
X0086099Y0079490D01*
X0086142Y0079479D01*
X0086184Y0079465D01*
X0086224Y0079447D01*
X0086263Y0079425D01*
X0086299Y0079401D01*
X0086333Y0079373D01*
X0086365Y0079342D01*
X0086394Y0079308D01*
X0086420Y0079272D01*
X0086442Y0079234D01*
X0086461Y0079194D01*
X0086476Y0079152D01*
X0086488Y0079110D01*
X0086496Y0079066D01*
X0086500Y0079022D01*
X0086500Y0078978D01*
X0086496Y0078934D01*
X0086488Y0078890D01*
X0086476Y0078848D01*
X0086461Y0078806D01*
X0086442Y0078766D01*
X0086420Y0078728D01*
X0086394Y0078692D01*
X0086365Y0078658D01*
X0086333Y0078627D01*
X0086299Y0078599D01*
X0086263Y0078575D01*
X0086224Y0078553D01*
X0086184Y0078535D01*
X0086142Y0078521D01*
X0086099Y0078510D01*
X0086055Y0078503D01*
X0086011Y0078500D01*
X0085967Y0078501D01*
X0085923Y0078506D01*
X0085880Y0078515D01*
X0085837Y0078527D01*
X0085796Y0078544D01*
X0085756Y0078563D01*
X0085719Y0078587D01*
X0085683Y0078613D01*
X0085650Y0078643D01*
X0085620Y0078675D01*
X0085593Y0078710D01*
X0085569Y0078747D01*
X0085548Y0078786D01*
X0085531Y0078827D01*
X0085518Y0078869D01*
X0085508Y0078912D01*
X0085502Y0078956D01*
X0085500Y0079000D01*
X0098500Y0093000D02*
X0098502Y0093044D01*
X0098508Y0093088D01*
X0098518Y0093131D01*
X0098531Y0093173D01*
X0098548Y0093214D01*
X0098569Y0093253D01*
X0098593Y0093290D01*
X0098620Y0093325D01*
X0098650Y0093357D01*
X0098683Y0093387D01*
X0098719Y0093413D01*
X0098756Y0093437D01*
X0098796Y0093456D01*
X0098837Y0093473D01*
X0098880Y0093485D01*
X0098923Y0093494D01*
X0098967Y0093499D01*
X0099011Y0093500D01*
X0099055Y0093497D01*
X0099099Y0093490D01*
X0099142Y0093479D01*
X0099184Y0093465D01*
X0099224Y0093447D01*
X0099263Y0093425D01*
X0099299Y0093401D01*
X0099333Y0093373D01*
X0099365Y0093342D01*
X0099394Y0093308D01*
X0099420Y0093272D01*
X0099442Y0093234D01*
X0099461Y0093194D01*
X0099476Y0093152D01*
X0099488Y0093110D01*
X0099496Y0093066D01*
X0099500Y0093022D01*
X0099500Y0092978D01*
X0099496Y0092934D01*
X0099488Y0092890D01*
X0099476Y0092848D01*
X0099461Y0092806D01*
X0099442Y0092766D01*
X0099420Y0092728D01*
X0099394Y0092692D01*
X0099365Y0092658D01*
X0099333Y0092627D01*
X0099299Y0092599D01*
X0099263Y0092575D01*
X0099224Y0092553D01*
X0099184Y0092535D01*
X0099142Y0092521D01*
X0099099Y0092510D01*
X0099055Y0092503D01*
X0099011Y0092500D01*
X0098967Y0092501D01*
X0098923Y0092506D01*
X0098880Y0092515D01*
X0098837Y0092527D01*
X0098796Y0092544D01*
X0098756Y0092563D01*
X0098719Y0092587D01*
X0098683Y0092613D01*
X0098650Y0092643D01*
X0098620Y0092675D01*
X0098593Y0092710D01*
X0098569Y0092747D01*
X0098548Y0092786D01*
X0098531Y0092827D01*
X0098518Y0092869D01*
X0098508Y0092912D01*
X0098502Y0092956D01*
X0098500Y0093000D01*
X0119000Y0072500D02*
X0119002Y0072544D01*
X0119008Y0072588D01*
X0119018Y0072631D01*
X0119031Y0072673D01*
X0119048Y0072714D01*
X0119069Y0072753D01*
X0119093Y0072790D01*
X0119120Y0072825D01*
X0119150Y0072857D01*
X0119183Y0072887D01*
X0119219Y0072913D01*
X0119256Y0072937D01*
X0119296Y0072956D01*
X0119337Y0072973D01*
X0119380Y0072985D01*
X0119423Y0072994D01*
X0119467Y0072999D01*
X0119511Y0073000D01*
X0119555Y0072997D01*
X0119599Y0072990D01*
X0119642Y0072979D01*
X0119684Y0072965D01*
X0119724Y0072947D01*
X0119763Y0072925D01*
X0119799Y0072901D01*
X0119833Y0072873D01*
X0119865Y0072842D01*
X0119894Y0072808D01*
X0119920Y0072772D01*
X0119942Y0072734D01*
X0119961Y0072694D01*
X0119976Y0072652D01*
X0119988Y0072610D01*
X0119996Y0072566D01*
X0120000Y0072522D01*
X0120000Y0072478D01*
X0119996Y0072434D01*
X0119988Y0072390D01*
X0119976Y0072348D01*
X0119961Y0072306D01*
X0119942Y0072266D01*
X0119920Y0072228D01*
X0119894Y0072192D01*
X0119865Y0072158D01*
X0119833Y0072127D01*
X0119799Y0072099D01*
X0119763Y0072075D01*
X0119724Y0072053D01*
X0119684Y0072035D01*
X0119642Y0072021D01*
X0119599Y0072010D01*
X0119555Y0072003D01*
X0119511Y0072000D01*
X0119467Y0072001D01*
X0119423Y0072006D01*
X0119380Y0072015D01*
X0119337Y0072027D01*
X0119296Y0072044D01*
X0119256Y0072063D01*
X0119219Y0072087D01*
X0119183Y0072113D01*
X0119150Y0072143D01*
X0119120Y0072175D01*
X0119093Y0072210D01*
X0119069Y0072247D01*
X0119048Y0072286D01*
X0119031Y0072327D01*
X0119018Y0072369D01*
X0119008Y0072412D01*
X0119002Y0072456D01*
X0119000Y0072500D01*
X0113043Y0058437D02*
X0112650Y0058437D01*
X0127000Y0057000D02*
X0127002Y0057044D01*
X0127008Y0057088D01*
X0127018Y0057131D01*
X0127031Y0057173D01*
X0127048Y0057214D01*
X0127069Y0057253D01*
X0127093Y0057290D01*
X0127120Y0057325D01*
X0127150Y0057357D01*
X0127183Y0057387D01*
X0127219Y0057413D01*
X0127256Y0057437D01*
X0127296Y0057456D01*
X0127337Y0057473D01*
X0127380Y0057485D01*
X0127423Y0057494D01*
X0127467Y0057499D01*
X0127511Y0057500D01*
X0127555Y0057497D01*
X0127599Y0057490D01*
X0127642Y0057479D01*
X0127684Y0057465D01*
X0127724Y0057447D01*
X0127763Y0057425D01*
X0127799Y0057401D01*
X0127833Y0057373D01*
X0127865Y0057342D01*
X0127894Y0057308D01*
X0127920Y0057272D01*
X0127942Y0057234D01*
X0127961Y0057194D01*
X0127976Y0057152D01*
X0127988Y0057110D01*
X0127996Y0057066D01*
X0128000Y0057022D01*
X0128000Y0056978D01*
X0127996Y0056934D01*
X0127988Y0056890D01*
X0127976Y0056848D01*
X0127961Y0056806D01*
X0127942Y0056766D01*
X0127920Y0056728D01*
X0127894Y0056692D01*
X0127865Y0056658D01*
X0127833Y0056627D01*
X0127799Y0056599D01*
X0127763Y0056575D01*
X0127724Y0056553D01*
X0127684Y0056535D01*
X0127642Y0056521D01*
X0127599Y0056510D01*
X0127555Y0056503D01*
X0127511Y0056500D01*
X0127467Y0056501D01*
X0127423Y0056506D01*
X0127380Y0056515D01*
X0127337Y0056527D01*
X0127296Y0056544D01*
X0127256Y0056563D01*
X0127219Y0056587D01*
X0127183Y0056613D01*
X0127150Y0056643D01*
X0127120Y0056675D01*
X0127093Y0056710D01*
X0127069Y0056747D01*
X0127048Y0056786D01*
X0127031Y0056827D01*
X0127018Y0056869D01*
X0127008Y0056912D01*
X0127002Y0056956D01*
X0127000Y0057000D01*
D11*
X0077643Y0053713D02*
X0077641Y0053618D01*
X0077635Y0053523D01*
X0077625Y0053428D01*
X0077612Y0053334D01*
X0077594Y0053241D01*
X0077573Y0053148D01*
X0077548Y0053056D01*
X0077519Y0052966D01*
X0077486Y0052876D01*
X0077450Y0052788D01*
X0077410Y0052702D01*
X0077488Y0052935D02*
X0076244Y0054490D01*
X0076321Y0054724D02*
X0076337Y0054765D01*
X0076357Y0054806D01*
X0076379Y0054844D01*
X0076404Y0054881D01*
X0076432Y0054916D01*
X0076463Y0054948D01*
X0076496Y0054978D01*
X0076531Y0055006D01*
X0076569Y0055030D01*
X0076608Y0055052D01*
X0076648Y0055070D01*
X0076690Y0055086D01*
X0076733Y0055097D01*
X0076777Y0055106D01*
X0076821Y0055111D01*
X0076866Y0055113D01*
X0076911Y0055111D01*
X0076955Y0055106D01*
X0076999Y0055097D01*
X0077042Y0055086D01*
X0077084Y0055070D01*
X0077124Y0055052D01*
X0077163Y0055030D01*
X0077201Y0055006D01*
X0077236Y0054978D01*
X0077269Y0054948D01*
X0077300Y0054916D01*
X0077328Y0054881D01*
X0077353Y0054844D01*
X0077375Y0054806D01*
X0077395Y0054765D01*
X0077411Y0054724D01*
X0076321Y0054724D02*
X0076281Y0054638D01*
X0076245Y0054550D01*
X0076212Y0054460D01*
X0076183Y0054370D01*
X0076158Y0054278D01*
X0076137Y0054185D01*
X0076119Y0054092D01*
X0076106Y0053998D01*
X0076096Y0053903D01*
X0076090Y0053808D01*
X0076088Y0053713D01*
X0077643Y0053713D02*
X0077641Y0053808D01*
X0077635Y0053903D01*
X0077625Y0053998D01*
X0077612Y0054092D01*
X0077594Y0054185D01*
X0077573Y0054278D01*
X0077548Y0054370D01*
X0077519Y0054460D01*
X0077486Y0054550D01*
X0077450Y0054638D01*
X0077410Y0054724D01*
X0076089Y0053713D02*
X0076091Y0053618D01*
X0076097Y0053523D01*
X0076107Y0053428D01*
X0076120Y0053334D01*
X0076138Y0053241D01*
X0076159Y0053148D01*
X0076184Y0053056D01*
X0076213Y0052966D01*
X0076246Y0052876D01*
X0076282Y0052788D01*
X0076322Y0052702D01*
X0076866Y0052312D02*
X0076911Y0052314D01*
X0076955Y0052319D01*
X0076999Y0052328D01*
X0077042Y0052339D01*
X0077084Y0052355D01*
X0077124Y0052373D01*
X0077163Y0052395D01*
X0077201Y0052419D01*
X0077236Y0052447D01*
X0077269Y0052477D01*
X0077300Y0052509D01*
X0077328Y0052544D01*
X0077353Y0052581D01*
X0077375Y0052619D01*
X0077395Y0052660D01*
X0077411Y0052701D01*
X0076866Y0052312D02*
X0076821Y0052314D01*
X0076777Y0052319D01*
X0076733Y0052328D01*
X0076690Y0052339D01*
X0076648Y0052355D01*
X0076608Y0052373D01*
X0076569Y0052395D01*
X0076531Y0052419D01*
X0076496Y0052447D01*
X0076463Y0052477D01*
X0076432Y0052509D01*
X0076404Y0052544D01*
X0076379Y0052581D01*
X0076357Y0052619D01*
X0076337Y0052660D01*
X0076321Y0052701D01*
X0078788Y0052313D02*
X0080344Y0052313D01*
X0079021Y0053868D01*
X0079488Y0055112D02*
X0079544Y0055110D01*
X0079601Y0055105D01*
X0079657Y0055096D01*
X0079712Y0055084D01*
X0079766Y0055068D01*
X0079819Y0055049D01*
X0079871Y0055026D01*
X0079921Y0055001D01*
X0079970Y0054972D01*
X0080017Y0054940D01*
X0080061Y0054905D01*
X0080104Y0054868D01*
X0080144Y0054828D01*
X0080181Y0054786D01*
X0080216Y0054741D01*
X0080247Y0054694D01*
X0080276Y0054645D01*
X0080302Y0054595D01*
X0080324Y0054543D01*
X0080343Y0054490D01*
X0079021Y0053868D02*
X0078986Y0053905D01*
X0078953Y0053943D01*
X0078922Y0053984D01*
X0078895Y0054026D01*
X0078870Y0054071D01*
X0078849Y0054117D01*
X0078830Y0054164D01*
X0078815Y0054212D01*
X0078803Y0054262D01*
X0078795Y0054312D01*
X0078790Y0054362D01*
X0078788Y0054413D01*
X0078790Y0054463D01*
X0078795Y0054513D01*
X0078804Y0054562D01*
X0078816Y0054610D01*
X0078832Y0054658D01*
X0078851Y0054704D01*
X0078874Y0054748D01*
X0078899Y0054791D01*
X0078928Y0054832D01*
X0078959Y0054871D01*
X0078993Y0054908D01*
X0079030Y0054942D01*
X0079069Y0054973D01*
X0079110Y0055002D01*
X0079153Y0055027D01*
X0079197Y0055050D01*
X0079243Y0055069D01*
X0079291Y0055085D01*
X0079339Y0055097D01*
X0079388Y0055106D01*
X0079438Y0055111D01*
X0079488Y0055113D01*
X0081356Y0055113D02*
X0081979Y0055113D01*
X0081979Y0055112D02*
X0082028Y0055110D01*
X0082076Y0055104D01*
X0082124Y0055095D01*
X0082171Y0055082D01*
X0082217Y0055065D01*
X0082261Y0055044D01*
X0082304Y0055020D01*
X0082345Y0054993D01*
X0082383Y0054963D01*
X0082419Y0054930D01*
X0082452Y0054894D01*
X0082482Y0054856D01*
X0082509Y0054815D01*
X0082533Y0054772D01*
X0082554Y0054728D01*
X0082571Y0054682D01*
X0082584Y0054635D01*
X0082593Y0054587D01*
X0082599Y0054539D01*
X0082601Y0054490D01*
X0082601Y0052935D01*
X0082599Y0052886D01*
X0082593Y0052838D01*
X0082584Y0052790D01*
X0082571Y0052743D01*
X0082554Y0052697D01*
X0082533Y0052653D01*
X0082509Y0052610D01*
X0082482Y0052569D01*
X0082452Y0052531D01*
X0082419Y0052495D01*
X0082383Y0052462D01*
X0082345Y0052432D01*
X0082304Y0052405D01*
X0082261Y0052381D01*
X0082217Y0052360D01*
X0082171Y0052343D01*
X0082124Y0052330D01*
X0082076Y0052321D01*
X0082028Y0052315D01*
X0081979Y0052313D01*
X0081356Y0052313D01*
X0088366Y0036613D02*
X0088366Y0033813D01*
X0089144Y0033813D02*
X0087588Y0033813D01*
X0089144Y0035990D02*
X0088366Y0036613D01*
X0090521Y0035368D02*
X0091844Y0033813D01*
X0090288Y0033813D01*
X0091843Y0035990D02*
X0091824Y0036043D01*
X0091802Y0036095D01*
X0091776Y0036145D01*
X0091747Y0036194D01*
X0091716Y0036241D01*
X0091681Y0036286D01*
X0091644Y0036328D01*
X0091604Y0036368D01*
X0091561Y0036405D01*
X0091517Y0036440D01*
X0091470Y0036472D01*
X0091421Y0036501D01*
X0091371Y0036526D01*
X0091319Y0036549D01*
X0091266Y0036568D01*
X0091212Y0036584D01*
X0091157Y0036596D01*
X0091101Y0036605D01*
X0091044Y0036610D01*
X0090988Y0036612D01*
X0090988Y0036613D02*
X0090938Y0036611D01*
X0090888Y0036606D01*
X0090839Y0036597D01*
X0090791Y0036585D01*
X0090743Y0036569D01*
X0090697Y0036550D01*
X0090653Y0036527D01*
X0090610Y0036502D01*
X0090569Y0036473D01*
X0090530Y0036442D01*
X0090493Y0036408D01*
X0090459Y0036371D01*
X0090428Y0036332D01*
X0090399Y0036291D01*
X0090374Y0036248D01*
X0090351Y0036204D01*
X0090332Y0036158D01*
X0090316Y0036110D01*
X0090304Y0036062D01*
X0090295Y0036013D01*
X0090290Y0035963D01*
X0090288Y0035913D01*
X0090290Y0035862D01*
X0090295Y0035812D01*
X0090303Y0035762D01*
X0090315Y0035712D01*
X0090330Y0035664D01*
X0090349Y0035617D01*
X0090370Y0035571D01*
X0090395Y0035526D01*
X0090422Y0035484D01*
X0090453Y0035443D01*
X0090486Y0035405D01*
X0090521Y0035368D01*
X0092856Y0036613D02*
X0093479Y0036613D01*
X0093479Y0036612D02*
X0093528Y0036610D01*
X0093576Y0036604D01*
X0093624Y0036595D01*
X0093671Y0036582D01*
X0093717Y0036565D01*
X0093761Y0036544D01*
X0093804Y0036520D01*
X0093845Y0036493D01*
X0093883Y0036463D01*
X0093919Y0036430D01*
X0093952Y0036394D01*
X0093982Y0036356D01*
X0094009Y0036315D01*
X0094033Y0036272D01*
X0094054Y0036228D01*
X0094071Y0036182D01*
X0094084Y0036135D01*
X0094093Y0036087D01*
X0094099Y0036039D01*
X0094101Y0035990D01*
X0094101Y0034435D01*
X0094099Y0034386D01*
X0094093Y0034338D01*
X0094084Y0034290D01*
X0094071Y0034243D01*
X0094054Y0034197D01*
X0094033Y0034153D01*
X0094009Y0034110D01*
X0093982Y0034069D01*
X0093952Y0034031D01*
X0093919Y0033995D01*
X0093883Y0033962D01*
X0093845Y0033932D01*
X0093804Y0033905D01*
X0093761Y0033881D01*
X0093717Y0033860D01*
X0093671Y0033843D01*
X0093624Y0033830D01*
X0093576Y0033821D01*
X0093528Y0033815D01*
X0093479Y0033813D01*
X0092856Y0033813D01*
X0096132Y0028601D02*
X0096910Y0028601D01*
X0096966Y0028599D01*
X0097021Y0028593D01*
X0097075Y0028583D01*
X0097129Y0028569D01*
X0097182Y0028552D01*
X0097233Y0028531D01*
X0097283Y0028506D01*
X0097331Y0028477D01*
X0097376Y0028446D01*
X0097419Y0028411D01*
X0097460Y0028373D01*
X0097498Y0028332D01*
X0097533Y0028289D01*
X0097564Y0028244D01*
X0097593Y0028196D01*
X0097618Y0028146D01*
X0097639Y0028095D01*
X0097656Y0028042D01*
X0097670Y0027988D01*
X0097680Y0027934D01*
X0097686Y0027879D01*
X0097688Y0027823D01*
X0097686Y0027767D01*
X0097680Y0027712D01*
X0097670Y0027658D01*
X0097656Y0027604D01*
X0097639Y0027551D01*
X0097618Y0027500D01*
X0097593Y0027450D01*
X0097564Y0027402D01*
X0097533Y0027357D01*
X0097498Y0027314D01*
X0097460Y0027273D01*
X0097419Y0027235D01*
X0097376Y0027200D01*
X0097331Y0027169D01*
X0097283Y0027140D01*
X0097233Y0027115D01*
X0097182Y0027094D01*
X0097129Y0027077D01*
X0097075Y0027063D01*
X0097021Y0027053D01*
X0096966Y0027047D01*
X0096910Y0027045D01*
X0096754Y0027045D01*
X0096705Y0027047D01*
X0096657Y0027053D01*
X0096609Y0027062D01*
X0096562Y0027075D01*
X0096516Y0027092D01*
X0096472Y0027113D01*
X0096429Y0027137D01*
X0096388Y0027164D01*
X0096350Y0027194D01*
X0096314Y0027227D01*
X0096281Y0027263D01*
X0096251Y0027301D01*
X0096224Y0027342D01*
X0096200Y0027385D01*
X0096179Y0027429D01*
X0096162Y0027475D01*
X0096149Y0027522D01*
X0096140Y0027570D01*
X0096134Y0027618D01*
X0096132Y0027667D01*
X0096132Y0028601D01*
X0096132Y0028600D02*
X0096062Y0028598D01*
X0095993Y0028592D01*
X0095924Y0028582D01*
X0095855Y0028569D01*
X0095788Y0028551D01*
X0095721Y0028530D01*
X0095656Y0028505D01*
X0095592Y0028477D01*
X0095530Y0028445D01*
X0095470Y0028409D01*
X0095412Y0028371D01*
X0095356Y0028329D01*
X0095303Y0028284D01*
X0095252Y0028236D01*
X0095204Y0028185D01*
X0095159Y0028132D01*
X0095117Y0028076D01*
X0095079Y0028018D01*
X0095043Y0027958D01*
X0095011Y0027896D01*
X0094983Y0027832D01*
X0094958Y0027767D01*
X0094937Y0027700D01*
X0094919Y0027633D01*
X0094906Y0027564D01*
X0094896Y0027495D01*
X0094890Y0027426D01*
X0094888Y0027356D01*
X0094887Y0025901D02*
X0094887Y0024345D01*
X0094887Y0025123D02*
X0097687Y0025123D01*
X0097065Y0024345D01*
X0097687Y0023333D02*
X0097687Y0022710D01*
X0097685Y0022661D01*
X0097679Y0022613D01*
X0097670Y0022565D01*
X0097657Y0022518D01*
X0097640Y0022472D01*
X0097619Y0022428D01*
X0097595Y0022385D01*
X0097568Y0022344D01*
X0097538Y0022306D01*
X0097505Y0022270D01*
X0097469Y0022237D01*
X0097431Y0022207D01*
X0097390Y0022180D01*
X0097347Y0022156D01*
X0097303Y0022135D01*
X0097257Y0022118D01*
X0097210Y0022105D01*
X0097162Y0022096D01*
X0097114Y0022090D01*
X0097065Y0022088D01*
X0095510Y0022088D01*
X0095461Y0022090D01*
X0095413Y0022096D01*
X0095365Y0022105D01*
X0095318Y0022118D01*
X0095272Y0022135D01*
X0095228Y0022156D01*
X0095185Y0022180D01*
X0095144Y0022207D01*
X0095106Y0022237D01*
X0095070Y0022270D01*
X0095037Y0022306D01*
X0095007Y0022344D01*
X0094980Y0022385D01*
X0094956Y0022428D01*
X0094935Y0022472D01*
X0094918Y0022518D01*
X0094905Y0022565D01*
X0094896Y0022613D01*
X0094890Y0022661D01*
X0094888Y0022710D01*
X0094887Y0022710D02*
X0094887Y0023333D01*
X0115387Y0021901D02*
X0115387Y0020345D01*
X0115387Y0021123D02*
X0118187Y0021123D01*
X0117565Y0020345D01*
X0118187Y0019333D02*
X0118187Y0018710D01*
X0118185Y0018661D01*
X0118179Y0018613D01*
X0118170Y0018565D01*
X0118157Y0018518D01*
X0118140Y0018472D01*
X0118119Y0018428D01*
X0118095Y0018385D01*
X0118068Y0018344D01*
X0118038Y0018306D01*
X0118005Y0018270D01*
X0117969Y0018237D01*
X0117931Y0018207D01*
X0117890Y0018180D01*
X0117847Y0018156D01*
X0117803Y0018135D01*
X0117757Y0018118D01*
X0117710Y0018105D01*
X0117662Y0018096D01*
X0117614Y0018090D01*
X0117565Y0018088D01*
X0116010Y0018088D01*
X0115961Y0018090D01*
X0115913Y0018096D01*
X0115865Y0018105D01*
X0115818Y0018118D01*
X0115772Y0018135D01*
X0115728Y0018156D01*
X0115685Y0018180D01*
X0115644Y0018207D01*
X0115606Y0018237D01*
X0115570Y0018270D01*
X0115537Y0018306D01*
X0115507Y0018344D01*
X0115480Y0018385D01*
X0115456Y0018428D01*
X0115435Y0018472D01*
X0115418Y0018518D01*
X0115405Y0018565D01*
X0115396Y0018613D01*
X0115390Y0018661D01*
X0115388Y0018710D01*
X0115387Y0018710D02*
X0115387Y0019333D01*
X0116165Y0023045D02*
X0116109Y0023047D01*
X0116054Y0023053D01*
X0116000Y0023063D01*
X0115946Y0023077D01*
X0115893Y0023094D01*
X0115842Y0023115D01*
X0115792Y0023140D01*
X0115744Y0023169D01*
X0115699Y0023200D01*
X0115656Y0023235D01*
X0115615Y0023273D01*
X0115577Y0023314D01*
X0115542Y0023357D01*
X0115511Y0023402D01*
X0115482Y0023450D01*
X0115457Y0023500D01*
X0115436Y0023551D01*
X0115419Y0023604D01*
X0115405Y0023658D01*
X0115395Y0023712D01*
X0115389Y0023767D01*
X0115387Y0023823D01*
X0115389Y0023879D01*
X0115395Y0023934D01*
X0115405Y0023988D01*
X0115419Y0024042D01*
X0115436Y0024095D01*
X0115457Y0024146D01*
X0115482Y0024196D01*
X0115511Y0024244D01*
X0115542Y0024289D01*
X0115577Y0024332D01*
X0115615Y0024373D01*
X0115656Y0024411D01*
X0115699Y0024446D01*
X0115744Y0024477D01*
X0115792Y0024506D01*
X0115842Y0024531D01*
X0115893Y0024552D01*
X0115946Y0024569D01*
X0116000Y0024583D01*
X0116054Y0024593D01*
X0116109Y0024599D01*
X0116165Y0024601D01*
X0116221Y0024599D01*
X0116276Y0024593D01*
X0116330Y0024583D01*
X0116384Y0024569D01*
X0116437Y0024552D01*
X0116488Y0024531D01*
X0116538Y0024506D01*
X0116586Y0024477D01*
X0116631Y0024446D01*
X0116674Y0024411D01*
X0116715Y0024373D01*
X0116753Y0024332D01*
X0116788Y0024289D01*
X0116819Y0024244D01*
X0116848Y0024196D01*
X0116873Y0024146D01*
X0116894Y0024095D01*
X0116911Y0024042D01*
X0116925Y0023988D01*
X0116935Y0023934D01*
X0116941Y0023879D01*
X0116943Y0023823D01*
X0116941Y0023767D01*
X0116935Y0023712D01*
X0116925Y0023658D01*
X0116911Y0023604D01*
X0116894Y0023551D01*
X0116873Y0023500D01*
X0116848Y0023450D01*
X0116819Y0023402D01*
X0116788Y0023357D01*
X0116753Y0023314D01*
X0116715Y0023273D01*
X0116674Y0023235D01*
X0116631Y0023200D01*
X0116586Y0023169D01*
X0116538Y0023140D01*
X0116488Y0023115D01*
X0116437Y0023094D01*
X0116384Y0023077D01*
X0116330Y0023063D01*
X0116276Y0023053D01*
X0116221Y0023047D01*
X0116165Y0023045D01*
X0117565Y0023201D02*
X0117516Y0023203D01*
X0117468Y0023209D01*
X0117420Y0023218D01*
X0117373Y0023231D01*
X0117327Y0023248D01*
X0117283Y0023269D01*
X0117240Y0023293D01*
X0117199Y0023320D01*
X0117161Y0023350D01*
X0117125Y0023383D01*
X0117092Y0023419D01*
X0117062Y0023457D01*
X0117035Y0023498D01*
X0117011Y0023541D01*
X0116990Y0023585D01*
X0116973Y0023631D01*
X0116960Y0023678D01*
X0116951Y0023726D01*
X0116945Y0023774D01*
X0116943Y0023823D01*
X0116945Y0023872D01*
X0116951Y0023920D01*
X0116960Y0023968D01*
X0116973Y0024015D01*
X0116990Y0024061D01*
X0117011Y0024105D01*
X0117035Y0024148D01*
X0117062Y0024189D01*
X0117092Y0024227D01*
X0117125Y0024263D01*
X0117161Y0024296D01*
X0117199Y0024326D01*
X0117240Y0024353D01*
X0117283Y0024377D01*
X0117327Y0024398D01*
X0117373Y0024415D01*
X0117420Y0024428D01*
X0117468Y0024437D01*
X0117516Y0024443D01*
X0117565Y0024445D01*
X0117614Y0024443D01*
X0117662Y0024437D01*
X0117710Y0024428D01*
X0117757Y0024415D01*
X0117803Y0024398D01*
X0117847Y0024377D01*
X0117890Y0024353D01*
X0117931Y0024326D01*
X0117969Y0024296D01*
X0118005Y0024263D01*
X0118038Y0024227D01*
X0118068Y0024189D01*
X0118095Y0024148D01*
X0118119Y0024105D01*
X0118140Y0024061D01*
X0118157Y0024015D01*
X0118170Y0023968D01*
X0118179Y0023920D01*
X0118185Y0023872D01*
X0118187Y0023823D01*
X0118185Y0023774D01*
X0118179Y0023726D01*
X0118170Y0023678D01*
X0118157Y0023631D01*
X0118140Y0023585D01*
X0118119Y0023541D01*
X0118095Y0023498D01*
X0118068Y0023457D01*
X0118038Y0023419D01*
X0118005Y0023383D01*
X0117969Y0023350D01*
X0117931Y0023320D01*
X0117890Y0023293D01*
X0117847Y0023269D01*
X0117803Y0023248D01*
X0117757Y0023231D01*
X0117710Y0023218D01*
X0117662Y0023209D01*
X0117614Y0023203D01*
X0117565Y0023201D01*
X0121313Y0040399D02*
X0124113Y0040399D01*
X0124113Y0041177D01*
X0124111Y0041233D01*
X0124105Y0041288D01*
X0124095Y0041342D01*
X0124081Y0041396D01*
X0124064Y0041449D01*
X0124043Y0041500D01*
X0124018Y0041550D01*
X0123989Y0041598D01*
X0123958Y0041643D01*
X0123923Y0041686D01*
X0123885Y0041727D01*
X0123844Y0041765D01*
X0123801Y0041800D01*
X0123756Y0041831D01*
X0123708Y0041860D01*
X0123658Y0041885D01*
X0123607Y0041906D01*
X0123554Y0041923D01*
X0123500Y0041937D01*
X0123446Y0041947D01*
X0123391Y0041953D01*
X0123335Y0041955D01*
X0123279Y0041953D01*
X0123224Y0041947D01*
X0123170Y0041937D01*
X0123116Y0041923D01*
X0123063Y0041906D01*
X0123012Y0041885D01*
X0122962Y0041860D01*
X0122914Y0041831D01*
X0122869Y0041800D01*
X0122826Y0041765D01*
X0122785Y0041727D01*
X0122747Y0041686D01*
X0122712Y0041643D01*
X0122681Y0041598D01*
X0122652Y0041550D01*
X0122627Y0041500D01*
X0122606Y0041449D01*
X0122589Y0041396D01*
X0122575Y0041342D01*
X0122565Y0041288D01*
X0122559Y0041233D01*
X0122557Y0041177D01*
X0122557Y0040399D01*
X0122557Y0041333D02*
X0121313Y0041955D01*
X0121313Y0043083D02*
X0121313Y0043861D01*
X0121312Y0043861D02*
X0121314Y0043917D01*
X0121320Y0043972D01*
X0121330Y0044026D01*
X0121344Y0044080D01*
X0121361Y0044133D01*
X0121382Y0044184D01*
X0121407Y0044234D01*
X0121436Y0044282D01*
X0121467Y0044327D01*
X0121502Y0044370D01*
X0121540Y0044411D01*
X0121581Y0044449D01*
X0121624Y0044484D01*
X0121669Y0044515D01*
X0121717Y0044544D01*
X0121767Y0044569D01*
X0121818Y0044590D01*
X0121871Y0044607D01*
X0121925Y0044621D01*
X0121979Y0044631D01*
X0122034Y0044637D01*
X0122090Y0044639D01*
X0122146Y0044637D01*
X0122201Y0044631D01*
X0122255Y0044621D01*
X0122309Y0044607D01*
X0122362Y0044590D01*
X0122413Y0044569D01*
X0122463Y0044544D01*
X0122511Y0044515D01*
X0122556Y0044484D01*
X0122599Y0044449D01*
X0122640Y0044411D01*
X0122678Y0044370D01*
X0122713Y0044327D01*
X0122744Y0044282D01*
X0122773Y0044234D01*
X0122798Y0044184D01*
X0122819Y0044133D01*
X0122836Y0044080D01*
X0122850Y0044026D01*
X0122860Y0043972D01*
X0122866Y0043917D01*
X0122868Y0043861D01*
X0122868Y0044017D02*
X0122868Y0043394D01*
X0122868Y0044017D02*
X0122870Y0044066D01*
X0122876Y0044114D01*
X0122885Y0044162D01*
X0122898Y0044209D01*
X0122915Y0044255D01*
X0122936Y0044299D01*
X0122960Y0044342D01*
X0122987Y0044383D01*
X0123017Y0044421D01*
X0123050Y0044457D01*
X0123086Y0044490D01*
X0123124Y0044520D01*
X0123165Y0044547D01*
X0123208Y0044571D01*
X0123252Y0044592D01*
X0123298Y0044609D01*
X0123345Y0044622D01*
X0123393Y0044631D01*
X0123441Y0044637D01*
X0123490Y0044639D01*
X0123539Y0044637D01*
X0123587Y0044631D01*
X0123635Y0044622D01*
X0123682Y0044609D01*
X0123728Y0044592D01*
X0123772Y0044571D01*
X0123815Y0044547D01*
X0123856Y0044520D01*
X0123894Y0044490D01*
X0123930Y0044457D01*
X0123963Y0044421D01*
X0123993Y0044383D01*
X0124020Y0044342D01*
X0124044Y0044299D01*
X0124065Y0044255D01*
X0124082Y0044209D01*
X0124095Y0044162D01*
X0124104Y0044114D01*
X0124110Y0044066D01*
X0124112Y0044017D01*
X0124113Y0044017D02*
X0124113Y0043083D01*
X0124113Y0045783D02*
X0122868Y0045783D01*
X0122868Y0046717D01*
X0122866Y0046766D01*
X0122860Y0046814D01*
X0122851Y0046862D01*
X0122838Y0046909D01*
X0122821Y0046955D01*
X0122800Y0046999D01*
X0122776Y0047042D01*
X0122749Y0047083D01*
X0122719Y0047121D01*
X0122686Y0047157D01*
X0122650Y0047190D01*
X0122612Y0047220D01*
X0122571Y0047247D01*
X0122528Y0047271D01*
X0122484Y0047292D01*
X0122438Y0047309D01*
X0122391Y0047322D01*
X0122343Y0047331D01*
X0122295Y0047337D01*
X0122246Y0047339D01*
X0121935Y0047339D01*
X0121886Y0047337D01*
X0121838Y0047331D01*
X0121790Y0047322D01*
X0121743Y0047309D01*
X0121697Y0047292D01*
X0121653Y0047271D01*
X0121610Y0047247D01*
X0121569Y0047220D01*
X0121531Y0047190D01*
X0121495Y0047157D01*
X0121462Y0047121D01*
X0121432Y0047083D01*
X0121405Y0047042D01*
X0121381Y0046999D01*
X0121360Y0046955D01*
X0121343Y0046909D01*
X0121330Y0046862D01*
X0121321Y0046814D01*
X0121315Y0046766D01*
X0121313Y0046717D01*
X0121313Y0045783D01*
X0124113Y0045783D02*
X0124113Y0047339D01*
X0123856Y0058313D02*
X0124479Y0058313D01*
X0124528Y0058315D01*
X0124576Y0058321D01*
X0124624Y0058330D01*
X0124671Y0058343D01*
X0124717Y0058360D01*
X0124761Y0058381D01*
X0124804Y0058405D01*
X0124845Y0058432D01*
X0124883Y0058462D01*
X0124919Y0058495D01*
X0124952Y0058531D01*
X0124982Y0058569D01*
X0125009Y0058610D01*
X0125033Y0058653D01*
X0125054Y0058697D01*
X0125071Y0058743D01*
X0125084Y0058790D01*
X0125093Y0058838D01*
X0125099Y0058886D01*
X0125101Y0058935D01*
X0125101Y0060490D01*
X0125099Y0060539D01*
X0125093Y0060587D01*
X0125084Y0060635D01*
X0125071Y0060682D01*
X0125054Y0060728D01*
X0125033Y0060772D01*
X0125009Y0060815D01*
X0124982Y0060856D01*
X0124952Y0060894D01*
X0124919Y0060930D01*
X0124883Y0060963D01*
X0124845Y0060993D01*
X0124804Y0061020D01*
X0124761Y0061044D01*
X0124717Y0061065D01*
X0124671Y0061082D01*
X0124624Y0061095D01*
X0124576Y0061104D01*
X0124528Y0061110D01*
X0124479Y0061112D01*
X0124479Y0061113D02*
X0123856Y0061113D01*
X0121521Y0059868D02*
X0121486Y0059905D01*
X0121453Y0059943D01*
X0121422Y0059984D01*
X0121395Y0060026D01*
X0121370Y0060071D01*
X0121349Y0060117D01*
X0121330Y0060164D01*
X0121315Y0060212D01*
X0121303Y0060262D01*
X0121295Y0060312D01*
X0121290Y0060362D01*
X0121288Y0060413D01*
X0121521Y0059868D02*
X0122844Y0058313D01*
X0121288Y0058313D01*
X0120144Y0058313D02*
X0119366Y0058313D01*
X0119366Y0058312D02*
X0119310Y0058314D01*
X0119255Y0058320D01*
X0119201Y0058330D01*
X0119147Y0058344D01*
X0119094Y0058361D01*
X0119043Y0058382D01*
X0118993Y0058407D01*
X0118945Y0058436D01*
X0118900Y0058467D01*
X0118857Y0058502D01*
X0118816Y0058540D01*
X0118778Y0058581D01*
X0118743Y0058624D01*
X0118712Y0058669D01*
X0118683Y0058717D01*
X0118658Y0058767D01*
X0118637Y0058818D01*
X0118620Y0058871D01*
X0118606Y0058925D01*
X0118596Y0058979D01*
X0118590Y0059034D01*
X0118588Y0059090D01*
X0118590Y0059146D01*
X0118596Y0059201D01*
X0118606Y0059255D01*
X0118620Y0059309D01*
X0118637Y0059362D01*
X0118658Y0059413D01*
X0118683Y0059463D01*
X0118712Y0059511D01*
X0118743Y0059556D01*
X0118778Y0059599D01*
X0118816Y0059640D01*
X0118857Y0059678D01*
X0118900Y0059713D01*
X0118945Y0059744D01*
X0118993Y0059773D01*
X0119043Y0059798D01*
X0119094Y0059819D01*
X0119147Y0059836D01*
X0119201Y0059850D01*
X0119255Y0059860D01*
X0119310Y0059866D01*
X0119366Y0059868D01*
X0119210Y0059868D02*
X0119833Y0059868D01*
X0119210Y0059868D02*
X0119161Y0059870D01*
X0119113Y0059876D01*
X0119065Y0059885D01*
X0119018Y0059898D01*
X0118972Y0059915D01*
X0118928Y0059936D01*
X0118885Y0059960D01*
X0118844Y0059987D01*
X0118806Y0060017D01*
X0118770Y0060050D01*
X0118737Y0060086D01*
X0118707Y0060124D01*
X0118680Y0060165D01*
X0118656Y0060208D01*
X0118635Y0060252D01*
X0118618Y0060298D01*
X0118605Y0060345D01*
X0118596Y0060393D01*
X0118590Y0060441D01*
X0118588Y0060490D01*
X0118590Y0060539D01*
X0118596Y0060587D01*
X0118605Y0060635D01*
X0118618Y0060682D01*
X0118635Y0060728D01*
X0118656Y0060772D01*
X0118680Y0060815D01*
X0118707Y0060856D01*
X0118737Y0060894D01*
X0118770Y0060930D01*
X0118806Y0060963D01*
X0118844Y0060993D01*
X0118885Y0061020D01*
X0118928Y0061044D01*
X0118972Y0061065D01*
X0119018Y0061082D01*
X0119065Y0061095D01*
X0119113Y0061104D01*
X0119161Y0061110D01*
X0119210Y0061112D01*
X0119210Y0061113D02*
X0120144Y0061113D01*
X0121288Y0060413D02*
X0121290Y0060463D01*
X0121295Y0060513D01*
X0121304Y0060562D01*
X0121316Y0060610D01*
X0121332Y0060658D01*
X0121351Y0060704D01*
X0121374Y0060748D01*
X0121399Y0060791D01*
X0121428Y0060832D01*
X0121459Y0060871D01*
X0121493Y0060908D01*
X0121530Y0060942D01*
X0121569Y0060973D01*
X0121610Y0061002D01*
X0121653Y0061027D01*
X0121697Y0061050D01*
X0121743Y0061069D01*
X0121791Y0061085D01*
X0121839Y0061097D01*
X0121888Y0061106D01*
X0121938Y0061111D01*
X0121988Y0061113D01*
X0121988Y0061112D02*
X0122044Y0061110D01*
X0122101Y0061105D01*
X0122157Y0061096D01*
X0122212Y0061084D01*
X0122266Y0061068D01*
X0122319Y0061049D01*
X0122371Y0061026D01*
X0122421Y0061001D01*
X0122470Y0060972D01*
X0122517Y0060940D01*
X0122561Y0060905D01*
X0122604Y0060868D01*
X0122644Y0060828D01*
X0122681Y0060786D01*
X0122716Y0060741D01*
X0122747Y0060694D01*
X0122776Y0060645D01*
X0122802Y0060595D01*
X0122824Y0060543D01*
X0122843Y0060490D01*
X0123510Y0066088D02*
X0125065Y0066088D01*
X0125114Y0066090D01*
X0125162Y0066096D01*
X0125210Y0066105D01*
X0125257Y0066118D01*
X0125303Y0066135D01*
X0125347Y0066156D01*
X0125390Y0066180D01*
X0125431Y0066207D01*
X0125469Y0066237D01*
X0125505Y0066270D01*
X0125538Y0066306D01*
X0125568Y0066344D01*
X0125595Y0066385D01*
X0125619Y0066428D01*
X0125640Y0066472D01*
X0125657Y0066518D01*
X0125670Y0066565D01*
X0125679Y0066613D01*
X0125685Y0066661D01*
X0125687Y0066710D01*
X0125687Y0067333D01*
X0124442Y0069668D02*
X0124479Y0069703D01*
X0124517Y0069736D01*
X0124558Y0069767D01*
X0124600Y0069794D01*
X0124645Y0069819D01*
X0124691Y0069840D01*
X0124738Y0069859D01*
X0124786Y0069874D01*
X0124836Y0069886D01*
X0124886Y0069894D01*
X0124936Y0069899D01*
X0124987Y0069901D01*
X0124443Y0069667D02*
X0122887Y0068345D01*
X0122887Y0069901D01*
X0123665Y0071045D02*
X0124443Y0071045D01*
X0124443Y0071979D01*
X0124443Y0071046D02*
X0124513Y0071048D01*
X0124582Y0071054D01*
X0124651Y0071064D01*
X0124720Y0071077D01*
X0124787Y0071095D01*
X0124854Y0071116D01*
X0124919Y0071141D01*
X0124983Y0071169D01*
X0125045Y0071201D01*
X0125105Y0071237D01*
X0125163Y0071275D01*
X0125219Y0071317D01*
X0125272Y0071362D01*
X0125323Y0071410D01*
X0125371Y0071461D01*
X0125416Y0071514D01*
X0125458Y0071570D01*
X0125496Y0071628D01*
X0125532Y0071688D01*
X0125564Y0071750D01*
X0125592Y0071814D01*
X0125617Y0071879D01*
X0125638Y0071946D01*
X0125656Y0072013D01*
X0125669Y0072082D01*
X0125679Y0072151D01*
X0125685Y0072220D01*
X0125687Y0072290D01*
X0123821Y0072601D02*
X0123665Y0072601D01*
X0123821Y0072601D02*
X0123870Y0072599D01*
X0123918Y0072593D01*
X0123966Y0072584D01*
X0124013Y0072571D01*
X0124059Y0072554D01*
X0124103Y0072533D01*
X0124146Y0072509D01*
X0124187Y0072482D01*
X0124225Y0072452D01*
X0124261Y0072419D01*
X0124294Y0072383D01*
X0124324Y0072345D01*
X0124351Y0072304D01*
X0124375Y0072261D01*
X0124396Y0072217D01*
X0124413Y0072171D01*
X0124426Y0072124D01*
X0124435Y0072076D01*
X0124441Y0072028D01*
X0124443Y0071979D01*
X0123665Y0072601D02*
X0123609Y0072599D01*
X0123554Y0072593D01*
X0123500Y0072583D01*
X0123446Y0072569D01*
X0123393Y0072552D01*
X0123342Y0072531D01*
X0123292Y0072506D01*
X0123244Y0072477D01*
X0123199Y0072446D01*
X0123156Y0072411D01*
X0123115Y0072373D01*
X0123077Y0072332D01*
X0123042Y0072289D01*
X0123011Y0072244D01*
X0122982Y0072196D01*
X0122957Y0072146D01*
X0122936Y0072095D01*
X0122919Y0072042D01*
X0122905Y0071988D01*
X0122895Y0071934D01*
X0122889Y0071879D01*
X0122887Y0071823D01*
X0122889Y0071767D01*
X0122895Y0071712D01*
X0122905Y0071658D01*
X0122919Y0071604D01*
X0122936Y0071551D01*
X0122957Y0071500D01*
X0122982Y0071450D01*
X0123011Y0071402D01*
X0123042Y0071357D01*
X0123077Y0071314D01*
X0123115Y0071273D01*
X0123156Y0071235D01*
X0123199Y0071200D01*
X0123244Y0071169D01*
X0123292Y0071140D01*
X0123342Y0071115D01*
X0123393Y0071094D01*
X0123446Y0071077D01*
X0123500Y0071063D01*
X0123554Y0071053D01*
X0123609Y0071047D01*
X0123665Y0071045D01*
X0125687Y0069201D02*
X0125685Y0069145D01*
X0125680Y0069088D01*
X0125671Y0069032D01*
X0125659Y0068977D01*
X0125643Y0068923D01*
X0125624Y0068870D01*
X0125601Y0068818D01*
X0125576Y0068768D01*
X0125547Y0068719D01*
X0125515Y0068672D01*
X0125480Y0068628D01*
X0125443Y0068585D01*
X0125403Y0068545D01*
X0125361Y0068508D01*
X0125316Y0068473D01*
X0125269Y0068442D01*
X0125220Y0068413D01*
X0125170Y0068387D01*
X0125118Y0068365D01*
X0125065Y0068346D01*
X0125687Y0069201D02*
X0125685Y0069251D01*
X0125680Y0069301D01*
X0125671Y0069350D01*
X0125659Y0069398D01*
X0125643Y0069446D01*
X0125624Y0069492D01*
X0125601Y0069536D01*
X0125576Y0069579D01*
X0125547Y0069620D01*
X0125516Y0069659D01*
X0125482Y0069696D01*
X0125445Y0069730D01*
X0125406Y0069761D01*
X0125365Y0069790D01*
X0125322Y0069815D01*
X0125278Y0069838D01*
X0125232Y0069857D01*
X0125184Y0069873D01*
X0125136Y0069885D01*
X0125087Y0069894D01*
X0125037Y0069899D01*
X0124987Y0069901D01*
X0122887Y0067333D02*
X0122887Y0066710D01*
X0122888Y0066710D02*
X0122890Y0066661D01*
X0122896Y0066613D01*
X0122905Y0066565D01*
X0122918Y0066518D01*
X0122935Y0066472D01*
X0122956Y0066428D01*
X0122980Y0066385D01*
X0123007Y0066344D01*
X0123037Y0066306D01*
X0123070Y0066270D01*
X0123106Y0066237D01*
X0123144Y0066207D01*
X0123185Y0066180D01*
X0123228Y0066156D01*
X0123272Y0066135D01*
X0123318Y0066118D01*
X0123365Y0066105D01*
X0123413Y0066096D01*
X0123461Y0066090D01*
X0123510Y0066088D01*
X0117187Y0064290D02*
X0117185Y0064220D01*
X0117179Y0064151D01*
X0117169Y0064082D01*
X0117156Y0064013D01*
X0117138Y0063946D01*
X0117117Y0063879D01*
X0117092Y0063814D01*
X0117064Y0063750D01*
X0117032Y0063688D01*
X0116996Y0063628D01*
X0116958Y0063570D01*
X0116916Y0063514D01*
X0116871Y0063461D01*
X0116823Y0063410D01*
X0116772Y0063362D01*
X0116719Y0063317D01*
X0116663Y0063275D01*
X0116605Y0063237D01*
X0116545Y0063201D01*
X0116483Y0063169D01*
X0116419Y0063141D01*
X0116354Y0063116D01*
X0116287Y0063095D01*
X0116220Y0063077D01*
X0116151Y0063064D01*
X0116082Y0063054D01*
X0116013Y0063048D01*
X0115943Y0063046D01*
X0115943Y0063045D02*
X0115165Y0063045D01*
X0115943Y0063045D02*
X0115943Y0063979D01*
X0115941Y0064028D01*
X0115935Y0064076D01*
X0115926Y0064124D01*
X0115913Y0064171D01*
X0115896Y0064217D01*
X0115875Y0064261D01*
X0115851Y0064304D01*
X0115824Y0064345D01*
X0115794Y0064383D01*
X0115761Y0064419D01*
X0115725Y0064452D01*
X0115687Y0064482D01*
X0115646Y0064509D01*
X0115603Y0064533D01*
X0115559Y0064554D01*
X0115513Y0064571D01*
X0115466Y0064584D01*
X0115418Y0064593D01*
X0115370Y0064599D01*
X0115321Y0064601D01*
X0115165Y0064601D01*
X0115109Y0064599D01*
X0115054Y0064593D01*
X0115000Y0064583D01*
X0114946Y0064569D01*
X0114893Y0064552D01*
X0114842Y0064531D01*
X0114792Y0064506D01*
X0114744Y0064477D01*
X0114699Y0064446D01*
X0114656Y0064411D01*
X0114615Y0064373D01*
X0114577Y0064332D01*
X0114542Y0064289D01*
X0114511Y0064244D01*
X0114482Y0064196D01*
X0114457Y0064146D01*
X0114436Y0064095D01*
X0114419Y0064042D01*
X0114405Y0063988D01*
X0114395Y0063934D01*
X0114389Y0063879D01*
X0114387Y0063823D01*
X0114389Y0063767D01*
X0114395Y0063712D01*
X0114405Y0063658D01*
X0114419Y0063604D01*
X0114436Y0063551D01*
X0114457Y0063500D01*
X0114482Y0063450D01*
X0114511Y0063402D01*
X0114542Y0063357D01*
X0114577Y0063314D01*
X0114615Y0063273D01*
X0114656Y0063235D01*
X0114699Y0063200D01*
X0114744Y0063169D01*
X0114792Y0063140D01*
X0114842Y0063115D01*
X0114893Y0063094D01*
X0114946Y0063077D01*
X0115000Y0063063D01*
X0115054Y0063053D01*
X0115109Y0063047D01*
X0115165Y0063045D01*
X0115943Y0061123D02*
X0115941Y0061179D01*
X0115935Y0061234D01*
X0115925Y0061288D01*
X0115911Y0061342D01*
X0115894Y0061395D01*
X0115873Y0061446D01*
X0115848Y0061496D01*
X0115819Y0061544D01*
X0115788Y0061589D01*
X0115753Y0061632D01*
X0115715Y0061673D01*
X0115674Y0061711D01*
X0115631Y0061746D01*
X0115586Y0061777D01*
X0115538Y0061806D01*
X0115488Y0061831D01*
X0115437Y0061852D01*
X0115384Y0061869D01*
X0115330Y0061883D01*
X0115276Y0061893D01*
X0115221Y0061899D01*
X0115165Y0061901D01*
X0115109Y0061899D01*
X0115054Y0061893D01*
X0115000Y0061883D01*
X0114946Y0061869D01*
X0114893Y0061852D01*
X0114842Y0061831D01*
X0114792Y0061806D01*
X0114744Y0061777D01*
X0114699Y0061746D01*
X0114656Y0061711D01*
X0114615Y0061673D01*
X0114577Y0061632D01*
X0114542Y0061589D01*
X0114511Y0061544D01*
X0114482Y0061496D01*
X0114457Y0061446D01*
X0114436Y0061395D01*
X0114419Y0061342D01*
X0114405Y0061288D01*
X0114395Y0061234D01*
X0114389Y0061179D01*
X0114387Y0061123D01*
X0114387Y0060345D01*
X0114387Y0059217D02*
X0115632Y0058595D01*
X0115632Y0058439D02*
X0115632Y0057661D01*
X0115632Y0058439D02*
X0115634Y0058495D01*
X0115640Y0058550D01*
X0115650Y0058604D01*
X0115664Y0058658D01*
X0115681Y0058711D01*
X0115702Y0058762D01*
X0115727Y0058812D01*
X0115756Y0058860D01*
X0115787Y0058905D01*
X0115822Y0058948D01*
X0115860Y0058989D01*
X0115901Y0059027D01*
X0115944Y0059062D01*
X0115989Y0059093D01*
X0116037Y0059122D01*
X0116087Y0059147D01*
X0116138Y0059168D01*
X0116191Y0059185D01*
X0116245Y0059199D01*
X0116299Y0059209D01*
X0116354Y0059215D01*
X0116410Y0059217D01*
X0116466Y0059215D01*
X0116521Y0059209D01*
X0116575Y0059199D01*
X0116629Y0059185D01*
X0116682Y0059168D01*
X0116733Y0059147D01*
X0116783Y0059122D01*
X0116831Y0059093D01*
X0116876Y0059062D01*
X0116919Y0059027D01*
X0116960Y0058989D01*
X0116998Y0058948D01*
X0117033Y0058905D01*
X0117064Y0058860D01*
X0117093Y0058812D01*
X0117118Y0058762D01*
X0117139Y0058711D01*
X0117156Y0058658D01*
X0117170Y0058604D01*
X0117180Y0058550D01*
X0117186Y0058495D01*
X0117188Y0058439D01*
X0117187Y0058439D02*
X0117187Y0057661D01*
X0114387Y0057661D01*
X0115943Y0060656D02*
X0115943Y0061279D01*
X0115945Y0061328D01*
X0115951Y0061376D01*
X0115960Y0061424D01*
X0115973Y0061471D01*
X0115990Y0061517D01*
X0116011Y0061561D01*
X0116035Y0061604D01*
X0116062Y0061645D01*
X0116092Y0061683D01*
X0116125Y0061719D01*
X0116161Y0061752D01*
X0116199Y0061782D01*
X0116240Y0061809D01*
X0116283Y0061833D01*
X0116327Y0061854D01*
X0116373Y0061871D01*
X0116420Y0061884D01*
X0116468Y0061893D01*
X0116516Y0061899D01*
X0116565Y0061901D01*
X0116614Y0061899D01*
X0116662Y0061893D01*
X0116710Y0061884D01*
X0116757Y0061871D01*
X0116803Y0061854D01*
X0116847Y0061833D01*
X0116890Y0061809D01*
X0116931Y0061782D01*
X0116969Y0061752D01*
X0117005Y0061719D01*
X0117038Y0061683D01*
X0117068Y0061645D01*
X0117095Y0061604D01*
X0117119Y0061561D01*
X0117140Y0061517D01*
X0117157Y0061471D01*
X0117170Y0061424D01*
X0117179Y0061376D01*
X0117185Y0061328D01*
X0117187Y0061279D01*
X0117187Y0060345D01*
X0106046Y0063663D02*
X0106046Y0064231D01*
X0106046Y0063947D02*
X0103490Y0063947D01*
X0103490Y0063663D02*
X0103490Y0064231D01*
X0104058Y0065214D02*
X0105478Y0065214D01*
X0105525Y0065216D01*
X0105571Y0065222D01*
X0105617Y0065231D01*
X0105662Y0065245D01*
X0105706Y0065262D01*
X0105748Y0065282D01*
X0105789Y0065306D01*
X0105827Y0065334D01*
X0105863Y0065364D01*
X0105896Y0065397D01*
X0105926Y0065433D01*
X0105954Y0065471D01*
X0105978Y0065512D01*
X0105998Y0065554D01*
X0106015Y0065598D01*
X0106029Y0065643D01*
X0106038Y0065688D01*
X0106044Y0065735D01*
X0106046Y0065782D01*
X0106046Y0066350D01*
X0104910Y0068495D02*
X0104946Y0068530D01*
X0104985Y0068563D01*
X0105026Y0068592D01*
X0105069Y0068619D01*
X0105114Y0068642D01*
X0105160Y0068662D01*
X0105208Y0068678D01*
X0105257Y0068691D01*
X0105306Y0068701D01*
X0105357Y0068706D01*
X0105407Y0068708D01*
X0104910Y0068495D02*
X0103490Y0067288D01*
X0103490Y0068708D01*
X0105478Y0067288D02*
X0105529Y0067306D01*
X0105579Y0067328D01*
X0105627Y0067353D01*
X0105674Y0067381D01*
X0105718Y0067413D01*
X0105760Y0067447D01*
X0105800Y0067483D01*
X0105838Y0067523D01*
X0105873Y0067564D01*
X0105905Y0067608D01*
X0105934Y0067654D01*
X0105959Y0067702D01*
X0105982Y0067751D01*
X0106001Y0067802D01*
X0106017Y0067854D01*
X0106030Y0067907D01*
X0106039Y0067961D01*
X0106044Y0068015D01*
X0106046Y0068069D01*
X0106044Y0068117D01*
X0106039Y0068164D01*
X0106030Y0068211D01*
X0106018Y0068257D01*
X0106002Y0068302D01*
X0105983Y0068346D01*
X0105960Y0068389D01*
X0105935Y0068429D01*
X0105907Y0068467D01*
X0105875Y0068504D01*
X0105842Y0068537D01*
X0105805Y0068569D01*
X0105767Y0068597D01*
X0105727Y0068622D01*
X0105684Y0068645D01*
X0105640Y0068664D01*
X0105595Y0068680D01*
X0105549Y0068692D01*
X0105502Y0068701D01*
X0105455Y0068706D01*
X0105407Y0068708D01*
X0103490Y0066350D02*
X0103490Y0065782D01*
X0103492Y0065735D01*
X0103498Y0065689D01*
X0103507Y0065643D01*
X0103521Y0065598D01*
X0103538Y0065554D01*
X0103558Y0065512D01*
X0103582Y0065471D01*
X0103610Y0065433D01*
X0103640Y0065397D01*
X0103673Y0065364D01*
X0103709Y0065334D01*
X0103747Y0065306D01*
X0103788Y0065282D01*
X0103830Y0065262D01*
X0103874Y0065245D01*
X0103919Y0065231D01*
X0103965Y0065222D01*
X0104011Y0065216D01*
X0104058Y0065214D01*
X0084412Y0075510D02*
X0084412Y0077065D01*
X0084410Y0077114D01*
X0084404Y0077162D01*
X0084395Y0077210D01*
X0084382Y0077257D01*
X0084365Y0077303D01*
X0084344Y0077347D01*
X0084320Y0077390D01*
X0084293Y0077431D01*
X0084263Y0077469D01*
X0084230Y0077505D01*
X0084194Y0077538D01*
X0084156Y0077568D01*
X0084115Y0077595D01*
X0084072Y0077619D01*
X0084028Y0077640D01*
X0083982Y0077657D01*
X0083935Y0077670D01*
X0083887Y0077679D01*
X0083839Y0077685D01*
X0083790Y0077687D01*
X0083167Y0077687D01*
X0080832Y0076442D02*
X0080797Y0076479D01*
X0080764Y0076517D01*
X0080733Y0076558D01*
X0080706Y0076600D01*
X0080681Y0076645D01*
X0080660Y0076691D01*
X0080641Y0076738D01*
X0080626Y0076786D01*
X0080614Y0076836D01*
X0080606Y0076886D01*
X0080601Y0076936D01*
X0080599Y0076987D01*
X0080833Y0076443D02*
X0082155Y0074887D01*
X0080599Y0074887D01*
X0079455Y0074887D02*
X0078521Y0074887D01*
X0078521Y0074888D02*
X0078472Y0074890D01*
X0078424Y0074896D01*
X0078376Y0074905D01*
X0078329Y0074918D01*
X0078283Y0074935D01*
X0078239Y0074956D01*
X0078196Y0074980D01*
X0078155Y0075007D01*
X0078117Y0075037D01*
X0078081Y0075070D01*
X0078048Y0075106D01*
X0078018Y0075144D01*
X0077991Y0075185D01*
X0077967Y0075228D01*
X0077946Y0075272D01*
X0077929Y0075318D01*
X0077916Y0075365D01*
X0077907Y0075413D01*
X0077901Y0075461D01*
X0077899Y0075510D01*
X0077899Y0075821D01*
X0077901Y0075870D01*
X0077907Y0075918D01*
X0077916Y0075966D01*
X0077929Y0076013D01*
X0077946Y0076059D01*
X0077967Y0076103D01*
X0077991Y0076146D01*
X0078018Y0076187D01*
X0078048Y0076225D01*
X0078081Y0076261D01*
X0078117Y0076294D01*
X0078155Y0076324D01*
X0078196Y0076351D01*
X0078239Y0076375D01*
X0078283Y0076396D01*
X0078329Y0076413D01*
X0078376Y0076426D01*
X0078424Y0076435D01*
X0078472Y0076441D01*
X0078521Y0076443D01*
X0079455Y0076443D01*
X0079455Y0077687D01*
X0077899Y0077687D01*
X0080599Y0076987D02*
X0080601Y0077037D01*
X0080606Y0077087D01*
X0080615Y0077136D01*
X0080627Y0077184D01*
X0080643Y0077232D01*
X0080662Y0077278D01*
X0080685Y0077322D01*
X0080710Y0077365D01*
X0080739Y0077406D01*
X0080770Y0077445D01*
X0080804Y0077482D01*
X0080841Y0077516D01*
X0080880Y0077547D01*
X0080921Y0077576D01*
X0080964Y0077601D01*
X0081008Y0077624D01*
X0081054Y0077643D01*
X0081102Y0077659D01*
X0081150Y0077671D01*
X0081199Y0077680D01*
X0081249Y0077685D01*
X0081299Y0077687D01*
X0081355Y0077685D01*
X0081412Y0077680D01*
X0081468Y0077671D01*
X0081523Y0077659D01*
X0081577Y0077643D01*
X0081630Y0077624D01*
X0081682Y0077601D01*
X0081732Y0077576D01*
X0081781Y0077547D01*
X0081828Y0077515D01*
X0081872Y0077480D01*
X0081915Y0077443D01*
X0081955Y0077403D01*
X0081992Y0077361D01*
X0082027Y0077316D01*
X0082058Y0077269D01*
X0082087Y0077220D01*
X0082113Y0077170D01*
X0082135Y0077118D01*
X0082154Y0077065D01*
X0083790Y0074888D02*
X0083839Y0074890D01*
X0083887Y0074896D01*
X0083935Y0074905D01*
X0083982Y0074918D01*
X0084028Y0074935D01*
X0084072Y0074956D01*
X0084115Y0074980D01*
X0084156Y0075007D01*
X0084194Y0075037D01*
X0084230Y0075070D01*
X0084263Y0075106D01*
X0084293Y0075144D01*
X0084320Y0075185D01*
X0084344Y0075228D01*
X0084365Y0075272D01*
X0084382Y0075318D01*
X0084395Y0075365D01*
X0084404Y0075413D01*
X0084410Y0075461D01*
X0084412Y0075510D01*
X0083790Y0074887D02*
X0083167Y0074887D01*
X0095510Y0090588D02*
X0097065Y0090588D01*
X0097114Y0090590D01*
X0097162Y0090596D01*
X0097210Y0090605D01*
X0097257Y0090618D01*
X0097303Y0090635D01*
X0097347Y0090656D01*
X0097390Y0090680D01*
X0097431Y0090707D01*
X0097469Y0090737D01*
X0097505Y0090770D01*
X0097538Y0090806D01*
X0097568Y0090844D01*
X0097595Y0090885D01*
X0097619Y0090928D01*
X0097640Y0090972D01*
X0097657Y0091018D01*
X0097670Y0091065D01*
X0097679Y0091113D01*
X0097685Y0091161D01*
X0097687Y0091210D01*
X0097687Y0091833D01*
X0096442Y0094168D02*
X0096479Y0094203D01*
X0096517Y0094236D01*
X0096558Y0094267D01*
X0096600Y0094294D01*
X0096645Y0094319D01*
X0096691Y0094340D01*
X0096738Y0094359D01*
X0096786Y0094374D01*
X0096836Y0094386D01*
X0096886Y0094394D01*
X0096936Y0094399D01*
X0096987Y0094401D01*
X0096443Y0094167D02*
X0094887Y0092845D01*
X0094887Y0094401D01*
X0095510Y0095545D02*
X0095510Y0097101D01*
X0096132Y0096634D02*
X0094887Y0096634D01*
X0095510Y0095545D02*
X0097687Y0096167D01*
X0096987Y0094401D02*
X0097037Y0094399D01*
X0097087Y0094394D01*
X0097136Y0094385D01*
X0097184Y0094373D01*
X0097232Y0094357D01*
X0097278Y0094338D01*
X0097322Y0094315D01*
X0097365Y0094290D01*
X0097406Y0094261D01*
X0097445Y0094230D01*
X0097482Y0094196D01*
X0097516Y0094159D01*
X0097547Y0094120D01*
X0097576Y0094079D01*
X0097601Y0094036D01*
X0097624Y0093992D01*
X0097643Y0093946D01*
X0097659Y0093898D01*
X0097671Y0093850D01*
X0097680Y0093801D01*
X0097685Y0093751D01*
X0097687Y0093701D01*
X0097685Y0093645D01*
X0097680Y0093588D01*
X0097671Y0093532D01*
X0097659Y0093477D01*
X0097643Y0093423D01*
X0097624Y0093370D01*
X0097601Y0093318D01*
X0097576Y0093268D01*
X0097547Y0093219D01*
X0097515Y0093172D01*
X0097480Y0093128D01*
X0097443Y0093085D01*
X0097403Y0093045D01*
X0097361Y0093008D01*
X0097316Y0092973D01*
X0097269Y0092942D01*
X0097220Y0092913D01*
X0097170Y0092887D01*
X0097118Y0092865D01*
X0097065Y0092846D01*
X0094888Y0091210D02*
X0094890Y0091161D01*
X0094896Y0091113D01*
X0094905Y0091065D01*
X0094918Y0091018D01*
X0094935Y0090972D01*
X0094956Y0090928D01*
X0094980Y0090885D01*
X0095007Y0090844D01*
X0095037Y0090806D01*
X0095070Y0090770D01*
X0095106Y0090737D01*
X0095144Y0090707D01*
X0095185Y0090680D01*
X0095228Y0090656D01*
X0095272Y0090635D01*
X0095318Y0090618D01*
X0095365Y0090605D01*
X0095413Y0090596D01*
X0095461Y0090590D01*
X0095510Y0090588D01*
X0094887Y0091210D02*
X0094887Y0091833D01*
X0108588Y0085613D02*
X0109366Y0082813D01*
X0111288Y0082813D02*
X0112844Y0082813D01*
X0111521Y0084368D01*
X0111988Y0085612D02*
X0112044Y0085610D01*
X0112101Y0085605D01*
X0112157Y0085596D01*
X0112212Y0085584D01*
X0112266Y0085568D01*
X0112319Y0085549D01*
X0112371Y0085526D01*
X0112421Y0085501D01*
X0112470Y0085472D01*
X0112517Y0085440D01*
X0112561Y0085405D01*
X0112604Y0085368D01*
X0112644Y0085328D01*
X0112681Y0085286D01*
X0112716Y0085241D01*
X0112747Y0085194D01*
X0112776Y0085145D01*
X0112802Y0085095D01*
X0112824Y0085043D01*
X0112843Y0084990D01*
X0111521Y0084368D02*
X0111486Y0084405D01*
X0111453Y0084443D01*
X0111422Y0084484D01*
X0111395Y0084526D01*
X0111370Y0084571D01*
X0111349Y0084617D01*
X0111330Y0084664D01*
X0111315Y0084712D01*
X0111303Y0084762D01*
X0111295Y0084812D01*
X0111290Y0084862D01*
X0111288Y0084913D01*
X0111290Y0084963D01*
X0111295Y0085013D01*
X0111304Y0085062D01*
X0111316Y0085110D01*
X0111332Y0085158D01*
X0111351Y0085204D01*
X0111374Y0085248D01*
X0111399Y0085291D01*
X0111428Y0085332D01*
X0111459Y0085371D01*
X0111493Y0085408D01*
X0111530Y0085442D01*
X0111569Y0085473D01*
X0111610Y0085502D01*
X0111653Y0085527D01*
X0111697Y0085550D01*
X0111743Y0085569D01*
X0111791Y0085585D01*
X0111839Y0085597D01*
X0111888Y0085606D01*
X0111938Y0085611D01*
X0111988Y0085613D01*
X0110144Y0085613D02*
X0108588Y0085613D01*
X0110144Y0085613D02*
X0110144Y0085301D01*
X0113856Y0085613D02*
X0114479Y0085613D01*
X0114479Y0085612D02*
X0114528Y0085610D01*
X0114576Y0085604D01*
X0114624Y0085595D01*
X0114671Y0085582D01*
X0114717Y0085565D01*
X0114761Y0085544D01*
X0114804Y0085520D01*
X0114845Y0085493D01*
X0114883Y0085463D01*
X0114919Y0085430D01*
X0114952Y0085394D01*
X0114982Y0085356D01*
X0115009Y0085315D01*
X0115033Y0085272D01*
X0115054Y0085228D01*
X0115071Y0085182D01*
X0115084Y0085135D01*
X0115093Y0085087D01*
X0115099Y0085039D01*
X0115101Y0084990D01*
X0115101Y0083435D01*
X0115099Y0083386D01*
X0115093Y0083338D01*
X0115084Y0083290D01*
X0115071Y0083243D01*
X0115054Y0083197D01*
X0115033Y0083153D01*
X0115009Y0083110D01*
X0114982Y0083069D01*
X0114952Y0083031D01*
X0114919Y0082995D01*
X0114883Y0082962D01*
X0114845Y0082932D01*
X0114804Y0082905D01*
X0114761Y0082881D01*
X0114717Y0082860D01*
X0114671Y0082843D01*
X0114624Y0082830D01*
X0114576Y0082821D01*
X0114528Y0082815D01*
X0114479Y0082813D01*
X0113856Y0082813D01*
D12*
X0112000Y0077000D02*
X0104000Y0077000D01*
X0108000Y0073000D02*
X0108000Y0081000D01*
X0102500Y0083500D02*
X0102500Y0091500D01*
X0098500Y0087500D02*
X0106500Y0087500D01*
X0095500Y0082500D02*
X0087500Y0082500D01*
X0091500Y0078500D02*
X0091500Y0086500D01*
X0094500Y0070500D02*
X0094500Y0062500D01*
X0090500Y0066500D02*
X0098500Y0066500D01*
X0109500Y0058500D02*
X0109500Y0050500D01*
X0105500Y0050000D02*
X0097500Y0050000D01*
X0101500Y0046000D02*
X0101500Y0054000D01*
X0105500Y0054500D02*
X0113500Y0054500D01*
X0118000Y0053500D02*
X0126000Y0053500D01*
X0122000Y0049500D02*
X0122000Y0057500D01*
X0114000Y0065762D02*
X0114000Y0072238D01*
X0110762Y0069000D02*
X0117238Y0069000D01*
X0117000Y0047000D02*
X0117000Y0039000D01*
X0113000Y0043000D02*
X0121000Y0043000D01*
X0110500Y0025500D02*
X0110500Y0017500D01*
X0106500Y0021500D02*
X0114500Y0021500D01*
X0106000Y0021500D02*
X0098000Y0021500D01*
X0102000Y0017500D02*
X0102000Y0025500D01*
X0091000Y0041262D02*
X0091000Y0047738D01*
X0087762Y0044500D02*
X0094238Y0044500D01*
X0087000Y0044500D02*
X0079000Y0044500D01*
X0083000Y0040500D02*
X0083000Y0048500D01*
D13*
X0095614Y0048386D02*
X0095614Y0041299D01*
X0096402Y0041299D01*
X0099551Y0041299D02*
X0103488Y0041299D01*
X0106638Y0041299D02*
X0107425Y0041299D01*
X0107425Y0048386D01*
X0103094Y0048386D01*
X0099945Y0048386D02*
X0095614Y0048386D01*
M02*
