G75*
%MOIN*%
%OFA0B0*%
%FSLAX25Y25*%
%IPPOS*%
%LPD*%
%AMOC8*
5,1,8,0,0,1.08239X$1,22.5*
%
%ADD10R,0.05000X0.04000*%
%ADD11OC8,0.05600*%
%ADD12R,0.05900X0.05900*%
%ADD13C,0.05900*%
%ADD14R,0.04756X0.04756*%
%ADD15C,0.04756*%
%ADD16R,0.00984X0.03937*%
%ADD17R,0.04000X0.05000*%
%ADD18R,0.02400X0.04800*%
%ADD19C,0.02978*%
%ADD20C,0.01000*%
%ADD21C,0.03000*%
%ADD22C,0.01600*%
D10*
X0083000Y0040220D03*
X0091000Y0040220D03*
X0091000Y0048819D03*
X0083000Y0048819D03*
X0109500Y0050181D03*
X0117000Y0047319D03*
X0117000Y0038720D03*
X0110500Y0025819D03*
X0102000Y0025819D03*
X0102000Y0017220D03*
X0110500Y0017220D03*
X0109500Y0058780D03*
X0102500Y0083181D03*
X0102500Y0091780D03*
D11*
X0025500Y0092500D03*
X0010500Y0092500D03*
X0010500Y0110500D03*
X0025500Y0110500D03*
X0025500Y0128500D03*
X0010500Y0128500D03*
X0010500Y0146500D03*
X0025500Y0146500D03*
X0025500Y0074500D03*
X0010500Y0074500D03*
X0010500Y0056500D03*
X0025500Y0056500D03*
X0025500Y0038500D03*
X0010500Y0038500D03*
X0010500Y0020500D03*
X0025500Y0020500D03*
X0195500Y0020500D03*
X0210500Y0020500D03*
X0210500Y0038500D03*
X0195500Y0038500D03*
X0195500Y0056500D03*
X0210500Y0056500D03*
X0210500Y0074500D03*
X0195500Y0074500D03*
X0195500Y0092500D03*
X0210500Y0092500D03*
X0210500Y0110500D03*
X0195500Y0110500D03*
X0195500Y0128500D03*
X0210500Y0128500D03*
X0210500Y0146500D03*
X0195500Y0146500D03*
D12*
X0115500Y0175500D03*
X0095500Y0175500D03*
X0105500Y0008500D03*
X0195500Y0008500D03*
D13*
X0185500Y0008500D03*
X0175500Y0008500D03*
X0165500Y0008500D03*
X0155500Y0008500D03*
X0145500Y0008500D03*
X0135500Y0008500D03*
X0125500Y0008500D03*
X0115500Y0008500D03*
X0095500Y0008500D03*
X0085500Y0008500D03*
X0075500Y0008500D03*
X0065500Y0008500D03*
X0055500Y0008500D03*
X0045500Y0008500D03*
X0035500Y0008500D03*
X0025500Y0008500D03*
X0025500Y0175500D03*
X0035500Y0175500D03*
X0045500Y0175500D03*
X0055500Y0175500D03*
X0065500Y0175500D03*
X0075500Y0175500D03*
X0085500Y0175500D03*
X0125500Y0175500D03*
X0135500Y0175500D03*
X0145500Y0175500D03*
X0155500Y0175500D03*
X0165500Y0175500D03*
X0175500Y0175500D03*
X0185500Y0175500D03*
X0195500Y0175500D03*
D14*
X0074004Y0149563D03*
D15*
X0081878Y0149563D03*
X0089752Y0149563D03*
X0097626Y0149563D03*
X0105500Y0149563D03*
X0105500Y0157437D03*
X0097626Y0157437D03*
X0089752Y0157437D03*
X0081878Y0157437D03*
X0074004Y0157437D03*
X0113374Y0157437D03*
X0121248Y0157437D03*
X0121248Y0149563D03*
X0113374Y0149563D03*
X0129122Y0149563D03*
X0136996Y0149563D03*
X0136996Y0157437D03*
X0129122Y0157437D03*
D16*
X0098437Y0075752D03*
X0096469Y0075752D03*
X0094500Y0075752D03*
X0092531Y0075752D03*
X0090563Y0075752D03*
X0090563Y0057248D03*
X0092531Y0057248D03*
X0094500Y0057248D03*
X0096469Y0057248D03*
X0098437Y0057248D03*
D17*
X0109681Y0069000D03*
X0112280Y0077000D03*
X0103681Y0077000D03*
X0095819Y0082500D03*
X0087220Y0082500D03*
X0118280Y0069000D03*
X0117681Y0053500D03*
X0126280Y0053500D03*
D18*
X0105063Y0039724D03*
X0097976Y0039724D03*
X0101520Y0049961D03*
D19*
X0097000Y0045000D03*
X0112000Y0045500D03*
X0117000Y0047319D03*
X0117681Y0053500D03*
X0134000Y0038000D03*
X0107500Y0031500D03*
X0090319Y0019500D03*
X0059220Y0027941D03*
X0098500Y0063000D03*
X0092500Y0065000D03*
X0096500Y0069500D03*
X0088000Y0071500D03*
X0094500Y0087500D03*
X0086500Y0109500D03*
X0129000Y0080500D03*
X0151500Y0086500D03*
X0169819Y0026000D03*
X0160500Y0011500D03*
X0038500Y0119500D03*
X0044000Y0154500D03*
X0070450Y0165889D03*
X0094000Y0167000D03*
X0158089Y0152911D03*
X0162775Y0158225D03*
X0167461Y0163539D03*
X0179500Y0155000D03*
X0185500Y0157948D03*
D20*
X0006000Y0178500D02*
X0006000Y0006000D01*
X0022272Y0006000D01*
X0022067Y0006206D01*
X0021450Y0007694D01*
X0021450Y0009306D01*
X0022067Y0010794D01*
X0023206Y0011933D01*
X0024694Y0012550D01*
X0026306Y0012550D01*
X0027794Y0011933D01*
X0028933Y0010794D01*
X0029550Y0009306D01*
X0029550Y0007694D01*
X0028933Y0006206D01*
X0028728Y0006000D01*
X0032272Y0006000D01*
X0032067Y0006206D01*
X0031450Y0007694D01*
X0031450Y0009306D01*
X0032067Y0010794D01*
X0033206Y0011933D01*
X0034694Y0012550D01*
X0036306Y0012550D01*
X0037794Y0011933D01*
X0038933Y0010794D01*
X0039550Y0009306D01*
X0039550Y0007694D01*
X0038933Y0006206D01*
X0038728Y0006000D01*
X0042272Y0006000D01*
X0042067Y0006206D01*
X0041450Y0007694D01*
X0041450Y0009306D01*
X0042067Y0010794D01*
X0043206Y0011933D01*
X0044694Y0012550D01*
X0046306Y0012550D01*
X0047794Y0011933D01*
X0048933Y0010794D01*
X0049550Y0009306D01*
X0049550Y0007694D01*
X0048933Y0006206D01*
X0048728Y0006000D01*
X0052272Y0006000D01*
X0052067Y0006206D01*
X0051450Y0007694D01*
X0051450Y0009306D01*
X0052067Y0010794D01*
X0053206Y0011933D01*
X0054694Y0012550D01*
X0056306Y0012550D01*
X0057794Y0011933D01*
X0058933Y0010794D01*
X0059550Y0009306D01*
X0059550Y0007694D01*
X0058933Y0006206D01*
X0058728Y0006000D01*
X0062272Y0006000D01*
X0062067Y0006206D01*
X0061450Y0007694D01*
X0061450Y0009306D01*
X0062067Y0010794D01*
X0063206Y0011933D01*
X0064694Y0012550D01*
X0066306Y0012550D01*
X0067794Y0011933D01*
X0068933Y0010794D01*
X0069550Y0009306D01*
X0069550Y0007694D01*
X0068933Y0006206D01*
X0068728Y0006000D01*
X0072272Y0006000D01*
X0072067Y0006206D01*
X0071450Y0007694D01*
X0071450Y0009306D01*
X0072067Y0010794D01*
X0073206Y0011933D01*
X0074694Y0012550D01*
X0076306Y0012550D01*
X0077794Y0011933D01*
X0078933Y0010794D01*
X0079550Y0009306D01*
X0079550Y0007694D01*
X0078933Y0006206D01*
X0078728Y0006000D01*
X0082272Y0006000D01*
X0082067Y0006206D01*
X0081450Y0007694D01*
X0081450Y0009306D01*
X0082067Y0010794D01*
X0083206Y0011933D01*
X0084694Y0012550D01*
X0086306Y0012550D01*
X0087794Y0011933D01*
X0088933Y0010794D01*
X0089550Y0009306D01*
X0089550Y0007694D01*
X0088933Y0006206D01*
X0088728Y0006000D01*
X0092272Y0006000D01*
X0092067Y0006206D01*
X0091450Y0007694D01*
X0091450Y0009306D01*
X0092067Y0010794D01*
X0093206Y0011933D01*
X0094694Y0012550D01*
X0096306Y0012550D01*
X0097000Y0012262D01*
X0098692Y0013955D01*
X0098579Y0014020D01*
X0098300Y0014299D01*
X0098102Y0014641D01*
X0098000Y0015023D01*
X0098000Y0016720D01*
X0101500Y0016720D01*
X0101500Y0014150D01*
X0102500Y0014150D01*
X0102500Y0016720D01*
X0101500Y0016720D01*
X0101500Y0017720D01*
X0098000Y0017720D01*
X0098000Y0019418D01*
X0098102Y0019799D01*
X0098300Y0020141D01*
X0098579Y0020421D01*
X0098921Y0020618D01*
X0099303Y0020720D01*
X0101500Y0020720D01*
X0101500Y0017721D01*
X0102500Y0017721D01*
X0102500Y0020720D01*
X0104697Y0020720D01*
X0105079Y0020618D01*
X0105421Y0020421D01*
X0105700Y0020141D01*
X0105898Y0019799D01*
X0106000Y0019418D01*
X0106000Y0017720D01*
X0102500Y0017720D01*
X0102500Y0016720D01*
X0106000Y0016720D01*
X0106000Y0015023D01*
X0105898Y0014641D01*
X0105700Y0014299D01*
X0105551Y0014150D01*
X0106949Y0014150D01*
X0106800Y0014299D01*
X0106602Y0014641D01*
X0106500Y0015023D01*
X0106500Y0016720D01*
X0110000Y0016720D01*
X0111000Y0016720D01*
X0111000Y0013720D01*
X0113197Y0013720D01*
X0113579Y0013823D01*
X0113921Y0014020D01*
X0114200Y0014299D01*
X0114398Y0014641D01*
X0114500Y0015023D01*
X0114500Y0016720D01*
X0111000Y0016720D01*
X0111000Y0017720D01*
X0114500Y0017720D01*
X0114500Y0019418D01*
X0114398Y0019799D01*
X0114200Y0020141D01*
X0113921Y0020421D01*
X0113579Y0020618D01*
X0113197Y0020720D01*
X0111000Y0020720D01*
X0111000Y0017721D01*
X0110000Y0017721D01*
X0110000Y0020720D01*
X0107803Y0020720D01*
X0107421Y0020618D01*
X0107079Y0020421D01*
X0106800Y0020141D01*
X0106602Y0019799D01*
X0106500Y0019418D01*
X0106500Y0017720D01*
X0110000Y0017720D01*
X0110000Y0016720D01*
X0110000Y0013720D01*
X0109998Y0013720D01*
X0110506Y0013213D01*
X0110506Y0013213D01*
X0112495Y0011223D01*
X0113206Y0011933D01*
X0114694Y0012550D01*
X0116306Y0012550D01*
X0117794Y0011933D01*
X0118933Y0010794D01*
X0119188Y0010179D01*
X0122222Y0013213D01*
X0123160Y0014150D01*
X0137840Y0014150D01*
X0138778Y0013213D01*
X0141812Y0010179D01*
X0142067Y0010794D01*
X0143206Y0011933D01*
X0144694Y0012550D01*
X0146306Y0012550D01*
X0147794Y0011933D01*
X0148933Y0010794D01*
X0149188Y0010179D01*
X0153610Y0014600D01*
X0160163Y0014600D01*
X0160674Y0014089D01*
X0161015Y0014089D01*
X0161967Y0013695D01*
X0162695Y0012967D01*
X0163015Y0012195D01*
X0163168Y0012306D01*
X0163792Y0012624D01*
X0164458Y0012840D01*
X0165025Y0012930D01*
X0165025Y0008975D01*
X0165975Y0008975D01*
X0165975Y0012930D01*
X0166542Y0012840D01*
X0167208Y0012624D01*
X0167832Y0012306D01*
X0168399Y0011894D01*
X0168894Y0011399D01*
X0169306Y0010832D01*
X0169624Y0010208D01*
X0169840Y0009542D01*
X0169930Y0008975D01*
X0165975Y0008975D01*
X0165975Y0008025D01*
X0169930Y0008025D01*
X0169840Y0007458D01*
X0169624Y0006792D01*
X0169306Y0006168D01*
X0169184Y0006000D01*
X0172272Y0006000D01*
X0172067Y0006206D01*
X0171450Y0007694D01*
X0171450Y0009306D01*
X0172067Y0010794D01*
X0173206Y0011933D01*
X0174694Y0012550D01*
X0176306Y0012550D01*
X0177794Y0011933D01*
X0178933Y0010794D01*
X0179550Y0009306D01*
X0179550Y0007694D01*
X0178933Y0006206D01*
X0178728Y0006000D01*
X0182272Y0006000D01*
X0182067Y0006206D01*
X0181450Y0007694D01*
X0181450Y0009306D01*
X0182067Y0010794D01*
X0183206Y0011933D01*
X0184694Y0012550D01*
X0186306Y0012550D01*
X0187794Y0011933D01*
X0188933Y0010794D01*
X0189550Y0009306D01*
X0189550Y0007694D01*
X0188933Y0006206D01*
X0188728Y0006000D01*
X0191050Y0006000D01*
X0191050Y0008025D01*
X0195025Y0008025D01*
X0195025Y0008975D01*
X0195025Y0012950D01*
X0192353Y0012950D01*
X0191971Y0012848D01*
X0191629Y0012650D01*
X0191350Y0012371D01*
X0191152Y0012029D01*
X0191050Y0011647D01*
X0191050Y0008975D01*
X0195025Y0008975D01*
X0195975Y0008975D01*
X0195975Y0012950D01*
X0198647Y0012950D01*
X0199029Y0012848D01*
X0199371Y0012650D01*
X0199650Y0012371D01*
X0199848Y0012029D01*
X0199950Y0011647D01*
X0199950Y0008975D01*
X0195975Y0008975D01*
X0195975Y0008025D01*
X0199950Y0008025D01*
X0199950Y0006000D01*
X0215000Y0006000D01*
X0215000Y0178500D01*
X0198228Y0178500D01*
X0198933Y0177794D01*
X0199550Y0176306D01*
X0199550Y0174694D01*
X0198933Y0173206D01*
X0197794Y0172067D01*
X0197400Y0171903D01*
X0197400Y0150115D01*
X0199400Y0148115D01*
X0199400Y0144885D01*
X0197115Y0142600D01*
X0193885Y0142600D01*
X0191600Y0144885D01*
X0191600Y0148115D01*
X0193600Y0150115D01*
X0193600Y0171903D01*
X0193206Y0172067D01*
X0192067Y0173206D01*
X0191450Y0174694D01*
X0191450Y0176306D01*
X0192067Y0177794D01*
X0192772Y0178500D01*
X0188228Y0178500D01*
X0188933Y0177794D01*
X0189550Y0176306D01*
X0189550Y0174694D01*
X0188933Y0173206D01*
X0187794Y0172067D01*
X0187400Y0171903D01*
X0187400Y0159710D01*
X0187695Y0159415D01*
X0188089Y0158463D01*
X0188089Y0157433D01*
X0187695Y0156482D01*
X0187400Y0156187D01*
X0187400Y0138287D01*
X0193586Y0132101D01*
X0193885Y0132400D01*
X0197115Y0132400D01*
X0199400Y0130115D01*
X0199400Y0126885D01*
X0197115Y0124600D01*
X0193885Y0124600D01*
X0191600Y0126885D01*
X0191600Y0128713D01*
X0184713Y0135600D01*
X0183600Y0136713D01*
X0183600Y0156187D01*
X0183305Y0156482D01*
X0182911Y0157433D01*
X0182911Y0158463D01*
X0183305Y0159415D01*
X0183600Y0159710D01*
X0183600Y0171903D01*
X0183206Y0172067D01*
X0182067Y0173206D01*
X0181450Y0174694D01*
X0181450Y0176306D01*
X0182067Y0177794D01*
X0182772Y0178500D01*
X0178228Y0178500D01*
X0178933Y0177794D01*
X0179550Y0176306D01*
X0179550Y0174694D01*
X0178933Y0173206D01*
X0177794Y0172067D01*
X0177400Y0171903D01*
X0177400Y0156900D01*
X0177739Y0156900D01*
X0178033Y0157195D01*
X0178985Y0157589D01*
X0180015Y0157589D01*
X0180967Y0157195D01*
X0181695Y0156467D01*
X0182089Y0155515D01*
X0182089Y0154485D01*
X0181695Y0153533D01*
X0180967Y0152805D01*
X0180015Y0152411D01*
X0178985Y0152411D01*
X0178033Y0152805D01*
X0177739Y0153100D01*
X0177400Y0153100D01*
X0177400Y0131287D01*
X0194287Y0114400D01*
X0197115Y0114400D01*
X0199400Y0112115D01*
X0199400Y0108885D01*
X0197115Y0106600D01*
X0193885Y0106600D01*
X0191600Y0108885D01*
X0191600Y0111713D01*
X0175200Y0128113D01*
X0175200Y0115487D01*
X0194287Y0096400D01*
X0197115Y0096400D01*
X0199400Y0094115D01*
X0199400Y0090885D01*
X0197115Y0088600D01*
X0193885Y0088600D01*
X0191600Y0090885D01*
X0191600Y0093713D01*
X0173000Y0112313D01*
X0173000Y0099687D01*
X0194287Y0078400D01*
X0197115Y0078400D01*
X0199400Y0076115D01*
X0199400Y0072885D01*
X0197115Y0070600D01*
X0193885Y0070600D01*
X0191600Y0072885D01*
X0191600Y0075713D01*
X0170800Y0096513D01*
X0170800Y0083887D01*
X0194287Y0060400D01*
X0197115Y0060400D01*
X0199400Y0058115D01*
X0199400Y0054885D01*
X0197115Y0052600D01*
X0193885Y0052600D01*
X0191600Y0054885D01*
X0191600Y0057713D01*
X0168600Y0080713D01*
X0168600Y0068087D01*
X0194287Y0042400D01*
X0197115Y0042400D01*
X0199400Y0040115D01*
X0199400Y0036885D01*
X0197115Y0034600D01*
X0193885Y0034600D01*
X0191600Y0036885D01*
X0191600Y0039713D01*
X0166400Y0064913D01*
X0166400Y0052287D01*
X0194287Y0024400D01*
X0197115Y0024400D01*
X0199400Y0022115D01*
X0199400Y0018885D01*
X0197115Y0016600D01*
X0193885Y0016600D01*
X0193874Y0016611D01*
X0191663Y0014400D01*
X0181337Y0014400D01*
X0180400Y0015337D01*
X0175337Y0020400D01*
X0150837Y0020400D01*
X0149900Y0021337D01*
X0135442Y0035795D01*
X0134515Y0035411D01*
X0133485Y0035411D01*
X0132533Y0035805D01*
X0131805Y0036533D01*
X0131562Y0037120D01*
X0120600Y0037120D01*
X0120600Y0036265D01*
X0119956Y0035620D01*
X0114044Y0035620D01*
X0113400Y0036265D01*
X0113400Y0041176D01*
X0114044Y0041820D01*
X0119956Y0041820D01*
X0120600Y0041176D01*
X0120600Y0040320D01*
X0132837Y0040320D01*
X0133485Y0040589D01*
X0134515Y0040589D01*
X0135467Y0040195D01*
X0136061Y0039600D01*
X0136163Y0039600D01*
X0152163Y0023600D01*
X0168848Y0023600D01*
X0168352Y0023805D01*
X0167624Y0024533D01*
X0167230Y0025485D01*
X0167230Y0026515D01*
X0167624Y0027467D01*
X0168352Y0028195D01*
X0169304Y0028589D01*
X0170334Y0028589D01*
X0171285Y0028195D01*
X0171880Y0027600D01*
X0172663Y0027600D01*
X0173600Y0026663D01*
X0176663Y0023600D01*
X0176663Y0023600D01*
X0182663Y0017600D01*
X0190337Y0017600D01*
X0191611Y0018874D01*
X0191600Y0018885D01*
X0191600Y0021713D01*
X0163713Y0049600D01*
X0162600Y0050713D01*
X0162600Y0135713D01*
X0144929Y0153384D01*
X0140474Y0148928D01*
X0140474Y0148871D01*
X0139945Y0147593D01*
X0138966Y0146615D01*
X0137688Y0146085D01*
X0136304Y0146085D01*
X0135026Y0146615D01*
X0134048Y0147593D01*
X0133518Y0148871D01*
X0133518Y0150255D01*
X0134048Y0151533D01*
X0135026Y0152511D01*
X0136304Y0153041D01*
X0137688Y0153041D01*
X0138766Y0152594D01*
X0142242Y0156071D01*
X0140474Y0157839D01*
X0140474Y0156745D01*
X0139945Y0155467D01*
X0138966Y0154489D01*
X0137688Y0153959D01*
X0136304Y0153959D01*
X0135026Y0154489D01*
X0134048Y0155467D01*
X0133518Y0156745D01*
X0133518Y0158129D01*
X0134048Y0159407D01*
X0135026Y0160385D01*
X0136304Y0160915D01*
X0137003Y0160915D01*
X0137201Y0161112D01*
X0126700Y0171613D01*
X0126306Y0171450D01*
X0124694Y0171450D01*
X0123206Y0172067D01*
X0122067Y0173206D01*
X0121450Y0174694D01*
X0121450Y0176306D01*
X0122067Y0177794D01*
X0122772Y0178500D01*
X0119950Y0178500D01*
X0119950Y0175975D01*
X0115975Y0175975D01*
X0115975Y0175025D01*
X0119950Y0175025D01*
X0119950Y0172353D01*
X0119848Y0171971D01*
X0119650Y0171629D01*
X0119371Y0171350D01*
X0119029Y0171152D01*
X0118647Y0171050D01*
X0115975Y0171050D01*
X0115975Y0175025D01*
X0115025Y0175025D01*
X0115025Y0171050D01*
X0112353Y0171050D01*
X0111971Y0171152D01*
X0111629Y0171350D01*
X0111350Y0171629D01*
X0111152Y0171971D01*
X0111050Y0172353D01*
X0111050Y0175025D01*
X0115025Y0175025D01*
X0115025Y0175975D01*
X0111050Y0175975D01*
X0111050Y0178500D01*
X0099550Y0178500D01*
X0099550Y0172094D01*
X0098906Y0171450D01*
X0094246Y0171450D01*
X0085400Y0162236D01*
X0085400Y0162213D01*
X0085266Y0162079D01*
X0086443Y0160902D01*
X0087371Y0159974D01*
X0087782Y0160385D01*
X0089060Y0160915D01*
X0090444Y0160915D01*
X0091722Y0160385D01*
X0092100Y0160008D01*
X0092100Y0165239D01*
X0091805Y0165533D01*
X0091411Y0166485D01*
X0091411Y0167515D01*
X0091805Y0168467D01*
X0092533Y0169195D01*
X0093485Y0169589D01*
X0094515Y0169589D01*
X0095467Y0169195D01*
X0096195Y0168467D01*
X0096589Y0167515D01*
X0096589Y0166485D01*
X0096195Y0165533D01*
X0095900Y0165239D01*
X0095900Y0160487D01*
X0096934Y0160915D01*
X0098318Y0160915D01*
X0099596Y0160385D01*
X0100574Y0159407D01*
X0101104Y0158129D01*
X0101104Y0156745D01*
X0100574Y0155467D01*
X0099596Y0154489D01*
X0098318Y0153959D01*
X0096934Y0153959D01*
X0095748Y0154450D01*
X0095748Y0154128D01*
X0096864Y0153012D01*
X0096934Y0153041D01*
X0098318Y0153041D01*
X0099596Y0152511D01*
X0100574Y0151533D01*
X0101104Y0150255D01*
X0101104Y0148871D01*
X0100574Y0147593D01*
X0099596Y0146615D01*
X0098318Y0146085D01*
X0096934Y0146085D01*
X0095656Y0146615D01*
X0094678Y0147593D01*
X0094148Y0148871D01*
X0094148Y0150255D01*
X0094177Y0150325D01*
X0093061Y0151441D01*
X0091948Y0152554D01*
X0091948Y0154715D01*
X0091722Y0154489D01*
X0090444Y0153959D01*
X0089060Y0153959D01*
X0087782Y0154489D01*
X0087556Y0154715D01*
X0087556Y0152554D01*
X0086443Y0151441D01*
X0085327Y0150325D01*
X0085356Y0150255D01*
X0085356Y0148871D01*
X0084826Y0147593D01*
X0083848Y0146615D01*
X0082570Y0146085D01*
X0081186Y0146085D01*
X0079908Y0146615D01*
X0078929Y0147593D01*
X0078400Y0148871D01*
X0078400Y0150255D01*
X0078929Y0151533D01*
X0079908Y0152511D01*
X0081186Y0153041D01*
X0082570Y0153041D01*
X0082640Y0153012D01*
X0083756Y0154128D01*
X0083756Y0154450D01*
X0082570Y0153959D01*
X0081186Y0153959D01*
X0079908Y0154489D01*
X0078929Y0155467D01*
X0078400Y0156745D01*
X0078400Y0158129D01*
X0078929Y0159407D01*
X0079908Y0160385D01*
X0081094Y0160877D01*
X0081003Y0160968D01*
X0081003Y0161100D01*
X0071287Y0161100D01*
X0054800Y0144613D01*
X0054800Y0057404D01*
X0027400Y0030004D01*
X0027400Y0024115D01*
X0029400Y0022115D01*
X0029400Y0018885D01*
X0027115Y0016600D01*
X0023885Y0016600D01*
X0021600Y0018885D01*
X0021600Y0022115D01*
X0023600Y0024115D01*
X0023600Y0031578D01*
X0026622Y0034600D01*
X0023885Y0034600D01*
X0021600Y0036885D01*
X0021600Y0040115D01*
X0023885Y0042400D01*
X0026713Y0042400D01*
X0048800Y0064487D01*
X0048800Y0077113D01*
X0029400Y0057713D01*
X0029400Y0054885D01*
X0027115Y0052600D01*
X0023885Y0052600D01*
X0021600Y0054885D01*
X0021600Y0058115D01*
X0023885Y0060400D01*
X0026713Y0060400D01*
X0046600Y0080287D01*
X0046600Y0092913D01*
X0029400Y0075713D01*
X0029400Y0072885D01*
X0027115Y0070600D01*
X0023885Y0070600D01*
X0021600Y0072885D01*
X0021600Y0076115D01*
X0023885Y0078400D01*
X0026713Y0078400D01*
X0044289Y0095976D01*
X0044289Y0103602D01*
X0031287Y0090600D01*
X0029115Y0090600D01*
X0027115Y0088600D01*
X0023885Y0088600D01*
X0021600Y0090885D01*
X0021600Y0094115D01*
X0023885Y0096400D01*
X0027115Y0096400D01*
X0029115Y0094400D01*
X0029713Y0094400D01*
X0042089Y0106776D01*
X0042089Y0124402D01*
X0039553Y0121866D01*
X0039967Y0121695D01*
X0040695Y0120967D01*
X0041089Y0120015D01*
X0041089Y0118985D01*
X0040695Y0118033D01*
X0039967Y0117305D01*
X0039015Y0116911D01*
X0037985Y0116911D01*
X0037033Y0117305D01*
X0036305Y0118033D01*
X0036134Y0118447D01*
X0029400Y0111713D01*
X0029400Y0108885D01*
X0027115Y0106600D01*
X0023885Y0106600D01*
X0021600Y0108885D01*
X0021600Y0112115D01*
X0023885Y0114400D01*
X0026713Y0114400D01*
X0033600Y0121287D01*
X0039889Y0127576D01*
X0039889Y0129202D01*
X0037287Y0126600D01*
X0029115Y0126600D01*
X0027115Y0124600D01*
X0023885Y0124600D01*
X0021600Y0126885D01*
X0021600Y0130115D01*
X0023885Y0132400D01*
X0027115Y0132400D01*
X0029115Y0130400D01*
X0035713Y0130400D01*
X0037689Y0132376D01*
X0037689Y0170624D01*
X0036700Y0171613D01*
X0036306Y0171450D01*
X0034694Y0171450D01*
X0033206Y0172067D01*
X0032067Y0173206D01*
X0031450Y0174694D01*
X0031450Y0176306D01*
X0032067Y0177794D01*
X0032772Y0178500D01*
X0028228Y0178500D01*
X0028933Y0177794D01*
X0029550Y0176306D01*
X0029550Y0174694D01*
X0028933Y0173206D01*
X0027794Y0172067D01*
X0027400Y0171903D01*
X0027400Y0150115D01*
X0029400Y0148115D01*
X0029400Y0144885D01*
X0027115Y0142600D01*
X0023885Y0142600D01*
X0021600Y0144885D01*
X0021600Y0148115D01*
X0023600Y0150115D01*
X0023600Y0171903D01*
X0023206Y0172067D01*
X0022067Y0173206D01*
X0021450Y0174694D01*
X0021450Y0176306D01*
X0022067Y0177794D01*
X0022772Y0178500D01*
X0006000Y0178500D01*
X0006000Y0178237D02*
X0022509Y0178237D01*
X0021836Y0177238D02*
X0006000Y0177238D01*
X0006000Y0176239D02*
X0021450Y0176239D01*
X0021450Y0175241D02*
X0006000Y0175241D01*
X0006000Y0174242D02*
X0021637Y0174242D01*
X0022051Y0173244D02*
X0006000Y0173244D01*
X0006000Y0172245D02*
X0023027Y0172245D01*
X0023600Y0171247D02*
X0006000Y0171247D01*
X0006000Y0170248D02*
X0023600Y0170248D01*
X0023600Y0169250D02*
X0006000Y0169250D01*
X0006000Y0168251D02*
X0023600Y0168251D01*
X0023600Y0167253D02*
X0006000Y0167253D01*
X0006000Y0166254D02*
X0023600Y0166254D01*
X0023600Y0165256D02*
X0006000Y0165256D01*
X0006000Y0164257D02*
X0023600Y0164257D01*
X0023600Y0163259D02*
X0006000Y0163259D01*
X0006000Y0162260D02*
X0023600Y0162260D01*
X0023600Y0161262D02*
X0006000Y0161262D01*
X0006000Y0160263D02*
X0023600Y0160263D01*
X0023600Y0159265D02*
X0006000Y0159265D01*
X0006000Y0158266D02*
X0023600Y0158266D01*
X0023600Y0157268D02*
X0006000Y0157268D01*
X0006000Y0156269D02*
X0023600Y0156269D01*
X0023600Y0155271D02*
X0006000Y0155271D01*
X0006000Y0154272D02*
X0023600Y0154272D01*
X0023600Y0153274D02*
X0006000Y0153274D01*
X0006000Y0152275D02*
X0023600Y0152275D01*
X0023600Y0151277D02*
X0006000Y0151277D01*
X0006000Y0150278D02*
X0008763Y0150278D01*
X0008885Y0150400D02*
X0006600Y0148115D01*
X0006600Y0144885D01*
X0008885Y0142600D01*
X0012115Y0142600D01*
X0014400Y0144885D01*
X0014400Y0148115D01*
X0012115Y0150400D01*
X0008885Y0150400D01*
X0007764Y0149280D02*
X0006000Y0149280D01*
X0006000Y0148281D02*
X0006766Y0148281D01*
X0006600Y0147283D02*
X0006000Y0147283D01*
X0006000Y0146284D02*
X0006600Y0146284D01*
X0006600Y0145286D02*
X0006000Y0145286D01*
X0006000Y0144287D02*
X0007197Y0144287D01*
X0008196Y0143289D02*
X0006000Y0143289D01*
X0006000Y0142290D02*
X0037689Y0142290D01*
X0037689Y0141292D02*
X0006000Y0141292D01*
X0006000Y0140293D02*
X0037689Y0140293D01*
X0037689Y0139295D02*
X0006000Y0139295D01*
X0006000Y0138296D02*
X0037689Y0138296D01*
X0037689Y0137298D02*
X0006000Y0137298D01*
X0006000Y0136299D02*
X0037689Y0136299D01*
X0037689Y0135301D02*
X0006000Y0135301D01*
X0006000Y0134302D02*
X0037689Y0134302D01*
X0037689Y0133303D02*
X0006000Y0133303D01*
X0006000Y0132305D02*
X0008790Y0132305D01*
X0008885Y0132400D02*
X0006600Y0130115D01*
X0006600Y0126885D01*
X0008885Y0124600D01*
X0012115Y0124600D01*
X0014400Y0126885D01*
X0014400Y0130115D01*
X0012115Y0132400D01*
X0008885Y0132400D01*
X0007791Y0131306D02*
X0006000Y0131306D01*
X0006000Y0130308D02*
X0006793Y0130308D01*
X0006600Y0129309D02*
X0006000Y0129309D01*
X0006000Y0128311D02*
X0006600Y0128311D01*
X0006600Y0127312D02*
X0006000Y0127312D01*
X0006000Y0126314D02*
X0007171Y0126314D01*
X0008169Y0125315D02*
X0006000Y0125315D01*
X0006000Y0124317D02*
X0036630Y0124317D01*
X0037628Y0125315D02*
X0027831Y0125315D01*
X0028829Y0126314D02*
X0038627Y0126314D01*
X0037999Y0127312D02*
X0039625Y0127312D01*
X0039889Y0128311D02*
X0038998Y0128311D01*
X0036619Y0131306D02*
X0028209Y0131306D01*
X0027210Y0132305D02*
X0037618Y0132305D01*
X0042004Y0124317D02*
X0042089Y0124317D01*
X0042089Y0123318D02*
X0041005Y0123318D01*
X0040007Y0122320D02*
X0042089Y0122320D01*
X0042089Y0121321D02*
X0040340Y0121321D01*
X0040961Y0120323D02*
X0042089Y0120323D01*
X0042089Y0119324D02*
X0041089Y0119324D01*
X0040816Y0118326D02*
X0042089Y0118326D01*
X0042089Y0117327D02*
X0039989Y0117327D01*
X0042089Y0116329D02*
X0034016Y0116329D01*
X0035014Y0117327D02*
X0037011Y0117327D01*
X0036184Y0118326D02*
X0036013Y0118326D01*
X0035500Y0120500D02*
X0037500Y0120500D01*
X0038500Y0119500D01*
X0035631Y0123318D02*
X0006000Y0123318D01*
X0006000Y0122320D02*
X0034633Y0122320D01*
X0033634Y0121321D02*
X0006000Y0121321D01*
X0006000Y0120323D02*
X0032636Y0120323D01*
X0031637Y0119324D02*
X0006000Y0119324D01*
X0006000Y0118326D02*
X0030639Y0118326D01*
X0029640Y0117327D02*
X0006000Y0117327D01*
X0006000Y0116329D02*
X0028642Y0116329D01*
X0027643Y0115330D02*
X0006000Y0115330D01*
X0006000Y0114332D02*
X0008816Y0114332D01*
X0008885Y0114400D02*
X0006600Y0112115D01*
X0006600Y0108885D01*
X0008885Y0106600D01*
X0012115Y0106600D01*
X0014400Y0108885D01*
X0014400Y0112115D01*
X0012115Y0114400D01*
X0008885Y0114400D01*
X0007818Y0113333D02*
X0006000Y0113333D01*
X0006000Y0112335D02*
X0006819Y0112335D01*
X0006600Y0111336D02*
X0006000Y0111336D01*
X0006000Y0110338D02*
X0006600Y0110338D01*
X0006600Y0109339D02*
X0006000Y0109339D01*
X0006000Y0108341D02*
X0007144Y0108341D01*
X0008142Y0107342D02*
X0006000Y0107342D01*
X0006000Y0106344D02*
X0041657Y0106344D01*
X0042089Y0107342D02*
X0027858Y0107342D01*
X0028856Y0108341D02*
X0042089Y0108341D01*
X0042089Y0109339D02*
X0029400Y0109339D01*
X0029400Y0110338D02*
X0042089Y0110338D01*
X0042089Y0111336D02*
X0029400Y0111336D01*
X0030022Y0112335D02*
X0042089Y0112335D01*
X0042089Y0113333D02*
X0031020Y0113333D01*
X0032019Y0114332D02*
X0042089Y0114332D01*
X0042089Y0115330D02*
X0033017Y0115330D01*
X0023816Y0114332D02*
X0012184Y0114332D01*
X0013182Y0113333D02*
X0022818Y0113333D01*
X0021819Y0112335D02*
X0014181Y0112335D01*
X0014400Y0111336D02*
X0021600Y0111336D01*
X0021600Y0110338D02*
X0014400Y0110338D01*
X0014400Y0109339D02*
X0021600Y0109339D01*
X0022144Y0108341D02*
X0013856Y0108341D01*
X0012858Y0107342D02*
X0023142Y0107342D01*
X0033669Y0098356D02*
X0006000Y0098356D01*
X0006000Y0099354D02*
X0034667Y0099354D01*
X0035666Y0100353D02*
X0006000Y0100353D01*
X0006000Y0101351D02*
X0036664Y0101351D01*
X0037663Y0102350D02*
X0006000Y0102350D01*
X0006000Y0103348D02*
X0038661Y0103348D01*
X0039660Y0104347D02*
X0006000Y0104347D01*
X0006000Y0105345D02*
X0040658Y0105345D01*
X0044035Y0103348D02*
X0044289Y0103348D01*
X0044289Y0102350D02*
X0043037Y0102350D01*
X0042038Y0101351D02*
X0044289Y0101351D01*
X0044289Y0100353D02*
X0041040Y0100353D01*
X0040041Y0099354D02*
X0044289Y0099354D01*
X0044289Y0098356D02*
X0039043Y0098356D01*
X0038044Y0097357D02*
X0044289Y0097357D01*
X0044289Y0096359D02*
X0037046Y0096359D01*
X0036047Y0095360D02*
X0043673Y0095360D01*
X0042675Y0094362D02*
X0035049Y0094362D01*
X0034050Y0093363D02*
X0041676Y0093363D01*
X0040678Y0092365D02*
X0033052Y0092365D01*
X0032053Y0091366D02*
X0039679Y0091366D01*
X0038681Y0090368D02*
X0028883Y0090368D01*
X0027884Y0089369D02*
X0037682Y0089369D01*
X0036684Y0088370D02*
X0006000Y0088370D01*
X0006000Y0087372D02*
X0035685Y0087372D01*
X0034686Y0086373D02*
X0006000Y0086373D01*
X0006000Y0085375D02*
X0033688Y0085375D01*
X0032689Y0084376D02*
X0006000Y0084376D01*
X0006000Y0083378D02*
X0031691Y0083378D01*
X0030692Y0082379D02*
X0006000Y0082379D01*
X0006000Y0081381D02*
X0029694Y0081381D01*
X0028695Y0080382D02*
X0006000Y0080382D01*
X0006000Y0079384D02*
X0027697Y0079384D01*
X0030075Y0076388D02*
X0042701Y0076388D01*
X0041703Y0075390D02*
X0029400Y0075390D01*
X0029400Y0074391D02*
X0040704Y0074391D01*
X0039706Y0073393D02*
X0029400Y0073393D01*
X0028910Y0072394D02*
X0038707Y0072394D01*
X0037709Y0071396D02*
X0027911Y0071396D01*
X0023089Y0071396D02*
X0012911Y0071396D01*
X0012115Y0070600D02*
X0014400Y0072885D01*
X0014400Y0076115D01*
X0012115Y0078400D01*
X0008885Y0078400D01*
X0006600Y0076115D01*
X0006600Y0072885D01*
X0008885Y0070600D01*
X0012115Y0070600D01*
X0013910Y0072394D02*
X0022090Y0072394D01*
X0021600Y0073393D02*
X0014400Y0073393D01*
X0014400Y0074391D02*
X0021600Y0074391D01*
X0021600Y0075390D02*
X0014400Y0075390D01*
X0014127Y0076388D02*
X0021873Y0076388D01*
X0022871Y0077387D02*
X0013129Y0077387D01*
X0012130Y0078385D02*
X0023870Y0078385D01*
X0031074Y0077387D02*
X0043700Y0077387D01*
X0044698Y0078385D02*
X0032072Y0078385D01*
X0033071Y0079384D02*
X0045697Y0079384D01*
X0046600Y0080382D02*
X0034069Y0080382D01*
X0035068Y0081381D02*
X0046600Y0081381D01*
X0046600Y0082379D02*
X0036066Y0082379D01*
X0037065Y0083378D02*
X0046600Y0083378D01*
X0046600Y0084376D02*
X0038063Y0084376D01*
X0039062Y0085375D02*
X0046600Y0085375D01*
X0046600Y0086373D02*
X0040060Y0086373D01*
X0041059Y0087372D02*
X0046600Y0087372D01*
X0046600Y0088370D02*
X0042057Y0088370D01*
X0043056Y0089369D02*
X0046600Y0089369D01*
X0046600Y0090368D02*
X0044054Y0090368D01*
X0045053Y0091366D02*
X0046600Y0091366D01*
X0046600Y0092365D02*
X0046052Y0092365D01*
X0054800Y0092365D02*
X0092900Y0092365D01*
X0092900Y0093363D02*
X0054800Y0093363D01*
X0054800Y0094362D02*
X0092900Y0094362D01*
X0092900Y0095360D02*
X0054800Y0095360D01*
X0054800Y0096359D02*
X0092879Y0096359D01*
X0092900Y0096337D02*
X0092900Y0089561D01*
X0092305Y0088967D01*
X0091911Y0088015D01*
X0091911Y0086985D01*
X0092305Y0086033D01*
X0092801Y0085538D01*
X0092719Y0085456D01*
X0092719Y0079544D01*
X0093363Y0078900D01*
X0094869Y0078900D01*
X0094869Y0078820D01*
X0093552Y0078820D01*
X0093516Y0078784D01*
X0093479Y0078820D01*
X0091584Y0078820D01*
X0091547Y0078784D01*
X0091511Y0078820D01*
X0090162Y0078820D01*
X0090421Y0079079D01*
X0090618Y0079421D01*
X0090720Y0079803D01*
X0090720Y0082000D01*
X0087721Y0082000D01*
X0087721Y0083000D01*
X0090720Y0083000D01*
X0090720Y0085197D01*
X0090618Y0085579D01*
X0090421Y0085921D01*
X0090141Y0086200D01*
X0089799Y0086398D01*
X0089418Y0086500D01*
X0087720Y0086500D01*
X0087720Y0083000D01*
X0086720Y0083000D01*
X0086720Y0082000D01*
X0083720Y0082000D01*
X0083720Y0079803D01*
X0083823Y0079421D01*
X0084020Y0079079D01*
X0084299Y0078800D01*
X0084641Y0078602D01*
X0085023Y0078500D01*
X0086720Y0078500D01*
X0086720Y0082000D01*
X0087720Y0082000D01*
X0087720Y0078500D01*
X0089295Y0078500D01*
X0088971Y0078176D01*
X0088971Y0076423D01*
X0088963Y0076415D01*
X0088963Y0074726D01*
X0088326Y0074089D01*
X0087485Y0074089D01*
X0086533Y0073695D01*
X0085805Y0072967D01*
X0085411Y0072015D01*
X0085411Y0070985D01*
X0085805Y0070033D01*
X0086533Y0069305D01*
X0087485Y0068911D01*
X0088515Y0068911D01*
X0089467Y0069305D01*
X0090195Y0070033D01*
X0090589Y0070985D01*
X0090589Y0071826D01*
X0090931Y0072169D01*
X0090931Y0067093D01*
X0090305Y0066467D01*
X0089911Y0065515D01*
X0089911Y0064485D01*
X0090305Y0063533D01*
X0091033Y0062805D01*
X0091985Y0062411D01*
X0093015Y0062411D01*
X0093967Y0062805D01*
X0094695Y0063533D01*
X0095089Y0064485D01*
X0095089Y0065515D01*
X0094695Y0066467D01*
X0094132Y0067030D01*
X0094142Y0067669D01*
X0094131Y0067680D01*
X0094131Y0068453D01*
X0094305Y0068033D01*
X0095033Y0067305D01*
X0095985Y0066911D01*
X0097015Y0066911D01*
X0097967Y0067305D01*
X0098695Y0068033D01*
X0099089Y0068985D01*
X0099089Y0070015D01*
X0098695Y0070967D01*
X0098578Y0071083D01*
X0098750Y0071083D01*
X0102684Y0067413D01*
X0102684Y0053861D01*
X0101620Y0053861D01*
X0101620Y0050061D01*
X0101420Y0050061D01*
X0101420Y0053861D01*
X0100122Y0053861D01*
X0100100Y0053855D01*
X0100100Y0057848D01*
X0100029Y0057919D01*
X0100029Y0059672D01*
X0099385Y0060317D01*
X0098079Y0060317D01*
X0098174Y0060411D01*
X0099015Y0060411D01*
X0099967Y0060805D01*
X0100695Y0061533D01*
X0101089Y0062485D01*
X0101089Y0063515D01*
X0100695Y0064467D01*
X0099967Y0065195D01*
X0099015Y0065589D01*
X0097985Y0065589D01*
X0097033Y0065195D01*
X0096305Y0064467D01*
X0095911Y0063515D01*
X0095911Y0062674D01*
X0094869Y0061631D01*
X0094869Y0060717D01*
X0094500Y0060717D01*
X0093810Y0060717D01*
X0093516Y0060638D01*
X0093221Y0060717D01*
X0092532Y0060717D01*
X0092532Y0059502D01*
X0092531Y0059502D02*
X0092531Y0059502D01*
X0092532Y0059502D01*
X0092531Y0059502D02*
X0092531Y0060717D01*
X0091842Y0060717D01*
X0091547Y0060638D01*
X0091253Y0060717D01*
X0090563Y0060717D01*
X0089873Y0060717D01*
X0089492Y0060614D01*
X0089150Y0060417D01*
X0088871Y0060138D01*
X0088673Y0059796D01*
X0088571Y0059414D01*
X0088571Y0057248D01*
X0088571Y0055082D01*
X0088673Y0054701D01*
X0088871Y0054359D01*
X0089150Y0054079D01*
X0089492Y0053882D01*
X0089873Y0053780D01*
X0090563Y0053780D01*
X0091253Y0053780D01*
X0091547Y0053858D01*
X0091842Y0053780D01*
X0092531Y0053780D01*
X0092531Y0054994D01*
X0092532Y0054994D01*
X0092531Y0054994D02*
X0092531Y0054994D01*
X0092532Y0054994D02*
X0092532Y0053780D01*
X0093221Y0053780D01*
X0093516Y0053858D01*
X0093810Y0053780D01*
X0093840Y0053780D01*
X0091979Y0051919D01*
X0088044Y0051919D01*
X0087400Y0051275D01*
X0087400Y0050419D01*
X0086600Y0050419D01*
X0086600Y0051275D01*
X0085956Y0051919D01*
X0080044Y0051919D01*
X0079400Y0051275D01*
X0079400Y0046363D01*
X0080044Y0045719D01*
X0085956Y0045719D01*
X0086600Y0046363D01*
X0086600Y0047219D01*
X0087400Y0047219D01*
X0087400Y0046363D01*
X0088044Y0045719D01*
X0089719Y0045719D01*
X0091718Y0043720D01*
X0091500Y0043720D01*
X0091500Y0040721D01*
X0090500Y0040721D01*
X0090500Y0043720D01*
X0088303Y0043720D01*
X0087921Y0043618D01*
X0087579Y0043421D01*
X0087300Y0043141D01*
X0087102Y0042799D01*
X0087000Y0042418D01*
X0087000Y0040720D01*
X0090500Y0040720D01*
X0090500Y0039720D01*
X0091500Y0039720D01*
X0091500Y0036720D01*
X0093697Y0036720D01*
X0094079Y0036823D01*
X0094421Y0037020D01*
X0094700Y0037299D01*
X0094898Y0037641D01*
X0095000Y0038023D01*
X0095000Y0039720D01*
X0091500Y0039720D01*
X0091500Y0040720D01*
X0094718Y0040720D01*
X0095676Y0039762D01*
X0095676Y0036869D01*
X0096321Y0036224D01*
X0099632Y0036224D01*
X0100276Y0036869D01*
X0100276Y0042580D01*
X0099632Y0043224D01*
X0098886Y0043224D01*
X0099195Y0043533D01*
X0099589Y0044485D01*
X0099589Y0044861D01*
X0103838Y0044861D01*
X0104775Y0045798D01*
X0105420Y0046442D01*
X0105420Y0051157D01*
X0105900Y0051637D01*
X0105900Y0052963D01*
X0105884Y0052979D01*
X0105884Y0054077D01*
X0106680Y0053281D01*
X0106544Y0053281D01*
X0105900Y0052637D01*
X0105900Y0047725D01*
X0106544Y0047081D01*
X0109920Y0047081D01*
X0109805Y0046967D01*
X0109411Y0046015D01*
X0109411Y0045174D01*
X0107090Y0042853D01*
X0106719Y0043224D01*
X0103407Y0043224D01*
X0102763Y0042580D01*
X0102763Y0036869D01*
X0103407Y0036224D01*
X0106719Y0036224D01*
X0107363Y0036869D01*
X0107363Y0038600D01*
X0108900Y0040137D01*
X0108900Y0033722D01*
X0108015Y0034089D01*
X0106985Y0034089D01*
X0106033Y0033695D01*
X0105305Y0032967D01*
X0104911Y0032015D01*
X0104911Y0030993D01*
X0102837Y0028919D01*
X0099044Y0028919D01*
X0098400Y0028275D01*
X0098400Y0023363D01*
X0099044Y0022719D01*
X0104956Y0022719D01*
X0105600Y0023363D01*
X0105600Y0027156D01*
X0107355Y0028911D01*
X0107537Y0028911D01*
X0106900Y0028275D01*
X0106900Y0023363D01*
X0107544Y0022719D01*
X0113456Y0022719D01*
X0114100Y0023363D01*
X0114100Y0028275D01*
X0113456Y0028919D01*
X0112100Y0028919D01*
X0112100Y0042911D01*
X0112515Y0042911D01*
X0113467Y0043305D01*
X0114195Y0044033D01*
X0114272Y0044219D01*
X0119956Y0044219D01*
X0120600Y0044863D01*
X0120600Y0049775D01*
X0120306Y0050069D01*
X0120781Y0050544D01*
X0120781Y0056456D01*
X0120137Y0057100D01*
X0115225Y0057100D01*
X0114581Y0056456D01*
X0114581Y0053418D01*
X0112320Y0055680D01*
X0112456Y0055680D01*
X0113100Y0056324D01*
X0113100Y0061235D01*
X0112456Y0061880D01*
X0107500Y0061880D01*
X0107500Y0065400D01*
X0112137Y0065400D01*
X0112781Y0066044D01*
X0112781Y0071956D01*
X0112137Y0072600D01*
X0107225Y0072600D01*
X0106581Y0071956D01*
X0106581Y0070600D01*
X0106304Y0070600D01*
X0103303Y0073400D01*
X0106137Y0073400D01*
X0106781Y0074044D01*
X0106781Y0079956D01*
X0106137Y0080600D01*
X0105975Y0080600D01*
X0106100Y0080725D01*
X0106100Y0085637D01*
X0105456Y0086281D01*
X0099544Y0086281D01*
X0098900Y0085637D01*
X0098900Y0085475D01*
X0098275Y0086100D01*
X0096722Y0086100D01*
X0097089Y0086985D01*
X0097089Y0088015D01*
X0096695Y0088967D01*
X0096100Y0089561D01*
X0096100Y0097663D01*
X0088100Y0105663D01*
X0088100Y0107439D01*
X0088695Y0108033D01*
X0089089Y0108985D01*
X0089089Y0110015D01*
X0088695Y0110967D01*
X0087967Y0111695D01*
X0087015Y0112089D01*
X0085985Y0112089D01*
X0085033Y0111695D01*
X0084305Y0110967D01*
X0083911Y0110015D01*
X0083911Y0108985D01*
X0084305Y0108033D01*
X0084900Y0107439D01*
X0084900Y0104337D01*
X0085837Y0103400D01*
X0092900Y0096337D01*
X0091880Y0097357D02*
X0054800Y0097357D01*
X0054800Y0098356D02*
X0090882Y0098356D01*
X0089883Y0099354D02*
X0054800Y0099354D01*
X0054800Y0100353D02*
X0088885Y0100353D01*
X0087886Y0101351D02*
X0054800Y0101351D01*
X0054800Y0102350D02*
X0086888Y0102350D01*
X0085889Y0103348D02*
X0054800Y0103348D01*
X0054800Y0104347D02*
X0084900Y0104347D01*
X0084900Y0105345D02*
X0054800Y0105345D01*
X0054800Y0106344D02*
X0084900Y0106344D01*
X0084900Y0107342D02*
X0054800Y0107342D01*
X0054800Y0108341D02*
X0084178Y0108341D01*
X0083911Y0109339D02*
X0054800Y0109339D01*
X0054800Y0110338D02*
X0084045Y0110338D01*
X0084675Y0111336D02*
X0054800Y0111336D01*
X0054800Y0112335D02*
X0162600Y0112335D01*
X0162600Y0113333D02*
X0054800Y0113333D01*
X0054800Y0114332D02*
X0162600Y0114332D01*
X0162600Y0115330D02*
X0054800Y0115330D01*
X0054800Y0116329D02*
X0162600Y0116329D01*
X0162600Y0117327D02*
X0054800Y0117327D01*
X0054800Y0118326D02*
X0162600Y0118326D01*
X0162600Y0119324D02*
X0054800Y0119324D01*
X0054800Y0120323D02*
X0162600Y0120323D01*
X0162600Y0121321D02*
X0054800Y0121321D01*
X0054800Y0122320D02*
X0162600Y0122320D01*
X0162600Y0123318D02*
X0054800Y0123318D01*
X0054800Y0124317D02*
X0162600Y0124317D01*
X0162600Y0125315D02*
X0054800Y0125315D01*
X0054800Y0126314D02*
X0162600Y0126314D01*
X0162600Y0127312D02*
X0054800Y0127312D01*
X0054800Y0128311D02*
X0162600Y0128311D01*
X0162600Y0129309D02*
X0054800Y0129309D01*
X0054800Y0130308D02*
X0162600Y0130308D01*
X0162600Y0131306D02*
X0054800Y0131306D01*
X0054800Y0132305D02*
X0162600Y0132305D01*
X0162600Y0133303D02*
X0054800Y0133303D01*
X0054800Y0134302D02*
X0162600Y0134302D01*
X0162600Y0135301D02*
X0054800Y0135301D01*
X0054800Y0136299D02*
X0162014Y0136299D01*
X0161015Y0137298D02*
X0054800Y0137298D01*
X0054800Y0138296D02*
X0160017Y0138296D01*
X0159018Y0139295D02*
X0054800Y0139295D01*
X0054800Y0140293D02*
X0158020Y0140293D01*
X0157021Y0141292D02*
X0054800Y0141292D01*
X0054800Y0142290D02*
X0156023Y0142290D01*
X0155024Y0143289D02*
X0054800Y0143289D01*
X0054800Y0144287D02*
X0154026Y0144287D01*
X0153027Y0145286D02*
X0055473Y0145286D01*
X0056471Y0146284D02*
X0070414Y0146284D01*
X0070426Y0146264D02*
X0070705Y0145985D01*
X0071047Y0145787D01*
X0071428Y0145685D01*
X0073815Y0145685D01*
X0073815Y0149374D01*
X0074193Y0149374D01*
X0074193Y0149752D01*
X0077882Y0149752D01*
X0077882Y0152138D01*
X0077780Y0152520D01*
X0077582Y0152862D01*
X0077303Y0153141D01*
X0076961Y0153339D01*
X0076579Y0153441D01*
X0074193Y0153441D01*
X0074193Y0149752D01*
X0073815Y0149752D01*
X0073815Y0153441D01*
X0071428Y0153441D01*
X0071047Y0153339D01*
X0070705Y0153141D01*
X0070426Y0152862D01*
X0070228Y0152520D01*
X0070126Y0152138D01*
X0070126Y0149752D01*
X0073815Y0149752D01*
X0073815Y0149374D01*
X0070126Y0149374D01*
X0070126Y0146988D01*
X0070228Y0146606D01*
X0070426Y0146264D01*
X0070126Y0147283D02*
X0057470Y0147283D01*
X0058468Y0148281D02*
X0070126Y0148281D01*
X0070126Y0149280D02*
X0059467Y0149280D01*
X0060465Y0150278D02*
X0070126Y0150278D01*
X0070126Y0151277D02*
X0061464Y0151277D01*
X0062462Y0152275D02*
X0070163Y0152275D01*
X0070934Y0153274D02*
X0063461Y0153274D01*
X0064459Y0154272D02*
X0072556Y0154272D01*
X0072034Y0154489D02*
X0073312Y0153959D01*
X0074696Y0153959D01*
X0075974Y0154489D01*
X0076952Y0155467D01*
X0077482Y0156745D01*
X0077482Y0158129D01*
X0076952Y0159407D01*
X0075974Y0160385D01*
X0074696Y0160915D01*
X0073312Y0160915D01*
X0072034Y0160385D01*
X0071055Y0159407D01*
X0070526Y0158129D01*
X0070526Y0156745D01*
X0071055Y0155467D01*
X0072034Y0154489D01*
X0071252Y0155271D02*
X0065458Y0155271D01*
X0066456Y0156269D02*
X0070723Y0156269D01*
X0070526Y0157268D02*
X0067455Y0157268D01*
X0068453Y0158266D02*
X0070583Y0158266D01*
X0070997Y0159265D02*
X0069452Y0159265D01*
X0070450Y0160263D02*
X0071912Y0160263D01*
X0076096Y0160263D02*
X0079786Y0160263D01*
X0078871Y0159265D02*
X0077011Y0159265D01*
X0077425Y0158266D02*
X0078457Y0158266D01*
X0078400Y0157268D02*
X0077482Y0157268D01*
X0077285Y0156269D02*
X0078597Y0156269D01*
X0079126Y0155271D02*
X0076756Y0155271D01*
X0075452Y0154272D02*
X0080430Y0154272D01*
X0079672Y0152275D02*
X0077845Y0152275D01*
X0077882Y0151277D02*
X0078823Y0151277D01*
X0078410Y0150278D02*
X0077882Y0150278D01*
X0077882Y0149374D02*
X0074193Y0149374D01*
X0074193Y0145685D01*
X0076579Y0145685D01*
X0076961Y0145787D01*
X0077303Y0145985D01*
X0077582Y0146264D01*
X0077780Y0146606D01*
X0077882Y0146988D01*
X0077882Y0149374D01*
X0077882Y0149280D02*
X0078400Y0149280D01*
X0078644Y0148281D02*
X0077882Y0148281D01*
X0077882Y0147283D02*
X0079240Y0147283D01*
X0080705Y0146284D02*
X0077594Y0146284D01*
X0074193Y0146284D02*
X0073815Y0146284D01*
X0073815Y0147283D02*
X0074193Y0147283D01*
X0074193Y0148281D02*
X0073815Y0148281D01*
X0073815Y0149280D02*
X0074193Y0149280D01*
X0074193Y0150278D02*
X0073815Y0150278D01*
X0073815Y0151277D02*
X0074193Y0151277D01*
X0074193Y0152275D02*
X0073815Y0152275D01*
X0073815Y0153274D02*
X0074193Y0153274D01*
X0077073Y0153274D02*
X0082902Y0153274D01*
X0083326Y0154272D02*
X0083756Y0154272D01*
X0087556Y0154272D02*
X0088304Y0154272D01*
X0087556Y0153274D02*
X0091948Y0153274D01*
X0091722Y0152511D02*
X0090444Y0153041D01*
X0089060Y0153041D01*
X0087782Y0152511D01*
X0086804Y0151533D01*
X0086274Y0150255D01*
X0086274Y0148871D01*
X0086804Y0147593D01*
X0087782Y0146615D01*
X0089060Y0146085D01*
X0090444Y0146085D01*
X0091722Y0146615D01*
X0092700Y0147593D01*
X0093230Y0148871D01*
X0093230Y0150255D01*
X0092700Y0151533D01*
X0091722Y0152511D01*
X0091958Y0152275D02*
X0092227Y0152275D01*
X0092807Y0151277D02*
X0093225Y0151277D01*
X0093220Y0150278D02*
X0094158Y0150278D01*
X0094148Y0149280D02*
X0093230Y0149280D01*
X0092986Y0148281D02*
X0094392Y0148281D01*
X0094988Y0147283D02*
X0092390Y0147283D01*
X0090924Y0146284D02*
X0096453Y0146284D01*
X0098798Y0146284D02*
X0104328Y0146284D01*
X0104808Y0146085D02*
X0106192Y0146085D01*
X0107470Y0146615D01*
X0108448Y0147593D01*
X0108978Y0148871D01*
X0108978Y0150255D01*
X0108448Y0151533D01*
X0107470Y0152511D01*
X0106192Y0153041D01*
X0104808Y0153041D01*
X0103530Y0152511D01*
X0102552Y0151533D01*
X0102022Y0150255D01*
X0102022Y0148871D01*
X0102552Y0147593D01*
X0103530Y0146615D01*
X0104808Y0146085D01*
X0106672Y0146284D02*
X0112202Y0146284D01*
X0112682Y0146085D02*
X0114066Y0146085D01*
X0115344Y0146615D01*
X0116322Y0147593D01*
X0116852Y0148871D01*
X0116852Y0150255D01*
X0116322Y0151533D01*
X0115344Y0152511D01*
X0114066Y0153041D01*
X0112682Y0153041D01*
X0111404Y0152511D01*
X0110426Y0151533D01*
X0109896Y0150255D01*
X0109896Y0148871D01*
X0110426Y0147593D01*
X0111404Y0146615D01*
X0112682Y0146085D01*
X0114546Y0146284D02*
X0120076Y0146284D01*
X0120556Y0146085D02*
X0121940Y0146085D01*
X0123218Y0146615D01*
X0124196Y0147593D01*
X0124726Y0148871D01*
X0124726Y0150255D01*
X0124196Y0151533D01*
X0123218Y0152511D01*
X0121940Y0153041D01*
X0120556Y0153041D01*
X0119278Y0152511D01*
X0118300Y0151533D01*
X0117770Y0150255D01*
X0117770Y0148871D01*
X0118300Y0147593D01*
X0119278Y0146615D01*
X0120556Y0146085D01*
X0122420Y0146284D02*
X0127950Y0146284D01*
X0128430Y0146085D02*
X0129814Y0146085D01*
X0131092Y0146615D01*
X0132070Y0147593D01*
X0132600Y0148871D01*
X0132600Y0150255D01*
X0132070Y0151533D01*
X0131092Y0152511D01*
X0129814Y0153041D01*
X0128430Y0153041D01*
X0127152Y0152511D01*
X0126174Y0151533D01*
X0125644Y0150255D01*
X0125644Y0148871D01*
X0126174Y0147593D01*
X0127152Y0146615D01*
X0128430Y0146085D01*
X0130295Y0146284D02*
X0135824Y0146284D01*
X0134358Y0147283D02*
X0131760Y0147283D01*
X0132356Y0148281D02*
X0133763Y0148281D01*
X0133518Y0149280D02*
X0132600Y0149280D01*
X0132590Y0150278D02*
X0133528Y0150278D01*
X0133941Y0151277D02*
X0132177Y0151277D01*
X0131328Y0152275D02*
X0134790Y0152275D01*
X0135548Y0154272D02*
X0130570Y0154272D01*
X0131092Y0154489D02*
X0129814Y0153959D01*
X0128430Y0153959D01*
X0127152Y0154489D01*
X0126174Y0155467D01*
X0125644Y0156745D01*
X0125644Y0158129D01*
X0126174Y0159407D01*
X0127152Y0160385D01*
X0128430Y0160915D01*
X0129814Y0160915D01*
X0131092Y0160385D01*
X0132070Y0159407D01*
X0132600Y0158129D01*
X0132600Y0156745D01*
X0132070Y0155467D01*
X0131092Y0154489D01*
X0131874Y0155271D02*
X0134244Y0155271D01*
X0133715Y0156269D02*
X0132403Y0156269D01*
X0132600Y0157268D02*
X0133518Y0157268D01*
X0133575Y0158266D02*
X0132543Y0158266D01*
X0132129Y0159265D02*
X0133989Y0159265D01*
X0134904Y0160263D02*
X0131214Y0160263D01*
X0127030Y0160263D02*
X0123340Y0160263D01*
X0123218Y0160385D02*
X0121940Y0160915D01*
X0120556Y0160915D01*
X0119278Y0160385D01*
X0118300Y0159407D01*
X0117770Y0158129D01*
X0117770Y0156745D01*
X0118300Y0155467D01*
X0119278Y0154489D01*
X0120556Y0153959D01*
X0121940Y0153959D01*
X0123218Y0154489D01*
X0124196Y0155467D01*
X0124726Y0156745D01*
X0124726Y0158129D01*
X0124196Y0159407D01*
X0123218Y0160385D01*
X0124255Y0159265D02*
X0126115Y0159265D01*
X0125701Y0158266D02*
X0124669Y0158266D01*
X0124726Y0157268D02*
X0125644Y0157268D01*
X0125841Y0156269D02*
X0124529Y0156269D01*
X0124000Y0155271D02*
X0126370Y0155271D01*
X0127674Y0154272D02*
X0122696Y0154272D01*
X0123454Y0152275D02*
X0126916Y0152275D01*
X0126067Y0151277D02*
X0124303Y0151277D01*
X0124716Y0150278D02*
X0125654Y0150278D01*
X0125644Y0149280D02*
X0124726Y0149280D01*
X0124482Y0148281D02*
X0125888Y0148281D01*
X0126484Y0147283D02*
X0123886Y0147283D01*
X0118610Y0147283D02*
X0116012Y0147283D01*
X0116608Y0148281D02*
X0118014Y0148281D01*
X0117770Y0149280D02*
X0116852Y0149280D01*
X0116842Y0150278D02*
X0117780Y0150278D01*
X0118193Y0151277D02*
X0116429Y0151277D01*
X0115580Y0152275D02*
X0119042Y0152275D01*
X0119800Y0154272D02*
X0114822Y0154272D01*
X0115344Y0154489D02*
X0114066Y0153959D01*
X0112682Y0153959D01*
X0111404Y0154489D01*
X0110426Y0155467D01*
X0109896Y0156745D01*
X0109896Y0158129D01*
X0110426Y0159407D01*
X0111404Y0160385D01*
X0112682Y0160915D01*
X0114066Y0160915D01*
X0115344Y0160385D01*
X0116322Y0159407D01*
X0116852Y0158129D01*
X0116852Y0156745D01*
X0116322Y0155467D01*
X0115344Y0154489D01*
X0116126Y0155271D02*
X0118496Y0155271D01*
X0117967Y0156269D02*
X0116655Y0156269D01*
X0116852Y0157268D02*
X0117770Y0157268D01*
X0117827Y0158266D02*
X0116795Y0158266D01*
X0116381Y0159265D02*
X0118241Y0159265D01*
X0119156Y0160263D02*
X0115466Y0160263D01*
X0111282Y0160263D02*
X0107592Y0160263D01*
X0107470Y0160385D02*
X0106192Y0160915D01*
X0104808Y0160915D01*
X0103530Y0160385D01*
X0102552Y0159407D01*
X0102022Y0158129D01*
X0102022Y0156745D01*
X0102552Y0155467D01*
X0103530Y0154489D01*
X0104808Y0153959D01*
X0106192Y0153959D01*
X0107470Y0154489D01*
X0108448Y0155467D01*
X0108978Y0156745D01*
X0108978Y0158129D01*
X0108448Y0159407D01*
X0107470Y0160385D01*
X0108507Y0159265D02*
X0110367Y0159265D01*
X0109953Y0158266D02*
X0108921Y0158266D01*
X0108978Y0157268D02*
X0109896Y0157268D01*
X0110093Y0156269D02*
X0108781Y0156269D01*
X0108252Y0155271D02*
X0110622Y0155271D01*
X0111926Y0154272D02*
X0106948Y0154272D01*
X0107706Y0152275D02*
X0111168Y0152275D01*
X0110319Y0151277D02*
X0108555Y0151277D01*
X0108968Y0150278D02*
X0109906Y0150278D01*
X0109896Y0149280D02*
X0108978Y0149280D01*
X0108734Y0148281D02*
X0110140Y0148281D01*
X0110736Y0147283D02*
X0108138Y0147283D01*
X0102862Y0147283D02*
X0100264Y0147283D01*
X0100860Y0148281D02*
X0102266Y0148281D01*
X0102022Y0149280D02*
X0101104Y0149280D01*
X0101094Y0150278D02*
X0102032Y0150278D01*
X0102445Y0151277D02*
X0100681Y0151277D01*
X0099832Y0152275D02*
X0103294Y0152275D01*
X0104052Y0154272D02*
X0099074Y0154272D01*
X0100378Y0155271D02*
X0102748Y0155271D01*
X0102219Y0156269D02*
X0100907Y0156269D01*
X0101104Y0157268D02*
X0102022Y0157268D01*
X0102079Y0158266D02*
X0101047Y0158266D01*
X0100633Y0159265D02*
X0102493Y0159265D01*
X0103408Y0160263D02*
X0099718Y0160263D01*
X0095900Y0161262D02*
X0137051Y0161262D01*
X0136053Y0162260D02*
X0095900Y0162260D01*
X0095900Y0163259D02*
X0135054Y0163259D01*
X0134056Y0164257D02*
X0095900Y0164257D01*
X0095917Y0165256D02*
X0133057Y0165256D01*
X0132059Y0166254D02*
X0096493Y0166254D01*
X0096589Y0167253D02*
X0131060Y0167253D01*
X0130062Y0168251D02*
X0096284Y0168251D01*
X0095334Y0169250D02*
X0129063Y0169250D01*
X0128065Y0170248D02*
X0093092Y0170248D01*
X0092666Y0169250D02*
X0092134Y0169250D01*
X0091716Y0168251D02*
X0091175Y0168251D01*
X0091411Y0167253D02*
X0090217Y0167253D01*
X0089258Y0166254D02*
X0091507Y0166254D01*
X0092083Y0165256D02*
X0088299Y0165256D01*
X0087341Y0164257D02*
X0092100Y0164257D01*
X0092100Y0163259D02*
X0086382Y0163259D01*
X0085424Y0162260D02*
X0092100Y0162260D01*
X0092100Y0161262D02*
X0086083Y0161262D01*
X0087081Y0160263D02*
X0087660Y0160263D01*
X0091844Y0160263D02*
X0092100Y0160263D01*
X0091948Y0154272D02*
X0091200Y0154272D01*
X0087546Y0152275D02*
X0087277Y0152275D01*
X0086697Y0151277D02*
X0086279Y0151277D01*
X0086284Y0150278D02*
X0085346Y0150278D01*
X0085356Y0149280D02*
X0086274Y0149280D01*
X0086518Y0148281D02*
X0085111Y0148281D01*
X0084516Y0147283D02*
X0087114Y0147283D01*
X0088579Y0146284D02*
X0083050Y0146284D01*
X0095748Y0154272D02*
X0096178Y0154272D01*
X0096602Y0153274D02*
X0139445Y0153274D01*
X0140444Y0154272D02*
X0138444Y0154272D01*
X0139748Y0155271D02*
X0141442Y0155271D01*
X0142044Y0156269D02*
X0140277Y0156269D01*
X0140474Y0157268D02*
X0141045Y0157268D01*
X0144819Y0153274D02*
X0145039Y0153274D01*
X0146038Y0152275D02*
X0143821Y0152275D01*
X0142822Y0151277D02*
X0147036Y0151277D01*
X0148035Y0150278D02*
X0141824Y0150278D01*
X0140825Y0149280D02*
X0149033Y0149280D01*
X0150032Y0148281D02*
X0140230Y0148281D01*
X0139634Y0147283D02*
X0151030Y0147283D01*
X0152029Y0146284D02*
X0138169Y0146284D01*
X0138422Y0149563D02*
X0136996Y0149563D01*
X0127066Y0171247D02*
X0119193Y0171247D01*
X0119921Y0172245D02*
X0123027Y0172245D01*
X0122051Y0173244D02*
X0119950Y0173244D01*
X0119950Y0174242D02*
X0121637Y0174242D01*
X0121450Y0175241D02*
X0115975Y0175241D01*
X0115025Y0175241D02*
X0099550Y0175241D01*
X0099550Y0176239D02*
X0111050Y0176239D01*
X0111050Y0177238D02*
X0099550Y0177238D01*
X0099550Y0178237D02*
X0111050Y0178237D01*
X0111050Y0174242D02*
X0099550Y0174242D01*
X0099550Y0173244D02*
X0111050Y0173244D01*
X0111079Y0172245D02*
X0099550Y0172245D01*
X0094051Y0171247D02*
X0111807Y0171247D01*
X0115025Y0171247D02*
X0115975Y0171247D01*
X0115975Y0172245D02*
X0115025Y0172245D01*
X0115025Y0173244D02*
X0115975Y0173244D01*
X0115975Y0174242D02*
X0115025Y0174242D01*
X0119950Y0176239D02*
X0121450Y0176239D01*
X0121836Y0177238D02*
X0119950Y0177238D01*
X0119950Y0178237D02*
X0122509Y0178237D01*
X0177400Y0171247D02*
X0183600Y0171247D01*
X0183600Y0170248D02*
X0177400Y0170248D01*
X0177400Y0169250D02*
X0183600Y0169250D01*
X0183600Y0168251D02*
X0177400Y0168251D01*
X0177400Y0167253D02*
X0183600Y0167253D01*
X0183600Y0166254D02*
X0177400Y0166254D01*
X0177400Y0165256D02*
X0183600Y0165256D01*
X0183600Y0164257D02*
X0177400Y0164257D01*
X0177400Y0163259D02*
X0183600Y0163259D01*
X0183600Y0162260D02*
X0177400Y0162260D01*
X0177400Y0161262D02*
X0183600Y0161262D01*
X0183600Y0160263D02*
X0177400Y0160263D01*
X0177400Y0159265D02*
X0183243Y0159265D01*
X0182911Y0158266D02*
X0177400Y0158266D01*
X0177400Y0157268D02*
X0178210Y0157268D01*
X0180790Y0157268D02*
X0182980Y0157268D01*
X0183518Y0156269D02*
X0181777Y0156269D01*
X0182089Y0155271D02*
X0183600Y0155271D01*
X0183600Y0154272D02*
X0182001Y0154272D01*
X0181435Y0153274D02*
X0183600Y0153274D01*
X0183600Y0152275D02*
X0177400Y0152275D01*
X0177400Y0151277D02*
X0183600Y0151277D01*
X0183600Y0150278D02*
X0177400Y0150278D01*
X0177400Y0149280D02*
X0183600Y0149280D01*
X0183600Y0148281D02*
X0177400Y0148281D01*
X0177400Y0147283D02*
X0183600Y0147283D01*
X0183600Y0146284D02*
X0177400Y0146284D01*
X0177400Y0145286D02*
X0183600Y0145286D01*
X0183600Y0144287D02*
X0177400Y0144287D01*
X0177400Y0143289D02*
X0183600Y0143289D01*
X0183600Y0142290D02*
X0177400Y0142290D01*
X0177400Y0141292D02*
X0183600Y0141292D01*
X0183600Y0140293D02*
X0177400Y0140293D01*
X0177400Y0139295D02*
X0183600Y0139295D01*
X0183600Y0138296D02*
X0177400Y0138296D01*
X0177400Y0137298D02*
X0183600Y0137298D01*
X0184014Y0136299D02*
X0177400Y0136299D01*
X0177400Y0135301D02*
X0185012Y0135301D01*
X0186011Y0134302D02*
X0177400Y0134302D01*
X0177400Y0133303D02*
X0187009Y0133303D01*
X0188008Y0132305D02*
X0177400Y0132305D01*
X0177400Y0131306D02*
X0189007Y0131306D01*
X0190005Y0130308D02*
X0178379Y0130308D01*
X0179378Y0129309D02*
X0191004Y0129309D01*
X0191600Y0128311D02*
X0180376Y0128311D01*
X0181375Y0127312D02*
X0191600Y0127312D01*
X0192171Y0126314D02*
X0182373Y0126314D01*
X0183372Y0125315D02*
X0193169Y0125315D01*
X0197831Y0125315D02*
X0208169Y0125315D01*
X0208885Y0124600D02*
X0206600Y0126885D01*
X0206600Y0130115D01*
X0208885Y0132400D01*
X0212115Y0132400D01*
X0214400Y0130115D01*
X0214400Y0126885D01*
X0212115Y0124600D01*
X0208885Y0124600D01*
X0207171Y0126314D02*
X0198829Y0126314D01*
X0199400Y0127312D02*
X0206600Y0127312D01*
X0206600Y0128311D02*
X0199400Y0128311D01*
X0199400Y0129309D02*
X0206600Y0129309D01*
X0206793Y0130308D02*
X0199207Y0130308D01*
X0198209Y0131306D02*
X0207791Y0131306D01*
X0208790Y0132305D02*
X0197210Y0132305D01*
X0193790Y0132305D02*
X0193382Y0132305D01*
X0192383Y0133303D02*
X0215000Y0133303D01*
X0215000Y0132305D02*
X0212210Y0132305D01*
X0213209Y0131306D02*
X0215000Y0131306D01*
X0215000Y0130308D02*
X0214207Y0130308D01*
X0214400Y0129309D02*
X0215000Y0129309D01*
X0215000Y0128311D02*
X0214400Y0128311D01*
X0214400Y0127312D02*
X0215000Y0127312D01*
X0215000Y0126314D02*
X0213829Y0126314D01*
X0212831Y0125315D02*
X0215000Y0125315D01*
X0215000Y0124317D02*
X0184370Y0124317D01*
X0185369Y0123318D02*
X0215000Y0123318D01*
X0215000Y0122320D02*
X0186367Y0122320D01*
X0187366Y0121321D02*
X0215000Y0121321D01*
X0215000Y0120323D02*
X0188364Y0120323D01*
X0189363Y0119324D02*
X0215000Y0119324D01*
X0215000Y0118326D02*
X0190361Y0118326D01*
X0191360Y0117327D02*
X0215000Y0117327D01*
X0215000Y0116329D02*
X0192358Y0116329D01*
X0193357Y0115330D02*
X0215000Y0115330D01*
X0215000Y0114332D02*
X0212184Y0114332D01*
X0212115Y0114400D02*
X0208885Y0114400D01*
X0206600Y0112115D01*
X0206600Y0108885D01*
X0208885Y0106600D01*
X0212115Y0106600D01*
X0214400Y0108885D01*
X0214400Y0112115D01*
X0212115Y0114400D01*
X0213182Y0113333D02*
X0215000Y0113333D01*
X0215000Y0112335D02*
X0214181Y0112335D01*
X0214400Y0111336D02*
X0215000Y0111336D01*
X0215000Y0110338D02*
X0214400Y0110338D01*
X0214400Y0109339D02*
X0215000Y0109339D01*
X0215000Y0108341D02*
X0213856Y0108341D01*
X0212858Y0107342D02*
X0215000Y0107342D01*
X0215000Y0106344D02*
X0184343Y0106344D01*
X0183345Y0107342D02*
X0193142Y0107342D01*
X0192144Y0108341D02*
X0182346Y0108341D01*
X0181348Y0109339D02*
X0191600Y0109339D01*
X0191600Y0110338D02*
X0180349Y0110338D01*
X0179351Y0111336D02*
X0191600Y0111336D01*
X0190978Y0112335D02*
X0178352Y0112335D01*
X0177354Y0113333D02*
X0189980Y0113333D01*
X0188981Y0114332D02*
X0176355Y0114332D01*
X0175357Y0115330D02*
X0187983Y0115330D01*
X0186984Y0116329D02*
X0175200Y0116329D01*
X0175200Y0117327D02*
X0185986Y0117327D01*
X0184987Y0118326D02*
X0175200Y0118326D01*
X0175200Y0119324D02*
X0183989Y0119324D01*
X0182990Y0120323D02*
X0175200Y0120323D01*
X0175200Y0121321D02*
X0181992Y0121321D01*
X0180993Y0122320D02*
X0175200Y0122320D01*
X0175200Y0123318D02*
X0179995Y0123318D01*
X0178996Y0124317D02*
X0175200Y0124317D01*
X0175200Y0125315D02*
X0177998Y0125315D01*
X0176999Y0126314D02*
X0175200Y0126314D01*
X0175200Y0127312D02*
X0176001Y0127312D01*
X0187400Y0138296D02*
X0215000Y0138296D01*
X0215000Y0137298D02*
X0188389Y0137298D01*
X0189388Y0136299D02*
X0215000Y0136299D01*
X0215000Y0135301D02*
X0190386Y0135301D01*
X0191385Y0134302D02*
X0215000Y0134302D01*
X0215000Y0139295D02*
X0187400Y0139295D01*
X0187400Y0140293D02*
X0215000Y0140293D01*
X0215000Y0141292D02*
X0187400Y0141292D01*
X0187400Y0142290D02*
X0215000Y0142290D01*
X0215000Y0143289D02*
X0212804Y0143289D01*
X0212115Y0142600D02*
X0214400Y0144885D01*
X0214400Y0148115D01*
X0212115Y0150400D01*
X0208885Y0150400D01*
X0206600Y0148115D01*
X0206600Y0144885D01*
X0208885Y0142600D01*
X0212115Y0142600D01*
X0213803Y0144287D02*
X0215000Y0144287D01*
X0215000Y0145286D02*
X0214400Y0145286D01*
X0214400Y0146284D02*
X0215000Y0146284D01*
X0215000Y0147283D02*
X0214400Y0147283D01*
X0214234Y0148281D02*
X0215000Y0148281D01*
X0215000Y0149280D02*
X0213236Y0149280D01*
X0212237Y0150278D02*
X0215000Y0150278D01*
X0215000Y0151277D02*
X0197400Y0151277D01*
X0197400Y0152275D02*
X0215000Y0152275D01*
X0215000Y0153274D02*
X0197400Y0153274D01*
X0197400Y0154272D02*
X0215000Y0154272D01*
X0215000Y0155271D02*
X0197400Y0155271D01*
X0197400Y0156269D02*
X0215000Y0156269D01*
X0215000Y0157268D02*
X0197400Y0157268D01*
X0197400Y0158266D02*
X0215000Y0158266D01*
X0215000Y0159265D02*
X0197400Y0159265D01*
X0197400Y0160263D02*
X0215000Y0160263D01*
X0215000Y0161262D02*
X0197400Y0161262D01*
X0197400Y0162260D02*
X0215000Y0162260D01*
X0215000Y0163259D02*
X0197400Y0163259D01*
X0197400Y0164257D02*
X0215000Y0164257D01*
X0215000Y0165256D02*
X0197400Y0165256D01*
X0197400Y0166254D02*
X0215000Y0166254D01*
X0215000Y0167253D02*
X0197400Y0167253D01*
X0197400Y0168251D02*
X0215000Y0168251D01*
X0215000Y0169250D02*
X0197400Y0169250D01*
X0197400Y0170248D02*
X0215000Y0170248D01*
X0215000Y0171247D02*
X0197400Y0171247D01*
X0197973Y0172245D02*
X0215000Y0172245D01*
X0215000Y0173244D02*
X0198949Y0173244D01*
X0199363Y0174242D02*
X0215000Y0174242D01*
X0215000Y0175241D02*
X0199550Y0175241D01*
X0199550Y0176239D02*
X0215000Y0176239D01*
X0215000Y0177238D02*
X0199164Y0177238D01*
X0198491Y0178237D02*
X0215000Y0178237D01*
X0193600Y0171247D02*
X0187400Y0171247D01*
X0187400Y0170248D02*
X0193600Y0170248D01*
X0193600Y0169250D02*
X0187400Y0169250D01*
X0187400Y0168251D02*
X0193600Y0168251D01*
X0193600Y0167253D02*
X0187400Y0167253D01*
X0187400Y0166254D02*
X0193600Y0166254D01*
X0193600Y0165256D02*
X0187400Y0165256D01*
X0187400Y0164257D02*
X0193600Y0164257D01*
X0193600Y0163259D02*
X0187400Y0163259D01*
X0187400Y0162260D02*
X0193600Y0162260D01*
X0193600Y0161262D02*
X0187400Y0161262D01*
X0187400Y0160263D02*
X0193600Y0160263D01*
X0193600Y0159265D02*
X0187757Y0159265D01*
X0188089Y0158266D02*
X0193600Y0158266D01*
X0193600Y0157268D02*
X0188020Y0157268D01*
X0187482Y0156269D02*
X0193600Y0156269D01*
X0193600Y0155271D02*
X0187400Y0155271D01*
X0187400Y0154272D02*
X0193600Y0154272D01*
X0193600Y0153274D02*
X0187400Y0153274D01*
X0187400Y0152275D02*
X0193600Y0152275D01*
X0193600Y0151277D02*
X0187400Y0151277D01*
X0187400Y0150278D02*
X0193600Y0150278D01*
X0192764Y0149280D02*
X0187400Y0149280D01*
X0187400Y0148281D02*
X0191766Y0148281D01*
X0191600Y0147283D02*
X0187400Y0147283D01*
X0187400Y0146284D02*
X0191600Y0146284D01*
X0191600Y0145286D02*
X0187400Y0145286D01*
X0187400Y0144287D02*
X0192197Y0144287D01*
X0193196Y0143289D02*
X0187400Y0143289D01*
X0197804Y0143289D02*
X0208196Y0143289D01*
X0207197Y0144287D02*
X0198803Y0144287D01*
X0199400Y0145286D02*
X0206600Y0145286D01*
X0206600Y0146284D02*
X0199400Y0146284D01*
X0199400Y0147283D02*
X0206600Y0147283D01*
X0206766Y0148281D02*
X0199234Y0148281D01*
X0198236Y0149280D02*
X0207764Y0149280D01*
X0208763Y0150278D02*
X0197400Y0150278D01*
X0193027Y0172245D02*
X0187973Y0172245D01*
X0188949Y0173244D02*
X0192051Y0173244D01*
X0191637Y0174242D02*
X0189363Y0174242D01*
X0189550Y0175241D02*
X0191450Y0175241D01*
X0191450Y0176239D02*
X0189550Y0176239D01*
X0189164Y0177238D02*
X0191836Y0177238D01*
X0192509Y0178237D02*
X0188491Y0178237D01*
X0182509Y0178237D02*
X0178491Y0178237D01*
X0179164Y0177238D02*
X0181836Y0177238D01*
X0181450Y0176239D02*
X0179550Y0176239D01*
X0179550Y0175241D02*
X0181450Y0175241D01*
X0181637Y0174242D02*
X0179363Y0174242D01*
X0178949Y0173244D02*
X0182051Y0173244D01*
X0183027Y0172245D02*
X0177973Y0172245D01*
X0197184Y0114332D02*
X0208816Y0114332D01*
X0207818Y0113333D02*
X0198182Y0113333D01*
X0199181Y0112335D02*
X0206819Y0112335D01*
X0206600Y0111336D02*
X0199400Y0111336D01*
X0199400Y0110338D02*
X0206600Y0110338D01*
X0206600Y0109339D02*
X0199400Y0109339D01*
X0198856Y0108341D02*
X0207144Y0108341D01*
X0208142Y0107342D02*
X0197858Y0107342D01*
X0190334Y0100353D02*
X0215000Y0100353D01*
X0215000Y0101351D02*
X0189336Y0101351D01*
X0188337Y0102350D02*
X0215000Y0102350D01*
X0215000Y0103348D02*
X0187339Y0103348D01*
X0186340Y0104347D02*
X0215000Y0104347D01*
X0215000Y0105345D02*
X0185342Y0105345D01*
X0181965Y0103348D02*
X0173000Y0103348D01*
X0173000Y0102350D02*
X0182963Y0102350D01*
X0183962Y0101351D02*
X0173000Y0101351D01*
X0173000Y0100353D02*
X0184960Y0100353D01*
X0185959Y0099354D02*
X0173333Y0099354D01*
X0174331Y0098356D02*
X0186957Y0098356D01*
X0187956Y0097357D02*
X0175330Y0097357D01*
X0176328Y0096359D02*
X0188954Y0096359D01*
X0189953Y0095360D02*
X0177327Y0095360D01*
X0178325Y0094362D02*
X0190951Y0094362D01*
X0191600Y0093363D02*
X0179324Y0093363D01*
X0180322Y0092365D02*
X0191600Y0092365D01*
X0191600Y0091366D02*
X0181321Y0091366D01*
X0182319Y0090368D02*
X0192117Y0090368D01*
X0193116Y0089369D02*
X0183318Y0089369D01*
X0184316Y0088370D02*
X0215000Y0088370D01*
X0215000Y0087372D02*
X0185315Y0087372D01*
X0186314Y0086373D02*
X0215000Y0086373D01*
X0215000Y0085375D02*
X0187312Y0085375D01*
X0188311Y0084376D02*
X0215000Y0084376D01*
X0215000Y0083378D02*
X0189309Y0083378D01*
X0190308Y0082379D02*
X0215000Y0082379D01*
X0215000Y0081381D02*
X0191306Y0081381D01*
X0192305Y0080382D02*
X0215000Y0080382D01*
X0215000Y0079384D02*
X0193303Y0079384D01*
X0197130Y0078385D02*
X0208870Y0078385D01*
X0208885Y0078400D02*
X0206600Y0076115D01*
X0206600Y0072885D01*
X0208885Y0070600D01*
X0212115Y0070600D01*
X0214400Y0072885D01*
X0214400Y0076115D01*
X0212115Y0078400D01*
X0208885Y0078400D01*
X0207871Y0077387D02*
X0198129Y0077387D01*
X0199127Y0076388D02*
X0206873Y0076388D01*
X0206600Y0075390D02*
X0199400Y0075390D01*
X0199400Y0074391D02*
X0206600Y0074391D01*
X0206600Y0073393D02*
X0199400Y0073393D01*
X0198910Y0072394D02*
X0207090Y0072394D01*
X0208089Y0071396D02*
X0197911Y0071396D01*
X0193089Y0071396D02*
X0183291Y0071396D01*
X0182293Y0072394D02*
X0192090Y0072394D01*
X0191600Y0073393D02*
X0181294Y0073393D01*
X0180296Y0074391D02*
X0191600Y0074391D01*
X0191600Y0075390D02*
X0179297Y0075390D01*
X0178299Y0076388D02*
X0190925Y0076388D01*
X0189926Y0077387D02*
X0177300Y0077387D01*
X0176302Y0078385D02*
X0188928Y0078385D01*
X0187929Y0079384D02*
X0175303Y0079384D01*
X0174305Y0080382D02*
X0186931Y0080382D01*
X0185932Y0081381D02*
X0173306Y0081381D01*
X0172308Y0082379D02*
X0184934Y0082379D01*
X0183935Y0083378D02*
X0171309Y0083378D01*
X0170800Y0084376D02*
X0182937Y0084376D01*
X0181938Y0085375D02*
X0170800Y0085375D01*
X0170800Y0086373D02*
X0180940Y0086373D01*
X0179941Y0087372D02*
X0170800Y0087372D01*
X0170800Y0088370D02*
X0178943Y0088370D01*
X0177944Y0089369D02*
X0170800Y0089369D01*
X0170800Y0090368D02*
X0176945Y0090368D01*
X0175947Y0091366D02*
X0170800Y0091366D01*
X0170800Y0092365D02*
X0174948Y0092365D01*
X0173950Y0093363D02*
X0170800Y0093363D01*
X0170800Y0094362D02*
X0172951Y0094362D01*
X0171953Y0095360D02*
X0170800Y0095360D01*
X0170800Y0096359D02*
X0170954Y0096359D01*
X0173000Y0104347D02*
X0180966Y0104347D01*
X0179968Y0105345D02*
X0173000Y0105345D01*
X0173000Y0106344D02*
X0178969Y0106344D01*
X0177971Y0107342D02*
X0173000Y0107342D01*
X0173000Y0108341D02*
X0176972Y0108341D01*
X0175974Y0109339D02*
X0173000Y0109339D01*
X0173000Y0110338D02*
X0174975Y0110338D01*
X0173977Y0111336D02*
X0173000Y0111336D01*
X0162600Y0111336D02*
X0088325Y0111336D01*
X0088955Y0110338D02*
X0162600Y0110338D01*
X0162600Y0109339D02*
X0089089Y0109339D01*
X0088822Y0108341D02*
X0162600Y0108341D01*
X0162600Y0107342D02*
X0088100Y0107342D01*
X0088100Y0106344D02*
X0162600Y0106344D01*
X0162600Y0105345D02*
X0088418Y0105345D01*
X0089416Y0104347D02*
X0162600Y0104347D01*
X0162600Y0103348D02*
X0090415Y0103348D01*
X0091413Y0102350D02*
X0162600Y0102350D01*
X0162600Y0101351D02*
X0092412Y0101351D01*
X0093410Y0100353D02*
X0162600Y0100353D01*
X0162600Y0099354D02*
X0094409Y0099354D01*
X0095407Y0098356D02*
X0162600Y0098356D01*
X0162600Y0097357D02*
X0096100Y0097357D01*
X0096100Y0096359D02*
X0162600Y0096359D01*
X0162600Y0095360D02*
X0096100Y0095360D01*
X0096100Y0094362D02*
X0098604Y0094362D01*
X0098602Y0094359D02*
X0098500Y0093977D01*
X0098500Y0092279D01*
X0102000Y0092279D01*
X0102000Y0091280D01*
X0098500Y0091280D01*
X0098500Y0089582D01*
X0098602Y0089201D01*
X0098800Y0088859D01*
X0099079Y0088579D01*
X0099421Y0088382D01*
X0099803Y0088280D01*
X0102000Y0088280D01*
X0102000Y0091279D01*
X0103000Y0091279D01*
X0103000Y0088280D01*
X0105197Y0088280D01*
X0105579Y0088382D01*
X0105921Y0088579D01*
X0106200Y0088859D01*
X0106398Y0089201D01*
X0106500Y0089582D01*
X0106500Y0091280D01*
X0103000Y0091280D01*
X0103000Y0092279D01*
X0106500Y0092279D01*
X0106500Y0093977D01*
X0106398Y0094359D01*
X0106200Y0094701D01*
X0105921Y0094980D01*
X0105579Y0095177D01*
X0105197Y0095280D01*
X0103000Y0095280D01*
X0103000Y0092280D01*
X0102000Y0092280D01*
X0102000Y0095280D01*
X0099803Y0095280D01*
X0099421Y0095177D01*
X0099079Y0094980D01*
X0098800Y0094701D01*
X0098602Y0094359D01*
X0098500Y0093363D02*
X0096100Y0093363D01*
X0096100Y0092365D02*
X0098500Y0092365D01*
X0096100Y0091366D02*
X0102000Y0091366D01*
X0102000Y0090368D02*
X0103000Y0090368D01*
X0103000Y0091366D02*
X0162600Y0091366D01*
X0162600Y0090368D02*
X0106500Y0090368D01*
X0106443Y0089369D02*
X0162600Y0089369D01*
X0162600Y0088370D02*
X0153291Y0088370D01*
X0152967Y0088695D02*
X0153695Y0087967D01*
X0154089Y0087015D01*
X0154089Y0085985D01*
X0153695Y0085033D01*
X0152967Y0084305D01*
X0152015Y0083911D01*
X0151174Y0083911D01*
X0146163Y0078900D01*
X0131061Y0078900D01*
X0130467Y0078305D01*
X0129515Y0077911D01*
X0128485Y0077911D01*
X0127533Y0078305D01*
X0126805Y0079033D01*
X0126411Y0079985D01*
X0126411Y0081015D01*
X0126805Y0081967D01*
X0127533Y0082695D01*
X0128485Y0083089D01*
X0129515Y0083089D01*
X0130467Y0082695D01*
X0131061Y0082100D01*
X0144837Y0082100D01*
X0148911Y0086174D01*
X0148911Y0087015D01*
X0149305Y0087967D01*
X0150033Y0088695D01*
X0150985Y0089089D01*
X0152015Y0089089D01*
X0152967Y0088695D01*
X0153941Y0087372D02*
X0162600Y0087372D01*
X0162600Y0086373D02*
X0154089Y0086373D01*
X0153836Y0085375D02*
X0162600Y0085375D01*
X0162600Y0084376D02*
X0153038Y0084376D01*
X0150641Y0083378D02*
X0162600Y0083378D01*
X0162600Y0082379D02*
X0149642Y0082379D01*
X0148644Y0081381D02*
X0162600Y0081381D01*
X0162600Y0080382D02*
X0147645Y0080382D01*
X0146647Y0079384D02*
X0162600Y0079384D01*
X0162600Y0078385D02*
X0130547Y0078385D01*
X0129000Y0080500D02*
X0145500Y0080500D01*
X0151500Y0086500D01*
X0149709Y0088370D02*
X0105537Y0088370D01*
X0103000Y0088370D02*
X0102000Y0088370D01*
X0102000Y0089369D02*
X0103000Y0089369D01*
X0103000Y0092365D02*
X0102000Y0092365D01*
X0102000Y0093363D02*
X0103000Y0093363D01*
X0103000Y0094362D02*
X0102000Y0094362D01*
X0106396Y0094362D02*
X0162600Y0094362D01*
X0162600Y0093363D02*
X0106500Y0093363D01*
X0106500Y0092365D02*
X0162600Y0092365D01*
X0149059Y0087372D02*
X0097089Y0087372D01*
X0096942Y0088370D02*
X0099463Y0088370D01*
X0098557Y0089369D02*
X0096292Y0089369D01*
X0096100Y0090368D02*
X0098500Y0090368D01*
X0096836Y0086373D02*
X0148911Y0086373D01*
X0148112Y0085375D02*
X0106100Y0085375D01*
X0106100Y0084376D02*
X0147114Y0084376D01*
X0146115Y0083378D02*
X0106100Y0083378D01*
X0106100Y0082379D02*
X0127218Y0082379D01*
X0126563Y0081381D02*
X0106100Y0081381D01*
X0106354Y0080382D02*
X0109057Y0080382D01*
X0109079Y0080421D02*
X0108882Y0080079D01*
X0108780Y0079697D01*
X0108780Y0077500D01*
X0111779Y0077500D01*
X0111779Y0076500D01*
X0108780Y0076500D01*
X0108780Y0074303D01*
X0108882Y0073921D01*
X0109079Y0073579D01*
X0109359Y0073300D01*
X0109701Y0073102D01*
X0110082Y0073000D01*
X0111780Y0073000D01*
X0111780Y0076500D01*
X0112779Y0076500D01*
X0112779Y0073000D01*
X0114477Y0073000D01*
X0114859Y0073102D01*
X0115201Y0073300D01*
X0115480Y0073579D01*
X0115677Y0073921D01*
X0115780Y0074303D01*
X0115780Y0076500D01*
X0112780Y0076500D01*
X0112780Y0077500D01*
X0115780Y0077500D01*
X0115780Y0079697D01*
X0115677Y0080079D01*
X0115480Y0080421D01*
X0115201Y0080700D01*
X0114859Y0080898D01*
X0114477Y0081000D01*
X0112779Y0081000D01*
X0112779Y0077500D01*
X0111780Y0077500D01*
X0111780Y0081000D01*
X0110082Y0081000D01*
X0109701Y0080898D01*
X0109359Y0080700D01*
X0109079Y0080421D01*
X0108780Y0079384D02*
X0106781Y0079384D01*
X0106781Y0078385D02*
X0108780Y0078385D01*
X0108780Y0076388D02*
X0106781Y0076388D01*
X0106781Y0075390D02*
X0108780Y0075390D01*
X0108780Y0074391D02*
X0106781Y0074391D01*
X0107020Y0072394D02*
X0104381Y0072394D01*
X0105451Y0071396D02*
X0106581Y0071396D01*
X0106111Y0069000D02*
X0105900Y0068789D01*
X0105900Y0056324D01*
X0109500Y0052724D01*
X0109500Y0050181D01*
X0112000Y0047681D01*
X0112000Y0045500D01*
X0106224Y0039724D01*
X0105063Y0039724D01*
X0102763Y0039443D02*
X0100276Y0039443D01*
X0100276Y0038445D02*
X0102763Y0038445D01*
X0102763Y0037446D02*
X0100276Y0037446D01*
X0099855Y0036448D02*
X0103184Y0036448D01*
X0105791Y0033452D02*
X0030848Y0033452D01*
X0029850Y0032454D02*
X0105093Y0032454D01*
X0104911Y0031455D02*
X0028851Y0031455D01*
X0027853Y0030457D02*
X0058529Y0030457D01*
X0058705Y0030530D02*
X0057754Y0030136D01*
X0057026Y0029407D01*
X0056631Y0028456D01*
X0056631Y0027426D01*
X0057026Y0026474D01*
X0057754Y0025746D01*
X0058705Y0025352D01*
X0059547Y0025352D01*
X0068661Y0016237D01*
X0069599Y0015300D01*
X0083240Y0015300D01*
X0084177Y0016237D01*
X0085840Y0017900D01*
X0088258Y0017900D01*
X0088852Y0017305D01*
X0089804Y0016911D01*
X0090834Y0016911D01*
X0091785Y0017305D01*
X0092514Y0018033D01*
X0092908Y0018985D01*
X0092908Y0020015D01*
X0092514Y0020967D01*
X0091785Y0021695D01*
X0090834Y0022089D01*
X0089804Y0022089D01*
X0088852Y0021695D01*
X0088258Y0021100D01*
X0085840Y0021100D01*
X0084514Y0021100D01*
X0081914Y0018500D01*
X0070924Y0018500D01*
X0061809Y0027615D01*
X0061809Y0028456D01*
X0061415Y0029407D01*
X0060687Y0030136D01*
X0059735Y0030530D01*
X0058705Y0030530D01*
X0059912Y0030457D02*
X0104375Y0030457D01*
X0103377Y0029458D02*
X0061364Y0029458D01*
X0061808Y0028460D02*
X0098585Y0028460D01*
X0098400Y0027461D02*
X0061963Y0027461D01*
X0062961Y0026463D02*
X0098400Y0026463D01*
X0098400Y0025464D02*
X0063960Y0025464D01*
X0064958Y0024466D02*
X0098400Y0024466D01*
X0098400Y0023467D02*
X0065957Y0023467D01*
X0066955Y0022469D02*
X0148769Y0022469D01*
X0149767Y0021470D02*
X0092010Y0021470D01*
X0092719Y0020472D02*
X0098667Y0020472D01*
X0098015Y0019473D02*
X0092908Y0019473D01*
X0092696Y0018475D02*
X0098000Y0018475D01*
X0101500Y0018475D02*
X0102500Y0018475D01*
X0102500Y0019473D02*
X0101500Y0019473D01*
X0101500Y0020472D02*
X0102500Y0020472D01*
X0105333Y0020472D02*
X0107167Y0020472D01*
X0106515Y0019473D02*
X0105985Y0019473D01*
X0106000Y0018475D02*
X0106500Y0018475D01*
X0110000Y0018475D02*
X0111000Y0018475D01*
X0111000Y0019473D02*
X0110000Y0019473D01*
X0110000Y0020472D02*
X0111000Y0020472D01*
X0113833Y0020472D02*
X0150766Y0020472D01*
X0151500Y0022000D02*
X0176000Y0022000D01*
X0172000Y0026000D01*
X0169819Y0026000D01*
X0170646Y0028460D02*
X0184853Y0028460D01*
X0183855Y0029458D02*
X0146304Y0029458D01*
X0145306Y0030457D02*
X0182856Y0030457D01*
X0181858Y0031455D02*
X0144307Y0031455D01*
X0143309Y0032454D02*
X0180859Y0032454D01*
X0179861Y0033452D02*
X0142310Y0033452D01*
X0141312Y0034451D02*
X0178862Y0034451D01*
X0177864Y0035449D02*
X0140313Y0035449D01*
X0139315Y0036448D02*
X0176865Y0036448D01*
X0175867Y0037446D02*
X0138316Y0037446D01*
X0137318Y0038445D02*
X0174868Y0038445D01*
X0173870Y0039443D02*
X0136319Y0039443D01*
X0135500Y0038000D02*
X0134000Y0038000D01*
X0133280Y0038720D01*
X0117000Y0038720D01*
X0113400Y0038445D02*
X0112100Y0038445D01*
X0112100Y0039443D02*
X0113400Y0039443D01*
X0113400Y0040442D02*
X0112100Y0040442D01*
X0112100Y0041440D02*
X0113664Y0041440D01*
X0112100Y0042439D02*
X0170874Y0042439D01*
X0169876Y0043437D02*
X0113599Y0043437D01*
X0112000Y0045500D02*
X0110500Y0043500D01*
X0110500Y0025819D01*
X0106900Y0025464D02*
X0105600Y0025464D01*
X0105600Y0024466D02*
X0106900Y0024466D01*
X0106900Y0023467D02*
X0105600Y0023467D01*
X0102000Y0025819D02*
X0107500Y0031319D01*
X0107500Y0031500D01*
X0108900Y0034451D02*
X0031847Y0034451D01*
X0032846Y0035449D02*
X0108900Y0035449D01*
X0108900Y0036448D02*
X0106942Y0036448D01*
X0107363Y0037446D02*
X0108900Y0037446D01*
X0108900Y0038445D02*
X0107363Y0038445D01*
X0108206Y0039443D02*
X0108900Y0039443D01*
X0112100Y0037446D02*
X0113400Y0037446D01*
X0113400Y0036448D02*
X0112100Y0036448D01*
X0112100Y0035449D02*
X0133392Y0035449D01*
X0134608Y0035449D02*
X0135788Y0035449D01*
X0136786Y0034451D02*
X0112100Y0034451D01*
X0112100Y0033452D02*
X0137785Y0033452D01*
X0138783Y0032454D02*
X0112100Y0032454D01*
X0112100Y0031455D02*
X0139782Y0031455D01*
X0140780Y0030457D02*
X0112100Y0030457D01*
X0112100Y0029458D02*
X0141779Y0029458D01*
X0142777Y0028460D02*
X0113915Y0028460D01*
X0114100Y0027461D02*
X0143776Y0027461D01*
X0144774Y0026463D02*
X0114100Y0026463D01*
X0114100Y0025464D02*
X0145773Y0025464D01*
X0146771Y0024466D02*
X0114100Y0024466D01*
X0114100Y0023467D02*
X0147770Y0023467D01*
X0150298Y0025464D02*
X0167239Y0025464D01*
X0167230Y0026463D02*
X0149300Y0026463D01*
X0148301Y0027461D02*
X0167622Y0027461D01*
X0168992Y0028460D02*
X0147303Y0028460D01*
X0151297Y0024466D02*
X0167692Y0024466D01*
X0172801Y0027461D02*
X0185852Y0027461D01*
X0186850Y0026463D02*
X0173800Y0026463D01*
X0174798Y0025464D02*
X0187849Y0025464D01*
X0188847Y0024466D02*
X0175797Y0024466D01*
X0176795Y0023467D02*
X0189846Y0023467D01*
X0190844Y0022469D02*
X0177794Y0022469D01*
X0178792Y0021470D02*
X0191600Y0021470D01*
X0191600Y0020472D02*
X0179791Y0020472D01*
X0180790Y0019473D02*
X0191600Y0019473D01*
X0191212Y0018475D02*
X0181788Y0018475D01*
X0182000Y0016000D02*
X0191000Y0016000D01*
X0195500Y0020500D01*
X0198048Y0023467D02*
X0207952Y0023467D01*
X0208885Y0024400D02*
X0206600Y0022115D01*
X0206600Y0018885D01*
X0208885Y0016600D01*
X0212115Y0016600D01*
X0214400Y0018885D01*
X0214400Y0022115D01*
X0212115Y0024400D01*
X0208885Y0024400D01*
X0206953Y0022469D02*
X0199047Y0022469D01*
X0199400Y0021470D02*
X0206600Y0021470D01*
X0206600Y0020472D02*
X0199400Y0020472D01*
X0199400Y0019473D02*
X0206600Y0019473D01*
X0207010Y0018475D02*
X0198990Y0018475D01*
X0197992Y0017476D02*
X0208008Y0017476D01*
X0212992Y0017476D02*
X0215000Y0017476D01*
X0215000Y0016478D02*
X0193740Y0016478D01*
X0192742Y0015479D02*
X0215000Y0015479D01*
X0215000Y0014481D02*
X0191743Y0014481D01*
X0191462Y0012484D02*
X0186466Y0012484D01*
X0184534Y0012484D02*
X0176466Y0012484D01*
X0174534Y0012484D02*
X0167484Y0012484D01*
X0165975Y0012484D02*
X0165025Y0012484D01*
X0165025Y0011485D02*
X0165975Y0011485D01*
X0165975Y0010487D02*
X0165025Y0010487D01*
X0165025Y0009488D02*
X0165975Y0009488D01*
X0165975Y0008490D02*
X0171450Y0008490D01*
X0171526Y0009488D02*
X0169849Y0009488D01*
X0169482Y0010487D02*
X0171939Y0010487D01*
X0172758Y0011485D02*
X0168808Y0011485D01*
X0169846Y0007491D02*
X0171534Y0007491D01*
X0171948Y0006493D02*
X0169471Y0006493D01*
X0165025Y0008025D02*
X0161070Y0008025D01*
X0161160Y0007458D01*
X0161376Y0006792D01*
X0161694Y0006168D01*
X0161816Y0006000D01*
X0158728Y0006000D01*
X0158933Y0006206D01*
X0159550Y0007694D01*
X0159550Y0009091D01*
X0159985Y0008911D01*
X0161015Y0008911D01*
X0161169Y0008975D01*
X0165025Y0008975D01*
X0165025Y0008025D01*
X0165025Y0008490D02*
X0159550Y0008490D01*
X0159466Y0007491D02*
X0161154Y0007491D01*
X0161528Y0006493D02*
X0159052Y0006493D01*
X0160500Y0011500D02*
X0160500Y0012000D01*
X0159500Y0013000D01*
X0154272Y0013000D01*
X0149772Y0008500D01*
X0145500Y0008500D01*
X0141228Y0008500D01*
X0137178Y0012550D01*
X0123822Y0012550D01*
X0119772Y0008500D01*
X0115500Y0008500D01*
X0112956Y0008500D01*
X0108906Y0012550D01*
X0099550Y0012550D01*
X0095500Y0008500D01*
X0099550Y0008490D02*
X0105025Y0008490D01*
X0105025Y0008025D02*
X0101050Y0008025D01*
X0101050Y0006000D01*
X0098728Y0006000D01*
X0098933Y0006206D01*
X0099550Y0007694D01*
X0099550Y0009306D01*
X0099262Y0010000D01*
X0100213Y0010950D01*
X0101050Y0010950D01*
X0101050Y0008975D01*
X0105025Y0008975D01*
X0105025Y0008025D01*
X0105975Y0008025D02*
X0105975Y0008975D01*
X0109950Y0008975D01*
X0109950Y0009243D01*
X0111450Y0007743D01*
X0111450Y0007694D01*
X0112067Y0006206D01*
X0112272Y0006000D01*
X0109950Y0006000D01*
X0109950Y0008025D01*
X0105975Y0008025D01*
X0105975Y0008490D02*
X0110703Y0008490D01*
X0109950Y0007491D02*
X0111534Y0007491D01*
X0111948Y0006493D02*
X0109950Y0006493D01*
X0112233Y0011485D02*
X0112758Y0011485D01*
X0111235Y0012484D02*
X0114534Y0012484D01*
X0116466Y0012484D02*
X0121493Y0012484D01*
X0122492Y0013482D02*
X0110236Y0013482D01*
X0110000Y0014481D02*
X0111000Y0014481D01*
X0111000Y0015479D02*
X0110000Y0015479D01*
X0110000Y0016478D02*
X0111000Y0016478D01*
X0111000Y0017476D02*
X0178261Y0017476D01*
X0179260Y0016478D02*
X0114500Y0016478D01*
X0114500Y0015479D02*
X0180258Y0015479D01*
X0181257Y0014481D02*
X0160282Y0014481D01*
X0162179Y0013482D02*
X0215000Y0013482D01*
X0215000Y0012484D02*
X0199538Y0012484D01*
X0199950Y0011485D02*
X0215000Y0011485D01*
X0215000Y0010487D02*
X0199950Y0010487D01*
X0199950Y0009488D02*
X0215000Y0009488D01*
X0215000Y0008490D02*
X0195975Y0008490D01*
X0195025Y0008490D02*
X0189550Y0008490D01*
X0189474Y0009488D02*
X0191050Y0009488D01*
X0191050Y0010487D02*
X0189061Y0010487D01*
X0188242Y0011485D02*
X0191050Y0011485D01*
X0195025Y0011485D02*
X0195975Y0011485D01*
X0195975Y0010487D02*
X0195025Y0010487D01*
X0195025Y0009488D02*
X0195975Y0009488D01*
X0195975Y0012484D02*
X0195025Y0012484D01*
X0191050Y0007491D02*
X0189466Y0007491D01*
X0189052Y0006493D02*
X0191050Y0006493D01*
X0199950Y0006493D02*
X0215000Y0006493D01*
X0215000Y0007491D02*
X0199950Y0007491D01*
X0213990Y0018475D02*
X0215000Y0018475D01*
X0215000Y0019473D02*
X0214400Y0019473D01*
X0214400Y0020472D02*
X0215000Y0020472D01*
X0215000Y0021470D02*
X0214400Y0021470D01*
X0214047Y0022469D02*
X0215000Y0022469D01*
X0215000Y0023467D02*
X0213048Y0023467D01*
X0215000Y0024466D02*
X0194221Y0024466D01*
X0193223Y0025464D02*
X0215000Y0025464D01*
X0215000Y0026463D02*
X0192224Y0026463D01*
X0191226Y0027461D02*
X0215000Y0027461D01*
X0215000Y0028460D02*
X0190227Y0028460D01*
X0189229Y0029458D02*
X0215000Y0029458D01*
X0215000Y0030457D02*
X0188230Y0030457D01*
X0187232Y0031455D02*
X0215000Y0031455D01*
X0215000Y0032454D02*
X0186233Y0032454D01*
X0185235Y0033452D02*
X0215000Y0033452D01*
X0215000Y0034451D02*
X0184236Y0034451D01*
X0183238Y0035449D02*
X0193035Y0035449D01*
X0192037Y0036448D02*
X0182239Y0036448D01*
X0181241Y0037446D02*
X0191600Y0037446D01*
X0191600Y0038445D02*
X0180242Y0038445D01*
X0179244Y0039443D02*
X0191600Y0039443D01*
X0190871Y0040442D02*
X0178245Y0040442D01*
X0177247Y0041440D02*
X0189873Y0041440D01*
X0188874Y0042439D02*
X0176248Y0042439D01*
X0175250Y0043437D02*
X0187876Y0043437D01*
X0186877Y0044436D02*
X0174251Y0044436D01*
X0173252Y0045434D02*
X0185878Y0045434D01*
X0184880Y0046433D02*
X0172254Y0046433D01*
X0171255Y0047432D02*
X0183881Y0047432D01*
X0182883Y0048430D02*
X0170257Y0048430D01*
X0169258Y0049429D02*
X0181884Y0049429D01*
X0180886Y0050427D02*
X0168260Y0050427D01*
X0167261Y0051426D02*
X0179887Y0051426D01*
X0178889Y0052424D02*
X0166400Y0052424D01*
X0166400Y0053423D02*
X0177890Y0053423D01*
X0176892Y0054421D02*
X0166400Y0054421D01*
X0166400Y0055420D02*
X0175893Y0055420D01*
X0174895Y0056418D02*
X0166400Y0056418D01*
X0166400Y0057417D02*
X0173896Y0057417D01*
X0172898Y0058415D02*
X0166400Y0058415D01*
X0166400Y0059414D02*
X0171899Y0059414D01*
X0170901Y0060412D02*
X0166400Y0060412D01*
X0166400Y0061411D02*
X0169902Y0061411D01*
X0168904Y0062409D02*
X0166400Y0062409D01*
X0166400Y0063408D02*
X0167905Y0063408D01*
X0166907Y0064406D02*
X0166400Y0064406D01*
X0170284Y0066403D02*
X0182910Y0066403D01*
X0183908Y0065405D02*
X0171282Y0065405D01*
X0172281Y0064406D02*
X0184907Y0064406D01*
X0185905Y0063408D02*
X0173279Y0063408D01*
X0174278Y0062409D02*
X0186904Y0062409D01*
X0187902Y0061411D02*
X0175276Y0061411D01*
X0176275Y0060412D02*
X0188901Y0060412D01*
X0189899Y0059414D02*
X0177273Y0059414D01*
X0178272Y0058415D02*
X0190898Y0058415D01*
X0191600Y0057417D02*
X0179270Y0057417D01*
X0180269Y0056418D02*
X0191600Y0056418D01*
X0191600Y0055420D02*
X0181267Y0055420D01*
X0182266Y0054421D02*
X0192063Y0054421D01*
X0193062Y0053423D02*
X0183264Y0053423D01*
X0184263Y0052424D02*
X0215000Y0052424D01*
X0215000Y0051426D02*
X0185261Y0051426D01*
X0186260Y0050427D02*
X0215000Y0050427D01*
X0215000Y0049429D02*
X0187258Y0049429D01*
X0188257Y0048430D02*
X0215000Y0048430D01*
X0215000Y0047432D02*
X0189255Y0047432D01*
X0190254Y0046433D02*
X0215000Y0046433D01*
X0215000Y0045434D02*
X0191252Y0045434D01*
X0192251Y0044436D02*
X0215000Y0044436D01*
X0215000Y0043437D02*
X0193250Y0043437D01*
X0194248Y0042439D02*
X0215000Y0042439D01*
X0215000Y0041440D02*
X0213075Y0041440D01*
X0212115Y0042400D02*
X0214400Y0040115D01*
X0214400Y0036885D01*
X0212115Y0034600D01*
X0208885Y0034600D01*
X0206600Y0036885D01*
X0206600Y0040115D01*
X0208885Y0042400D01*
X0212115Y0042400D01*
X0214073Y0040442D02*
X0215000Y0040442D01*
X0215000Y0039443D02*
X0214400Y0039443D01*
X0214400Y0038445D02*
X0215000Y0038445D01*
X0215000Y0037446D02*
X0214400Y0037446D01*
X0213963Y0036448D02*
X0215000Y0036448D01*
X0215000Y0035449D02*
X0212965Y0035449D01*
X0208035Y0035449D02*
X0197965Y0035449D01*
X0198963Y0036448D02*
X0207037Y0036448D01*
X0206600Y0037446D02*
X0199400Y0037446D01*
X0199400Y0038445D02*
X0206600Y0038445D01*
X0206600Y0039443D02*
X0199400Y0039443D01*
X0199073Y0040442D02*
X0206927Y0040442D01*
X0207925Y0041440D02*
X0198075Y0041440D01*
X0197938Y0053423D02*
X0208062Y0053423D01*
X0208885Y0052600D02*
X0206600Y0054885D01*
X0206600Y0058115D01*
X0208885Y0060400D01*
X0212115Y0060400D01*
X0214400Y0058115D01*
X0214400Y0054885D01*
X0212115Y0052600D01*
X0208885Y0052600D01*
X0207063Y0054421D02*
X0198937Y0054421D01*
X0199400Y0055420D02*
X0206600Y0055420D01*
X0206600Y0056418D02*
X0199400Y0056418D01*
X0199400Y0057417D02*
X0206600Y0057417D01*
X0206900Y0058415D02*
X0199100Y0058415D01*
X0198102Y0059414D02*
X0207898Y0059414D01*
X0213102Y0059414D02*
X0215000Y0059414D01*
X0215000Y0060412D02*
X0194275Y0060412D01*
X0193276Y0061411D02*
X0215000Y0061411D01*
X0215000Y0062409D02*
X0192278Y0062409D01*
X0191279Y0063408D02*
X0215000Y0063408D01*
X0215000Y0064406D02*
X0190281Y0064406D01*
X0189282Y0065405D02*
X0215000Y0065405D01*
X0215000Y0066403D02*
X0188284Y0066403D01*
X0187285Y0067402D02*
X0215000Y0067402D01*
X0215000Y0068400D02*
X0186287Y0068400D01*
X0185288Y0069399D02*
X0215000Y0069399D01*
X0215000Y0070397D02*
X0184290Y0070397D01*
X0181911Y0067402D02*
X0169285Y0067402D01*
X0168600Y0068400D02*
X0180913Y0068400D01*
X0179914Y0069399D02*
X0168600Y0069399D01*
X0168600Y0070397D02*
X0178916Y0070397D01*
X0177917Y0071396D02*
X0168600Y0071396D01*
X0168600Y0072394D02*
X0176919Y0072394D01*
X0175920Y0073393D02*
X0168600Y0073393D01*
X0168600Y0074391D02*
X0174922Y0074391D01*
X0173923Y0075390D02*
X0168600Y0075390D01*
X0168600Y0076388D02*
X0172925Y0076388D01*
X0171926Y0077387D02*
X0168600Y0077387D01*
X0168600Y0078385D02*
X0170928Y0078385D01*
X0169929Y0079384D02*
X0168600Y0079384D01*
X0168600Y0080382D02*
X0168931Y0080382D01*
X0162600Y0077387D02*
X0112780Y0077387D01*
X0112779Y0078385D02*
X0111780Y0078385D01*
X0111779Y0077387D02*
X0106781Y0077387D01*
X0103681Y0077000D02*
X0102433Y0075752D01*
X0098437Y0075752D01*
X0105900Y0068789D01*
X0106111Y0069000D02*
X0109681Y0069000D01*
X0112781Y0069399D02*
X0117779Y0069399D01*
X0117779Y0069500D02*
X0117779Y0068500D01*
X0114780Y0068500D01*
X0114780Y0066303D01*
X0114882Y0065921D01*
X0115079Y0065579D01*
X0115359Y0065300D01*
X0115701Y0065102D01*
X0116082Y0065000D01*
X0117780Y0065000D01*
X0117780Y0068500D01*
X0118779Y0068500D01*
X0118779Y0065000D01*
X0120477Y0065000D01*
X0120859Y0065102D01*
X0121201Y0065300D01*
X0121480Y0065579D01*
X0121677Y0065921D01*
X0121780Y0066303D01*
X0121780Y0068500D01*
X0118780Y0068500D01*
X0118780Y0069500D01*
X0121780Y0069500D01*
X0121780Y0071697D01*
X0121677Y0072079D01*
X0121480Y0072421D01*
X0121201Y0072700D01*
X0120859Y0072898D01*
X0120477Y0073000D01*
X0118779Y0073000D01*
X0118779Y0069500D01*
X0117780Y0069500D01*
X0117780Y0073000D01*
X0116082Y0073000D01*
X0115701Y0072898D01*
X0115359Y0072700D01*
X0115079Y0072421D01*
X0114882Y0072079D01*
X0114780Y0071697D01*
X0114780Y0069500D01*
X0117779Y0069500D01*
X0117780Y0070397D02*
X0118779Y0070397D01*
X0118780Y0069399D02*
X0162600Y0069399D01*
X0162600Y0070397D02*
X0121780Y0070397D01*
X0121780Y0071396D02*
X0162600Y0071396D01*
X0162600Y0072394D02*
X0121495Y0072394D01*
X0118779Y0072394D02*
X0117780Y0072394D01*
X0117780Y0071396D02*
X0118779Y0071396D01*
X0118779Y0068400D02*
X0117780Y0068400D01*
X0117780Y0067402D02*
X0118779Y0067402D01*
X0118779Y0066403D02*
X0117780Y0066403D01*
X0117780Y0065405D02*
X0118779Y0065405D01*
X0121306Y0065405D02*
X0162600Y0065405D01*
X0162600Y0066403D02*
X0121780Y0066403D01*
X0121780Y0067402D02*
X0162600Y0067402D01*
X0162600Y0068400D02*
X0121780Y0068400D01*
X0115253Y0065405D02*
X0112141Y0065405D01*
X0112781Y0066403D02*
X0114780Y0066403D01*
X0114780Y0067402D02*
X0112781Y0067402D01*
X0112781Y0068400D02*
X0114780Y0068400D01*
X0114780Y0070397D02*
X0112781Y0070397D01*
X0112781Y0071396D02*
X0114780Y0071396D01*
X0115064Y0072394D02*
X0112342Y0072394D01*
X0112779Y0073393D02*
X0111780Y0073393D01*
X0111780Y0074391D02*
X0112779Y0074391D01*
X0112779Y0075390D02*
X0111780Y0075390D01*
X0111780Y0076388D02*
X0112779Y0076388D01*
X0112779Y0079384D02*
X0111780Y0079384D01*
X0111780Y0080382D02*
X0112779Y0080382D01*
X0115502Y0080382D02*
X0126411Y0080382D01*
X0126660Y0079384D02*
X0115780Y0079384D01*
X0115780Y0078385D02*
X0127453Y0078385D01*
X0130782Y0082379D02*
X0145117Y0082379D01*
X0162600Y0076388D02*
X0115780Y0076388D01*
X0115780Y0075390D02*
X0162600Y0075390D01*
X0162600Y0074391D02*
X0115780Y0074391D01*
X0115294Y0073393D02*
X0162600Y0073393D01*
X0162600Y0064406D02*
X0107500Y0064406D01*
X0107500Y0063408D02*
X0162600Y0063408D01*
X0162600Y0062409D02*
X0107500Y0062409D01*
X0109500Y0058780D02*
X0109500Y0056237D01*
X0113100Y0052637D01*
X0113100Y0051219D01*
X0117000Y0047319D01*
X0120600Y0047432D02*
X0165881Y0047432D01*
X0164883Y0048430D02*
X0120600Y0048430D01*
X0120600Y0049429D02*
X0163884Y0049429D01*
X0162886Y0050427D02*
X0129679Y0050427D01*
X0129677Y0050421D02*
X0129780Y0050803D01*
X0129780Y0053000D01*
X0126780Y0053000D01*
X0126780Y0054000D01*
X0129780Y0054000D01*
X0129780Y0056197D01*
X0129677Y0056579D01*
X0129480Y0056921D01*
X0129201Y0057200D01*
X0128859Y0057398D01*
X0128477Y0057500D01*
X0126779Y0057500D01*
X0126779Y0054000D01*
X0125780Y0054000D01*
X0125780Y0057500D01*
X0124082Y0057500D01*
X0123701Y0057398D01*
X0123359Y0057200D01*
X0123079Y0056921D01*
X0122882Y0056579D01*
X0122780Y0056197D01*
X0122780Y0054000D01*
X0125779Y0054000D01*
X0125779Y0053000D01*
X0122780Y0053000D01*
X0122780Y0050803D01*
X0122882Y0050421D01*
X0123079Y0050079D01*
X0123359Y0049800D01*
X0123701Y0049602D01*
X0124082Y0049500D01*
X0125780Y0049500D01*
X0125780Y0053000D01*
X0126779Y0053000D01*
X0126779Y0049500D01*
X0128477Y0049500D01*
X0128859Y0049602D01*
X0129201Y0049800D01*
X0129480Y0050079D01*
X0129677Y0050421D01*
X0129780Y0051426D02*
X0162600Y0051426D01*
X0162600Y0052424D02*
X0129780Y0052424D01*
X0129780Y0054421D02*
X0162600Y0054421D01*
X0162600Y0053423D02*
X0126780Y0053423D01*
X0126779Y0054421D02*
X0125780Y0054421D01*
X0125779Y0053423D02*
X0120781Y0053423D01*
X0120781Y0054421D02*
X0122780Y0054421D01*
X0122780Y0055420D02*
X0120781Y0055420D01*
X0120781Y0056418D02*
X0122839Y0056418D01*
X0123771Y0057417D02*
X0113100Y0057417D01*
X0113100Y0058415D02*
X0162600Y0058415D01*
X0162600Y0057417D02*
X0128788Y0057417D01*
X0129720Y0056418D02*
X0162600Y0056418D01*
X0162600Y0055420D02*
X0129780Y0055420D01*
X0126779Y0055420D02*
X0125780Y0055420D01*
X0125780Y0056418D02*
X0126779Y0056418D01*
X0126779Y0057417D02*
X0125780Y0057417D01*
X0125780Y0052424D02*
X0126779Y0052424D01*
X0126779Y0051426D02*
X0125780Y0051426D01*
X0125780Y0050427D02*
X0126779Y0050427D01*
X0122880Y0050427D02*
X0120664Y0050427D01*
X0120781Y0051426D02*
X0122780Y0051426D01*
X0122780Y0052424D02*
X0120781Y0052424D01*
X0117681Y0053319D02*
X0117500Y0054000D01*
X0117500Y0053681D01*
X0117681Y0053500D01*
X0117681Y0053319D01*
X0114581Y0053423D02*
X0114577Y0053423D01*
X0114581Y0054421D02*
X0113578Y0054421D01*
X0112580Y0055420D02*
X0114581Y0055420D01*
X0114581Y0056418D02*
X0113100Y0056418D01*
X0113100Y0059414D02*
X0162600Y0059414D01*
X0162600Y0060412D02*
X0113100Y0060412D01*
X0112924Y0061411D02*
X0162600Y0061411D01*
X0166880Y0046433D02*
X0120600Y0046433D01*
X0120600Y0045434D02*
X0167878Y0045434D01*
X0168877Y0044436D02*
X0120173Y0044436D01*
X0120336Y0041440D02*
X0171873Y0041440D01*
X0172871Y0040442D02*
X0134870Y0040442D01*
X0133130Y0040442D02*
X0120600Y0040442D01*
X0120600Y0036448D02*
X0131891Y0036448D01*
X0135500Y0038000D02*
X0151500Y0022000D01*
X0153490Y0014481D02*
X0114305Y0014481D01*
X0118242Y0011485D02*
X0120495Y0011485D01*
X0119496Y0010487D02*
X0119061Y0010487D01*
X0110000Y0017476D02*
X0102500Y0017476D01*
X0102500Y0016478D02*
X0101500Y0016478D01*
X0101500Y0017476D02*
X0091956Y0017476D01*
X0090500Y0019500D02*
X0090319Y0019500D01*
X0085177Y0019500D01*
X0082577Y0016900D01*
X0070261Y0016900D01*
X0059220Y0027941D01*
X0057076Y0029458D02*
X0027400Y0029458D01*
X0027400Y0028460D02*
X0056633Y0028460D01*
X0056631Y0027461D02*
X0027400Y0027461D01*
X0027400Y0026463D02*
X0057037Y0026463D01*
X0058434Y0025464D02*
X0027400Y0025464D01*
X0027400Y0024466D02*
X0060433Y0024466D01*
X0061431Y0023467D02*
X0028048Y0023467D01*
X0029047Y0022469D02*
X0062430Y0022469D01*
X0063428Y0021470D02*
X0029400Y0021470D01*
X0029400Y0020472D02*
X0064427Y0020472D01*
X0065425Y0019473D02*
X0029400Y0019473D01*
X0028990Y0018475D02*
X0066424Y0018475D01*
X0067422Y0017476D02*
X0027992Y0017476D01*
X0023008Y0017476D02*
X0012992Y0017476D01*
X0012115Y0016600D02*
X0008885Y0016600D01*
X0006600Y0018885D01*
X0006600Y0022115D01*
X0008885Y0024400D01*
X0012115Y0024400D01*
X0014400Y0022115D01*
X0014400Y0018885D01*
X0012115Y0016600D01*
X0013990Y0018475D02*
X0022010Y0018475D01*
X0021600Y0019473D02*
X0014400Y0019473D01*
X0014400Y0020472D02*
X0021600Y0020472D01*
X0021600Y0021470D02*
X0014400Y0021470D01*
X0014047Y0022469D02*
X0021953Y0022469D01*
X0022952Y0023467D02*
X0013048Y0023467D01*
X0007952Y0023467D02*
X0006000Y0023467D01*
X0006000Y0022469D02*
X0006953Y0022469D01*
X0006600Y0021470D02*
X0006000Y0021470D01*
X0006000Y0020472D02*
X0006600Y0020472D01*
X0006600Y0019473D02*
X0006000Y0019473D01*
X0006000Y0018475D02*
X0007010Y0018475D01*
X0008008Y0017476D02*
X0006000Y0017476D01*
X0006000Y0016478D02*
X0068421Y0016478D01*
X0069420Y0015479D02*
X0006000Y0015479D01*
X0006000Y0014481D02*
X0098195Y0014481D01*
X0098219Y0013482D02*
X0006000Y0013482D01*
X0006000Y0012484D02*
X0024534Y0012484D01*
X0026466Y0012484D02*
X0034534Y0012484D01*
X0036466Y0012484D02*
X0044534Y0012484D01*
X0046466Y0012484D02*
X0054534Y0012484D01*
X0056466Y0012484D02*
X0064534Y0012484D01*
X0066466Y0012484D02*
X0074534Y0012484D01*
X0076466Y0012484D02*
X0084534Y0012484D01*
X0086466Y0012484D02*
X0094534Y0012484D01*
X0096466Y0012484D02*
X0097221Y0012484D01*
X0099474Y0009488D02*
X0101050Y0009488D01*
X0101050Y0010487D02*
X0099749Y0010487D01*
X0099466Y0007491D02*
X0101050Y0007491D01*
X0101050Y0006493D02*
X0099052Y0006493D01*
X0091948Y0006493D02*
X0089052Y0006493D01*
X0089466Y0007491D02*
X0091534Y0007491D01*
X0091450Y0008490D02*
X0089550Y0008490D01*
X0089474Y0009488D02*
X0091526Y0009488D01*
X0091939Y0010487D02*
X0089061Y0010487D01*
X0088242Y0011485D02*
X0092758Y0011485D01*
X0098000Y0015479D02*
X0083419Y0015479D01*
X0084417Y0016478D02*
X0098000Y0016478D01*
X0101500Y0015479D02*
X0102500Y0015479D01*
X0102500Y0014481D02*
X0101500Y0014481D01*
X0105805Y0014481D02*
X0106695Y0014481D01*
X0106500Y0015479D02*
X0106000Y0015479D01*
X0106000Y0016478D02*
X0106500Y0016478D01*
X0114500Y0018475D02*
X0177263Y0018475D01*
X0176264Y0019473D02*
X0114485Y0019473D01*
X0106900Y0026463D02*
X0105600Y0026463D01*
X0105905Y0027461D02*
X0106900Y0027461D01*
X0106904Y0028460D02*
X0107085Y0028460D01*
X0096097Y0036448D02*
X0033844Y0036448D01*
X0034843Y0037446D02*
X0079215Y0037446D01*
X0079300Y0037299D02*
X0079579Y0037020D01*
X0079921Y0036823D01*
X0080303Y0036720D01*
X0082500Y0036720D01*
X0082500Y0039720D01*
X0083500Y0039720D01*
X0083500Y0036720D01*
X0085697Y0036720D01*
X0086079Y0036823D01*
X0086421Y0037020D01*
X0086700Y0037299D01*
X0086898Y0037641D01*
X0087000Y0038023D01*
X0087102Y0037641D01*
X0087300Y0037299D01*
X0087579Y0037020D01*
X0087921Y0036823D01*
X0088303Y0036720D01*
X0090500Y0036720D01*
X0090500Y0039720D01*
X0087000Y0039720D01*
X0087000Y0038023D01*
X0087000Y0039720D01*
X0083500Y0039720D01*
X0083500Y0040720D01*
X0087000Y0040720D01*
X0087000Y0042418D01*
X0086898Y0042799D01*
X0086700Y0043141D01*
X0086421Y0043421D01*
X0086079Y0043618D01*
X0085697Y0043720D01*
X0083500Y0043720D01*
X0083500Y0040721D01*
X0082500Y0040721D01*
X0082500Y0043720D01*
X0080303Y0043720D01*
X0079921Y0043618D01*
X0079579Y0043421D01*
X0079300Y0043141D01*
X0079102Y0042799D01*
X0079000Y0042418D01*
X0079000Y0040720D01*
X0082500Y0040720D01*
X0082500Y0039720D01*
X0079000Y0039720D01*
X0079000Y0038023D01*
X0079102Y0037641D01*
X0079300Y0037299D01*
X0079000Y0038445D02*
X0035841Y0038445D01*
X0036840Y0039443D02*
X0079000Y0039443D01*
X0079000Y0041440D02*
X0038837Y0041440D01*
X0037838Y0040442D02*
X0082500Y0040442D01*
X0082500Y0041440D02*
X0083500Y0041440D01*
X0083500Y0040442D02*
X0090500Y0040442D01*
X0090500Y0041440D02*
X0091500Y0041440D01*
X0091500Y0040442D02*
X0094996Y0040442D01*
X0095000Y0039443D02*
X0095676Y0039443D01*
X0095676Y0038445D02*
X0095000Y0038445D01*
X0094785Y0037446D02*
X0095676Y0037446D01*
X0097976Y0039724D02*
X0091000Y0046701D01*
X0091000Y0048819D01*
X0091142Y0048819D01*
X0095923Y0053600D01*
X0097600Y0053600D01*
X0098500Y0054500D01*
X0098500Y0057185D01*
X0098437Y0057248D01*
X0100100Y0057417D02*
X0102684Y0057417D01*
X0102684Y0058415D02*
X0100029Y0058415D01*
X0100029Y0059414D02*
X0102684Y0059414D01*
X0102684Y0060412D02*
X0099018Y0060412D01*
X0100572Y0061411D02*
X0102684Y0061411D01*
X0102684Y0062409D02*
X0101058Y0062409D01*
X0101089Y0063408D02*
X0102684Y0063408D01*
X0102684Y0064406D02*
X0100720Y0064406D01*
X0099460Y0065405D02*
X0102684Y0065405D01*
X0102684Y0066403D02*
X0094721Y0066403D01*
X0094937Y0067402D02*
X0094137Y0067402D01*
X0094131Y0068400D02*
X0094153Y0068400D01*
X0092531Y0067031D02*
X0092500Y0065000D01*
X0092531Y0067031D02*
X0092531Y0075752D01*
X0090563Y0075752D02*
X0090563Y0074063D01*
X0088000Y0071500D01*
X0086231Y0073393D02*
X0054800Y0073393D01*
X0054800Y0074391D02*
X0088629Y0074391D01*
X0088963Y0075390D02*
X0054800Y0075390D01*
X0054800Y0076388D02*
X0088963Y0076388D01*
X0088971Y0077387D02*
X0054800Y0077387D01*
X0054800Y0078385D02*
X0089180Y0078385D01*
X0090597Y0079384D02*
X0092879Y0079384D01*
X0092719Y0080382D02*
X0090720Y0080382D01*
X0090720Y0081381D02*
X0092719Y0081381D01*
X0092719Y0082379D02*
X0087721Y0082379D01*
X0087720Y0081381D02*
X0086720Y0081381D01*
X0086720Y0082379D02*
X0054800Y0082379D01*
X0054800Y0081381D02*
X0083720Y0081381D01*
X0083720Y0080382D02*
X0054800Y0080382D01*
X0054800Y0079384D02*
X0083844Y0079384D01*
X0083720Y0083000D02*
X0086720Y0083000D01*
X0086720Y0086500D01*
X0085023Y0086500D01*
X0084641Y0086398D01*
X0084299Y0086200D01*
X0084020Y0085921D01*
X0083823Y0085579D01*
X0083720Y0085197D01*
X0083720Y0083000D01*
X0083720Y0083378D02*
X0054800Y0083378D01*
X0054800Y0084376D02*
X0083720Y0084376D01*
X0083768Y0085375D02*
X0054800Y0085375D01*
X0054800Y0086373D02*
X0084599Y0086373D01*
X0086720Y0086373D02*
X0087720Y0086373D01*
X0087720Y0085375D02*
X0086720Y0085375D01*
X0086720Y0084376D02*
X0087720Y0084376D01*
X0087720Y0083378D02*
X0086720Y0083378D01*
X0090720Y0083378D02*
X0092719Y0083378D01*
X0092719Y0084376D02*
X0090720Y0084376D01*
X0090673Y0085375D02*
X0092719Y0085375D01*
X0092164Y0086373D02*
X0089842Y0086373D01*
X0091911Y0087372D02*
X0054800Y0087372D01*
X0054800Y0088370D02*
X0092058Y0088370D01*
X0092708Y0089369D02*
X0054800Y0089369D01*
X0054800Y0090368D02*
X0092900Y0090368D01*
X0092900Y0091366D02*
X0054800Y0091366D01*
X0048800Y0076388D02*
X0048075Y0076388D01*
X0048800Y0075390D02*
X0047077Y0075390D01*
X0046078Y0074391D02*
X0048800Y0074391D01*
X0048800Y0073393D02*
X0045080Y0073393D01*
X0044081Y0072394D02*
X0048800Y0072394D01*
X0048800Y0071396D02*
X0043083Y0071396D01*
X0042084Y0070397D02*
X0048800Y0070397D01*
X0048800Y0069399D02*
X0041086Y0069399D01*
X0040087Y0068400D02*
X0048800Y0068400D01*
X0048800Y0067402D02*
X0039089Y0067402D01*
X0038090Y0066403D02*
X0048800Y0066403D01*
X0048800Y0065405D02*
X0037092Y0065405D01*
X0036093Y0064406D02*
X0048719Y0064406D01*
X0047721Y0063408D02*
X0035095Y0063408D01*
X0034096Y0062409D02*
X0046722Y0062409D01*
X0045724Y0061411D02*
X0033098Y0061411D01*
X0032099Y0060412D02*
X0044725Y0060412D01*
X0043727Y0059414D02*
X0031101Y0059414D01*
X0030102Y0058415D02*
X0042728Y0058415D01*
X0041730Y0057417D02*
X0029400Y0057417D01*
X0029400Y0056418D02*
X0040731Y0056418D01*
X0039733Y0055420D02*
X0029400Y0055420D01*
X0028937Y0054421D02*
X0038734Y0054421D01*
X0037736Y0053423D02*
X0027938Y0053423D01*
X0023062Y0053423D02*
X0012938Y0053423D01*
X0012115Y0052600D02*
X0014400Y0054885D01*
X0014400Y0058115D01*
X0012115Y0060400D01*
X0008885Y0060400D01*
X0006600Y0058115D01*
X0006600Y0054885D01*
X0008885Y0052600D01*
X0012115Y0052600D01*
X0013937Y0054421D02*
X0022063Y0054421D01*
X0021600Y0055420D02*
X0014400Y0055420D01*
X0014400Y0056418D02*
X0021600Y0056418D01*
X0021600Y0057417D02*
X0014400Y0057417D01*
X0014100Y0058415D02*
X0021900Y0058415D01*
X0022898Y0059414D02*
X0013102Y0059414D01*
X0007898Y0059414D02*
X0006000Y0059414D01*
X0006000Y0060412D02*
X0026725Y0060412D01*
X0027724Y0061411D02*
X0006000Y0061411D01*
X0006000Y0062409D02*
X0028722Y0062409D01*
X0029721Y0063408D02*
X0006000Y0063408D01*
X0006000Y0064406D02*
X0030719Y0064406D01*
X0031718Y0065405D02*
X0006000Y0065405D01*
X0006000Y0066403D02*
X0032716Y0066403D01*
X0033715Y0067402D02*
X0006000Y0067402D01*
X0006000Y0068400D02*
X0034713Y0068400D01*
X0035712Y0069399D02*
X0006000Y0069399D01*
X0006000Y0070397D02*
X0036710Y0070397D01*
X0054800Y0070397D02*
X0085654Y0070397D01*
X0085411Y0071396D02*
X0054800Y0071396D01*
X0054800Y0072394D02*
X0085568Y0072394D01*
X0086440Y0069399D02*
X0054800Y0069399D01*
X0054800Y0068400D02*
X0090931Y0068400D01*
X0090931Y0067402D02*
X0054800Y0067402D01*
X0054800Y0066403D02*
X0090279Y0066403D01*
X0089911Y0065405D02*
X0054800Y0065405D01*
X0054800Y0064406D02*
X0089944Y0064406D01*
X0090431Y0063408D02*
X0054800Y0063408D01*
X0054800Y0062409D02*
X0095646Y0062409D01*
X0095911Y0063408D02*
X0094569Y0063408D01*
X0095056Y0064406D02*
X0096280Y0064406D01*
X0095089Y0065405D02*
X0097540Y0065405D01*
X0098063Y0067402D02*
X0102684Y0067402D01*
X0101626Y0068400D02*
X0098847Y0068400D01*
X0099089Y0069399D02*
X0100556Y0069399D01*
X0099485Y0070397D02*
X0098931Y0070397D01*
X0099380Y0072683D02*
X0104284Y0068109D01*
X0104284Y0052316D01*
X0104300Y0052300D01*
X0103820Y0051820D01*
X0103820Y0047105D01*
X0103175Y0046461D01*
X0098461Y0046461D01*
X0097000Y0045000D01*
X0096105Y0047432D02*
X0094600Y0047432D01*
X0095533Y0047195D02*
X0094805Y0046467D01*
X0094422Y0045541D01*
X0094100Y0045863D01*
X0094600Y0046363D01*
X0094600Y0050014D01*
X0096586Y0052000D01*
X0098263Y0052000D01*
X0098820Y0052557D01*
X0098820Y0050061D01*
X0101420Y0050061D01*
X0101420Y0049861D01*
X0098820Y0049861D01*
X0098820Y0048061D01*
X0097798Y0048061D01*
X0097326Y0047589D01*
X0096485Y0047589D01*
X0095533Y0047195D01*
X0094791Y0046433D02*
X0094600Y0046433D01*
X0094600Y0048430D02*
X0098820Y0048430D01*
X0098820Y0049429D02*
X0094600Y0049429D01*
X0095013Y0050427D02*
X0098820Y0050427D01*
X0098820Y0051426D02*
X0096011Y0051426D01*
X0098687Y0052424D02*
X0098820Y0052424D01*
X0100100Y0054421D02*
X0102684Y0054421D01*
X0102684Y0055420D02*
X0100100Y0055420D01*
X0100100Y0056418D02*
X0102684Y0056418D01*
X0101620Y0053423D02*
X0101420Y0053423D01*
X0101420Y0052424D02*
X0101620Y0052424D01*
X0101620Y0051426D02*
X0101420Y0051426D01*
X0101420Y0050427D02*
X0101620Y0050427D01*
X0105420Y0050427D02*
X0105900Y0050427D01*
X0105900Y0049429D02*
X0105420Y0049429D01*
X0105420Y0048430D02*
X0105900Y0048430D01*
X0106194Y0047432D02*
X0105420Y0047432D01*
X0105410Y0046433D02*
X0109584Y0046433D01*
X0109411Y0045434D02*
X0104412Y0045434D01*
X0102763Y0042439D02*
X0100276Y0042439D01*
X0100276Y0041440D02*
X0102763Y0041440D01*
X0102763Y0040442D02*
X0100276Y0040442D01*
X0099099Y0043437D02*
X0107675Y0043437D01*
X0108673Y0044436D02*
X0099569Y0044436D01*
X0091500Y0043437D02*
X0090500Y0043437D01*
X0090500Y0042439D02*
X0091500Y0042439D01*
X0091002Y0044436D02*
X0041832Y0044436D01*
X0040834Y0043437D02*
X0079608Y0043437D01*
X0079006Y0042439D02*
X0039835Y0042439D01*
X0042831Y0045434D02*
X0090004Y0045434D01*
X0087400Y0046433D02*
X0086600Y0046433D01*
X0086392Y0043437D02*
X0087608Y0043437D01*
X0087006Y0042439D02*
X0086994Y0042439D01*
X0087000Y0041440D02*
X0087000Y0041440D01*
X0090500Y0039443D02*
X0091500Y0039443D01*
X0091500Y0038445D02*
X0090500Y0038445D01*
X0090500Y0037446D02*
X0091500Y0037446D01*
X0087215Y0037446D02*
X0086785Y0037446D01*
X0083500Y0037446D02*
X0082500Y0037446D01*
X0082500Y0038445D02*
X0083500Y0038445D01*
X0083500Y0039443D02*
X0082500Y0039443D01*
X0082500Y0042439D02*
X0083500Y0042439D01*
X0083500Y0043437D02*
X0082500Y0043437D01*
X0079400Y0046433D02*
X0043829Y0046433D01*
X0044828Y0047432D02*
X0079400Y0047432D01*
X0079400Y0048430D02*
X0045826Y0048430D01*
X0046825Y0049429D02*
X0079400Y0049429D01*
X0079400Y0050427D02*
X0047823Y0050427D01*
X0048822Y0051426D02*
X0079551Y0051426D01*
X0083000Y0048819D02*
X0091000Y0048819D01*
X0092484Y0052424D02*
X0049820Y0052424D01*
X0050819Y0053423D02*
X0093483Y0053423D01*
X0092532Y0054421D02*
X0092531Y0054421D01*
X0090563Y0054421D02*
X0090563Y0054421D01*
X0090563Y0054994D02*
X0090563Y0053780D01*
X0090563Y0054994D01*
X0090563Y0054994D01*
X0088834Y0054421D02*
X0051817Y0054421D01*
X0052816Y0055420D02*
X0088571Y0055420D01*
X0088571Y0056418D02*
X0053814Y0056418D01*
X0054800Y0057417D02*
X0088571Y0057417D01*
X0088571Y0057248D02*
X0090563Y0057248D01*
X0090563Y0057248D01*
X0092531Y0057248D01*
X0090563Y0057248D01*
X0088571Y0057248D01*
X0088571Y0058415D02*
X0054800Y0058415D01*
X0054800Y0059414D02*
X0088571Y0059414D01*
X0089145Y0060412D02*
X0054800Y0060412D01*
X0054800Y0061411D02*
X0094869Y0061411D01*
X0094500Y0060717D02*
X0094500Y0059502D01*
X0094500Y0059502D01*
X0094500Y0060717D01*
X0094500Y0060412D02*
X0094500Y0060412D01*
X0092532Y0060412D02*
X0092531Y0060412D01*
X0090563Y0060412D02*
X0090563Y0060412D01*
X0090563Y0060717D02*
X0090563Y0059502D01*
X0090563Y0059502D01*
X0090563Y0060717D01*
X0090563Y0057248D02*
X0090563Y0057248D01*
X0092531Y0057248D02*
X0092531Y0057248D01*
X0092532Y0057248D02*
X0092555Y0057248D01*
X0094500Y0057248D01*
X0092532Y0057248D01*
X0092532Y0057248D01*
X0094500Y0057248D02*
X0094500Y0057248D01*
X0096469Y0057248D02*
X0096469Y0060969D01*
X0098500Y0063000D01*
X0096500Y0069500D02*
X0094500Y0071500D01*
X0094500Y0075752D01*
X0096469Y0075752D02*
X0096837Y0075383D01*
X0096837Y0073336D01*
X0097489Y0072683D01*
X0099380Y0072683D01*
X0103311Y0073393D02*
X0109265Y0073393D01*
X0101819Y0082500D02*
X0102500Y0083181D01*
X0101819Y0082500D02*
X0096570Y0082500D01*
X0096469Y0082398D01*
X0096469Y0075752D01*
X0096969Y0082102D02*
X0096570Y0082500D01*
X0095819Y0082500D01*
X0094500Y0087500D02*
X0094500Y0097000D01*
X0086500Y0105000D01*
X0086500Y0109500D01*
X0086720Y0080382D02*
X0087720Y0080382D01*
X0087720Y0079384D02*
X0086720Y0079384D01*
X0090589Y0071396D02*
X0090931Y0071396D01*
X0090931Y0070397D02*
X0090346Y0070397D01*
X0090931Y0069399D02*
X0089560Y0069399D01*
X0105884Y0053423D02*
X0106539Y0053423D01*
X0105900Y0052424D02*
X0105900Y0052424D01*
X0105900Y0051426D02*
X0105688Y0051426D01*
X0087551Y0051426D02*
X0086449Y0051426D01*
X0086600Y0050427D02*
X0087400Y0050427D01*
X0088628Y0021470D02*
X0067954Y0021470D01*
X0068952Y0020472D02*
X0083886Y0020472D01*
X0082887Y0019473D02*
X0069951Y0019473D01*
X0068242Y0011485D02*
X0072758Y0011485D01*
X0071939Y0010487D02*
X0069061Y0010487D01*
X0069474Y0009488D02*
X0071526Y0009488D01*
X0071450Y0008490D02*
X0069550Y0008490D01*
X0069466Y0007491D02*
X0071534Y0007491D01*
X0071948Y0006493D02*
X0069052Y0006493D01*
X0062758Y0011485D02*
X0058242Y0011485D01*
X0059061Y0010487D02*
X0061939Y0010487D01*
X0061526Y0009488D02*
X0059474Y0009488D01*
X0059550Y0008490D02*
X0061450Y0008490D01*
X0061534Y0007491D02*
X0059466Y0007491D01*
X0059052Y0006493D02*
X0061948Y0006493D01*
X0051948Y0006493D02*
X0049052Y0006493D01*
X0049466Y0007491D02*
X0051534Y0007491D01*
X0051450Y0008490D02*
X0049550Y0008490D01*
X0049474Y0009488D02*
X0051526Y0009488D01*
X0051939Y0010487D02*
X0049061Y0010487D01*
X0048242Y0011485D02*
X0052758Y0011485D01*
X0042758Y0011485D02*
X0038242Y0011485D01*
X0039061Y0010487D02*
X0041939Y0010487D01*
X0041526Y0009488D02*
X0039474Y0009488D01*
X0039550Y0008490D02*
X0041450Y0008490D01*
X0041534Y0007491D02*
X0039466Y0007491D01*
X0039052Y0006493D02*
X0041948Y0006493D01*
X0031948Y0006493D02*
X0029052Y0006493D01*
X0029466Y0007491D02*
X0031534Y0007491D01*
X0031450Y0008490D02*
X0029550Y0008490D01*
X0029474Y0009488D02*
X0031526Y0009488D01*
X0031939Y0010487D02*
X0029061Y0010487D01*
X0028242Y0011485D02*
X0032758Y0011485D01*
X0022758Y0011485D02*
X0006000Y0011485D01*
X0006000Y0010487D02*
X0021939Y0010487D01*
X0021526Y0009488D02*
X0006000Y0009488D01*
X0006000Y0008490D02*
X0021450Y0008490D01*
X0021534Y0007491D02*
X0006000Y0007491D01*
X0006000Y0006493D02*
X0021948Y0006493D01*
X0023600Y0024466D02*
X0006000Y0024466D01*
X0006000Y0025464D02*
X0023600Y0025464D01*
X0023600Y0026463D02*
X0006000Y0026463D01*
X0006000Y0027461D02*
X0023600Y0027461D01*
X0023600Y0028460D02*
X0006000Y0028460D01*
X0006000Y0029458D02*
X0023600Y0029458D01*
X0023600Y0030457D02*
X0006000Y0030457D01*
X0006000Y0031455D02*
X0023600Y0031455D01*
X0024476Y0032454D02*
X0006000Y0032454D01*
X0006000Y0033452D02*
X0025475Y0033452D01*
X0026473Y0034451D02*
X0006000Y0034451D01*
X0006000Y0035449D02*
X0008035Y0035449D01*
X0008885Y0034600D02*
X0012115Y0034600D01*
X0014400Y0036885D01*
X0014400Y0040115D01*
X0012115Y0042400D01*
X0008885Y0042400D01*
X0006600Y0040115D01*
X0006600Y0036885D01*
X0008885Y0034600D01*
X0007037Y0036448D02*
X0006000Y0036448D01*
X0006000Y0037446D02*
X0006600Y0037446D01*
X0006600Y0038445D02*
X0006000Y0038445D01*
X0006000Y0039443D02*
X0006600Y0039443D01*
X0006927Y0040442D02*
X0006000Y0040442D01*
X0006000Y0041440D02*
X0007925Y0041440D01*
X0006000Y0042439D02*
X0026752Y0042439D01*
X0027750Y0043437D02*
X0006000Y0043437D01*
X0006000Y0044436D02*
X0028749Y0044436D01*
X0029748Y0045434D02*
X0006000Y0045434D01*
X0006000Y0046433D02*
X0030746Y0046433D01*
X0031745Y0047432D02*
X0006000Y0047432D01*
X0006000Y0048430D02*
X0032743Y0048430D01*
X0033742Y0049429D02*
X0006000Y0049429D01*
X0006000Y0050427D02*
X0034740Y0050427D01*
X0035739Y0051426D02*
X0006000Y0051426D01*
X0006000Y0052424D02*
X0036737Y0052424D01*
X0022925Y0041440D02*
X0013075Y0041440D01*
X0014073Y0040442D02*
X0021927Y0040442D01*
X0021600Y0039443D02*
X0014400Y0039443D01*
X0014400Y0038445D02*
X0021600Y0038445D01*
X0021600Y0037446D02*
X0014400Y0037446D01*
X0013963Y0036448D02*
X0022037Y0036448D01*
X0023035Y0035449D02*
X0012965Y0035449D01*
X0008062Y0053423D02*
X0006000Y0053423D01*
X0006000Y0054421D02*
X0007063Y0054421D01*
X0006600Y0055420D02*
X0006000Y0055420D01*
X0006000Y0056418D02*
X0006600Y0056418D01*
X0006600Y0057417D02*
X0006000Y0057417D01*
X0006000Y0058415D02*
X0006900Y0058415D01*
X0006000Y0071396D02*
X0008089Y0071396D01*
X0007090Y0072394D02*
X0006000Y0072394D01*
X0006000Y0073393D02*
X0006600Y0073393D01*
X0006600Y0074391D02*
X0006000Y0074391D01*
X0006000Y0075390D02*
X0006600Y0075390D01*
X0006873Y0076388D02*
X0006000Y0076388D01*
X0006000Y0077387D02*
X0007871Y0077387D01*
X0008870Y0078385D02*
X0006000Y0078385D01*
X0008885Y0088600D02*
X0012115Y0088600D01*
X0014400Y0090885D01*
X0014400Y0094115D01*
X0012115Y0096400D01*
X0008885Y0096400D01*
X0006600Y0094115D01*
X0006600Y0090885D01*
X0008885Y0088600D01*
X0008116Y0089369D02*
X0006000Y0089369D01*
X0006000Y0090368D02*
X0007117Y0090368D01*
X0006600Y0091366D02*
X0006000Y0091366D01*
X0006000Y0092365D02*
X0006600Y0092365D01*
X0006600Y0093363D02*
X0006000Y0093363D01*
X0006000Y0094362D02*
X0006846Y0094362D01*
X0006000Y0095360D02*
X0007845Y0095360D01*
X0008843Y0096359D02*
X0006000Y0096359D01*
X0006000Y0097357D02*
X0032670Y0097357D01*
X0031672Y0096359D02*
X0027157Y0096359D01*
X0028155Y0095360D02*
X0030673Y0095360D01*
X0023843Y0096359D02*
X0012157Y0096359D01*
X0013155Y0095360D02*
X0022845Y0095360D01*
X0021846Y0094362D02*
X0014154Y0094362D01*
X0014400Y0093363D02*
X0021600Y0093363D01*
X0021600Y0092365D02*
X0014400Y0092365D01*
X0014400Y0091366D02*
X0021600Y0091366D01*
X0022117Y0090368D02*
X0013883Y0090368D01*
X0012884Y0089369D02*
X0023116Y0089369D01*
X0023169Y0125315D02*
X0012831Y0125315D01*
X0013829Y0126314D02*
X0022171Y0126314D01*
X0021600Y0127312D02*
X0014400Y0127312D01*
X0014400Y0128311D02*
X0021600Y0128311D01*
X0021600Y0129309D02*
X0014400Y0129309D01*
X0014207Y0130308D02*
X0021793Y0130308D01*
X0022791Y0131306D02*
X0013209Y0131306D01*
X0012210Y0132305D02*
X0023790Y0132305D01*
X0023196Y0143289D02*
X0012804Y0143289D01*
X0013803Y0144287D02*
X0022197Y0144287D01*
X0021600Y0145286D02*
X0014400Y0145286D01*
X0014400Y0146284D02*
X0021600Y0146284D01*
X0021600Y0147283D02*
X0014400Y0147283D01*
X0014234Y0148281D02*
X0021766Y0148281D01*
X0022764Y0149280D02*
X0013236Y0149280D01*
X0012237Y0150278D02*
X0023600Y0150278D01*
X0027400Y0150278D02*
X0037689Y0150278D01*
X0037689Y0149280D02*
X0028236Y0149280D01*
X0029234Y0148281D02*
X0037689Y0148281D01*
X0037689Y0147283D02*
X0029400Y0147283D01*
X0029400Y0146284D02*
X0037689Y0146284D01*
X0037689Y0145286D02*
X0029400Y0145286D01*
X0028803Y0144287D02*
X0037689Y0144287D01*
X0037689Y0143289D02*
X0027804Y0143289D01*
X0027400Y0151277D02*
X0037689Y0151277D01*
X0037689Y0152275D02*
X0027400Y0152275D01*
X0027400Y0153274D02*
X0037689Y0153274D01*
X0037689Y0154272D02*
X0027400Y0154272D01*
X0027400Y0155271D02*
X0037689Y0155271D01*
X0037689Y0156269D02*
X0027400Y0156269D01*
X0027400Y0157268D02*
X0037689Y0157268D01*
X0037689Y0158266D02*
X0027400Y0158266D01*
X0027400Y0159265D02*
X0037689Y0159265D01*
X0037689Y0160263D02*
X0027400Y0160263D01*
X0027400Y0161262D02*
X0037689Y0161262D01*
X0037689Y0162260D02*
X0027400Y0162260D01*
X0027400Y0163259D02*
X0037689Y0163259D01*
X0037689Y0164257D02*
X0027400Y0164257D01*
X0027400Y0165256D02*
X0037689Y0165256D01*
X0037689Y0166254D02*
X0027400Y0166254D01*
X0027400Y0167253D02*
X0037689Y0167253D01*
X0037689Y0168251D02*
X0027400Y0168251D01*
X0027400Y0169250D02*
X0037689Y0169250D01*
X0037689Y0170248D02*
X0027400Y0170248D01*
X0027400Y0171247D02*
X0037066Y0171247D01*
X0033027Y0172245D02*
X0027973Y0172245D01*
X0028949Y0173244D02*
X0032051Y0173244D01*
X0031637Y0174242D02*
X0029363Y0174242D01*
X0029550Y0175241D02*
X0031450Y0175241D01*
X0031450Y0176239D02*
X0029550Y0176239D01*
X0029164Y0177238D02*
X0031836Y0177238D01*
X0032509Y0178237D02*
X0028491Y0178237D01*
X0191333Y0099354D02*
X0215000Y0099354D01*
X0215000Y0098356D02*
X0192331Y0098356D01*
X0193330Y0097357D02*
X0215000Y0097357D01*
X0215000Y0096359D02*
X0212157Y0096359D01*
X0212115Y0096400D02*
X0208885Y0096400D01*
X0206600Y0094115D01*
X0206600Y0090885D01*
X0208885Y0088600D01*
X0212115Y0088600D01*
X0214400Y0090885D01*
X0214400Y0094115D01*
X0212115Y0096400D01*
X0213155Y0095360D02*
X0215000Y0095360D01*
X0215000Y0094362D02*
X0214154Y0094362D01*
X0214400Y0093363D02*
X0215000Y0093363D01*
X0215000Y0092365D02*
X0214400Y0092365D01*
X0214400Y0091366D02*
X0215000Y0091366D01*
X0215000Y0090368D02*
X0213883Y0090368D01*
X0212884Y0089369D02*
X0215000Y0089369D01*
X0208116Y0089369D02*
X0197884Y0089369D01*
X0198883Y0090368D02*
X0207117Y0090368D01*
X0206600Y0091366D02*
X0199400Y0091366D01*
X0199400Y0092365D02*
X0206600Y0092365D01*
X0206600Y0093363D02*
X0199400Y0093363D01*
X0199154Y0094362D02*
X0206846Y0094362D01*
X0207845Y0095360D02*
X0198155Y0095360D01*
X0197157Y0096359D02*
X0208843Y0096359D01*
X0212130Y0078385D02*
X0215000Y0078385D01*
X0215000Y0077387D02*
X0213129Y0077387D01*
X0214127Y0076388D02*
X0215000Y0076388D01*
X0215000Y0075390D02*
X0214400Y0075390D01*
X0214400Y0074391D02*
X0215000Y0074391D01*
X0215000Y0073393D02*
X0214400Y0073393D01*
X0213910Y0072394D02*
X0215000Y0072394D01*
X0215000Y0071396D02*
X0212911Y0071396D01*
X0214100Y0058415D02*
X0215000Y0058415D01*
X0215000Y0057417D02*
X0214400Y0057417D01*
X0214400Y0056418D02*
X0215000Y0056418D01*
X0215000Y0055420D02*
X0214400Y0055420D01*
X0213937Y0054421D02*
X0215000Y0054421D01*
X0215000Y0053423D02*
X0212938Y0053423D01*
X0176000Y0022000D02*
X0182000Y0016000D01*
X0182758Y0011485D02*
X0178242Y0011485D01*
X0179061Y0010487D02*
X0181939Y0010487D01*
X0181526Y0009488D02*
X0179474Y0009488D01*
X0179550Y0008490D02*
X0181450Y0008490D01*
X0181534Y0007491D02*
X0179466Y0007491D01*
X0179052Y0006493D02*
X0181948Y0006493D01*
X0163516Y0012484D02*
X0162895Y0012484D01*
X0152492Y0013482D02*
X0138508Y0013482D01*
X0139507Y0012484D02*
X0144534Y0012484D01*
X0146466Y0012484D02*
X0151493Y0012484D01*
X0150495Y0011485D02*
X0148242Y0011485D01*
X0149061Y0010487D02*
X0149496Y0010487D01*
X0142758Y0011485D02*
X0140505Y0011485D01*
X0141504Y0010487D02*
X0141939Y0010487D01*
X0135025Y0008975D02*
X0135025Y0008025D01*
X0131070Y0008025D01*
X0131160Y0007458D01*
X0131376Y0006792D01*
X0131694Y0006168D01*
X0131816Y0006000D01*
X0128728Y0006000D01*
X0128933Y0006206D01*
X0129550Y0007694D01*
X0129550Y0009306D01*
X0128933Y0010794D01*
X0128778Y0010950D01*
X0131780Y0010950D01*
X0131694Y0010832D01*
X0131376Y0010208D01*
X0131160Y0009542D01*
X0131070Y0008975D01*
X0135025Y0008975D01*
X0135025Y0008490D02*
X0129550Y0008490D01*
X0129474Y0009488D02*
X0131151Y0009488D01*
X0131518Y0010487D02*
X0129061Y0010487D01*
X0129466Y0007491D02*
X0131154Y0007491D01*
X0131528Y0006493D02*
X0129052Y0006493D01*
X0088681Y0017476D02*
X0085416Y0017476D01*
X0082758Y0011485D02*
X0078242Y0011485D01*
X0079061Y0010487D02*
X0081939Y0010487D01*
X0081526Y0009488D02*
X0079474Y0009488D01*
X0079550Y0008490D02*
X0081450Y0008490D01*
X0081534Y0007491D02*
X0079466Y0007491D01*
X0079052Y0006493D02*
X0081948Y0006493D01*
D21*
X0081500Y0020000D03*
X0062500Y0017000D03*
X0045500Y0032000D03*
X0063500Y0044500D03*
X0082000Y0036000D03*
X0097500Y0050000D03*
X0101500Y0043500D03*
X0085200Y0053500D03*
X0100500Y0067500D03*
X0109500Y0063500D03*
X0122500Y0080500D03*
X0087000Y0076500D03*
X0063000Y0098500D03*
X0061000Y0114500D03*
X0063500Y0136500D03*
X0036500Y0115500D03*
X0031500Y0124500D03*
X0014500Y0119500D03*
X0033000Y0088500D03*
X0036500Y0080500D03*
X0014500Y0083500D03*
X0014500Y0065500D03*
X0014500Y0047500D03*
X0014500Y0029500D03*
X0034000Y0016500D03*
X0015500Y0010500D03*
X0102000Y0017500D03*
X0122500Y0015500D03*
X0155000Y0026500D03*
X0167000Y0018500D03*
X0163500Y0038500D03*
X0170000Y0039500D03*
X0179500Y0046500D03*
X0203500Y0047500D03*
X0205500Y0029500D03*
X0205500Y0065500D03*
X0204500Y0083500D03*
X0205500Y0102500D03*
X0204500Y0119500D03*
X0187500Y0125500D03*
X0179500Y0117500D03*
X0175500Y0103500D03*
X0172500Y0092500D03*
X0148500Y0109500D03*
X0154500Y0137500D03*
X0180500Y0149500D03*
X0204500Y0156500D03*
X0206500Y0137500D03*
X0113000Y0139000D03*
X0034000Y0153500D03*
X0015500Y0156500D03*
X0127000Y0046000D03*
D22*
X0164500Y0051500D02*
X0164500Y0136500D01*
X0144929Y0156071D01*
X0138422Y0149563D01*
X0144929Y0156071D02*
X0139888Y0161112D01*
X0136996Y0158221D01*
X0136996Y0157437D01*
X0139888Y0161112D02*
X0125500Y0175500D01*
X0135500Y0175500D02*
X0158089Y0152911D01*
X0166700Y0144300D01*
X0166700Y0067300D01*
X0195500Y0038500D01*
X0195500Y0020500D02*
X0164500Y0051500D01*
X0195500Y0056500D02*
X0168900Y0083100D01*
X0168900Y0152100D01*
X0162775Y0158225D01*
X0145500Y0175500D01*
X0155500Y0175500D02*
X0167461Y0163539D01*
X0171100Y0159900D01*
X0171100Y0098900D01*
X0195500Y0074500D01*
X0195500Y0092500D02*
X0173300Y0114700D01*
X0173300Y0167700D01*
X0165500Y0175500D01*
X0175500Y0175500D02*
X0175500Y0154990D01*
X0175510Y0155000D01*
X0179500Y0155000D01*
X0175500Y0154990D02*
X0175500Y0130500D01*
X0195500Y0110500D01*
X0195500Y0128500D02*
X0194500Y0128500D01*
X0185500Y0137500D01*
X0185500Y0157948D01*
X0185500Y0175500D01*
X0195500Y0175500D02*
X0195500Y0146500D01*
X0097626Y0149563D02*
X0093848Y0153341D01*
X0093848Y0159002D01*
X0094000Y0159154D01*
X0094000Y0167000D01*
X0085656Y0159002D02*
X0085656Y0153341D01*
X0081878Y0149563D01*
X0085656Y0159002D02*
X0082903Y0161755D01*
X0082903Y0163000D01*
X0083500Y0163000D01*
X0095500Y0175500D01*
X0085500Y0175500D02*
X0075700Y0165200D01*
X0069589Y0165200D01*
X0070278Y0165889D01*
X0070450Y0165889D01*
X0069589Y0165200D02*
X0050700Y0146311D01*
X0050700Y0063700D01*
X0025500Y0038500D01*
X0025500Y0030791D02*
X0052900Y0058191D01*
X0052900Y0145400D01*
X0070500Y0163000D01*
X0082903Y0163000D01*
X0075500Y0175500D02*
X0048500Y0148500D01*
X0048500Y0079500D01*
X0025500Y0056500D01*
X0025500Y0074500D02*
X0046189Y0095189D01*
X0046189Y0133689D01*
X0046300Y0133800D01*
X0046300Y0149411D01*
X0066444Y0169556D01*
X0066444Y0174556D01*
X0065500Y0175500D01*
X0058639Y0172361D02*
X0055500Y0175500D01*
X0055500Y0161723D01*
X0044100Y0150323D01*
X0044100Y0149823D01*
X0043989Y0149712D01*
X0043989Y0105989D01*
X0030500Y0092500D01*
X0025500Y0092500D01*
X0025500Y0110500D02*
X0035500Y0120500D01*
X0041789Y0126789D01*
X0041789Y0154127D01*
X0042161Y0154500D01*
X0044000Y0154500D01*
X0041789Y0154127D02*
X0041789Y0171789D01*
X0045500Y0175500D01*
X0039589Y0171411D02*
X0039589Y0131589D01*
X0036500Y0128500D01*
X0025500Y0128500D01*
X0025500Y0146500D02*
X0025500Y0175500D01*
X0035500Y0175500D02*
X0039589Y0171411D01*
X0025500Y0030791D02*
X0025500Y0020500D01*
M02*
