G75*
%MOIN*%
%OFA0B0*%
%FSLAX25Y25*%
%IPPOS*%
%LPD*%
%AMOC8*
5,1,8,0,0,1.08239X$1,22.5*
%
%ADD10C,0.00500*%
%ADD11C,0.00800*%
%ADD12C,0.00200*%
%ADD13C,0.00600*%
%ADD14R,0.06600X0.03000*%
D10*
X0020500Y0003500D02*
X0110500Y0003500D01*
X0200500Y0003500D01*
X0200500Y0013500D01*
X0110500Y0013500D01*
X0110500Y0003500D01*
X0110500Y0013500D01*
X0020500Y0013500D01*
X0020500Y0003500D01*
X0027900Y0025500D02*
X0028900Y0025500D01*
X0027900Y0025500D02*
X0027900Y0033000D01*
X0028900Y0033000D01*
X0039500Y0033000D02*
X0040500Y0033000D01*
X0040500Y0025500D01*
X0039500Y0025500D01*
X0041293Y0034000D02*
X0041295Y0034053D01*
X0041301Y0034105D01*
X0041311Y0034157D01*
X0041324Y0034208D01*
X0041342Y0034258D01*
X0041363Y0034307D01*
X0041388Y0034354D01*
X0041416Y0034398D01*
X0041447Y0034441D01*
X0041482Y0034481D01*
X0041519Y0034518D01*
X0041559Y0034553D01*
X0041602Y0034584D01*
X0041647Y0034612D01*
X0041693Y0034637D01*
X0041742Y0034658D01*
X0041792Y0034676D01*
X0041843Y0034689D01*
X0041895Y0034699D01*
X0041947Y0034705D01*
X0042000Y0034707D01*
X0042053Y0034705D01*
X0042105Y0034699D01*
X0042157Y0034689D01*
X0042208Y0034676D01*
X0042258Y0034658D01*
X0042307Y0034637D01*
X0042354Y0034612D01*
X0042398Y0034584D01*
X0042441Y0034553D01*
X0042481Y0034518D01*
X0042518Y0034481D01*
X0042553Y0034441D01*
X0042584Y0034398D01*
X0042612Y0034353D01*
X0042637Y0034307D01*
X0042658Y0034258D01*
X0042676Y0034208D01*
X0042689Y0034157D01*
X0042699Y0034105D01*
X0042705Y0034053D01*
X0042707Y0034000D01*
X0042705Y0033947D01*
X0042699Y0033895D01*
X0042689Y0033843D01*
X0042676Y0033792D01*
X0042658Y0033742D01*
X0042637Y0033693D01*
X0042612Y0033646D01*
X0042584Y0033602D01*
X0042553Y0033559D01*
X0042518Y0033519D01*
X0042481Y0033482D01*
X0042441Y0033447D01*
X0042398Y0033416D01*
X0042353Y0033388D01*
X0042307Y0033363D01*
X0042258Y0033342D01*
X0042208Y0033324D01*
X0042157Y0033311D01*
X0042105Y0033301D01*
X0042053Y0033295D01*
X0042000Y0033293D01*
X0041947Y0033295D01*
X0041895Y0033301D01*
X0041843Y0033311D01*
X0041792Y0033324D01*
X0041742Y0033342D01*
X0041693Y0033363D01*
X0041646Y0033388D01*
X0041602Y0033416D01*
X0041559Y0033447D01*
X0041519Y0033482D01*
X0041482Y0033519D01*
X0041447Y0033559D01*
X0041416Y0033602D01*
X0041388Y0033647D01*
X0041363Y0033693D01*
X0041342Y0033742D01*
X0041324Y0033792D01*
X0041311Y0033843D01*
X0041301Y0033895D01*
X0041295Y0033947D01*
X0041293Y0034000D01*
X0043563Y0043957D02*
X0051437Y0043957D01*
X0051437Y0044350D01*
X0059563Y0041350D02*
X0059563Y0040957D01*
X0067437Y0040957D01*
X0067437Y0041350D01*
X0068500Y0041000D02*
X0068502Y0041044D01*
X0068508Y0041088D01*
X0068518Y0041131D01*
X0068531Y0041173D01*
X0068548Y0041214D01*
X0068569Y0041253D01*
X0068593Y0041290D01*
X0068620Y0041325D01*
X0068650Y0041357D01*
X0068683Y0041387D01*
X0068719Y0041413D01*
X0068756Y0041437D01*
X0068796Y0041456D01*
X0068837Y0041473D01*
X0068880Y0041485D01*
X0068923Y0041494D01*
X0068967Y0041499D01*
X0069011Y0041500D01*
X0069055Y0041497D01*
X0069099Y0041490D01*
X0069142Y0041479D01*
X0069184Y0041465D01*
X0069224Y0041447D01*
X0069263Y0041425D01*
X0069299Y0041401D01*
X0069333Y0041373D01*
X0069365Y0041342D01*
X0069394Y0041308D01*
X0069420Y0041272D01*
X0069442Y0041234D01*
X0069461Y0041194D01*
X0069476Y0041152D01*
X0069488Y0041110D01*
X0069496Y0041066D01*
X0069500Y0041022D01*
X0069500Y0040978D01*
X0069496Y0040934D01*
X0069488Y0040890D01*
X0069476Y0040848D01*
X0069461Y0040806D01*
X0069442Y0040766D01*
X0069420Y0040728D01*
X0069394Y0040692D01*
X0069365Y0040658D01*
X0069333Y0040627D01*
X0069299Y0040599D01*
X0069263Y0040575D01*
X0069224Y0040553D01*
X0069184Y0040535D01*
X0069142Y0040521D01*
X0069099Y0040510D01*
X0069055Y0040503D01*
X0069011Y0040500D01*
X0068967Y0040501D01*
X0068923Y0040506D01*
X0068880Y0040515D01*
X0068837Y0040527D01*
X0068796Y0040544D01*
X0068756Y0040563D01*
X0068719Y0040587D01*
X0068683Y0040613D01*
X0068650Y0040643D01*
X0068620Y0040675D01*
X0068593Y0040710D01*
X0068569Y0040747D01*
X0068548Y0040786D01*
X0068531Y0040827D01*
X0068518Y0040869D01*
X0068508Y0040912D01*
X0068502Y0040956D01*
X0068500Y0041000D01*
X0067437Y0038043D02*
X0067437Y0037650D01*
X0067437Y0038043D02*
X0059563Y0038043D01*
X0059563Y0037650D01*
X0057500Y0038000D02*
X0057502Y0038044D01*
X0057508Y0038088D01*
X0057518Y0038131D01*
X0057531Y0038173D01*
X0057548Y0038214D01*
X0057569Y0038253D01*
X0057593Y0038290D01*
X0057620Y0038325D01*
X0057650Y0038357D01*
X0057683Y0038387D01*
X0057719Y0038413D01*
X0057756Y0038437D01*
X0057796Y0038456D01*
X0057837Y0038473D01*
X0057880Y0038485D01*
X0057923Y0038494D01*
X0057967Y0038499D01*
X0058011Y0038500D01*
X0058055Y0038497D01*
X0058099Y0038490D01*
X0058142Y0038479D01*
X0058184Y0038465D01*
X0058224Y0038447D01*
X0058263Y0038425D01*
X0058299Y0038401D01*
X0058333Y0038373D01*
X0058365Y0038342D01*
X0058394Y0038308D01*
X0058420Y0038272D01*
X0058442Y0038234D01*
X0058461Y0038194D01*
X0058476Y0038152D01*
X0058488Y0038110D01*
X0058496Y0038066D01*
X0058500Y0038022D01*
X0058500Y0037978D01*
X0058496Y0037934D01*
X0058488Y0037890D01*
X0058476Y0037848D01*
X0058461Y0037806D01*
X0058442Y0037766D01*
X0058420Y0037728D01*
X0058394Y0037692D01*
X0058365Y0037658D01*
X0058333Y0037627D01*
X0058299Y0037599D01*
X0058263Y0037575D01*
X0058224Y0037553D01*
X0058184Y0037535D01*
X0058142Y0037521D01*
X0058099Y0037510D01*
X0058055Y0037503D01*
X0058011Y0037500D01*
X0057967Y0037501D01*
X0057923Y0037506D01*
X0057880Y0037515D01*
X0057837Y0037527D01*
X0057796Y0037544D01*
X0057756Y0037563D01*
X0057719Y0037587D01*
X0057683Y0037613D01*
X0057650Y0037643D01*
X0057620Y0037675D01*
X0057593Y0037710D01*
X0057569Y0037747D01*
X0057548Y0037786D01*
X0057531Y0037827D01*
X0057518Y0037869D01*
X0057508Y0037912D01*
X0057502Y0037956D01*
X0057500Y0038000D01*
X0059563Y0031350D02*
X0059563Y0030957D01*
X0067437Y0030957D01*
X0067437Y0031350D01*
X0071500Y0023000D02*
X0071502Y0023044D01*
X0071508Y0023088D01*
X0071518Y0023131D01*
X0071531Y0023173D01*
X0071548Y0023214D01*
X0071569Y0023253D01*
X0071593Y0023290D01*
X0071620Y0023325D01*
X0071650Y0023357D01*
X0071683Y0023387D01*
X0071719Y0023413D01*
X0071756Y0023437D01*
X0071796Y0023456D01*
X0071837Y0023473D01*
X0071880Y0023485D01*
X0071923Y0023494D01*
X0071967Y0023499D01*
X0072011Y0023500D01*
X0072055Y0023497D01*
X0072099Y0023490D01*
X0072142Y0023479D01*
X0072184Y0023465D01*
X0072224Y0023447D01*
X0072263Y0023425D01*
X0072299Y0023401D01*
X0072333Y0023373D01*
X0072365Y0023342D01*
X0072394Y0023308D01*
X0072420Y0023272D01*
X0072442Y0023234D01*
X0072461Y0023194D01*
X0072476Y0023152D01*
X0072488Y0023110D01*
X0072496Y0023066D01*
X0072500Y0023022D01*
X0072500Y0022978D01*
X0072496Y0022934D01*
X0072488Y0022890D01*
X0072476Y0022848D01*
X0072461Y0022806D01*
X0072442Y0022766D01*
X0072420Y0022728D01*
X0072394Y0022692D01*
X0072365Y0022658D01*
X0072333Y0022627D01*
X0072299Y0022599D01*
X0072263Y0022575D01*
X0072224Y0022553D01*
X0072184Y0022535D01*
X0072142Y0022521D01*
X0072099Y0022510D01*
X0072055Y0022503D01*
X0072011Y0022500D01*
X0071967Y0022501D01*
X0071923Y0022506D01*
X0071880Y0022515D01*
X0071837Y0022527D01*
X0071796Y0022544D01*
X0071756Y0022563D01*
X0071719Y0022587D01*
X0071683Y0022613D01*
X0071650Y0022643D01*
X0071620Y0022675D01*
X0071593Y0022710D01*
X0071569Y0022747D01*
X0071548Y0022786D01*
X0071531Y0022827D01*
X0071518Y0022869D01*
X0071508Y0022912D01*
X0071502Y0022956D01*
X0071500Y0023000D01*
X0073563Y0023043D02*
X0081437Y0023043D01*
X0081437Y0022650D01*
X0073563Y0022650D02*
X0073563Y0023043D01*
X0073563Y0016350D02*
X0073563Y0015957D01*
X0081437Y0015957D01*
X0081437Y0016350D01*
X0097957Y0017563D02*
X0097957Y0025437D01*
X0098350Y0025437D01*
X0104650Y0025437D02*
X0105043Y0025437D01*
X0105043Y0017563D01*
X0104650Y0017563D01*
X0106957Y0017563D02*
X0106957Y0025437D01*
X0107350Y0025437D01*
X0113650Y0025437D02*
X0114043Y0025437D01*
X0114043Y0017563D01*
X0113650Y0017563D01*
X0115957Y0017563D02*
X0116350Y0017563D01*
X0115957Y0017563D02*
X0115957Y0025437D01*
X0116350Y0025437D01*
X0122650Y0025437D02*
X0123043Y0025437D01*
X0123043Y0017563D01*
X0122650Y0017563D01*
X0122500Y0027000D02*
X0122502Y0027044D01*
X0122508Y0027088D01*
X0122518Y0027131D01*
X0122531Y0027173D01*
X0122548Y0027214D01*
X0122569Y0027253D01*
X0122593Y0027290D01*
X0122620Y0027325D01*
X0122650Y0027357D01*
X0122683Y0027387D01*
X0122719Y0027413D01*
X0122756Y0027437D01*
X0122796Y0027456D01*
X0122837Y0027473D01*
X0122880Y0027485D01*
X0122923Y0027494D01*
X0122967Y0027499D01*
X0123011Y0027500D01*
X0123055Y0027497D01*
X0123099Y0027490D01*
X0123142Y0027479D01*
X0123184Y0027465D01*
X0123224Y0027447D01*
X0123263Y0027425D01*
X0123299Y0027401D01*
X0123333Y0027373D01*
X0123365Y0027342D01*
X0123394Y0027308D01*
X0123420Y0027272D01*
X0123442Y0027234D01*
X0123461Y0027194D01*
X0123476Y0027152D01*
X0123488Y0027110D01*
X0123496Y0027066D01*
X0123500Y0027022D01*
X0123500Y0026978D01*
X0123496Y0026934D01*
X0123488Y0026890D01*
X0123476Y0026848D01*
X0123461Y0026806D01*
X0123442Y0026766D01*
X0123420Y0026728D01*
X0123394Y0026692D01*
X0123365Y0026658D01*
X0123333Y0026627D01*
X0123299Y0026599D01*
X0123263Y0026575D01*
X0123224Y0026553D01*
X0123184Y0026535D01*
X0123142Y0026521D01*
X0123099Y0026510D01*
X0123055Y0026503D01*
X0123011Y0026500D01*
X0122967Y0026501D01*
X0122923Y0026506D01*
X0122880Y0026515D01*
X0122837Y0026527D01*
X0122796Y0026544D01*
X0122756Y0026563D01*
X0122719Y0026587D01*
X0122683Y0026613D01*
X0122650Y0026643D01*
X0122620Y0026675D01*
X0122593Y0026710D01*
X0122569Y0026747D01*
X0122548Y0026786D01*
X0122531Y0026827D01*
X0122518Y0026869D01*
X0122508Y0026912D01*
X0122502Y0026956D01*
X0122500Y0027000D01*
X0136500Y0024000D02*
X0136502Y0024044D01*
X0136508Y0024088D01*
X0136518Y0024131D01*
X0136531Y0024173D01*
X0136548Y0024214D01*
X0136569Y0024253D01*
X0136593Y0024290D01*
X0136620Y0024325D01*
X0136650Y0024357D01*
X0136683Y0024387D01*
X0136719Y0024413D01*
X0136756Y0024437D01*
X0136796Y0024456D01*
X0136837Y0024473D01*
X0136880Y0024485D01*
X0136923Y0024494D01*
X0136967Y0024499D01*
X0137011Y0024500D01*
X0137055Y0024497D01*
X0137099Y0024490D01*
X0137142Y0024479D01*
X0137184Y0024465D01*
X0137224Y0024447D01*
X0137263Y0024425D01*
X0137299Y0024401D01*
X0137333Y0024373D01*
X0137365Y0024342D01*
X0137394Y0024308D01*
X0137420Y0024272D01*
X0137442Y0024234D01*
X0137461Y0024194D01*
X0137476Y0024152D01*
X0137488Y0024110D01*
X0137496Y0024066D01*
X0137500Y0024022D01*
X0137500Y0023978D01*
X0137496Y0023934D01*
X0137488Y0023890D01*
X0137476Y0023848D01*
X0137461Y0023806D01*
X0137442Y0023766D01*
X0137420Y0023728D01*
X0137394Y0023692D01*
X0137365Y0023658D01*
X0137333Y0023627D01*
X0137299Y0023599D01*
X0137263Y0023575D01*
X0137224Y0023553D01*
X0137184Y0023535D01*
X0137142Y0023521D01*
X0137099Y0023510D01*
X0137055Y0023503D01*
X0137011Y0023500D01*
X0136967Y0023501D01*
X0136923Y0023506D01*
X0136880Y0023515D01*
X0136837Y0023527D01*
X0136796Y0023544D01*
X0136756Y0023563D01*
X0136719Y0023587D01*
X0136683Y0023613D01*
X0136650Y0023643D01*
X0136620Y0023675D01*
X0136593Y0023710D01*
X0136569Y0023747D01*
X0136548Y0023786D01*
X0136531Y0023827D01*
X0136518Y0023869D01*
X0136508Y0023912D01*
X0136502Y0023956D01*
X0136500Y0024000D01*
X0138563Y0024043D02*
X0146437Y0024043D01*
X0146437Y0023650D01*
X0146437Y0025957D02*
X0138563Y0025957D01*
X0138563Y0026350D01*
X0138563Y0024043D02*
X0138563Y0023650D01*
X0138563Y0017350D02*
X0138563Y0016957D01*
X0146437Y0016957D01*
X0146437Y0017350D01*
X0146437Y0025957D02*
X0146437Y0026350D01*
X0147500Y0026000D02*
X0147502Y0026044D01*
X0147508Y0026088D01*
X0147518Y0026131D01*
X0147531Y0026173D01*
X0147548Y0026214D01*
X0147569Y0026253D01*
X0147593Y0026290D01*
X0147620Y0026325D01*
X0147650Y0026357D01*
X0147683Y0026387D01*
X0147719Y0026413D01*
X0147756Y0026437D01*
X0147796Y0026456D01*
X0147837Y0026473D01*
X0147880Y0026485D01*
X0147923Y0026494D01*
X0147967Y0026499D01*
X0148011Y0026500D01*
X0148055Y0026497D01*
X0148099Y0026490D01*
X0148142Y0026479D01*
X0148184Y0026465D01*
X0148224Y0026447D01*
X0148263Y0026425D01*
X0148299Y0026401D01*
X0148333Y0026373D01*
X0148365Y0026342D01*
X0148394Y0026308D01*
X0148420Y0026272D01*
X0148442Y0026234D01*
X0148461Y0026194D01*
X0148476Y0026152D01*
X0148488Y0026110D01*
X0148496Y0026066D01*
X0148500Y0026022D01*
X0148500Y0025978D01*
X0148496Y0025934D01*
X0148488Y0025890D01*
X0148476Y0025848D01*
X0148461Y0025806D01*
X0148442Y0025766D01*
X0148420Y0025728D01*
X0148394Y0025692D01*
X0148365Y0025658D01*
X0148333Y0025627D01*
X0148299Y0025599D01*
X0148263Y0025575D01*
X0148224Y0025553D01*
X0148184Y0025535D01*
X0148142Y0025521D01*
X0148099Y0025510D01*
X0148055Y0025503D01*
X0148011Y0025500D01*
X0147967Y0025501D01*
X0147923Y0025506D01*
X0147880Y0025515D01*
X0147837Y0025527D01*
X0147796Y0025544D01*
X0147756Y0025563D01*
X0147719Y0025587D01*
X0147683Y0025613D01*
X0147650Y0025643D01*
X0147620Y0025675D01*
X0147593Y0025710D01*
X0147569Y0025747D01*
X0147548Y0025786D01*
X0147531Y0025827D01*
X0147518Y0025869D01*
X0147508Y0025912D01*
X0147502Y0025956D01*
X0147500Y0026000D01*
X0146437Y0032650D02*
X0146437Y0033043D01*
X0138563Y0033043D01*
X0138563Y0032650D01*
X0147563Y0038957D02*
X0155437Y0038957D01*
X0155437Y0039350D01*
X0155437Y0045650D02*
X0155437Y0046043D01*
X0147563Y0046043D01*
X0147563Y0045650D01*
X0145500Y0046000D02*
X0145502Y0046044D01*
X0145508Y0046088D01*
X0145518Y0046131D01*
X0145531Y0046173D01*
X0145548Y0046214D01*
X0145569Y0046253D01*
X0145593Y0046290D01*
X0145620Y0046325D01*
X0145650Y0046357D01*
X0145683Y0046387D01*
X0145719Y0046413D01*
X0145756Y0046437D01*
X0145796Y0046456D01*
X0145837Y0046473D01*
X0145880Y0046485D01*
X0145923Y0046494D01*
X0145967Y0046499D01*
X0146011Y0046500D01*
X0146055Y0046497D01*
X0146099Y0046490D01*
X0146142Y0046479D01*
X0146184Y0046465D01*
X0146224Y0046447D01*
X0146263Y0046425D01*
X0146299Y0046401D01*
X0146333Y0046373D01*
X0146365Y0046342D01*
X0146394Y0046308D01*
X0146420Y0046272D01*
X0146442Y0046234D01*
X0146461Y0046194D01*
X0146476Y0046152D01*
X0146488Y0046110D01*
X0146496Y0046066D01*
X0146500Y0046022D01*
X0146500Y0045978D01*
X0146496Y0045934D01*
X0146488Y0045890D01*
X0146476Y0045848D01*
X0146461Y0045806D01*
X0146442Y0045766D01*
X0146420Y0045728D01*
X0146394Y0045692D01*
X0146365Y0045658D01*
X0146333Y0045627D01*
X0146299Y0045599D01*
X0146263Y0045575D01*
X0146224Y0045553D01*
X0146184Y0045535D01*
X0146142Y0045521D01*
X0146099Y0045510D01*
X0146055Y0045503D01*
X0146011Y0045500D01*
X0145967Y0045501D01*
X0145923Y0045506D01*
X0145880Y0045515D01*
X0145837Y0045527D01*
X0145796Y0045544D01*
X0145756Y0045563D01*
X0145719Y0045587D01*
X0145683Y0045613D01*
X0145650Y0045643D01*
X0145620Y0045675D01*
X0145593Y0045710D01*
X0145569Y0045747D01*
X0145548Y0045786D01*
X0145531Y0045827D01*
X0145518Y0045869D01*
X0145508Y0045912D01*
X0145502Y0045956D01*
X0145500Y0046000D01*
X0147563Y0049957D02*
X0155437Y0049957D01*
X0155437Y0050350D01*
X0155437Y0056650D02*
X0155437Y0057043D01*
X0147563Y0057043D01*
X0147563Y0056650D01*
X0145500Y0057000D02*
X0145502Y0057044D01*
X0145508Y0057088D01*
X0145518Y0057131D01*
X0145531Y0057173D01*
X0145548Y0057214D01*
X0145569Y0057253D01*
X0145593Y0057290D01*
X0145620Y0057325D01*
X0145650Y0057357D01*
X0145683Y0057387D01*
X0145719Y0057413D01*
X0145756Y0057437D01*
X0145796Y0057456D01*
X0145837Y0057473D01*
X0145880Y0057485D01*
X0145923Y0057494D01*
X0145967Y0057499D01*
X0146011Y0057500D01*
X0146055Y0057497D01*
X0146099Y0057490D01*
X0146142Y0057479D01*
X0146184Y0057465D01*
X0146224Y0057447D01*
X0146263Y0057425D01*
X0146299Y0057401D01*
X0146333Y0057373D01*
X0146365Y0057342D01*
X0146394Y0057308D01*
X0146420Y0057272D01*
X0146442Y0057234D01*
X0146461Y0057194D01*
X0146476Y0057152D01*
X0146488Y0057110D01*
X0146496Y0057066D01*
X0146500Y0057022D01*
X0146500Y0056978D01*
X0146496Y0056934D01*
X0146488Y0056890D01*
X0146476Y0056848D01*
X0146461Y0056806D01*
X0146442Y0056766D01*
X0146420Y0056728D01*
X0146394Y0056692D01*
X0146365Y0056658D01*
X0146333Y0056627D01*
X0146299Y0056599D01*
X0146263Y0056575D01*
X0146224Y0056553D01*
X0146184Y0056535D01*
X0146142Y0056521D01*
X0146099Y0056510D01*
X0146055Y0056503D01*
X0146011Y0056500D01*
X0145967Y0056501D01*
X0145923Y0056506D01*
X0145880Y0056515D01*
X0145837Y0056527D01*
X0145796Y0056544D01*
X0145756Y0056563D01*
X0145719Y0056587D01*
X0145683Y0056613D01*
X0145650Y0056643D01*
X0145620Y0056675D01*
X0145593Y0056710D01*
X0145569Y0056747D01*
X0145548Y0056786D01*
X0145531Y0056827D01*
X0145518Y0056869D01*
X0145508Y0056912D01*
X0145502Y0056956D01*
X0145500Y0057000D01*
X0147563Y0060957D02*
X0155437Y0060957D01*
X0155437Y0061350D01*
X0155437Y0067650D02*
X0155437Y0068043D01*
X0147563Y0068043D01*
X0147563Y0067650D01*
X0145500Y0068000D02*
X0145502Y0068044D01*
X0145508Y0068088D01*
X0145518Y0068131D01*
X0145531Y0068173D01*
X0145548Y0068214D01*
X0145569Y0068253D01*
X0145593Y0068290D01*
X0145620Y0068325D01*
X0145650Y0068357D01*
X0145683Y0068387D01*
X0145719Y0068413D01*
X0145756Y0068437D01*
X0145796Y0068456D01*
X0145837Y0068473D01*
X0145880Y0068485D01*
X0145923Y0068494D01*
X0145967Y0068499D01*
X0146011Y0068500D01*
X0146055Y0068497D01*
X0146099Y0068490D01*
X0146142Y0068479D01*
X0146184Y0068465D01*
X0146224Y0068447D01*
X0146263Y0068425D01*
X0146299Y0068401D01*
X0146333Y0068373D01*
X0146365Y0068342D01*
X0146394Y0068308D01*
X0146420Y0068272D01*
X0146442Y0068234D01*
X0146461Y0068194D01*
X0146476Y0068152D01*
X0146488Y0068110D01*
X0146496Y0068066D01*
X0146500Y0068022D01*
X0146500Y0067978D01*
X0146496Y0067934D01*
X0146488Y0067890D01*
X0146476Y0067848D01*
X0146461Y0067806D01*
X0146442Y0067766D01*
X0146420Y0067728D01*
X0146394Y0067692D01*
X0146365Y0067658D01*
X0146333Y0067627D01*
X0146299Y0067599D01*
X0146263Y0067575D01*
X0146224Y0067553D01*
X0146184Y0067535D01*
X0146142Y0067521D01*
X0146099Y0067510D01*
X0146055Y0067503D01*
X0146011Y0067500D01*
X0145967Y0067501D01*
X0145923Y0067506D01*
X0145880Y0067515D01*
X0145837Y0067527D01*
X0145796Y0067544D01*
X0145756Y0067563D01*
X0145719Y0067587D01*
X0145683Y0067613D01*
X0145650Y0067643D01*
X0145620Y0067675D01*
X0145593Y0067710D01*
X0145569Y0067747D01*
X0145548Y0067786D01*
X0145531Y0067827D01*
X0145518Y0067869D01*
X0145508Y0067912D01*
X0145502Y0067956D01*
X0145500Y0068000D01*
X0147563Y0071957D02*
X0155437Y0071957D01*
X0155437Y0072350D01*
X0155437Y0078650D02*
X0155437Y0079043D01*
X0147563Y0079043D01*
X0147563Y0078650D01*
X0145500Y0079000D02*
X0145502Y0079044D01*
X0145508Y0079088D01*
X0145518Y0079131D01*
X0145531Y0079173D01*
X0145548Y0079214D01*
X0145569Y0079253D01*
X0145593Y0079290D01*
X0145620Y0079325D01*
X0145650Y0079357D01*
X0145683Y0079387D01*
X0145719Y0079413D01*
X0145756Y0079437D01*
X0145796Y0079456D01*
X0145837Y0079473D01*
X0145880Y0079485D01*
X0145923Y0079494D01*
X0145967Y0079499D01*
X0146011Y0079500D01*
X0146055Y0079497D01*
X0146099Y0079490D01*
X0146142Y0079479D01*
X0146184Y0079465D01*
X0146224Y0079447D01*
X0146263Y0079425D01*
X0146299Y0079401D01*
X0146333Y0079373D01*
X0146365Y0079342D01*
X0146394Y0079308D01*
X0146420Y0079272D01*
X0146442Y0079234D01*
X0146461Y0079194D01*
X0146476Y0079152D01*
X0146488Y0079110D01*
X0146496Y0079066D01*
X0146500Y0079022D01*
X0146500Y0078978D01*
X0146496Y0078934D01*
X0146488Y0078890D01*
X0146476Y0078848D01*
X0146461Y0078806D01*
X0146442Y0078766D01*
X0146420Y0078728D01*
X0146394Y0078692D01*
X0146365Y0078658D01*
X0146333Y0078627D01*
X0146299Y0078599D01*
X0146263Y0078575D01*
X0146224Y0078553D01*
X0146184Y0078535D01*
X0146142Y0078521D01*
X0146099Y0078510D01*
X0146055Y0078503D01*
X0146011Y0078500D01*
X0145967Y0078501D01*
X0145923Y0078506D01*
X0145880Y0078515D01*
X0145837Y0078527D01*
X0145796Y0078544D01*
X0145756Y0078563D01*
X0145719Y0078587D01*
X0145683Y0078613D01*
X0145650Y0078643D01*
X0145620Y0078675D01*
X0145593Y0078710D01*
X0145569Y0078747D01*
X0145548Y0078786D01*
X0145531Y0078827D01*
X0145518Y0078869D01*
X0145508Y0078912D01*
X0145502Y0078956D01*
X0145500Y0079000D01*
X0147563Y0082957D02*
X0155437Y0082957D01*
X0155437Y0083350D01*
X0155437Y0089650D02*
X0155437Y0090043D01*
X0147563Y0090043D01*
X0147563Y0089650D01*
X0145500Y0090000D02*
X0145502Y0090044D01*
X0145508Y0090088D01*
X0145518Y0090131D01*
X0145531Y0090173D01*
X0145548Y0090214D01*
X0145569Y0090253D01*
X0145593Y0090290D01*
X0145620Y0090325D01*
X0145650Y0090357D01*
X0145683Y0090387D01*
X0145719Y0090413D01*
X0145756Y0090437D01*
X0145796Y0090456D01*
X0145837Y0090473D01*
X0145880Y0090485D01*
X0145923Y0090494D01*
X0145967Y0090499D01*
X0146011Y0090500D01*
X0146055Y0090497D01*
X0146099Y0090490D01*
X0146142Y0090479D01*
X0146184Y0090465D01*
X0146224Y0090447D01*
X0146263Y0090425D01*
X0146299Y0090401D01*
X0146333Y0090373D01*
X0146365Y0090342D01*
X0146394Y0090308D01*
X0146420Y0090272D01*
X0146442Y0090234D01*
X0146461Y0090194D01*
X0146476Y0090152D01*
X0146488Y0090110D01*
X0146496Y0090066D01*
X0146500Y0090022D01*
X0146500Y0089978D01*
X0146496Y0089934D01*
X0146488Y0089890D01*
X0146476Y0089848D01*
X0146461Y0089806D01*
X0146442Y0089766D01*
X0146420Y0089728D01*
X0146394Y0089692D01*
X0146365Y0089658D01*
X0146333Y0089627D01*
X0146299Y0089599D01*
X0146263Y0089575D01*
X0146224Y0089553D01*
X0146184Y0089535D01*
X0146142Y0089521D01*
X0146099Y0089510D01*
X0146055Y0089503D01*
X0146011Y0089500D01*
X0145967Y0089501D01*
X0145923Y0089506D01*
X0145880Y0089515D01*
X0145837Y0089527D01*
X0145796Y0089544D01*
X0145756Y0089563D01*
X0145719Y0089587D01*
X0145683Y0089613D01*
X0145650Y0089643D01*
X0145620Y0089675D01*
X0145593Y0089710D01*
X0145569Y0089747D01*
X0145548Y0089786D01*
X0145531Y0089827D01*
X0145518Y0089869D01*
X0145508Y0089912D01*
X0145502Y0089956D01*
X0145500Y0090000D01*
X0147563Y0083350D02*
X0147563Y0082957D01*
X0147563Y0072350D02*
X0147563Y0071957D01*
X0147563Y0061350D02*
X0147563Y0060957D01*
X0147563Y0050350D02*
X0147563Y0049957D01*
X0147563Y0039350D02*
X0147563Y0038957D01*
X0163563Y0041957D02*
X0163563Y0042350D01*
X0163563Y0041957D02*
X0171437Y0041957D01*
X0171437Y0042350D01*
X0172500Y0042000D02*
X0172502Y0042044D01*
X0172508Y0042088D01*
X0172518Y0042131D01*
X0172531Y0042173D01*
X0172548Y0042214D01*
X0172569Y0042253D01*
X0172593Y0042290D01*
X0172620Y0042325D01*
X0172650Y0042357D01*
X0172683Y0042387D01*
X0172719Y0042413D01*
X0172756Y0042437D01*
X0172796Y0042456D01*
X0172837Y0042473D01*
X0172880Y0042485D01*
X0172923Y0042494D01*
X0172967Y0042499D01*
X0173011Y0042500D01*
X0173055Y0042497D01*
X0173099Y0042490D01*
X0173142Y0042479D01*
X0173184Y0042465D01*
X0173224Y0042447D01*
X0173263Y0042425D01*
X0173299Y0042401D01*
X0173333Y0042373D01*
X0173365Y0042342D01*
X0173394Y0042308D01*
X0173420Y0042272D01*
X0173442Y0042234D01*
X0173461Y0042194D01*
X0173476Y0042152D01*
X0173488Y0042110D01*
X0173496Y0042066D01*
X0173500Y0042022D01*
X0173500Y0041978D01*
X0173496Y0041934D01*
X0173488Y0041890D01*
X0173476Y0041848D01*
X0173461Y0041806D01*
X0173442Y0041766D01*
X0173420Y0041728D01*
X0173394Y0041692D01*
X0173365Y0041658D01*
X0173333Y0041627D01*
X0173299Y0041599D01*
X0173263Y0041575D01*
X0173224Y0041553D01*
X0173184Y0041535D01*
X0173142Y0041521D01*
X0173099Y0041510D01*
X0173055Y0041503D01*
X0173011Y0041500D01*
X0172967Y0041501D01*
X0172923Y0041506D01*
X0172880Y0041515D01*
X0172837Y0041527D01*
X0172796Y0041544D01*
X0172756Y0041563D01*
X0172719Y0041587D01*
X0172683Y0041613D01*
X0172650Y0041643D01*
X0172620Y0041675D01*
X0172593Y0041710D01*
X0172569Y0041747D01*
X0172548Y0041786D01*
X0172531Y0041827D01*
X0172518Y0041869D01*
X0172508Y0041912D01*
X0172502Y0041956D01*
X0172500Y0042000D01*
X0171437Y0048650D02*
X0171437Y0049043D01*
X0163563Y0049043D01*
X0163563Y0048650D01*
X0163563Y0051957D02*
X0163563Y0052350D01*
X0163563Y0051957D02*
X0171437Y0051957D01*
X0171437Y0052350D01*
X0172500Y0052000D02*
X0172502Y0052044D01*
X0172508Y0052088D01*
X0172518Y0052131D01*
X0172531Y0052173D01*
X0172548Y0052214D01*
X0172569Y0052253D01*
X0172593Y0052290D01*
X0172620Y0052325D01*
X0172650Y0052357D01*
X0172683Y0052387D01*
X0172719Y0052413D01*
X0172756Y0052437D01*
X0172796Y0052456D01*
X0172837Y0052473D01*
X0172880Y0052485D01*
X0172923Y0052494D01*
X0172967Y0052499D01*
X0173011Y0052500D01*
X0173055Y0052497D01*
X0173099Y0052490D01*
X0173142Y0052479D01*
X0173184Y0052465D01*
X0173224Y0052447D01*
X0173263Y0052425D01*
X0173299Y0052401D01*
X0173333Y0052373D01*
X0173365Y0052342D01*
X0173394Y0052308D01*
X0173420Y0052272D01*
X0173442Y0052234D01*
X0173461Y0052194D01*
X0173476Y0052152D01*
X0173488Y0052110D01*
X0173496Y0052066D01*
X0173500Y0052022D01*
X0173500Y0051978D01*
X0173496Y0051934D01*
X0173488Y0051890D01*
X0173476Y0051848D01*
X0173461Y0051806D01*
X0173442Y0051766D01*
X0173420Y0051728D01*
X0173394Y0051692D01*
X0173365Y0051658D01*
X0173333Y0051627D01*
X0173299Y0051599D01*
X0173263Y0051575D01*
X0173224Y0051553D01*
X0173184Y0051535D01*
X0173142Y0051521D01*
X0173099Y0051510D01*
X0173055Y0051503D01*
X0173011Y0051500D01*
X0172967Y0051501D01*
X0172923Y0051506D01*
X0172880Y0051515D01*
X0172837Y0051527D01*
X0172796Y0051544D01*
X0172756Y0051563D01*
X0172719Y0051587D01*
X0172683Y0051613D01*
X0172650Y0051643D01*
X0172620Y0051675D01*
X0172593Y0051710D01*
X0172569Y0051747D01*
X0172548Y0051786D01*
X0172531Y0051827D01*
X0172518Y0051869D01*
X0172508Y0051912D01*
X0172502Y0051956D01*
X0172500Y0052000D01*
X0171437Y0058650D02*
X0171437Y0059043D01*
X0163563Y0059043D01*
X0163563Y0058650D01*
X0163563Y0061957D02*
X0163563Y0062350D01*
X0163563Y0061957D02*
X0171437Y0061957D01*
X0171437Y0062350D01*
X0172500Y0062000D02*
X0172502Y0062044D01*
X0172508Y0062088D01*
X0172518Y0062131D01*
X0172531Y0062173D01*
X0172548Y0062214D01*
X0172569Y0062253D01*
X0172593Y0062290D01*
X0172620Y0062325D01*
X0172650Y0062357D01*
X0172683Y0062387D01*
X0172719Y0062413D01*
X0172756Y0062437D01*
X0172796Y0062456D01*
X0172837Y0062473D01*
X0172880Y0062485D01*
X0172923Y0062494D01*
X0172967Y0062499D01*
X0173011Y0062500D01*
X0173055Y0062497D01*
X0173099Y0062490D01*
X0173142Y0062479D01*
X0173184Y0062465D01*
X0173224Y0062447D01*
X0173263Y0062425D01*
X0173299Y0062401D01*
X0173333Y0062373D01*
X0173365Y0062342D01*
X0173394Y0062308D01*
X0173420Y0062272D01*
X0173442Y0062234D01*
X0173461Y0062194D01*
X0173476Y0062152D01*
X0173488Y0062110D01*
X0173496Y0062066D01*
X0173500Y0062022D01*
X0173500Y0061978D01*
X0173496Y0061934D01*
X0173488Y0061890D01*
X0173476Y0061848D01*
X0173461Y0061806D01*
X0173442Y0061766D01*
X0173420Y0061728D01*
X0173394Y0061692D01*
X0173365Y0061658D01*
X0173333Y0061627D01*
X0173299Y0061599D01*
X0173263Y0061575D01*
X0173224Y0061553D01*
X0173184Y0061535D01*
X0173142Y0061521D01*
X0173099Y0061510D01*
X0173055Y0061503D01*
X0173011Y0061500D01*
X0172967Y0061501D01*
X0172923Y0061506D01*
X0172880Y0061515D01*
X0172837Y0061527D01*
X0172796Y0061544D01*
X0172756Y0061563D01*
X0172719Y0061587D01*
X0172683Y0061613D01*
X0172650Y0061643D01*
X0172620Y0061675D01*
X0172593Y0061710D01*
X0172569Y0061747D01*
X0172548Y0061786D01*
X0172531Y0061827D01*
X0172518Y0061869D01*
X0172508Y0061912D01*
X0172502Y0061956D01*
X0172500Y0062000D01*
X0179293Y0061000D02*
X0179295Y0061053D01*
X0179301Y0061105D01*
X0179311Y0061157D01*
X0179324Y0061208D01*
X0179342Y0061258D01*
X0179363Y0061307D01*
X0179388Y0061354D01*
X0179416Y0061398D01*
X0179447Y0061441D01*
X0179482Y0061481D01*
X0179519Y0061518D01*
X0179559Y0061553D01*
X0179602Y0061584D01*
X0179647Y0061612D01*
X0179693Y0061637D01*
X0179742Y0061658D01*
X0179792Y0061676D01*
X0179843Y0061689D01*
X0179895Y0061699D01*
X0179947Y0061705D01*
X0180000Y0061707D01*
X0180053Y0061705D01*
X0180105Y0061699D01*
X0180157Y0061689D01*
X0180208Y0061676D01*
X0180258Y0061658D01*
X0180307Y0061637D01*
X0180354Y0061612D01*
X0180398Y0061584D01*
X0180441Y0061553D01*
X0180481Y0061518D01*
X0180518Y0061481D01*
X0180553Y0061441D01*
X0180584Y0061398D01*
X0180612Y0061353D01*
X0180637Y0061307D01*
X0180658Y0061258D01*
X0180676Y0061208D01*
X0180689Y0061157D01*
X0180699Y0061105D01*
X0180705Y0061053D01*
X0180707Y0061000D01*
X0180705Y0060947D01*
X0180699Y0060895D01*
X0180689Y0060843D01*
X0180676Y0060792D01*
X0180658Y0060742D01*
X0180637Y0060693D01*
X0180612Y0060646D01*
X0180584Y0060602D01*
X0180553Y0060559D01*
X0180518Y0060519D01*
X0180481Y0060482D01*
X0180441Y0060447D01*
X0180398Y0060416D01*
X0180353Y0060388D01*
X0180307Y0060363D01*
X0180258Y0060342D01*
X0180208Y0060324D01*
X0180157Y0060311D01*
X0180105Y0060301D01*
X0180053Y0060295D01*
X0180000Y0060293D01*
X0179947Y0060295D01*
X0179895Y0060301D01*
X0179843Y0060311D01*
X0179792Y0060324D01*
X0179742Y0060342D01*
X0179693Y0060363D01*
X0179646Y0060388D01*
X0179602Y0060416D01*
X0179559Y0060447D01*
X0179519Y0060482D01*
X0179482Y0060519D01*
X0179447Y0060559D01*
X0179416Y0060602D01*
X0179388Y0060647D01*
X0179363Y0060693D01*
X0179342Y0060742D01*
X0179324Y0060792D01*
X0179311Y0060843D01*
X0179301Y0060895D01*
X0179295Y0060947D01*
X0179293Y0061000D01*
X0181500Y0062000D02*
X0182500Y0062000D01*
X0181500Y0062000D02*
X0181500Y0069500D01*
X0182500Y0069500D01*
X0172500Y0072000D02*
X0172502Y0072044D01*
X0172508Y0072088D01*
X0172518Y0072131D01*
X0172531Y0072173D01*
X0172548Y0072214D01*
X0172569Y0072253D01*
X0172593Y0072290D01*
X0172620Y0072325D01*
X0172650Y0072357D01*
X0172683Y0072387D01*
X0172719Y0072413D01*
X0172756Y0072437D01*
X0172796Y0072456D01*
X0172837Y0072473D01*
X0172880Y0072485D01*
X0172923Y0072494D01*
X0172967Y0072499D01*
X0173011Y0072500D01*
X0173055Y0072497D01*
X0173099Y0072490D01*
X0173142Y0072479D01*
X0173184Y0072465D01*
X0173224Y0072447D01*
X0173263Y0072425D01*
X0173299Y0072401D01*
X0173333Y0072373D01*
X0173365Y0072342D01*
X0173394Y0072308D01*
X0173420Y0072272D01*
X0173442Y0072234D01*
X0173461Y0072194D01*
X0173476Y0072152D01*
X0173488Y0072110D01*
X0173496Y0072066D01*
X0173500Y0072022D01*
X0173500Y0071978D01*
X0173496Y0071934D01*
X0173488Y0071890D01*
X0173476Y0071848D01*
X0173461Y0071806D01*
X0173442Y0071766D01*
X0173420Y0071728D01*
X0173394Y0071692D01*
X0173365Y0071658D01*
X0173333Y0071627D01*
X0173299Y0071599D01*
X0173263Y0071575D01*
X0173224Y0071553D01*
X0173184Y0071535D01*
X0173142Y0071521D01*
X0173099Y0071510D01*
X0173055Y0071503D01*
X0173011Y0071500D01*
X0172967Y0071501D01*
X0172923Y0071506D01*
X0172880Y0071515D01*
X0172837Y0071527D01*
X0172796Y0071544D01*
X0172756Y0071563D01*
X0172719Y0071587D01*
X0172683Y0071613D01*
X0172650Y0071643D01*
X0172620Y0071675D01*
X0172593Y0071710D01*
X0172569Y0071747D01*
X0172548Y0071786D01*
X0172531Y0071827D01*
X0172518Y0071869D01*
X0172508Y0071912D01*
X0172502Y0071956D01*
X0172500Y0072000D01*
X0171437Y0071957D02*
X0163563Y0071957D01*
X0163563Y0072350D01*
X0163563Y0069043D02*
X0163563Y0068650D01*
X0163563Y0069043D02*
X0171437Y0069043D01*
X0171437Y0068650D01*
X0171437Y0071957D02*
X0171437Y0072350D01*
X0171437Y0078650D02*
X0171437Y0079043D01*
X0163563Y0079043D01*
X0163563Y0078650D01*
X0163563Y0081957D02*
X0163563Y0082350D01*
X0163563Y0081957D02*
X0171437Y0081957D01*
X0171437Y0082350D01*
X0172500Y0082000D02*
X0172502Y0082044D01*
X0172508Y0082088D01*
X0172518Y0082131D01*
X0172531Y0082173D01*
X0172548Y0082214D01*
X0172569Y0082253D01*
X0172593Y0082290D01*
X0172620Y0082325D01*
X0172650Y0082357D01*
X0172683Y0082387D01*
X0172719Y0082413D01*
X0172756Y0082437D01*
X0172796Y0082456D01*
X0172837Y0082473D01*
X0172880Y0082485D01*
X0172923Y0082494D01*
X0172967Y0082499D01*
X0173011Y0082500D01*
X0173055Y0082497D01*
X0173099Y0082490D01*
X0173142Y0082479D01*
X0173184Y0082465D01*
X0173224Y0082447D01*
X0173263Y0082425D01*
X0173299Y0082401D01*
X0173333Y0082373D01*
X0173365Y0082342D01*
X0173394Y0082308D01*
X0173420Y0082272D01*
X0173442Y0082234D01*
X0173461Y0082194D01*
X0173476Y0082152D01*
X0173488Y0082110D01*
X0173496Y0082066D01*
X0173500Y0082022D01*
X0173500Y0081978D01*
X0173496Y0081934D01*
X0173488Y0081890D01*
X0173476Y0081848D01*
X0173461Y0081806D01*
X0173442Y0081766D01*
X0173420Y0081728D01*
X0173394Y0081692D01*
X0173365Y0081658D01*
X0173333Y0081627D01*
X0173299Y0081599D01*
X0173263Y0081575D01*
X0173224Y0081553D01*
X0173184Y0081535D01*
X0173142Y0081521D01*
X0173099Y0081510D01*
X0173055Y0081503D01*
X0173011Y0081500D01*
X0172967Y0081501D01*
X0172923Y0081506D01*
X0172880Y0081515D01*
X0172837Y0081527D01*
X0172796Y0081544D01*
X0172756Y0081563D01*
X0172719Y0081587D01*
X0172683Y0081613D01*
X0172650Y0081643D01*
X0172620Y0081675D01*
X0172593Y0081710D01*
X0172569Y0081747D01*
X0172548Y0081786D01*
X0172531Y0081827D01*
X0172518Y0081869D01*
X0172508Y0081912D01*
X0172502Y0081956D01*
X0172500Y0082000D01*
X0171437Y0088650D02*
X0171437Y0089043D01*
X0163563Y0089043D01*
X0163563Y0088650D01*
X0179293Y0097000D02*
X0179295Y0097053D01*
X0179301Y0097105D01*
X0179311Y0097157D01*
X0179324Y0097208D01*
X0179342Y0097258D01*
X0179363Y0097307D01*
X0179388Y0097354D01*
X0179416Y0097398D01*
X0179447Y0097441D01*
X0179482Y0097481D01*
X0179519Y0097518D01*
X0179559Y0097553D01*
X0179602Y0097584D01*
X0179647Y0097612D01*
X0179693Y0097637D01*
X0179742Y0097658D01*
X0179792Y0097676D01*
X0179843Y0097689D01*
X0179895Y0097699D01*
X0179947Y0097705D01*
X0180000Y0097707D01*
X0180053Y0097705D01*
X0180105Y0097699D01*
X0180157Y0097689D01*
X0180208Y0097676D01*
X0180258Y0097658D01*
X0180307Y0097637D01*
X0180354Y0097612D01*
X0180398Y0097584D01*
X0180441Y0097553D01*
X0180481Y0097518D01*
X0180518Y0097481D01*
X0180553Y0097441D01*
X0180584Y0097398D01*
X0180612Y0097353D01*
X0180637Y0097307D01*
X0180658Y0097258D01*
X0180676Y0097208D01*
X0180689Y0097157D01*
X0180699Y0097105D01*
X0180705Y0097053D01*
X0180707Y0097000D01*
X0180705Y0096947D01*
X0180699Y0096895D01*
X0180689Y0096843D01*
X0180676Y0096792D01*
X0180658Y0096742D01*
X0180637Y0096693D01*
X0180612Y0096646D01*
X0180584Y0096602D01*
X0180553Y0096559D01*
X0180518Y0096519D01*
X0180481Y0096482D01*
X0180441Y0096447D01*
X0180398Y0096416D01*
X0180353Y0096388D01*
X0180307Y0096363D01*
X0180258Y0096342D01*
X0180208Y0096324D01*
X0180157Y0096311D01*
X0180105Y0096301D01*
X0180053Y0096295D01*
X0180000Y0096293D01*
X0179947Y0096295D01*
X0179895Y0096301D01*
X0179843Y0096311D01*
X0179792Y0096324D01*
X0179742Y0096342D01*
X0179693Y0096363D01*
X0179646Y0096388D01*
X0179602Y0096416D01*
X0179559Y0096447D01*
X0179519Y0096482D01*
X0179482Y0096519D01*
X0179447Y0096559D01*
X0179416Y0096602D01*
X0179388Y0096647D01*
X0179363Y0096693D01*
X0179342Y0096742D01*
X0179324Y0096792D01*
X0179311Y0096843D01*
X0179301Y0096895D01*
X0179295Y0096947D01*
X0179293Y0097000D01*
X0181500Y0098000D02*
X0182500Y0098000D01*
X0181500Y0098000D02*
X0181500Y0105500D01*
X0182500Y0105500D01*
X0193100Y0105500D02*
X0194100Y0105500D01*
X0194100Y0098000D01*
X0193100Y0098000D01*
X0193100Y0069500D02*
X0194100Y0069500D01*
X0194100Y0062000D01*
X0193100Y0062000D01*
X0193100Y0033500D02*
X0194100Y0033500D01*
X0194100Y0026000D01*
X0193100Y0026000D01*
X0182500Y0026000D02*
X0181500Y0026000D01*
X0181500Y0033500D01*
X0182500Y0033500D01*
X0179293Y0025000D02*
X0179295Y0025053D01*
X0179301Y0025105D01*
X0179311Y0025157D01*
X0179324Y0025208D01*
X0179342Y0025258D01*
X0179363Y0025307D01*
X0179388Y0025354D01*
X0179416Y0025398D01*
X0179447Y0025441D01*
X0179482Y0025481D01*
X0179519Y0025518D01*
X0179559Y0025553D01*
X0179602Y0025584D01*
X0179647Y0025612D01*
X0179693Y0025637D01*
X0179742Y0025658D01*
X0179792Y0025676D01*
X0179843Y0025689D01*
X0179895Y0025699D01*
X0179947Y0025705D01*
X0180000Y0025707D01*
X0180053Y0025705D01*
X0180105Y0025699D01*
X0180157Y0025689D01*
X0180208Y0025676D01*
X0180258Y0025658D01*
X0180307Y0025637D01*
X0180354Y0025612D01*
X0180398Y0025584D01*
X0180441Y0025553D01*
X0180481Y0025518D01*
X0180518Y0025481D01*
X0180553Y0025441D01*
X0180584Y0025398D01*
X0180612Y0025353D01*
X0180637Y0025307D01*
X0180658Y0025258D01*
X0180676Y0025208D01*
X0180689Y0025157D01*
X0180699Y0025105D01*
X0180705Y0025053D01*
X0180707Y0025000D01*
X0180705Y0024947D01*
X0180699Y0024895D01*
X0180689Y0024843D01*
X0180676Y0024792D01*
X0180658Y0024742D01*
X0180637Y0024693D01*
X0180612Y0024646D01*
X0180584Y0024602D01*
X0180553Y0024559D01*
X0180518Y0024519D01*
X0180481Y0024482D01*
X0180441Y0024447D01*
X0180398Y0024416D01*
X0180353Y0024388D01*
X0180307Y0024363D01*
X0180258Y0024342D01*
X0180208Y0024324D01*
X0180157Y0024311D01*
X0180105Y0024301D01*
X0180053Y0024295D01*
X0180000Y0024293D01*
X0179947Y0024295D01*
X0179895Y0024301D01*
X0179843Y0024311D01*
X0179792Y0024324D01*
X0179742Y0024342D01*
X0179693Y0024363D01*
X0179646Y0024388D01*
X0179602Y0024416D01*
X0179559Y0024447D01*
X0179519Y0024482D01*
X0179482Y0024519D01*
X0179447Y0024559D01*
X0179416Y0024602D01*
X0179388Y0024647D01*
X0179363Y0024693D01*
X0179342Y0024742D01*
X0179324Y0024792D01*
X0179311Y0024843D01*
X0179301Y0024895D01*
X0179295Y0024947D01*
X0179293Y0025000D01*
X0107350Y0017563D02*
X0106957Y0017563D01*
X0106500Y0016000D02*
X0106502Y0016044D01*
X0106508Y0016088D01*
X0106518Y0016131D01*
X0106531Y0016173D01*
X0106548Y0016214D01*
X0106569Y0016253D01*
X0106593Y0016290D01*
X0106620Y0016325D01*
X0106650Y0016357D01*
X0106683Y0016387D01*
X0106719Y0016413D01*
X0106756Y0016437D01*
X0106796Y0016456D01*
X0106837Y0016473D01*
X0106880Y0016485D01*
X0106923Y0016494D01*
X0106967Y0016499D01*
X0107011Y0016500D01*
X0107055Y0016497D01*
X0107099Y0016490D01*
X0107142Y0016479D01*
X0107184Y0016465D01*
X0107224Y0016447D01*
X0107263Y0016425D01*
X0107299Y0016401D01*
X0107333Y0016373D01*
X0107365Y0016342D01*
X0107394Y0016308D01*
X0107420Y0016272D01*
X0107442Y0016234D01*
X0107461Y0016194D01*
X0107476Y0016152D01*
X0107488Y0016110D01*
X0107496Y0016066D01*
X0107500Y0016022D01*
X0107500Y0015978D01*
X0107496Y0015934D01*
X0107488Y0015890D01*
X0107476Y0015848D01*
X0107461Y0015806D01*
X0107442Y0015766D01*
X0107420Y0015728D01*
X0107394Y0015692D01*
X0107365Y0015658D01*
X0107333Y0015627D01*
X0107299Y0015599D01*
X0107263Y0015575D01*
X0107224Y0015553D01*
X0107184Y0015535D01*
X0107142Y0015521D01*
X0107099Y0015510D01*
X0107055Y0015503D01*
X0107011Y0015500D01*
X0106967Y0015501D01*
X0106923Y0015506D01*
X0106880Y0015515D01*
X0106837Y0015527D01*
X0106796Y0015544D01*
X0106756Y0015563D01*
X0106719Y0015587D01*
X0106683Y0015613D01*
X0106650Y0015643D01*
X0106620Y0015675D01*
X0106593Y0015710D01*
X0106569Y0015747D01*
X0106548Y0015786D01*
X0106531Y0015827D01*
X0106518Y0015869D01*
X0106508Y0015912D01*
X0106502Y0015956D01*
X0106500Y0016000D01*
X0098350Y0017563D02*
X0097957Y0017563D01*
X0097500Y0016000D02*
X0097502Y0016044D01*
X0097508Y0016088D01*
X0097518Y0016131D01*
X0097531Y0016173D01*
X0097548Y0016214D01*
X0097569Y0016253D01*
X0097593Y0016290D01*
X0097620Y0016325D01*
X0097650Y0016357D01*
X0097683Y0016387D01*
X0097719Y0016413D01*
X0097756Y0016437D01*
X0097796Y0016456D01*
X0097837Y0016473D01*
X0097880Y0016485D01*
X0097923Y0016494D01*
X0097967Y0016499D01*
X0098011Y0016500D01*
X0098055Y0016497D01*
X0098099Y0016490D01*
X0098142Y0016479D01*
X0098184Y0016465D01*
X0098224Y0016447D01*
X0098263Y0016425D01*
X0098299Y0016401D01*
X0098333Y0016373D01*
X0098365Y0016342D01*
X0098394Y0016308D01*
X0098420Y0016272D01*
X0098442Y0016234D01*
X0098461Y0016194D01*
X0098476Y0016152D01*
X0098488Y0016110D01*
X0098496Y0016066D01*
X0098500Y0016022D01*
X0098500Y0015978D01*
X0098496Y0015934D01*
X0098488Y0015890D01*
X0098476Y0015848D01*
X0098461Y0015806D01*
X0098442Y0015766D01*
X0098420Y0015728D01*
X0098394Y0015692D01*
X0098365Y0015658D01*
X0098333Y0015627D01*
X0098299Y0015599D01*
X0098263Y0015575D01*
X0098224Y0015553D01*
X0098184Y0015535D01*
X0098142Y0015521D01*
X0098099Y0015510D01*
X0098055Y0015503D01*
X0098011Y0015500D01*
X0097967Y0015501D01*
X0097923Y0015506D01*
X0097880Y0015515D01*
X0097837Y0015527D01*
X0097796Y0015544D01*
X0097756Y0015563D01*
X0097719Y0015587D01*
X0097683Y0015613D01*
X0097650Y0015643D01*
X0097620Y0015675D01*
X0097593Y0015710D01*
X0097569Y0015747D01*
X0097548Y0015786D01*
X0097531Y0015827D01*
X0097518Y0015869D01*
X0097508Y0015912D01*
X0097502Y0015956D01*
X0097500Y0016000D01*
X0067437Y0047650D02*
X0067437Y0048043D01*
X0059563Y0048043D01*
X0059563Y0047650D01*
X0059563Y0051957D02*
X0059563Y0052350D01*
X0059563Y0051957D02*
X0067437Y0051957D01*
X0067437Y0052350D01*
X0068500Y0052000D02*
X0068502Y0052044D01*
X0068508Y0052088D01*
X0068518Y0052131D01*
X0068531Y0052173D01*
X0068548Y0052214D01*
X0068569Y0052253D01*
X0068593Y0052290D01*
X0068620Y0052325D01*
X0068650Y0052357D01*
X0068683Y0052387D01*
X0068719Y0052413D01*
X0068756Y0052437D01*
X0068796Y0052456D01*
X0068837Y0052473D01*
X0068880Y0052485D01*
X0068923Y0052494D01*
X0068967Y0052499D01*
X0069011Y0052500D01*
X0069055Y0052497D01*
X0069099Y0052490D01*
X0069142Y0052479D01*
X0069184Y0052465D01*
X0069224Y0052447D01*
X0069263Y0052425D01*
X0069299Y0052401D01*
X0069333Y0052373D01*
X0069365Y0052342D01*
X0069394Y0052308D01*
X0069420Y0052272D01*
X0069442Y0052234D01*
X0069461Y0052194D01*
X0069476Y0052152D01*
X0069488Y0052110D01*
X0069496Y0052066D01*
X0069500Y0052022D01*
X0069500Y0051978D01*
X0069496Y0051934D01*
X0069488Y0051890D01*
X0069476Y0051848D01*
X0069461Y0051806D01*
X0069442Y0051766D01*
X0069420Y0051728D01*
X0069394Y0051692D01*
X0069365Y0051658D01*
X0069333Y0051627D01*
X0069299Y0051599D01*
X0069263Y0051575D01*
X0069224Y0051553D01*
X0069184Y0051535D01*
X0069142Y0051521D01*
X0069099Y0051510D01*
X0069055Y0051503D01*
X0069011Y0051500D01*
X0068967Y0051501D01*
X0068923Y0051506D01*
X0068880Y0051515D01*
X0068837Y0051527D01*
X0068796Y0051544D01*
X0068756Y0051563D01*
X0068719Y0051587D01*
X0068683Y0051613D01*
X0068650Y0051643D01*
X0068620Y0051675D01*
X0068593Y0051710D01*
X0068569Y0051747D01*
X0068548Y0051786D01*
X0068531Y0051827D01*
X0068518Y0051869D01*
X0068508Y0051912D01*
X0068502Y0051956D01*
X0068500Y0052000D01*
X0067437Y0058650D02*
X0067437Y0059043D01*
X0059563Y0059043D01*
X0059563Y0058650D01*
X0059563Y0062957D02*
X0059563Y0063350D01*
X0059563Y0062957D02*
X0067437Y0062957D01*
X0067437Y0063350D01*
X0068500Y0063000D02*
X0068502Y0063044D01*
X0068508Y0063088D01*
X0068518Y0063131D01*
X0068531Y0063173D01*
X0068548Y0063214D01*
X0068569Y0063253D01*
X0068593Y0063290D01*
X0068620Y0063325D01*
X0068650Y0063357D01*
X0068683Y0063387D01*
X0068719Y0063413D01*
X0068756Y0063437D01*
X0068796Y0063456D01*
X0068837Y0063473D01*
X0068880Y0063485D01*
X0068923Y0063494D01*
X0068967Y0063499D01*
X0069011Y0063500D01*
X0069055Y0063497D01*
X0069099Y0063490D01*
X0069142Y0063479D01*
X0069184Y0063465D01*
X0069224Y0063447D01*
X0069263Y0063425D01*
X0069299Y0063401D01*
X0069333Y0063373D01*
X0069365Y0063342D01*
X0069394Y0063308D01*
X0069420Y0063272D01*
X0069442Y0063234D01*
X0069461Y0063194D01*
X0069476Y0063152D01*
X0069488Y0063110D01*
X0069496Y0063066D01*
X0069500Y0063022D01*
X0069500Y0062978D01*
X0069496Y0062934D01*
X0069488Y0062890D01*
X0069476Y0062848D01*
X0069461Y0062806D01*
X0069442Y0062766D01*
X0069420Y0062728D01*
X0069394Y0062692D01*
X0069365Y0062658D01*
X0069333Y0062627D01*
X0069299Y0062599D01*
X0069263Y0062575D01*
X0069224Y0062553D01*
X0069184Y0062535D01*
X0069142Y0062521D01*
X0069099Y0062510D01*
X0069055Y0062503D01*
X0069011Y0062500D01*
X0068967Y0062501D01*
X0068923Y0062506D01*
X0068880Y0062515D01*
X0068837Y0062527D01*
X0068796Y0062544D01*
X0068756Y0062563D01*
X0068719Y0062587D01*
X0068683Y0062613D01*
X0068650Y0062643D01*
X0068620Y0062675D01*
X0068593Y0062710D01*
X0068569Y0062747D01*
X0068548Y0062786D01*
X0068531Y0062827D01*
X0068518Y0062869D01*
X0068508Y0062912D01*
X0068502Y0062956D01*
X0068500Y0063000D01*
X0067437Y0069650D02*
X0067437Y0070043D01*
X0059563Y0070043D01*
X0059563Y0069650D01*
X0059563Y0073957D02*
X0059563Y0074350D01*
X0059563Y0073957D02*
X0067437Y0073957D01*
X0067437Y0074350D01*
X0068500Y0074000D02*
X0068502Y0074044D01*
X0068508Y0074088D01*
X0068518Y0074131D01*
X0068531Y0074173D01*
X0068548Y0074214D01*
X0068569Y0074253D01*
X0068593Y0074290D01*
X0068620Y0074325D01*
X0068650Y0074357D01*
X0068683Y0074387D01*
X0068719Y0074413D01*
X0068756Y0074437D01*
X0068796Y0074456D01*
X0068837Y0074473D01*
X0068880Y0074485D01*
X0068923Y0074494D01*
X0068967Y0074499D01*
X0069011Y0074500D01*
X0069055Y0074497D01*
X0069099Y0074490D01*
X0069142Y0074479D01*
X0069184Y0074465D01*
X0069224Y0074447D01*
X0069263Y0074425D01*
X0069299Y0074401D01*
X0069333Y0074373D01*
X0069365Y0074342D01*
X0069394Y0074308D01*
X0069420Y0074272D01*
X0069442Y0074234D01*
X0069461Y0074194D01*
X0069476Y0074152D01*
X0069488Y0074110D01*
X0069496Y0074066D01*
X0069500Y0074022D01*
X0069500Y0073978D01*
X0069496Y0073934D01*
X0069488Y0073890D01*
X0069476Y0073848D01*
X0069461Y0073806D01*
X0069442Y0073766D01*
X0069420Y0073728D01*
X0069394Y0073692D01*
X0069365Y0073658D01*
X0069333Y0073627D01*
X0069299Y0073599D01*
X0069263Y0073575D01*
X0069224Y0073553D01*
X0069184Y0073535D01*
X0069142Y0073521D01*
X0069099Y0073510D01*
X0069055Y0073503D01*
X0069011Y0073500D01*
X0068967Y0073501D01*
X0068923Y0073506D01*
X0068880Y0073515D01*
X0068837Y0073527D01*
X0068796Y0073544D01*
X0068756Y0073563D01*
X0068719Y0073587D01*
X0068683Y0073613D01*
X0068650Y0073643D01*
X0068620Y0073675D01*
X0068593Y0073710D01*
X0068569Y0073747D01*
X0068548Y0073786D01*
X0068531Y0073827D01*
X0068518Y0073869D01*
X0068508Y0073912D01*
X0068502Y0073956D01*
X0068500Y0074000D01*
X0067437Y0080650D02*
X0067437Y0081043D01*
X0059563Y0081043D01*
X0059563Y0080650D01*
X0059563Y0084957D02*
X0059563Y0085350D01*
X0059563Y0084957D02*
X0067437Y0084957D01*
X0067437Y0085350D01*
X0068500Y0085000D02*
X0068502Y0085044D01*
X0068508Y0085088D01*
X0068518Y0085131D01*
X0068531Y0085173D01*
X0068548Y0085214D01*
X0068569Y0085253D01*
X0068593Y0085290D01*
X0068620Y0085325D01*
X0068650Y0085357D01*
X0068683Y0085387D01*
X0068719Y0085413D01*
X0068756Y0085437D01*
X0068796Y0085456D01*
X0068837Y0085473D01*
X0068880Y0085485D01*
X0068923Y0085494D01*
X0068967Y0085499D01*
X0069011Y0085500D01*
X0069055Y0085497D01*
X0069099Y0085490D01*
X0069142Y0085479D01*
X0069184Y0085465D01*
X0069224Y0085447D01*
X0069263Y0085425D01*
X0069299Y0085401D01*
X0069333Y0085373D01*
X0069365Y0085342D01*
X0069394Y0085308D01*
X0069420Y0085272D01*
X0069442Y0085234D01*
X0069461Y0085194D01*
X0069476Y0085152D01*
X0069488Y0085110D01*
X0069496Y0085066D01*
X0069500Y0085022D01*
X0069500Y0084978D01*
X0069496Y0084934D01*
X0069488Y0084890D01*
X0069476Y0084848D01*
X0069461Y0084806D01*
X0069442Y0084766D01*
X0069420Y0084728D01*
X0069394Y0084692D01*
X0069365Y0084658D01*
X0069333Y0084627D01*
X0069299Y0084599D01*
X0069263Y0084575D01*
X0069224Y0084553D01*
X0069184Y0084535D01*
X0069142Y0084521D01*
X0069099Y0084510D01*
X0069055Y0084503D01*
X0069011Y0084500D01*
X0068967Y0084501D01*
X0068923Y0084506D01*
X0068880Y0084515D01*
X0068837Y0084527D01*
X0068796Y0084544D01*
X0068756Y0084563D01*
X0068719Y0084587D01*
X0068683Y0084613D01*
X0068650Y0084643D01*
X0068620Y0084675D01*
X0068593Y0084710D01*
X0068569Y0084747D01*
X0068548Y0084786D01*
X0068531Y0084827D01*
X0068518Y0084869D01*
X0068508Y0084912D01*
X0068502Y0084956D01*
X0068500Y0085000D01*
X0067437Y0091650D02*
X0067437Y0092043D01*
X0059563Y0092043D01*
X0059563Y0091650D01*
X0051437Y0087043D02*
X0051437Y0086650D01*
X0051437Y0087043D02*
X0043563Y0087043D01*
X0043563Y0086650D01*
X0041500Y0087000D02*
X0041502Y0087044D01*
X0041508Y0087088D01*
X0041518Y0087131D01*
X0041531Y0087173D01*
X0041548Y0087214D01*
X0041569Y0087253D01*
X0041593Y0087290D01*
X0041620Y0087325D01*
X0041650Y0087357D01*
X0041683Y0087387D01*
X0041719Y0087413D01*
X0041756Y0087437D01*
X0041796Y0087456D01*
X0041837Y0087473D01*
X0041880Y0087485D01*
X0041923Y0087494D01*
X0041967Y0087499D01*
X0042011Y0087500D01*
X0042055Y0087497D01*
X0042099Y0087490D01*
X0042142Y0087479D01*
X0042184Y0087465D01*
X0042224Y0087447D01*
X0042263Y0087425D01*
X0042299Y0087401D01*
X0042333Y0087373D01*
X0042365Y0087342D01*
X0042394Y0087308D01*
X0042420Y0087272D01*
X0042442Y0087234D01*
X0042461Y0087194D01*
X0042476Y0087152D01*
X0042488Y0087110D01*
X0042496Y0087066D01*
X0042500Y0087022D01*
X0042500Y0086978D01*
X0042496Y0086934D01*
X0042488Y0086890D01*
X0042476Y0086848D01*
X0042461Y0086806D01*
X0042442Y0086766D01*
X0042420Y0086728D01*
X0042394Y0086692D01*
X0042365Y0086658D01*
X0042333Y0086627D01*
X0042299Y0086599D01*
X0042263Y0086575D01*
X0042224Y0086553D01*
X0042184Y0086535D01*
X0042142Y0086521D01*
X0042099Y0086510D01*
X0042055Y0086503D01*
X0042011Y0086500D01*
X0041967Y0086501D01*
X0041923Y0086506D01*
X0041880Y0086515D01*
X0041837Y0086527D01*
X0041796Y0086544D01*
X0041756Y0086563D01*
X0041719Y0086587D01*
X0041683Y0086613D01*
X0041650Y0086643D01*
X0041620Y0086675D01*
X0041593Y0086710D01*
X0041569Y0086747D01*
X0041548Y0086786D01*
X0041531Y0086827D01*
X0041518Y0086869D01*
X0041508Y0086912D01*
X0041502Y0086956D01*
X0041500Y0087000D01*
X0043563Y0080350D02*
X0043563Y0079957D01*
X0051437Y0079957D01*
X0051437Y0080350D01*
X0051437Y0078043D02*
X0051437Y0077650D01*
X0051437Y0078043D02*
X0043563Y0078043D01*
X0043563Y0077650D01*
X0041500Y0078000D02*
X0041502Y0078044D01*
X0041508Y0078088D01*
X0041518Y0078131D01*
X0041531Y0078173D01*
X0041548Y0078214D01*
X0041569Y0078253D01*
X0041593Y0078290D01*
X0041620Y0078325D01*
X0041650Y0078357D01*
X0041683Y0078387D01*
X0041719Y0078413D01*
X0041756Y0078437D01*
X0041796Y0078456D01*
X0041837Y0078473D01*
X0041880Y0078485D01*
X0041923Y0078494D01*
X0041967Y0078499D01*
X0042011Y0078500D01*
X0042055Y0078497D01*
X0042099Y0078490D01*
X0042142Y0078479D01*
X0042184Y0078465D01*
X0042224Y0078447D01*
X0042263Y0078425D01*
X0042299Y0078401D01*
X0042333Y0078373D01*
X0042365Y0078342D01*
X0042394Y0078308D01*
X0042420Y0078272D01*
X0042442Y0078234D01*
X0042461Y0078194D01*
X0042476Y0078152D01*
X0042488Y0078110D01*
X0042496Y0078066D01*
X0042500Y0078022D01*
X0042500Y0077978D01*
X0042496Y0077934D01*
X0042488Y0077890D01*
X0042476Y0077848D01*
X0042461Y0077806D01*
X0042442Y0077766D01*
X0042420Y0077728D01*
X0042394Y0077692D01*
X0042365Y0077658D01*
X0042333Y0077627D01*
X0042299Y0077599D01*
X0042263Y0077575D01*
X0042224Y0077553D01*
X0042184Y0077535D01*
X0042142Y0077521D01*
X0042099Y0077510D01*
X0042055Y0077503D01*
X0042011Y0077500D01*
X0041967Y0077501D01*
X0041923Y0077506D01*
X0041880Y0077515D01*
X0041837Y0077527D01*
X0041796Y0077544D01*
X0041756Y0077563D01*
X0041719Y0077587D01*
X0041683Y0077613D01*
X0041650Y0077643D01*
X0041620Y0077675D01*
X0041593Y0077710D01*
X0041569Y0077747D01*
X0041548Y0077786D01*
X0041531Y0077827D01*
X0041518Y0077869D01*
X0041508Y0077912D01*
X0041502Y0077956D01*
X0041500Y0078000D01*
X0043563Y0071350D02*
X0043563Y0070957D01*
X0051437Y0070957D01*
X0051437Y0071350D01*
X0051437Y0069043D02*
X0051437Y0068650D01*
X0051437Y0069043D02*
X0043563Y0069043D01*
X0043563Y0068650D01*
X0041500Y0069000D02*
X0041502Y0069044D01*
X0041508Y0069088D01*
X0041518Y0069131D01*
X0041531Y0069173D01*
X0041548Y0069214D01*
X0041569Y0069253D01*
X0041593Y0069290D01*
X0041620Y0069325D01*
X0041650Y0069357D01*
X0041683Y0069387D01*
X0041719Y0069413D01*
X0041756Y0069437D01*
X0041796Y0069456D01*
X0041837Y0069473D01*
X0041880Y0069485D01*
X0041923Y0069494D01*
X0041967Y0069499D01*
X0042011Y0069500D01*
X0042055Y0069497D01*
X0042099Y0069490D01*
X0042142Y0069479D01*
X0042184Y0069465D01*
X0042224Y0069447D01*
X0042263Y0069425D01*
X0042299Y0069401D01*
X0042333Y0069373D01*
X0042365Y0069342D01*
X0042394Y0069308D01*
X0042420Y0069272D01*
X0042442Y0069234D01*
X0042461Y0069194D01*
X0042476Y0069152D01*
X0042488Y0069110D01*
X0042496Y0069066D01*
X0042500Y0069022D01*
X0042500Y0068978D01*
X0042496Y0068934D01*
X0042488Y0068890D01*
X0042476Y0068848D01*
X0042461Y0068806D01*
X0042442Y0068766D01*
X0042420Y0068728D01*
X0042394Y0068692D01*
X0042365Y0068658D01*
X0042333Y0068627D01*
X0042299Y0068599D01*
X0042263Y0068575D01*
X0042224Y0068553D01*
X0042184Y0068535D01*
X0042142Y0068521D01*
X0042099Y0068510D01*
X0042055Y0068503D01*
X0042011Y0068500D01*
X0041967Y0068501D01*
X0041923Y0068506D01*
X0041880Y0068515D01*
X0041837Y0068527D01*
X0041796Y0068544D01*
X0041756Y0068563D01*
X0041719Y0068587D01*
X0041683Y0068613D01*
X0041650Y0068643D01*
X0041620Y0068675D01*
X0041593Y0068710D01*
X0041569Y0068747D01*
X0041548Y0068786D01*
X0041531Y0068827D01*
X0041518Y0068869D01*
X0041508Y0068912D01*
X0041502Y0068956D01*
X0041500Y0069000D01*
X0040500Y0069000D02*
X0039500Y0069000D01*
X0040500Y0069000D02*
X0040500Y0061500D01*
X0039500Y0061500D01*
X0041500Y0060000D02*
X0041502Y0060044D01*
X0041508Y0060088D01*
X0041518Y0060131D01*
X0041531Y0060173D01*
X0041548Y0060214D01*
X0041569Y0060253D01*
X0041593Y0060290D01*
X0041620Y0060325D01*
X0041650Y0060357D01*
X0041683Y0060387D01*
X0041719Y0060413D01*
X0041756Y0060437D01*
X0041796Y0060456D01*
X0041837Y0060473D01*
X0041880Y0060485D01*
X0041923Y0060494D01*
X0041967Y0060499D01*
X0042011Y0060500D01*
X0042055Y0060497D01*
X0042099Y0060490D01*
X0042142Y0060479D01*
X0042184Y0060465D01*
X0042224Y0060447D01*
X0042263Y0060425D01*
X0042299Y0060401D01*
X0042333Y0060373D01*
X0042365Y0060342D01*
X0042394Y0060308D01*
X0042420Y0060272D01*
X0042442Y0060234D01*
X0042461Y0060194D01*
X0042476Y0060152D01*
X0042488Y0060110D01*
X0042496Y0060066D01*
X0042500Y0060022D01*
X0042500Y0059978D01*
X0042496Y0059934D01*
X0042488Y0059890D01*
X0042476Y0059848D01*
X0042461Y0059806D01*
X0042442Y0059766D01*
X0042420Y0059728D01*
X0042394Y0059692D01*
X0042365Y0059658D01*
X0042333Y0059627D01*
X0042299Y0059599D01*
X0042263Y0059575D01*
X0042224Y0059553D01*
X0042184Y0059535D01*
X0042142Y0059521D01*
X0042099Y0059510D01*
X0042055Y0059503D01*
X0042011Y0059500D01*
X0041967Y0059501D01*
X0041923Y0059506D01*
X0041880Y0059515D01*
X0041837Y0059527D01*
X0041796Y0059544D01*
X0041756Y0059563D01*
X0041719Y0059587D01*
X0041683Y0059613D01*
X0041650Y0059643D01*
X0041620Y0059675D01*
X0041593Y0059710D01*
X0041569Y0059747D01*
X0041548Y0059786D01*
X0041531Y0059827D01*
X0041518Y0059869D01*
X0041508Y0059912D01*
X0041502Y0059956D01*
X0041500Y0060000D01*
X0043563Y0060043D02*
X0051437Y0060043D01*
X0051437Y0059650D01*
X0051437Y0061957D02*
X0051437Y0062350D01*
X0051437Y0061957D02*
X0043563Y0061957D01*
X0043563Y0062350D01*
X0043563Y0060043D02*
X0043563Y0059650D01*
X0043563Y0053350D02*
X0043563Y0052957D01*
X0051437Y0052957D01*
X0051437Y0053350D01*
X0051437Y0051043D02*
X0051437Y0050650D01*
X0051437Y0051043D02*
X0043563Y0051043D01*
X0043563Y0050650D01*
X0041500Y0051000D02*
X0041502Y0051044D01*
X0041508Y0051088D01*
X0041518Y0051131D01*
X0041531Y0051173D01*
X0041548Y0051214D01*
X0041569Y0051253D01*
X0041593Y0051290D01*
X0041620Y0051325D01*
X0041650Y0051357D01*
X0041683Y0051387D01*
X0041719Y0051413D01*
X0041756Y0051437D01*
X0041796Y0051456D01*
X0041837Y0051473D01*
X0041880Y0051485D01*
X0041923Y0051494D01*
X0041967Y0051499D01*
X0042011Y0051500D01*
X0042055Y0051497D01*
X0042099Y0051490D01*
X0042142Y0051479D01*
X0042184Y0051465D01*
X0042224Y0051447D01*
X0042263Y0051425D01*
X0042299Y0051401D01*
X0042333Y0051373D01*
X0042365Y0051342D01*
X0042394Y0051308D01*
X0042420Y0051272D01*
X0042442Y0051234D01*
X0042461Y0051194D01*
X0042476Y0051152D01*
X0042488Y0051110D01*
X0042496Y0051066D01*
X0042500Y0051022D01*
X0042500Y0050978D01*
X0042496Y0050934D01*
X0042488Y0050890D01*
X0042476Y0050848D01*
X0042461Y0050806D01*
X0042442Y0050766D01*
X0042420Y0050728D01*
X0042394Y0050692D01*
X0042365Y0050658D01*
X0042333Y0050627D01*
X0042299Y0050599D01*
X0042263Y0050575D01*
X0042224Y0050553D01*
X0042184Y0050535D01*
X0042142Y0050521D01*
X0042099Y0050510D01*
X0042055Y0050503D01*
X0042011Y0050500D01*
X0041967Y0050501D01*
X0041923Y0050506D01*
X0041880Y0050515D01*
X0041837Y0050527D01*
X0041796Y0050544D01*
X0041756Y0050563D01*
X0041719Y0050587D01*
X0041683Y0050613D01*
X0041650Y0050643D01*
X0041620Y0050675D01*
X0041593Y0050710D01*
X0041569Y0050747D01*
X0041548Y0050786D01*
X0041531Y0050827D01*
X0041518Y0050869D01*
X0041508Y0050912D01*
X0041502Y0050956D01*
X0041500Y0051000D01*
X0043563Y0044350D02*
X0043563Y0043957D01*
X0028900Y0061500D02*
X0027900Y0061500D01*
X0027900Y0069000D01*
X0028900Y0069000D01*
X0041293Y0070000D02*
X0041295Y0070053D01*
X0041301Y0070105D01*
X0041311Y0070157D01*
X0041324Y0070208D01*
X0041342Y0070258D01*
X0041363Y0070307D01*
X0041388Y0070354D01*
X0041416Y0070398D01*
X0041447Y0070441D01*
X0041482Y0070481D01*
X0041519Y0070518D01*
X0041559Y0070553D01*
X0041602Y0070584D01*
X0041647Y0070612D01*
X0041693Y0070637D01*
X0041742Y0070658D01*
X0041792Y0070676D01*
X0041843Y0070689D01*
X0041895Y0070699D01*
X0041947Y0070705D01*
X0042000Y0070707D01*
X0042053Y0070705D01*
X0042105Y0070699D01*
X0042157Y0070689D01*
X0042208Y0070676D01*
X0042258Y0070658D01*
X0042307Y0070637D01*
X0042354Y0070612D01*
X0042398Y0070584D01*
X0042441Y0070553D01*
X0042481Y0070518D01*
X0042518Y0070481D01*
X0042553Y0070441D01*
X0042584Y0070398D01*
X0042612Y0070353D01*
X0042637Y0070307D01*
X0042658Y0070258D01*
X0042676Y0070208D01*
X0042689Y0070157D01*
X0042699Y0070105D01*
X0042705Y0070053D01*
X0042707Y0070000D01*
X0042705Y0069947D01*
X0042699Y0069895D01*
X0042689Y0069843D01*
X0042676Y0069792D01*
X0042658Y0069742D01*
X0042637Y0069693D01*
X0042612Y0069646D01*
X0042584Y0069602D01*
X0042553Y0069559D01*
X0042518Y0069519D01*
X0042481Y0069482D01*
X0042441Y0069447D01*
X0042398Y0069416D01*
X0042353Y0069388D01*
X0042307Y0069363D01*
X0042258Y0069342D01*
X0042208Y0069324D01*
X0042157Y0069311D01*
X0042105Y0069301D01*
X0042053Y0069295D01*
X0042000Y0069293D01*
X0041947Y0069295D01*
X0041895Y0069301D01*
X0041843Y0069311D01*
X0041792Y0069324D01*
X0041742Y0069342D01*
X0041693Y0069363D01*
X0041646Y0069388D01*
X0041602Y0069416D01*
X0041559Y0069447D01*
X0041519Y0069482D01*
X0041482Y0069519D01*
X0041447Y0069559D01*
X0041416Y0069602D01*
X0041388Y0069647D01*
X0041363Y0069693D01*
X0041342Y0069742D01*
X0041324Y0069792D01*
X0041311Y0069843D01*
X0041301Y0069895D01*
X0041295Y0069947D01*
X0041293Y0070000D01*
X0039500Y0097500D02*
X0039500Y0105000D01*
X0038500Y0105000D01*
X0040293Y0106000D02*
X0040295Y0106053D01*
X0040301Y0106105D01*
X0040311Y0106157D01*
X0040324Y0106208D01*
X0040342Y0106258D01*
X0040363Y0106307D01*
X0040388Y0106354D01*
X0040416Y0106398D01*
X0040447Y0106441D01*
X0040482Y0106481D01*
X0040519Y0106518D01*
X0040559Y0106553D01*
X0040602Y0106584D01*
X0040647Y0106612D01*
X0040693Y0106637D01*
X0040742Y0106658D01*
X0040792Y0106676D01*
X0040843Y0106689D01*
X0040895Y0106699D01*
X0040947Y0106705D01*
X0041000Y0106707D01*
X0041053Y0106705D01*
X0041105Y0106699D01*
X0041157Y0106689D01*
X0041208Y0106676D01*
X0041258Y0106658D01*
X0041307Y0106637D01*
X0041354Y0106612D01*
X0041398Y0106584D01*
X0041441Y0106553D01*
X0041481Y0106518D01*
X0041518Y0106481D01*
X0041553Y0106441D01*
X0041584Y0106398D01*
X0041612Y0106353D01*
X0041637Y0106307D01*
X0041658Y0106258D01*
X0041676Y0106208D01*
X0041689Y0106157D01*
X0041699Y0106105D01*
X0041705Y0106053D01*
X0041707Y0106000D01*
X0041705Y0105947D01*
X0041699Y0105895D01*
X0041689Y0105843D01*
X0041676Y0105792D01*
X0041658Y0105742D01*
X0041637Y0105693D01*
X0041612Y0105646D01*
X0041584Y0105602D01*
X0041553Y0105559D01*
X0041518Y0105519D01*
X0041481Y0105482D01*
X0041441Y0105447D01*
X0041398Y0105416D01*
X0041353Y0105388D01*
X0041307Y0105363D01*
X0041258Y0105342D01*
X0041208Y0105324D01*
X0041157Y0105311D01*
X0041105Y0105301D01*
X0041053Y0105295D01*
X0041000Y0105293D01*
X0040947Y0105295D01*
X0040895Y0105301D01*
X0040843Y0105311D01*
X0040792Y0105324D01*
X0040742Y0105342D01*
X0040693Y0105363D01*
X0040646Y0105388D01*
X0040602Y0105416D01*
X0040559Y0105447D01*
X0040519Y0105482D01*
X0040482Y0105519D01*
X0040447Y0105559D01*
X0040416Y0105602D01*
X0040388Y0105647D01*
X0040363Y0105693D01*
X0040342Y0105742D01*
X0040324Y0105792D01*
X0040311Y0105843D01*
X0040301Y0105895D01*
X0040295Y0105947D01*
X0040293Y0106000D01*
X0039500Y0097500D02*
X0038500Y0097500D01*
X0027900Y0097500D02*
X0026900Y0097500D01*
X0026900Y0105000D01*
X0027900Y0105000D01*
X0027900Y0133500D02*
X0026900Y0133500D01*
X0026900Y0141000D01*
X0027900Y0141000D01*
X0038500Y0141000D02*
X0039500Y0141000D01*
X0039500Y0133500D01*
X0038500Y0133500D01*
X0040293Y0142000D02*
X0040295Y0142053D01*
X0040301Y0142105D01*
X0040311Y0142157D01*
X0040324Y0142208D01*
X0040342Y0142258D01*
X0040363Y0142307D01*
X0040388Y0142354D01*
X0040416Y0142398D01*
X0040447Y0142441D01*
X0040482Y0142481D01*
X0040519Y0142518D01*
X0040559Y0142553D01*
X0040602Y0142584D01*
X0040647Y0142612D01*
X0040693Y0142637D01*
X0040742Y0142658D01*
X0040792Y0142676D01*
X0040843Y0142689D01*
X0040895Y0142699D01*
X0040947Y0142705D01*
X0041000Y0142707D01*
X0041053Y0142705D01*
X0041105Y0142699D01*
X0041157Y0142689D01*
X0041208Y0142676D01*
X0041258Y0142658D01*
X0041307Y0142637D01*
X0041354Y0142612D01*
X0041398Y0142584D01*
X0041441Y0142553D01*
X0041481Y0142518D01*
X0041518Y0142481D01*
X0041553Y0142441D01*
X0041584Y0142398D01*
X0041612Y0142353D01*
X0041637Y0142307D01*
X0041658Y0142258D01*
X0041676Y0142208D01*
X0041689Y0142157D01*
X0041699Y0142105D01*
X0041705Y0142053D01*
X0041707Y0142000D01*
X0041705Y0141947D01*
X0041699Y0141895D01*
X0041689Y0141843D01*
X0041676Y0141792D01*
X0041658Y0141742D01*
X0041637Y0141693D01*
X0041612Y0141646D01*
X0041584Y0141602D01*
X0041553Y0141559D01*
X0041518Y0141519D01*
X0041481Y0141482D01*
X0041441Y0141447D01*
X0041398Y0141416D01*
X0041353Y0141388D01*
X0041307Y0141363D01*
X0041258Y0141342D01*
X0041208Y0141324D01*
X0041157Y0141311D01*
X0041105Y0141301D01*
X0041053Y0141295D01*
X0041000Y0141293D01*
X0040947Y0141295D01*
X0040895Y0141301D01*
X0040843Y0141311D01*
X0040792Y0141324D01*
X0040742Y0141342D01*
X0040693Y0141363D01*
X0040646Y0141388D01*
X0040602Y0141416D01*
X0040559Y0141447D01*
X0040519Y0141482D01*
X0040482Y0141519D01*
X0040447Y0141559D01*
X0040416Y0141602D01*
X0040388Y0141647D01*
X0040363Y0141693D01*
X0040342Y0141742D01*
X0040324Y0141792D01*
X0040311Y0141843D01*
X0040301Y0141895D01*
X0040295Y0141947D01*
X0040293Y0142000D01*
X0020500Y0153500D02*
X0100500Y0153500D01*
X0100500Y0163500D01*
X0020500Y0163500D01*
X0020500Y0153500D01*
X0083957Y0129437D02*
X0083957Y0121563D01*
X0084350Y0121563D01*
X0090650Y0121563D02*
X0091043Y0121563D01*
X0091043Y0129437D01*
X0090650Y0129437D01*
X0090500Y0131000D02*
X0090502Y0131044D01*
X0090508Y0131088D01*
X0090518Y0131131D01*
X0090531Y0131173D01*
X0090548Y0131214D01*
X0090569Y0131253D01*
X0090593Y0131290D01*
X0090620Y0131325D01*
X0090650Y0131357D01*
X0090683Y0131387D01*
X0090719Y0131413D01*
X0090756Y0131437D01*
X0090796Y0131456D01*
X0090837Y0131473D01*
X0090880Y0131485D01*
X0090923Y0131494D01*
X0090967Y0131499D01*
X0091011Y0131500D01*
X0091055Y0131497D01*
X0091099Y0131490D01*
X0091142Y0131479D01*
X0091184Y0131465D01*
X0091224Y0131447D01*
X0091263Y0131425D01*
X0091299Y0131401D01*
X0091333Y0131373D01*
X0091365Y0131342D01*
X0091394Y0131308D01*
X0091420Y0131272D01*
X0091442Y0131234D01*
X0091461Y0131194D01*
X0091476Y0131152D01*
X0091488Y0131110D01*
X0091496Y0131066D01*
X0091500Y0131022D01*
X0091500Y0130978D01*
X0091496Y0130934D01*
X0091488Y0130890D01*
X0091476Y0130848D01*
X0091461Y0130806D01*
X0091442Y0130766D01*
X0091420Y0130728D01*
X0091394Y0130692D01*
X0091365Y0130658D01*
X0091333Y0130627D01*
X0091299Y0130599D01*
X0091263Y0130575D01*
X0091224Y0130553D01*
X0091184Y0130535D01*
X0091142Y0130521D01*
X0091099Y0130510D01*
X0091055Y0130503D01*
X0091011Y0130500D01*
X0090967Y0130501D01*
X0090923Y0130506D01*
X0090880Y0130515D01*
X0090837Y0130527D01*
X0090796Y0130544D01*
X0090756Y0130563D01*
X0090719Y0130587D01*
X0090683Y0130613D01*
X0090650Y0130643D01*
X0090620Y0130675D01*
X0090593Y0130710D01*
X0090569Y0130747D01*
X0090548Y0130786D01*
X0090531Y0130827D01*
X0090518Y0130869D01*
X0090508Y0130912D01*
X0090502Y0130956D01*
X0090500Y0131000D01*
X0093957Y0129437D02*
X0093957Y0121563D01*
X0094350Y0121563D01*
X0100650Y0121563D02*
X0101043Y0121563D01*
X0101043Y0129437D01*
X0100650Y0129437D01*
X0100500Y0131000D02*
X0100502Y0131044D01*
X0100508Y0131088D01*
X0100518Y0131131D01*
X0100531Y0131173D01*
X0100548Y0131214D01*
X0100569Y0131253D01*
X0100593Y0131290D01*
X0100620Y0131325D01*
X0100650Y0131357D01*
X0100683Y0131387D01*
X0100719Y0131413D01*
X0100756Y0131437D01*
X0100796Y0131456D01*
X0100837Y0131473D01*
X0100880Y0131485D01*
X0100923Y0131494D01*
X0100967Y0131499D01*
X0101011Y0131500D01*
X0101055Y0131497D01*
X0101099Y0131490D01*
X0101142Y0131479D01*
X0101184Y0131465D01*
X0101224Y0131447D01*
X0101263Y0131425D01*
X0101299Y0131401D01*
X0101333Y0131373D01*
X0101365Y0131342D01*
X0101394Y0131308D01*
X0101420Y0131272D01*
X0101442Y0131234D01*
X0101461Y0131194D01*
X0101476Y0131152D01*
X0101488Y0131110D01*
X0101496Y0131066D01*
X0101500Y0131022D01*
X0101500Y0130978D01*
X0101496Y0130934D01*
X0101488Y0130890D01*
X0101476Y0130848D01*
X0101461Y0130806D01*
X0101442Y0130766D01*
X0101420Y0130728D01*
X0101394Y0130692D01*
X0101365Y0130658D01*
X0101333Y0130627D01*
X0101299Y0130599D01*
X0101263Y0130575D01*
X0101224Y0130553D01*
X0101184Y0130535D01*
X0101142Y0130521D01*
X0101099Y0130510D01*
X0101055Y0130503D01*
X0101011Y0130500D01*
X0100967Y0130501D01*
X0100923Y0130506D01*
X0100880Y0130515D01*
X0100837Y0130527D01*
X0100796Y0130544D01*
X0100756Y0130563D01*
X0100719Y0130587D01*
X0100683Y0130613D01*
X0100650Y0130643D01*
X0100620Y0130675D01*
X0100593Y0130710D01*
X0100569Y0130747D01*
X0100548Y0130786D01*
X0100531Y0130827D01*
X0100518Y0130869D01*
X0100508Y0130912D01*
X0100502Y0130956D01*
X0100500Y0131000D01*
X0103957Y0129437D02*
X0103957Y0121563D01*
X0104350Y0121563D01*
X0110650Y0121563D02*
X0111043Y0121563D01*
X0111043Y0129437D01*
X0110650Y0129437D01*
X0110500Y0131000D02*
X0110502Y0131044D01*
X0110508Y0131088D01*
X0110518Y0131131D01*
X0110531Y0131173D01*
X0110548Y0131214D01*
X0110569Y0131253D01*
X0110593Y0131290D01*
X0110620Y0131325D01*
X0110650Y0131357D01*
X0110683Y0131387D01*
X0110719Y0131413D01*
X0110756Y0131437D01*
X0110796Y0131456D01*
X0110837Y0131473D01*
X0110880Y0131485D01*
X0110923Y0131494D01*
X0110967Y0131499D01*
X0111011Y0131500D01*
X0111055Y0131497D01*
X0111099Y0131490D01*
X0111142Y0131479D01*
X0111184Y0131465D01*
X0111224Y0131447D01*
X0111263Y0131425D01*
X0111299Y0131401D01*
X0111333Y0131373D01*
X0111365Y0131342D01*
X0111394Y0131308D01*
X0111420Y0131272D01*
X0111442Y0131234D01*
X0111461Y0131194D01*
X0111476Y0131152D01*
X0111488Y0131110D01*
X0111496Y0131066D01*
X0111500Y0131022D01*
X0111500Y0130978D01*
X0111496Y0130934D01*
X0111488Y0130890D01*
X0111476Y0130848D01*
X0111461Y0130806D01*
X0111442Y0130766D01*
X0111420Y0130728D01*
X0111394Y0130692D01*
X0111365Y0130658D01*
X0111333Y0130627D01*
X0111299Y0130599D01*
X0111263Y0130575D01*
X0111224Y0130553D01*
X0111184Y0130535D01*
X0111142Y0130521D01*
X0111099Y0130510D01*
X0111055Y0130503D01*
X0111011Y0130500D01*
X0110967Y0130501D01*
X0110923Y0130506D01*
X0110880Y0130515D01*
X0110837Y0130527D01*
X0110796Y0130544D01*
X0110756Y0130563D01*
X0110719Y0130587D01*
X0110683Y0130613D01*
X0110650Y0130643D01*
X0110620Y0130675D01*
X0110593Y0130710D01*
X0110569Y0130747D01*
X0110548Y0130786D01*
X0110531Y0130827D01*
X0110518Y0130869D01*
X0110508Y0130912D01*
X0110502Y0130956D01*
X0110500Y0131000D01*
X0113957Y0129437D02*
X0113957Y0121563D01*
X0114350Y0121563D01*
X0120650Y0121563D02*
X0121043Y0121563D01*
X0121043Y0129437D01*
X0120650Y0129437D01*
X0120500Y0131000D02*
X0120502Y0131044D01*
X0120508Y0131088D01*
X0120518Y0131131D01*
X0120531Y0131173D01*
X0120548Y0131214D01*
X0120569Y0131253D01*
X0120593Y0131290D01*
X0120620Y0131325D01*
X0120650Y0131357D01*
X0120683Y0131387D01*
X0120719Y0131413D01*
X0120756Y0131437D01*
X0120796Y0131456D01*
X0120837Y0131473D01*
X0120880Y0131485D01*
X0120923Y0131494D01*
X0120967Y0131499D01*
X0121011Y0131500D01*
X0121055Y0131497D01*
X0121099Y0131490D01*
X0121142Y0131479D01*
X0121184Y0131465D01*
X0121224Y0131447D01*
X0121263Y0131425D01*
X0121299Y0131401D01*
X0121333Y0131373D01*
X0121365Y0131342D01*
X0121394Y0131308D01*
X0121420Y0131272D01*
X0121442Y0131234D01*
X0121461Y0131194D01*
X0121476Y0131152D01*
X0121488Y0131110D01*
X0121496Y0131066D01*
X0121500Y0131022D01*
X0121500Y0130978D01*
X0121496Y0130934D01*
X0121488Y0130890D01*
X0121476Y0130848D01*
X0121461Y0130806D01*
X0121442Y0130766D01*
X0121420Y0130728D01*
X0121394Y0130692D01*
X0121365Y0130658D01*
X0121333Y0130627D01*
X0121299Y0130599D01*
X0121263Y0130575D01*
X0121224Y0130553D01*
X0121184Y0130535D01*
X0121142Y0130521D01*
X0121099Y0130510D01*
X0121055Y0130503D01*
X0121011Y0130500D01*
X0120967Y0130501D01*
X0120923Y0130506D01*
X0120880Y0130515D01*
X0120837Y0130527D01*
X0120796Y0130544D01*
X0120756Y0130563D01*
X0120719Y0130587D01*
X0120683Y0130613D01*
X0120650Y0130643D01*
X0120620Y0130675D01*
X0120593Y0130710D01*
X0120569Y0130747D01*
X0120548Y0130786D01*
X0120531Y0130827D01*
X0120518Y0130869D01*
X0120508Y0130912D01*
X0120502Y0130956D01*
X0120500Y0131000D01*
X0123957Y0129437D02*
X0123957Y0121563D01*
X0124350Y0121563D01*
X0130650Y0121563D02*
X0131043Y0121563D01*
X0131043Y0129437D01*
X0130650Y0129437D01*
X0130500Y0131000D02*
X0130502Y0131044D01*
X0130508Y0131088D01*
X0130518Y0131131D01*
X0130531Y0131173D01*
X0130548Y0131214D01*
X0130569Y0131253D01*
X0130593Y0131290D01*
X0130620Y0131325D01*
X0130650Y0131357D01*
X0130683Y0131387D01*
X0130719Y0131413D01*
X0130756Y0131437D01*
X0130796Y0131456D01*
X0130837Y0131473D01*
X0130880Y0131485D01*
X0130923Y0131494D01*
X0130967Y0131499D01*
X0131011Y0131500D01*
X0131055Y0131497D01*
X0131099Y0131490D01*
X0131142Y0131479D01*
X0131184Y0131465D01*
X0131224Y0131447D01*
X0131263Y0131425D01*
X0131299Y0131401D01*
X0131333Y0131373D01*
X0131365Y0131342D01*
X0131394Y0131308D01*
X0131420Y0131272D01*
X0131442Y0131234D01*
X0131461Y0131194D01*
X0131476Y0131152D01*
X0131488Y0131110D01*
X0131496Y0131066D01*
X0131500Y0131022D01*
X0131500Y0130978D01*
X0131496Y0130934D01*
X0131488Y0130890D01*
X0131476Y0130848D01*
X0131461Y0130806D01*
X0131442Y0130766D01*
X0131420Y0130728D01*
X0131394Y0130692D01*
X0131365Y0130658D01*
X0131333Y0130627D01*
X0131299Y0130599D01*
X0131263Y0130575D01*
X0131224Y0130553D01*
X0131184Y0130535D01*
X0131142Y0130521D01*
X0131099Y0130510D01*
X0131055Y0130503D01*
X0131011Y0130500D01*
X0130967Y0130501D01*
X0130923Y0130506D01*
X0130880Y0130515D01*
X0130837Y0130527D01*
X0130796Y0130544D01*
X0130756Y0130563D01*
X0130719Y0130587D01*
X0130683Y0130613D01*
X0130650Y0130643D01*
X0130620Y0130675D01*
X0130593Y0130710D01*
X0130569Y0130747D01*
X0130548Y0130786D01*
X0130531Y0130827D01*
X0130518Y0130869D01*
X0130508Y0130912D01*
X0130502Y0130956D01*
X0130500Y0131000D01*
X0124350Y0129437D02*
X0123957Y0129437D01*
X0114350Y0129437D02*
X0113957Y0129437D01*
X0104350Y0129437D02*
X0103957Y0129437D01*
X0094350Y0129437D02*
X0093957Y0129437D01*
X0084350Y0129437D02*
X0083957Y0129437D01*
X0083350Y0113437D02*
X0082957Y0113437D01*
X0082957Y0105563D01*
X0083350Y0105563D01*
X0082500Y0104000D02*
X0082502Y0104044D01*
X0082508Y0104088D01*
X0082518Y0104131D01*
X0082531Y0104173D01*
X0082548Y0104214D01*
X0082569Y0104253D01*
X0082593Y0104290D01*
X0082620Y0104325D01*
X0082650Y0104357D01*
X0082683Y0104387D01*
X0082719Y0104413D01*
X0082756Y0104437D01*
X0082796Y0104456D01*
X0082837Y0104473D01*
X0082880Y0104485D01*
X0082923Y0104494D01*
X0082967Y0104499D01*
X0083011Y0104500D01*
X0083055Y0104497D01*
X0083099Y0104490D01*
X0083142Y0104479D01*
X0083184Y0104465D01*
X0083224Y0104447D01*
X0083263Y0104425D01*
X0083299Y0104401D01*
X0083333Y0104373D01*
X0083365Y0104342D01*
X0083394Y0104308D01*
X0083420Y0104272D01*
X0083442Y0104234D01*
X0083461Y0104194D01*
X0083476Y0104152D01*
X0083488Y0104110D01*
X0083496Y0104066D01*
X0083500Y0104022D01*
X0083500Y0103978D01*
X0083496Y0103934D01*
X0083488Y0103890D01*
X0083476Y0103848D01*
X0083461Y0103806D01*
X0083442Y0103766D01*
X0083420Y0103728D01*
X0083394Y0103692D01*
X0083365Y0103658D01*
X0083333Y0103627D01*
X0083299Y0103599D01*
X0083263Y0103575D01*
X0083224Y0103553D01*
X0083184Y0103535D01*
X0083142Y0103521D01*
X0083099Y0103510D01*
X0083055Y0103503D01*
X0083011Y0103500D01*
X0082967Y0103501D01*
X0082923Y0103506D01*
X0082880Y0103515D01*
X0082837Y0103527D01*
X0082796Y0103544D01*
X0082756Y0103563D01*
X0082719Y0103587D01*
X0082683Y0103613D01*
X0082650Y0103643D01*
X0082620Y0103675D01*
X0082593Y0103710D01*
X0082569Y0103747D01*
X0082548Y0103786D01*
X0082531Y0103827D01*
X0082518Y0103869D01*
X0082508Y0103912D01*
X0082502Y0103956D01*
X0082500Y0104000D01*
X0089650Y0105563D02*
X0090043Y0105563D01*
X0090043Y0113437D01*
X0089650Y0113437D01*
X0093957Y0113437D02*
X0094350Y0113437D01*
X0093957Y0113437D02*
X0093957Y0105563D01*
X0094350Y0105563D01*
X0093500Y0104000D02*
X0093502Y0104044D01*
X0093508Y0104088D01*
X0093518Y0104131D01*
X0093531Y0104173D01*
X0093548Y0104214D01*
X0093569Y0104253D01*
X0093593Y0104290D01*
X0093620Y0104325D01*
X0093650Y0104357D01*
X0093683Y0104387D01*
X0093719Y0104413D01*
X0093756Y0104437D01*
X0093796Y0104456D01*
X0093837Y0104473D01*
X0093880Y0104485D01*
X0093923Y0104494D01*
X0093967Y0104499D01*
X0094011Y0104500D01*
X0094055Y0104497D01*
X0094099Y0104490D01*
X0094142Y0104479D01*
X0094184Y0104465D01*
X0094224Y0104447D01*
X0094263Y0104425D01*
X0094299Y0104401D01*
X0094333Y0104373D01*
X0094365Y0104342D01*
X0094394Y0104308D01*
X0094420Y0104272D01*
X0094442Y0104234D01*
X0094461Y0104194D01*
X0094476Y0104152D01*
X0094488Y0104110D01*
X0094496Y0104066D01*
X0094500Y0104022D01*
X0094500Y0103978D01*
X0094496Y0103934D01*
X0094488Y0103890D01*
X0094476Y0103848D01*
X0094461Y0103806D01*
X0094442Y0103766D01*
X0094420Y0103728D01*
X0094394Y0103692D01*
X0094365Y0103658D01*
X0094333Y0103627D01*
X0094299Y0103599D01*
X0094263Y0103575D01*
X0094224Y0103553D01*
X0094184Y0103535D01*
X0094142Y0103521D01*
X0094099Y0103510D01*
X0094055Y0103503D01*
X0094011Y0103500D01*
X0093967Y0103501D01*
X0093923Y0103506D01*
X0093880Y0103515D01*
X0093837Y0103527D01*
X0093796Y0103544D01*
X0093756Y0103563D01*
X0093719Y0103587D01*
X0093683Y0103613D01*
X0093650Y0103643D01*
X0093620Y0103675D01*
X0093593Y0103710D01*
X0093569Y0103747D01*
X0093548Y0103786D01*
X0093531Y0103827D01*
X0093518Y0103869D01*
X0093508Y0103912D01*
X0093502Y0103956D01*
X0093500Y0104000D01*
X0100650Y0105563D02*
X0101043Y0105563D01*
X0101043Y0113437D01*
X0100650Y0113437D01*
X0104957Y0113437D02*
X0105350Y0113437D01*
X0104957Y0113437D02*
X0104957Y0105563D01*
X0105350Y0105563D01*
X0104500Y0104000D02*
X0104502Y0104044D01*
X0104508Y0104088D01*
X0104518Y0104131D01*
X0104531Y0104173D01*
X0104548Y0104214D01*
X0104569Y0104253D01*
X0104593Y0104290D01*
X0104620Y0104325D01*
X0104650Y0104357D01*
X0104683Y0104387D01*
X0104719Y0104413D01*
X0104756Y0104437D01*
X0104796Y0104456D01*
X0104837Y0104473D01*
X0104880Y0104485D01*
X0104923Y0104494D01*
X0104967Y0104499D01*
X0105011Y0104500D01*
X0105055Y0104497D01*
X0105099Y0104490D01*
X0105142Y0104479D01*
X0105184Y0104465D01*
X0105224Y0104447D01*
X0105263Y0104425D01*
X0105299Y0104401D01*
X0105333Y0104373D01*
X0105365Y0104342D01*
X0105394Y0104308D01*
X0105420Y0104272D01*
X0105442Y0104234D01*
X0105461Y0104194D01*
X0105476Y0104152D01*
X0105488Y0104110D01*
X0105496Y0104066D01*
X0105500Y0104022D01*
X0105500Y0103978D01*
X0105496Y0103934D01*
X0105488Y0103890D01*
X0105476Y0103848D01*
X0105461Y0103806D01*
X0105442Y0103766D01*
X0105420Y0103728D01*
X0105394Y0103692D01*
X0105365Y0103658D01*
X0105333Y0103627D01*
X0105299Y0103599D01*
X0105263Y0103575D01*
X0105224Y0103553D01*
X0105184Y0103535D01*
X0105142Y0103521D01*
X0105099Y0103510D01*
X0105055Y0103503D01*
X0105011Y0103500D01*
X0104967Y0103501D01*
X0104923Y0103506D01*
X0104880Y0103515D01*
X0104837Y0103527D01*
X0104796Y0103544D01*
X0104756Y0103563D01*
X0104719Y0103587D01*
X0104683Y0103613D01*
X0104650Y0103643D01*
X0104620Y0103675D01*
X0104593Y0103710D01*
X0104569Y0103747D01*
X0104548Y0103786D01*
X0104531Y0103827D01*
X0104518Y0103869D01*
X0104508Y0103912D01*
X0104502Y0103956D01*
X0104500Y0104000D01*
X0111650Y0105563D02*
X0112043Y0105563D01*
X0112043Y0113437D01*
X0111650Y0113437D01*
X0115957Y0113437D02*
X0116350Y0113437D01*
X0115957Y0113437D02*
X0115957Y0105563D01*
X0116350Y0105563D01*
X0115500Y0104000D02*
X0115502Y0104044D01*
X0115508Y0104088D01*
X0115518Y0104131D01*
X0115531Y0104173D01*
X0115548Y0104214D01*
X0115569Y0104253D01*
X0115593Y0104290D01*
X0115620Y0104325D01*
X0115650Y0104357D01*
X0115683Y0104387D01*
X0115719Y0104413D01*
X0115756Y0104437D01*
X0115796Y0104456D01*
X0115837Y0104473D01*
X0115880Y0104485D01*
X0115923Y0104494D01*
X0115967Y0104499D01*
X0116011Y0104500D01*
X0116055Y0104497D01*
X0116099Y0104490D01*
X0116142Y0104479D01*
X0116184Y0104465D01*
X0116224Y0104447D01*
X0116263Y0104425D01*
X0116299Y0104401D01*
X0116333Y0104373D01*
X0116365Y0104342D01*
X0116394Y0104308D01*
X0116420Y0104272D01*
X0116442Y0104234D01*
X0116461Y0104194D01*
X0116476Y0104152D01*
X0116488Y0104110D01*
X0116496Y0104066D01*
X0116500Y0104022D01*
X0116500Y0103978D01*
X0116496Y0103934D01*
X0116488Y0103890D01*
X0116476Y0103848D01*
X0116461Y0103806D01*
X0116442Y0103766D01*
X0116420Y0103728D01*
X0116394Y0103692D01*
X0116365Y0103658D01*
X0116333Y0103627D01*
X0116299Y0103599D01*
X0116263Y0103575D01*
X0116224Y0103553D01*
X0116184Y0103535D01*
X0116142Y0103521D01*
X0116099Y0103510D01*
X0116055Y0103503D01*
X0116011Y0103500D01*
X0115967Y0103501D01*
X0115923Y0103506D01*
X0115880Y0103515D01*
X0115837Y0103527D01*
X0115796Y0103544D01*
X0115756Y0103563D01*
X0115719Y0103587D01*
X0115683Y0103613D01*
X0115650Y0103643D01*
X0115620Y0103675D01*
X0115593Y0103710D01*
X0115569Y0103747D01*
X0115548Y0103786D01*
X0115531Y0103827D01*
X0115518Y0103869D01*
X0115508Y0103912D01*
X0115502Y0103956D01*
X0115500Y0104000D01*
X0122650Y0105563D02*
X0123043Y0105563D01*
X0123043Y0113437D01*
X0122650Y0113437D01*
X0126957Y0113437D02*
X0127350Y0113437D01*
X0126957Y0113437D02*
X0126957Y0105563D01*
X0127350Y0105563D01*
X0126500Y0104000D02*
X0126502Y0104044D01*
X0126508Y0104088D01*
X0126518Y0104131D01*
X0126531Y0104173D01*
X0126548Y0104214D01*
X0126569Y0104253D01*
X0126593Y0104290D01*
X0126620Y0104325D01*
X0126650Y0104357D01*
X0126683Y0104387D01*
X0126719Y0104413D01*
X0126756Y0104437D01*
X0126796Y0104456D01*
X0126837Y0104473D01*
X0126880Y0104485D01*
X0126923Y0104494D01*
X0126967Y0104499D01*
X0127011Y0104500D01*
X0127055Y0104497D01*
X0127099Y0104490D01*
X0127142Y0104479D01*
X0127184Y0104465D01*
X0127224Y0104447D01*
X0127263Y0104425D01*
X0127299Y0104401D01*
X0127333Y0104373D01*
X0127365Y0104342D01*
X0127394Y0104308D01*
X0127420Y0104272D01*
X0127442Y0104234D01*
X0127461Y0104194D01*
X0127476Y0104152D01*
X0127488Y0104110D01*
X0127496Y0104066D01*
X0127500Y0104022D01*
X0127500Y0103978D01*
X0127496Y0103934D01*
X0127488Y0103890D01*
X0127476Y0103848D01*
X0127461Y0103806D01*
X0127442Y0103766D01*
X0127420Y0103728D01*
X0127394Y0103692D01*
X0127365Y0103658D01*
X0127333Y0103627D01*
X0127299Y0103599D01*
X0127263Y0103575D01*
X0127224Y0103553D01*
X0127184Y0103535D01*
X0127142Y0103521D01*
X0127099Y0103510D01*
X0127055Y0103503D01*
X0127011Y0103500D01*
X0126967Y0103501D01*
X0126923Y0103506D01*
X0126880Y0103515D01*
X0126837Y0103527D01*
X0126796Y0103544D01*
X0126756Y0103563D01*
X0126719Y0103587D01*
X0126683Y0103613D01*
X0126650Y0103643D01*
X0126620Y0103675D01*
X0126593Y0103710D01*
X0126569Y0103747D01*
X0126548Y0103786D01*
X0126531Y0103827D01*
X0126518Y0103869D01*
X0126508Y0103912D01*
X0126502Y0103956D01*
X0126500Y0104000D01*
X0133650Y0105563D02*
X0134043Y0105563D01*
X0134043Y0113437D01*
X0133650Y0113437D01*
X0179293Y0133000D02*
X0179295Y0133053D01*
X0179301Y0133105D01*
X0179311Y0133157D01*
X0179324Y0133208D01*
X0179342Y0133258D01*
X0179363Y0133307D01*
X0179388Y0133354D01*
X0179416Y0133398D01*
X0179447Y0133441D01*
X0179482Y0133481D01*
X0179519Y0133518D01*
X0179559Y0133553D01*
X0179602Y0133584D01*
X0179647Y0133612D01*
X0179693Y0133637D01*
X0179742Y0133658D01*
X0179792Y0133676D01*
X0179843Y0133689D01*
X0179895Y0133699D01*
X0179947Y0133705D01*
X0180000Y0133707D01*
X0180053Y0133705D01*
X0180105Y0133699D01*
X0180157Y0133689D01*
X0180208Y0133676D01*
X0180258Y0133658D01*
X0180307Y0133637D01*
X0180354Y0133612D01*
X0180398Y0133584D01*
X0180441Y0133553D01*
X0180481Y0133518D01*
X0180518Y0133481D01*
X0180553Y0133441D01*
X0180584Y0133398D01*
X0180612Y0133353D01*
X0180637Y0133307D01*
X0180658Y0133258D01*
X0180676Y0133208D01*
X0180689Y0133157D01*
X0180699Y0133105D01*
X0180705Y0133053D01*
X0180707Y0133000D01*
X0180705Y0132947D01*
X0180699Y0132895D01*
X0180689Y0132843D01*
X0180676Y0132792D01*
X0180658Y0132742D01*
X0180637Y0132693D01*
X0180612Y0132646D01*
X0180584Y0132602D01*
X0180553Y0132559D01*
X0180518Y0132519D01*
X0180481Y0132482D01*
X0180441Y0132447D01*
X0180398Y0132416D01*
X0180353Y0132388D01*
X0180307Y0132363D01*
X0180258Y0132342D01*
X0180208Y0132324D01*
X0180157Y0132311D01*
X0180105Y0132301D01*
X0180053Y0132295D01*
X0180000Y0132293D01*
X0179947Y0132295D01*
X0179895Y0132301D01*
X0179843Y0132311D01*
X0179792Y0132324D01*
X0179742Y0132342D01*
X0179693Y0132363D01*
X0179646Y0132388D01*
X0179602Y0132416D01*
X0179559Y0132447D01*
X0179519Y0132482D01*
X0179482Y0132519D01*
X0179447Y0132559D01*
X0179416Y0132602D01*
X0179388Y0132647D01*
X0179363Y0132693D01*
X0179342Y0132742D01*
X0179324Y0132792D01*
X0179311Y0132843D01*
X0179301Y0132895D01*
X0179295Y0132947D01*
X0179293Y0133000D01*
X0181500Y0134000D02*
X0182500Y0134000D01*
X0181500Y0134000D02*
X0181500Y0141500D01*
X0182500Y0141500D01*
X0193100Y0141500D02*
X0194100Y0141500D01*
X0194100Y0134000D01*
X0193100Y0134000D01*
X0200500Y0153500D02*
X0200500Y0163500D01*
X0110500Y0163500D01*
X0110500Y0153500D01*
X0200500Y0153500D01*
D11*
X0133917Y0091917D02*
X0133917Y0039083D01*
X0082343Y0039083D01*
X0081043Y0040382D01*
X0081043Y0091917D01*
X0133917Y0091917D01*
D12*
X0013998Y0005600D02*
X0013687Y0005600D01*
X0013998Y0005600D02*
X0014047Y0005602D01*
X0014095Y0005608D01*
X0014143Y0005617D01*
X0014190Y0005630D01*
X0014236Y0005647D01*
X0014280Y0005668D01*
X0014323Y0005692D01*
X0014364Y0005719D01*
X0014402Y0005749D01*
X0014438Y0005782D01*
X0014471Y0005818D01*
X0014501Y0005856D01*
X0014528Y0005897D01*
X0014552Y0005940D01*
X0014573Y0005984D01*
X0014590Y0006030D01*
X0014603Y0006077D01*
X0014612Y0006125D01*
X0014618Y0006173D01*
X0014620Y0006222D01*
X0014620Y0008400D01*
X0016467Y0008400D02*
X0015844Y0006222D01*
X0017400Y0006222D01*
X0016933Y0006844D02*
X0016933Y0005600D01*
X0202187Y0007100D02*
X0202498Y0007100D01*
X0202547Y0007102D01*
X0202595Y0007108D01*
X0202643Y0007117D01*
X0202690Y0007130D01*
X0202736Y0007147D01*
X0202780Y0007168D01*
X0202823Y0007192D01*
X0202864Y0007219D01*
X0202902Y0007249D01*
X0202938Y0007282D01*
X0202971Y0007318D01*
X0203001Y0007356D01*
X0203028Y0007397D01*
X0203052Y0007440D01*
X0203073Y0007484D01*
X0203090Y0007530D01*
X0203103Y0007577D01*
X0203112Y0007625D01*
X0203118Y0007673D01*
X0203120Y0007722D01*
X0203120Y0009900D01*
X0204344Y0009278D02*
X0205122Y0009900D01*
X0205122Y0007100D01*
X0204344Y0007100D02*
X0205900Y0007100D01*
X0117813Y0147878D02*
X0117813Y0148033D01*
X0117811Y0148082D01*
X0117805Y0148130D01*
X0117796Y0148178D01*
X0117783Y0148225D01*
X0117766Y0148271D01*
X0117745Y0148315D01*
X0117721Y0148358D01*
X0117694Y0148399D01*
X0117664Y0148437D01*
X0117631Y0148473D01*
X0117595Y0148506D01*
X0117557Y0148536D01*
X0117516Y0148563D01*
X0117473Y0148587D01*
X0117429Y0148608D01*
X0117383Y0148625D01*
X0117336Y0148638D01*
X0117288Y0148647D01*
X0117240Y0148653D01*
X0117191Y0148655D01*
X0117191Y0148656D02*
X0116258Y0148656D01*
X0116258Y0147878D01*
X0116257Y0147878D02*
X0116259Y0147822D01*
X0116265Y0147767D01*
X0116275Y0147713D01*
X0116289Y0147659D01*
X0116306Y0147606D01*
X0116327Y0147555D01*
X0116352Y0147505D01*
X0116381Y0147457D01*
X0116412Y0147412D01*
X0116447Y0147369D01*
X0116485Y0147328D01*
X0116526Y0147290D01*
X0116569Y0147255D01*
X0116614Y0147224D01*
X0116662Y0147195D01*
X0116712Y0147170D01*
X0116763Y0147149D01*
X0116816Y0147132D01*
X0116870Y0147118D01*
X0116924Y0147108D01*
X0116979Y0147102D01*
X0117035Y0147100D01*
X0117091Y0147102D01*
X0117146Y0147108D01*
X0117200Y0147118D01*
X0117254Y0147132D01*
X0117307Y0147149D01*
X0117358Y0147170D01*
X0117408Y0147195D01*
X0117456Y0147224D01*
X0117501Y0147255D01*
X0117544Y0147290D01*
X0117585Y0147328D01*
X0117623Y0147369D01*
X0117658Y0147412D01*
X0117689Y0147457D01*
X0117718Y0147505D01*
X0117743Y0147555D01*
X0117764Y0147606D01*
X0117781Y0147659D01*
X0117795Y0147713D01*
X0117805Y0147767D01*
X0117811Y0147822D01*
X0117813Y0147878D01*
X0116258Y0148656D02*
X0116260Y0148726D01*
X0116266Y0148795D01*
X0116276Y0148864D01*
X0116289Y0148933D01*
X0116307Y0149000D01*
X0116328Y0149067D01*
X0116353Y0149132D01*
X0116381Y0149196D01*
X0116413Y0149258D01*
X0116449Y0149318D01*
X0116487Y0149376D01*
X0116529Y0149432D01*
X0116574Y0149485D01*
X0116622Y0149536D01*
X0116673Y0149584D01*
X0116726Y0149629D01*
X0116782Y0149671D01*
X0116840Y0149709D01*
X0116900Y0149745D01*
X0116962Y0149777D01*
X0117026Y0149805D01*
X0117091Y0149830D01*
X0117158Y0149851D01*
X0117225Y0149869D01*
X0117294Y0149882D01*
X0117363Y0149892D01*
X0117432Y0149898D01*
X0117502Y0149900D01*
X0115033Y0149900D02*
X0115033Y0147722D01*
X0115031Y0147673D01*
X0115025Y0147625D01*
X0115016Y0147577D01*
X0115003Y0147530D01*
X0114986Y0147484D01*
X0114965Y0147440D01*
X0114941Y0147397D01*
X0114914Y0147356D01*
X0114884Y0147318D01*
X0114851Y0147282D01*
X0114815Y0147249D01*
X0114777Y0147219D01*
X0114736Y0147192D01*
X0114693Y0147168D01*
X0114649Y0147147D01*
X0114603Y0147130D01*
X0114556Y0147117D01*
X0114508Y0147108D01*
X0114460Y0147102D01*
X0114411Y0147100D01*
X0114100Y0147100D01*
X0105900Y0148722D02*
X0105900Y0149033D01*
X0105898Y0149082D01*
X0105892Y0149130D01*
X0105883Y0149178D01*
X0105870Y0149225D01*
X0105853Y0149271D01*
X0105832Y0149315D01*
X0105808Y0149358D01*
X0105781Y0149399D01*
X0105751Y0149437D01*
X0105718Y0149473D01*
X0105682Y0149506D01*
X0105644Y0149536D01*
X0105603Y0149563D01*
X0105560Y0149587D01*
X0105516Y0149608D01*
X0105470Y0149625D01*
X0105423Y0149638D01*
X0105375Y0149647D01*
X0105327Y0149653D01*
X0105278Y0149655D01*
X0105278Y0149656D02*
X0104344Y0149656D01*
X0104344Y0150900D01*
X0105900Y0150900D01*
X0105900Y0148722D02*
X0105898Y0148673D01*
X0105892Y0148625D01*
X0105883Y0148577D01*
X0105870Y0148530D01*
X0105853Y0148484D01*
X0105832Y0148440D01*
X0105808Y0148397D01*
X0105781Y0148356D01*
X0105751Y0148318D01*
X0105718Y0148282D01*
X0105682Y0148249D01*
X0105644Y0148219D01*
X0105603Y0148192D01*
X0105560Y0148168D01*
X0105516Y0148147D01*
X0105470Y0148130D01*
X0105423Y0148117D01*
X0105375Y0148108D01*
X0105327Y0148102D01*
X0105278Y0148100D01*
X0104344Y0148100D01*
X0103120Y0148722D02*
X0103120Y0150900D01*
X0103120Y0148722D02*
X0103118Y0148673D01*
X0103112Y0148625D01*
X0103103Y0148577D01*
X0103090Y0148530D01*
X0103073Y0148484D01*
X0103052Y0148440D01*
X0103028Y0148397D01*
X0103001Y0148356D01*
X0102971Y0148318D01*
X0102938Y0148282D01*
X0102902Y0148249D01*
X0102864Y0148219D01*
X0102823Y0148192D01*
X0102780Y0148168D01*
X0102736Y0148147D01*
X0102690Y0148130D01*
X0102643Y0148117D01*
X0102595Y0148108D01*
X0102547Y0148102D01*
X0102498Y0148100D01*
X0102187Y0148100D01*
D13*
X0002500Y0146500D02*
X0002502Y0146696D01*
X0002510Y0146893D01*
X0002522Y0147089D01*
X0002539Y0147284D01*
X0002560Y0147479D01*
X0002587Y0147674D01*
X0002618Y0147868D01*
X0002654Y0148061D01*
X0002694Y0148253D01*
X0002740Y0148444D01*
X0002790Y0148634D01*
X0002844Y0148822D01*
X0002904Y0149009D01*
X0002968Y0149195D01*
X0003036Y0149379D01*
X0003109Y0149561D01*
X0003186Y0149742D01*
X0003268Y0149920D01*
X0003354Y0150097D01*
X0003445Y0150271D01*
X0003539Y0150443D01*
X0003638Y0150613D01*
X0003741Y0150780D01*
X0003848Y0150945D01*
X0003959Y0151106D01*
X0004074Y0151266D01*
X0004193Y0151422D01*
X0004316Y0151575D01*
X0004442Y0151725D01*
X0004572Y0151872D01*
X0004706Y0152016D01*
X0004843Y0152157D01*
X0004984Y0152294D01*
X0005128Y0152428D01*
X0005275Y0152558D01*
X0005425Y0152684D01*
X0005578Y0152807D01*
X0005734Y0152926D01*
X0005894Y0153041D01*
X0006055Y0153152D01*
X0006220Y0153259D01*
X0006387Y0153362D01*
X0006557Y0153461D01*
X0006729Y0153555D01*
X0006903Y0153646D01*
X0007080Y0153732D01*
X0007258Y0153814D01*
X0007439Y0153891D01*
X0007621Y0153964D01*
X0007805Y0154032D01*
X0007991Y0154096D01*
X0008178Y0154156D01*
X0008366Y0154210D01*
X0008556Y0154260D01*
X0008747Y0154306D01*
X0008939Y0154346D01*
X0009132Y0154382D01*
X0009326Y0154413D01*
X0009521Y0154440D01*
X0009716Y0154461D01*
X0009911Y0154478D01*
X0010107Y0154490D01*
X0010304Y0154498D01*
X0010500Y0154500D01*
X0010696Y0154498D01*
X0010893Y0154490D01*
X0011089Y0154478D01*
X0011284Y0154461D01*
X0011479Y0154440D01*
X0011674Y0154413D01*
X0011868Y0154382D01*
X0012061Y0154346D01*
X0012253Y0154306D01*
X0012444Y0154260D01*
X0012634Y0154210D01*
X0012822Y0154156D01*
X0013009Y0154096D01*
X0013195Y0154032D01*
X0013379Y0153964D01*
X0013561Y0153891D01*
X0013742Y0153814D01*
X0013920Y0153732D01*
X0014097Y0153646D01*
X0014271Y0153555D01*
X0014443Y0153461D01*
X0014613Y0153362D01*
X0014780Y0153259D01*
X0014945Y0153152D01*
X0015106Y0153041D01*
X0015266Y0152926D01*
X0015422Y0152807D01*
X0015575Y0152684D01*
X0015725Y0152558D01*
X0015872Y0152428D01*
X0016016Y0152294D01*
X0016157Y0152157D01*
X0016294Y0152016D01*
X0016428Y0151872D01*
X0016558Y0151725D01*
X0016684Y0151575D01*
X0016807Y0151422D01*
X0016926Y0151266D01*
X0017041Y0151106D01*
X0017152Y0150945D01*
X0017259Y0150780D01*
X0017362Y0150613D01*
X0017461Y0150443D01*
X0017555Y0150271D01*
X0017646Y0150097D01*
X0017732Y0149920D01*
X0017814Y0149742D01*
X0017891Y0149561D01*
X0017964Y0149379D01*
X0018032Y0149195D01*
X0018096Y0149009D01*
X0018156Y0148822D01*
X0018210Y0148634D01*
X0018260Y0148444D01*
X0018306Y0148253D01*
X0018346Y0148061D01*
X0018382Y0147868D01*
X0018413Y0147674D01*
X0018440Y0147479D01*
X0018461Y0147284D01*
X0018478Y0147089D01*
X0018490Y0146893D01*
X0018498Y0146696D01*
X0018500Y0146500D01*
X0018498Y0146304D01*
X0018490Y0146107D01*
X0018478Y0145911D01*
X0018461Y0145716D01*
X0018440Y0145521D01*
X0018413Y0145326D01*
X0018382Y0145132D01*
X0018346Y0144939D01*
X0018306Y0144747D01*
X0018260Y0144556D01*
X0018210Y0144366D01*
X0018156Y0144178D01*
X0018096Y0143991D01*
X0018032Y0143805D01*
X0017964Y0143621D01*
X0017891Y0143439D01*
X0017814Y0143258D01*
X0017732Y0143080D01*
X0017646Y0142903D01*
X0017555Y0142729D01*
X0017461Y0142557D01*
X0017362Y0142387D01*
X0017259Y0142220D01*
X0017152Y0142055D01*
X0017041Y0141894D01*
X0016926Y0141734D01*
X0016807Y0141578D01*
X0016684Y0141425D01*
X0016558Y0141275D01*
X0016428Y0141128D01*
X0016294Y0140984D01*
X0016157Y0140843D01*
X0016016Y0140706D01*
X0015872Y0140572D01*
X0015725Y0140442D01*
X0015575Y0140316D01*
X0015422Y0140193D01*
X0015266Y0140074D01*
X0015106Y0139959D01*
X0014945Y0139848D01*
X0014780Y0139741D01*
X0014613Y0139638D01*
X0014443Y0139539D01*
X0014271Y0139445D01*
X0014097Y0139354D01*
X0013920Y0139268D01*
X0013742Y0139186D01*
X0013561Y0139109D01*
X0013379Y0139036D01*
X0013195Y0138968D01*
X0013009Y0138904D01*
X0012822Y0138844D01*
X0012634Y0138790D01*
X0012444Y0138740D01*
X0012253Y0138694D01*
X0012061Y0138654D01*
X0011868Y0138618D01*
X0011674Y0138587D01*
X0011479Y0138560D01*
X0011284Y0138539D01*
X0011089Y0138522D01*
X0010893Y0138510D01*
X0010696Y0138502D01*
X0010500Y0138500D01*
X0010304Y0138502D01*
X0010107Y0138510D01*
X0009911Y0138522D01*
X0009716Y0138539D01*
X0009521Y0138560D01*
X0009326Y0138587D01*
X0009132Y0138618D01*
X0008939Y0138654D01*
X0008747Y0138694D01*
X0008556Y0138740D01*
X0008366Y0138790D01*
X0008178Y0138844D01*
X0007991Y0138904D01*
X0007805Y0138968D01*
X0007621Y0139036D01*
X0007439Y0139109D01*
X0007258Y0139186D01*
X0007080Y0139268D01*
X0006903Y0139354D01*
X0006729Y0139445D01*
X0006557Y0139539D01*
X0006387Y0139638D01*
X0006220Y0139741D01*
X0006055Y0139848D01*
X0005894Y0139959D01*
X0005734Y0140074D01*
X0005578Y0140193D01*
X0005425Y0140316D01*
X0005275Y0140442D01*
X0005128Y0140572D01*
X0004984Y0140706D01*
X0004843Y0140843D01*
X0004706Y0140984D01*
X0004572Y0141128D01*
X0004442Y0141275D01*
X0004316Y0141425D01*
X0004193Y0141578D01*
X0004074Y0141734D01*
X0003959Y0141894D01*
X0003848Y0142055D01*
X0003741Y0142220D01*
X0003638Y0142387D01*
X0003539Y0142557D01*
X0003445Y0142729D01*
X0003354Y0142903D01*
X0003268Y0143080D01*
X0003186Y0143258D01*
X0003109Y0143439D01*
X0003036Y0143621D01*
X0002968Y0143805D01*
X0002904Y0143991D01*
X0002844Y0144178D01*
X0002790Y0144366D01*
X0002740Y0144556D01*
X0002694Y0144747D01*
X0002654Y0144939D01*
X0002618Y0145132D01*
X0002587Y0145326D01*
X0002560Y0145521D01*
X0002539Y0145716D01*
X0002522Y0145911D01*
X0002510Y0146107D01*
X0002502Y0146304D01*
X0002500Y0146500D01*
X0002500Y0128500D02*
X0002502Y0128696D01*
X0002510Y0128893D01*
X0002522Y0129089D01*
X0002539Y0129284D01*
X0002560Y0129479D01*
X0002587Y0129674D01*
X0002618Y0129868D01*
X0002654Y0130061D01*
X0002694Y0130253D01*
X0002740Y0130444D01*
X0002790Y0130634D01*
X0002844Y0130822D01*
X0002904Y0131009D01*
X0002968Y0131195D01*
X0003036Y0131379D01*
X0003109Y0131561D01*
X0003186Y0131742D01*
X0003268Y0131920D01*
X0003354Y0132097D01*
X0003445Y0132271D01*
X0003539Y0132443D01*
X0003638Y0132613D01*
X0003741Y0132780D01*
X0003848Y0132945D01*
X0003959Y0133106D01*
X0004074Y0133266D01*
X0004193Y0133422D01*
X0004316Y0133575D01*
X0004442Y0133725D01*
X0004572Y0133872D01*
X0004706Y0134016D01*
X0004843Y0134157D01*
X0004984Y0134294D01*
X0005128Y0134428D01*
X0005275Y0134558D01*
X0005425Y0134684D01*
X0005578Y0134807D01*
X0005734Y0134926D01*
X0005894Y0135041D01*
X0006055Y0135152D01*
X0006220Y0135259D01*
X0006387Y0135362D01*
X0006557Y0135461D01*
X0006729Y0135555D01*
X0006903Y0135646D01*
X0007080Y0135732D01*
X0007258Y0135814D01*
X0007439Y0135891D01*
X0007621Y0135964D01*
X0007805Y0136032D01*
X0007991Y0136096D01*
X0008178Y0136156D01*
X0008366Y0136210D01*
X0008556Y0136260D01*
X0008747Y0136306D01*
X0008939Y0136346D01*
X0009132Y0136382D01*
X0009326Y0136413D01*
X0009521Y0136440D01*
X0009716Y0136461D01*
X0009911Y0136478D01*
X0010107Y0136490D01*
X0010304Y0136498D01*
X0010500Y0136500D01*
X0010696Y0136498D01*
X0010893Y0136490D01*
X0011089Y0136478D01*
X0011284Y0136461D01*
X0011479Y0136440D01*
X0011674Y0136413D01*
X0011868Y0136382D01*
X0012061Y0136346D01*
X0012253Y0136306D01*
X0012444Y0136260D01*
X0012634Y0136210D01*
X0012822Y0136156D01*
X0013009Y0136096D01*
X0013195Y0136032D01*
X0013379Y0135964D01*
X0013561Y0135891D01*
X0013742Y0135814D01*
X0013920Y0135732D01*
X0014097Y0135646D01*
X0014271Y0135555D01*
X0014443Y0135461D01*
X0014613Y0135362D01*
X0014780Y0135259D01*
X0014945Y0135152D01*
X0015106Y0135041D01*
X0015266Y0134926D01*
X0015422Y0134807D01*
X0015575Y0134684D01*
X0015725Y0134558D01*
X0015872Y0134428D01*
X0016016Y0134294D01*
X0016157Y0134157D01*
X0016294Y0134016D01*
X0016428Y0133872D01*
X0016558Y0133725D01*
X0016684Y0133575D01*
X0016807Y0133422D01*
X0016926Y0133266D01*
X0017041Y0133106D01*
X0017152Y0132945D01*
X0017259Y0132780D01*
X0017362Y0132613D01*
X0017461Y0132443D01*
X0017555Y0132271D01*
X0017646Y0132097D01*
X0017732Y0131920D01*
X0017814Y0131742D01*
X0017891Y0131561D01*
X0017964Y0131379D01*
X0018032Y0131195D01*
X0018096Y0131009D01*
X0018156Y0130822D01*
X0018210Y0130634D01*
X0018260Y0130444D01*
X0018306Y0130253D01*
X0018346Y0130061D01*
X0018382Y0129868D01*
X0018413Y0129674D01*
X0018440Y0129479D01*
X0018461Y0129284D01*
X0018478Y0129089D01*
X0018490Y0128893D01*
X0018498Y0128696D01*
X0018500Y0128500D01*
X0018498Y0128304D01*
X0018490Y0128107D01*
X0018478Y0127911D01*
X0018461Y0127716D01*
X0018440Y0127521D01*
X0018413Y0127326D01*
X0018382Y0127132D01*
X0018346Y0126939D01*
X0018306Y0126747D01*
X0018260Y0126556D01*
X0018210Y0126366D01*
X0018156Y0126178D01*
X0018096Y0125991D01*
X0018032Y0125805D01*
X0017964Y0125621D01*
X0017891Y0125439D01*
X0017814Y0125258D01*
X0017732Y0125080D01*
X0017646Y0124903D01*
X0017555Y0124729D01*
X0017461Y0124557D01*
X0017362Y0124387D01*
X0017259Y0124220D01*
X0017152Y0124055D01*
X0017041Y0123894D01*
X0016926Y0123734D01*
X0016807Y0123578D01*
X0016684Y0123425D01*
X0016558Y0123275D01*
X0016428Y0123128D01*
X0016294Y0122984D01*
X0016157Y0122843D01*
X0016016Y0122706D01*
X0015872Y0122572D01*
X0015725Y0122442D01*
X0015575Y0122316D01*
X0015422Y0122193D01*
X0015266Y0122074D01*
X0015106Y0121959D01*
X0014945Y0121848D01*
X0014780Y0121741D01*
X0014613Y0121638D01*
X0014443Y0121539D01*
X0014271Y0121445D01*
X0014097Y0121354D01*
X0013920Y0121268D01*
X0013742Y0121186D01*
X0013561Y0121109D01*
X0013379Y0121036D01*
X0013195Y0120968D01*
X0013009Y0120904D01*
X0012822Y0120844D01*
X0012634Y0120790D01*
X0012444Y0120740D01*
X0012253Y0120694D01*
X0012061Y0120654D01*
X0011868Y0120618D01*
X0011674Y0120587D01*
X0011479Y0120560D01*
X0011284Y0120539D01*
X0011089Y0120522D01*
X0010893Y0120510D01*
X0010696Y0120502D01*
X0010500Y0120500D01*
X0010304Y0120502D01*
X0010107Y0120510D01*
X0009911Y0120522D01*
X0009716Y0120539D01*
X0009521Y0120560D01*
X0009326Y0120587D01*
X0009132Y0120618D01*
X0008939Y0120654D01*
X0008747Y0120694D01*
X0008556Y0120740D01*
X0008366Y0120790D01*
X0008178Y0120844D01*
X0007991Y0120904D01*
X0007805Y0120968D01*
X0007621Y0121036D01*
X0007439Y0121109D01*
X0007258Y0121186D01*
X0007080Y0121268D01*
X0006903Y0121354D01*
X0006729Y0121445D01*
X0006557Y0121539D01*
X0006387Y0121638D01*
X0006220Y0121741D01*
X0006055Y0121848D01*
X0005894Y0121959D01*
X0005734Y0122074D01*
X0005578Y0122193D01*
X0005425Y0122316D01*
X0005275Y0122442D01*
X0005128Y0122572D01*
X0004984Y0122706D01*
X0004843Y0122843D01*
X0004706Y0122984D01*
X0004572Y0123128D01*
X0004442Y0123275D01*
X0004316Y0123425D01*
X0004193Y0123578D01*
X0004074Y0123734D01*
X0003959Y0123894D01*
X0003848Y0124055D01*
X0003741Y0124220D01*
X0003638Y0124387D01*
X0003539Y0124557D01*
X0003445Y0124729D01*
X0003354Y0124903D01*
X0003268Y0125080D01*
X0003186Y0125258D01*
X0003109Y0125439D01*
X0003036Y0125621D01*
X0002968Y0125805D01*
X0002904Y0125991D01*
X0002844Y0126178D01*
X0002790Y0126366D01*
X0002740Y0126556D01*
X0002694Y0126747D01*
X0002654Y0126939D01*
X0002618Y0127132D01*
X0002587Y0127326D01*
X0002560Y0127521D01*
X0002539Y0127716D01*
X0002522Y0127911D01*
X0002510Y0128107D01*
X0002502Y0128304D01*
X0002500Y0128500D01*
X0002500Y0110500D02*
X0002502Y0110696D01*
X0002510Y0110893D01*
X0002522Y0111089D01*
X0002539Y0111284D01*
X0002560Y0111479D01*
X0002587Y0111674D01*
X0002618Y0111868D01*
X0002654Y0112061D01*
X0002694Y0112253D01*
X0002740Y0112444D01*
X0002790Y0112634D01*
X0002844Y0112822D01*
X0002904Y0113009D01*
X0002968Y0113195D01*
X0003036Y0113379D01*
X0003109Y0113561D01*
X0003186Y0113742D01*
X0003268Y0113920D01*
X0003354Y0114097D01*
X0003445Y0114271D01*
X0003539Y0114443D01*
X0003638Y0114613D01*
X0003741Y0114780D01*
X0003848Y0114945D01*
X0003959Y0115106D01*
X0004074Y0115266D01*
X0004193Y0115422D01*
X0004316Y0115575D01*
X0004442Y0115725D01*
X0004572Y0115872D01*
X0004706Y0116016D01*
X0004843Y0116157D01*
X0004984Y0116294D01*
X0005128Y0116428D01*
X0005275Y0116558D01*
X0005425Y0116684D01*
X0005578Y0116807D01*
X0005734Y0116926D01*
X0005894Y0117041D01*
X0006055Y0117152D01*
X0006220Y0117259D01*
X0006387Y0117362D01*
X0006557Y0117461D01*
X0006729Y0117555D01*
X0006903Y0117646D01*
X0007080Y0117732D01*
X0007258Y0117814D01*
X0007439Y0117891D01*
X0007621Y0117964D01*
X0007805Y0118032D01*
X0007991Y0118096D01*
X0008178Y0118156D01*
X0008366Y0118210D01*
X0008556Y0118260D01*
X0008747Y0118306D01*
X0008939Y0118346D01*
X0009132Y0118382D01*
X0009326Y0118413D01*
X0009521Y0118440D01*
X0009716Y0118461D01*
X0009911Y0118478D01*
X0010107Y0118490D01*
X0010304Y0118498D01*
X0010500Y0118500D01*
X0010696Y0118498D01*
X0010893Y0118490D01*
X0011089Y0118478D01*
X0011284Y0118461D01*
X0011479Y0118440D01*
X0011674Y0118413D01*
X0011868Y0118382D01*
X0012061Y0118346D01*
X0012253Y0118306D01*
X0012444Y0118260D01*
X0012634Y0118210D01*
X0012822Y0118156D01*
X0013009Y0118096D01*
X0013195Y0118032D01*
X0013379Y0117964D01*
X0013561Y0117891D01*
X0013742Y0117814D01*
X0013920Y0117732D01*
X0014097Y0117646D01*
X0014271Y0117555D01*
X0014443Y0117461D01*
X0014613Y0117362D01*
X0014780Y0117259D01*
X0014945Y0117152D01*
X0015106Y0117041D01*
X0015266Y0116926D01*
X0015422Y0116807D01*
X0015575Y0116684D01*
X0015725Y0116558D01*
X0015872Y0116428D01*
X0016016Y0116294D01*
X0016157Y0116157D01*
X0016294Y0116016D01*
X0016428Y0115872D01*
X0016558Y0115725D01*
X0016684Y0115575D01*
X0016807Y0115422D01*
X0016926Y0115266D01*
X0017041Y0115106D01*
X0017152Y0114945D01*
X0017259Y0114780D01*
X0017362Y0114613D01*
X0017461Y0114443D01*
X0017555Y0114271D01*
X0017646Y0114097D01*
X0017732Y0113920D01*
X0017814Y0113742D01*
X0017891Y0113561D01*
X0017964Y0113379D01*
X0018032Y0113195D01*
X0018096Y0113009D01*
X0018156Y0112822D01*
X0018210Y0112634D01*
X0018260Y0112444D01*
X0018306Y0112253D01*
X0018346Y0112061D01*
X0018382Y0111868D01*
X0018413Y0111674D01*
X0018440Y0111479D01*
X0018461Y0111284D01*
X0018478Y0111089D01*
X0018490Y0110893D01*
X0018498Y0110696D01*
X0018500Y0110500D01*
X0018498Y0110304D01*
X0018490Y0110107D01*
X0018478Y0109911D01*
X0018461Y0109716D01*
X0018440Y0109521D01*
X0018413Y0109326D01*
X0018382Y0109132D01*
X0018346Y0108939D01*
X0018306Y0108747D01*
X0018260Y0108556D01*
X0018210Y0108366D01*
X0018156Y0108178D01*
X0018096Y0107991D01*
X0018032Y0107805D01*
X0017964Y0107621D01*
X0017891Y0107439D01*
X0017814Y0107258D01*
X0017732Y0107080D01*
X0017646Y0106903D01*
X0017555Y0106729D01*
X0017461Y0106557D01*
X0017362Y0106387D01*
X0017259Y0106220D01*
X0017152Y0106055D01*
X0017041Y0105894D01*
X0016926Y0105734D01*
X0016807Y0105578D01*
X0016684Y0105425D01*
X0016558Y0105275D01*
X0016428Y0105128D01*
X0016294Y0104984D01*
X0016157Y0104843D01*
X0016016Y0104706D01*
X0015872Y0104572D01*
X0015725Y0104442D01*
X0015575Y0104316D01*
X0015422Y0104193D01*
X0015266Y0104074D01*
X0015106Y0103959D01*
X0014945Y0103848D01*
X0014780Y0103741D01*
X0014613Y0103638D01*
X0014443Y0103539D01*
X0014271Y0103445D01*
X0014097Y0103354D01*
X0013920Y0103268D01*
X0013742Y0103186D01*
X0013561Y0103109D01*
X0013379Y0103036D01*
X0013195Y0102968D01*
X0013009Y0102904D01*
X0012822Y0102844D01*
X0012634Y0102790D01*
X0012444Y0102740D01*
X0012253Y0102694D01*
X0012061Y0102654D01*
X0011868Y0102618D01*
X0011674Y0102587D01*
X0011479Y0102560D01*
X0011284Y0102539D01*
X0011089Y0102522D01*
X0010893Y0102510D01*
X0010696Y0102502D01*
X0010500Y0102500D01*
X0010304Y0102502D01*
X0010107Y0102510D01*
X0009911Y0102522D01*
X0009716Y0102539D01*
X0009521Y0102560D01*
X0009326Y0102587D01*
X0009132Y0102618D01*
X0008939Y0102654D01*
X0008747Y0102694D01*
X0008556Y0102740D01*
X0008366Y0102790D01*
X0008178Y0102844D01*
X0007991Y0102904D01*
X0007805Y0102968D01*
X0007621Y0103036D01*
X0007439Y0103109D01*
X0007258Y0103186D01*
X0007080Y0103268D01*
X0006903Y0103354D01*
X0006729Y0103445D01*
X0006557Y0103539D01*
X0006387Y0103638D01*
X0006220Y0103741D01*
X0006055Y0103848D01*
X0005894Y0103959D01*
X0005734Y0104074D01*
X0005578Y0104193D01*
X0005425Y0104316D01*
X0005275Y0104442D01*
X0005128Y0104572D01*
X0004984Y0104706D01*
X0004843Y0104843D01*
X0004706Y0104984D01*
X0004572Y0105128D01*
X0004442Y0105275D01*
X0004316Y0105425D01*
X0004193Y0105578D01*
X0004074Y0105734D01*
X0003959Y0105894D01*
X0003848Y0106055D01*
X0003741Y0106220D01*
X0003638Y0106387D01*
X0003539Y0106557D01*
X0003445Y0106729D01*
X0003354Y0106903D01*
X0003268Y0107080D01*
X0003186Y0107258D01*
X0003109Y0107439D01*
X0003036Y0107621D01*
X0002968Y0107805D01*
X0002904Y0107991D01*
X0002844Y0108178D01*
X0002790Y0108366D01*
X0002740Y0108556D01*
X0002694Y0108747D01*
X0002654Y0108939D01*
X0002618Y0109132D01*
X0002587Y0109326D01*
X0002560Y0109521D01*
X0002539Y0109716D01*
X0002522Y0109911D01*
X0002510Y0110107D01*
X0002502Y0110304D01*
X0002500Y0110500D01*
X0002500Y0092500D02*
X0002502Y0092696D01*
X0002510Y0092893D01*
X0002522Y0093089D01*
X0002539Y0093284D01*
X0002560Y0093479D01*
X0002587Y0093674D01*
X0002618Y0093868D01*
X0002654Y0094061D01*
X0002694Y0094253D01*
X0002740Y0094444D01*
X0002790Y0094634D01*
X0002844Y0094822D01*
X0002904Y0095009D01*
X0002968Y0095195D01*
X0003036Y0095379D01*
X0003109Y0095561D01*
X0003186Y0095742D01*
X0003268Y0095920D01*
X0003354Y0096097D01*
X0003445Y0096271D01*
X0003539Y0096443D01*
X0003638Y0096613D01*
X0003741Y0096780D01*
X0003848Y0096945D01*
X0003959Y0097106D01*
X0004074Y0097266D01*
X0004193Y0097422D01*
X0004316Y0097575D01*
X0004442Y0097725D01*
X0004572Y0097872D01*
X0004706Y0098016D01*
X0004843Y0098157D01*
X0004984Y0098294D01*
X0005128Y0098428D01*
X0005275Y0098558D01*
X0005425Y0098684D01*
X0005578Y0098807D01*
X0005734Y0098926D01*
X0005894Y0099041D01*
X0006055Y0099152D01*
X0006220Y0099259D01*
X0006387Y0099362D01*
X0006557Y0099461D01*
X0006729Y0099555D01*
X0006903Y0099646D01*
X0007080Y0099732D01*
X0007258Y0099814D01*
X0007439Y0099891D01*
X0007621Y0099964D01*
X0007805Y0100032D01*
X0007991Y0100096D01*
X0008178Y0100156D01*
X0008366Y0100210D01*
X0008556Y0100260D01*
X0008747Y0100306D01*
X0008939Y0100346D01*
X0009132Y0100382D01*
X0009326Y0100413D01*
X0009521Y0100440D01*
X0009716Y0100461D01*
X0009911Y0100478D01*
X0010107Y0100490D01*
X0010304Y0100498D01*
X0010500Y0100500D01*
X0010696Y0100498D01*
X0010893Y0100490D01*
X0011089Y0100478D01*
X0011284Y0100461D01*
X0011479Y0100440D01*
X0011674Y0100413D01*
X0011868Y0100382D01*
X0012061Y0100346D01*
X0012253Y0100306D01*
X0012444Y0100260D01*
X0012634Y0100210D01*
X0012822Y0100156D01*
X0013009Y0100096D01*
X0013195Y0100032D01*
X0013379Y0099964D01*
X0013561Y0099891D01*
X0013742Y0099814D01*
X0013920Y0099732D01*
X0014097Y0099646D01*
X0014271Y0099555D01*
X0014443Y0099461D01*
X0014613Y0099362D01*
X0014780Y0099259D01*
X0014945Y0099152D01*
X0015106Y0099041D01*
X0015266Y0098926D01*
X0015422Y0098807D01*
X0015575Y0098684D01*
X0015725Y0098558D01*
X0015872Y0098428D01*
X0016016Y0098294D01*
X0016157Y0098157D01*
X0016294Y0098016D01*
X0016428Y0097872D01*
X0016558Y0097725D01*
X0016684Y0097575D01*
X0016807Y0097422D01*
X0016926Y0097266D01*
X0017041Y0097106D01*
X0017152Y0096945D01*
X0017259Y0096780D01*
X0017362Y0096613D01*
X0017461Y0096443D01*
X0017555Y0096271D01*
X0017646Y0096097D01*
X0017732Y0095920D01*
X0017814Y0095742D01*
X0017891Y0095561D01*
X0017964Y0095379D01*
X0018032Y0095195D01*
X0018096Y0095009D01*
X0018156Y0094822D01*
X0018210Y0094634D01*
X0018260Y0094444D01*
X0018306Y0094253D01*
X0018346Y0094061D01*
X0018382Y0093868D01*
X0018413Y0093674D01*
X0018440Y0093479D01*
X0018461Y0093284D01*
X0018478Y0093089D01*
X0018490Y0092893D01*
X0018498Y0092696D01*
X0018500Y0092500D01*
X0018498Y0092304D01*
X0018490Y0092107D01*
X0018478Y0091911D01*
X0018461Y0091716D01*
X0018440Y0091521D01*
X0018413Y0091326D01*
X0018382Y0091132D01*
X0018346Y0090939D01*
X0018306Y0090747D01*
X0018260Y0090556D01*
X0018210Y0090366D01*
X0018156Y0090178D01*
X0018096Y0089991D01*
X0018032Y0089805D01*
X0017964Y0089621D01*
X0017891Y0089439D01*
X0017814Y0089258D01*
X0017732Y0089080D01*
X0017646Y0088903D01*
X0017555Y0088729D01*
X0017461Y0088557D01*
X0017362Y0088387D01*
X0017259Y0088220D01*
X0017152Y0088055D01*
X0017041Y0087894D01*
X0016926Y0087734D01*
X0016807Y0087578D01*
X0016684Y0087425D01*
X0016558Y0087275D01*
X0016428Y0087128D01*
X0016294Y0086984D01*
X0016157Y0086843D01*
X0016016Y0086706D01*
X0015872Y0086572D01*
X0015725Y0086442D01*
X0015575Y0086316D01*
X0015422Y0086193D01*
X0015266Y0086074D01*
X0015106Y0085959D01*
X0014945Y0085848D01*
X0014780Y0085741D01*
X0014613Y0085638D01*
X0014443Y0085539D01*
X0014271Y0085445D01*
X0014097Y0085354D01*
X0013920Y0085268D01*
X0013742Y0085186D01*
X0013561Y0085109D01*
X0013379Y0085036D01*
X0013195Y0084968D01*
X0013009Y0084904D01*
X0012822Y0084844D01*
X0012634Y0084790D01*
X0012444Y0084740D01*
X0012253Y0084694D01*
X0012061Y0084654D01*
X0011868Y0084618D01*
X0011674Y0084587D01*
X0011479Y0084560D01*
X0011284Y0084539D01*
X0011089Y0084522D01*
X0010893Y0084510D01*
X0010696Y0084502D01*
X0010500Y0084500D01*
X0010304Y0084502D01*
X0010107Y0084510D01*
X0009911Y0084522D01*
X0009716Y0084539D01*
X0009521Y0084560D01*
X0009326Y0084587D01*
X0009132Y0084618D01*
X0008939Y0084654D01*
X0008747Y0084694D01*
X0008556Y0084740D01*
X0008366Y0084790D01*
X0008178Y0084844D01*
X0007991Y0084904D01*
X0007805Y0084968D01*
X0007621Y0085036D01*
X0007439Y0085109D01*
X0007258Y0085186D01*
X0007080Y0085268D01*
X0006903Y0085354D01*
X0006729Y0085445D01*
X0006557Y0085539D01*
X0006387Y0085638D01*
X0006220Y0085741D01*
X0006055Y0085848D01*
X0005894Y0085959D01*
X0005734Y0086074D01*
X0005578Y0086193D01*
X0005425Y0086316D01*
X0005275Y0086442D01*
X0005128Y0086572D01*
X0004984Y0086706D01*
X0004843Y0086843D01*
X0004706Y0086984D01*
X0004572Y0087128D01*
X0004442Y0087275D01*
X0004316Y0087425D01*
X0004193Y0087578D01*
X0004074Y0087734D01*
X0003959Y0087894D01*
X0003848Y0088055D01*
X0003741Y0088220D01*
X0003638Y0088387D01*
X0003539Y0088557D01*
X0003445Y0088729D01*
X0003354Y0088903D01*
X0003268Y0089080D01*
X0003186Y0089258D01*
X0003109Y0089439D01*
X0003036Y0089621D01*
X0002968Y0089805D01*
X0002904Y0089991D01*
X0002844Y0090178D01*
X0002790Y0090366D01*
X0002740Y0090556D01*
X0002694Y0090747D01*
X0002654Y0090939D01*
X0002618Y0091132D01*
X0002587Y0091326D01*
X0002560Y0091521D01*
X0002539Y0091716D01*
X0002522Y0091911D01*
X0002510Y0092107D01*
X0002502Y0092304D01*
X0002500Y0092500D01*
X0002500Y0074500D02*
X0002502Y0074696D01*
X0002510Y0074893D01*
X0002522Y0075089D01*
X0002539Y0075284D01*
X0002560Y0075479D01*
X0002587Y0075674D01*
X0002618Y0075868D01*
X0002654Y0076061D01*
X0002694Y0076253D01*
X0002740Y0076444D01*
X0002790Y0076634D01*
X0002844Y0076822D01*
X0002904Y0077009D01*
X0002968Y0077195D01*
X0003036Y0077379D01*
X0003109Y0077561D01*
X0003186Y0077742D01*
X0003268Y0077920D01*
X0003354Y0078097D01*
X0003445Y0078271D01*
X0003539Y0078443D01*
X0003638Y0078613D01*
X0003741Y0078780D01*
X0003848Y0078945D01*
X0003959Y0079106D01*
X0004074Y0079266D01*
X0004193Y0079422D01*
X0004316Y0079575D01*
X0004442Y0079725D01*
X0004572Y0079872D01*
X0004706Y0080016D01*
X0004843Y0080157D01*
X0004984Y0080294D01*
X0005128Y0080428D01*
X0005275Y0080558D01*
X0005425Y0080684D01*
X0005578Y0080807D01*
X0005734Y0080926D01*
X0005894Y0081041D01*
X0006055Y0081152D01*
X0006220Y0081259D01*
X0006387Y0081362D01*
X0006557Y0081461D01*
X0006729Y0081555D01*
X0006903Y0081646D01*
X0007080Y0081732D01*
X0007258Y0081814D01*
X0007439Y0081891D01*
X0007621Y0081964D01*
X0007805Y0082032D01*
X0007991Y0082096D01*
X0008178Y0082156D01*
X0008366Y0082210D01*
X0008556Y0082260D01*
X0008747Y0082306D01*
X0008939Y0082346D01*
X0009132Y0082382D01*
X0009326Y0082413D01*
X0009521Y0082440D01*
X0009716Y0082461D01*
X0009911Y0082478D01*
X0010107Y0082490D01*
X0010304Y0082498D01*
X0010500Y0082500D01*
X0010696Y0082498D01*
X0010893Y0082490D01*
X0011089Y0082478D01*
X0011284Y0082461D01*
X0011479Y0082440D01*
X0011674Y0082413D01*
X0011868Y0082382D01*
X0012061Y0082346D01*
X0012253Y0082306D01*
X0012444Y0082260D01*
X0012634Y0082210D01*
X0012822Y0082156D01*
X0013009Y0082096D01*
X0013195Y0082032D01*
X0013379Y0081964D01*
X0013561Y0081891D01*
X0013742Y0081814D01*
X0013920Y0081732D01*
X0014097Y0081646D01*
X0014271Y0081555D01*
X0014443Y0081461D01*
X0014613Y0081362D01*
X0014780Y0081259D01*
X0014945Y0081152D01*
X0015106Y0081041D01*
X0015266Y0080926D01*
X0015422Y0080807D01*
X0015575Y0080684D01*
X0015725Y0080558D01*
X0015872Y0080428D01*
X0016016Y0080294D01*
X0016157Y0080157D01*
X0016294Y0080016D01*
X0016428Y0079872D01*
X0016558Y0079725D01*
X0016684Y0079575D01*
X0016807Y0079422D01*
X0016926Y0079266D01*
X0017041Y0079106D01*
X0017152Y0078945D01*
X0017259Y0078780D01*
X0017362Y0078613D01*
X0017461Y0078443D01*
X0017555Y0078271D01*
X0017646Y0078097D01*
X0017732Y0077920D01*
X0017814Y0077742D01*
X0017891Y0077561D01*
X0017964Y0077379D01*
X0018032Y0077195D01*
X0018096Y0077009D01*
X0018156Y0076822D01*
X0018210Y0076634D01*
X0018260Y0076444D01*
X0018306Y0076253D01*
X0018346Y0076061D01*
X0018382Y0075868D01*
X0018413Y0075674D01*
X0018440Y0075479D01*
X0018461Y0075284D01*
X0018478Y0075089D01*
X0018490Y0074893D01*
X0018498Y0074696D01*
X0018500Y0074500D01*
X0018498Y0074304D01*
X0018490Y0074107D01*
X0018478Y0073911D01*
X0018461Y0073716D01*
X0018440Y0073521D01*
X0018413Y0073326D01*
X0018382Y0073132D01*
X0018346Y0072939D01*
X0018306Y0072747D01*
X0018260Y0072556D01*
X0018210Y0072366D01*
X0018156Y0072178D01*
X0018096Y0071991D01*
X0018032Y0071805D01*
X0017964Y0071621D01*
X0017891Y0071439D01*
X0017814Y0071258D01*
X0017732Y0071080D01*
X0017646Y0070903D01*
X0017555Y0070729D01*
X0017461Y0070557D01*
X0017362Y0070387D01*
X0017259Y0070220D01*
X0017152Y0070055D01*
X0017041Y0069894D01*
X0016926Y0069734D01*
X0016807Y0069578D01*
X0016684Y0069425D01*
X0016558Y0069275D01*
X0016428Y0069128D01*
X0016294Y0068984D01*
X0016157Y0068843D01*
X0016016Y0068706D01*
X0015872Y0068572D01*
X0015725Y0068442D01*
X0015575Y0068316D01*
X0015422Y0068193D01*
X0015266Y0068074D01*
X0015106Y0067959D01*
X0014945Y0067848D01*
X0014780Y0067741D01*
X0014613Y0067638D01*
X0014443Y0067539D01*
X0014271Y0067445D01*
X0014097Y0067354D01*
X0013920Y0067268D01*
X0013742Y0067186D01*
X0013561Y0067109D01*
X0013379Y0067036D01*
X0013195Y0066968D01*
X0013009Y0066904D01*
X0012822Y0066844D01*
X0012634Y0066790D01*
X0012444Y0066740D01*
X0012253Y0066694D01*
X0012061Y0066654D01*
X0011868Y0066618D01*
X0011674Y0066587D01*
X0011479Y0066560D01*
X0011284Y0066539D01*
X0011089Y0066522D01*
X0010893Y0066510D01*
X0010696Y0066502D01*
X0010500Y0066500D01*
X0010304Y0066502D01*
X0010107Y0066510D01*
X0009911Y0066522D01*
X0009716Y0066539D01*
X0009521Y0066560D01*
X0009326Y0066587D01*
X0009132Y0066618D01*
X0008939Y0066654D01*
X0008747Y0066694D01*
X0008556Y0066740D01*
X0008366Y0066790D01*
X0008178Y0066844D01*
X0007991Y0066904D01*
X0007805Y0066968D01*
X0007621Y0067036D01*
X0007439Y0067109D01*
X0007258Y0067186D01*
X0007080Y0067268D01*
X0006903Y0067354D01*
X0006729Y0067445D01*
X0006557Y0067539D01*
X0006387Y0067638D01*
X0006220Y0067741D01*
X0006055Y0067848D01*
X0005894Y0067959D01*
X0005734Y0068074D01*
X0005578Y0068193D01*
X0005425Y0068316D01*
X0005275Y0068442D01*
X0005128Y0068572D01*
X0004984Y0068706D01*
X0004843Y0068843D01*
X0004706Y0068984D01*
X0004572Y0069128D01*
X0004442Y0069275D01*
X0004316Y0069425D01*
X0004193Y0069578D01*
X0004074Y0069734D01*
X0003959Y0069894D01*
X0003848Y0070055D01*
X0003741Y0070220D01*
X0003638Y0070387D01*
X0003539Y0070557D01*
X0003445Y0070729D01*
X0003354Y0070903D01*
X0003268Y0071080D01*
X0003186Y0071258D01*
X0003109Y0071439D01*
X0003036Y0071621D01*
X0002968Y0071805D01*
X0002904Y0071991D01*
X0002844Y0072178D01*
X0002790Y0072366D01*
X0002740Y0072556D01*
X0002694Y0072747D01*
X0002654Y0072939D01*
X0002618Y0073132D01*
X0002587Y0073326D01*
X0002560Y0073521D01*
X0002539Y0073716D01*
X0002522Y0073911D01*
X0002510Y0074107D01*
X0002502Y0074304D01*
X0002500Y0074500D01*
X0002500Y0056500D02*
X0002502Y0056696D01*
X0002510Y0056893D01*
X0002522Y0057089D01*
X0002539Y0057284D01*
X0002560Y0057479D01*
X0002587Y0057674D01*
X0002618Y0057868D01*
X0002654Y0058061D01*
X0002694Y0058253D01*
X0002740Y0058444D01*
X0002790Y0058634D01*
X0002844Y0058822D01*
X0002904Y0059009D01*
X0002968Y0059195D01*
X0003036Y0059379D01*
X0003109Y0059561D01*
X0003186Y0059742D01*
X0003268Y0059920D01*
X0003354Y0060097D01*
X0003445Y0060271D01*
X0003539Y0060443D01*
X0003638Y0060613D01*
X0003741Y0060780D01*
X0003848Y0060945D01*
X0003959Y0061106D01*
X0004074Y0061266D01*
X0004193Y0061422D01*
X0004316Y0061575D01*
X0004442Y0061725D01*
X0004572Y0061872D01*
X0004706Y0062016D01*
X0004843Y0062157D01*
X0004984Y0062294D01*
X0005128Y0062428D01*
X0005275Y0062558D01*
X0005425Y0062684D01*
X0005578Y0062807D01*
X0005734Y0062926D01*
X0005894Y0063041D01*
X0006055Y0063152D01*
X0006220Y0063259D01*
X0006387Y0063362D01*
X0006557Y0063461D01*
X0006729Y0063555D01*
X0006903Y0063646D01*
X0007080Y0063732D01*
X0007258Y0063814D01*
X0007439Y0063891D01*
X0007621Y0063964D01*
X0007805Y0064032D01*
X0007991Y0064096D01*
X0008178Y0064156D01*
X0008366Y0064210D01*
X0008556Y0064260D01*
X0008747Y0064306D01*
X0008939Y0064346D01*
X0009132Y0064382D01*
X0009326Y0064413D01*
X0009521Y0064440D01*
X0009716Y0064461D01*
X0009911Y0064478D01*
X0010107Y0064490D01*
X0010304Y0064498D01*
X0010500Y0064500D01*
X0010696Y0064498D01*
X0010893Y0064490D01*
X0011089Y0064478D01*
X0011284Y0064461D01*
X0011479Y0064440D01*
X0011674Y0064413D01*
X0011868Y0064382D01*
X0012061Y0064346D01*
X0012253Y0064306D01*
X0012444Y0064260D01*
X0012634Y0064210D01*
X0012822Y0064156D01*
X0013009Y0064096D01*
X0013195Y0064032D01*
X0013379Y0063964D01*
X0013561Y0063891D01*
X0013742Y0063814D01*
X0013920Y0063732D01*
X0014097Y0063646D01*
X0014271Y0063555D01*
X0014443Y0063461D01*
X0014613Y0063362D01*
X0014780Y0063259D01*
X0014945Y0063152D01*
X0015106Y0063041D01*
X0015266Y0062926D01*
X0015422Y0062807D01*
X0015575Y0062684D01*
X0015725Y0062558D01*
X0015872Y0062428D01*
X0016016Y0062294D01*
X0016157Y0062157D01*
X0016294Y0062016D01*
X0016428Y0061872D01*
X0016558Y0061725D01*
X0016684Y0061575D01*
X0016807Y0061422D01*
X0016926Y0061266D01*
X0017041Y0061106D01*
X0017152Y0060945D01*
X0017259Y0060780D01*
X0017362Y0060613D01*
X0017461Y0060443D01*
X0017555Y0060271D01*
X0017646Y0060097D01*
X0017732Y0059920D01*
X0017814Y0059742D01*
X0017891Y0059561D01*
X0017964Y0059379D01*
X0018032Y0059195D01*
X0018096Y0059009D01*
X0018156Y0058822D01*
X0018210Y0058634D01*
X0018260Y0058444D01*
X0018306Y0058253D01*
X0018346Y0058061D01*
X0018382Y0057868D01*
X0018413Y0057674D01*
X0018440Y0057479D01*
X0018461Y0057284D01*
X0018478Y0057089D01*
X0018490Y0056893D01*
X0018498Y0056696D01*
X0018500Y0056500D01*
X0018498Y0056304D01*
X0018490Y0056107D01*
X0018478Y0055911D01*
X0018461Y0055716D01*
X0018440Y0055521D01*
X0018413Y0055326D01*
X0018382Y0055132D01*
X0018346Y0054939D01*
X0018306Y0054747D01*
X0018260Y0054556D01*
X0018210Y0054366D01*
X0018156Y0054178D01*
X0018096Y0053991D01*
X0018032Y0053805D01*
X0017964Y0053621D01*
X0017891Y0053439D01*
X0017814Y0053258D01*
X0017732Y0053080D01*
X0017646Y0052903D01*
X0017555Y0052729D01*
X0017461Y0052557D01*
X0017362Y0052387D01*
X0017259Y0052220D01*
X0017152Y0052055D01*
X0017041Y0051894D01*
X0016926Y0051734D01*
X0016807Y0051578D01*
X0016684Y0051425D01*
X0016558Y0051275D01*
X0016428Y0051128D01*
X0016294Y0050984D01*
X0016157Y0050843D01*
X0016016Y0050706D01*
X0015872Y0050572D01*
X0015725Y0050442D01*
X0015575Y0050316D01*
X0015422Y0050193D01*
X0015266Y0050074D01*
X0015106Y0049959D01*
X0014945Y0049848D01*
X0014780Y0049741D01*
X0014613Y0049638D01*
X0014443Y0049539D01*
X0014271Y0049445D01*
X0014097Y0049354D01*
X0013920Y0049268D01*
X0013742Y0049186D01*
X0013561Y0049109D01*
X0013379Y0049036D01*
X0013195Y0048968D01*
X0013009Y0048904D01*
X0012822Y0048844D01*
X0012634Y0048790D01*
X0012444Y0048740D01*
X0012253Y0048694D01*
X0012061Y0048654D01*
X0011868Y0048618D01*
X0011674Y0048587D01*
X0011479Y0048560D01*
X0011284Y0048539D01*
X0011089Y0048522D01*
X0010893Y0048510D01*
X0010696Y0048502D01*
X0010500Y0048500D01*
X0010304Y0048502D01*
X0010107Y0048510D01*
X0009911Y0048522D01*
X0009716Y0048539D01*
X0009521Y0048560D01*
X0009326Y0048587D01*
X0009132Y0048618D01*
X0008939Y0048654D01*
X0008747Y0048694D01*
X0008556Y0048740D01*
X0008366Y0048790D01*
X0008178Y0048844D01*
X0007991Y0048904D01*
X0007805Y0048968D01*
X0007621Y0049036D01*
X0007439Y0049109D01*
X0007258Y0049186D01*
X0007080Y0049268D01*
X0006903Y0049354D01*
X0006729Y0049445D01*
X0006557Y0049539D01*
X0006387Y0049638D01*
X0006220Y0049741D01*
X0006055Y0049848D01*
X0005894Y0049959D01*
X0005734Y0050074D01*
X0005578Y0050193D01*
X0005425Y0050316D01*
X0005275Y0050442D01*
X0005128Y0050572D01*
X0004984Y0050706D01*
X0004843Y0050843D01*
X0004706Y0050984D01*
X0004572Y0051128D01*
X0004442Y0051275D01*
X0004316Y0051425D01*
X0004193Y0051578D01*
X0004074Y0051734D01*
X0003959Y0051894D01*
X0003848Y0052055D01*
X0003741Y0052220D01*
X0003638Y0052387D01*
X0003539Y0052557D01*
X0003445Y0052729D01*
X0003354Y0052903D01*
X0003268Y0053080D01*
X0003186Y0053258D01*
X0003109Y0053439D01*
X0003036Y0053621D01*
X0002968Y0053805D01*
X0002904Y0053991D01*
X0002844Y0054178D01*
X0002790Y0054366D01*
X0002740Y0054556D01*
X0002694Y0054747D01*
X0002654Y0054939D01*
X0002618Y0055132D01*
X0002587Y0055326D01*
X0002560Y0055521D01*
X0002539Y0055716D01*
X0002522Y0055911D01*
X0002510Y0056107D01*
X0002502Y0056304D01*
X0002500Y0056500D01*
X0002500Y0038500D02*
X0002502Y0038696D01*
X0002510Y0038893D01*
X0002522Y0039089D01*
X0002539Y0039284D01*
X0002560Y0039479D01*
X0002587Y0039674D01*
X0002618Y0039868D01*
X0002654Y0040061D01*
X0002694Y0040253D01*
X0002740Y0040444D01*
X0002790Y0040634D01*
X0002844Y0040822D01*
X0002904Y0041009D01*
X0002968Y0041195D01*
X0003036Y0041379D01*
X0003109Y0041561D01*
X0003186Y0041742D01*
X0003268Y0041920D01*
X0003354Y0042097D01*
X0003445Y0042271D01*
X0003539Y0042443D01*
X0003638Y0042613D01*
X0003741Y0042780D01*
X0003848Y0042945D01*
X0003959Y0043106D01*
X0004074Y0043266D01*
X0004193Y0043422D01*
X0004316Y0043575D01*
X0004442Y0043725D01*
X0004572Y0043872D01*
X0004706Y0044016D01*
X0004843Y0044157D01*
X0004984Y0044294D01*
X0005128Y0044428D01*
X0005275Y0044558D01*
X0005425Y0044684D01*
X0005578Y0044807D01*
X0005734Y0044926D01*
X0005894Y0045041D01*
X0006055Y0045152D01*
X0006220Y0045259D01*
X0006387Y0045362D01*
X0006557Y0045461D01*
X0006729Y0045555D01*
X0006903Y0045646D01*
X0007080Y0045732D01*
X0007258Y0045814D01*
X0007439Y0045891D01*
X0007621Y0045964D01*
X0007805Y0046032D01*
X0007991Y0046096D01*
X0008178Y0046156D01*
X0008366Y0046210D01*
X0008556Y0046260D01*
X0008747Y0046306D01*
X0008939Y0046346D01*
X0009132Y0046382D01*
X0009326Y0046413D01*
X0009521Y0046440D01*
X0009716Y0046461D01*
X0009911Y0046478D01*
X0010107Y0046490D01*
X0010304Y0046498D01*
X0010500Y0046500D01*
X0010696Y0046498D01*
X0010893Y0046490D01*
X0011089Y0046478D01*
X0011284Y0046461D01*
X0011479Y0046440D01*
X0011674Y0046413D01*
X0011868Y0046382D01*
X0012061Y0046346D01*
X0012253Y0046306D01*
X0012444Y0046260D01*
X0012634Y0046210D01*
X0012822Y0046156D01*
X0013009Y0046096D01*
X0013195Y0046032D01*
X0013379Y0045964D01*
X0013561Y0045891D01*
X0013742Y0045814D01*
X0013920Y0045732D01*
X0014097Y0045646D01*
X0014271Y0045555D01*
X0014443Y0045461D01*
X0014613Y0045362D01*
X0014780Y0045259D01*
X0014945Y0045152D01*
X0015106Y0045041D01*
X0015266Y0044926D01*
X0015422Y0044807D01*
X0015575Y0044684D01*
X0015725Y0044558D01*
X0015872Y0044428D01*
X0016016Y0044294D01*
X0016157Y0044157D01*
X0016294Y0044016D01*
X0016428Y0043872D01*
X0016558Y0043725D01*
X0016684Y0043575D01*
X0016807Y0043422D01*
X0016926Y0043266D01*
X0017041Y0043106D01*
X0017152Y0042945D01*
X0017259Y0042780D01*
X0017362Y0042613D01*
X0017461Y0042443D01*
X0017555Y0042271D01*
X0017646Y0042097D01*
X0017732Y0041920D01*
X0017814Y0041742D01*
X0017891Y0041561D01*
X0017964Y0041379D01*
X0018032Y0041195D01*
X0018096Y0041009D01*
X0018156Y0040822D01*
X0018210Y0040634D01*
X0018260Y0040444D01*
X0018306Y0040253D01*
X0018346Y0040061D01*
X0018382Y0039868D01*
X0018413Y0039674D01*
X0018440Y0039479D01*
X0018461Y0039284D01*
X0018478Y0039089D01*
X0018490Y0038893D01*
X0018498Y0038696D01*
X0018500Y0038500D01*
X0018498Y0038304D01*
X0018490Y0038107D01*
X0018478Y0037911D01*
X0018461Y0037716D01*
X0018440Y0037521D01*
X0018413Y0037326D01*
X0018382Y0037132D01*
X0018346Y0036939D01*
X0018306Y0036747D01*
X0018260Y0036556D01*
X0018210Y0036366D01*
X0018156Y0036178D01*
X0018096Y0035991D01*
X0018032Y0035805D01*
X0017964Y0035621D01*
X0017891Y0035439D01*
X0017814Y0035258D01*
X0017732Y0035080D01*
X0017646Y0034903D01*
X0017555Y0034729D01*
X0017461Y0034557D01*
X0017362Y0034387D01*
X0017259Y0034220D01*
X0017152Y0034055D01*
X0017041Y0033894D01*
X0016926Y0033734D01*
X0016807Y0033578D01*
X0016684Y0033425D01*
X0016558Y0033275D01*
X0016428Y0033128D01*
X0016294Y0032984D01*
X0016157Y0032843D01*
X0016016Y0032706D01*
X0015872Y0032572D01*
X0015725Y0032442D01*
X0015575Y0032316D01*
X0015422Y0032193D01*
X0015266Y0032074D01*
X0015106Y0031959D01*
X0014945Y0031848D01*
X0014780Y0031741D01*
X0014613Y0031638D01*
X0014443Y0031539D01*
X0014271Y0031445D01*
X0014097Y0031354D01*
X0013920Y0031268D01*
X0013742Y0031186D01*
X0013561Y0031109D01*
X0013379Y0031036D01*
X0013195Y0030968D01*
X0013009Y0030904D01*
X0012822Y0030844D01*
X0012634Y0030790D01*
X0012444Y0030740D01*
X0012253Y0030694D01*
X0012061Y0030654D01*
X0011868Y0030618D01*
X0011674Y0030587D01*
X0011479Y0030560D01*
X0011284Y0030539D01*
X0011089Y0030522D01*
X0010893Y0030510D01*
X0010696Y0030502D01*
X0010500Y0030500D01*
X0010304Y0030502D01*
X0010107Y0030510D01*
X0009911Y0030522D01*
X0009716Y0030539D01*
X0009521Y0030560D01*
X0009326Y0030587D01*
X0009132Y0030618D01*
X0008939Y0030654D01*
X0008747Y0030694D01*
X0008556Y0030740D01*
X0008366Y0030790D01*
X0008178Y0030844D01*
X0007991Y0030904D01*
X0007805Y0030968D01*
X0007621Y0031036D01*
X0007439Y0031109D01*
X0007258Y0031186D01*
X0007080Y0031268D01*
X0006903Y0031354D01*
X0006729Y0031445D01*
X0006557Y0031539D01*
X0006387Y0031638D01*
X0006220Y0031741D01*
X0006055Y0031848D01*
X0005894Y0031959D01*
X0005734Y0032074D01*
X0005578Y0032193D01*
X0005425Y0032316D01*
X0005275Y0032442D01*
X0005128Y0032572D01*
X0004984Y0032706D01*
X0004843Y0032843D01*
X0004706Y0032984D01*
X0004572Y0033128D01*
X0004442Y0033275D01*
X0004316Y0033425D01*
X0004193Y0033578D01*
X0004074Y0033734D01*
X0003959Y0033894D01*
X0003848Y0034055D01*
X0003741Y0034220D01*
X0003638Y0034387D01*
X0003539Y0034557D01*
X0003445Y0034729D01*
X0003354Y0034903D01*
X0003268Y0035080D01*
X0003186Y0035258D01*
X0003109Y0035439D01*
X0003036Y0035621D01*
X0002968Y0035805D01*
X0002904Y0035991D01*
X0002844Y0036178D01*
X0002790Y0036366D01*
X0002740Y0036556D01*
X0002694Y0036747D01*
X0002654Y0036939D01*
X0002618Y0037132D01*
X0002587Y0037326D01*
X0002560Y0037521D01*
X0002539Y0037716D01*
X0002522Y0037911D01*
X0002510Y0038107D01*
X0002502Y0038304D01*
X0002500Y0038500D01*
X0002500Y0020500D02*
X0002502Y0020696D01*
X0002510Y0020893D01*
X0002522Y0021089D01*
X0002539Y0021284D01*
X0002560Y0021479D01*
X0002587Y0021674D01*
X0002618Y0021868D01*
X0002654Y0022061D01*
X0002694Y0022253D01*
X0002740Y0022444D01*
X0002790Y0022634D01*
X0002844Y0022822D01*
X0002904Y0023009D01*
X0002968Y0023195D01*
X0003036Y0023379D01*
X0003109Y0023561D01*
X0003186Y0023742D01*
X0003268Y0023920D01*
X0003354Y0024097D01*
X0003445Y0024271D01*
X0003539Y0024443D01*
X0003638Y0024613D01*
X0003741Y0024780D01*
X0003848Y0024945D01*
X0003959Y0025106D01*
X0004074Y0025266D01*
X0004193Y0025422D01*
X0004316Y0025575D01*
X0004442Y0025725D01*
X0004572Y0025872D01*
X0004706Y0026016D01*
X0004843Y0026157D01*
X0004984Y0026294D01*
X0005128Y0026428D01*
X0005275Y0026558D01*
X0005425Y0026684D01*
X0005578Y0026807D01*
X0005734Y0026926D01*
X0005894Y0027041D01*
X0006055Y0027152D01*
X0006220Y0027259D01*
X0006387Y0027362D01*
X0006557Y0027461D01*
X0006729Y0027555D01*
X0006903Y0027646D01*
X0007080Y0027732D01*
X0007258Y0027814D01*
X0007439Y0027891D01*
X0007621Y0027964D01*
X0007805Y0028032D01*
X0007991Y0028096D01*
X0008178Y0028156D01*
X0008366Y0028210D01*
X0008556Y0028260D01*
X0008747Y0028306D01*
X0008939Y0028346D01*
X0009132Y0028382D01*
X0009326Y0028413D01*
X0009521Y0028440D01*
X0009716Y0028461D01*
X0009911Y0028478D01*
X0010107Y0028490D01*
X0010304Y0028498D01*
X0010500Y0028500D01*
X0010696Y0028498D01*
X0010893Y0028490D01*
X0011089Y0028478D01*
X0011284Y0028461D01*
X0011479Y0028440D01*
X0011674Y0028413D01*
X0011868Y0028382D01*
X0012061Y0028346D01*
X0012253Y0028306D01*
X0012444Y0028260D01*
X0012634Y0028210D01*
X0012822Y0028156D01*
X0013009Y0028096D01*
X0013195Y0028032D01*
X0013379Y0027964D01*
X0013561Y0027891D01*
X0013742Y0027814D01*
X0013920Y0027732D01*
X0014097Y0027646D01*
X0014271Y0027555D01*
X0014443Y0027461D01*
X0014613Y0027362D01*
X0014780Y0027259D01*
X0014945Y0027152D01*
X0015106Y0027041D01*
X0015266Y0026926D01*
X0015422Y0026807D01*
X0015575Y0026684D01*
X0015725Y0026558D01*
X0015872Y0026428D01*
X0016016Y0026294D01*
X0016157Y0026157D01*
X0016294Y0026016D01*
X0016428Y0025872D01*
X0016558Y0025725D01*
X0016684Y0025575D01*
X0016807Y0025422D01*
X0016926Y0025266D01*
X0017041Y0025106D01*
X0017152Y0024945D01*
X0017259Y0024780D01*
X0017362Y0024613D01*
X0017461Y0024443D01*
X0017555Y0024271D01*
X0017646Y0024097D01*
X0017732Y0023920D01*
X0017814Y0023742D01*
X0017891Y0023561D01*
X0017964Y0023379D01*
X0018032Y0023195D01*
X0018096Y0023009D01*
X0018156Y0022822D01*
X0018210Y0022634D01*
X0018260Y0022444D01*
X0018306Y0022253D01*
X0018346Y0022061D01*
X0018382Y0021868D01*
X0018413Y0021674D01*
X0018440Y0021479D01*
X0018461Y0021284D01*
X0018478Y0021089D01*
X0018490Y0020893D01*
X0018498Y0020696D01*
X0018500Y0020500D01*
X0018498Y0020304D01*
X0018490Y0020107D01*
X0018478Y0019911D01*
X0018461Y0019716D01*
X0018440Y0019521D01*
X0018413Y0019326D01*
X0018382Y0019132D01*
X0018346Y0018939D01*
X0018306Y0018747D01*
X0018260Y0018556D01*
X0018210Y0018366D01*
X0018156Y0018178D01*
X0018096Y0017991D01*
X0018032Y0017805D01*
X0017964Y0017621D01*
X0017891Y0017439D01*
X0017814Y0017258D01*
X0017732Y0017080D01*
X0017646Y0016903D01*
X0017555Y0016729D01*
X0017461Y0016557D01*
X0017362Y0016387D01*
X0017259Y0016220D01*
X0017152Y0016055D01*
X0017041Y0015894D01*
X0016926Y0015734D01*
X0016807Y0015578D01*
X0016684Y0015425D01*
X0016558Y0015275D01*
X0016428Y0015128D01*
X0016294Y0014984D01*
X0016157Y0014843D01*
X0016016Y0014706D01*
X0015872Y0014572D01*
X0015725Y0014442D01*
X0015575Y0014316D01*
X0015422Y0014193D01*
X0015266Y0014074D01*
X0015106Y0013959D01*
X0014945Y0013848D01*
X0014780Y0013741D01*
X0014613Y0013638D01*
X0014443Y0013539D01*
X0014271Y0013445D01*
X0014097Y0013354D01*
X0013920Y0013268D01*
X0013742Y0013186D01*
X0013561Y0013109D01*
X0013379Y0013036D01*
X0013195Y0012968D01*
X0013009Y0012904D01*
X0012822Y0012844D01*
X0012634Y0012790D01*
X0012444Y0012740D01*
X0012253Y0012694D01*
X0012061Y0012654D01*
X0011868Y0012618D01*
X0011674Y0012587D01*
X0011479Y0012560D01*
X0011284Y0012539D01*
X0011089Y0012522D01*
X0010893Y0012510D01*
X0010696Y0012502D01*
X0010500Y0012500D01*
X0010304Y0012502D01*
X0010107Y0012510D01*
X0009911Y0012522D01*
X0009716Y0012539D01*
X0009521Y0012560D01*
X0009326Y0012587D01*
X0009132Y0012618D01*
X0008939Y0012654D01*
X0008747Y0012694D01*
X0008556Y0012740D01*
X0008366Y0012790D01*
X0008178Y0012844D01*
X0007991Y0012904D01*
X0007805Y0012968D01*
X0007621Y0013036D01*
X0007439Y0013109D01*
X0007258Y0013186D01*
X0007080Y0013268D01*
X0006903Y0013354D01*
X0006729Y0013445D01*
X0006557Y0013539D01*
X0006387Y0013638D01*
X0006220Y0013741D01*
X0006055Y0013848D01*
X0005894Y0013959D01*
X0005734Y0014074D01*
X0005578Y0014193D01*
X0005425Y0014316D01*
X0005275Y0014442D01*
X0005128Y0014572D01*
X0004984Y0014706D01*
X0004843Y0014843D01*
X0004706Y0014984D01*
X0004572Y0015128D01*
X0004442Y0015275D01*
X0004316Y0015425D01*
X0004193Y0015578D01*
X0004074Y0015734D01*
X0003959Y0015894D01*
X0003848Y0016055D01*
X0003741Y0016220D01*
X0003638Y0016387D01*
X0003539Y0016557D01*
X0003445Y0016729D01*
X0003354Y0016903D01*
X0003268Y0017080D01*
X0003186Y0017258D01*
X0003109Y0017439D01*
X0003036Y0017621D01*
X0002968Y0017805D01*
X0002904Y0017991D01*
X0002844Y0018178D01*
X0002790Y0018366D01*
X0002740Y0018556D01*
X0002694Y0018747D01*
X0002654Y0018939D01*
X0002618Y0019132D01*
X0002587Y0019326D01*
X0002560Y0019521D01*
X0002539Y0019716D01*
X0002522Y0019911D01*
X0002510Y0020107D01*
X0002502Y0020304D01*
X0002500Y0020500D01*
X0202500Y0020500D02*
X0202502Y0020696D01*
X0202510Y0020893D01*
X0202522Y0021089D01*
X0202539Y0021284D01*
X0202560Y0021479D01*
X0202587Y0021674D01*
X0202618Y0021868D01*
X0202654Y0022061D01*
X0202694Y0022253D01*
X0202740Y0022444D01*
X0202790Y0022634D01*
X0202844Y0022822D01*
X0202904Y0023009D01*
X0202968Y0023195D01*
X0203036Y0023379D01*
X0203109Y0023561D01*
X0203186Y0023742D01*
X0203268Y0023920D01*
X0203354Y0024097D01*
X0203445Y0024271D01*
X0203539Y0024443D01*
X0203638Y0024613D01*
X0203741Y0024780D01*
X0203848Y0024945D01*
X0203959Y0025106D01*
X0204074Y0025266D01*
X0204193Y0025422D01*
X0204316Y0025575D01*
X0204442Y0025725D01*
X0204572Y0025872D01*
X0204706Y0026016D01*
X0204843Y0026157D01*
X0204984Y0026294D01*
X0205128Y0026428D01*
X0205275Y0026558D01*
X0205425Y0026684D01*
X0205578Y0026807D01*
X0205734Y0026926D01*
X0205894Y0027041D01*
X0206055Y0027152D01*
X0206220Y0027259D01*
X0206387Y0027362D01*
X0206557Y0027461D01*
X0206729Y0027555D01*
X0206903Y0027646D01*
X0207080Y0027732D01*
X0207258Y0027814D01*
X0207439Y0027891D01*
X0207621Y0027964D01*
X0207805Y0028032D01*
X0207991Y0028096D01*
X0208178Y0028156D01*
X0208366Y0028210D01*
X0208556Y0028260D01*
X0208747Y0028306D01*
X0208939Y0028346D01*
X0209132Y0028382D01*
X0209326Y0028413D01*
X0209521Y0028440D01*
X0209716Y0028461D01*
X0209911Y0028478D01*
X0210107Y0028490D01*
X0210304Y0028498D01*
X0210500Y0028500D01*
X0210696Y0028498D01*
X0210893Y0028490D01*
X0211089Y0028478D01*
X0211284Y0028461D01*
X0211479Y0028440D01*
X0211674Y0028413D01*
X0211868Y0028382D01*
X0212061Y0028346D01*
X0212253Y0028306D01*
X0212444Y0028260D01*
X0212634Y0028210D01*
X0212822Y0028156D01*
X0213009Y0028096D01*
X0213195Y0028032D01*
X0213379Y0027964D01*
X0213561Y0027891D01*
X0213742Y0027814D01*
X0213920Y0027732D01*
X0214097Y0027646D01*
X0214271Y0027555D01*
X0214443Y0027461D01*
X0214613Y0027362D01*
X0214780Y0027259D01*
X0214945Y0027152D01*
X0215106Y0027041D01*
X0215266Y0026926D01*
X0215422Y0026807D01*
X0215575Y0026684D01*
X0215725Y0026558D01*
X0215872Y0026428D01*
X0216016Y0026294D01*
X0216157Y0026157D01*
X0216294Y0026016D01*
X0216428Y0025872D01*
X0216558Y0025725D01*
X0216684Y0025575D01*
X0216807Y0025422D01*
X0216926Y0025266D01*
X0217041Y0025106D01*
X0217152Y0024945D01*
X0217259Y0024780D01*
X0217362Y0024613D01*
X0217461Y0024443D01*
X0217555Y0024271D01*
X0217646Y0024097D01*
X0217732Y0023920D01*
X0217814Y0023742D01*
X0217891Y0023561D01*
X0217964Y0023379D01*
X0218032Y0023195D01*
X0218096Y0023009D01*
X0218156Y0022822D01*
X0218210Y0022634D01*
X0218260Y0022444D01*
X0218306Y0022253D01*
X0218346Y0022061D01*
X0218382Y0021868D01*
X0218413Y0021674D01*
X0218440Y0021479D01*
X0218461Y0021284D01*
X0218478Y0021089D01*
X0218490Y0020893D01*
X0218498Y0020696D01*
X0218500Y0020500D01*
X0218498Y0020304D01*
X0218490Y0020107D01*
X0218478Y0019911D01*
X0218461Y0019716D01*
X0218440Y0019521D01*
X0218413Y0019326D01*
X0218382Y0019132D01*
X0218346Y0018939D01*
X0218306Y0018747D01*
X0218260Y0018556D01*
X0218210Y0018366D01*
X0218156Y0018178D01*
X0218096Y0017991D01*
X0218032Y0017805D01*
X0217964Y0017621D01*
X0217891Y0017439D01*
X0217814Y0017258D01*
X0217732Y0017080D01*
X0217646Y0016903D01*
X0217555Y0016729D01*
X0217461Y0016557D01*
X0217362Y0016387D01*
X0217259Y0016220D01*
X0217152Y0016055D01*
X0217041Y0015894D01*
X0216926Y0015734D01*
X0216807Y0015578D01*
X0216684Y0015425D01*
X0216558Y0015275D01*
X0216428Y0015128D01*
X0216294Y0014984D01*
X0216157Y0014843D01*
X0216016Y0014706D01*
X0215872Y0014572D01*
X0215725Y0014442D01*
X0215575Y0014316D01*
X0215422Y0014193D01*
X0215266Y0014074D01*
X0215106Y0013959D01*
X0214945Y0013848D01*
X0214780Y0013741D01*
X0214613Y0013638D01*
X0214443Y0013539D01*
X0214271Y0013445D01*
X0214097Y0013354D01*
X0213920Y0013268D01*
X0213742Y0013186D01*
X0213561Y0013109D01*
X0213379Y0013036D01*
X0213195Y0012968D01*
X0213009Y0012904D01*
X0212822Y0012844D01*
X0212634Y0012790D01*
X0212444Y0012740D01*
X0212253Y0012694D01*
X0212061Y0012654D01*
X0211868Y0012618D01*
X0211674Y0012587D01*
X0211479Y0012560D01*
X0211284Y0012539D01*
X0211089Y0012522D01*
X0210893Y0012510D01*
X0210696Y0012502D01*
X0210500Y0012500D01*
X0210304Y0012502D01*
X0210107Y0012510D01*
X0209911Y0012522D01*
X0209716Y0012539D01*
X0209521Y0012560D01*
X0209326Y0012587D01*
X0209132Y0012618D01*
X0208939Y0012654D01*
X0208747Y0012694D01*
X0208556Y0012740D01*
X0208366Y0012790D01*
X0208178Y0012844D01*
X0207991Y0012904D01*
X0207805Y0012968D01*
X0207621Y0013036D01*
X0207439Y0013109D01*
X0207258Y0013186D01*
X0207080Y0013268D01*
X0206903Y0013354D01*
X0206729Y0013445D01*
X0206557Y0013539D01*
X0206387Y0013638D01*
X0206220Y0013741D01*
X0206055Y0013848D01*
X0205894Y0013959D01*
X0205734Y0014074D01*
X0205578Y0014193D01*
X0205425Y0014316D01*
X0205275Y0014442D01*
X0205128Y0014572D01*
X0204984Y0014706D01*
X0204843Y0014843D01*
X0204706Y0014984D01*
X0204572Y0015128D01*
X0204442Y0015275D01*
X0204316Y0015425D01*
X0204193Y0015578D01*
X0204074Y0015734D01*
X0203959Y0015894D01*
X0203848Y0016055D01*
X0203741Y0016220D01*
X0203638Y0016387D01*
X0203539Y0016557D01*
X0203445Y0016729D01*
X0203354Y0016903D01*
X0203268Y0017080D01*
X0203186Y0017258D01*
X0203109Y0017439D01*
X0203036Y0017621D01*
X0202968Y0017805D01*
X0202904Y0017991D01*
X0202844Y0018178D01*
X0202790Y0018366D01*
X0202740Y0018556D01*
X0202694Y0018747D01*
X0202654Y0018939D01*
X0202618Y0019132D01*
X0202587Y0019326D01*
X0202560Y0019521D01*
X0202539Y0019716D01*
X0202522Y0019911D01*
X0202510Y0020107D01*
X0202502Y0020304D01*
X0202500Y0020500D01*
X0202500Y0038500D02*
X0202502Y0038696D01*
X0202510Y0038893D01*
X0202522Y0039089D01*
X0202539Y0039284D01*
X0202560Y0039479D01*
X0202587Y0039674D01*
X0202618Y0039868D01*
X0202654Y0040061D01*
X0202694Y0040253D01*
X0202740Y0040444D01*
X0202790Y0040634D01*
X0202844Y0040822D01*
X0202904Y0041009D01*
X0202968Y0041195D01*
X0203036Y0041379D01*
X0203109Y0041561D01*
X0203186Y0041742D01*
X0203268Y0041920D01*
X0203354Y0042097D01*
X0203445Y0042271D01*
X0203539Y0042443D01*
X0203638Y0042613D01*
X0203741Y0042780D01*
X0203848Y0042945D01*
X0203959Y0043106D01*
X0204074Y0043266D01*
X0204193Y0043422D01*
X0204316Y0043575D01*
X0204442Y0043725D01*
X0204572Y0043872D01*
X0204706Y0044016D01*
X0204843Y0044157D01*
X0204984Y0044294D01*
X0205128Y0044428D01*
X0205275Y0044558D01*
X0205425Y0044684D01*
X0205578Y0044807D01*
X0205734Y0044926D01*
X0205894Y0045041D01*
X0206055Y0045152D01*
X0206220Y0045259D01*
X0206387Y0045362D01*
X0206557Y0045461D01*
X0206729Y0045555D01*
X0206903Y0045646D01*
X0207080Y0045732D01*
X0207258Y0045814D01*
X0207439Y0045891D01*
X0207621Y0045964D01*
X0207805Y0046032D01*
X0207991Y0046096D01*
X0208178Y0046156D01*
X0208366Y0046210D01*
X0208556Y0046260D01*
X0208747Y0046306D01*
X0208939Y0046346D01*
X0209132Y0046382D01*
X0209326Y0046413D01*
X0209521Y0046440D01*
X0209716Y0046461D01*
X0209911Y0046478D01*
X0210107Y0046490D01*
X0210304Y0046498D01*
X0210500Y0046500D01*
X0210696Y0046498D01*
X0210893Y0046490D01*
X0211089Y0046478D01*
X0211284Y0046461D01*
X0211479Y0046440D01*
X0211674Y0046413D01*
X0211868Y0046382D01*
X0212061Y0046346D01*
X0212253Y0046306D01*
X0212444Y0046260D01*
X0212634Y0046210D01*
X0212822Y0046156D01*
X0213009Y0046096D01*
X0213195Y0046032D01*
X0213379Y0045964D01*
X0213561Y0045891D01*
X0213742Y0045814D01*
X0213920Y0045732D01*
X0214097Y0045646D01*
X0214271Y0045555D01*
X0214443Y0045461D01*
X0214613Y0045362D01*
X0214780Y0045259D01*
X0214945Y0045152D01*
X0215106Y0045041D01*
X0215266Y0044926D01*
X0215422Y0044807D01*
X0215575Y0044684D01*
X0215725Y0044558D01*
X0215872Y0044428D01*
X0216016Y0044294D01*
X0216157Y0044157D01*
X0216294Y0044016D01*
X0216428Y0043872D01*
X0216558Y0043725D01*
X0216684Y0043575D01*
X0216807Y0043422D01*
X0216926Y0043266D01*
X0217041Y0043106D01*
X0217152Y0042945D01*
X0217259Y0042780D01*
X0217362Y0042613D01*
X0217461Y0042443D01*
X0217555Y0042271D01*
X0217646Y0042097D01*
X0217732Y0041920D01*
X0217814Y0041742D01*
X0217891Y0041561D01*
X0217964Y0041379D01*
X0218032Y0041195D01*
X0218096Y0041009D01*
X0218156Y0040822D01*
X0218210Y0040634D01*
X0218260Y0040444D01*
X0218306Y0040253D01*
X0218346Y0040061D01*
X0218382Y0039868D01*
X0218413Y0039674D01*
X0218440Y0039479D01*
X0218461Y0039284D01*
X0218478Y0039089D01*
X0218490Y0038893D01*
X0218498Y0038696D01*
X0218500Y0038500D01*
X0218498Y0038304D01*
X0218490Y0038107D01*
X0218478Y0037911D01*
X0218461Y0037716D01*
X0218440Y0037521D01*
X0218413Y0037326D01*
X0218382Y0037132D01*
X0218346Y0036939D01*
X0218306Y0036747D01*
X0218260Y0036556D01*
X0218210Y0036366D01*
X0218156Y0036178D01*
X0218096Y0035991D01*
X0218032Y0035805D01*
X0217964Y0035621D01*
X0217891Y0035439D01*
X0217814Y0035258D01*
X0217732Y0035080D01*
X0217646Y0034903D01*
X0217555Y0034729D01*
X0217461Y0034557D01*
X0217362Y0034387D01*
X0217259Y0034220D01*
X0217152Y0034055D01*
X0217041Y0033894D01*
X0216926Y0033734D01*
X0216807Y0033578D01*
X0216684Y0033425D01*
X0216558Y0033275D01*
X0216428Y0033128D01*
X0216294Y0032984D01*
X0216157Y0032843D01*
X0216016Y0032706D01*
X0215872Y0032572D01*
X0215725Y0032442D01*
X0215575Y0032316D01*
X0215422Y0032193D01*
X0215266Y0032074D01*
X0215106Y0031959D01*
X0214945Y0031848D01*
X0214780Y0031741D01*
X0214613Y0031638D01*
X0214443Y0031539D01*
X0214271Y0031445D01*
X0214097Y0031354D01*
X0213920Y0031268D01*
X0213742Y0031186D01*
X0213561Y0031109D01*
X0213379Y0031036D01*
X0213195Y0030968D01*
X0213009Y0030904D01*
X0212822Y0030844D01*
X0212634Y0030790D01*
X0212444Y0030740D01*
X0212253Y0030694D01*
X0212061Y0030654D01*
X0211868Y0030618D01*
X0211674Y0030587D01*
X0211479Y0030560D01*
X0211284Y0030539D01*
X0211089Y0030522D01*
X0210893Y0030510D01*
X0210696Y0030502D01*
X0210500Y0030500D01*
X0210304Y0030502D01*
X0210107Y0030510D01*
X0209911Y0030522D01*
X0209716Y0030539D01*
X0209521Y0030560D01*
X0209326Y0030587D01*
X0209132Y0030618D01*
X0208939Y0030654D01*
X0208747Y0030694D01*
X0208556Y0030740D01*
X0208366Y0030790D01*
X0208178Y0030844D01*
X0207991Y0030904D01*
X0207805Y0030968D01*
X0207621Y0031036D01*
X0207439Y0031109D01*
X0207258Y0031186D01*
X0207080Y0031268D01*
X0206903Y0031354D01*
X0206729Y0031445D01*
X0206557Y0031539D01*
X0206387Y0031638D01*
X0206220Y0031741D01*
X0206055Y0031848D01*
X0205894Y0031959D01*
X0205734Y0032074D01*
X0205578Y0032193D01*
X0205425Y0032316D01*
X0205275Y0032442D01*
X0205128Y0032572D01*
X0204984Y0032706D01*
X0204843Y0032843D01*
X0204706Y0032984D01*
X0204572Y0033128D01*
X0204442Y0033275D01*
X0204316Y0033425D01*
X0204193Y0033578D01*
X0204074Y0033734D01*
X0203959Y0033894D01*
X0203848Y0034055D01*
X0203741Y0034220D01*
X0203638Y0034387D01*
X0203539Y0034557D01*
X0203445Y0034729D01*
X0203354Y0034903D01*
X0203268Y0035080D01*
X0203186Y0035258D01*
X0203109Y0035439D01*
X0203036Y0035621D01*
X0202968Y0035805D01*
X0202904Y0035991D01*
X0202844Y0036178D01*
X0202790Y0036366D01*
X0202740Y0036556D01*
X0202694Y0036747D01*
X0202654Y0036939D01*
X0202618Y0037132D01*
X0202587Y0037326D01*
X0202560Y0037521D01*
X0202539Y0037716D01*
X0202522Y0037911D01*
X0202510Y0038107D01*
X0202502Y0038304D01*
X0202500Y0038500D01*
X0202500Y0056500D02*
X0202502Y0056696D01*
X0202510Y0056893D01*
X0202522Y0057089D01*
X0202539Y0057284D01*
X0202560Y0057479D01*
X0202587Y0057674D01*
X0202618Y0057868D01*
X0202654Y0058061D01*
X0202694Y0058253D01*
X0202740Y0058444D01*
X0202790Y0058634D01*
X0202844Y0058822D01*
X0202904Y0059009D01*
X0202968Y0059195D01*
X0203036Y0059379D01*
X0203109Y0059561D01*
X0203186Y0059742D01*
X0203268Y0059920D01*
X0203354Y0060097D01*
X0203445Y0060271D01*
X0203539Y0060443D01*
X0203638Y0060613D01*
X0203741Y0060780D01*
X0203848Y0060945D01*
X0203959Y0061106D01*
X0204074Y0061266D01*
X0204193Y0061422D01*
X0204316Y0061575D01*
X0204442Y0061725D01*
X0204572Y0061872D01*
X0204706Y0062016D01*
X0204843Y0062157D01*
X0204984Y0062294D01*
X0205128Y0062428D01*
X0205275Y0062558D01*
X0205425Y0062684D01*
X0205578Y0062807D01*
X0205734Y0062926D01*
X0205894Y0063041D01*
X0206055Y0063152D01*
X0206220Y0063259D01*
X0206387Y0063362D01*
X0206557Y0063461D01*
X0206729Y0063555D01*
X0206903Y0063646D01*
X0207080Y0063732D01*
X0207258Y0063814D01*
X0207439Y0063891D01*
X0207621Y0063964D01*
X0207805Y0064032D01*
X0207991Y0064096D01*
X0208178Y0064156D01*
X0208366Y0064210D01*
X0208556Y0064260D01*
X0208747Y0064306D01*
X0208939Y0064346D01*
X0209132Y0064382D01*
X0209326Y0064413D01*
X0209521Y0064440D01*
X0209716Y0064461D01*
X0209911Y0064478D01*
X0210107Y0064490D01*
X0210304Y0064498D01*
X0210500Y0064500D01*
X0210696Y0064498D01*
X0210893Y0064490D01*
X0211089Y0064478D01*
X0211284Y0064461D01*
X0211479Y0064440D01*
X0211674Y0064413D01*
X0211868Y0064382D01*
X0212061Y0064346D01*
X0212253Y0064306D01*
X0212444Y0064260D01*
X0212634Y0064210D01*
X0212822Y0064156D01*
X0213009Y0064096D01*
X0213195Y0064032D01*
X0213379Y0063964D01*
X0213561Y0063891D01*
X0213742Y0063814D01*
X0213920Y0063732D01*
X0214097Y0063646D01*
X0214271Y0063555D01*
X0214443Y0063461D01*
X0214613Y0063362D01*
X0214780Y0063259D01*
X0214945Y0063152D01*
X0215106Y0063041D01*
X0215266Y0062926D01*
X0215422Y0062807D01*
X0215575Y0062684D01*
X0215725Y0062558D01*
X0215872Y0062428D01*
X0216016Y0062294D01*
X0216157Y0062157D01*
X0216294Y0062016D01*
X0216428Y0061872D01*
X0216558Y0061725D01*
X0216684Y0061575D01*
X0216807Y0061422D01*
X0216926Y0061266D01*
X0217041Y0061106D01*
X0217152Y0060945D01*
X0217259Y0060780D01*
X0217362Y0060613D01*
X0217461Y0060443D01*
X0217555Y0060271D01*
X0217646Y0060097D01*
X0217732Y0059920D01*
X0217814Y0059742D01*
X0217891Y0059561D01*
X0217964Y0059379D01*
X0218032Y0059195D01*
X0218096Y0059009D01*
X0218156Y0058822D01*
X0218210Y0058634D01*
X0218260Y0058444D01*
X0218306Y0058253D01*
X0218346Y0058061D01*
X0218382Y0057868D01*
X0218413Y0057674D01*
X0218440Y0057479D01*
X0218461Y0057284D01*
X0218478Y0057089D01*
X0218490Y0056893D01*
X0218498Y0056696D01*
X0218500Y0056500D01*
X0218498Y0056304D01*
X0218490Y0056107D01*
X0218478Y0055911D01*
X0218461Y0055716D01*
X0218440Y0055521D01*
X0218413Y0055326D01*
X0218382Y0055132D01*
X0218346Y0054939D01*
X0218306Y0054747D01*
X0218260Y0054556D01*
X0218210Y0054366D01*
X0218156Y0054178D01*
X0218096Y0053991D01*
X0218032Y0053805D01*
X0217964Y0053621D01*
X0217891Y0053439D01*
X0217814Y0053258D01*
X0217732Y0053080D01*
X0217646Y0052903D01*
X0217555Y0052729D01*
X0217461Y0052557D01*
X0217362Y0052387D01*
X0217259Y0052220D01*
X0217152Y0052055D01*
X0217041Y0051894D01*
X0216926Y0051734D01*
X0216807Y0051578D01*
X0216684Y0051425D01*
X0216558Y0051275D01*
X0216428Y0051128D01*
X0216294Y0050984D01*
X0216157Y0050843D01*
X0216016Y0050706D01*
X0215872Y0050572D01*
X0215725Y0050442D01*
X0215575Y0050316D01*
X0215422Y0050193D01*
X0215266Y0050074D01*
X0215106Y0049959D01*
X0214945Y0049848D01*
X0214780Y0049741D01*
X0214613Y0049638D01*
X0214443Y0049539D01*
X0214271Y0049445D01*
X0214097Y0049354D01*
X0213920Y0049268D01*
X0213742Y0049186D01*
X0213561Y0049109D01*
X0213379Y0049036D01*
X0213195Y0048968D01*
X0213009Y0048904D01*
X0212822Y0048844D01*
X0212634Y0048790D01*
X0212444Y0048740D01*
X0212253Y0048694D01*
X0212061Y0048654D01*
X0211868Y0048618D01*
X0211674Y0048587D01*
X0211479Y0048560D01*
X0211284Y0048539D01*
X0211089Y0048522D01*
X0210893Y0048510D01*
X0210696Y0048502D01*
X0210500Y0048500D01*
X0210304Y0048502D01*
X0210107Y0048510D01*
X0209911Y0048522D01*
X0209716Y0048539D01*
X0209521Y0048560D01*
X0209326Y0048587D01*
X0209132Y0048618D01*
X0208939Y0048654D01*
X0208747Y0048694D01*
X0208556Y0048740D01*
X0208366Y0048790D01*
X0208178Y0048844D01*
X0207991Y0048904D01*
X0207805Y0048968D01*
X0207621Y0049036D01*
X0207439Y0049109D01*
X0207258Y0049186D01*
X0207080Y0049268D01*
X0206903Y0049354D01*
X0206729Y0049445D01*
X0206557Y0049539D01*
X0206387Y0049638D01*
X0206220Y0049741D01*
X0206055Y0049848D01*
X0205894Y0049959D01*
X0205734Y0050074D01*
X0205578Y0050193D01*
X0205425Y0050316D01*
X0205275Y0050442D01*
X0205128Y0050572D01*
X0204984Y0050706D01*
X0204843Y0050843D01*
X0204706Y0050984D01*
X0204572Y0051128D01*
X0204442Y0051275D01*
X0204316Y0051425D01*
X0204193Y0051578D01*
X0204074Y0051734D01*
X0203959Y0051894D01*
X0203848Y0052055D01*
X0203741Y0052220D01*
X0203638Y0052387D01*
X0203539Y0052557D01*
X0203445Y0052729D01*
X0203354Y0052903D01*
X0203268Y0053080D01*
X0203186Y0053258D01*
X0203109Y0053439D01*
X0203036Y0053621D01*
X0202968Y0053805D01*
X0202904Y0053991D01*
X0202844Y0054178D01*
X0202790Y0054366D01*
X0202740Y0054556D01*
X0202694Y0054747D01*
X0202654Y0054939D01*
X0202618Y0055132D01*
X0202587Y0055326D01*
X0202560Y0055521D01*
X0202539Y0055716D01*
X0202522Y0055911D01*
X0202510Y0056107D01*
X0202502Y0056304D01*
X0202500Y0056500D01*
X0202500Y0074500D02*
X0202502Y0074696D01*
X0202510Y0074893D01*
X0202522Y0075089D01*
X0202539Y0075284D01*
X0202560Y0075479D01*
X0202587Y0075674D01*
X0202618Y0075868D01*
X0202654Y0076061D01*
X0202694Y0076253D01*
X0202740Y0076444D01*
X0202790Y0076634D01*
X0202844Y0076822D01*
X0202904Y0077009D01*
X0202968Y0077195D01*
X0203036Y0077379D01*
X0203109Y0077561D01*
X0203186Y0077742D01*
X0203268Y0077920D01*
X0203354Y0078097D01*
X0203445Y0078271D01*
X0203539Y0078443D01*
X0203638Y0078613D01*
X0203741Y0078780D01*
X0203848Y0078945D01*
X0203959Y0079106D01*
X0204074Y0079266D01*
X0204193Y0079422D01*
X0204316Y0079575D01*
X0204442Y0079725D01*
X0204572Y0079872D01*
X0204706Y0080016D01*
X0204843Y0080157D01*
X0204984Y0080294D01*
X0205128Y0080428D01*
X0205275Y0080558D01*
X0205425Y0080684D01*
X0205578Y0080807D01*
X0205734Y0080926D01*
X0205894Y0081041D01*
X0206055Y0081152D01*
X0206220Y0081259D01*
X0206387Y0081362D01*
X0206557Y0081461D01*
X0206729Y0081555D01*
X0206903Y0081646D01*
X0207080Y0081732D01*
X0207258Y0081814D01*
X0207439Y0081891D01*
X0207621Y0081964D01*
X0207805Y0082032D01*
X0207991Y0082096D01*
X0208178Y0082156D01*
X0208366Y0082210D01*
X0208556Y0082260D01*
X0208747Y0082306D01*
X0208939Y0082346D01*
X0209132Y0082382D01*
X0209326Y0082413D01*
X0209521Y0082440D01*
X0209716Y0082461D01*
X0209911Y0082478D01*
X0210107Y0082490D01*
X0210304Y0082498D01*
X0210500Y0082500D01*
X0210696Y0082498D01*
X0210893Y0082490D01*
X0211089Y0082478D01*
X0211284Y0082461D01*
X0211479Y0082440D01*
X0211674Y0082413D01*
X0211868Y0082382D01*
X0212061Y0082346D01*
X0212253Y0082306D01*
X0212444Y0082260D01*
X0212634Y0082210D01*
X0212822Y0082156D01*
X0213009Y0082096D01*
X0213195Y0082032D01*
X0213379Y0081964D01*
X0213561Y0081891D01*
X0213742Y0081814D01*
X0213920Y0081732D01*
X0214097Y0081646D01*
X0214271Y0081555D01*
X0214443Y0081461D01*
X0214613Y0081362D01*
X0214780Y0081259D01*
X0214945Y0081152D01*
X0215106Y0081041D01*
X0215266Y0080926D01*
X0215422Y0080807D01*
X0215575Y0080684D01*
X0215725Y0080558D01*
X0215872Y0080428D01*
X0216016Y0080294D01*
X0216157Y0080157D01*
X0216294Y0080016D01*
X0216428Y0079872D01*
X0216558Y0079725D01*
X0216684Y0079575D01*
X0216807Y0079422D01*
X0216926Y0079266D01*
X0217041Y0079106D01*
X0217152Y0078945D01*
X0217259Y0078780D01*
X0217362Y0078613D01*
X0217461Y0078443D01*
X0217555Y0078271D01*
X0217646Y0078097D01*
X0217732Y0077920D01*
X0217814Y0077742D01*
X0217891Y0077561D01*
X0217964Y0077379D01*
X0218032Y0077195D01*
X0218096Y0077009D01*
X0218156Y0076822D01*
X0218210Y0076634D01*
X0218260Y0076444D01*
X0218306Y0076253D01*
X0218346Y0076061D01*
X0218382Y0075868D01*
X0218413Y0075674D01*
X0218440Y0075479D01*
X0218461Y0075284D01*
X0218478Y0075089D01*
X0218490Y0074893D01*
X0218498Y0074696D01*
X0218500Y0074500D01*
X0218498Y0074304D01*
X0218490Y0074107D01*
X0218478Y0073911D01*
X0218461Y0073716D01*
X0218440Y0073521D01*
X0218413Y0073326D01*
X0218382Y0073132D01*
X0218346Y0072939D01*
X0218306Y0072747D01*
X0218260Y0072556D01*
X0218210Y0072366D01*
X0218156Y0072178D01*
X0218096Y0071991D01*
X0218032Y0071805D01*
X0217964Y0071621D01*
X0217891Y0071439D01*
X0217814Y0071258D01*
X0217732Y0071080D01*
X0217646Y0070903D01*
X0217555Y0070729D01*
X0217461Y0070557D01*
X0217362Y0070387D01*
X0217259Y0070220D01*
X0217152Y0070055D01*
X0217041Y0069894D01*
X0216926Y0069734D01*
X0216807Y0069578D01*
X0216684Y0069425D01*
X0216558Y0069275D01*
X0216428Y0069128D01*
X0216294Y0068984D01*
X0216157Y0068843D01*
X0216016Y0068706D01*
X0215872Y0068572D01*
X0215725Y0068442D01*
X0215575Y0068316D01*
X0215422Y0068193D01*
X0215266Y0068074D01*
X0215106Y0067959D01*
X0214945Y0067848D01*
X0214780Y0067741D01*
X0214613Y0067638D01*
X0214443Y0067539D01*
X0214271Y0067445D01*
X0214097Y0067354D01*
X0213920Y0067268D01*
X0213742Y0067186D01*
X0213561Y0067109D01*
X0213379Y0067036D01*
X0213195Y0066968D01*
X0213009Y0066904D01*
X0212822Y0066844D01*
X0212634Y0066790D01*
X0212444Y0066740D01*
X0212253Y0066694D01*
X0212061Y0066654D01*
X0211868Y0066618D01*
X0211674Y0066587D01*
X0211479Y0066560D01*
X0211284Y0066539D01*
X0211089Y0066522D01*
X0210893Y0066510D01*
X0210696Y0066502D01*
X0210500Y0066500D01*
X0210304Y0066502D01*
X0210107Y0066510D01*
X0209911Y0066522D01*
X0209716Y0066539D01*
X0209521Y0066560D01*
X0209326Y0066587D01*
X0209132Y0066618D01*
X0208939Y0066654D01*
X0208747Y0066694D01*
X0208556Y0066740D01*
X0208366Y0066790D01*
X0208178Y0066844D01*
X0207991Y0066904D01*
X0207805Y0066968D01*
X0207621Y0067036D01*
X0207439Y0067109D01*
X0207258Y0067186D01*
X0207080Y0067268D01*
X0206903Y0067354D01*
X0206729Y0067445D01*
X0206557Y0067539D01*
X0206387Y0067638D01*
X0206220Y0067741D01*
X0206055Y0067848D01*
X0205894Y0067959D01*
X0205734Y0068074D01*
X0205578Y0068193D01*
X0205425Y0068316D01*
X0205275Y0068442D01*
X0205128Y0068572D01*
X0204984Y0068706D01*
X0204843Y0068843D01*
X0204706Y0068984D01*
X0204572Y0069128D01*
X0204442Y0069275D01*
X0204316Y0069425D01*
X0204193Y0069578D01*
X0204074Y0069734D01*
X0203959Y0069894D01*
X0203848Y0070055D01*
X0203741Y0070220D01*
X0203638Y0070387D01*
X0203539Y0070557D01*
X0203445Y0070729D01*
X0203354Y0070903D01*
X0203268Y0071080D01*
X0203186Y0071258D01*
X0203109Y0071439D01*
X0203036Y0071621D01*
X0202968Y0071805D01*
X0202904Y0071991D01*
X0202844Y0072178D01*
X0202790Y0072366D01*
X0202740Y0072556D01*
X0202694Y0072747D01*
X0202654Y0072939D01*
X0202618Y0073132D01*
X0202587Y0073326D01*
X0202560Y0073521D01*
X0202539Y0073716D01*
X0202522Y0073911D01*
X0202510Y0074107D01*
X0202502Y0074304D01*
X0202500Y0074500D01*
X0202500Y0092500D02*
X0202502Y0092696D01*
X0202510Y0092893D01*
X0202522Y0093089D01*
X0202539Y0093284D01*
X0202560Y0093479D01*
X0202587Y0093674D01*
X0202618Y0093868D01*
X0202654Y0094061D01*
X0202694Y0094253D01*
X0202740Y0094444D01*
X0202790Y0094634D01*
X0202844Y0094822D01*
X0202904Y0095009D01*
X0202968Y0095195D01*
X0203036Y0095379D01*
X0203109Y0095561D01*
X0203186Y0095742D01*
X0203268Y0095920D01*
X0203354Y0096097D01*
X0203445Y0096271D01*
X0203539Y0096443D01*
X0203638Y0096613D01*
X0203741Y0096780D01*
X0203848Y0096945D01*
X0203959Y0097106D01*
X0204074Y0097266D01*
X0204193Y0097422D01*
X0204316Y0097575D01*
X0204442Y0097725D01*
X0204572Y0097872D01*
X0204706Y0098016D01*
X0204843Y0098157D01*
X0204984Y0098294D01*
X0205128Y0098428D01*
X0205275Y0098558D01*
X0205425Y0098684D01*
X0205578Y0098807D01*
X0205734Y0098926D01*
X0205894Y0099041D01*
X0206055Y0099152D01*
X0206220Y0099259D01*
X0206387Y0099362D01*
X0206557Y0099461D01*
X0206729Y0099555D01*
X0206903Y0099646D01*
X0207080Y0099732D01*
X0207258Y0099814D01*
X0207439Y0099891D01*
X0207621Y0099964D01*
X0207805Y0100032D01*
X0207991Y0100096D01*
X0208178Y0100156D01*
X0208366Y0100210D01*
X0208556Y0100260D01*
X0208747Y0100306D01*
X0208939Y0100346D01*
X0209132Y0100382D01*
X0209326Y0100413D01*
X0209521Y0100440D01*
X0209716Y0100461D01*
X0209911Y0100478D01*
X0210107Y0100490D01*
X0210304Y0100498D01*
X0210500Y0100500D01*
X0210696Y0100498D01*
X0210893Y0100490D01*
X0211089Y0100478D01*
X0211284Y0100461D01*
X0211479Y0100440D01*
X0211674Y0100413D01*
X0211868Y0100382D01*
X0212061Y0100346D01*
X0212253Y0100306D01*
X0212444Y0100260D01*
X0212634Y0100210D01*
X0212822Y0100156D01*
X0213009Y0100096D01*
X0213195Y0100032D01*
X0213379Y0099964D01*
X0213561Y0099891D01*
X0213742Y0099814D01*
X0213920Y0099732D01*
X0214097Y0099646D01*
X0214271Y0099555D01*
X0214443Y0099461D01*
X0214613Y0099362D01*
X0214780Y0099259D01*
X0214945Y0099152D01*
X0215106Y0099041D01*
X0215266Y0098926D01*
X0215422Y0098807D01*
X0215575Y0098684D01*
X0215725Y0098558D01*
X0215872Y0098428D01*
X0216016Y0098294D01*
X0216157Y0098157D01*
X0216294Y0098016D01*
X0216428Y0097872D01*
X0216558Y0097725D01*
X0216684Y0097575D01*
X0216807Y0097422D01*
X0216926Y0097266D01*
X0217041Y0097106D01*
X0217152Y0096945D01*
X0217259Y0096780D01*
X0217362Y0096613D01*
X0217461Y0096443D01*
X0217555Y0096271D01*
X0217646Y0096097D01*
X0217732Y0095920D01*
X0217814Y0095742D01*
X0217891Y0095561D01*
X0217964Y0095379D01*
X0218032Y0095195D01*
X0218096Y0095009D01*
X0218156Y0094822D01*
X0218210Y0094634D01*
X0218260Y0094444D01*
X0218306Y0094253D01*
X0218346Y0094061D01*
X0218382Y0093868D01*
X0218413Y0093674D01*
X0218440Y0093479D01*
X0218461Y0093284D01*
X0218478Y0093089D01*
X0218490Y0092893D01*
X0218498Y0092696D01*
X0218500Y0092500D01*
X0218498Y0092304D01*
X0218490Y0092107D01*
X0218478Y0091911D01*
X0218461Y0091716D01*
X0218440Y0091521D01*
X0218413Y0091326D01*
X0218382Y0091132D01*
X0218346Y0090939D01*
X0218306Y0090747D01*
X0218260Y0090556D01*
X0218210Y0090366D01*
X0218156Y0090178D01*
X0218096Y0089991D01*
X0218032Y0089805D01*
X0217964Y0089621D01*
X0217891Y0089439D01*
X0217814Y0089258D01*
X0217732Y0089080D01*
X0217646Y0088903D01*
X0217555Y0088729D01*
X0217461Y0088557D01*
X0217362Y0088387D01*
X0217259Y0088220D01*
X0217152Y0088055D01*
X0217041Y0087894D01*
X0216926Y0087734D01*
X0216807Y0087578D01*
X0216684Y0087425D01*
X0216558Y0087275D01*
X0216428Y0087128D01*
X0216294Y0086984D01*
X0216157Y0086843D01*
X0216016Y0086706D01*
X0215872Y0086572D01*
X0215725Y0086442D01*
X0215575Y0086316D01*
X0215422Y0086193D01*
X0215266Y0086074D01*
X0215106Y0085959D01*
X0214945Y0085848D01*
X0214780Y0085741D01*
X0214613Y0085638D01*
X0214443Y0085539D01*
X0214271Y0085445D01*
X0214097Y0085354D01*
X0213920Y0085268D01*
X0213742Y0085186D01*
X0213561Y0085109D01*
X0213379Y0085036D01*
X0213195Y0084968D01*
X0213009Y0084904D01*
X0212822Y0084844D01*
X0212634Y0084790D01*
X0212444Y0084740D01*
X0212253Y0084694D01*
X0212061Y0084654D01*
X0211868Y0084618D01*
X0211674Y0084587D01*
X0211479Y0084560D01*
X0211284Y0084539D01*
X0211089Y0084522D01*
X0210893Y0084510D01*
X0210696Y0084502D01*
X0210500Y0084500D01*
X0210304Y0084502D01*
X0210107Y0084510D01*
X0209911Y0084522D01*
X0209716Y0084539D01*
X0209521Y0084560D01*
X0209326Y0084587D01*
X0209132Y0084618D01*
X0208939Y0084654D01*
X0208747Y0084694D01*
X0208556Y0084740D01*
X0208366Y0084790D01*
X0208178Y0084844D01*
X0207991Y0084904D01*
X0207805Y0084968D01*
X0207621Y0085036D01*
X0207439Y0085109D01*
X0207258Y0085186D01*
X0207080Y0085268D01*
X0206903Y0085354D01*
X0206729Y0085445D01*
X0206557Y0085539D01*
X0206387Y0085638D01*
X0206220Y0085741D01*
X0206055Y0085848D01*
X0205894Y0085959D01*
X0205734Y0086074D01*
X0205578Y0086193D01*
X0205425Y0086316D01*
X0205275Y0086442D01*
X0205128Y0086572D01*
X0204984Y0086706D01*
X0204843Y0086843D01*
X0204706Y0086984D01*
X0204572Y0087128D01*
X0204442Y0087275D01*
X0204316Y0087425D01*
X0204193Y0087578D01*
X0204074Y0087734D01*
X0203959Y0087894D01*
X0203848Y0088055D01*
X0203741Y0088220D01*
X0203638Y0088387D01*
X0203539Y0088557D01*
X0203445Y0088729D01*
X0203354Y0088903D01*
X0203268Y0089080D01*
X0203186Y0089258D01*
X0203109Y0089439D01*
X0203036Y0089621D01*
X0202968Y0089805D01*
X0202904Y0089991D01*
X0202844Y0090178D01*
X0202790Y0090366D01*
X0202740Y0090556D01*
X0202694Y0090747D01*
X0202654Y0090939D01*
X0202618Y0091132D01*
X0202587Y0091326D01*
X0202560Y0091521D01*
X0202539Y0091716D01*
X0202522Y0091911D01*
X0202510Y0092107D01*
X0202502Y0092304D01*
X0202500Y0092500D01*
X0202500Y0110500D02*
X0202502Y0110696D01*
X0202510Y0110893D01*
X0202522Y0111089D01*
X0202539Y0111284D01*
X0202560Y0111479D01*
X0202587Y0111674D01*
X0202618Y0111868D01*
X0202654Y0112061D01*
X0202694Y0112253D01*
X0202740Y0112444D01*
X0202790Y0112634D01*
X0202844Y0112822D01*
X0202904Y0113009D01*
X0202968Y0113195D01*
X0203036Y0113379D01*
X0203109Y0113561D01*
X0203186Y0113742D01*
X0203268Y0113920D01*
X0203354Y0114097D01*
X0203445Y0114271D01*
X0203539Y0114443D01*
X0203638Y0114613D01*
X0203741Y0114780D01*
X0203848Y0114945D01*
X0203959Y0115106D01*
X0204074Y0115266D01*
X0204193Y0115422D01*
X0204316Y0115575D01*
X0204442Y0115725D01*
X0204572Y0115872D01*
X0204706Y0116016D01*
X0204843Y0116157D01*
X0204984Y0116294D01*
X0205128Y0116428D01*
X0205275Y0116558D01*
X0205425Y0116684D01*
X0205578Y0116807D01*
X0205734Y0116926D01*
X0205894Y0117041D01*
X0206055Y0117152D01*
X0206220Y0117259D01*
X0206387Y0117362D01*
X0206557Y0117461D01*
X0206729Y0117555D01*
X0206903Y0117646D01*
X0207080Y0117732D01*
X0207258Y0117814D01*
X0207439Y0117891D01*
X0207621Y0117964D01*
X0207805Y0118032D01*
X0207991Y0118096D01*
X0208178Y0118156D01*
X0208366Y0118210D01*
X0208556Y0118260D01*
X0208747Y0118306D01*
X0208939Y0118346D01*
X0209132Y0118382D01*
X0209326Y0118413D01*
X0209521Y0118440D01*
X0209716Y0118461D01*
X0209911Y0118478D01*
X0210107Y0118490D01*
X0210304Y0118498D01*
X0210500Y0118500D01*
X0210696Y0118498D01*
X0210893Y0118490D01*
X0211089Y0118478D01*
X0211284Y0118461D01*
X0211479Y0118440D01*
X0211674Y0118413D01*
X0211868Y0118382D01*
X0212061Y0118346D01*
X0212253Y0118306D01*
X0212444Y0118260D01*
X0212634Y0118210D01*
X0212822Y0118156D01*
X0213009Y0118096D01*
X0213195Y0118032D01*
X0213379Y0117964D01*
X0213561Y0117891D01*
X0213742Y0117814D01*
X0213920Y0117732D01*
X0214097Y0117646D01*
X0214271Y0117555D01*
X0214443Y0117461D01*
X0214613Y0117362D01*
X0214780Y0117259D01*
X0214945Y0117152D01*
X0215106Y0117041D01*
X0215266Y0116926D01*
X0215422Y0116807D01*
X0215575Y0116684D01*
X0215725Y0116558D01*
X0215872Y0116428D01*
X0216016Y0116294D01*
X0216157Y0116157D01*
X0216294Y0116016D01*
X0216428Y0115872D01*
X0216558Y0115725D01*
X0216684Y0115575D01*
X0216807Y0115422D01*
X0216926Y0115266D01*
X0217041Y0115106D01*
X0217152Y0114945D01*
X0217259Y0114780D01*
X0217362Y0114613D01*
X0217461Y0114443D01*
X0217555Y0114271D01*
X0217646Y0114097D01*
X0217732Y0113920D01*
X0217814Y0113742D01*
X0217891Y0113561D01*
X0217964Y0113379D01*
X0218032Y0113195D01*
X0218096Y0113009D01*
X0218156Y0112822D01*
X0218210Y0112634D01*
X0218260Y0112444D01*
X0218306Y0112253D01*
X0218346Y0112061D01*
X0218382Y0111868D01*
X0218413Y0111674D01*
X0218440Y0111479D01*
X0218461Y0111284D01*
X0218478Y0111089D01*
X0218490Y0110893D01*
X0218498Y0110696D01*
X0218500Y0110500D01*
X0218498Y0110304D01*
X0218490Y0110107D01*
X0218478Y0109911D01*
X0218461Y0109716D01*
X0218440Y0109521D01*
X0218413Y0109326D01*
X0218382Y0109132D01*
X0218346Y0108939D01*
X0218306Y0108747D01*
X0218260Y0108556D01*
X0218210Y0108366D01*
X0218156Y0108178D01*
X0218096Y0107991D01*
X0218032Y0107805D01*
X0217964Y0107621D01*
X0217891Y0107439D01*
X0217814Y0107258D01*
X0217732Y0107080D01*
X0217646Y0106903D01*
X0217555Y0106729D01*
X0217461Y0106557D01*
X0217362Y0106387D01*
X0217259Y0106220D01*
X0217152Y0106055D01*
X0217041Y0105894D01*
X0216926Y0105734D01*
X0216807Y0105578D01*
X0216684Y0105425D01*
X0216558Y0105275D01*
X0216428Y0105128D01*
X0216294Y0104984D01*
X0216157Y0104843D01*
X0216016Y0104706D01*
X0215872Y0104572D01*
X0215725Y0104442D01*
X0215575Y0104316D01*
X0215422Y0104193D01*
X0215266Y0104074D01*
X0215106Y0103959D01*
X0214945Y0103848D01*
X0214780Y0103741D01*
X0214613Y0103638D01*
X0214443Y0103539D01*
X0214271Y0103445D01*
X0214097Y0103354D01*
X0213920Y0103268D01*
X0213742Y0103186D01*
X0213561Y0103109D01*
X0213379Y0103036D01*
X0213195Y0102968D01*
X0213009Y0102904D01*
X0212822Y0102844D01*
X0212634Y0102790D01*
X0212444Y0102740D01*
X0212253Y0102694D01*
X0212061Y0102654D01*
X0211868Y0102618D01*
X0211674Y0102587D01*
X0211479Y0102560D01*
X0211284Y0102539D01*
X0211089Y0102522D01*
X0210893Y0102510D01*
X0210696Y0102502D01*
X0210500Y0102500D01*
X0210304Y0102502D01*
X0210107Y0102510D01*
X0209911Y0102522D01*
X0209716Y0102539D01*
X0209521Y0102560D01*
X0209326Y0102587D01*
X0209132Y0102618D01*
X0208939Y0102654D01*
X0208747Y0102694D01*
X0208556Y0102740D01*
X0208366Y0102790D01*
X0208178Y0102844D01*
X0207991Y0102904D01*
X0207805Y0102968D01*
X0207621Y0103036D01*
X0207439Y0103109D01*
X0207258Y0103186D01*
X0207080Y0103268D01*
X0206903Y0103354D01*
X0206729Y0103445D01*
X0206557Y0103539D01*
X0206387Y0103638D01*
X0206220Y0103741D01*
X0206055Y0103848D01*
X0205894Y0103959D01*
X0205734Y0104074D01*
X0205578Y0104193D01*
X0205425Y0104316D01*
X0205275Y0104442D01*
X0205128Y0104572D01*
X0204984Y0104706D01*
X0204843Y0104843D01*
X0204706Y0104984D01*
X0204572Y0105128D01*
X0204442Y0105275D01*
X0204316Y0105425D01*
X0204193Y0105578D01*
X0204074Y0105734D01*
X0203959Y0105894D01*
X0203848Y0106055D01*
X0203741Y0106220D01*
X0203638Y0106387D01*
X0203539Y0106557D01*
X0203445Y0106729D01*
X0203354Y0106903D01*
X0203268Y0107080D01*
X0203186Y0107258D01*
X0203109Y0107439D01*
X0203036Y0107621D01*
X0202968Y0107805D01*
X0202904Y0107991D01*
X0202844Y0108178D01*
X0202790Y0108366D01*
X0202740Y0108556D01*
X0202694Y0108747D01*
X0202654Y0108939D01*
X0202618Y0109132D01*
X0202587Y0109326D01*
X0202560Y0109521D01*
X0202539Y0109716D01*
X0202522Y0109911D01*
X0202510Y0110107D01*
X0202502Y0110304D01*
X0202500Y0110500D01*
X0202500Y0128500D02*
X0202502Y0128696D01*
X0202510Y0128893D01*
X0202522Y0129089D01*
X0202539Y0129284D01*
X0202560Y0129479D01*
X0202587Y0129674D01*
X0202618Y0129868D01*
X0202654Y0130061D01*
X0202694Y0130253D01*
X0202740Y0130444D01*
X0202790Y0130634D01*
X0202844Y0130822D01*
X0202904Y0131009D01*
X0202968Y0131195D01*
X0203036Y0131379D01*
X0203109Y0131561D01*
X0203186Y0131742D01*
X0203268Y0131920D01*
X0203354Y0132097D01*
X0203445Y0132271D01*
X0203539Y0132443D01*
X0203638Y0132613D01*
X0203741Y0132780D01*
X0203848Y0132945D01*
X0203959Y0133106D01*
X0204074Y0133266D01*
X0204193Y0133422D01*
X0204316Y0133575D01*
X0204442Y0133725D01*
X0204572Y0133872D01*
X0204706Y0134016D01*
X0204843Y0134157D01*
X0204984Y0134294D01*
X0205128Y0134428D01*
X0205275Y0134558D01*
X0205425Y0134684D01*
X0205578Y0134807D01*
X0205734Y0134926D01*
X0205894Y0135041D01*
X0206055Y0135152D01*
X0206220Y0135259D01*
X0206387Y0135362D01*
X0206557Y0135461D01*
X0206729Y0135555D01*
X0206903Y0135646D01*
X0207080Y0135732D01*
X0207258Y0135814D01*
X0207439Y0135891D01*
X0207621Y0135964D01*
X0207805Y0136032D01*
X0207991Y0136096D01*
X0208178Y0136156D01*
X0208366Y0136210D01*
X0208556Y0136260D01*
X0208747Y0136306D01*
X0208939Y0136346D01*
X0209132Y0136382D01*
X0209326Y0136413D01*
X0209521Y0136440D01*
X0209716Y0136461D01*
X0209911Y0136478D01*
X0210107Y0136490D01*
X0210304Y0136498D01*
X0210500Y0136500D01*
X0210696Y0136498D01*
X0210893Y0136490D01*
X0211089Y0136478D01*
X0211284Y0136461D01*
X0211479Y0136440D01*
X0211674Y0136413D01*
X0211868Y0136382D01*
X0212061Y0136346D01*
X0212253Y0136306D01*
X0212444Y0136260D01*
X0212634Y0136210D01*
X0212822Y0136156D01*
X0213009Y0136096D01*
X0213195Y0136032D01*
X0213379Y0135964D01*
X0213561Y0135891D01*
X0213742Y0135814D01*
X0213920Y0135732D01*
X0214097Y0135646D01*
X0214271Y0135555D01*
X0214443Y0135461D01*
X0214613Y0135362D01*
X0214780Y0135259D01*
X0214945Y0135152D01*
X0215106Y0135041D01*
X0215266Y0134926D01*
X0215422Y0134807D01*
X0215575Y0134684D01*
X0215725Y0134558D01*
X0215872Y0134428D01*
X0216016Y0134294D01*
X0216157Y0134157D01*
X0216294Y0134016D01*
X0216428Y0133872D01*
X0216558Y0133725D01*
X0216684Y0133575D01*
X0216807Y0133422D01*
X0216926Y0133266D01*
X0217041Y0133106D01*
X0217152Y0132945D01*
X0217259Y0132780D01*
X0217362Y0132613D01*
X0217461Y0132443D01*
X0217555Y0132271D01*
X0217646Y0132097D01*
X0217732Y0131920D01*
X0217814Y0131742D01*
X0217891Y0131561D01*
X0217964Y0131379D01*
X0218032Y0131195D01*
X0218096Y0131009D01*
X0218156Y0130822D01*
X0218210Y0130634D01*
X0218260Y0130444D01*
X0218306Y0130253D01*
X0218346Y0130061D01*
X0218382Y0129868D01*
X0218413Y0129674D01*
X0218440Y0129479D01*
X0218461Y0129284D01*
X0218478Y0129089D01*
X0218490Y0128893D01*
X0218498Y0128696D01*
X0218500Y0128500D01*
X0218498Y0128304D01*
X0218490Y0128107D01*
X0218478Y0127911D01*
X0218461Y0127716D01*
X0218440Y0127521D01*
X0218413Y0127326D01*
X0218382Y0127132D01*
X0218346Y0126939D01*
X0218306Y0126747D01*
X0218260Y0126556D01*
X0218210Y0126366D01*
X0218156Y0126178D01*
X0218096Y0125991D01*
X0218032Y0125805D01*
X0217964Y0125621D01*
X0217891Y0125439D01*
X0217814Y0125258D01*
X0217732Y0125080D01*
X0217646Y0124903D01*
X0217555Y0124729D01*
X0217461Y0124557D01*
X0217362Y0124387D01*
X0217259Y0124220D01*
X0217152Y0124055D01*
X0217041Y0123894D01*
X0216926Y0123734D01*
X0216807Y0123578D01*
X0216684Y0123425D01*
X0216558Y0123275D01*
X0216428Y0123128D01*
X0216294Y0122984D01*
X0216157Y0122843D01*
X0216016Y0122706D01*
X0215872Y0122572D01*
X0215725Y0122442D01*
X0215575Y0122316D01*
X0215422Y0122193D01*
X0215266Y0122074D01*
X0215106Y0121959D01*
X0214945Y0121848D01*
X0214780Y0121741D01*
X0214613Y0121638D01*
X0214443Y0121539D01*
X0214271Y0121445D01*
X0214097Y0121354D01*
X0213920Y0121268D01*
X0213742Y0121186D01*
X0213561Y0121109D01*
X0213379Y0121036D01*
X0213195Y0120968D01*
X0213009Y0120904D01*
X0212822Y0120844D01*
X0212634Y0120790D01*
X0212444Y0120740D01*
X0212253Y0120694D01*
X0212061Y0120654D01*
X0211868Y0120618D01*
X0211674Y0120587D01*
X0211479Y0120560D01*
X0211284Y0120539D01*
X0211089Y0120522D01*
X0210893Y0120510D01*
X0210696Y0120502D01*
X0210500Y0120500D01*
X0210304Y0120502D01*
X0210107Y0120510D01*
X0209911Y0120522D01*
X0209716Y0120539D01*
X0209521Y0120560D01*
X0209326Y0120587D01*
X0209132Y0120618D01*
X0208939Y0120654D01*
X0208747Y0120694D01*
X0208556Y0120740D01*
X0208366Y0120790D01*
X0208178Y0120844D01*
X0207991Y0120904D01*
X0207805Y0120968D01*
X0207621Y0121036D01*
X0207439Y0121109D01*
X0207258Y0121186D01*
X0207080Y0121268D01*
X0206903Y0121354D01*
X0206729Y0121445D01*
X0206557Y0121539D01*
X0206387Y0121638D01*
X0206220Y0121741D01*
X0206055Y0121848D01*
X0205894Y0121959D01*
X0205734Y0122074D01*
X0205578Y0122193D01*
X0205425Y0122316D01*
X0205275Y0122442D01*
X0205128Y0122572D01*
X0204984Y0122706D01*
X0204843Y0122843D01*
X0204706Y0122984D01*
X0204572Y0123128D01*
X0204442Y0123275D01*
X0204316Y0123425D01*
X0204193Y0123578D01*
X0204074Y0123734D01*
X0203959Y0123894D01*
X0203848Y0124055D01*
X0203741Y0124220D01*
X0203638Y0124387D01*
X0203539Y0124557D01*
X0203445Y0124729D01*
X0203354Y0124903D01*
X0203268Y0125080D01*
X0203186Y0125258D01*
X0203109Y0125439D01*
X0203036Y0125621D01*
X0202968Y0125805D01*
X0202904Y0125991D01*
X0202844Y0126178D01*
X0202790Y0126366D01*
X0202740Y0126556D01*
X0202694Y0126747D01*
X0202654Y0126939D01*
X0202618Y0127132D01*
X0202587Y0127326D01*
X0202560Y0127521D01*
X0202539Y0127716D01*
X0202522Y0127911D01*
X0202510Y0128107D01*
X0202502Y0128304D01*
X0202500Y0128500D01*
X0202500Y0146500D02*
X0202502Y0146696D01*
X0202510Y0146893D01*
X0202522Y0147089D01*
X0202539Y0147284D01*
X0202560Y0147479D01*
X0202587Y0147674D01*
X0202618Y0147868D01*
X0202654Y0148061D01*
X0202694Y0148253D01*
X0202740Y0148444D01*
X0202790Y0148634D01*
X0202844Y0148822D01*
X0202904Y0149009D01*
X0202968Y0149195D01*
X0203036Y0149379D01*
X0203109Y0149561D01*
X0203186Y0149742D01*
X0203268Y0149920D01*
X0203354Y0150097D01*
X0203445Y0150271D01*
X0203539Y0150443D01*
X0203638Y0150613D01*
X0203741Y0150780D01*
X0203848Y0150945D01*
X0203959Y0151106D01*
X0204074Y0151266D01*
X0204193Y0151422D01*
X0204316Y0151575D01*
X0204442Y0151725D01*
X0204572Y0151872D01*
X0204706Y0152016D01*
X0204843Y0152157D01*
X0204984Y0152294D01*
X0205128Y0152428D01*
X0205275Y0152558D01*
X0205425Y0152684D01*
X0205578Y0152807D01*
X0205734Y0152926D01*
X0205894Y0153041D01*
X0206055Y0153152D01*
X0206220Y0153259D01*
X0206387Y0153362D01*
X0206557Y0153461D01*
X0206729Y0153555D01*
X0206903Y0153646D01*
X0207080Y0153732D01*
X0207258Y0153814D01*
X0207439Y0153891D01*
X0207621Y0153964D01*
X0207805Y0154032D01*
X0207991Y0154096D01*
X0208178Y0154156D01*
X0208366Y0154210D01*
X0208556Y0154260D01*
X0208747Y0154306D01*
X0208939Y0154346D01*
X0209132Y0154382D01*
X0209326Y0154413D01*
X0209521Y0154440D01*
X0209716Y0154461D01*
X0209911Y0154478D01*
X0210107Y0154490D01*
X0210304Y0154498D01*
X0210500Y0154500D01*
X0210696Y0154498D01*
X0210893Y0154490D01*
X0211089Y0154478D01*
X0211284Y0154461D01*
X0211479Y0154440D01*
X0211674Y0154413D01*
X0211868Y0154382D01*
X0212061Y0154346D01*
X0212253Y0154306D01*
X0212444Y0154260D01*
X0212634Y0154210D01*
X0212822Y0154156D01*
X0213009Y0154096D01*
X0213195Y0154032D01*
X0213379Y0153964D01*
X0213561Y0153891D01*
X0213742Y0153814D01*
X0213920Y0153732D01*
X0214097Y0153646D01*
X0214271Y0153555D01*
X0214443Y0153461D01*
X0214613Y0153362D01*
X0214780Y0153259D01*
X0214945Y0153152D01*
X0215106Y0153041D01*
X0215266Y0152926D01*
X0215422Y0152807D01*
X0215575Y0152684D01*
X0215725Y0152558D01*
X0215872Y0152428D01*
X0216016Y0152294D01*
X0216157Y0152157D01*
X0216294Y0152016D01*
X0216428Y0151872D01*
X0216558Y0151725D01*
X0216684Y0151575D01*
X0216807Y0151422D01*
X0216926Y0151266D01*
X0217041Y0151106D01*
X0217152Y0150945D01*
X0217259Y0150780D01*
X0217362Y0150613D01*
X0217461Y0150443D01*
X0217555Y0150271D01*
X0217646Y0150097D01*
X0217732Y0149920D01*
X0217814Y0149742D01*
X0217891Y0149561D01*
X0217964Y0149379D01*
X0218032Y0149195D01*
X0218096Y0149009D01*
X0218156Y0148822D01*
X0218210Y0148634D01*
X0218260Y0148444D01*
X0218306Y0148253D01*
X0218346Y0148061D01*
X0218382Y0147868D01*
X0218413Y0147674D01*
X0218440Y0147479D01*
X0218461Y0147284D01*
X0218478Y0147089D01*
X0218490Y0146893D01*
X0218498Y0146696D01*
X0218500Y0146500D01*
X0218498Y0146304D01*
X0218490Y0146107D01*
X0218478Y0145911D01*
X0218461Y0145716D01*
X0218440Y0145521D01*
X0218413Y0145326D01*
X0218382Y0145132D01*
X0218346Y0144939D01*
X0218306Y0144747D01*
X0218260Y0144556D01*
X0218210Y0144366D01*
X0218156Y0144178D01*
X0218096Y0143991D01*
X0218032Y0143805D01*
X0217964Y0143621D01*
X0217891Y0143439D01*
X0217814Y0143258D01*
X0217732Y0143080D01*
X0217646Y0142903D01*
X0217555Y0142729D01*
X0217461Y0142557D01*
X0217362Y0142387D01*
X0217259Y0142220D01*
X0217152Y0142055D01*
X0217041Y0141894D01*
X0216926Y0141734D01*
X0216807Y0141578D01*
X0216684Y0141425D01*
X0216558Y0141275D01*
X0216428Y0141128D01*
X0216294Y0140984D01*
X0216157Y0140843D01*
X0216016Y0140706D01*
X0215872Y0140572D01*
X0215725Y0140442D01*
X0215575Y0140316D01*
X0215422Y0140193D01*
X0215266Y0140074D01*
X0215106Y0139959D01*
X0214945Y0139848D01*
X0214780Y0139741D01*
X0214613Y0139638D01*
X0214443Y0139539D01*
X0214271Y0139445D01*
X0214097Y0139354D01*
X0213920Y0139268D01*
X0213742Y0139186D01*
X0213561Y0139109D01*
X0213379Y0139036D01*
X0213195Y0138968D01*
X0213009Y0138904D01*
X0212822Y0138844D01*
X0212634Y0138790D01*
X0212444Y0138740D01*
X0212253Y0138694D01*
X0212061Y0138654D01*
X0211868Y0138618D01*
X0211674Y0138587D01*
X0211479Y0138560D01*
X0211284Y0138539D01*
X0211089Y0138522D01*
X0210893Y0138510D01*
X0210696Y0138502D01*
X0210500Y0138500D01*
X0210304Y0138502D01*
X0210107Y0138510D01*
X0209911Y0138522D01*
X0209716Y0138539D01*
X0209521Y0138560D01*
X0209326Y0138587D01*
X0209132Y0138618D01*
X0208939Y0138654D01*
X0208747Y0138694D01*
X0208556Y0138740D01*
X0208366Y0138790D01*
X0208178Y0138844D01*
X0207991Y0138904D01*
X0207805Y0138968D01*
X0207621Y0139036D01*
X0207439Y0139109D01*
X0207258Y0139186D01*
X0207080Y0139268D01*
X0206903Y0139354D01*
X0206729Y0139445D01*
X0206557Y0139539D01*
X0206387Y0139638D01*
X0206220Y0139741D01*
X0206055Y0139848D01*
X0205894Y0139959D01*
X0205734Y0140074D01*
X0205578Y0140193D01*
X0205425Y0140316D01*
X0205275Y0140442D01*
X0205128Y0140572D01*
X0204984Y0140706D01*
X0204843Y0140843D01*
X0204706Y0140984D01*
X0204572Y0141128D01*
X0204442Y0141275D01*
X0204316Y0141425D01*
X0204193Y0141578D01*
X0204074Y0141734D01*
X0203959Y0141894D01*
X0203848Y0142055D01*
X0203741Y0142220D01*
X0203638Y0142387D01*
X0203539Y0142557D01*
X0203445Y0142729D01*
X0203354Y0142903D01*
X0203268Y0143080D01*
X0203186Y0143258D01*
X0203109Y0143439D01*
X0203036Y0143621D01*
X0202968Y0143805D01*
X0202904Y0143991D01*
X0202844Y0144178D01*
X0202790Y0144366D01*
X0202740Y0144556D01*
X0202694Y0144747D01*
X0202654Y0144939D01*
X0202618Y0145132D01*
X0202587Y0145326D01*
X0202560Y0145521D01*
X0202539Y0145716D01*
X0202522Y0145911D01*
X0202510Y0146107D01*
X0202502Y0146304D01*
X0202500Y0146500D01*
D14*
X0203000Y0146500D03*
X0203000Y0128500D03*
X0203000Y0110500D03*
X0203000Y0092500D03*
X0203000Y0074500D03*
X0203000Y0056500D03*
X0203000Y0038500D03*
X0203000Y0020500D03*
X0018000Y0020500D03*
X0018000Y0038500D03*
X0018000Y0056500D03*
X0018000Y0074500D03*
X0018000Y0092500D03*
X0018000Y0110500D03*
X0018000Y0128500D03*
X0018000Y0146500D03*
M02*
