%
M48
M72
T01C0.01378
T02C0.01400
T03C0.03600
T04C0.03900
%
T01
X63500Y28500
X95500Y20500
X116500Y41500
X108500Y43500
X104500Y43500
X100500Y43500
X96500Y43500
X157500Y17500
X38500Y119500
T02
X15500Y10500
X34000Y16500
X14500Y29500
X14500Y47500
X14500Y65500
X36500Y80500
X33000Y88500
X14500Y83500
X36500Y115500
X31500Y124500
X14500Y119500
X58500Y102500
X75500Y96500
X93500Y80500
X122500Y80500
X148500Y109500
X172500Y92500
X175500Y103500
X179500Y117500
X187500Y125500
X204500Y119500
X205500Y102500
X204500Y83500
X205500Y65500
X203500Y47500
X205500Y29500
X179500Y46500
X170000Y39500
X163500Y38500
X156500Y25500
X175500Y18500
X127500Y19500
X118500Y21500
X126500Y44500
X93500Y50500
X63500Y44500
X47500Y34500
X38500Y41500
X74500Y14000
X77500Y25500
X60500Y129500
X75500Y143500
X118500Y143500
X154500Y137500
X180500Y149500
X204500Y156500
X206500Y137500
X15500Y156500
T03
X10500Y146500
X25500Y146500
X25500Y128500
X10500Y128500
X10500Y110500
X25500Y110500
X25500Y92500
X10500Y92500
X10500Y74500
X25500Y74500
X25500Y56500
X10500Y56500
X10500Y38500
X25500Y38500
X25500Y20500
X10500Y20500
X195500Y20500
X210500Y20500
X210500Y38500
X195500Y38500
X195500Y56500
X210500Y56500
X210500Y74500
X195500Y74500
X195500Y92500
X210500Y92500
X210500Y110500
X195500Y110500
X195500Y128500
X210500Y128500
X210500Y146500
X195500Y146500
T04
X195500Y158500
X185500Y158500
X175500Y158500
X165500Y158500
X155500Y158500
X145500Y158500
X135500Y158500
X125500Y158500
X115500Y158500
X95500Y158500
X85500Y158500
X75500Y158500
X65500Y158500
X55500Y158500
X45500Y158500
X35500Y158500
X25500Y158500
X25500Y8500
X35500Y8500
X45500Y8500
X55500Y8500
X65500Y8500
X75500Y8500
X85500Y8500
X95500Y8500
X105500Y8500
X115500Y8500
X125500Y8500
X135500Y8500
X145500Y8500
X155500Y8500
X165500Y8500
X175500Y8500
X185500Y8500
X195500Y8500
M30
