G75*
%MOIN*%
%OFA0B0*%
%FSLAX25Y25*%
%IPPOS*%
%LPD*%
%AMOC8*
5,1,8,0,0,1.08239X$1,22.5*
%
%ADD10R,0.05800X0.04800*%
%ADD11R,0.04800X0.05800*%
%ADD12R,0.02178X0.05918*%
%ADD13R,0.05918X0.02178*%
%ADD14R,0.02600X0.04800*%
%ADD15R,0.06700X0.06700*%
%ADD16C,0.06700*%
%ADD17OC8,0.06400*%
%ADD18C,0.03778*%
%ADD19C,0.03800*%
D10*
X0101500Y0017220D03*
X0101500Y0025819D03*
X0110500Y0025819D03*
X0119500Y0025780D03*
X0119500Y0017181D03*
X0110500Y0017220D03*
X0108500Y0105220D03*
X0108500Y0113819D03*
X0107500Y0121181D03*
X0097500Y0121181D03*
X0097500Y0113819D03*
X0097500Y0105220D03*
X0086500Y0105220D03*
X0086500Y0113819D03*
X0087500Y0121181D03*
X0087500Y0129780D03*
X0097500Y0129780D03*
X0107500Y0129780D03*
X0117500Y0129780D03*
X0127500Y0129780D03*
X0127500Y0121181D03*
X0130500Y0113819D03*
X0130500Y0105220D03*
X0119500Y0105220D03*
X0119500Y0113819D03*
X0117500Y0121181D03*
D11*
X0147220Y0086500D03*
X0155819Y0086500D03*
X0163181Y0085500D03*
X0171780Y0085500D03*
X0171780Y0075500D03*
X0163181Y0075500D03*
X0155819Y0075500D03*
X0147220Y0075500D03*
X0147220Y0064500D03*
X0155819Y0064500D03*
X0163181Y0065500D03*
X0171780Y0065500D03*
X0171780Y0055500D03*
X0163181Y0055500D03*
X0155819Y0053500D03*
X0147220Y0053500D03*
X0147220Y0042500D03*
X0155819Y0042500D03*
X0163181Y0045500D03*
X0171780Y0045500D03*
X0146780Y0029500D03*
X0138181Y0029500D03*
X0138220Y0020500D03*
X0146819Y0020500D03*
X0081819Y0019500D03*
X0073220Y0019500D03*
X0067819Y0034500D03*
X0059220Y0034500D03*
X0059181Y0044500D03*
X0051819Y0047500D03*
X0043220Y0047500D03*
X0043220Y0056500D03*
X0051819Y0056500D03*
X0059181Y0055500D03*
X0067780Y0055500D03*
X0067780Y0066500D03*
X0059181Y0066500D03*
X0051819Y0065500D03*
X0043220Y0065500D03*
X0043220Y0074500D03*
X0051819Y0074500D03*
X0059181Y0077500D03*
X0067780Y0077500D03*
X0067780Y0088500D03*
X0059181Y0088500D03*
X0051819Y0083500D03*
X0043220Y0083500D03*
X0067780Y0044500D03*
D12*
X0083189Y0034791D03*
X0085748Y0034791D03*
X0088307Y0034791D03*
X0090866Y0034791D03*
X0093425Y0034791D03*
X0095984Y0034791D03*
X0098543Y0034791D03*
X0101102Y0034791D03*
X0103661Y0034791D03*
X0106220Y0034791D03*
X0108780Y0034791D03*
X0111339Y0034791D03*
X0113898Y0034791D03*
X0116457Y0034791D03*
X0119016Y0034791D03*
X0121575Y0034791D03*
X0124134Y0034791D03*
X0126693Y0034791D03*
X0129252Y0034791D03*
X0131811Y0034791D03*
X0131811Y0096209D03*
X0129252Y0096209D03*
X0126693Y0096209D03*
X0124134Y0096209D03*
X0121575Y0096209D03*
X0119016Y0096209D03*
X0116457Y0096209D03*
X0113898Y0096209D03*
X0111339Y0096209D03*
X0108780Y0096209D03*
X0106220Y0096209D03*
X0103661Y0096209D03*
X0101102Y0096209D03*
X0098543Y0096209D03*
X0095984Y0096209D03*
X0093425Y0096209D03*
X0090866Y0096209D03*
X0088307Y0096209D03*
X0085748Y0096209D03*
X0083189Y0096209D03*
D13*
X0076791Y0089811D03*
X0076791Y0087252D03*
X0076791Y0084693D03*
X0076791Y0082134D03*
X0076791Y0079575D03*
X0076791Y0077016D03*
X0076791Y0074457D03*
X0076791Y0071898D03*
X0076791Y0069339D03*
X0076791Y0066780D03*
X0076791Y0064220D03*
X0076791Y0061661D03*
X0076791Y0059102D03*
X0076791Y0056543D03*
X0076791Y0053984D03*
X0076791Y0051425D03*
X0076791Y0048866D03*
X0076791Y0046307D03*
X0076791Y0043748D03*
X0076791Y0041189D03*
X0138209Y0041189D03*
X0138209Y0043748D03*
X0138209Y0046307D03*
X0138209Y0048866D03*
X0138209Y0051425D03*
X0138209Y0053984D03*
X0138209Y0056543D03*
X0138209Y0059102D03*
X0138209Y0061661D03*
X0138209Y0064220D03*
X0138209Y0066780D03*
X0138209Y0069339D03*
X0138209Y0071898D03*
X0138209Y0074457D03*
X0138209Y0077016D03*
X0138209Y0079575D03*
X0138209Y0082134D03*
X0138209Y0084693D03*
X0138209Y0087252D03*
X0138209Y0089811D03*
D14*
X0183900Y0097900D03*
X0186500Y0097900D03*
X0189100Y0097900D03*
X0191700Y0097900D03*
X0191700Y0105700D03*
X0189100Y0105700D03*
X0186500Y0105700D03*
X0183900Y0105700D03*
X0183900Y0133900D03*
X0186500Y0133900D03*
X0189100Y0133900D03*
X0191700Y0133900D03*
X0191700Y0141700D03*
X0189100Y0141700D03*
X0186500Y0141700D03*
X0183900Y0141700D03*
X0183900Y0069700D03*
X0186500Y0069700D03*
X0189100Y0069700D03*
X0191700Y0069700D03*
X0191700Y0061900D03*
X0189100Y0061900D03*
X0186500Y0061900D03*
X0183900Y0061900D03*
X0183900Y0033700D03*
X0186500Y0033700D03*
X0189100Y0033700D03*
X0191700Y0033700D03*
X0191700Y0025900D03*
X0189100Y0025900D03*
X0186500Y0025900D03*
X0183900Y0025900D03*
X0038100Y0025300D03*
X0035500Y0025300D03*
X0032900Y0025300D03*
X0030300Y0025300D03*
X0030300Y0033100D03*
X0032900Y0033100D03*
X0035500Y0033100D03*
X0038100Y0033100D03*
X0038100Y0061300D03*
X0035500Y0061300D03*
X0032900Y0061300D03*
X0030300Y0061300D03*
X0030300Y0069100D03*
X0032900Y0069100D03*
X0035500Y0069100D03*
X0038100Y0069100D03*
X0037100Y0097300D03*
X0034500Y0097300D03*
X0031900Y0097300D03*
X0029300Y0097300D03*
X0029300Y0105100D03*
X0031900Y0105100D03*
X0034500Y0105100D03*
X0037100Y0105100D03*
X0037100Y0133300D03*
X0034500Y0133300D03*
X0031900Y0133300D03*
X0029300Y0133300D03*
X0029300Y0141100D03*
X0031900Y0141100D03*
X0034500Y0141100D03*
X0037100Y0141100D03*
D15*
X0095500Y0158500D03*
X0115500Y0158500D03*
X0105500Y0008500D03*
X0195500Y0008500D03*
D16*
X0185500Y0008500D03*
X0175500Y0008500D03*
X0165500Y0008500D03*
X0155500Y0008500D03*
X0145500Y0008500D03*
X0135500Y0008500D03*
X0125500Y0008500D03*
X0115500Y0008500D03*
X0095500Y0008500D03*
X0085500Y0008500D03*
X0075500Y0008500D03*
X0065500Y0008500D03*
X0055500Y0008500D03*
X0045500Y0008500D03*
X0035500Y0008500D03*
X0025500Y0008500D03*
X0025500Y0158500D03*
X0035500Y0158500D03*
X0045500Y0158500D03*
X0055500Y0158500D03*
X0065500Y0158500D03*
X0075500Y0158500D03*
X0085500Y0158500D03*
X0125500Y0158500D03*
X0135500Y0158500D03*
X0145500Y0158500D03*
X0155500Y0158500D03*
X0165500Y0158500D03*
X0175500Y0158500D03*
X0185500Y0158500D03*
X0195500Y0158500D03*
D17*
X0195500Y0146500D03*
X0210500Y0146500D03*
X0210500Y0128500D03*
X0195500Y0128500D03*
X0195500Y0110500D03*
X0210500Y0110500D03*
X0210500Y0092500D03*
X0195500Y0092500D03*
X0195500Y0074500D03*
X0210500Y0074500D03*
X0210500Y0056500D03*
X0195500Y0056500D03*
X0195500Y0038500D03*
X0210500Y0038500D03*
X0210500Y0020500D03*
X0195500Y0020500D03*
X0025500Y0020500D03*
X0010500Y0020500D03*
X0010500Y0038500D03*
X0025500Y0038500D03*
X0025500Y0056500D03*
X0010500Y0056500D03*
X0010500Y0074500D03*
X0025500Y0074500D03*
X0025500Y0092500D03*
X0010500Y0092500D03*
X0010500Y0110500D03*
X0025500Y0110500D03*
X0025500Y0128500D03*
X0010500Y0128500D03*
X0010500Y0146500D03*
X0025500Y0146500D03*
D18*
X0038500Y0119500D03*
X0096500Y0043500D03*
X0100500Y0043500D03*
X0104500Y0043500D03*
X0108500Y0043500D03*
X0116500Y0041500D03*
X0095500Y0020500D03*
X0063500Y0028500D03*
X0157500Y0017500D03*
D19*
X0015500Y0010500D03*
X0034000Y0016500D03*
X0014500Y0029500D03*
X0014500Y0047500D03*
X0014500Y0065500D03*
X0036500Y0080500D03*
X0033000Y0088500D03*
X0014500Y0083500D03*
X0036500Y0115500D03*
X0031500Y0124500D03*
X0014500Y0119500D03*
X0058500Y0102500D03*
X0075500Y0096500D03*
X0093500Y0080500D03*
X0122500Y0080500D03*
X0148500Y0109500D03*
X0172500Y0092500D03*
X0175500Y0103500D03*
X0179500Y0117500D03*
X0187500Y0125500D03*
X0204500Y0119500D03*
X0205500Y0102500D03*
X0204500Y0083500D03*
X0205500Y0065500D03*
X0203500Y0047500D03*
X0205500Y0029500D03*
X0179500Y0046500D03*
X0170000Y0039500D03*
X0163500Y0038500D03*
X0156500Y0025500D03*
X0175500Y0018500D03*
X0127500Y0019500D03*
X0118500Y0021500D03*
X0126500Y0044500D03*
X0093500Y0050500D03*
X0063500Y0044500D03*
X0047500Y0034500D03*
X0038500Y0041500D03*
X0074500Y0014000D03*
X0077500Y0025500D03*
X0060500Y0129500D03*
X0075500Y0143500D03*
X0118500Y0143500D03*
X0154500Y0137500D03*
X0180500Y0149500D03*
X0204500Y0156500D03*
X0206500Y0137500D03*
X0015500Y0156500D03*
M02*
