G75*
%MOIN*%
%OFA0B0*%
%FSLAX25Y25*%
%IPPOS*%
%LPD*%
%AMOC8*
5,1,8,0,0,1.08239X$1,22.5*
%
%ADD10C,0.03962*%
%ADD11C,0.07087*%
D10*
X0021290Y0021290D03*
X0021782Y0021782D03*
X0022274Y0022274D03*
X0022767Y0022767D03*
X0006526Y0061152D03*
X0006034Y0061152D03*
X0005542Y0061152D03*
X0005050Y0061152D03*
X0022767Y0099538D03*
X0022274Y0100030D03*
X0021782Y0100522D03*
X0021290Y0101015D03*
X0061152Y0115778D03*
X0061152Y0116270D03*
X0061152Y0116763D03*
X0061152Y0117255D03*
X0099538Y0099538D03*
X0100030Y0100030D03*
X0100522Y0100522D03*
X0101015Y0101015D03*
X0115778Y0061152D03*
X0116270Y0061152D03*
X0116763Y0061152D03*
X0117255Y0061152D03*
X0099538Y0022767D03*
X0100030Y0022274D03*
X0100522Y0021782D03*
X0101015Y0021290D03*
X0061152Y0006526D03*
X0061152Y0006034D03*
X0061152Y0005542D03*
X0061152Y0005050D03*
D11*
X0021782Y0049341D03*
X0021782Y0050326D03*
X0021782Y0051310D03*
X0021782Y0052294D03*
X0021782Y0053278D03*
X0021782Y0054263D03*
X0021782Y0055247D03*
X0021782Y0056231D03*
X0021782Y0057215D03*
X0021782Y0058200D03*
X0021782Y0059184D03*
X0021782Y0060168D03*
X0021782Y0061152D03*
X0021782Y0062137D03*
X0021782Y0063121D03*
X0021782Y0064105D03*
X0021782Y0065089D03*
X0021782Y0066074D03*
X0021782Y0067058D03*
X0021782Y0068042D03*
X0021782Y0069026D03*
X0021782Y0070011D03*
X0021782Y0070995D03*
X0021782Y0071979D03*
X0021782Y0072963D03*
X0100522Y0072963D03*
X0100522Y0071979D03*
X0100522Y0070995D03*
X0100522Y0070011D03*
X0100522Y0069026D03*
X0100522Y0068042D03*
X0100522Y0067058D03*
X0100522Y0066074D03*
X0100522Y0065089D03*
X0100522Y0064105D03*
X0100522Y0063121D03*
X0100522Y0062137D03*
X0100522Y0061152D03*
X0100522Y0060168D03*
X0100522Y0059184D03*
X0100522Y0058200D03*
X0100522Y0057215D03*
X0100522Y0056231D03*
X0100522Y0055247D03*
X0100522Y0054263D03*
X0100522Y0053278D03*
X0100522Y0052294D03*
X0100522Y0051310D03*
X0100522Y0050326D03*
X0100522Y0049341D03*
M02*
