%
M48
M72
T01C0.02362
T02C0.04724
%
T01
X21290Y21290
X21782Y21782
X22274Y22274
X22767Y22767
X6526Y61152
X6034Y61152
X5542Y61152
X5050Y61152
X22767Y99538
X22274Y100030
X21782Y100522
X21290Y101015
X61152Y115778
X61152Y116270
X61152Y116763
X61152Y117255
X99538Y99538
X100030Y100030
X100522Y100522
X101015Y101015
X115778Y61152
X116270Y61152
X116763Y61152
X117255Y61152
X99538Y22767
X100030Y22274
X100522Y21782
X101015Y21290
X61152Y6526
X61152Y6034
X61152Y5542
X61152Y5050
T02
X21782Y49341
X21782Y50326
X21782Y51310
X21782Y52294
X21782Y53278
X21782Y54263
X21782Y55247
X21782Y56231
X21782Y57215
X21782Y58200
X21782Y59184
X21782Y60168
X21782Y61152
X21782Y62137
X21782Y63121
X21782Y64105
X21782Y65089
X21782Y66074
X21782Y67058
X21782Y68042
X21782Y69026
X21782Y70011
X21782Y70995
X21782Y71979
X21782Y72963
X100522Y72963
X100522Y71979
X100522Y70995
X100522Y70011
X100522Y69026
X100522Y68042
X100522Y67058
X100522Y66074
X100522Y65089
X100522Y64105
X100522Y63121
X100522Y62137
X100522Y61152
X100522Y60168
X100522Y59184
X100522Y58200
X100522Y57215
X100522Y56231
X100522Y55247
X100522Y54263
X100522Y53278
X100522Y52294
X100522Y51310
X100522Y50326
X100522Y49341
M30
