G75*
%MOIN*%
%OFA0B0*%
%FSLAX25Y25*%
%IPPOS*%
%LPD*%
%AMOC8*
5,1,8,0,0,1.08239X$1,22.5*
%
%ADD10C,0.00000*%
%ADD11C,0.05937*%
%ADD12C,0.02400*%
%ADD13C,0.02600*%
%ADD14C,0.01000*%
D10*
X0010500Y0010500D02*
X0010500Y0061500D01*
X0103000Y0061500D01*
X0103000Y0010500D01*
X0010500Y0010500D01*
D11*
X0020031Y0021000D02*
X0025969Y0021000D01*
X0025969Y0031000D02*
X0020031Y0031000D01*
X0020031Y0041000D02*
X0025969Y0041000D01*
X0025969Y0051000D02*
X0020031Y0051000D01*
X0042000Y0051969D02*
X0042000Y0046031D01*
X0052000Y0046031D02*
X0052000Y0051969D01*
X0062000Y0051969D02*
X0062000Y0046031D01*
X0072000Y0046031D02*
X0072000Y0051969D01*
X0088031Y0051000D02*
X0093969Y0051000D01*
X0093969Y0041000D02*
X0088031Y0041000D01*
X0088031Y0031000D02*
X0093969Y0031000D01*
X0093969Y0021000D02*
X0088031Y0021000D01*
X0072000Y0020031D02*
X0072000Y0025969D01*
X0062000Y0025969D02*
X0062000Y0020031D01*
X0052000Y0020031D02*
X0052000Y0025969D01*
X0042000Y0025969D02*
X0042000Y0020031D01*
D12*
X0035000Y0020000D02*
X0035000Y0023500D01*
X0034000Y0023500D01*
X0023000Y0031000D02*
X0057000Y0031000D01*
X0057000Y0036000D01*
X0057000Y0041000D01*
X0091000Y0041000D01*
X0074500Y0036000D02*
X0072000Y0033500D01*
X0072000Y0023000D01*
X0062000Y0023000D02*
X0062000Y0026000D01*
X0057000Y0031000D01*
X0057000Y0041000D02*
X0052000Y0046000D01*
X0052000Y0049000D01*
X0040500Y0038000D02*
X0040500Y0035500D01*
X0039500Y0036000D01*
D13*
X0039500Y0036000D03*
X0057000Y0036000D03*
X0074500Y0036000D03*
X0034000Y0023500D03*
D14*
X0037731Y0022990D02*
X0029970Y0022990D01*
X0030110Y0022715D02*
X0029790Y0023342D01*
X0029377Y0023911D01*
X0028880Y0024408D01*
X0028311Y0024822D01*
X0027684Y0025141D01*
X0027015Y0025358D01*
X0026320Y0025468D01*
X0023484Y0025468D01*
X0023484Y0021484D01*
X0022516Y0021484D01*
X0022516Y0020516D01*
X0023484Y0020516D01*
X0023484Y0016531D01*
X0026320Y0016531D01*
X0027015Y0016642D01*
X0027684Y0016859D01*
X0028311Y0017178D01*
X0028880Y0017592D01*
X0029377Y0018089D01*
X0029790Y0018658D01*
X0030110Y0019285D01*
X0030327Y0019954D01*
X0030416Y0020516D01*
X0023484Y0020516D01*
X0023484Y0021484D01*
X0030416Y0021484D01*
X0030327Y0022046D01*
X0030110Y0022715D01*
X0030336Y0021991D02*
X0037731Y0021991D01*
X0037731Y0020993D02*
X0023484Y0020993D01*
X0022516Y0020993D02*
X0015000Y0020993D01*
X0015584Y0020516D02*
X0015673Y0019954D01*
X0015890Y0019285D01*
X0016210Y0018658D01*
X0016623Y0018089D01*
X0017120Y0017592D01*
X0017689Y0017178D01*
X0018316Y0016859D01*
X0018985Y0016642D01*
X0019680Y0016531D01*
X0022516Y0016531D01*
X0022516Y0020516D01*
X0015584Y0020516D01*
X0015667Y0019994D02*
X0015000Y0019994D01*
X0015000Y0018996D02*
X0016038Y0018996D01*
X0016715Y0017997D02*
X0015000Y0017997D01*
X0015000Y0016999D02*
X0018042Y0016999D01*
X0015000Y0016000D02*
X0040579Y0016000D01*
X0041151Y0015763D02*
X0042849Y0015763D01*
X0044418Y0016413D01*
X0045619Y0017614D01*
X0046268Y0019182D01*
X0046268Y0026818D01*
X0045619Y0028386D01*
X0045505Y0028500D01*
X0048495Y0028500D01*
X0048381Y0028386D01*
X0047731Y0026818D01*
X0047731Y0019182D01*
X0048381Y0017614D01*
X0049582Y0016413D01*
X0051151Y0015763D01*
X0052849Y0015763D01*
X0054418Y0016413D01*
X0055619Y0017614D01*
X0056268Y0019182D01*
X0056268Y0026818D01*
X0055619Y0028386D01*
X0055505Y0028500D01*
X0055964Y0028500D01*
X0057731Y0026733D01*
X0057731Y0019182D01*
X0058381Y0017614D01*
X0059582Y0016413D01*
X0061151Y0015763D01*
X0062849Y0015763D01*
X0064418Y0016413D01*
X0065619Y0017614D01*
X0066268Y0019182D01*
X0066268Y0026818D01*
X0065619Y0028386D01*
X0064418Y0029587D01*
X0062849Y0030237D01*
X0061299Y0030237D01*
X0059500Y0032036D01*
X0059500Y0035241D01*
X0059600Y0035483D01*
X0059600Y0036517D01*
X0059500Y0036759D01*
X0059500Y0038500D01*
X0084495Y0038500D01*
X0085614Y0037381D01*
X0087182Y0036731D01*
X0094818Y0036731D01*
X0096386Y0037381D01*
X0097587Y0038582D01*
X0098237Y0040151D01*
X0098237Y0041849D01*
X0097587Y0043418D01*
X0096386Y0044619D01*
X0094818Y0045268D01*
X0087182Y0045268D01*
X0085614Y0044619D01*
X0084495Y0043500D01*
X0075505Y0043500D01*
X0075619Y0043614D01*
X0076268Y0045182D01*
X0076268Y0052818D01*
X0075619Y0054386D01*
X0074418Y0055587D01*
X0072849Y0056237D01*
X0071151Y0056237D01*
X0069582Y0055587D01*
X0068381Y0054386D01*
X0067731Y0052818D01*
X0067731Y0045182D01*
X0068381Y0043614D01*
X0068495Y0043500D01*
X0065505Y0043500D01*
X0065619Y0043614D01*
X0066268Y0045182D01*
X0066268Y0052818D01*
X0065619Y0054386D01*
X0064418Y0055587D01*
X0062849Y0056237D01*
X0061151Y0056237D01*
X0059582Y0055587D01*
X0058381Y0054386D01*
X0057731Y0052818D01*
X0057731Y0045182D01*
X0058381Y0043614D01*
X0058495Y0043500D01*
X0058036Y0043500D01*
X0056268Y0045267D01*
X0056268Y0052818D01*
X0055619Y0054386D01*
X0054418Y0055587D01*
X0052849Y0056237D01*
X0051151Y0056237D01*
X0049582Y0055587D01*
X0048381Y0054386D01*
X0047731Y0052818D01*
X0047731Y0045182D01*
X0048381Y0043614D01*
X0049582Y0042413D01*
X0051151Y0041763D01*
X0052701Y0041763D01*
X0054500Y0039964D01*
X0030160Y0039964D01*
X0030237Y0040151D02*
X0030237Y0041849D01*
X0029587Y0043418D01*
X0028386Y0044619D01*
X0026818Y0045268D01*
X0019182Y0045268D01*
X0017614Y0044619D01*
X0016413Y0043418D01*
X0015763Y0041849D01*
X0015763Y0040151D01*
X0016413Y0038582D01*
X0017614Y0037381D01*
X0019182Y0036731D01*
X0026818Y0036731D01*
X0028386Y0037381D01*
X0029587Y0038582D01*
X0030237Y0040151D01*
X0030237Y0040963D02*
X0053502Y0040963D01*
X0054500Y0039964D02*
X0054500Y0036759D01*
X0054400Y0036517D01*
X0054400Y0035483D01*
X0054500Y0035241D01*
X0054500Y0033500D01*
X0029505Y0033500D01*
X0028386Y0034619D01*
X0026818Y0035268D01*
X0019182Y0035268D01*
X0017614Y0034619D01*
X0016413Y0033418D01*
X0015763Y0031849D01*
X0015763Y0030151D01*
X0016413Y0028582D01*
X0017614Y0027381D01*
X0019182Y0026731D01*
X0026818Y0026731D01*
X0028386Y0027381D01*
X0029505Y0028500D01*
X0038495Y0028500D01*
X0038381Y0028386D01*
X0037731Y0026818D01*
X0037731Y0019182D01*
X0038381Y0017614D01*
X0039582Y0016413D01*
X0041151Y0015763D01*
X0043421Y0016000D02*
X0050579Y0016000D01*
X0048996Y0016999D02*
X0045004Y0016999D01*
X0045777Y0017997D02*
X0048223Y0017997D01*
X0047809Y0018996D02*
X0046191Y0018996D01*
X0046268Y0019994D02*
X0047731Y0019994D01*
X0047731Y0020993D02*
X0046268Y0020993D01*
X0046268Y0021991D02*
X0047731Y0021991D01*
X0047731Y0022990D02*
X0046268Y0022990D01*
X0046268Y0023988D02*
X0047731Y0023988D01*
X0047731Y0024987D02*
X0046268Y0024987D01*
X0046268Y0025985D02*
X0047731Y0025985D01*
X0047800Y0026984D02*
X0046200Y0026984D01*
X0045786Y0027982D02*
X0048214Y0027982D01*
X0055786Y0027982D02*
X0056482Y0027982D01*
X0056200Y0026984D02*
X0057481Y0026984D01*
X0057731Y0025985D02*
X0056268Y0025985D01*
X0056268Y0024987D02*
X0057731Y0024987D01*
X0057731Y0023988D02*
X0056268Y0023988D01*
X0056268Y0022990D02*
X0057731Y0022990D01*
X0057731Y0021991D02*
X0056268Y0021991D01*
X0056268Y0020993D02*
X0057731Y0020993D01*
X0057731Y0019994D02*
X0056268Y0019994D01*
X0056191Y0018996D02*
X0057809Y0018996D01*
X0058223Y0017997D02*
X0055777Y0017997D01*
X0055004Y0016999D02*
X0058996Y0016999D01*
X0060579Y0016000D02*
X0053421Y0016000D01*
X0063421Y0016000D02*
X0070070Y0016000D01*
X0070285Y0015890D02*
X0070954Y0015673D01*
X0071516Y0015584D01*
X0071516Y0022516D01*
X0072484Y0022516D01*
X0072484Y0015584D01*
X0073046Y0015673D01*
X0073715Y0015890D01*
X0074342Y0016210D01*
X0074911Y0016623D01*
X0075408Y0017120D01*
X0075822Y0017689D01*
X0076141Y0018316D01*
X0076358Y0018985D01*
X0076468Y0019680D01*
X0076468Y0022516D01*
X0072484Y0022516D01*
X0072484Y0023484D01*
X0076468Y0023484D01*
X0076468Y0026320D01*
X0076358Y0027015D01*
X0076141Y0027684D01*
X0075822Y0028311D01*
X0075408Y0028880D01*
X0074911Y0029377D01*
X0074342Y0029790D01*
X0073715Y0030110D01*
X0073046Y0030327D01*
X0072484Y0030416D01*
X0072484Y0023484D01*
X0071516Y0023484D01*
X0071516Y0022516D01*
X0067531Y0022516D01*
X0067531Y0019680D01*
X0067642Y0018985D01*
X0067859Y0018316D01*
X0068178Y0017689D01*
X0068592Y0017120D01*
X0069089Y0016623D01*
X0069658Y0016210D01*
X0070285Y0015890D01*
X0071516Y0016000D02*
X0072484Y0016000D01*
X0072484Y0016999D02*
X0071516Y0016999D01*
X0071516Y0017997D02*
X0072484Y0017997D01*
X0072484Y0018996D02*
X0071516Y0018996D01*
X0071516Y0019994D02*
X0072484Y0019994D01*
X0072484Y0020993D02*
X0071516Y0020993D01*
X0071516Y0021991D02*
X0072484Y0021991D01*
X0072484Y0022990D02*
X0084235Y0022990D01*
X0084413Y0023418D02*
X0083763Y0021849D01*
X0083763Y0020151D01*
X0084413Y0018582D01*
X0085614Y0017381D01*
X0087182Y0016731D01*
X0094818Y0016731D01*
X0096386Y0017381D01*
X0097587Y0018582D01*
X0098237Y0020151D01*
X0098237Y0021849D01*
X0097587Y0023418D01*
X0096386Y0024619D01*
X0094818Y0025268D01*
X0087182Y0025268D01*
X0085614Y0024619D01*
X0084413Y0023418D01*
X0084983Y0023988D02*
X0076468Y0023988D01*
X0076468Y0024987D02*
X0086502Y0024987D01*
X0087182Y0026731D02*
X0085614Y0027381D01*
X0084413Y0028582D01*
X0083763Y0030151D01*
X0083763Y0031849D01*
X0084413Y0033418D01*
X0085614Y0034619D01*
X0087182Y0035268D01*
X0094818Y0035268D01*
X0096386Y0034619D01*
X0097587Y0033418D01*
X0098237Y0031849D01*
X0098237Y0030151D01*
X0097587Y0028582D01*
X0096386Y0027381D01*
X0094818Y0026731D01*
X0087182Y0026731D01*
X0086574Y0026984D02*
X0076363Y0026984D01*
X0076468Y0025985D02*
X0098500Y0025985D01*
X0098500Y0026984D02*
X0095426Y0026984D01*
X0096987Y0027982D02*
X0098500Y0027982D01*
X0098500Y0028981D02*
X0097752Y0028981D01*
X0098166Y0029979D02*
X0098500Y0029979D01*
X0098500Y0030978D02*
X0098237Y0030978D01*
X0098184Y0031976D02*
X0098500Y0031976D01*
X0098500Y0032975D02*
X0097771Y0032975D01*
X0098500Y0033973D02*
X0097032Y0033973D01*
X0098500Y0034972D02*
X0095534Y0034972D01*
X0095390Y0036969D02*
X0098500Y0036969D01*
X0098500Y0037967D02*
X0096972Y0037967D01*
X0097746Y0038966D02*
X0098500Y0038966D01*
X0098500Y0039964D02*
X0098160Y0039964D01*
X0098237Y0040963D02*
X0098500Y0040963D01*
X0098500Y0041961D02*
X0098191Y0041961D01*
X0098500Y0042960D02*
X0097777Y0042960D01*
X0098500Y0043958D02*
X0097047Y0043958D01*
X0098500Y0044957D02*
X0095570Y0044957D01*
X0095015Y0046642D02*
X0094320Y0046531D01*
X0091484Y0046531D01*
X0091484Y0050516D01*
X0090516Y0050516D01*
X0090516Y0046531D01*
X0087680Y0046531D01*
X0086985Y0046642D01*
X0086316Y0046859D01*
X0085689Y0047178D01*
X0085120Y0047592D01*
X0084623Y0048089D01*
X0084210Y0048658D01*
X0083890Y0049285D01*
X0083673Y0049954D01*
X0083584Y0050516D01*
X0090516Y0050516D01*
X0090516Y0051484D01*
X0083584Y0051484D01*
X0083673Y0052046D01*
X0083890Y0052715D01*
X0084210Y0053342D01*
X0084623Y0053911D01*
X0085120Y0054408D01*
X0085689Y0054822D01*
X0086316Y0055141D01*
X0086985Y0055358D01*
X0087680Y0055468D01*
X0090516Y0055468D01*
X0090516Y0051484D01*
X0091484Y0051484D01*
X0091484Y0055468D01*
X0094320Y0055468D01*
X0095015Y0055358D01*
X0095684Y0055141D01*
X0096311Y0054822D01*
X0096880Y0054408D01*
X0097377Y0053911D01*
X0097790Y0053342D01*
X0098110Y0052715D01*
X0098327Y0052046D01*
X0098416Y0051484D01*
X0091484Y0051484D01*
X0091484Y0050516D01*
X0098416Y0050516D01*
X0098327Y0049954D01*
X0098110Y0049285D01*
X0097790Y0048658D01*
X0097377Y0048089D01*
X0096880Y0047592D01*
X0096311Y0047178D01*
X0095684Y0046859D01*
X0095015Y0046642D01*
X0095870Y0046954D02*
X0098500Y0046954D01*
X0098500Y0047952D02*
X0097240Y0047952D01*
X0097940Y0048951D02*
X0098500Y0048951D01*
X0098500Y0049949D02*
X0098326Y0049949D01*
X0098500Y0050948D02*
X0091484Y0050948D01*
X0090516Y0050948D02*
X0076268Y0050948D01*
X0076268Y0049949D02*
X0083674Y0049949D01*
X0084060Y0048951D02*
X0076268Y0048951D01*
X0076268Y0047952D02*
X0084760Y0047952D01*
X0086130Y0046954D02*
X0076268Y0046954D01*
X0076268Y0045955D02*
X0098500Y0045955D01*
X0091484Y0046954D02*
X0090516Y0046954D01*
X0090516Y0047952D02*
X0091484Y0047952D01*
X0091484Y0048951D02*
X0090516Y0048951D01*
X0090516Y0049949D02*
X0091484Y0049949D01*
X0091484Y0051946D02*
X0090516Y0051946D01*
X0090516Y0052945D02*
X0091484Y0052945D01*
X0091484Y0053943D02*
X0090516Y0053943D01*
X0090516Y0054942D02*
X0091484Y0054942D01*
X0096075Y0054942D02*
X0098500Y0054942D01*
X0098500Y0055940D02*
X0073565Y0055940D01*
X0075063Y0054942D02*
X0085925Y0054942D01*
X0084656Y0053943D02*
X0075802Y0053943D01*
X0076216Y0052945D02*
X0084007Y0052945D01*
X0083657Y0051946D02*
X0076268Y0051946D01*
X0070435Y0055940D02*
X0063565Y0055940D01*
X0065063Y0054942D02*
X0068937Y0054942D01*
X0068198Y0053943D02*
X0065802Y0053943D01*
X0066216Y0052945D02*
X0067784Y0052945D01*
X0067731Y0051946D02*
X0066268Y0051946D01*
X0066268Y0050948D02*
X0067731Y0050948D01*
X0067731Y0049949D02*
X0066268Y0049949D01*
X0066268Y0048951D02*
X0067731Y0048951D01*
X0067731Y0047952D02*
X0066268Y0047952D01*
X0066268Y0046954D02*
X0067731Y0046954D01*
X0067731Y0045955D02*
X0066268Y0045955D01*
X0066175Y0044957D02*
X0067825Y0044957D01*
X0068239Y0043958D02*
X0065761Y0043958D01*
X0058239Y0043958D02*
X0057577Y0043958D01*
X0057825Y0044957D02*
X0056579Y0044957D01*
X0056268Y0045955D02*
X0057731Y0045955D01*
X0057731Y0046954D02*
X0056268Y0046954D01*
X0056268Y0047952D02*
X0057731Y0047952D01*
X0057731Y0048951D02*
X0056268Y0048951D01*
X0056268Y0049949D02*
X0057731Y0049949D01*
X0057731Y0050948D02*
X0056268Y0050948D01*
X0056268Y0051946D02*
X0057731Y0051946D01*
X0057784Y0052945D02*
X0056216Y0052945D01*
X0055802Y0053943D02*
X0058198Y0053943D01*
X0058937Y0054942D02*
X0055063Y0054942D01*
X0053565Y0055940D02*
X0060435Y0055940D01*
X0050435Y0055940D02*
X0044047Y0055940D01*
X0044342Y0055790D02*
X0043715Y0056110D01*
X0043046Y0056327D01*
X0042484Y0056416D01*
X0042484Y0049484D01*
X0041516Y0049484D01*
X0041516Y0048516D01*
X0037531Y0048516D01*
X0037531Y0045680D01*
X0037642Y0044985D01*
X0037859Y0044316D01*
X0038178Y0043689D01*
X0038592Y0043120D01*
X0039089Y0042623D01*
X0039658Y0042210D01*
X0040285Y0041890D01*
X0040954Y0041673D01*
X0041516Y0041584D01*
X0041516Y0048516D01*
X0042484Y0048516D01*
X0042484Y0041584D01*
X0043046Y0041673D01*
X0043715Y0041890D01*
X0044342Y0042210D01*
X0044911Y0042623D01*
X0045408Y0043120D01*
X0045822Y0043689D01*
X0046141Y0044316D01*
X0046358Y0044985D01*
X0046468Y0045680D01*
X0046468Y0048516D01*
X0042484Y0048516D01*
X0042484Y0049484D01*
X0046468Y0049484D01*
X0046468Y0052320D01*
X0046358Y0053015D01*
X0046141Y0053684D01*
X0045822Y0054311D01*
X0045408Y0054880D01*
X0044911Y0055377D01*
X0044342Y0055790D01*
X0045346Y0054942D02*
X0048937Y0054942D01*
X0048198Y0053943D02*
X0046009Y0053943D01*
X0046370Y0052945D02*
X0047784Y0052945D01*
X0047731Y0051946D02*
X0046468Y0051946D01*
X0046468Y0050948D02*
X0047731Y0050948D01*
X0047731Y0049949D02*
X0046468Y0049949D01*
X0047731Y0048951D02*
X0042484Y0048951D01*
X0041516Y0048951D02*
X0029740Y0048951D01*
X0029587Y0048582D02*
X0030237Y0050151D01*
X0030237Y0051849D01*
X0029587Y0053418D01*
X0028386Y0054619D01*
X0026818Y0055268D01*
X0019182Y0055268D01*
X0017614Y0054619D01*
X0016413Y0053418D01*
X0015763Y0051849D01*
X0015763Y0050151D01*
X0016413Y0048582D01*
X0017614Y0047381D01*
X0019182Y0046731D01*
X0026818Y0046731D01*
X0028386Y0047381D01*
X0029587Y0048582D01*
X0028957Y0047952D02*
X0037531Y0047952D01*
X0037531Y0046954D02*
X0027354Y0046954D01*
X0027570Y0044957D02*
X0037651Y0044957D01*
X0037531Y0045955D02*
X0015000Y0045955D01*
X0015000Y0044957D02*
X0018430Y0044957D01*
X0016953Y0043958D02*
X0015000Y0043958D01*
X0015000Y0042960D02*
X0016223Y0042960D01*
X0015809Y0041961D02*
X0015000Y0041961D01*
X0015000Y0040963D02*
X0015763Y0040963D01*
X0015840Y0039964D02*
X0015000Y0039964D01*
X0015000Y0038966D02*
X0016254Y0038966D01*
X0017028Y0037967D02*
X0015000Y0037967D01*
X0015000Y0036969D02*
X0018610Y0036969D01*
X0018466Y0034972D02*
X0015000Y0034972D01*
X0015000Y0035970D02*
X0054400Y0035970D01*
X0054500Y0034972D02*
X0027534Y0034972D01*
X0029032Y0033973D02*
X0054500Y0033973D01*
X0054500Y0036969D02*
X0027390Y0036969D01*
X0028972Y0037967D02*
X0054500Y0037967D01*
X0054500Y0038966D02*
X0029746Y0038966D01*
X0030191Y0041961D02*
X0040145Y0041961D01*
X0041516Y0041961D02*
X0042484Y0041961D01*
X0042484Y0042960D02*
X0041516Y0042960D01*
X0041516Y0043958D02*
X0042484Y0043958D01*
X0042484Y0044957D02*
X0041516Y0044957D01*
X0041516Y0045955D02*
X0042484Y0045955D01*
X0042484Y0046954D02*
X0041516Y0046954D01*
X0041516Y0047952D02*
X0042484Y0047952D01*
X0041516Y0049484D02*
X0037531Y0049484D01*
X0037531Y0052320D01*
X0037642Y0053015D01*
X0037859Y0053684D01*
X0038178Y0054311D01*
X0038592Y0054880D01*
X0039089Y0055377D01*
X0039658Y0055790D01*
X0040285Y0056110D01*
X0040954Y0056327D01*
X0041516Y0056416D01*
X0041516Y0049484D01*
X0041516Y0049949D02*
X0042484Y0049949D01*
X0042484Y0050948D02*
X0041516Y0050948D01*
X0041516Y0051946D02*
X0042484Y0051946D01*
X0042484Y0052945D02*
X0041516Y0052945D01*
X0041516Y0053943D02*
X0042484Y0053943D01*
X0042484Y0054942D02*
X0041516Y0054942D01*
X0041516Y0055940D02*
X0042484Y0055940D01*
X0039953Y0055940D02*
X0015000Y0055940D01*
X0015000Y0054942D02*
X0018394Y0054942D01*
X0016938Y0053943D02*
X0015000Y0053943D01*
X0015000Y0052945D02*
X0016217Y0052945D01*
X0015803Y0051946D02*
X0015000Y0051946D01*
X0015000Y0050948D02*
X0015763Y0050948D01*
X0015846Y0049949D02*
X0015000Y0049949D01*
X0015000Y0048951D02*
X0016260Y0048951D01*
X0017043Y0047952D02*
X0015000Y0047952D01*
X0015000Y0046954D02*
X0018646Y0046954D01*
X0029047Y0043958D02*
X0038041Y0043958D01*
X0038752Y0042960D02*
X0029777Y0042960D01*
X0030154Y0049949D02*
X0037531Y0049949D01*
X0037531Y0050948D02*
X0030237Y0050948D01*
X0030197Y0051946D02*
X0037531Y0051946D01*
X0037630Y0052945D02*
X0029783Y0052945D01*
X0029062Y0053943D02*
X0037991Y0053943D01*
X0038654Y0054942D02*
X0027606Y0054942D01*
X0015000Y0056939D02*
X0098500Y0056939D01*
X0098500Y0057000D02*
X0098500Y0015000D01*
X0015000Y0015000D01*
X0015000Y0057000D01*
X0098500Y0057000D01*
X0098500Y0053943D02*
X0097344Y0053943D01*
X0097993Y0052945D02*
X0098500Y0052945D01*
X0098500Y0051946D02*
X0098343Y0051946D01*
X0086430Y0044957D02*
X0076175Y0044957D01*
X0075761Y0043958D02*
X0084953Y0043958D01*
X0085028Y0037967D02*
X0059500Y0037967D01*
X0059500Y0036969D02*
X0086610Y0036969D01*
X0086466Y0034972D02*
X0059500Y0034972D01*
X0059500Y0033973D02*
X0084968Y0033973D01*
X0084229Y0032975D02*
X0059500Y0032975D01*
X0059559Y0031976D02*
X0083816Y0031976D01*
X0083763Y0030978D02*
X0060558Y0030978D01*
X0063472Y0029979D02*
X0070029Y0029979D01*
X0070285Y0030110D02*
X0069658Y0029790D01*
X0069089Y0029377D01*
X0068592Y0028880D01*
X0068178Y0028311D01*
X0067859Y0027684D01*
X0067642Y0027015D01*
X0067531Y0026320D01*
X0067531Y0023484D01*
X0071516Y0023484D01*
X0071516Y0030416D01*
X0070954Y0030327D01*
X0070285Y0030110D01*
X0071516Y0029979D02*
X0072484Y0029979D01*
X0072484Y0028981D02*
X0071516Y0028981D01*
X0071516Y0027982D02*
X0072484Y0027982D01*
X0072484Y0026984D02*
X0071516Y0026984D01*
X0071516Y0025985D02*
X0072484Y0025985D01*
X0072484Y0024987D02*
X0071516Y0024987D01*
X0071516Y0023988D02*
X0072484Y0023988D01*
X0071516Y0022990D02*
X0066268Y0022990D01*
X0066268Y0021991D02*
X0067531Y0021991D01*
X0067531Y0020993D02*
X0066268Y0020993D01*
X0066268Y0019994D02*
X0067531Y0019994D01*
X0067640Y0018996D02*
X0066191Y0018996D01*
X0065777Y0017997D02*
X0068021Y0017997D01*
X0068714Y0016999D02*
X0065004Y0016999D01*
X0073930Y0016000D02*
X0098500Y0016000D01*
X0098500Y0016999D02*
X0095462Y0016999D01*
X0097002Y0017997D02*
X0098500Y0017997D01*
X0098500Y0018996D02*
X0097758Y0018996D01*
X0098172Y0019994D02*
X0098500Y0019994D01*
X0098500Y0020993D02*
X0098237Y0020993D01*
X0098178Y0021991D02*
X0098500Y0021991D01*
X0098500Y0022990D02*
X0097765Y0022990D01*
X0098500Y0023988D02*
X0097017Y0023988D01*
X0098500Y0024987D02*
X0095498Y0024987D01*
X0085013Y0027982D02*
X0075989Y0027982D01*
X0075307Y0028981D02*
X0084248Y0028981D01*
X0083834Y0029979D02*
X0073971Y0029979D01*
X0068693Y0028981D02*
X0065024Y0028981D01*
X0065786Y0027982D02*
X0068011Y0027982D01*
X0067637Y0026984D02*
X0066200Y0026984D01*
X0066268Y0025985D02*
X0067531Y0025985D01*
X0067531Y0024987D02*
X0066268Y0024987D01*
X0066268Y0023988D02*
X0067531Y0023988D01*
X0076360Y0018996D02*
X0084242Y0018996D01*
X0083828Y0019994D02*
X0076468Y0019994D01*
X0076468Y0020993D02*
X0083763Y0020993D01*
X0083822Y0021991D02*
X0076468Y0021991D01*
X0075978Y0017997D02*
X0084998Y0017997D01*
X0086538Y0016999D02*
X0075286Y0016999D01*
X0098500Y0015001D02*
X0015000Y0015001D01*
X0022516Y0016999D02*
X0023484Y0016999D01*
X0023484Y0017997D02*
X0022516Y0017997D01*
X0022516Y0018996D02*
X0023484Y0018996D01*
X0023484Y0019994D02*
X0022516Y0019994D01*
X0022516Y0021484D02*
X0015584Y0021484D01*
X0015673Y0022046D01*
X0015890Y0022715D01*
X0016210Y0023342D01*
X0016623Y0023911D01*
X0017120Y0024408D01*
X0017689Y0024822D01*
X0018316Y0025141D01*
X0018985Y0025358D01*
X0019680Y0025468D01*
X0022516Y0025468D01*
X0022516Y0021484D01*
X0022516Y0021991D02*
X0023484Y0021991D01*
X0023484Y0022990D02*
X0022516Y0022990D01*
X0022516Y0023988D02*
X0023484Y0023988D01*
X0023484Y0024987D02*
X0022516Y0024987D01*
X0018574Y0026984D02*
X0015000Y0026984D01*
X0015000Y0027982D02*
X0017013Y0027982D01*
X0016248Y0028981D02*
X0015000Y0028981D01*
X0015000Y0029979D02*
X0015834Y0029979D01*
X0015763Y0030978D02*
X0015000Y0030978D01*
X0015000Y0031976D02*
X0015816Y0031976D01*
X0016229Y0032975D02*
X0015000Y0032975D01*
X0015000Y0033973D02*
X0016968Y0033973D01*
X0027426Y0026984D02*
X0037800Y0026984D01*
X0037731Y0025985D02*
X0015000Y0025985D01*
X0015000Y0024987D02*
X0018013Y0024987D01*
X0016700Y0023988D02*
X0015000Y0023988D01*
X0015000Y0022990D02*
X0016030Y0022990D01*
X0015664Y0021991D02*
X0015000Y0021991D01*
X0027987Y0024987D02*
X0037731Y0024987D01*
X0037731Y0023988D02*
X0029300Y0023988D01*
X0028987Y0027982D02*
X0038214Y0027982D01*
X0037731Y0019994D02*
X0030333Y0019994D01*
X0029962Y0018996D02*
X0037809Y0018996D01*
X0038223Y0017997D02*
X0029285Y0017997D01*
X0027958Y0016999D02*
X0038996Y0016999D01*
X0059600Y0035970D02*
X0098500Y0035970D01*
X0050672Y0041961D02*
X0043855Y0041961D01*
X0045248Y0042960D02*
X0049035Y0042960D01*
X0048239Y0043958D02*
X0045959Y0043958D01*
X0046349Y0044957D02*
X0047825Y0044957D01*
X0047731Y0045955D02*
X0046468Y0045955D01*
X0046468Y0046954D02*
X0047731Y0046954D01*
X0047731Y0047952D02*
X0046468Y0047952D01*
M02*
