G75*
%MOIN*%
%OFA0B0*%
%FSLAX25Y25*%
%IPPOS*%
%LPD*%
%AMOC8*
5,1,8,0,0,1.08239X$1,22.5*
%
%ADD10C,0.00600*%
%ADD11C,0.02200*%
%ADD12C,0.00500*%
D10*
X0019138Y0018819D02*
X0019138Y0021181D01*
X0023862Y0021181D02*
X0023862Y0018819D01*
X0025138Y0018819D02*
X0025138Y0021181D01*
X0029862Y0021181D02*
X0029862Y0018819D01*
X0029862Y0030819D02*
X0029862Y0033181D01*
X0025138Y0033181D02*
X0025138Y0030819D01*
X0023862Y0030819D02*
X0023862Y0033181D01*
X0019138Y0033181D02*
X0019138Y0030819D01*
X0019138Y0051819D02*
X0019138Y0054181D01*
X0023862Y0054181D02*
X0023862Y0051819D01*
X0025138Y0051819D02*
X0025138Y0054181D01*
X0029862Y0054181D02*
X0029862Y0051819D01*
X0029862Y0063819D02*
X0029862Y0066181D01*
X0025138Y0066181D02*
X0025138Y0063819D01*
X0023862Y0063819D02*
X0023862Y0066181D01*
X0019138Y0066181D02*
X0019138Y0063819D01*
X0049819Y0051862D02*
X0052181Y0051862D01*
X0052181Y0047138D02*
X0049819Y0047138D01*
X0061319Y0047138D02*
X0063681Y0047138D01*
X0063681Y0051862D02*
X0061319Y0051862D01*
X0074819Y0034862D02*
X0077181Y0034862D01*
X0077181Y0030138D02*
X0074819Y0030138D01*
X0063281Y0018862D02*
X0060919Y0018862D01*
X0060919Y0014138D02*
X0063281Y0014138D01*
X0051281Y0014138D02*
X0048919Y0014138D01*
X0048919Y0018862D02*
X0051281Y0018862D01*
X0087295Y0035735D02*
X0088965Y0037405D01*
X0092305Y0034065D02*
X0090635Y0032395D01*
X0095638Y0043319D02*
X0095638Y0045681D01*
X0100362Y0045681D02*
X0100362Y0043319D01*
X0097462Y0055519D02*
X0097462Y0057881D01*
X0092738Y0057881D02*
X0092738Y0055519D01*
X0100319Y0076138D02*
X0102681Y0076138D01*
X0102681Y0080862D02*
X0100319Y0080862D01*
X0100319Y0082138D02*
X0102681Y0082138D01*
X0102681Y0086862D02*
X0100319Y0086862D01*
X0112319Y0086862D02*
X0114681Y0086862D01*
X0114681Y0082138D02*
X0112319Y0082138D01*
X0112319Y0080862D02*
X0114681Y0080862D01*
X0114681Y0076138D02*
X0112319Y0076138D01*
X0126038Y0057681D02*
X0126038Y0055319D01*
X0130762Y0055319D02*
X0130762Y0057681D01*
X0128638Y0045681D02*
X0128638Y0043319D01*
X0133362Y0043319D02*
X0133362Y0045681D01*
X0135819Y0035362D02*
X0138181Y0035362D01*
X0138181Y0030638D02*
X0135819Y0030638D01*
X0115081Y0030038D02*
X0112719Y0030038D01*
X0112719Y0034762D02*
X0115081Y0034762D01*
X0133319Y0076138D02*
X0135681Y0076138D01*
X0135681Y0080862D02*
X0133319Y0080862D01*
X0133319Y0082138D02*
X0135681Y0082138D01*
X0135681Y0086862D02*
X0133319Y0086862D01*
X0145319Y0086862D02*
X0147681Y0086862D01*
X0147681Y0082138D02*
X0145319Y0082138D01*
X0145319Y0080862D02*
X0147681Y0080862D01*
X0147681Y0076138D02*
X0145319Y0076138D01*
X0146819Y0093138D02*
X0149181Y0093138D01*
X0149181Y0097862D02*
X0146819Y0097862D01*
X0139562Y0115719D02*
X0139562Y0118081D01*
X0134838Y0118081D02*
X0134838Y0115719D01*
X0133862Y0115719D02*
X0133862Y0118081D01*
X0129138Y0118081D02*
X0129138Y0115719D01*
X0129862Y0103181D02*
X0129862Y0100819D01*
X0125138Y0100819D02*
X0125138Y0103181D01*
X0123862Y0103181D02*
X0123862Y0100819D01*
X0119138Y0100819D02*
X0119138Y0103181D01*
X0116681Y0116138D02*
X0114319Y0116138D01*
X0114319Y0120862D02*
X0116681Y0120862D01*
X0116681Y0121638D02*
X0114319Y0121638D01*
X0114319Y0126362D02*
X0116681Y0126362D01*
D11*
X0115500Y0124120D02*
X0115500Y0123880D01*
X0115500Y0118620D02*
X0115500Y0118380D01*
X0121380Y0102000D02*
X0121620Y0102000D01*
X0127380Y0102000D02*
X0127620Y0102000D01*
X0131380Y0116900D02*
X0131620Y0116900D01*
X0137080Y0116900D02*
X0137320Y0116900D01*
X0148000Y0095620D02*
X0148000Y0095380D01*
X0146500Y0084620D02*
X0146500Y0084380D01*
X0146500Y0078620D02*
X0146500Y0078380D01*
X0134500Y0078380D02*
X0134500Y0078620D01*
X0134500Y0084380D02*
X0134500Y0084620D01*
X0113500Y0084620D02*
X0113500Y0084380D01*
X0113500Y0078620D02*
X0113500Y0078380D01*
X0101500Y0078380D02*
X0101500Y0078620D01*
X0101500Y0084380D02*
X0101500Y0084620D01*
X0098120Y0044500D02*
X0097880Y0044500D01*
X0089715Y0034985D02*
X0089885Y0034815D01*
X0076000Y0032620D02*
X0076000Y0032380D01*
X0062100Y0016620D02*
X0062100Y0016380D01*
X0062500Y0049380D02*
X0062500Y0049620D01*
X0027620Y0053000D02*
X0027380Y0053000D01*
X0021620Y0053000D02*
X0021380Y0053000D01*
X0021380Y0065000D02*
X0021620Y0065000D01*
X0027380Y0065000D02*
X0027620Y0065000D01*
X0027620Y0032000D02*
X0027380Y0032000D01*
X0021620Y0032000D02*
X0021380Y0032000D01*
X0021380Y0020000D02*
X0021620Y0020000D01*
X0027380Y0020000D02*
X0027620Y0020000D01*
X0113900Y0032280D02*
X0113900Y0032520D01*
X0130880Y0044500D02*
X0131120Y0044500D01*
X0137000Y0033120D02*
X0137000Y0032880D01*
D12*
X0136000Y0054000D02*
X0155000Y0054000D01*
X0155000Y0068500D01*
X0136000Y0068500D01*
X0138000Y0065750D02*
X0138002Y0065804D01*
X0138008Y0065858D01*
X0138018Y0065911D01*
X0138031Y0065964D01*
X0138048Y0066015D01*
X0138069Y0066065D01*
X0138094Y0066113D01*
X0138122Y0066160D01*
X0138153Y0066204D01*
X0138187Y0066246D01*
X0138224Y0066285D01*
X0138264Y0066322D01*
X0138307Y0066355D01*
X0138352Y0066386D01*
X0138399Y0066413D01*
X0138447Y0066436D01*
X0138498Y0066456D01*
X0138549Y0066473D01*
X0138602Y0066485D01*
X0138655Y0066494D01*
X0138709Y0066499D01*
X0138764Y0066500D01*
X0138818Y0066497D01*
X0138871Y0066490D01*
X0138924Y0066479D01*
X0138977Y0066465D01*
X0139028Y0066447D01*
X0139077Y0066425D01*
X0139125Y0066400D01*
X0139171Y0066371D01*
X0139215Y0066339D01*
X0139256Y0066304D01*
X0139294Y0066266D01*
X0139330Y0066225D01*
X0139363Y0066182D01*
X0139393Y0066137D01*
X0139419Y0066089D01*
X0139442Y0066040D01*
X0139461Y0065989D01*
X0139476Y0065938D01*
X0139488Y0065885D01*
X0139496Y0065831D01*
X0139500Y0065777D01*
X0139500Y0065723D01*
X0139496Y0065669D01*
X0139488Y0065615D01*
X0139476Y0065562D01*
X0139461Y0065511D01*
X0139442Y0065460D01*
X0139419Y0065411D01*
X0139393Y0065363D01*
X0139363Y0065318D01*
X0139330Y0065275D01*
X0139294Y0065234D01*
X0139256Y0065196D01*
X0139215Y0065161D01*
X0139171Y0065129D01*
X0139125Y0065100D01*
X0139077Y0065075D01*
X0139028Y0065053D01*
X0138977Y0065035D01*
X0138924Y0065021D01*
X0138871Y0065010D01*
X0138818Y0065003D01*
X0138764Y0065000D01*
X0138709Y0065001D01*
X0138655Y0065006D01*
X0138602Y0065015D01*
X0138549Y0065027D01*
X0138498Y0065044D01*
X0138447Y0065064D01*
X0138399Y0065087D01*
X0138352Y0065114D01*
X0138307Y0065145D01*
X0138264Y0065178D01*
X0138224Y0065215D01*
X0138187Y0065254D01*
X0138153Y0065296D01*
X0138122Y0065340D01*
X0138094Y0065387D01*
X0138069Y0065435D01*
X0138048Y0065485D01*
X0138031Y0065536D01*
X0138018Y0065589D01*
X0138008Y0065642D01*
X0138002Y0065696D01*
X0138000Y0065750D01*
X0122000Y0068500D02*
X0122000Y0054000D01*
X0103000Y0054000D01*
X0105000Y0065750D02*
X0105002Y0065804D01*
X0105008Y0065858D01*
X0105018Y0065911D01*
X0105031Y0065964D01*
X0105048Y0066015D01*
X0105069Y0066065D01*
X0105094Y0066113D01*
X0105122Y0066160D01*
X0105153Y0066204D01*
X0105187Y0066246D01*
X0105224Y0066285D01*
X0105264Y0066322D01*
X0105307Y0066355D01*
X0105352Y0066386D01*
X0105399Y0066413D01*
X0105447Y0066436D01*
X0105498Y0066456D01*
X0105549Y0066473D01*
X0105602Y0066485D01*
X0105655Y0066494D01*
X0105709Y0066499D01*
X0105764Y0066500D01*
X0105818Y0066497D01*
X0105871Y0066490D01*
X0105924Y0066479D01*
X0105977Y0066465D01*
X0106028Y0066447D01*
X0106077Y0066425D01*
X0106125Y0066400D01*
X0106171Y0066371D01*
X0106215Y0066339D01*
X0106256Y0066304D01*
X0106294Y0066266D01*
X0106330Y0066225D01*
X0106363Y0066182D01*
X0106393Y0066137D01*
X0106419Y0066089D01*
X0106442Y0066040D01*
X0106461Y0065989D01*
X0106476Y0065938D01*
X0106488Y0065885D01*
X0106496Y0065831D01*
X0106500Y0065777D01*
X0106500Y0065723D01*
X0106496Y0065669D01*
X0106488Y0065615D01*
X0106476Y0065562D01*
X0106461Y0065511D01*
X0106442Y0065460D01*
X0106419Y0065411D01*
X0106393Y0065363D01*
X0106363Y0065318D01*
X0106330Y0065275D01*
X0106294Y0065234D01*
X0106256Y0065196D01*
X0106215Y0065161D01*
X0106171Y0065129D01*
X0106125Y0065100D01*
X0106077Y0065075D01*
X0106028Y0065053D01*
X0105977Y0065035D01*
X0105924Y0065021D01*
X0105871Y0065010D01*
X0105818Y0065003D01*
X0105764Y0065000D01*
X0105709Y0065001D01*
X0105655Y0065006D01*
X0105602Y0065015D01*
X0105549Y0065027D01*
X0105498Y0065044D01*
X0105447Y0065064D01*
X0105399Y0065087D01*
X0105352Y0065114D01*
X0105307Y0065145D01*
X0105264Y0065178D01*
X0105224Y0065215D01*
X0105187Y0065254D01*
X0105153Y0065296D01*
X0105122Y0065340D01*
X0105094Y0065387D01*
X0105069Y0065435D01*
X0105048Y0065485D01*
X0105031Y0065536D01*
X0105018Y0065589D01*
X0105008Y0065642D01*
X0105002Y0065696D01*
X0105000Y0065750D01*
X0103000Y0068500D02*
X0122000Y0068500D01*
X0052000Y0073500D02*
X0052000Y0054500D01*
X0039500Y0057250D02*
X0039502Y0057304D01*
X0039508Y0057358D01*
X0039518Y0057411D01*
X0039531Y0057464D01*
X0039548Y0057515D01*
X0039569Y0057565D01*
X0039594Y0057613D01*
X0039622Y0057660D01*
X0039653Y0057704D01*
X0039687Y0057746D01*
X0039724Y0057785D01*
X0039764Y0057822D01*
X0039807Y0057855D01*
X0039852Y0057886D01*
X0039899Y0057913D01*
X0039947Y0057936D01*
X0039998Y0057956D01*
X0040049Y0057973D01*
X0040102Y0057985D01*
X0040155Y0057994D01*
X0040209Y0057999D01*
X0040264Y0058000D01*
X0040318Y0057997D01*
X0040371Y0057990D01*
X0040424Y0057979D01*
X0040477Y0057965D01*
X0040528Y0057947D01*
X0040577Y0057925D01*
X0040625Y0057900D01*
X0040671Y0057871D01*
X0040715Y0057839D01*
X0040756Y0057804D01*
X0040794Y0057766D01*
X0040830Y0057725D01*
X0040863Y0057682D01*
X0040893Y0057637D01*
X0040919Y0057589D01*
X0040942Y0057540D01*
X0040961Y0057489D01*
X0040976Y0057438D01*
X0040988Y0057385D01*
X0040996Y0057331D01*
X0041000Y0057277D01*
X0041000Y0057223D01*
X0040996Y0057169D01*
X0040988Y0057115D01*
X0040976Y0057062D01*
X0040961Y0057011D01*
X0040942Y0056960D01*
X0040919Y0056911D01*
X0040893Y0056863D01*
X0040863Y0056818D01*
X0040830Y0056775D01*
X0040794Y0056734D01*
X0040756Y0056696D01*
X0040715Y0056661D01*
X0040671Y0056629D01*
X0040625Y0056600D01*
X0040577Y0056575D01*
X0040528Y0056553D01*
X0040477Y0056535D01*
X0040424Y0056521D01*
X0040371Y0056510D01*
X0040318Y0056503D01*
X0040264Y0056500D01*
X0040209Y0056501D01*
X0040155Y0056506D01*
X0040102Y0056515D01*
X0040049Y0056527D01*
X0039998Y0056544D01*
X0039947Y0056564D01*
X0039899Y0056587D01*
X0039852Y0056614D01*
X0039807Y0056645D01*
X0039764Y0056678D01*
X0039724Y0056715D01*
X0039687Y0056754D01*
X0039653Y0056796D01*
X0039622Y0056840D01*
X0039594Y0056887D01*
X0039569Y0056935D01*
X0039548Y0056985D01*
X0039531Y0057036D01*
X0039518Y0057089D01*
X0039508Y0057142D01*
X0039502Y0057196D01*
X0039500Y0057250D01*
X0037500Y0054500D02*
X0037500Y0073500D01*
X0052000Y0073500D01*
X0052000Y0040500D02*
X0037500Y0040500D01*
X0037500Y0021500D01*
X0039500Y0024250D02*
X0039502Y0024304D01*
X0039508Y0024358D01*
X0039518Y0024411D01*
X0039531Y0024464D01*
X0039548Y0024515D01*
X0039569Y0024565D01*
X0039594Y0024613D01*
X0039622Y0024660D01*
X0039653Y0024704D01*
X0039687Y0024746D01*
X0039724Y0024785D01*
X0039764Y0024822D01*
X0039807Y0024855D01*
X0039852Y0024886D01*
X0039899Y0024913D01*
X0039947Y0024936D01*
X0039998Y0024956D01*
X0040049Y0024973D01*
X0040102Y0024985D01*
X0040155Y0024994D01*
X0040209Y0024999D01*
X0040264Y0025000D01*
X0040318Y0024997D01*
X0040371Y0024990D01*
X0040424Y0024979D01*
X0040477Y0024965D01*
X0040528Y0024947D01*
X0040577Y0024925D01*
X0040625Y0024900D01*
X0040671Y0024871D01*
X0040715Y0024839D01*
X0040756Y0024804D01*
X0040794Y0024766D01*
X0040830Y0024725D01*
X0040863Y0024682D01*
X0040893Y0024637D01*
X0040919Y0024589D01*
X0040942Y0024540D01*
X0040961Y0024489D01*
X0040976Y0024438D01*
X0040988Y0024385D01*
X0040996Y0024331D01*
X0041000Y0024277D01*
X0041000Y0024223D01*
X0040996Y0024169D01*
X0040988Y0024115D01*
X0040976Y0024062D01*
X0040961Y0024011D01*
X0040942Y0023960D01*
X0040919Y0023911D01*
X0040893Y0023863D01*
X0040863Y0023818D01*
X0040830Y0023775D01*
X0040794Y0023734D01*
X0040756Y0023696D01*
X0040715Y0023661D01*
X0040671Y0023629D01*
X0040625Y0023600D01*
X0040577Y0023575D01*
X0040528Y0023553D01*
X0040477Y0023535D01*
X0040424Y0023521D01*
X0040371Y0023510D01*
X0040318Y0023503D01*
X0040264Y0023500D01*
X0040209Y0023501D01*
X0040155Y0023506D01*
X0040102Y0023515D01*
X0040049Y0023527D01*
X0039998Y0023544D01*
X0039947Y0023564D01*
X0039899Y0023587D01*
X0039852Y0023614D01*
X0039807Y0023645D01*
X0039764Y0023678D01*
X0039724Y0023715D01*
X0039687Y0023754D01*
X0039653Y0023796D01*
X0039622Y0023840D01*
X0039594Y0023887D01*
X0039569Y0023935D01*
X0039548Y0023985D01*
X0039531Y0024036D01*
X0039518Y0024089D01*
X0039508Y0024142D01*
X0039502Y0024196D01*
X0039500Y0024250D01*
X0052000Y0021500D02*
X0052000Y0040500D01*
M02*
