G75*
%MOIN*%
%OFA0B0*%
%FSLAX25Y25*%
%IPPOS*%
%LPD*%
%AMOC8*
5,1,8,0,0,1.08239X$1,22.5*
%
%ADD10C,0.00000*%
%ADD11R,0.07874X0.07874*%
%ADD12C,0.05900*%
%ADD13R,0.05900X0.05900*%
%ADD14C,0.05937*%
%ADD15R,0.02000X0.05800*%
%ADD16R,0.05800X0.02000*%
%ADD17R,0.30000X0.07100*%
%ADD18R,0.07100X0.30000*%
%ADD19R,0.03150X0.04724*%
%ADD20R,0.04724X0.03150*%
%ADD21R,0.03937X0.11614*%
%ADD22R,0.04724X0.04724*%
%ADD23R,0.03268X0.02480*%
%ADD24C,0.20000*%
%ADD25C,0.01000*%
%ADD26C,0.02400*%
%ADD27C,0.02600*%
%ADD28C,0.06600*%
%ADD29C,0.01600*%
%ADD30C,0.05000*%
%ADD31C,0.02000*%
D10*
X0012500Y0010000D02*
X0012500Y0131000D01*
X0159900Y0131000D01*
X0159900Y0010000D01*
X0012500Y0010000D01*
X0016250Y0084300D02*
X0016252Y0084422D01*
X0016258Y0084544D01*
X0016268Y0084666D01*
X0016282Y0084787D01*
X0016300Y0084908D01*
X0016321Y0085028D01*
X0016347Y0085147D01*
X0016376Y0085266D01*
X0016410Y0085383D01*
X0016447Y0085499D01*
X0016488Y0085614D01*
X0016533Y0085728D01*
X0016581Y0085840D01*
X0016633Y0085951D01*
X0016688Y0086059D01*
X0016747Y0086166D01*
X0016810Y0086271D01*
X0016876Y0086374D01*
X0016945Y0086474D01*
X0017017Y0086573D01*
X0017093Y0086669D01*
X0017171Y0086762D01*
X0017253Y0086853D01*
X0017338Y0086941D01*
X0017425Y0087026D01*
X0017515Y0087108D01*
X0017608Y0087188D01*
X0017703Y0087264D01*
X0017801Y0087337D01*
X0017901Y0087407D01*
X0018003Y0087474D01*
X0018107Y0087537D01*
X0018214Y0087597D01*
X0018322Y0087654D01*
X0018432Y0087706D01*
X0018544Y0087756D01*
X0018657Y0087801D01*
X0018772Y0087843D01*
X0018888Y0087881D01*
X0019005Y0087916D01*
X0019123Y0087946D01*
X0019242Y0087973D01*
X0019362Y0087995D01*
X0019483Y0088014D01*
X0019604Y0088029D01*
X0019726Y0088040D01*
X0019847Y0088047D01*
X0019969Y0088050D01*
X0020092Y0088049D01*
X0020214Y0088044D01*
X0020335Y0088035D01*
X0020457Y0088022D01*
X0020578Y0088005D01*
X0020698Y0087984D01*
X0020817Y0087960D01*
X0020936Y0087931D01*
X0021054Y0087899D01*
X0021170Y0087863D01*
X0021286Y0087823D01*
X0021400Y0087779D01*
X0021512Y0087732D01*
X0021623Y0087681D01*
X0021732Y0087626D01*
X0021840Y0087568D01*
X0021945Y0087506D01*
X0022048Y0087441D01*
X0022150Y0087373D01*
X0022248Y0087301D01*
X0022345Y0087226D01*
X0022439Y0087149D01*
X0022530Y0087068D01*
X0022619Y0086984D01*
X0022705Y0086897D01*
X0022788Y0086808D01*
X0022868Y0086716D01*
X0022945Y0086621D01*
X0023019Y0086524D01*
X0023090Y0086424D01*
X0023158Y0086323D01*
X0023222Y0086219D01*
X0023283Y0086113D01*
X0023340Y0086005D01*
X0023394Y0085896D01*
X0023444Y0085784D01*
X0023490Y0085671D01*
X0023533Y0085557D01*
X0023572Y0085441D01*
X0023607Y0085325D01*
X0023639Y0085207D01*
X0023666Y0085088D01*
X0023690Y0084968D01*
X0023710Y0084847D01*
X0023726Y0084726D01*
X0023738Y0084605D01*
X0023746Y0084483D01*
X0023750Y0084361D01*
X0023750Y0084239D01*
X0023746Y0084117D01*
X0023738Y0083995D01*
X0023726Y0083874D01*
X0023710Y0083753D01*
X0023690Y0083632D01*
X0023666Y0083512D01*
X0023639Y0083393D01*
X0023607Y0083275D01*
X0023572Y0083159D01*
X0023533Y0083043D01*
X0023490Y0082929D01*
X0023444Y0082816D01*
X0023394Y0082704D01*
X0023340Y0082595D01*
X0023283Y0082487D01*
X0023222Y0082381D01*
X0023158Y0082277D01*
X0023090Y0082176D01*
X0023019Y0082076D01*
X0022945Y0081979D01*
X0022868Y0081884D01*
X0022788Y0081792D01*
X0022705Y0081703D01*
X0022619Y0081616D01*
X0022530Y0081532D01*
X0022439Y0081451D01*
X0022345Y0081374D01*
X0022248Y0081299D01*
X0022150Y0081227D01*
X0022048Y0081159D01*
X0021945Y0081094D01*
X0021840Y0081032D01*
X0021732Y0080974D01*
X0021623Y0080919D01*
X0021512Y0080868D01*
X0021400Y0080821D01*
X0021286Y0080777D01*
X0021170Y0080737D01*
X0021054Y0080701D01*
X0020936Y0080669D01*
X0020817Y0080640D01*
X0020698Y0080616D01*
X0020578Y0080595D01*
X0020457Y0080578D01*
X0020335Y0080565D01*
X0020214Y0080556D01*
X0020092Y0080551D01*
X0019969Y0080550D01*
X0019847Y0080553D01*
X0019726Y0080560D01*
X0019604Y0080571D01*
X0019483Y0080586D01*
X0019362Y0080605D01*
X0019242Y0080627D01*
X0019123Y0080654D01*
X0019005Y0080684D01*
X0018888Y0080719D01*
X0018772Y0080757D01*
X0018657Y0080799D01*
X0018544Y0080844D01*
X0018432Y0080894D01*
X0018322Y0080946D01*
X0018214Y0081003D01*
X0018107Y0081063D01*
X0018003Y0081126D01*
X0017901Y0081193D01*
X0017801Y0081263D01*
X0017703Y0081336D01*
X0017608Y0081412D01*
X0017515Y0081492D01*
X0017425Y0081574D01*
X0017338Y0081659D01*
X0017253Y0081747D01*
X0017171Y0081838D01*
X0017093Y0081931D01*
X0017017Y0082027D01*
X0016945Y0082126D01*
X0016876Y0082226D01*
X0016810Y0082329D01*
X0016747Y0082434D01*
X0016688Y0082541D01*
X0016633Y0082649D01*
X0016581Y0082760D01*
X0016533Y0082872D01*
X0016488Y0082986D01*
X0016447Y0083101D01*
X0016410Y0083217D01*
X0016376Y0083334D01*
X0016347Y0083453D01*
X0016321Y0083572D01*
X0016300Y0083692D01*
X0016282Y0083813D01*
X0016268Y0083934D01*
X0016258Y0084056D01*
X0016252Y0084178D01*
X0016250Y0084300D01*
X0087250Y0123000D02*
X0087252Y0123122D01*
X0087258Y0123244D01*
X0087268Y0123366D01*
X0087282Y0123487D01*
X0087300Y0123608D01*
X0087321Y0123728D01*
X0087347Y0123847D01*
X0087376Y0123966D01*
X0087410Y0124083D01*
X0087447Y0124199D01*
X0087488Y0124314D01*
X0087533Y0124428D01*
X0087581Y0124540D01*
X0087633Y0124651D01*
X0087688Y0124759D01*
X0087747Y0124866D01*
X0087810Y0124971D01*
X0087876Y0125074D01*
X0087945Y0125174D01*
X0088017Y0125273D01*
X0088093Y0125369D01*
X0088171Y0125462D01*
X0088253Y0125553D01*
X0088338Y0125641D01*
X0088425Y0125726D01*
X0088515Y0125808D01*
X0088608Y0125888D01*
X0088703Y0125964D01*
X0088801Y0126037D01*
X0088901Y0126107D01*
X0089003Y0126174D01*
X0089107Y0126237D01*
X0089214Y0126297D01*
X0089322Y0126354D01*
X0089432Y0126406D01*
X0089544Y0126456D01*
X0089657Y0126501D01*
X0089772Y0126543D01*
X0089888Y0126581D01*
X0090005Y0126616D01*
X0090123Y0126646D01*
X0090242Y0126673D01*
X0090362Y0126695D01*
X0090483Y0126714D01*
X0090604Y0126729D01*
X0090726Y0126740D01*
X0090847Y0126747D01*
X0090969Y0126750D01*
X0091092Y0126749D01*
X0091214Y0126744D01*
X0091335Y0126735D01*
X0091457Y0126722D01*
X0091578Y0126705D01*
X0091698Y0126684D01*
X0091817Y0126660D01*
X0091936Y0126631D01*
X0092054Y0126599D01*
X0092170Y0126563D01*
X0092286Y0126523D01*
X0092400Y0126479D01*
X0092512Y0126432D01*
X0092623Y0126381D01*
X0092732Y0126326D01*
X0092840Y0126268D01*
X0092945Y0126206D01*
X0093048Y0126141D01*
X0093150Y0126073D01*
X0093248Y0126001D01*
X0093345Y0125926D01*
X0093439Y0125849D01*
X0093530Y0125768D01*
X0093619Y0125684D01*
X0093705Y0125597D01*
X0093788Y0125508D01*
X0093868Y0125416D01*
X0093945Y0125321D01*
X0094019Y0125224D01*
X0094090Y0125124D01*
X0094158Y0125023D01*
X0094222Y0124919D01*
X0094283Y0124813D01*
X0094340Y0124705D01*
X0094394Y0124596D01*
X0094444Y0124484D01*
X0094490Y0124371D01*
X0094533Y0124257D01*
X0094572Y0124141D01*
X0094607Y0124025D01*
X0094639Y0123907D01*
X0094666Y0123788D01*
X0094690Y0123668D01*
X0094710Y0123547D01*
X0094726Y0123426D01*
X0094738Y0123305D01*
X0094746Y0123183D01*
X0094750Y0123061D01*
X0094750Y0122939D01*
X0094746Y0122817D01*
X0094738Y0122695D01*
X0094726Y0122574D01*
X0094710Y0122453D01*
X0094690Y0122332D01*
X0094666Y0122212D01*
X0094639Y0122093D01*
X0094607Y0121975D01*
X0094572Y0121859D01*
X0094533Y0121743D01*
X0094490Y0121629D01*
X0094444Y0121516D01*
X0094394Y0121404D01*
X0094340Y0121295D01*
X0094283Y0121187D01*
X0094222Y0121081D01*
X0094158Y0120977D01*
X0094090Y0120876D01*
X0094019Y0120776D01*
X0093945Y0120679D01*
X0093868Y0120584D01*
X0093788Y0120492D01*
X0093705Y0120403D01*
X0093619Y0120316D01*
X0093530Y0120232D01*
X0093439Y0120151D01*
X0093345Y0120074D01*
X0093248Y0119999D01*
X0093150Y0119927D01*
X0093048Y0119859D01*
X0092945Y0119794D01*
X0092840Y0119732D01*
X0092732Y0119674D01*
X0092623Y0119619D01*
X0092512Y0119568D01*
X0092400Y0119521D01*
X0092286Y0119477D01*
X0092170Y0119437D01*
X0092054Y0119401D01*
X0091936Y0119369D01*
X0091817Y0119340D01*
X0091698Y0119316D01*
X0091578Y0119295D01*
X0091457Y0119278D01*
X0091335Y0119265D01*
X0091214Y0119256D01*
X0091092Y0119251D01*
X0090969Y0119250D01*
X0090847Y0119253D01*
X0090726Y0119260D01*
X0090604Y0119271D01*
X0090483Y0119286D01*
X0090362Y0119305D01*
X0090242Y0119327D01*
X0090123Y0119354D01*
X0090005Y0119384D01*
X0089888Y0119419D01*
X0089772Y0119457D01*
X0089657Y0119499D01*
X0089544Y0119544D01*
X0089432Y0119594D01*
X0089322Y0119646D01*
X0089214Y0119703D01*
X0089107Y0119763D01*
X0089003Y0119826D01*
X0088901Y0119893D01*
X0088801Y0119963D01*
X0088703Y0120036D01*
X0088608Y0120112D01*
X0088515Y0120192D01*
X0088425Y0120274D01*
X0088338Y0120359D01*
X0088253Y0120447D01*
X0088171Y0120538D01*
X0088093Y0120631D01*
X0088017Y0120727D01*
X0087945Y0120826D01*
X0087876Y0120926D01*
X0087810Y0121029D01*
X0087747Y0121134D01*
X0087688Y0121241D01*
X0087633Y0121349D01*
X0087581Y0121460D01*
X0087533Y0121572D01*
X0087488Y0121686D01*
X0087447Y0121801D01*
X0087410Y0121917D01*
X0087376Y0122034D01*
X0087347Y0122153D01*
X0087321Y0122272D01*
X0087300Y0122392D01*
X0087282Y0122513D01*
X0087268Y0122634D01*
X0087258Y0122756D01*
X0087252Y0122878D01*
X0087250Y0123000D01*
X0148750Y0017500D02*
X0148752Y0017622D01*
X0148758Y0017744D01*
X0148768Y0017866D01*
X0148782Y0017987D01*
X0148800Y0018108D01*
X0148821Y0018228D01*
X0148847Y0018347D01*
X0148876Y0018466D01*
X0148910Y0018583D01*
X0148947Y0018699D01*
X0148988Y0018814D01*
X0149033Y0018928D01*
X0149081Y0019040D01*
X0149133Y0019151D01*
X0149188Y0019259D01*
X0149247Y0019366D01*
X0149310Y0019471D01*
X0149376Y0019574D01*
X0149445Y0019674D01*
X0149517Y0019773D01*
X0149593Y0019869D01*
X0149671Y0019962D01*
X0149753Y0020053D01*
X0149838Y0020141D01*
X0149925Y0020226D01*
X0150015Y0020308D01*
X0150108Y0020388D01*
X0150203Y0020464D01*
X0150301Y0020537D01*
X0150401Y0020607D01*
X0150503Y0020674D01*
X0150607Y0020737D01*
X0150714Y0020797D01*
X0150822Y0020854D01*
X0150932Y0020906D01*
X0151044Y0020956D01*
X0151157Y0021001D01*
X0151272Y0021043D01*
X0151388Y0021081D01*
X0151505Y0021116D01*
X0151623Y0021146D01*
X0151742Y0021173D01*
X0151862Y0021195D01*
X0151983Y0021214D01*
X0152104Y0021229D01*
X0152226Y0021240D01*
X0152347Y0021247D01*
X0152469Y0021250D01*
X0152592Y0021249D01*
X0152714Y0021244D01*
X0152835Y0021235D01*
X0152957Y0021222D01*
X0153078Y0021205D01*
X0153198Y0021184D01*
X0153317Y0021160D01*
X0153436Y0021131D01*
X0153554Y0021099D01*
X0153670Y0021063D01*
X0153786Y0021023D01*
X0153900Y0020979D01*
X0154012Y0020932D01*
X0154123Y0020881D01*
X0154232Y0020826D01*
X0154340Y0020768D01*
X0154445Y0020706D01*
X0154548Y0020641D01*
X0154650Y0020573D01*
X0154748Y0020501D01*
X0154845Y0020426D01*
X0154939Y0020349D01*
X0155030Y0020268D01*
X0155119Y0020184D01*
X0155205Y0020097D01*
X0155288Y0020008D01*
X0155368Y0019916D01*
X0155445Y0019821D01*
X0155519Y0019724D01*
X0155590Y0019624D01*
X0155658Y0019523D01*
X0155722Y0019419D01*
X0155783Y0019313D01*
X0155840Y0019205D01*
X0155894Y0019096D01*
X0155944Y0018984D01*
X0155990Y0018871D01*
X0156033Y0018757D01*
X0156072Y0018641D01*
X0156107Y0018525D01*
X0156139Y0018407D01*
X0156166Y0018288D01*
X0156190Y0018168D01*
X0156210Y0018047D01*
X0156226Y0017926D01*
X0156238Y0017805D01*
X0156246Y0017683D01*
X0156250Y0017561D01*
X0156250Y0017439D01*
X0156246Y0017317D01*
X0156238Y0017195D01*
X0156226Y0017074D01*
X0156210Y0016953D01*
X0156190Y0016832D01*
X0156166Y0016712D01*
X0156139Y0016593D01*
X0156107Y0016475D01*
X0156072Y0016359D01*
X0156033Y0016243D01*
X0155990Y0016129D01*
X0155944Y0016016D01*
X0155894Y0015904D01*
X0155840Y0015795D01*
X0155783Y0015687D01*
X0155722Y0015581D01*
X0155658Y0015477D01*
X0155590Y0015376D01*
X0155519Y0015276D01*
X0155445Y0015179D01*
X0155368Y0015084D01*
X0155288Y0014992D01*
X0155205Y0014903D01*
X0155119Y0014816D01*
X0155030Y0014732D01*
X0154939Y0014651D01*
X0154845Y0014574D01*
X0154748Y0014499D01*
X0154650Y0014427D01*
X0154548Y0014359D01*
X0154445Y0014294D01*
X0154340Y0014232D01*
X0154232Y0014174D01*
X0154123Y0014119D01*
X0154012Y0014068D01*
X0153900Y0014021D01*
X0153786Y0013977D01*
X0153670Y0013937D01*
X0153554Y0013901D01*
X0153436Y0013869D01*
X0153317Y0013840D01*
X0153198Y0013816D01*
X0153078Y0013795D01*
X0152957Y0013778D01*
X0152835Y0013765D01*
X0152714Y0013756D01*
X0152592Y0013751D01*
X0152469Y0013750D01*
X0152347Y0013753D01*
X0152226Y0013760D01*
X0152104Y0013771D01*
X0151983Y0013786D01*
X0151862Y0013805D01*
X0151742Y0013827D01*
X0151623Y0013854D01*
X0151505Y0013884D01*
X0151388Y0013919D01*
X0151272Y0013957D01*
X0151157Y0013999D01*
X0151044Y0014044D01*
X0150932Y0014094D01*
X0150822Y0014146D01*
X0150714Y0014203D01*
X0150607Y0014263D01*
X0150503Y0014326D01*
X0150401Y0014393D01*
X0150301Y0014463D01*
X0150203Y0014536D01*
X0150108Y0014612D01*
X0150015Y0014692D01*
X0149925Y0014774D01*
X0149838Y0014859D01*
X0149753Y0014947D01*
X0149671Y0015038D01*
X0149593Y0015131D01*
X0149517Y0015227D01*
X0149445Y0015326D01*
X0149376Y0015426D01*
X0149310Y0015529D01*
X0149247Y0015634D01*
X0149188Y0015741D01*
X0149133Y0015849D01*
X0149081Y0015960D01*
X0149033Y0016072D01*
X0148988Y0016186D01*
X0148947Y0016301D01*
X0148910Y0016417D01*
X0148876Y0016534D01*
X0148847Y0016653D01*
X0148821Y0016772D01*
X0148800Y0016892D01*
X0148782Y0017013D01*
X0148768Y0017134D01*
X0148758Y0017256D01*
X0148752Y0017378D01*
X0148750Y0017500D01*
D11*
X0148374Y0075000D03*
X0132626Y0075000D03*
X0115374Y0075000D03*
X0099626Y0075000D03*
X0027000Y0066874D03*
X0027000Y0051126D03*
X0027000Y0033874D03*
X0027000Y0018126D03*
D12*
X0042000Y0095000D03*
X0042000Y0105000D03*
X0042000Y0115000D03*
X0144500Y0113000D03*
X0144500Y0103000D03*
X0154500Y0103000D03*
X0154500Y0113000D03*
X0154500Y0123000D03*
D13*
X0144500Y0123000D03*
X0042000Y0125000D03*
D14*
X0056000Y0122269D02*
X0056000Y0116331D01*
X0066000Y0116331D02*
X0066000Y0122269D01*
X0076000Y0122269D02*
X0076000Y0116331D01*
X0025969Y0115000D02*
X0020031Y0115000D01*
X0020031Y0105000D02*
X0025969Y0105000D01*
X0025969Y0095000D02*
X0020031Y0095000D01*
X0020031Y0125000D02*
X0025969Y0125000D01*
X0072000Y0025969D02*
X0072000Y0020031D01*
X0082000Y0020031D02*
X0082000Y0025969D01*
X0092000Y0025969D02*
X0092000Y0020031D01*
X0102000Y0020031D02*
X0102000Y0025969D01*
X0112000Y0025969D02*
X0112000Y0020031D01*
X0122000Y0020031D02*
X0122000Y0025969D01*
X0132000Y0025969D02*
X0132000Y0020031D01*
X0142000Y0020031D02*
X0142000Y0025969D01*
D15*
X0129500Y0092800D03*
X0126400Y0092800D03*
X0123200Y0092800D03*
X0120100Y0092800D03*
X0116900Y0092800D03*
X0113800Y0092800D03*
X0110600Y0092800D03*
X0107500Y0092800D03*
X0107500Y0125200D03*
X0110600Y0125200D03*
X0113800Y0125200D03*
X0116900Y0125200D03*
X0120100Y0125200D03*
X0123200Y0125200D03*
X0126400Y0125200D03*
X0129500Y0125200D03*
D16*
X0134700Y0120000D03*
X0134700Y0116900D03*
X0134700Y0113700D03*
X0134700Y0110600D03*
X0134700Y0107400D03*
X0134700Y0104300D03*
X0134700Y0101100D03*
X0134700Y0098000D03*
X0102300Y0098000D03*
X0102300Y0101100D03*
X0102300Y0104300D03*
X0102300Y0107400D03*
X0102300Y0110600D03*
X0102300Y0113700D03*
X0102300Y0116900D03*
X0102300Y0120000D03*
D17*
X0049500Y0072500D03*
X0049500Y0050500D03*
X0049500Y0039500D03*
X0049500Y0017500D03*
D18*
X0099000Y0052500D03*
X0121000Y0052500D03*
X0132000Y0052500D03*
X0154000Y0052500D03*
D19*
X0075543Y0101000D03*
X0068457Y0101000D03*
D20*
X0092400Y0079343D03*
X0092400Y0072257D03*
X0149500Y0086857D03*
X0149500Y0093943D03*
D21*
X0080000Y0065449D03*
X0080000Y0046551D03*
D22*
X0155100Y0086266D03*
X0155100Y0094534D03*
D23*
X0095500Y0095972D03*
X0095500Y0105028D03*
D24*
X0083500Y0089000D03*
X0060000Y0089000D03*
D25*
X0052888Y0097869D02*
X0045141Y0097869D01*
X0045028Y0097982D02*
X0051446Y0104400D01*
X0052017Y0104400D01*
X0052973Y0104796D01*
X0053704Y0105527D01*
X0054100Y0106483D01*
X0054100Y0107517D01*
X0053704Y0108473D01*
X0052973Y0109204D01*
X0052017Y0109600D01*
X0050983Y0109600D01*
X0050027Y0109204D01*
X0049296Y0108473D01*
X0048900Y0107517D01*
X0048900Y0106946D01*
X0046250Y0104296D01*
X0046250Y0105845D01*
X0045603Y0107407D01*
X0045423Y0107587D01*
X0050916Y0113081D01*
X0051619Y0113784D01*
X0052000Y0114703D01*
X0052000Y0114834D01*
X0052381Y0113914D01*
X0053582Y0112713D01*
X0055151Y0112063D01*
X0056849Y0112063D01*
X0058418Y0112713D01*
X0059619Y0113914D01*
X0060268Y0115482D01*
X0060268Y0123118D01*
X0059619Y0124686D01*
X0059105Y0125200D01*
X0062895Y0125200D01*
X0062381Y0124686D01*
X0061731Y0123118D01*
X0061731Y0115482D01*
X0062381Y0113914D01*
X0063582Y0112713D01*
X0065151Y0112063D01*
X0066849Y0112063D01*
X0068418Y0112713D01*
X0069619Y0113914D01*
X0070268Y0115482D01*
X0070268Y0123118D01*
X0069619Y0124686D01*
X0069105Y0125200D01*
X0072612Y0125200D01*
X0072592Y0125180D01*
X0072178Y0124611D01*
X0071859Y0123984D01*
X0071642Y0123315D01*
X0071531Y0122620D01*
X0071531Y0119784D01*
X0075516Y0119784D01*
X0075516Y0118816D01*
X0076484Y0118816D01*
X0076484Y0111884D01*
X0077046Y0111973D01*
X0077715Y0112190D01*
X0078342Y0112510D01*
X0078911Y0112923D01*
X0079000Y0113012D01*
X0079000Y0112503D01*
X0079381Y0111584D01*
X0082131Y0108834D01*
X0088084Y0102881D01*
X0089003Y0102500D01*
X0092741Y0102500D01*
X0092983Y0102400D01*
X0094017Y0102400D01*
X0094228Y0102487D01*
X0097672Y0102487D01*
X0098100Y0102915D01*
X0098100Y0102762D01*
X0098162Y0102700D01*
X0098100Y0102638D01*
X0098100Y0099562D01*
X0098112Y0099550D01*
X0098100Y0099538D01*
X0098100Y0098368D01*
X0098055Y0098413D01*
X0097713Y0098610D01*
X0097331Y0098713D01*
X0095620Y0098713D01*
X0095620Y0096093D01*
X0095380Y0096093D01*
X0095380Y0098713D01*
X0093669Y0098713D01*
X0093287Y0098610D01*
X0092945Y0098413D01*
X0092666Y0098134D01*
X0092468Y0097792D01*
X0092366Y0097410D01*
X0092366Y0096093D01*
X0095380Y0096093D01*
X0095380Y0095852D01*
X0095620Y0095852D01*
X0095620Y0093232D01*
X0097331Y0093232D01*
X0097713Y0093335D01*
X0098055Y0093532D01*
X0098334Y0093811D01*
X0098532Y0094153D01*
X0098634Y0094535D01*
X0098634Y0095852D01*
X0095620Y0095852D01*
X0095620Y0096093D01*
X0098469Y0096093D01*
X0098862Y0095700D01*
X0105200Y0095700D01*
X0105200Y0089362D01*
X0105962Y0088600D01*
X0109038Y0088600D01*
X0109050Y0088612D01*
X0109062Y0088600D01*
X0112052Y0088600D01*
X0112221Y0088502D01*
X0112603Y0088400D01*
X0113800Y0088400D01*
X0114997Y0088400D01*
X0115379Y0088502D01*
X0115548Y0088600D01*
X0118352Y0088600D01*
X0118521Y0088502D01*
X0118903Y0088400D01*
X0120100Y0088400D01*
X0121297Y0088400D01*
X0121679Y0088502D01*
X0121848Y0088600D01*
X0124738Y0088600D01*
X0124800Y0088662D01*
X0124862Y0088600D01*
X0127938Y0088600D01*
X0127950Y0088612D01*
X0127962Y0088600D01*
X0130354Y0088600D01*
X0131200Y0087754D01*
X0131200Y0083569D01*
X0129082Y0085969D01*
X0129026Y0086106D01*
X0128480Y0086651D01*
X0127970Y0087230D01*
X0127837Y0087295D01*
X0127732Y0087400D01*
X0127019Y0087695D01*
X0126326Y0088034D01*
X0126178Y0088043D01*
X0126041Y0088100D01*
X0125270Y0088100D01*
X0124500Y0088148D01*
X0124359Y0088100D01*
X0108085Y0088100D01*
X0106394Y0087400D01*
X0101600Y0082606D01*
X0100600Y0081606D01*
X0099232Y0080237D01*
X0096262Y0080237D01*
X0096262Y0081116D01*
X0096160Y0081497D01*
X0095962Y0081839D01*
X0095683Y0082118D01*
X0095341Y0082316D01*
X0094960Y0082418D01*
X0092687Y0082418D01*
X0092687Y0079631D01*
X0092113Y0079631D01*
X0092113Y0082418D01*
X0089840Y0082418D01*
X0089459Y0082316D01*
X0089117Y0082118D01*
X0088837Y0081839D01*
X0088640Y0081497D01*
X0088538Y0081116D01*
X0088538Y0079631D01*
X0092113Y0079631D01*
X0092113Y0079056D01*
X0088538Y0079056D01*
X0088538Y0078100D01*
X0078905Y0078100D01*
X0070918Y0086087D01*
X0071300Y0087512D01*
X0071300Y0090488D01*
X0070530Y0093362D01*
X0069566Y0095031D01*
X0070576Y0096041D01*
X0070957Y0096959D01*
X0070957Y0097725D01*
X0071331Y0098099D01*
X0071331Y0103901D01*
X0070570Y0104662D01*
X0068279Y0104662D01*
X0063450Y0109363D01*
X0063500Y0109483D01*
X0063500Y0110517D01*
X0063104Y0111473D01*
X0062373Y0112204D01*
X0061417Y0112600D01*
X0060383Y0112600D01*
X0059427Y0112204D01*
X0058696Y0111473D01*
X0058300Y0110517D01*
X0058300Y0109483D01*
X0058400Y0109241D01*
X0058400Y0108837D01*
X0058394Y0108820D01*
X0058400Y0108340D01*
X0058400Y0107859D01*
X0058407Y0107843D01*
X0058407Y0107826D01*
X0058597Y0107384D01*
X0058781Y0106941D01*
X0058793Y0106928D01*
X0058800Y0106912D01*
X0059144Y0106577D01*
X0059484Y0106237D01*
X0059500Y0106231D01*
X0065582Y0100310D01*
X0065582Y0098825D01*
X0064362Y0099530D01*
X0061488Y0100300D01*
X0058512Y0100300D01*
X0055638Y0099530D01*
X0053062Y0098042D01*
X0050958Y0095938D01*
X0049470Y0093362D01*
X0048700Y0090488D01*
X0048700Y0089205D01*
X0047095Y0087600D01*
X0031085Y0087600D01*
X0029394Y0086900D01*
X0026250Y0083755D01*
X0026250Y0085543D01*
X0025298Y0087840D01*
X0023540Y0089598D01*
X0021243Y0090550D01*
X0018757Y0090550D01*
X0016460Y0089598D01*
X0015000Y0088139D01*
X0015000Y0128500D01*
X0017247Y0128500D01*
X0017120Y0128408D01*
X0016623Y0127911D01*
X0016210Y0127342D01*
X0015890Y0126715D01*
X0015673Y0126046D01*
X0015584Y0125484D01*
X0022516Y0125484D01*
X0022516Y0124516D01*
X0023484Y0124516D01*
X0023484Y0120531D01*
X0026320Y0120531D01*
X0027015Y0120642D01*
X0027684Y0120859D01*
X0028311Y0121178D01*
X0028880Y0121592D01*
X0029377Y0122089D01*
X0029790Y0122658D01*
X0030110Y0123285D01*
X0030327Y0123954D01*
X0030416Y0124516D01*
X0023484Y0124516D01*
X0023484Y0125484D01*
X0030416Y0125484D01*
X0030327Y0126046D01*
X0030110Y0126715D01*
X0029790Y0127342D01*
X0029377Y0127911D01*
X0028880Y0128408D01*
X0028753Y0128500D01*
X0037762Y0128500D01*
X0037750Y0128488D01*
X0037750Y0121512D01*
X0038512Y0120750D01*
X0045488Y0120750D01*
X0046250Y0121512D01*
X0046250Y0128488D01*
X0046238Y0128500D01*
X0050464Y0128500D01*
X0047381Y0125416D01*
X0047000Y0124497D01*
X0047000Y0116236D01*
X0046404Y0115640D01*
X0046340Y0116042D01*
X0046124Y0116708D01*
X0045806Y0117332D01*
X0045394Y0117899D01*
X0044899Y0118394D01*
X0044332Y0118806D01*
X0043708Y0119124D01*
X0043042Y0119340D01*
X0042475Y0119430D01*
X0042475Y0115475D01*
X0041525Y0115475D01*
X0041525Y0119430D01*
X0040958Y0119340D01*
X0040292Y0119124D01*
X0039668Y0118806D01*
X0039101Y0118394D01*
X0038606Y0117899D01*
X0038194Y0117332D01*
X0037876Y0116708D01*
X0037660Y0116042D01*
X0037570Y0115475D01*
X0041525Y0115475D01*
X0041525Y0114525D01*
X0037570Y0114525D01*
X0037660Y0113958D01*
X0037876Y0113292D01*
X0038194Y0112668D01*
X0038606Y0112101D01*
X0039101Y0111606D01*
X0039668Y0111194D01*
X0040292Y0110876D01*
X0040958Y0110660D01*
X0041360Y0110596D01*
X0040584Y0109819D01*
X0039881Y0109116D01*
X0039684Y0108641D01*
X0039593Y0108603D01*
X0038397Y0107407D01*
X0037750Y0105845D01*
X0037750Y0104155D01*
X0037795Y0104047D01*
X0031047Y0097300D01*
X0029636Y0097300D01*
X0029587Y0097418D01*
X0028386Y0098619D01*
X0026818Y0099268D01*
X0019182Y0099268D01*
X0017614Y0098619D01*
X0016413Y0097418D01*
X0015763Y0095849D01*
X0015763Y0094151D01*
X0016413Y0092582D01*
X0017614Y0091381D01*
X0019182Y0090731D01*
X0026818Y0090731D01*
X0028386Y0091381D01*
X0029587Y0092582D01*
X0029636Y0092700D01*
X0032953Y0092700D01*
X0041047Y0100795D01*
X0041155Y0100750D01*
X0042704Y0100750D01*
X0041204Y0099250D01*
X0041155Y0099250D01*
X0039593Y0098603D01*
X0038397Y0097407D01*
X0037750Y0095845D01*
X0037750Y0094155D01*
X0038397Y0092593D01*
X0039593Y0091397D01*
X0041155Y0090750D01*
X0042845Y0090750D01*
X0044407Y0091397D01*
X0045603Y0092593D01*
X0046250Y0094155D01*
X0046250Y0095845D01*
X0045603Y0097407D01*
X0045028Y0097982D01*
X0045913Y0098868D02*
X0054491Y0098868D01*
X0056893Y0099866D02*
X0046912Y0099866D01*
X0047910Y0100865D02*
X0065012Y0100865D01*
X0065582Y0099866D02*
X0063107Y0099866D01*
X0063986Y0101863D02*
X0048909Y0101863D01*
X0049907Y0102862D02*
X0062961Y0102862D01*
X0061935Y0103860D02*
X0050906Y0103860D01*
X0053036Y0104859D02*
X0060909Y0104859D01*
X0059884Y0105857D02*
X0053841Y0105857D01*
X0054100Y0106856D02*
X0058858Y0106856D01*
X0058402Y0107854D02*
X0053960Y0107854D01*
X0053324Y0108853D02*
X0058400Y0108853D01*
X0058300Y0109851D02*
X0047687Y0109851D01*
X0048685Y0110850D02*
X0058438Y0110850D01*
X0059071Y0111848D02*
X0049684Y0111848D01*
X0050682Y0112847D02*
X0053448Y0112847D01*
X0052450Y0113845D02*
X0051645Y0113845D01*
X0050916Y0113081D02*
X0050916Y0113081D01*
X0049676Y0108853D02*
X0046688Y0108853D01*
X0045690Y0107854D02*
X0049040Y0107854D01*
X0048810Y0106856D02*
X0045832Y0106856D01*
X0046245Y0105857D02*
X0047812Y0105857D01*
X0046813Y0104859D02*
X0046250Y0104859D01*
X0051500Y0107000D02*
X0042000Y0097500D01*
X0042000Y0095000D01*
X0046250Y0094873D02*
X0050343Y0094873D01*
X0049766Y0093875D02*
X0046134Y0093875D01*
X0045721Y0092876D02*
X0049340Y0092876D01*
X0049073Y0091878D02*
X0044888Y0091878D01*
X0043158Y0090879D02*
X0048805Y0090879D01*
X0048700Y0089881D02*
X0022859Y0089881D01*
X0024256Y0088882D02*
X0048377Y0088882D01*
X0047379Y0087884D02*
X0025255Y0087884D01*
X0025694Y0086885D02*
X0029380Y0086885D01*
X0028381Y0085887D02*
X0026108Y0085887D01*
X0026250Y0084888D02*
X0027383Y0084888D01*
X0026384Y0083890D02*
X0026250Y0083890D01*
X0027175Y0090879D02*
X0040842Y0090879D01*
X0039112Y0091878D02*
X0028883Y0091878D01*
X0033129Y0092876D02*
X0038279Y0092876D01*
X0037866Y0093875D02*
X0034128Y0093875D01*
X0035126Y0094873D02*
X0037750Y0094873D01*
X0037761Y0095872D02*
X0036125Y0095872D01*
X0037123Y0096870D02*
X0038175Y0096870D01*
X0038122Y0097869D02*
X0038859Y0097869D01*
X0039120Y0098868D02*
X0040231Y0098868D01*
X0040119Y0099866D02*
X0041820Y0099866D01*
X0037607Y0103860D02*
X0030117Y0103860D01*
X0030237Y0104151D02*
X0029587Y0102582D01*
X0028386Y0101381D01*
X0026818Y0100731D01*
X0019182Y0100731D01*
X0017614Y0101381D01*
X0016413Y0102582D01*
X0015763Y0104151D01*
X0015763Y0105849D01*
X0016413Y0107418D01*
X0017614Y0108619D01*
X0019182Y0109268D01*
X0026818Y0109268D01*
X0028386Y0108619D01*
X0029587Y0107418D01*
X0030237Y0105849D01*
X0030237Y0104151D01*
X0030237Y0104859D02*
X0037750Y0104859D01*
X0037755Y0105857D02*
X0030234Y0105857D01*
X0029820Y0106856D02*
X0038168Y0106856D01*
X0038844Y0107854D02*
X0029151Y0107854D01*
X0027822Y0108853D02*
X0039771Y0108853D01*
X0040616Y0109851D02*
X0015000Y0109851D01*
X0015000Y0108853D02*
X0018178Y0108853D01*
X0016849Y0107854D02*
X0015000Y0107854D01*
X0015000Y0106856D02*
X0016180Y0106856D01*
X0015766Y0105857D02*
X0015000Y0105857D01*
X0015000Y0104859D02*
X0015763Y0104859D01*
X0015883Y0103860D02*
X0015000Y0103860D01*
X0015000Y0102862D02*
X0016297Y0102862D01*
X0017132Y0101863D02*
X0015000Y0101863D01*
X0015000Y0100865D02*
X0018861Y0100865D01*
X0018214Y0098868D02*
X0015000Y0098868D01*
X0015000Y0099866D02*
X0033613Y0099866D01*
X0032615Y0098868D02*
X0027786Y0098868D01*
X0029136Y0097869D02*
X0031616Y0097869D01*
X0034612Y0100865D02*
X0027139Y0100865D01*
X0028868Y0101863D02*
X0035610Y0101863D01*
X0036609Y0102862D02*
X0029703Y0102862D01*
X0026818Y0110731D02*
X0028386Y0111381D01*
X0029587Y0112582D01*
X0030237Y0114151D01*
X0030237Y0115849D01*
X0029587Y0117418D01*
X0028386Y0118619D01*
X0026818Y0119268D01*
X0019182Y0119268D01*
X0017614Y0118619D01*
X0016413Y0117418D01*
X0015763Y0115849D01*
X0015763Y0114151D01*
X0016413Y0112582D01*
X0017614Y0111381D01*
X0019182Y0110731D01*
X0026818Y0110731D01*
X0027103Y0110850D02*
X0040373Y0110850D01*
X0038859Y0111848D02*
X0028853Y0111848D01*
X0029697Y0112847D02*
X0038103Y0112847D01*
X0037696Y0113845D02*
X0030110Y0113845D01*
X0030237Y0114844D02*
X0041525Y0114844D01*
X0041525Y0115842D02*
X0042475Y0115842D01*
X0042475Y0116841D02*
X0041525Y0116841D01*
X0041525Y0117839D02*
X0042475Y0117839D01*
X0042475Y0118838D02*
X0041525Y0118838D01*
X0039730Y0118838D02*
X0027858Y0118838D01*
X0029166Y0117839D02*
X0038562Y0117839D01*
X0037944Y0116841D02*
X0029826Y0116841D01*
X0030237Y0115842D02*
X0037628Y0115842D01*
X0038427Y0120835D02*
X0027610Y0120835D01*
X0029121Y0121833D02*
X0037750Y0121833D01*
X0037750Y0122832D02*
X0029879Y0122832D01*
X0030287Y0123830D02*
X0037750Y0123830D01*
X0037750Y0124829D02*
X0023484Y0124829D01*
X0022516Y0124829D02*
X0015000Y0124829D01*
X0015584Y0124516D02*
X0015673Y0123954D01*
X0015890Y0123285D01*
X0016210Y0122658D01*
X0016623Y0122089D01*
X0017120Y0121592D01*
X0017689Y0121178D01*
X0018316Y0120859D01*
X0018985Y0120642D01*
X0019680Y0120531D01*
X0022516Y0120531D01*
X0022516Y0124516D01*
X0015584Y0124516D01*
X0015713Y0123830D02*
X0015000Y0123830D01*
X0015000Y0122832D02*
X0016121Y0122832D01*
X0016879Y0121833D02*
X0015000Y0121833D01*
X0015000Y0120835D02*
X0018390Y0120835D01*
X0018142Y0118838D02*
X0015000Y0118838D01*
X0015000Y0119836D02*
X0047000Y0119836D01*
X0047000Y0118838D02*
X0044270Y0118838D01*
X0045438Y0117839D02*
X0047000Y0117839D01*
X0047000Y0116841D02*
X0046056Y0116841D01*
X0046372Y0115842D02*
X0046607Y0115842D01*
X0047000Y0120835D02*
X0045573Y0120835D01*
X0046250Y0121833D02*
X0047000Y0121833D01*
X0047000Y0122832D02*
X0046250Y0122832D01*
X0046250Y0123830D02*
X0047000Y0123830D01*
X0047137Y0124829D02*
X0046250Y0124829D01*
X0046250Y0125827D02*
X0047792Y0125827D01*
X0048790Y0126826D02*
X0046250Y0126826D01*
X0046250Y0127824D02*
X0049789Y0127824D01*
X0059476Y0124829D02*
X0062524Y0124829D01*
X0062027Y0123830D02*
X0059973Y0123830D01*
X0060268Y0122832D02*
X0061731Y0122832D01*
X0061731Y0121833D02*
X0060268Y0121833D01*
X0060268Y0120835D02*
X0061731Y0120835D01*
X0061731Y0119836D02*
X0060268Y0119836D01*
X0060268Y0118838D02*
X0061731Y0118838D01*
X0061731Y0117839D02*
X0060268Y0117839D01*
X0060268Y0116841D02*
X0061731Y0116841D01*
X0061731Y0115842D02*
X0060268Y0115842D01*
X0060004Y0114844D02*
X0061996Y0114844D01*
X0062450Y0113845D02*
X0059550Y0113845D01*
X0058552Y0112847D02*
X0063448Y0112847D01*
X0062729Y0111848D02*
X0079271Y0111848D01*
X0079000Y0112847D02*
X0078806Y0112847D01*
X0076484Y0112847D02*
X0075516Y0112847D01*
X0075516Y0111884D02*
X0074954Y0111973D01*
X0074285Y0112190D01*
X0073658Y0112510D01*
X0073089Y0112923D01*
X0072592Y0113420D01*
X0072178Y0113989D01*
X0071859Y0114616D01*
X0071642Y0115285D01*
X0071531Y0115980D01*
X0071531Y0118816D01*
X0075516Y0118816D01*
X0075516Y0111884D01*
X0075516Y0113845D02*
X0076484Y0113845D01*
X0076484Y0114844D02*
X0075516Y0114844D01*
X0075516Y0115842D02*
X0076484Y0115842D01*
X0076484Y0116841D02*
X0075516Y0116841D01*
X0075516Y0117839D02*
X0076484Y0117839D01*
X0075516Y0118838D02*
X0070268Y0118838D01*
X0070268Y0119836D02*
X0071531Y0119836D01*
X0071531Y0120835D02*
X0070268Y0120835D01*
X0070268Y0121833D02*
X0071531Y0121833D01*
X0071565Y0122832D02*
X0070268Y0122832D01*
X0069973Y0123830D02*
X0071809Y0123830D01*
X0072337Y0124829D02*
X0069476Y0124829D01*
X0070268Y0117839D02*
X0071531Y0117839D01*
X0071531Y0116841D02*
X0070268Y0116841D01*
X0070268Y0115842D02*
X0071553Y0115842D01*
X0071785Y0114844D02*
X0070004Y0114844D01*
X0069550Y0113845D02*
X0072283Y0113845D01*
X0073194Y0112847D02*
X0068552Y0112847D01*
X0063974Y0108853D02*
X0082112Y0108853D01*
X0081113Y0109851D02*
X0063500Y0109851D01*
X0063362Y0110850D02*
X0080115Y0110850D01*
X0083110Y0107854D02*
X0065000Y0107854D01*
X0066026Y0106856D02*
X0084109Y0106856D01*
X0085107Y0105857D02*
X0067051Y0105857D01*
X0068077Y0104859D02*
X0073758Y0104859D01*
X0073771Y0104862D02*
X0073390Y0104760D01*
X0073047Y0104562D01*
X0072768Y0104283D01*
X0072571Y0103941D01*
X0072469Y0103560D01*
X0072468Y0101287D01*
X0075256Y0101287D01*
X0075256Y0100713D01*
X0072469Y0100713D01*
X0072469Y0098440D01*
X0072571Y0098059D01*
X0072768Y0097717D01*
X0073047Y0097437D01*
X0073390Y0097240D01*
X0073771Y0097138D01*
X0075256Y0097138D01*
X0075256Y0100713D01*
X0075831Y0100713D01*
X0075831Y0101287D01*
X0078618Y0101287D01*
X0078618Y0103560D01*
X0078516Y0103941D01*
X0078318Y0104283D01*
X0078039Y0104562D01*
X0077697Y0104760D01*
X0077316Y0104862D01*
X0075831Y0104862D01*
X0075831Y0101287D01*
X0075256Y0101287D01*
X0075256Y0104862D01*
X0073771Y0104862D01*
X0075256Y0104859D02*
X0075831Y0104859D01*
X0075831Y0103860D02*
X0075256Y0103860D01*
X0075256Y0102862D02*
X0075831Y0102862D01*
X0075831Y0101863D02*
X0075256Y0101863D01*
X0075256Y0100865D02*
X0071331Y0100865D01*
X0071331Y0101863D02*
X0072469Y0101863D01*
X0072469Y0102862D02*
X0071331Y0102862D01*
X0071331Y0103860D02*
X0072549Y0103860D01*
X0072469Y0099866D02*
X0071331Y0099866D01*
X0071331Y0098868D02*
X0072469Y0098868D01*
X0072680Y0097869D02*
X0071101Y0097869D01*
X0070920Y0096870D02*
X0092366Y0096870D01*
X0092513Y0097869D02*
X0078406Y0097869D01*
X0078318Y0097717D02*
X0078516Y0098059D01*
X0078618Y0098440D01*
X0078618Y0100713D01*
X0075831Y0100713D01*
X0075831Y0097138D01*
X0077316Y0097138D01*
X0077697Y0097240D01*
X0078039Y0097437D01*
X0078318Y0097717D01*
X0078618Y0098868D02*
X0098100Y0098868D01*
X0098100Y0099866D02*
X0078618Y0099866D01*
X0078618Y0101863D02*
X0098100Y0101863D01*
X0098100Y0100865D02*
X0075831Y0100865D01*
X0075831Y0099866D02*
X0075256Y0099866D01*
X0075256Y0098868D02*
X0075831Y0098868D01*
X0075831Y0097869D02*
X0075256Y0097869D01*
X0070660Y0092876D02*
X0105200Y0092876D01*
X0105200Y0091878D02*
X0070927Y0091878D01*
X0071195Y0090879D02*
X0105200Y0090879D01*
X0105200Y0089881D02*
X0071300Y0089881D01*
X0071300Y0088882D02*
X0105679Y0088882D01*
X0105880Y0086885D02*
X0071132Y0086885D01*
X0071119Y0085887D02*
X0104881Y0085887D01*
X0103883Y0084888D02*
X0072117Y0084888D01*
X0073116Y0083890D02*
X0102884Y0083890D01*
X0101886Y0082891D02*
X0074114Y0082891D01*
X0075113Y0081893D02*
X0088891Y0081893D01*
X0088538Y0080894D02*
X0076111Y0080894D01*
X0077110Y0079896D02*
X0088538Y0079896D01*
X0088538Y0078897D02*
X0078108Y0078897D01*
X0072087Y0071908D02*
X0065800Y0071908D01*
X0065800Y0072906D02*
X0071088Y0072906D01*
X0070090Y0073905D02*
X0065800Y0073905D01*
X0065800Y0074903D02*
X0069091Y0074903D01*
X0068093Y0075902D02*
X0065800Y0075902D01*
X0065800Y0076588D02*
X0065038Y0077350D01*
X0033962Y0077350D01*
X0033200Y0076588D01*
X0033200Y0076300D01*
X0031870Y0076300D01*
X0031760Y0076254D01*
X0033905Y0078400D01*
X0049915Y0078400D01*
X0051606Y0079100D01*
X0052762Y0080257D01*
X0053062Y0079958D01*
X0055638Y0078470D01*
X0058512Y0077700D01*
X0061488Y0077700D01*
X0064362Y0078470D01*
X0065099Y0078896D01*
X0074394Y0069600D01*
X0075400Y0069184D01*
X0075400Y0064534D01*
X0076100Y0062843D01*
X0076731Y0062212D01*
X0076731Y0059103D01*
X0077493Y0058342D01*
X0082507Y0058342D01*
X0083268Y0059103D01*
X0083268Y0062212D01*
X0083900Y0062843D01*
X0084600Y0064534D01*
X0084600Y0068900D01*
X0097299Y0068900D01*
X0097881Y0068817D01*
X0098206Y0068900D01*
X0098541Y0068900D01*
X0099084Y0069125D01*
X0099654Y0069271D01*
X0099922Y0069472D01*
X0100232Y0069600D01*
X0100394Y0069763D01*
X0102306Y0069763D01*
X0102381Y0069584D01*
X0103084Y0068881D01*
X0107500Y0064464D01*
X0107500Y0052759D01*
X0107400Y0052517D01*
X0107400Y0051483D01*
X0107796Y0050527D01*
X0108527Y0049796D01*
X0109483Y0049400D01*
X0110517Y0049400D01*
X0111473Y0049796D01*
X0112204Y0050527D01*
X0112600Y0051483D01*
X0112600Y0052517D01*
X0112500Y0052759D01*
X0112500Y0065997D01*
X0112119Y0066916D01*
X0107000Y0072036D01*
X0107000Y0074995D01*
X0107106Y0075100D01*
X0108106Y0076100D01*
X0110137Y0078132D01*
X0110137Y0070525D01*
X0110899Y0069763D01*
X0115237Y0069763D01*
X0116556Y0068444D01*
X0116150Y0068038D01*
X0116150Y0036962D01*
X0116912Y0036200D01*
X0125088Y0036200D01*
X0125850Y0036962D01*
X0125850Y0068038D01*
X0125088Y0068800D01*
X0124800Y0068800D01*
X0124800Y0070130D01*
X0124221Y0071527D01*
X0123153Y0072595D01*
X0120611Y0075137D01*
X0120611Y0078900D01*
X0123050Y0078900D01*
X0127389Y0073983D01*
X0127389Y0070525D01*
X0128150Y0069763D01*
X0137101Y0069763D01*
X0137863Y0070525D01*
X0137863Y0071107D01*
X0140500Y0068470D01*
X0140500Y0052759D01*
X0140400Y0052517D01*
X0140400Y0051483D01*
X0140796Y0050527D01*
X0141527Y0049796D01*
X0142483Y0049400D01*
X0143517Y0049400D01*
X0144473Y0049796D01*
X0145204Y0050527D01*
X0145600Y0051483D01*
X0145600Y0052517D01*
X0145500Y0052759D01*
X0145500Y0069763D01*
X0148237Y0069763D01*
X0149556Y0068444D01*
X0149150Y0068038D01*
X0149150Y0036962D01*
X0149912Y0036200D01*
X0157400Y0036200D01*
X0157400Y0021439D01*
X0156040Y0022798D01*
X0153743Y0023750D01*
X0151257Y0023750D01*
X0148960Y0022798D01*
X0147202Y0021040D01*
X0146250Y0018743D01*
X0146250Y0016257D01*
X0147202Y0013960D01*
X0148661Y0012500D01*
X0015000Y0012500D01*
X0015000Y0017495D01*
X0016600Y0015894D01*
X0017894Y0014600D01*
X0019585Y0013900D01*
X0021763Y0013900D01*
X0021763Y0013650D01*
X0022525Y0012889D01*
X0031475Y0012889D01*
X0032237Y0013650D01*
X0032237Y0020806D01*
X0032416Y0020881D01*
X0033119Y0021584D01*
X0037536Y0026000D01*
X0053241Y0026000D01*
X0053483Y0025900D01*
X0054517Y0025900D01*
X0055473Y0026296D01*
X0056204Y0027027D01*
X0056600Y0027983D01*
X0056600Y0029017D01*
X0056204Y0029973D01*
X0055473Y0030704D01*
X0054517Y0031100D01*
X0053483Y0031100D01*
X0053241Y0031000D01*
X0036003Y0031000D01*
X0035084Y0030619D01*
X0029964Y0025500D01*
X0028259Y0025500D01*
X0028017Y0025600D01*
X0026983Y0025600D01*
X0026027Y0025204D01*
X0025296Y0024473D01*
X0024900Y0023517D01*
X0024900Y0023363D01*
X0022600Y0023363D01*
X0022600Y0028637D01*
X0031475Y0028637D01*
X0032237Y0029399D01*
X0032237Y0033737D01*
X0033556Y0035056D01*
X0033962Y0034650D01*
X0065038Y0034650D01*
X0065800Y0035412D01*
X0065800Y0043588D01*
X0065038Y0044350D01*
X0033962Y0044350D01*
X0033200Y0043588D01*
X0033200Y0043300D01*
X0031870Y0043300D01*
X0030473Y0042721D01*
X0029405Y0041653D01*
X0026863Y0039111D01*
X0022600Y0039111D01*
X0022600Y0045889D01*
X0031475Y0045889D01*
X0032237Y0046650D01*
X0032237Y0054158D01*
X0033016Y0054481D01*
X0033719Y0055184D01*
X0037536Y0059000D01*
X0053241Y0059000D01*
X0053483Y0058900D01*
X0054517Y0058900D01*
X0055473Y0059296D01*
X0056204Y0060027D01*
X0056600Y0060983D01*
X0056600Y0062017D01*
X0056204Y0062973D01*
X0055473Y0063704D01*
X0054517Y0064100D01*
X0053483Y0064100D01*
X0053241Y0064000D01*
X0036003Y0064000D01*
X0035084Y0063619D01*
X0030564Y0059100D01*
X0028259Y0059100D01*
X0028017Y0059200D01*
X0026983Y0059200D01*
X0026027Y0058804D01*
X0025296Y0058073D01*
X0024900Y0057117D01*
X0024900Y0056363D01*
X0022600Y0056363D01*
X0022600Y0061637D01*
X0031475Y0061637D01*
X0032237Y0062399D01*
X0032237Y0066737D01*
X0033556Y0068056D01*
X0033962Y0067650D01*
X0065038Y0067650D01*
X0065800Y0068412D01*
X0065800Y0076588D01*
X0065488Y0076900D02*
X0067094Y0076900D01*
X0066096Y0077899D02*
X0062229Y0077899D01*
X0057770Y0077899D02*
X0033404Y0077899D01*
X0033512Y0076900D02*
X0032406Y0076900D01*
X0033414Y0067914D02*
X0033698Y0067914D01*
X0032415Y0066915D02*
X0075400Y0066915D01*
X0075400Y0065917D02*
X0032237Y0065917D01*
X0032237Y0064918D02*
X0075400Y0064918D01*
X0075654Y0063920D02*
X0054953Y0063920D01*
X0056226Y0062921D02*
X0076068Y0062921D01*
X0076731Y0061923D02*
X0056600Y0061923D01*
X0056576Y0060924D02*
X0076731Y0060924D01*
X0076731Y0059926D02*
X0056103Y0059926D01*
X0054582Y0058927D02*
X0076908Y0058927D01*
X0076754Y0056300D02*
X0075700Y0055246D01*
X0075700Y0055246D01*
X0074200Y0053746D01*
X0074200Y0053674D01*
X0074153Y0053721D01*
X0072756Y0054300D01*
X0065800Y0054300D01*
X0065800Y0054588D01*
X0065038Y0055350D01*
X0033962Y0055350D01*
X0033200Y0054588D01*
X0033200Y0046412D01*
X0033962Y0045650D01*
X0065038Y0045650D01*
X0065800Y0046412D01*
X0065800Y0046700D01*
X0067523Y0046700D01*
X0067296Y0046473D01*
X0066900Y0045517D01*
X0066900Y0044483D01*
X0067296Y0043527D01*
X0068027Y0042796D01*
X0068983Y0042400D01*
X0070017Y0042400D01*
X0070973Y0042796D01*
X0071377Y0043200D01*
X0072746Y0043200D01*
X0076581Y0047035D01*
X0079516Y0047035D01*
X0079516Y0046067D01*
X0080484Y0046067D01*
X0080484Y0039244D01*
X0082166Y0039244D01*
X0082547Y0039346D01*
X0082890Y0039544D01*
X0083169Y0039823D01*
X0083366Y0040165D01*
X0083468Y0040547D01*
X0083468Y0046067D01*
X0080484Y0046067D01*
X0080484Y0047035D01*
X0083468Y0047035D01*
X0083468Y0052556D01*
X0083430Y0052700D01*
X0083746Y0052700D01*
X0088946Y0057900D01*
X0089517Y0057900D01*
X0090473Y0058296D01*
X0091204Y0059027D01*
X0091600Y0059983D01*
X0091600Y0061017D01*
X0091204Y0061973D01*
X0090473Y0062704D01*
X0089517Y0063100D01*
X0088483Y0063100D01*
X0087527Y0062704D01*
X0086796Y0061973D01*
X0086400Y0061017D01*
X0086400Y0060446D01*
X0082254Y0056300D01*
X0076754Y0056300D01*
X0076386Y0055932D02*
X0034467Y0055932D01*
X0033545Y0054933D02*
X0033469Y0054933D01*
X0033200Y0053934D02*
X0032237Y0053934D01*
X0032237Y0052936D02*
X0033200Y0052936D01*
X0033200Y0051937D02*
X0032237Y0051937D01*
X0032237Y0050939D02*
X0033200Y0050939D01*
X0033200Y0049940D02*
X0032237Y0049940D01*
X0032237Y0048942D02*
X0033200Y0048942D01*
X0033200Y0047943D02*
X0032237Y0047943D01*
X0032237Y0046945D02*
X0033200Y0046945D01*
X0033665Y0045946D02*
X0031533Y0045946D01*
X0033561Y0043949D02*
X0022600Y0043949D01*
X0022600Y0042951D02*
X0031027Y0042951D01*
X0029704Y0041952D02*
X0022600Y0041952D01*
X0022600Y0040954D02*
X0028706Y0040954D01*
X0027707Y0039955D02*
X0022600Y0039955D01*
X0022600Y0044948D02*
X0066900Y0044948D01*
X0067078Y0045946D02*
X0065335Y0045946D01*
X0065439Y0043949D02*
X0067121Y0043949D01*
X0067872Y0042951D02*
X0065800Y0042951D01*
X0065800Y0041952D02*
X0076531Y0041952D01*
X0076531Y0040954D02*
X0065800Y0040954D01*
X0065800Y0039955D02*
X0076755Y0039955D01*
X0076831Y0039823D02*
X0077110Y0039544D01*
X0077453Y0039346D01*
X0077834Y0039244D01*
X0079516Y0039244D01*
X0079516Y0046067D01*
X0076531Y0046067D01*
X0076531Y0040547D01*
X0076634Y0040165D01*
X0076831Y0039823D01*
X0076531Y0042951D02*
X0071128Y0042951D01*
X0072000Y0045000D02*
X0069500Y0045000D01*
X0072000Y0045000D02*
X0076000Y0049000D01*
X0076000Y0053000D01*
X0077500Y0054500D01*
X0083000Y0054500D01*
X0089000Y0060500D01*
X0088051Y0062921D02*
X0083932Y0062921D01*
X0084346Y0063920D02*
X0094150Y0063920D01*
X0094150Y0064918D02*
X0084600Y0064918D01*
X0084600Y0065917D02*
X0094150Y0065917D01*
X0094150Y0066915D02*
X0084600Y0066915D01*
X0084600Y0067914D02*
X0094150Y0067914D01*
X0094150Y0068038D02*
X0094150Y0036962D01*
X0094912Y0036200D01*
X0100426Y0036200D01*
X0108200Y0028426D01*
X0108200Y0027949D01*
X0107731Y0026818D01*
X0107731Y0019182D01*
X0108381Y0017614D01*
X0109582Y0016413D01*
X0111151Y0015763D01*
X0112849Y0015763D01*
X0114418Y0016413D01*
X0115619Y0017614D01*
X0116268Y0019182D01*
X0116268Y0026818D01*
X0115800Y0027949D01*
X0115800Y0030756D01*
X0115221Y0032153D01*
X0103850Y0043524D01*
X0103850Y0068038D01*
X0103088Y0068800D01*
X0094912Y0068800D01*
X0094150Y0068038D01*
X0098570Y0068912D02*
X0103052Y0068912D01*
X0103850Y0067914D02*
X0104051Y0067914D01*
X0103850Y0066915D02*
X0105049Y0066915D01*
X0106048Y0065917D02*
X0103850Y0065917D01*
X0103850Y0064918D02*
X0107046Y0064918D01*
X0107500Y0063920D02*
X0103850Y0063920D01*
X0103850Y0062921D02*
X0107500Y0062921D01*
X0107500Y0061923D02*
X0103850Y0061923D01*
X0103850Y0060924D02*
X0107500Y0060924D01*
X0107500Y0059926D02*
X0103850Y0059926D01*
X0103850Y0058927D02*
X0107500Y0058927D01*
X0107500Y0057929D02*
X0103850Y0057929D01*
X0103850Y0056930D02*
X0107500Y0056930D01*
X0107500Y0055932D02*
X0103850Y0055932D01*
X0103850Y0054933D02*
X0107500Y0054933D01*
X0107500Y0053934D02*
X0103850Y0053934D01*
X0103850Y0052936D02*
X0107500Y0052936D01*
X0107400Y0051937D02*
X0103850Y0051937D01*
X0103850Y0050939D02*
X0107625Y0050939D01*
X0108383Y0049940D02*
X0103850Y0049940D01*
X0103850Y0048942D02*
X0116150Y0048942D01*
X0116150Y0049940D02*
X0111617Y0049940D01*
X0112375Y0050939D02*
X0116150Y0050939D01*
X0116150Y0051937D02*
X0112600Y0051937D01*
X0112500Y0052936D02*
X0116150Y0052936D01*
X0116150Y0053934D02*
X0112500Y0053934D01*
X0112500Y0054933D02*
X0116150Y0054933D01*
X0116150Y0055932D02*
X0112500Y0055932D01*
X0112500Y0056930D02*
X0116150Y0056930D01*
X0116150Y0057929D02*
X0112500Y0057929D01*
X0112500Y0058927D02*
X0116150Y0058927D01*
X0116150Y0059926D02*
X0112500Y0059926D01*
X0112500Y0060924D02*
X0116150Y0060924D01*
X0116150Y0061923D02*
X0112500Y0061923D01*
X0112500Y0062921D02*
X0116150Y0062921D01*
X0116150Y0063920D02*
X0112500Y0063920D01*
X0112500Y0064918D02*
X0116150Y0064918D01*
X0116150Y0065917D02*
X0112500Y0065917D01*
X0112120Y0066915D02*
X0116150Y0066915D01*
X0116150Y0067914D02*
X0111122Y0067914D01*
X0110123Y0068912D02*
X0116088Y0068912D01*
X0110751Y0069911D02*
X0109125Y0069911D01*
X0108126Y0070909D02*
X0110137Y0070909D01*
X0110137Y0071908D02*
X0107128Y0071908D01*
X0107000Y0072906D02*
X0110137Y0072906D01*
X0110137Y0073905D02*
X0107000Y0073905D01*
X0107000Y0074903D02*
X0110137Y0074903D01*
X0110137Y0075902D02*
X0107907Y0075902D01*
X0108906Y0076900D02*
X0110137Y0076900D01*
X0110137Y0077899D02*
X0109904Y0077899D01*
X0100887Y0081893D02*
X0095909Y0081893D01*
X0096262Y0080894D02*
X0099889Y0080894D01*
X0092687Y0080894D02*
X0092113Y0080894D01*
X0092113Y0079896D02*
X0092687Y0079896D01*
X0092687Y0081893D02*
X0092113Y0081893D01*
X0093669Y0093232D02*
X0095380Y0093232D01*
X0095380Y0095852D01*
X0092366Y0095852D01*
X0092366Y0094535D01*
X0092468Y0094153D01*
X0092666Y0093811D01*
X0092945Y0093532D01*
X0093287Y0093335D01*
X0093669Y0093232D01*
X0092629Y0093875D02*
X0070234Y0093875D01*
X0069657Y0094873D02*
X0092366Y0094873D01*
X0095380Y0094873D02*
X0095620Y0094873D01*
X0095620Y0093875D02*
X0095380Y0093875D01*
X0095380Y0095872D02*
X0070407Y0095872D01*
X0065582Y0098868D02*
X0065509Y0098868D01*
X0071300Y0087884D02*
X0107563Y0087884D01*
X0113800Y0088400D02*
X0113800Y0092800D01*
X0113800Y0089200D01*
X0114500Y0088500D01*
X0119500Y0088500D01*
X0120000Y0089000D01*
X0120000Y0092700D01*
X0120100Y0092800D01*
X0120100Y0088400D01*
X0120100Y0092800D01*
X0120100Y0092800D01*
X0120100Y0091878D02*
X0120100Y0091878D01*
X0120100Y0090879D02*
X0120100Y0090879D01*
X0120100Y0089881D02*
X0120100Y0089881D01*
X0120100Y0088882D02*
X0120100Y0088882D01*
X0123200Y0092800D02*
X0123200Y0097300D01*
X0121000Y0099500D01*
X0116900Y0095400D01*
X0116900Y0092800D01*
X0113800Y0092800D02*
X0113800Y0097200D01*
X0114997Y0097200D01*
X0115379Y0097098D01*
X0115548Y0097000D01*
X0115954Y0097000D01*
X0118400Y0099446D01*
X0118400Y0100017D01*
X0118796Y0100973D01*
X0119023Y0101200D01*
X0109877Y0101200D01*
X0109473Y0100796D01*
X0108517Y0100400D01*
X0107483Y0100400D01*
X0106527Y0100796D01*
X0106500Y0100823D01*
X0106500Y0099562D01*
X0106488Y0099550D01*
X0106500Y0099538D01*
X0106500Y0097000D01*
X0109038Y0097000D01*
X0109050Y0096988D01*
X0109062Y0097000D01*
X0112052Y0097000D01*
X0112221Y0097098D01*
X0112603Y0097200D01*
X0113800Y0097200D01*
X0113800Y0092800D01*
X0113800Y0092800D01*
X0113800Y0088400D01*
X0113800Y0088882D02*
X0113800Y0088882D01*
X0113800Y0089881D02*
X0113800Y0089881D01*
X0113800Y0090879D02*
X0113800Y0090879D01*
X0113800Y0091878D02*
X0113800Y0091878D01*
X0113800Y0092800D02*
X0113800Y0092800D01*
X0113800Y0092876D02*
X0113800Y0092876D01*
X0113800Y0093875D02*
X0113800Y0093875D01*
X0113800Y0094873D02*
X0113800Y0094873D01*
X0113800Y0095872D02*
X0113800Y0095872D01*
X0113800Y0096870D02*
X0113800Y0096870D01*
X0116823Y0097869D02*
X0106500Y0097869D01*
X0106500Y0098868D02*
X0117822Y0098868D01*
X0118400Y0099866D02*
X0106500Y0099866D01*
X0109541Y0100865D02*
X0118751Y0100865D01*
X0121500Y0103000D02*
X0108000Y0103000D01*
X0109818Y0104859D02*
X0130500Y0104859D01*
X0130500Y0105600D02*
X0130500Y0102762D01*
X0130562Y0102700D01*
X0130500Y0102638D01*
X0130500Y0099800D01*
X0127246Y0099800D01*
X0123300Y0103746D01*
X0122246Y0104800D01*
X0109877Y0104800D01*
X0109473Y0105204D01*
X0108517Y0105600D01*
X0107483Y0105600D01*
X0106527Y0105204D01*
X0106500Y0105177D01*
X0106500Y0105838D01*
X0106488Y0105850D01*
X0106500Y0105862D01*
X0106500Y0105954D01*
X0108800Y0108254D01*
X0108800Y0117724D01*
X0108973Y0117796D01*
X0109704Y0118527D01*
X0110100Y0119483D01*
X0110100Y0120517D01*
X0109900Y0121000D01*
X0112138Y0121000D01*
X0112200Y0121062D01*
X0112262Y0121000D01*
X0115152Y0121000D01*
X0115321Y0120902D01*
X0115703Y0120800D01*
X0116900Y0120800D01*
X0118097Y0120800D01*
X0118479Y0120902D01*
X0118648Y0121000D01*
X0119823Y0121000D01*
X0119796Y0120973D01*
X0119400Y0120017D01*
X0119400Y0118983D01*
X0119796Y0118027D01*
X0120527Y0117296D01*
X0121483Y0116900D01*
X0122517Y0116900D01*
X0123473Y0117296D01*
X0124204Y0118027D01*
X0124483Y0118700D01*
X0127246Y0118700D01*
X0128300Y0119754D01*
X0128300Y0121000D01*
X0130500Y0121000D01*
X0130500Y0118462D01*
X0130512Y0118450D01*
X0130500Y0118438D01*
X0130500Y0117100D01*
X0123454Y0117100D01*
X0117426Y0111072D01*
X0117117Y0111200D01*
X0116083Y0111200D01*
X0115127Y0110804D01*
X0114396Y0110073D01*
X0114000Y0109117D01*
X0114000Y0108083D01*
X0114396Y0107127D01*
X0115127Y0106396D01*
X0116083Y0106000D01*
X0117117Y0106000D01*
X0118073Y0106396D01*
X0118804Y0107127D01*
X0118968Y0107522D01*
X0119300Y0107854D01*
X0127100Y0107854D01*
X0126102Y0108853D02*
X0120298Y0108853D01*
X0119300Y0107854D02*
X0123267Y0111821D01*
X0123596Y0111027D01*
X0124327Y0110296D01*
X0125283Y0109900D01*
X0125700Y0109900D01*
X0125700Y0109254D01*
X0128300Y0106654D01*
X0129354Y0105600D01*
X0130500Y0105600D01*
X0129097Y0105857D02*
X0106496Y0105857D01*
X0107401Y0106856D02*
X0114667Y0106856D01*
X0114095Y0107854D02*
X0108400Y0107854D01*
X0108800Y0108853D02*
X0114000Y0108853D01*
X0114304Y0109851D02*
X0108800Y0109851D01*
X0108800Y0110850D02*
X0115237Y0110850D01*
X0116600Y0108600D02*
X0117500Y0108600D01*
X0124200Y0115300D01*
X0129800Y0115300D01*
X0131100Y0114000D01*
X0134400Y0114000D01*
X0134700Y0113700D01*
X0134700Y0110600D02*
X0134800Y0110500D01*
X0139000Y0110500D01*
X0141500Y0108000D01*
X0146000Y0108000D01*
X0149500Y0104500D01*
X0149500Y0100500D01*
X0141500Y0092500D01*
X0141500Y0086130D01*
X0143043Y0084587D01*
X0142957Y0084500D01*
X0145274Y0083300D02*
X0145557Y0083983D01*
X0145557Y0085017D01*
X0145161Y0085973D01*
X0144429Y0086704D01*
X0143474Y0087100D01*
X0143300Y0087100D01*
X0143300Y0091754D01*
X0145838Y0094292D01*
X0145838Y0091830D01*
X0146599Y0091069D01*
X0152002Y0091069D01*
X0152199Y0090872D01*
X0157400Y0090872D01*
X0157400Y0090128D01*
X0155600Y0090128D01*
X0155600Y0086766D01*
X0154600Y0086766D01*
X0154600Y0090128D01*
X0152540Y0090128D01*
X0152159Y0090026D01*
X0151817Y0089829D01*
X0151720Y0089731D01*
X0146599Y0089731D01*
X0145838Y0088970D01*
X0145838Y0084743D01*
X0146599Y0083982D01*
X0146936Y0083982D01*
X0146254Y0083300D01*
X0145274Y0083300D01*
X0145518Y0083890D02*
X0146844Y0083890D01*
X0145838Y0084888D02*
X0145557Y0084888D01*
X0145838Y0085887D02*
X0145196Y0085887D01*
X0145838Y0086885D02*
X0143992Y0086885D01*
X0143300Y0087884D02*
X0145838Y0087884D01*
X0145838Y0088882D02*
X0143300Y0088882D01*
X0143300Y0089881D02*
X0151907Y0089881D01*
X0152192Y0090879D02*
X0143300Y0090879D01*
X0143423Y0091878D02*
X0145838Y0091878D01*
X0145838Y0092876D02*
X0144422Y0092876D01*
X0145421Y0093875D02*
X0145838Y0093875D01*
X0148909Y0094534D02*
X0149500Y0093943D01*
X0148909Y0094534D02*
X0155100Y0094534D01*
X0154600Y0089881D02*
X0155600Y0089881D01*
X0155600Y0088882D02*
X0154600Y0088882D01*
X0154600Y0087884D02*
X0155600Y0087884D01*
X0155600Y0086885D02*
X0154600Y0086885D01*
X0154600Y0085766D02*
X0155600Y0085766D01*
X0155600Y0082404D01*
X0157400Y0082404D01*
X0157400Y0071096D01*
X0157221Y0071527D01*
X0156153Y0072595D01*
X0153611Y0075137D01*
X0153611Y0079475D01*
X0152849Y0080237D01*
X0148283Y0080237D01*
X0150246Y0082200D01*
X0151300Y0083254D01*
X0151300Y0083474D01*
X0151340Y0083325D01*
X0151538Y0082983D01*
X0151817Y0082704D01*
X0152159Y0082506D01*
X0152540Y0082404D01*
X0154600Y0082404D01*
X0154600Y0085766D01*
X0154600Y0084888D02*
X0155600Y0084888D01*
X0155600Y0083890D02*
X0154600Y0083890D01*
X0154600Y0082891D02*
X0155600Y0082891D01*
X0157400Y0081893D02*
X0149938Y0081893D01*
X0148940Y0080894D02*
X0157400Y0080894D01*
X0157400Y0079896D02*
X0153191Y0079896D01*
X0153611Y0078897D02*
X0157400Y0078897D01*
X0157400Y0077899D02*
X0153611Y0077899D01*
X0153611Y0076900D02*
X0157400Y0076900D01*
X0157400Y0075902D02*
X0153611Y0075902D01*
X0153845Y0074903D02*
X0157400Y0074903D01*
X0157400Y0073905D02*
X0154843Y0073905D01*
X0155842Y0072906D02*
X0157400Y0072906D01*
X0157400Y0071908D02*
X0156840Y0071908D01*
X0149088Y0068912D02*
X0145500Y0068912D01*
X0145500Y0067914D02*
X0149150Y0067914D01*
X0149150Y0066915D02*
X0145500Y0066915D01*
X0145500Y0065917D02*
X0149150Y0065917D01*
X0149150Y0064918D02*
X0145500Y0064918D01*
X0145500Y0063920D02*
X0149150Y0063920D01*
X0149150Y0062921D02*
X0145500Y0062921D01*
X0145500Y0061923D02*
X0149150Y0061923D01*
X0149150Y0060924D02*
X0145500Y0060924D01*
X0145500Y0059926D02*
X0149150Y0059926D01*
X0149150Y0058927D02*
X0145500Y0058927D01*
X0145500Y0057929D02*
X0149150Y0057929D01*
X0149150Y0056930D02*
X0145500Y0056930D01*
X0145500Y0055932D02*
X0149150Y0055932D01*
X0149150Y0054933D02*
X0145500Y0054933D01*
X0145500Y0053934D02*
X0149150Y0053934D01*
X0149150Y0052936D02*
X0145500Y0052936D01*
X0145600Y0051937D02*
X0149150Y0051937D01*
X0149150Y0050939D02*
X0145375Y0050939D01*
X0144617Y0049940D02*
X0149150Y0049940D01*
X0149150Y0048942D02*
X0136850Y0048942D01*
X0136850Y0049940D02*
X0141383Y0049940D01*
X0140625Y0050939D02*
X0136850Y0050939D01*
X0136850Y0051937D02*
X0140400Y0051937D01*
X0140500Y0052936D02*
X0136850Y0052936D01*
X0136850Y0053934D02*
X0140500Y0053934D01*
X0140500Y0054933D02*
X0136850Y0054933D01*
X0136850Y0055932D02*
X0140500Y0055932D01*
X0140500Y0056930D02*
X0136850Y0056930D01*
X0136850Y0057929D02*
X0140500Y0057929D01*
X0140500Y0058927D02*
X0136850Y0058927D01*
X0136850Y0059926D02*
X0140500Y0059926D01*
X0140500Y0060924D02*
X0136850Y0060924D01*
X0136850Y0061923D02*
X0140500Y0061923D01*
X0140500Y0062921D02*
X0136850Y0062921D01*
X0136850Y0063920D02*
X0140500Y0063920D01*
X0140500Y0064918D02*
X0136850Y0064918D01*
X0136850Y0065917D02*
X0140500Y0065917D01*
X0140500Y0066915D02*
X0136850Y0066915D01*
X0136850Y0067914D02*
X0140500Y0067914D01*
X0140058Y0068912D02*
X0124800Y0068912D01*
X0124800Y0069911D02*
X0128003Y0069911D01*
X0127912Y0068800D02*
X0127150Y0068038D01*
X0127150Y0036962D01*
X0127912Y0036200D01*
X0128200Y0036200D01*
X0128200Y0027949D01*
X0127731Y0026818D01*
X0127731Y0019182D01*
X0128381Y0017614D01*
X0129582Y0016413D01*
X0131151Y0015763D01*
X0132849Y0015763D01*
X0134418Y0016413D01*
X0135619Y0017614D01*
X0136268Y0019182D01*
X0136268Y0026818D01*
X0135800Y0027949D01*
X0135800Y0036200D01*
X0136088Y0036200D01*
X0136850Y0036962D01*
X0136850Y0068038D01*
X0136088Y0068800D01*
X0127912Y0068800D01*
X0127150Y0067914D02*
X0125850Y0067914D01*
X0125850Y0066915D02*
X0127150Y0066915D01*
X0127150Y0065917D02*
X0125850Y0065917D01*
X0125850Y0064918D02*
X0127150Y0064918D01*
X0127150Y0063920D02*
X0125850Y0063920D01*
X0125850Y0062921D02*
X0127150Y0062921D01*
X0127150Y0061923D02*
X0125850Y0061923D01*
X0125850Y0060924D02*
X0127150Y0060924D01*
X0127150Y0059926D02*
X0125850Y0059926D01*
X0125850Y0058927D02*
X0127150Y0058927D01*
X0127150Y0057929D02*
X0125850Y0057929D01*
X0125850Y0056930D02*
X0127150Y0056930D01*
X0127150Y0055932D02*
X0125850Y0055932D01*
X0125850Y0054933D02*
X0127150Y0054933D01*
X0127150Y0053934D02*
X0125850Y0053934D01*
X0125850Y0052936D02*
X0127150Y0052936D01*
X0127150Y0051937D02*
X0125850Y0051937D01*
X0125850Y0050939D02*
X0127150Y0050939D01*
X0127150Y0049940D02*
X0125850Y0049940D01*
X0125850Y0048942D02*
X0127150Y0048942D01*
X0127150Y0047943D02*
X0125850Y0047943D01*
X0125850Y0046945D02*
X0127150Y0046945D01*
X0127150Y0045946D02*
X0125850Y0045946D01*
X0125850Y0044948D02*
X0127150Y0044948D01*
X0127150Y0043949D02*
X0125850Y0043949D01*
X0125850Y0042951D02*
X0127150Y0042951D01*
X0127150Y0041952D02*
X0125850Y0041952D01*
X0125850Y0040954D02*
X0127150Y0040954D01*
X0127150Y0039955D02*
X0125850Y0039955D01*
X0125850Y0038957D02*
X0127150Y0038957D01*
X0127150Y0037958D02*
X0125850Y0037958D01*
X0125848Y0036960D02*
X0127152Y0036960D01*
X0128200Y0035961D02*
X0111413Y0035961D01*
X0112411Y0034963D02*
X0128200Y0034963D01*
X0128200Y0033964D02*
X0113410Y0033964D01*
X0114408Y0032966D02*
X0128200Y0032966D01*
X0128200Y0031967D02*
X0115298Y0031967D01*
X0115712Y0030969D02*
X0128200Y0030969D01*
X0128200Y0029970D02*
X0123493Y0029970D01*
X0122849Y0030237D02*
X0121151Y0030237D01*
X0119582Y0029587D01*
X0118381Y0028386D01*
X0117731Y0026818D01*
X0117731Y0019182D01*
X0118381Y0017614D01*
X0119582Y0016413D01*
X0121151Y0015763D01*
X0122849Y0015763D01*
X0124418Y0016413D01*
X0125619Y0017614D01*
X0126268Y0019182D01*
X0126268Y0026818D01*
X0125619Y0028386D01*
X0124418Y0029587D01*
X0122849Y0030237D01*
X0125033Y0028972D02*
X0128200Y0028972D01*
X0128200Y0027973D02*
X0125790Y0027973D01*
X0126203Y0026975D02*
X0127797Y0026975D01*
X0127731Y0025976D02*
X0126268Y0025976D01*
X0126268Y0024978D02*
X0127731Y0024978D01*
X0127731Y0023979D02*
X0126268Y0023979D01*
X0126268Y0022981D02*
X0127731Y0022981D01*
X0127731Y0021982D02*
X0126268Y0021982D01*
X0126268Y0020984D02*
X0127731Y0020984D01*
X0127731Y0019985D02*
X0126268Y0019985D01*
X0126187Y0018987D02*
X0127813Y0018987D01*
X0128226Y0017988D02*
X0125774Y0017988D01*
X0124995Y0016990D02*
X0129005Y0016990D01*
X0130600Y0015991D02*
X0123400Y0015991D01*
X0120600Y0015991D02*
X0113400Y0015991D01*
X0114995Y0016990D02*
X0119005Y0016990D01*
X0118226Y0017988D02*
X0115774Y0017988D01*
X0116187Y0018987D02*
X0117813Y0018987D01*
X0117731Y0019985D02*
X0116268Y0019985D01*
X0116268Y0020984D02*
X0117731Y0020984D01*
X0117731Y0021982D02*
X0116268Y0021982D01*
X0116268Y0022981D02*
X0117731Y0022981D01*
X0117731Y0023979D02*
X0116268Y0023979D01*
X0116268Y0024978D02*
X0117731Y0024978D01*
X0117731Y0025976D02*
X0116268Y0025976D01*
X0116203Y0026975D02*
X0117797Y0026975D01*
X0118210Y0027973D02*
X0115800Y0027973D01*
X0115800Y0028972D02*
X0118967Y0028972D01*
X0120507Y0029970D02*
X0115800Y0029970D01*
X0116152Y0036960D02*
X0110414Y0036960D01*
X0109416Y0037958D02*
X0116150Y0037958D01*
X0116150Y0038957D02*
X0108417Y0038957D01*
X0107419Y0039955D02*
X0116150Y0039955D01*
X0116150Y0040954D02*
X0106420Y0040954D01*
X0105422Y0041952D02*
X0116150Y0041952D01*
X0116150Y0042951D02*
X0104423Y0042951D01*
X0103850Y0043949D02*
X0116150Y0043949D01*
X0116150Y0044948D02*
X0103850Y0044948D01*
X0103850Y0045946D02*
X0116150Y0045946D01*
X0116150Y0046945D02*
X0103850Y0046945D01*
X0103850Y0047943D02*
X0116150Y0047943D01*
X0102662Y0033964D02*
X0032464Y0033964D01*
X0032237Y0032966D02*
X0103660Y0032966D01*
X0104659Y0031967D02*
X0032237Y0031967D01*
X0032237Y0030969D02*
X0035927Y0030969D01*
X0034435Y0029970D02*
X0032237Y0029970D01*
X0031810Y0028972D02*
X0033436Y0028972D01*
X0032438Y0027973D02*
X0022600Y0027973D01*
X0022600Y0026975D02*
X0031439Y0026975D01*
X0030441Y0025976D02*
X0022600Y0025976D01*
X0022600Y0024978D02*
X0025801Y0024978D01*
X0025091Y0023979D02*
X0022600Y0023979D01*
X0015505Y0016990D02*
X0015000Y0016990D01*
X0015000Y0015991D02*
X0016504Y0015991D01*
X0017502Y0014993D02*
X0015000Y0014993D01*
X0015000Y0013994D02*
X0019358Y0013994D01*
X0022418Y0012996D02*
X0015000Y0012996D01*
X0031582Y0012996D02*
X0033616Y0012996D01*
X0033962Y0012650D02*
X0065038Y0012650D01*
X0065800Y0013412D01*
X0065800Y0013700D01*
X0067256Y0013700D01*
X0068653Y0014279D01*
X0069721Y0015347D01*
X0070434Y0016060D01*
X0071151Y0015763D01*
X0072849Y0015763D01*
X0074418Y0016413D01*
X0075619Y0017614D01*
X0076268Y0019182D01*
X0076268Y0026818D01*
X0075619Y0028386D01*
X0074418Y0029587D01*
X0072849Y0030237D01*
X0071151Y0030237D01*
X0069582Y0029587D01*
X0068381Y0028386D01*
X0067731Y0026818D01*
X0067731Y0024105D01*
X0065507Y0021881D01*
X0065038Y0022350D01*
X0033962Y0022350D01*
X0033200Y0021588D01*
X0033200Y0013412D01*
X0033962Y0012650D01*
X0033200Y0013994D02*
X0032237Y0013994D01*
X0032237Y0014993D02*
X0033200Y0014993D01*
X0033200Y0015991D02*
X0032237Y0015991D01*
X0032237Y0016990D02*
X0033200Y0016990D01*
X0033200Y0017988D02*
X0032237Y0017988D01*
X0032237Y0018987D02*
X0033200Y0018987D01*
X0033200Y0019985D02*
X0032237Y0019985D01*
X0032519Y0020984D02*
X0033200Y0020984D01*
X0033518Y0021982D02*
X0033594Y0021982D01*
X0034516Y0022981D02*
X0066607Y0022981D01*
X0067605Y0023979D02*
X0035515Y0023979D01*
X0036513Y0024978D02*
X0067731Y0024978D01*
X0067731Y0025976D02*
X0054701Y0025976D01*
X0053299Y0025976D02*
X0037512Y0025976D01*
X0033649Y0034963D02*
X0033463Y0034963D01*
X0049500Y0039500D02*
X0052500Y0039500D01*
X0054200Y0038500D01*
X0054834Y0030969D02*
X0105657Y0030969D01*
X0106656Y0029970D02*
X0103493Y0029970D01*
X0102849Y0030237D02*
X0101151Y0030237D01*
X0099582Y0029587D01*
X0098381Y0028386D01*
X0097731Y0026818D01*
X0097731Y0019182D01*
X0098381Y0017614D01*
X0099582Y0016413D01*
X0101151Y0015763D01*
X0102849Y0015763D01*
X0104418Y0016413D01*
X0105619Y0017614D01*
X0106268Y0019182D01*
X0106268Y0026818D01*
X0105619Y0028386D01*
X0104418Y0029587D01*
X0102849Y0030237D01*
X0105033Y0028972D02*
X0107654Y0028972D01*
X0108200Y0027973D02*
X0105790Y0027973D01*
X0106203Y0026975D02*
X0107797Y0026975D01*
X0107731Y0025976D02*
X0106268Y0025976D01*
X0106268Y0024978D02*
X0107731Y0024978D01*
X0107731Y0023979D02*
X0106268Y0023979D01*
X0106268Y0022981D02*
X0107731Y0022981D01*
X0107731Y0021982D02*
X0106268Y0021982D01*
X0106268Y0020984D02*
X0107731Y0020984D01*
X0107731Y0019985D02*
X0106268Y0019985D01*
X0106187Y0018987D02*
X0107813Y0018987D01*
X0108226Y0017988D02*
X0105774Y0017988D01*
X0104995Y0016990D02*
X0109005Y0016990D01*
X0110600Y0015991D02*
X0103400Y0015991D01*
X0100600Y0015991D02*
X0093400Y0015991D01*
X0092849Y0015763D02*
X0091151Y0015763D01*
X0089582Y0016413D01*
X0088381Y0017614D01*
X0087731Y0019182D01*
X0087731Y0026818D01*
X0088381Y0028386D01*
X0089582Y0029587D01*
X0091151Y0030237D01*
X0092849Y0030237D01*
X0094418Y0029587D01*
X0095619Y0028386D01*
X0096268Y0026818D01*
X0096268Y0019182D01*
X0095619Y0017614D01*
X0094418Y0016413D01*
X0092849Y0015763D01*
X0090600Y0015991D02*
X0083400Y0015991D01*
X0082849Y0015763D02*
X0081151Y0015763D01*
X0079582Y0016413D01*
X0078381Y0017614D01*
X0077731Y0019182D01*
X0077731Y0026818D01*
X0078381Y0028386D01*
X0079582Y0029587D01*
X0081151Y0030237D01*
X0082849Y0030237D01*
X0084418Y0029587D01*
X0085619Y0028386D01*
X0086268Y0026818D01*
X0086268Y0019182D01*
X0085619Y0017614D01*
X0084418Y0016413D01*
X0082849Y0015763D01*
X0080600Y0015991D02*
X0073400Y0015991D01*
X0074995Y0016990D02*
X0079005Y0016990D01*
X0078226Y0017988D02*
X0075774Y0017988D01*
X0076187Y0018987D02*
X0077813Y0018987D01*
X0077731Y0019985D02*
X0076268Y0019985D01*
X0076268Y0020984D02*
X0077731Y0020984D01*
X0077731Y0021982D02*
X0076268Y0021982D01*
X0076268Y0022981D02*
X0077731Y0022981D01*
X0077731Y0023979D02*
X0076268Y0023979D01*
X0076268Y0024978D02*
X0077731Y0024978D01*
X0077731Y0025976D02*
X0076268Y0025976D01*
X0076203Y0026975D02*
X0077797Y0026975D01*
X0078210Y0027973D02*
X0075790Y0027973D01*
X0075033Y0028972D02*
X0078967Y0028972D01*
X0080507Y0029970D02*
X0073493Y0029970D01*
X0070507Y0029970D02*
X0056205Y0029970D01*
X0056600Y0028972D02*
X0068967Y0028972D01*
X0068210Y0027973D02*
X0056596Y0027973D01*
X0056152Y0026975D02*
X0067797Y0026975D01*
X0065608Y0021982D02*
X0065406Y0021982D01*
X0070365Y0015991D02*
X0070600Y0015991D01*
X0069367Y0014993D02*
X0146774Y0014993D01*
X0146360Y0015991D02*
X0143400Y0015991D01*
X0142849Y0015763D02*
X0141151Y0015763D01*
X0139582Y0016413D01*
X0138381Y0017614D01*
X0137731Y0019182D01*
X0137731Y0026818D01*
X0138381Y0028386D01*
X0139582Y0029587D01*
X0141151Y0030237D01*
X0142849Y0030237D01*
X0144418Y0029587D01*
X0145619Y0028386D01*
X0146268Y0026818D01*
X0146268Y0019182D01*
X0145619Y0017614D01*
X0144418Y0016413D01*
X0142849Y0015763D01*
X0144995Y0016990D02*
X0146250Y0016990D01*
X0146250Y0017988D02*
X0145774Y0017988D01*
X0146187Y0018987D02*
X0146351Y0018987D01*
X0146268Y0019985D02*
X0146764Y0019985D01*
X0147178Y0020984D02*
X0146268Y0020984D01*
X0146268Y0021982D02*
X0148143Y0021982D01*
X0149399Y0022981D02*
X0146268Y0022981D01*
X0146268Y0023979D02*
X0157400Y0023979D01*
X0157400Y0022981D02*
X0155601Y0022981D01*
X0156857Y0021982D02*
X0157400Y0021982D01*
X0157400Y0024978D02*
X0146268Y0024978D01*
X0146268Y0025976D02*
X0157400Y0025976D01*
X0157400Y0026975D02*
X0146203Y0026975D01*
X0145790Y0027973D02*
X0157400Y0027973D01*
X0157400Y0028972D02*
X0145033Y0028972D01*
X0143493Y0029970D02*
X0157400Y0029970D01*
X0157400Y0030969D02*
X0135800Y0030969D01*
X0135800Y0031967D02*
X0157400Y0031967D01*
X0157400Y0032966D02*
X0135800Y0032966D01*
X0135800Y0033964D02*
X0157400Y0033964D01*
X0157400Y0034963D02*
X0135800Y0034963D01*
X0135800Y0035961D02*
X0157400Y0035961D01*
X0149152Y0036960D02*
X0136848Y0036960D01*
X0136850Y0037958D02*
X0149150Y0037958D01*
X0149150Y0038957D02*
X0136850Y0038957D01*
X0136850Y0039955D02*
X0149150Y0039955D01*
X0149150Y0040954D02*
X0136850Y0040954D01*
X0136850Y0041952D02*
X0149150Y0041952D01*
X0149150Y0042951D02*
X0136850Y0042951D01*
X0136850Y0043949D02*
X0149150Y0043949D01*
X0149150Y0044948D02*
X0136850Y0044948D01*
X0136850Y0045946D02*
X0149150Y0045946D01*
X0149150Y0046945D02*
X0136850Y0046945D01*
X0136850Y0047943D02*
X0149150Y0047943D01*
X0140507Y0029970D02*
X0135800Y0029970D01*
X0135800Y0028972D02*
X0138967Y0028972D01*
X0138210Y0027973D02*
X0135800Y0027973D01*
X0136203Y0026975D02*
X0137797Y0026975D01*
X0137731Y0025976D02*
X0136268Y0025976D01*
X0136268Y0024978D02*
X0137731Y0024978D01*
X0137731Y0023979D02*
X0136268Y0023979D01*
X0136268Y0022981D02*
X0137731Y0022981D01*
X0137731Y0021982D02*
X0136268Y0021982D01*
X0136268Y0020984D02*
X0137731Y0020984D01*
X0137731Y0019985D02*
X0136268Y0019985D01*
X0136187Y0018987D02*
X0137813Y0018987D01*
X0138226Y0017988D02*
X0135774Y0017988D01*
X0134995Y0016990D02*
X0139005Y0016990D01*
X0140600Y0015991D02*
X0133400Y0015991D01*
X0147187Y0013994D02*
X0067966Y0013994D01*
X0065384Y0012996D02*
X0148166Y0012996D01*
X0101663Y0034963D02*
X0065351Y0034963D01*
X0065800Y0035961D02*
X0100665Y0035961D01*
X0100507Y0029970D02*
X0093493Y0029970D01*
X0095033Y0028972D02*
X0098967Y0028972D01*
X0098210Y0027973D02*
X0095790Y0027973D01*
X0096203Y0026975D02*
X0097797Y0026975D01*
X0097731Y0025976D02*
X0096268Y0025976D01*
X0096268Y0024978D02*
X0097731Y0024978D01*
X0097731Y0023979D02*
X0096268Y0023979D01*
X0096268Y0022981D02*
X0097731Y0022981D01*
X0097731Y0021982D02*
X0096268Y0021982D01*
X0096268Y0020984D02*
X0097731Y0020984D01*
X0097731Y0019985D02*
X0096268Y0019985D01*
X0096187Y0018987D02*
X0097813Y0018987D01*
X0098226Y0017988D02*
X0095774Y0017988D01*
X0094995Y0016990D02*
X0099005Y0016990D01*
X0089005Y0016990D02*
X0084995Y0016990D01*
X0085774Y0017988D02*
X0088226Y0017988D01*
X0087813Y0018987D02*
X0086187Y0018987D01*
X0086268Y0019985D02*
X0087731Y0019985D01*
X0087731Y0020984D02*
X0086268Y0020984D01*
X0086268Y0021982D02*
X0087731Y0021982D01*
X0087731Y0022981D02*
X0086268Y0022981D01*
X0086268Y0023979D02*
X0087731Y0023979D01*
X0087731Y0024978D02*
X0086268Y0024978D01*
X0086268Y0025976D02*
X0087731Y0025976D01*
X0087797Y0026975D02*
X0086203Y0026975D01*
X0085790Y0027973D02*
X0088210Y0027973D01*
X0088967Y0028972D02*
X0085033Y0028972D01*
X0083493Y0029970D02*
X0090507Y0029970D01*
X0094152Y0036960D02*
X0065800Y0036960D01*
X0065800Y0037958D02*
X0094150Y0037958D01*
X0094150Y0038957D02*
X0065800Y0038957D01*
X0073495Y0043949D02*
X0076531Y0043949D01*
X0076531Y0044948D02*
X0074493Y0044948D01*
X0075492Y0045946D02*
X0076531Y0045946D01*
X0076490Y0046945D02*
X0079516Y0046945D01*
X0080484Y0046945D02*
X0094150Y0046945D01*
X0094150Y0047943D02*
X0083468Y0047943D01*
X0083468Y0048942D02*
X0094150Y0048942D01*
X0094150Y0049940D02*
X0083468Y0049940D01*
X0083468Y0050939D02*
X0094150Y0050939D01*
X0094150Y0051937D02*
X0083468Y0051937D01*
X0083982Y0052936D02*
X0094150Y0052936D01*
X0094150Y0053934D02*
X0084980Y0053934D01*
X0085979Y0054933D02*
X0094150Y0054933D01*
X0094150Y0055932D02*
X0086977Y0055932D01*
X0087976Y0056930D02*
X0094150Y0056930D01*
X0094150Y0057929D02*
X0089586Y0057929D01*
X0091104Y0058927D02*
X0094150Y0058927D01*
X0094150Y0059926D02*
X0091576Y0059926D01*
X0091600Y0060924D02*
X0094150Y0060924D01*
X0094150Y0061923D02*
X0091225Y0061923D01*
X0089949Y0062921D02*
X0094150Y0062921D01*
X0086775Y0061923D02*
X0083268Y0061923D01*
X0083268Y0060924D02*
X0086400Y0060924D01*
X0085880Y0059926D02*
X0083268Y0059926D01*
X0083092Y0058927D02*
X0084881Y0058927D01*
X0083883Y0057929D02*
X0036464Y0057929D01*
X0037463Y0058927D02*
X0053417Y0058927D01*
X0065302Y0067914D02*
X0075400Y0067914D01*
X0075400Y0068912D02*
X0065800Y0068912D01*
X0065800Y0069911D02*
X0074084Y0069911D01*
X0073085Y0070909D02*
X0065800Y0070909D01*
X0054898Y0078897D02*
X0051116Y0078897D01*
X0052401Y0079896D02*
X0053169Y0079896D01*
X0050919Y0095872D02*
X0046239Y0095872D01*
X0045825Y0096870D02*
X0051890Y0096870D01*
X0037750Y0125827D02*
X0030362Y0125827D01*
X0030053Y0126826D02*
X0037750Y0126826D01*
X0037750Y0127824D02*
X0029440Y0127824D01*
X0023484Y0123830D02*
X0022516Y0123830D01*
X0022516Y0122832D02*
X0023484Y0122832D01*
X0023484Y0121833D02*
X0022516Y0121833D01*
X0022516Y0120835D02*
X0023484Y0120835D01*
X0016834Y0117839D02*
X0015000Y0117839D01*
X0015000Y0116841D02*
X0016174Y0116841D01*
X0015763Y0115842D02*
X0015000Y0115842D01*
X0015000Y0114844D02*
X0015763Y0114844D01*
X0015890Y0113845D02*
X0015000Y0113845D01*
X0015000Y0112847D02*
X0016303Y0112847D01*
X0017147Y0111848D02*
X0015000Y0111848D01*
X0015000Y0110850D02*
X0018897Y0110850D01*
X0016864Y0097869D02*
X0015000Y0097869D01*
X0015000Y0096870D02*
X0016186Y0096870D01*
X0015772Y0095872D02*
X0015000Y0095872D01*
X0015000Y0094873D02*
X0015763Y0094873D01*
X0015877Y0093875D02*
X0015000Y0093875D01*
X0015000Y0092876D02*
X0016291Y0092876D01*
X0017117Y0091878D02*
X0015000Y0091878D01*
X0015000Y0090879D02*
X0018825Y0090879D01*
X0017141Y0089881D02*
X0015000Y0089881D01*
X0015000Y0088882D02*
X0015744Y0088882D01*
X0032237Y0063920D02*
X0035809Y0063920D01*
X0034386Y0062921D02*
X0032237Y0062921D01*
X0031761Y0061923D02*
X0033387Y0061923D01*
X0032389Y0060924D02*
X0022600Y0060924D01*
X0022600Y0059926D02*
X0031390Y0059926D01*
X0035466Y0056930D02*
X0082884Y0056930D01*
X0075387Y0054933D02*
X0065455Y0054933D01*
X0073638Y0053934D02*
X0074389Y0053934D01*
X0079516Y0045946D02*
X0080484Y0045946D01*
X0080484Y0044948D02*
X0079516Y0044948D01*
X0079516Y0043949D02*
X0080484Y0043949D01*
X0080484Y0042951D02*
X0079516Y0042951D01*
X0079516Y0041952D02*
X0080484Y0041952D01*
X0080484Y0040954D02*
X0079516Y0040954D01*
X0079516Y0039955D02*
X0080484Y0039955D01*
X0083245Y0039955D02*
X0094150Y0039955D01*
X0094150Y0040954D02*
X0083468Y0040954D01*
X0083468Y0041952D02*
X0094150Y0041952D01*
X0094150Y0042951D02*
X0083468Y0042951D01*
X0083468Y0043949D02*
X0094150Y0043949D01*
X0094150Y0044948D02*
X0083468Y0044948D01*
X0083468Y0045946D02*
X0094150Y0045946D01*
X0120611Y0075902D02*
X0125696Y0075902D01*
X0126577Y0074903D02*
X0120845Y0074903D01*
X0121843Y0073905D02*
X0127389Y0073905D01*
X0127389Y0072906D02*
X0122842Y0072906D01*
X0123840Y0071908D02*
X0127389Y0071908D01*
X0127389Y0070909D02*
X0124477Y0070909D01*
X0124815Y0076900D02*
X0120611Y0076900D01*
X0120611Y0077899D02*
X0123934Y0077899D01*
X0123053Y0078897D02*
X0120611Y0078897D01*
X0126633Y0087884D02*
X0131071Y0087884D01*
X0131200Y0086885D02*
X0128274Y0086885D01*
X0129155Y0085887D02*
X0131200Y0085887D01*
X0131200Y0084888D02*
X0130036Y0084888D01*
X0130917Y0083890D02*
X0131200Y0083890D01*
X0133000Y0082000D02*
X0133500Y0081500D01*
X0147000Y0081500D01*
X0149500Y0084000D01*
X0149500Y0086857D01*
X0150937Y0082891D02*
X0151629Y0082891D01*
X0139500Y0095500D02*
X0139500Y0100000D01*
X0138500Y0101000D01*
X0134800Y0101000D01*
X0134700Y0101100D01*
X0134700Y0098000D02*
X0126500Y0098000D01*
X0121500Y0103000D01*
X0123186Y0103860D02*
X0130500Y0103860D01*
X0130500Y0102862D02*
X0124184Y0102862D01*
X0125183Y0101863D02*
X0130500Y0101863D01*
X0130500Y0100865D02*
X0126181Y0100865D01*
X0127180Y0099866D02*
X0130500Y0099866D01*
X0133500Y0093500D02*
X0137500Y0093500D01*
X0139500Y0095500D01*
X0133000Y0088500D02*
X0133000Y0082000D01*
X0133000Y0088500D02*
X0129500Y0092000D01*
X0129500Y0092800D01*
X0128099Y0106856D02*
X0118533Y0106856D01*
X0121297Y0109851D02*
X0125700Y0109851D01*
X0127500Y0110000D02*
X0127500Y0110800D01*
X0125800Y0112500D01*
X0123773Y0110850D02*
X0122295Y0110850D01*
X0120200Y0113845D02*
X0108800Y0113845D01*
X0108800Y0112847D02*
X0119201Y0112847D01*
X0118203Y0111848D02*
X0108800Y0111848D01*
X0107000Y0109000D02*
X0105500Y0107500D01*
X0102400Y0107500D01*
X0102300Y0107400D01*
X0102200Y0110500D02*
X0098500Y0110500D01*
X0097000Y0109000D01*
X0095500Y0109000D01*
X0097000Y0112000D02*
X0091000Y0112000D01*
X0089500Y0110500D01*
X0089554Y0113100D02*
X0088983Y0113100D01*
X0088027Y0112704D01*
X0087296Y0111973D01*
X0086935Y0111101D01*
X0085666Y0112369D01*
X0084000Y0114036D01*
X0084000Y0124997D01*
X0083619Y0125916D01*
X0082916Y0126619D01*
X0081036Y0128500D01*
X0087946Y0128500D01*
X0087460Y0128298D01*
X0085702Y0126540D01*
X0084750Y0124243D01*
X0084750Y0121757D01*
X0085702Y0119460D01*
X0087460Y0117702D01*
X0089757Y0116750D01*
X0092243Y0116750D01*
X0094540Y0117702D01*
X0096298Y0119460D01*
X0097250Y0121757D01*
X0097250Y0122073D01*
X0097527Y0121796D01*
X0098114Y0121553D01*
X0098100Y0121538D01*
X0098100Y0118462D01*
X0098112Y0118450D01*
X0098100Y0118438D01*
X0098100Y0115362D01*
X0098162Y0115300D01*
X0097754Y0115300D01*
X0096254Y0113800D01*
X0090254Y0113800D01*
X0089554Y0113100D01*
X0088371Y0112847D02*
X0085189Y0112847D01*
X0084190Y0113845D02*
X0096300Y0113845D01*
X0097298Y0114844D02*
X0084000Y0114844D01*
X0084000Y0115842D02*
X0098100Y0115842D01*
X0098162Y0115300D02*
X0098162Y0115300D01*
X0098100Y0116841D02*
X0092462Y0116841D01*
X0094678Y0117839D02*
X0098100Y0117839D01*
X0098100Y0118838D02*
X0095677Y0118838D01*
X0096454Y0119836D02*
X0098100Y0119836D01*
X0098100Y0120835D02*
X0096868Y0120835D01*
X0097250Y0121833D02*
X0097490Y0121833D01*
X0099000Y0124000D02*
X0106300Y0124000D01*
X0107500Y0125200D01*
X0109968Y0120835D02*
X0115573Y0120835D01*
X0116900Y0120835D02*
X0116900Y0120835D01*
X0116900Y0120800D02*
X0116900Y0125200D01*
X0116900Y0125200D01*
X0116900Y0120800D01*
X0116900Y0121833D02*
X0116900Y0121833D01*
X0116900Y0122832D02*
X0116900Y0122832D01*
X0116900Y0123830D02*
X0116900Y0123830D01*
X0116900Y0124829D02*
X0116900Y0124829D01*
X0118227Y0120835D02*
X0119739Y0120835D01*
X0119400Y0119836D02*
X0110100Y0119836D01*
X0109833Y0118838D02*
X0119460Y0118838D01*
X0119984Y0117839D02*
X0109016Y0117839D01*
X0108800Y0116841D02*
X0123195Y0116841D01*
X0124016Y0117839D02*
X0130500Y0117839D01*
X0130500Y0118838D02*
X0127383Y0118838D01*
X0128300Y0119836D02*
X0130500Y0119836D01*
X0130500Y0120835D02*
X0128300Y0120835D01*
X0126500Y0120500D02*
X0123000Y0120500D01*
X0122000Y0119500D01*
X0122197Y0115842D02*
X0108800Y0115842D01*
X0108800Y0114844D02*
X0121198Y0114844D01*
X0126500Y0120500D02*
X0126500Y0125100D01*
X0126400Y0125200D01*
X0129500Y0125200D02*
X0130300Y0128000D01*
X0149500Y0128000D01*
X0149500Y0119500D01*
X0154500Y0114500D01*
X0154500Y0113000D01*
X0149500Y0115500D02*
X0149500Y0108000D01*
X0154500Y0103000D01*
X0149500Y0115500D02*
X0147000Y0118000D01*
X0140500Y0118000D01*
X0138500Y0120000D01*
X0134700Y0120000D01*
X0134700Y0116900D02*
X0132800Y0117000D01*
X0138500Y0117000D01*
X0142500Y0113000D01*
X0144500Y0113000D01*
X0140050Y0120996D02*
X0139246Y0121800D01*
X0138638Y0121800D01*
X0138138Y0122300D01*
X0131800Y0122300D01*
X0131800Y0126200D01*
X0140064Y0126200D01*
X0140050Y0126147D01*
X0140050Y0123475D01*
X0144025Y0123475D01*
X0144025Y0122525D01*
X0140050Y0122525D01*
X0140050Y0120996D01*
X0140050Y0121833D02*
X0138605Y0121833D01*
X0140050Y0123830D02*
X0131800Y0123830D01*
X0131800Y0122832D02*
X0144025Y0122832D01*
X0140050Y0124829D02*
X0131800Y0124829D01*
X0131800Y0125827D02*
X0140050Y0125827D01*
X0127500Y0110000D02*
X0130100Y0107400D01*
X0134700Y0107400D01*
X0107500Y0120000D02*
X0107000Y0119500D01*
X0107000Y0109000D01*
X0102300Y0110600D02*
X0102200Y0110500D01*
X0102100Y0113500D02*
X0098500Y0113500D01*
X0097000Y0112000D01*
X0101500Y0113500D02*
X0102300Y0113700D01*
X0102100Y0113500D01*
X0095500Y0105028D02*
X0093528Y0105028D01*
X0093500Y0105000D01*
X0098046Y0102862D02*
X0098100Y0102862D01*
X0095620Y0097869D02*
X0095380Y0097869D01*
X0095380Y0096870D02*
X0095620Y0096870D01*
X0095620Y0095872D02*
X0098690Y0095872D01*
X0098634Y0094873D02*
X0105200Y0094873D01*
X0105200Y0093875D02*
X0098371Y0093875D01*
X0088130Y0102862D02*
X0078618Y0102862D01*
X0078538Y0103860D02*
X0087104Y0103860D01*
X0086106Y0104859D02*
X0077329Y0104859D01*
X0084250Y0110250D02*
X0084528Y0110528D01*
X0086187Y0111848D02*
X0087244Y0111848D01*
X0089538Y0116841D02*
X0084000Y0116841D01*
X0084000Y0117839D02*
X0087322Y0117839D01*
X0086323Y0118838D02*
X0084000Y0118838D01*
X0084000Y0119836D02*
X0085546Y0119836D01*
X0085132Y0120835D02*
X0084000Y0120835D01*
X0084000Y0121833D02*
X0084750Y0121833D01*
X0084750Y0122832D02*
X0084000Y0122832D01*
X0084000Y0123830D02*
X0084750Y0123830D01*
X0084993Y0124829D02*
X0084000Y0124829D01*
X0083656Y0125827D02*
X0085406Y0125827D01*
X0085987Y0126826D02*
X0082710Y0126826D01*
X0081711Y0127824D02*
X0086986Y0127824D01*
X0137249Y0069911D02*
X0139059Y0069911D01*
X0138061Y0070909D02*
X0137863Y0070909D01*
X0026324Y0058927D02*
X0022600Y0058927D01*
X0022600Y0057929D02*
X0025236Y0057929D01*
X0024900Y0056930D02*
X0022600Y0056930D01*
X0015638Y0125827D02*
X0015000Y0125827D01*
X0015000Y0126826D02*
X0015947Y0126826D01*
X0016560Y0127824D02*
X0015000Y0127824D01*
D26*
X0042000Y0107700D02*
X0042000Y0105000D01*
X0042000Y0107700D02*
X0049500Y0115200D01*
X0049500Y0124000D01*
X0053200Y0127700D01*
X0066100Y0127700D01*
X0066000Y0119300D01*
X0066100Y0127700D02*
X0078300Y0127700D01*
X0081500Y0124500D01*
X0081500Y0113000D01*
X0084250Y0110250D01*
X0089500Y0105000D01*
X0093500Y0105000D01*
X0083500Y0089000D02*
X0075543Y0096957D01*
X0075543Y0101000D01*
X0068457Y0101000D02*
X0068457Y0097457D01*
X0060000Y0089000D01*
X0061000Y0090000D01*
X0068457Y0101000D02*
X0060900Y0108357D01*
X0060900Y0110000D01*
X0054500Y0071500D02*
X0048500Y0071500D01*
X0047500Y0072500D01*
X0054000Y0061500D02*
X0036500Y0061500D01*
X0031600Y0056600D01*
X0027500Y0056600D01*
X0027500Y0051626D01*
X0027000Y0051126D01*
X0036500Y0028500D02*
X0031000Y0023000D01*
X0027500Y0023000D01*
X0027500Y0018626D01*
X0027000Y0018126D01*
X0036500Y0028500D02*
X0054000Y0028500D01*
X0104500Y0071000D02*
X0104500Y0079000D01*
X0105500Y0082000D01*
X0105500Y0080000D01*
X0104500Y0071000D02*
X0110000Y0065500D01*
X0110000Y0052000D01*
X0120000Y0051500D02*
X0120000Y0055500D01*
X0121000Y0052500D01*
X0132626Y0075000D02*
X0133126Y0078500D01*
X0137500Y0078500D01*
X0137507Y0078493D01*
X0137507Y0074998D01*
X0143000Y0069505D01*
X0143000Y0052000D01*
X0153000Y0051500D02*
X0153000Y0055500D01*
X0154000Y0052500D01*
X0135126Y0077126D02*
X0132626Y0075000D01*
X0135000Y0077000D02*
X0135126Y0077126D01*
D27*
X0137500Y0078500D03*
X0142957Y0084500D03*
X0144700Y0090100D03*
X0155500Y0080500D03*
X0147500Y0061000D03*
X0143000Y0052000D03*
X0138500Y0061000D03*
X0127000Y0069500D03*
X0121700Y0077700D03*
X0130300Y0086000D03*
X0133500Y0093500D03*
X0127500Y0102500D03*
X0121000Y0099500D03*
X0116600Y0108600D03*
X0112500Y0106500D03*
X0108000Y0103000D03*
X0111500Y0099500D03*
X0120100Y0089000D03*
X0104500Y0079000D03*
X0105500Y0061000D03*
X0110000Y0052000D03*
X0114500Y0061000D03*
X0120000Y0051500D03*
X0111000Y0038500D03*
X0126100Y0035100D03*
X0144000Y0038000D03*
X0154500Y0026000D03*
X0137000Y0015500D03*
X0117000Y0015500D03*
X0097000Y0015500D03*
X0077000Y0015500D03*
X0054000Y0028500D03*
X0054200Y0038500D03*
X0045000Y0033000D03*
X0045000Y0024000D03*
X0027500Y0023000D03*
X0016600Y0014000D03*
X0025100Y0043600D03*
X0027500Y0056600D03*
X0045000Y0057000D03*
X0045000Y0066000D03*
X0054000Y0061500D03*
X0054500Y0071500D03*
X0053000Y0078500D03*
X0046600Y0088800D03*
X0035500Y0091500D03*
X0030500Y0100000D03*
X0035300Y0106600D03*
X0048500Y0109200D03*
X0051500Y0107000D03*
X0060900Y0110000D03*
X0071000Y0112000D03*
X0085500Y0115000D03*
X0089500Y0110500D03*
X0095500Y0109000D03*
X0093500Y0105000D03*
X0096500Y0115500D03*
X0099000Y0124000D03*
X0107500Y0120000D03*
X0112000Y0118500D03*
X0122000Y0119500D03*
X0125800Y0112500D03*
X0129100Y0119300D03*
X0135000Y0124500D03*
X0085500Y0063000D03*
X0089000Y0060500D03*
X0089500Y0051500D03*
X0072500Y0070000D03*
X0072000Y0050500D03*
X0069500Y0045000D03*
X0027200Y0087700D03*
X0033700Y0120900D03*
X0153000Y0051500D03*
D28*
X0132626Y0075000D02*
X0125126Y0083500D01*
X0109000Y0083500D01*
X0105500Y0080000D01*
X0104500Y0079000D01*
X0100500Y0075000D01*
X0099626Y0075000D01*
X0097626Y0073500D01*
X0097000Y0073500D01*
X0080000Y0073500D01*
X0080000Y0065449D01*
X0080000Y0073500D02*
X0077000Y0073500D01*
X0061500Y0089000D01*
X0060000Y0089000D01*
X0055000Y0089000D01*
X0049000Y0083000D01*
X0032000Y0083000D01*
X0024200Y0075200D01*
X0020200Y0075200D01*
X0018000Y0073000D01*
X0018000Y0051000D01*
X0026874Y0051000D01*
X0027000Y0051126D01*
X0018000Y0051000D02*
X0018000Y0021000D01*
X0020500Y0018500D01*
X0026626Y0018500D01*
X0027000Y0018126D01*
D29*
X0092400Y0072257D02*
X0093643Y0073500D01*
X0097000Y0073500D01*
D30*
X0115374Y0075000D02*
X0121000Y0069374D01*
X0121000Y0052500D01*
X0132000Y0052500D02*
X0132000Y0023000D01*
X0112000Y0023000D02*
X0112000Y0030000D01*
X0099000Y0043000D01*
X0099000Y0052500D01*
X0072000Y0050500D02*
X0049500Y0050500D01*
X0049500Y0039500D02*
X0032626Y0039500D01*
X0027000Y0033874D01*
X0049500Y0017500D02*
X0066500Y0017500D01*
X0072000Y0023000D01*
X0049500Y0072500D02*
X0047500Y0072500D01*
X0032626Y0072500D01*
X0027000Y0066874D01*
X0148374Y0075000D02*
X0154000Y0069374D01*
X0154000Y0052500D01*
D31*
X0042000Y0105000D02*
X0032000Y0095000D01*
X0023000Y0095000D01*
M02*
