G75*
%MOIN*%
%OFA0B0*%
%FSLAX25Y25*%
%IPPOS*%
%LPD*%
%AMOC8*
5,1,8,0,0,1.08239X$1,22.5*
%
%ADD10C,0.05000*%
%ADD11C,0.00600*%
%ADD12C,0.00500*%
%ADD13C,0.00300*%
%ADD14C,0.00000*%
D10*
X0023500Y0108000D02*
X0038500Y0108000D01*
X0213500Y0107000D02*
X0228500Y0107000D01*
X0221000Y0099500D02*
X0221000Y0114500D01*
D11*
X0052433Y0037300D02*
X0050300Y0037300D01*
X0052433Y0037300D02*
X0052507Y0037302D01*
X0052582Y0037308D01*
X0052655Y0037318D01*
X0052729Y0037331D01*
X0052801Y0037348D01*
X0052872Y0037370D01*
X0052943Y0037394D01*
X0053011Y0037423D01*
X0053079Y0037455D01*
X0053144Y0037491D01*
X0053207Y0037529D01*
X0053269Y0037572D01*
X0053328Y0037617D01*
X0053385Y0037665D01*
X0053439Y0037716D01*
X0053490Y0037770D01*
X0053538Y0037827D01*
X0053583Y0037886D01*
X0053626Y0037948D01*
X0053664Y0038011D01*
X0053700Y0038076D01*
X0053732Y0038144D01*
X0053761Y0038212D01*
X0053785Y0038283D01*
X0053807Y0038354D01*
X0053824Y0038426D01*
X0053837Y0038500D01*
X0053847Y0038573D01*
X0053853Y0038648D01*
X0053855Y0038722D01*
X0053856Y0038722D02*
X0053856Y0039433D01*
X0053855Y0039433D02*
X0053853Y0039507D01*
X0053847Y0039582D01*
X0053837Y0039655D01*
X0053824Y0039729D01*
X0053807Y0039801D01*
X0053785Y0039872D01*
X0053761Y0039943D01*
X0053732Y0040011D01*
X0053700Y0040079D01*
X0053664Y0040144D01*
X0053626Y0040207D01*
X0053583Y0040269D01*
X0053538Y0040328D01*
X0053490Y0040385D01*
X0053439Y0040439D01*
X0053385Y0040490D01*
X0053328Y0040538D01*
X0053269Y0040583D01*
X0053207Y0040626D01*
X0053144Y0040664D01*
X0053079Y0040700D01*
X0053011Y0040732D01*
X0052943Y0040761D01*
X0052872Y0040785D01*
X0052801Y0040807D01*
X0052729Y0040824D01*
X0052655Y0040837D01*
X0052582Y0040847D01*
X0052507Y0040853D01*
X0052433Y0040855D01*
X0052433Y0040856D02*
X0050300Y0040856D01*
X0050300Y0043700D01*
X0053856Y0043700D01*
X0077300Y0040856D02*
X0077300Y0039078D01*
X0077300Y0040856D02*
X0079433Y0040856D01*
X0077300Y0040856D02*
X0077302Y0040962D01*
X0077308Y0041069D01*
X0077318Y0041174D01*
X0077332Y0041280D01*
X0077350Y0041385D01*
X0077371Y0041489D01*
X0077397Y0041592D01*
X0077426Y0041694D01*
X0077460Y0041795D01*
X0077497Y0041895D01*
X0077537Y0041993D01*
X0077582Y0042090D01*
X0077630Y0042185D01*
X0077681Y0042278D01*
X0077736Y0042369D01*
X0077794Y0042458D01*
X0077856Y0042545D01*
X0077920Y0042629D01*
X0077988Y0042711D01*
X0078059Y0042790D01*
X0078133Y0042867D01*
X0078210Y0042941D01*
X0078289Y0043012D01*
X0078371Y0043080D01*
X0078455Y0043144D01*
X0078542Y0043206D01*
X0078631Y0043264D01*
X0078722Y0043319D01*
X0078815Y0043370D01*
X0078910Y0043418D01*
X0079007Y0043463D01*
X0079105Y0043503D01*
X0079205Y0043540D01*
X0079306Y0043574D01*
X0079408Y0043603D01*
X0079511Y0043629D01*
X0079615Y0043650D01*
X0079720Y0043668D01*
X0079826Y0043682D01*
X0079931Y0043692D01*
X0080038Y0043698D01*
X0080144Y0043700D01*
X0079433Y0040855D02*
X0079507Y0040853D01*
X0079582Y0040847D01*
X0079655Y0040837D01*
X0079729Y0040824D01*
X0079801Y0040807D01*
X0079872Y0040785D01*
X0079943Y0040761D01*
X0080011Y0040732D01*
X0080079Y0040700D01*
X0080144Y0040664D01*
X0080207Y0040626D01*
X0080269Y0040583D01*
X0080328Y0040538D01*
X0080385Y0040490D01*
X0080439Y0040439D01*
X0080490Y0040385D01*
X0080538Y0040328D01*
X0080583Y0040269D01*
X0080626Y0040207D01*
X0080664Y0040144D01*
X0080700Y0040079D01*
X0080732Y0040011D01*
X0080761Y0039943D01*
X0080785Y0039872D01*
X0080807Y0039801D01*
X0080824Y0039729D01*
X0080837Y0039655D01*
X0080847Y0039582D01*
X0080853Y0039507D01*
X0080855Y0039433D01*
X0080856Y0039433D02*
X0080856Y0039078D01*
X0080854Y0038995D01*
X0080848Y0038912D01*
X0080838Y0038829D01*
X0080825Y0038746D01*
X0080807Y0038665D01*
X0080786Y0038584D01*
X0080761Y0038505D01*
X0080732Y0038427D01*
X0080700Y0038350D01*
X0080664Y0038275D01*
X0080625Y0038201D01*
X0080582Y0038130D01*
X0080536Y0038060D01*
X0080486Y0037993D01*
X0080434Y0037928D01*
X0080379Y0037866D01*
X0080320Y0037806D01*
X0080259Y0037749D01*
X0080196Y0037695D01*
X0080130Y0037644D01*
X0080061Y0037597D01*
X0079991Y0037552D01*
X0079918Y0037511D01*
X0079844Y0037474D01*
X0079768Y0037439D01*
X0079690Y0037409D01*
X0079612Y0037382D01*
X0079531Y0037359D01*
X0079450Y0037339D01*
X0079368Y0037324D01*
X0079286Y0037312D01*
X0079203Y0037304D01*
X0079120Y0037300D01*
X0079036Y0037300D01*
X0078953Y0037304D01*
X0078870Y0037312D01*
X0078788Y0037324D01*
X0078706Y0037339D01*
X0078625Y0037359D01*
X0078544Y0037382D01*
X0078466Y0037409D01*
X0078388Y0037439D01*
X0078312Y0037474D01*
X0078238Y0037511D01*
X0078165Y0037552D01*
X0078095Y0037597D01*
X0078026Y0037644D01*
X0077960Y0037695D01*
X0077897Y0037749D01*
X0077836Y0037806D01*
X0077777Y0037866D01*
X0077722Y0037928D01*
X0077670Y0037993D01*
X0077620Y0038060D01*
X0077574Y0038130D01*
X0077531Y0038201D01*
X0077492Y0038275D01*
X0077456Y0038350D01*
X0077424Y0038427D01*
X0077395Y0038505D01*
X0077370Y0038584D01*
X0077349Y0038665D01*
X0077331Y0038746D01*
X0077318Y0038829D01*
X0077308Y0038912D01*
X0077302Y0038995D01*
X0077300Y0039078D01*
X0098578Y0054800D02*
X0100356Y0061200D01*
X0096800Y0061200D01*
X0096800Y0060489D01*
X0097300Y0087578D02*
X0097302Y0087495D01*
X0097308Y0087412D01*
X0097318Y0087329D01*
X0097331Y0087246D01*
X0097349Y0087165D01*
X0097370Y0087084D01*
X0097395Y0087005D01*
X0097424Y0086927D01*
X0097456Y0086850D01*
X0097492Y0086775D01*
X0097531Y0086701D01*
X0097574Y0086630D01*
X0097620Y0086560D01*
X0097670Y0086493D01*
X0097722Y0086428D01*
X0097777Y0086366D01*
X0097836Y0086306D01*
X0097897Y0086249D01*
X0097960Y0086195D01*
X0098026Y0086144D01*
X0098095Y0086097D01*
X0098165Y0086052D01*
X0098238Y0086011D01*
X0098312Y0085974D01*
X0098388Y0085939D01*
X0098466Y0085909D01*
X0098544Y0085882D01*
X0098625Y0085859D01*
X0098706Y0085839D01*
X0098788Y0085824D01*
X0098870Y0085812D01*
X0098953Y0085804D01*
X0099036Y0085800D01*
X0099120Y0085800D01*
X0099203Y0085804D01*
X0099286Y0085812D01*
X0099368Y0085824D01*
X0099450Y0085839D01*
X0099531Y0085859D01*
X0099612Y0085882D01*
X0099690Y0085909D01*
X0099768Y0085939D01*
X0099844Y0085974D01*
X0099918Y0086011D01*
X0099991Y0086052D01*
X0100061Y0086097D01*
X0100130Y0086144D01*
X0100196Y0086195D01*
X0100259Y0086249D01*
X0100320Y0086306D01*
X0100379Y0086366D01*
X0100434Y0086428D01*
X0100486Y0086493D01*
X0100536Y0086560D01*
X0100582Y0086630D01*
X0100625Y0086701D01*
X0100664Y0086775D01*
X0100700Y0086850D01*
X0100732Y0086927D01*
X0100761Y0087005D01*
X0100786Y0087084D01*
X0100807Y0087165D01*
X0100825Y0087246D01*
X0100838Y0087329D01*
X0100848Y0087412D01*
X0100854Y0087495D01*
X0100856Y0087578D01*
X0100854Y0087661D01*
X0100848Y0087744D01*
X0100838Y0087827D01*
X0100825Y0087910D01*
X0100807Y0087991D01*
X0100786Y0088072D01*
X0100761Y0088151D01*
X0100732Y0088229D01*
X0100700Y0088306D01*
X0100664Y0088381D01*
X0100625Y0088455D01*
X0100582Y0088526D01*
X0100536Y0088596D01*
X0100486Y0088663D01*
X0100434Y0088728D01*
X0100379Y0088790D01*
X0100320Y0088850D01*
X0100259Y0088907D01*
X0100196Y0088961D01*
X0100130Y0089012D01*
X0100061Y0089059D01*
X0099991Y0089104D01*
X0099918Y0089145D01*
X0099844Y0089182D01*
X0099768Y0089217D01*
X0099690Y0089247D01*
X0099612Y0089274D01*
X0099531Y0089297D01*
X0099450Y0089317D01*
X0099368Y0089332D01*
X0099286Y0089344D01*
X0099203Y0089352D01*
X0099120Y0089356D01*
X0099036Y0089356D01*
X0098953Y0089352D01*
X0098870Y0089344D01*
X0098788Y0089332D01*
X0098706Y0089317D01*
X0098625Y0089297D01*
X0098544Y0089274D01*
X0098466Y0089247D01*
X0098388Y0089217D01*
X0098312Y0089182D01*
X0098238Y0089145D01*
X0098165Y0089104D01*
X0098095Y0089059D01*
X0098026Y0089012D01*
X0097960Y0088961D01*
X0097897Y0088907D01*
X0097836Y0088850D01*
X0097777Y0088790D01*
X0097722Y0088728D01*
X0097670Y0088663D01*
X0097620Y0088596D01*
X0097574Y0088526D01*
X0097531Y0088455D01*
X0097492Y0088381D01*
X0097456Y0088306D01*
X0097424Y0088229D01*
X0097395Y0088151D01*
X0097370Y0088072D01*
X0097349Y0087991D01*
X0097331Y0087910D01*
X0097318Y0087827D01*
X0097308Y0087744D01*
X0097302Y0087661D01*
X0097300Y0087578D01*
X0097656Y0090778D02*
X0097658Y0090704D01*
X0097664Y0090629D01*
X0097674Y0090556D01*
X0097687Y0090482D01*
X0097704Y0090410D01*
X0097726Y0090339D01*
X0097750Y0090268D01*
X0097779Y0090200D01*
X0097811Y0090132D01*
X0097847Y0090067D01*
X0097885Y0090004D01*
X0097928Y0089942D01*
X0097973Y0089883D01*
X0098021Y0089826D01*
X0098072Y0089772D01*
X0098126Y0089721D01*
X0098183Y0089673D01*
X0098242Y0089628D01*
X0098304Y0089585D01*
X0098367Y0089547D01*
X0098432Y0089511D01*
X0098500Y0089479D01*
X0098568Y0089450D01*
X0098639Y0089426D01*
X0098710Y0089404D01*
X0098782Y0089387D01*
X0098856Y0089374D01*
X0098929Y0089364D01*
X0099004Y0089358D01*
X0099078Y0089356D01*
X0099152Y0089358D01*
X0099227Y0089364D01*
X0099300Y0089374D01*
X0099374Y0089387D01*
X0099446Y0089404D01*
X0099517Y0089426D01*
X0099588Y0089450D01*
X0099656Y0089479D01*
X0099724Y0089511D01*
X0099789Y0089547D01*
X0099852Y0089585D01*
X0099914Y0089628D01*
X0099973Y0089673D01*
X0100030Y0089721D01*
X0100084Y0089772D01*
X0100135Y0089826D01*
X0100183Y0089883D01*
X0100228Y0089942D01*
X0100271Y0090004D01*
X0100309Y0090067D01*
X0100345Y0090132D01*
X0100377Y0090200D01*
X0100406Y0090268D01*
X0100430Y0090339D01*
X0100452Y0090410D01*
X0100469Y0090482D01*
X0100482Y0090556D01*
X0100492Y0090629D01*
X0100498Y0090704D01*
X0100500Y0090778D01*
X0100498Y0090852D01*
X0100492Y0090927D01*
X0100482Y0091000D01*
X0100469Y0091074D01*
X0100452Y0091146D01*
X0100430Y0091217D01*
X0100406Y0091288D01*
X0100377Y0091356D01*
X0100345Y0091424D01*
X0100309Y0091489D01*
X0100271Y0091552D01*
X0100228Y0091614D01*
X0100183Y0091673D01*
X0100135Y0091730D01*
X0100084Y0091784D01*
X0100030Y0091835D01*
X0099973Y0091883D01*
X0099914Y0091928D01*
X0099852Y0091971D01*
X0099789Y0092009D01*
X0099724Y0092045D01*
X0099656Y0092077D01*
X0099588Y0092106D01*
X0099517Y0092130D01*
X0099446Y0092152D01*
X0099374Y0092169D01*
X0099300Y0092182D01*
X0099227Y0092192D01*
X0099152Y0092198D01*
X0099078Y0092200D01*
X0099004Y0092198D01*
X0098929Y0092192D01*
X0098856Y0092182D01*
X0098782Y0092169D01*
X0098710Y0092152D01*
X0098639Y0092130D01*
X0098568Y0092106D01*
X0098500Y0092077D01*
X0098432Y0092045D01*
X0098367Y0092009D01*
X0098304Y0091971D01*
X0098242Y0091928D01*
X0098183Y0091883D01*
X0098126Y0091835D01*
X0098072Y0091784D01*
X0098021Y0091730D01*
X0097973Y0091673D01*
X0097928Y0091614D01*
X0097885Y0091552D01*
X0097847Y0091489D01*
X0097811Y0091424D01*
X0097779Y0091356D01*
X0097750Y0091288D01*
X0097726Y0091217D01*
X0097704Y0091146D01*
X0097687Y0091074D01*
X0097674Y0091000D01*
X0097664Y0090927D01*
X0097658Y0090852D01*
X0097656Y0090778D01*
X0079856Y0105300D02*
X0076300Y0105300D01*
X0078078Y0105300D02*
X0078078Y0111700D01*
X0076300Y0110278D01*
X0052356Y0105300D02*
X0048800Y0105300D01*
X0051822Y0108856D01*
X0050756Y0111700D02*
X0050667Y0111698D01*
X0050578Y0111692D01*
X0050489Y0111683D01*
X0050401Y0111669D01*
X0050314Y0111652D01*
X0050227Y0111631D01*
X0050141Y0111606D01*
X0050057Y0111578D01*
X0049974Y0111545D01*
X0049892Y0111510D01*
X0049812Y0111470D01*
X0049734Y0111428D01*
X0049657Y0111382D01*
X0049583Y0111333D01*
X0049511Y0111280D01*
X0049441Y0111225D01*
X0049374Y0111166D01*
X0049309Y0111105D01*
X0049247Y0111041D01*
X0049188Y0110974D01*
X0049132Y0110905D01*
X0049079Y0110833D01*
X0049029Y0110759D01*
X0048982Y0110683D01*
X0048939Y0110606D01*
X0048899Y0110526D01*
X0048862Y0110445D01*
X0048829Y0110362D01*
X0048800Y0110277D01*
X0051823Y0108855D02*
X0051880Y0108913D01*
X0051936Y0108974D01*
X0051988Y0109037D01*
X0052037Y0109102D01*
X0052083Y0109170D01*
X0052125Y0109240D01*
X0052165Y0109312D01*
X0052200Y0109385D01*
X0052233Y0109461D01*
X0052261Y0109537D01*
X0052286Y0109615D01*
X0052307Y0109694D01*
X0052325Y0109774D01*
X0052338Y0109855D01*
X0052348Y0109936D01*
X0052354Y0110018D01*
X0052356Y0110100D01*
X0052354Y0110179D01*
X0052348Y0110257D01*
X0052339Y0110335D01*
X0052325Y0110412D01*
X0052308Y0110489D01*
X0052287Y0110564D01*
X0052262Y0110639D01*
X0052234Y0110712D01*
X0052202Y0110784D01*
X0052167Y0110854D01*
X0052128Y0110923D01*
X0052086Y0110989D01*
X0052041Y0111053D01*
X0051993Y0111115D01*
X0051942Y0111174D01*
X0051887Y0111231D01*
X0051830Y0111286D01*
X0051771Y0111337D01*
X0051709Y0111385D01*
X0051645Y0111430D01*
X0051579Y0111472D01*
X0051510Y0111511D01*
X0051440Y0111546D01*
X0051368Y0111578D01*
X0051295Y0111606D01*
X0051220Y0111631D01*
X0051145Y0111652D01*
X0051068Y0111669D01*
X0050991Y0111683D01*
X0050913Y0111692D01*
X0050835Y0111698D01*
X0050756Y0111700D01*
X0029433Y0091700D02*
X0027300Y0091700D01*
X0029433Y0091700D02*
X0029507Y0091698D01*
X0029582Y0091692D01*
X0029655Y0091682D01*
X0029729Y0091669D01*
X0029801Y0091652D01*
X0029872Y0091630D01*
X0029943Y0091606D01*
X0030011Y0091577D01*
X0030079Y0091545D01*
X0030144Y0091509D01*
X0030207Y0091471D01*
X0030269Y0091428D01*
X0030328Y0091383D01*
X0030385Y0091335D01*
X0030439Y0091284D01*
X0030490Y0091230D01*
X0030538Y0091173D01*
X0030583Y0091114D01*
X0030626Y0091052D01*
X0030664Y0090989D01*
X0030700Y0090924D01*
X0030732Y0090856D01*
X0030761Y0090788D01*
X0030785Y0090717D01*
X0030807Y0090646D01*
X0030824Y0090574D01*
X0030837Y0090500D01*
X0030847Y0090427D01*
X0030853Y0090352D01*
X0030855Y0090278D01*
X0030853Y0090204D01*
X0030847Y0090129D01*
X0030837Y0090056D01*
X0030824Y0089982D01*
X0030807Y0089910D01*
X0030785Y0089839D01*
X0030761Y0089768D01*
X0030732Y0089700D01*
X0030700Y0089632D01*
X0030664Y0089567D01*
X0030626Y0089504D01*
X0030583Y0089442D01*
X0030538Y0089383D01*
X0030490Y0089326D01*
X0030439Y0089272D01*
X0030385Y0089221D01*
X0030328Y0089173D01*
X0030269Y0089128D01*
X0030207Y0089085D01*
X0030144Y0089047D01*
X0030079Y0089011D01*
X0030011Y0088979D01*
X0029943Y0088950D01*
X0029872Y0088926D01*
X0029801Y0088904D01*
X0029729Y0088887D01*
X0029655Y0088874D01*
X0029582Y0088864D01*
X0029507Y0088858D01*
X0029433Y0088856D01*
X0028011Y0088856D01*
X0029078Y0088856D02*
X0029161Y0088854D01*
X0029244Y0088848D01*
X0029327Y0088838D01*
X0029410Y0088825D01*
X0029491Y0088807D01*
X0029572Y0088786D01*
X0029651Y0088761D01*
X0029729Y0088732D01*
X0029806Y0088700D01*
X0029881Y0088664D01*
X0029955Y0088625D01*
X0030026Y0088582D01*
X0030096Y0088536D01*
X0030163Y0088486D01*
X0030228Y0088434D01*
X0030290Y0088379D01*
X0030350Y0088320D01*
X0030407Y0088259D01*
X0030461Y0088196D01*
X0030512Y0088130D01*
X0030559Y0088061D01*
X0030604Y0087991D01*
X0030645Y0087918D01*
X0030682Y0087844D01*
X0030717Y0087768D01*
X0030747Y0087690D01*
X0030774Y0087612D01*
X0030797Y0087531D01*
X0030817Y0087450D01*
X0030832Y0087368D01*
X0030844Y0087286D01*
X0030852Y0087203D01*
X0030856Y0087120D01*
X0030856Y0087036D01*
X0030852Y0086953D01*
X0030844Y0086870D01*
X0030832Y0086788D01*
X0030817Y0086706D01*
X0030797Y0086625D01*
X0030774Y0086544D01*
X0030747Y0086466D01*
X0030717Y0086388D01*
X0030682Y0086312D01*
X0030645Y0086238D01*
X0030604Y0086165D01*
X0030559Y0086095D01*
X0030512Y0086026D01*
X0030461Y0085960D01*
X0030407Y0085897D01*
X0030350Y0085836D01*
X0030290Y0085777D01*
X0030228Y0085722D01*
X0030163Y0085670D01*
X0030096Y0085620D01*
X0030026Y0085574D01*
X0029955Y0085531D01*
X0029881Y0085492D01*
X0029806Y0085456D01*
X0029729Y0085424D01*
X0029651Y0085395D01*
X0029572Y0085370D01*
X0029491Y0085349D01*
X0029410Y0085331D01*
X0029327Y0085318D01*
X0029244Y0085308D01*
X0029161Y0085302D01*
X0029078Y0085300D01*
X0027300Y0085300D01*
X0030222Y0064700D02*
X0028800Y0059722D01*
X0032356Y0059722D01*
X0031289Y0061144D02*
X0031289Y0058300D01*
X0150800Y0057300D02*
X0154356Y0057300D01*
X0152578Y0057300D02*
X0152578Y0063700D01*
X0150800Y0062278D01*
X0156954Y0060856D02*
X0156954Y0063700D01*
X0160510Y0063700D01*
X0159087Y0060856D02*
X0156954Y0060856D01*
X0159087Y0060855D02*
X0159161Y0060853D01*
X0159236Y0060847D01*
X0159309Y0060837D01*
X0159383Y0060824D01*
X0159455Y0060807D01*
X0159526Y0060785D01*
X0159597Y0060761D01*
X0159665Y0060732D01*
X0159733Y0060700D01*
X0159798Y0060664D01*
X0159861Y0060626D01*
X0159923Y0060583D01*
X0159982Y0060538D01*
X0160039Y0060490D01*
X0160093Y0060439D01*
X0160144Y0060385D01*
X0160192Y0060328D01*
X0160237Y0060269D01*
X0160280Y0060207D01*
X0160318Y0060144D01*
X0160354Y0060079D01*
X0160386Y0060011D01*
X0160415Y0059943D01*
X0160439Y0059872D01*
X0160461Y0059801D01*
X0160478Y0059729D01*
X0160491Y0059655D01*
X0160501Y0059582D01*
X0160507Y0059507D01*
X0160509Y0059433D01*
X0160510Y0059433D02*
X0160510Y0058722D01*
X0160509Y0058722D02*
X0160507Y0058648D01*
X0160501Y0058573D01*
X0160491Y0058500D01*
X0160478Y0058426D01*
X0160461Y0058354D01*
X0160439Y0058283D01*
X0160415Y0058212D01*
X0160386Y0058144D01*
X0160354Y0058076D01*
X0160318Y0058011D01*
X0160280Y0057948D01*
X0160237Y0057886D01*
X0160192Y0057827D01*
X0160144Y0057770D01*
X0160093Y0057716D01*
X0160039Y0057665D01*
X0159982Y0057617D01*
X0159923Y0057572D01*
X0159861Y0057529D01*
X0159798Y0057491D01*
X0159733Y0057455D01*
X0159665Y0057423D01*
X0159597Y0057394D01*
X0159526Y0057370D01*
X0159455Y0057348D01*
X0159383Y0057331D01*
X0159309Y0057318D01*
X0159236Y0057308D01*
X0159161Y0057302D01*
X0159087Y0057300D01*
X0156954Y0057300D01*
X0169300Y0042278D02*
X0171078Y0043700D01*
X0171078Y0037300D01*
X0169300Y0037300D02*
X0172856Y0037300D01*
X0175454Y0038722D02*
X0179010Y0038722D01*
X0177943Y0040144D02*
X0177943Y0037300D01*
X0175454Y0038722D02*
X0176876Y0043700D01*
X0197300Y0042278D02*
X0199078Y0043700D01*
X0199078Y0037300D01*
X0197300Y0037300D02*
X0200856Y0037300D01*
X0203454Y0037300D02*
X0205232Y0037300D01*
X0205315Y0037302D01*
X0205398Y0037308D01*
X0205481Y0037318D01*
X0205564Y0037331D01*
X0205645Y0037349D01*
X0205726Y0037370D01*
X0205805Y0037395D01*
X0205883Y0037424D01*
X0205960Y0037456D01*
X0206035Y0037492D01*
X0206109Y0037531D01*
X0206180Y0037574D01*
X0206250Y0037620D01*
X0206317Y0037670D01*
X0206382Y0037722D01*
X0206444Y0037777D01*
X0206504Y0037836D01*
X0206561Y0037897D01*
X0206615Y0037960D01*
X0206666Y0038026D01*
X0206713Y0038095D01*
X0206758Y0038165D01*
X0206799Y0038238D01*
X0206836Y0038312D01*
X0206871Y0038388D01*
X0206901Y0038466D01*
X0206928Y0038544D01*
X0206951Y0038625D01*
X0206971Y0038706D01*
X0206986Y0038788D01*
X0206998Y0038870D01*
X0207006Y0038953D01*
X0207010Y0039036D01*
X0207010Y0039120D01*
X0207006Y0039203D01*
X0206998Y0039286D01*
X0206986Y0039368D01*
X0206971Y0039450D01*
X0206951Y0039531D01*
X0206928Y0039612D01*
X0206901Y0039690D01*
X0206871Y0039768D01*
X0206836Y0039844D01*
X0206799Y0039918D01*
X0206758Y0039991D01*
X0206713Y0040061D01*
X0206666Y0040130D01*
X0206615Y0040196D01*
X0206561Y0040259D01*
X0206504Y0040320D01*
X0206444Y0040379D01*
X0206382Y0040434D01*
X0206317Y0040486D01*
X0206250Y0040536D01*
X0206180Y0040582D01*
X0206109Y0040625D01*
X0206035Y0040664D01*
X0205960Y0040700D01*
X0205883Y0040732D01*
X0205805Y0040761D01*
X0205726Y0040786D01*
X0205645Y0040807D01*
X0205564Y0040825D01*
X0205481Y0040838D01*
X0205398Y0040848D01*
X0205315Y0040854D01*
X0205232Y0040856D01*
X0205587Y0040856D02*
X0204165Y0040856D01*
X0205587Y0040856D02*
X0205661Y0040858D01*
X0205736Y0040864D01*
X0205809Y0040874D01*
X0205883Y0040887D01*
X0205955Y0040904D01*
X0206026Y0040926D01*
X0206097Y0040950D01*
X0206165Y0040979D01*
X0206233Y0041011D01*
X0206298Y0041047D01*
X0206361Y0041085D01*
X0206423Y0041128D01*
X0206482Y0041173D01*
X0206539Y0041221D01*
X0206593Y0041272D01*
X0206644Y0041326D01*
X0206692Y0041383D01*
X0206737Y0041442D01*
X0206780Y0041504D01*
X0206818Y0041567D01*
X0206854Y0041632D01*
X0206886Y0041700D01*
X0206915Y0041768D01*
X0206939Y0041839D01*
X0206961Y0041910D01*
X0206978Y0041982D01*
X0206991Y0042056D01*
X0207001Y0042129D01*
X0207007Y0042204D01*
X0207009Y0042278D01*
X0207007Y0042352D01*
X0207001Y0042427D01*
X0206991Y0042500D01*
X0206978Y0042574D01*
X0206961Y0042646D01*
X0206939Y0042717D01*
X0206915Y0042788D01*
X0206886Y0042856D01*
X0206854Y0042924D01*
X0206818Y0042989D01*
X0206780Y0043052D01*
X0206737Y0043114D01*
X0206692Y0043173D01*
X0206644Y0043230D01*
X0206593Y0043284D01*
X0206539Y0043335D01*
X0206482Y0043383D01*
X0206423Y0043428D01*
X0206361Y0043471D01*
X0206298Y0043509D01*
X0206233Y0043545D01*
X0206165Y0043577D01*
X0206097Y0043606D01*
X0206026Y0043630D01*
X0205955Y0043652D01*
X0205883Y0043669D01*
X0205809Y0043682D01*
X0205736Y0043692D01*
X0205661Y0043698D01*
X0205587Y0043700D01*
X0203454Y0043700D01*
X0217800Y0057300D02*
X0221356Y0057300D01*
X0219578Y0057300D02*
X0219578Y0063700D01*
X0217800Y0062278D01*
X0223954Y0057300D02*
X0227510Y0057300D01*
X0223954Y0057300D02*
X0226976Y0060856D01*
X0225910Y0063700D02*
X0225821Y0063698D01*
X0225732Y0063692D01*
X0225643Y0063683D01*
X0225555Y0063669D01*
X0225468Y0063652D01*
X0225381Y0063631D01*
X0225295Y0063606D01*
X0225211Y0063578D01*
X0225128Y0063545D01*
X0225046Y0063510D01*
X0224966Y0063470D01*
X0224888Y0063428D01*
X0224811Y0063382D01*
X0224737Y0063333D01*
X0224665Y0063280D01*
X0224595Y0063225D01*
X0224528Y0063166D01*
X0224463Y0063105D01*
X0224401Y0063041D01*
X0224342Y0062974D01*
X0224286Y0062905D01*
X0224233Y0062833D01*
X0224183Y0062759D01*
X0224136Y0062683D01*
X0224093Y0062606D01*
X0224053Y0062526D01*
X0224016Y0062445D01*
X0223983Y0062362D01*
X0223954Y0062277D01*
X0226977Y0060855D02*
X0227034Y0060913D01*
X0227090Y0060974D01*
X0227142Y0061037D01*
X0227191Y0061102D01*
X0227237Y0061170D01*
X0227279Y0061240D01*
X0227319Y0061312D01*
X0227354Y0061385D01*
X0227387Y0061461D01*
X0227415Y0061537D01*
X0227440Y0061615D01*
X0227461Y0061694D01*
X0227479Y0061774D01*
X0227492Y0061855D01*
X0227502Y0061936D01*
X0227508Y0062018D01*
X0227510Y0062100D01*
X0227508Y0062179D01*
X0227502Y0062257D01*
X0227493Y0062335D01*
X0227479Y0062412D01*
X0227462Y0062489D01*
X0227441Y0062564D01*
X0227416Y0062639D01*
X0227388Y0062712D01*
X0227356Y0062784D01*
X0227321Y0062854D01*
X0227282Y0062923D01*
X0227240Y0062989D01*
X0227195Y0063053D01*
X0227147Y0063115D01*
X0227096Y0063174D01*
X0227041Y0063231D01*
X0226984Y0063286D01*
X0226925Y0063337D01*
X0226863Y0063385D01*
X0226799Y0063430D01*
X0226733Y0063472D01*
X0226664Y0063511D01*
X0226594Y0063546D01*
X0226522Y0063578D01*
X0226449Y0063606D01*
X0226374Y0063631D01*
X0226299Y0063652D01*
X0226222Y0063669D01*
X0226145Y0063683D01*
X0226067Y0063692D01*
X0225989Y0063698D01*
X0225910Y0063700D01*
X0226732Y0085300D02*
X0226732Y0091700D01*
X0224954Y0090278D01*
X0220578Y0091700D02*
X0220578Y0085300D01*
X0218800Y0085300D02*
X0222356Y0085300D01*
X0224954Y0085300D02*
X0228510Y0085300D01*
X0220578Y0091700D02*
X0218800Y0090278D01*
X0202856Y0104800D02*
X0199300Y0104800D01*
X0201078Y0104800D02*
X0201078Y0111200D01*
X0199300Y0109778D01*
X0209009Y0108000D02*
X0209007Y0107859D01*
X0209001Y0107719D01*
X0208992Y0107578D01*
X0208979Y0107438D01*
X0208962Y0107298D01*
X0208942Y0107159D01*
X0208917Y0107021D01*
X0208889Y0106883D01*
X0208858Y0106746D01*
X0208822Y0106609D01*
X0208783Y0106474D01*
X0208741Y0106340D01*
X0208695Y0106207D01*
X0208645Y0106075D01*
X0208592Y0105945D01*
X0208536Y0105816D01*
X0208476Y0105689D01*
X0207232Y0104800D02*
X0207161Y0104802D01*
X0207090Y0104808D01*
X0207020Y0104817D01*
X0206950Y0104831D01*
X0206881Y0104848D01*
X0206814Y0104868D01*
X0206747Y0104893D01*
X0206682Y0104921D01*
X0206618Y0104952D01*
X0206556Y0104987D01*
X0206496Y0105025D01*
X0206438Y0105066D01*
X0206383Y0105110D01*
X0206330Y0105158D01*
X0206280Y0105208D01*
X0206232Y0105260D01*
X0206187Y0105315D01*
X0206146Y0105373D01*
X0206107Y0105433D01*
X0206072Y0105494D01*
X0206040Y0105558D01*
X0206012Y0105623D01*
X0205987Y0105689D01*
X0205810Y0106222D02*
X0208654Y0109778D01*
X0208477Y0110311D02*
X0208452Y0110377D01*
X0208424Y0110442D01*
X0208392Y0110506D01*
X0208357Y0110567D01*
X0208318Y0110627D01*
X0208277Y0110685D01*
X0208232Y0110740D01*
X0208184Y0110792D01*
X0208134Y0110842D01*
X0208081Y0110890D01*
X0208026Y0110934D01*
X0207968Y0110975D01*
X0207908Y0111013D01*
X0207846Y0111048D01*
X0207782Y0111079D01*
X0207717Y0111107D01*
X0207650Y0111132D01*
X0207583Y0111152D01*
X0207514Y0111169D01*
X0207444Y0111183D01*
X0207374Y0111192D01*
X0207303Y0111198D01*
X0207232Y0111200D01*
X0207161Y0111198D01*
X0207090Y0111192D01*
X0207020Y0111183D01*
X0206950Y0111169D01*
X0206881Y0111152D01*
X0206814Y0111132D01*
X0206747Y0111107D01*
X0206682Y0111079D01*
X0206618Y0111048D01*
X0206556Y0111013D01*
X0206496Y0110975D01*
X0206438Y0110934D01*
X0206383Y0110890D01*
X0206330Y0110842D01*
X0206280Y0110792D01*
X0206232Y0110740D01*
X0206187Y0110685D01*
X0206146Y0110627D01*
X0206107Y0110567D01*
X0206072Y0110506D01*
X0206040Y0110442D01*
X0206012Y0110377D01*
X0205987Y0110311D01*
X0208476Y0110311D02*
X0208536Y0110184D01*
X0208592Y0110055D01*
X0208645Y0109925D01*
X0208695Y0109793D01*
X0208741Y0109660D01*
X0208783Y0109526D01*
X0208822Y0109391D01*
X0208858Y0109254D01*
X0208889Y0109117D01*
X0208917Y0108979D01*
X0208942Y0108841D01*
X0208962Y0108702D01*
X0208979Y0108562D01*
X0208992Y0108422D01*
X0209001Y0108281D01*
X0209007Y0108141D01*
X0209009Y0108000D01*
X0205454Y0108000D02*
X0205456Y0108141D01*
X0205462Y0108281D01*
X0205471Y0108422D01*
X0205484Y0108562D01*
X0205501Y0108702D01*
X0205521Y0108841D01*
X0205546Y0108979D01*
X0205574Y0109117D01*
X0205605Y0109254D01*
X0205641Y0109391D01*
X0205680Y0109526D01*
X0205722Y0109660D01*
X0205768Y0109793D01*
X0205818Y0109925D01*
X0205871Y0110055D01*
X0205927Y0110184D01*
X0205987Y0110311D01*
X0205454Y0108000D02*
X0205456Y0107859D01*
X0205462Y0107719D01*
X0205471Y0107578D01*
X0205484Y0107438D01*
X0205501Y0107298D01*
X0205521Y0107159D01*
X0205546Y0107021D01*
X0205574Y0106883D01*
X0205605Y0106746D01*
X0205641Y0106609D01*
X0205680Y0106474D01*
X0205722Y0106340D01*
X0205768Y0106207D01*
X0205818Y0106075D01*
X0205871Y0105945D01*
X0205927Y0105816D01*
X0205987Y0105689D01*
X0207232Y0104800D02*
X0207303Y0104802D01*
X0207374Y0104808D01*
X0207444Y0104817D01*
X0207514Y0104831D01*
X0207583Y0104848D01*
X0207650Y0104868D01*
X0207717Y0104893D01*
X0207782Y0104921D01*
X0207846Y0104952D01*
X0207908Y0104987D01*
X0207968Y0105025D01*
X0208025Y0105066D01*
X0208081Y0105110D01*
X0208134Y0105158D01*
X0208184Y0105208D01*
X0208232Y0105260D01*
X0208277Y0105315D01*
X0208318Y0105373D01*
X0208357Y0105433D01*
X0208392Y0105494D01*
X0208424Y0105558D01*
X0208452Y0105623D01*
X0208477Y0105689D01*
X0177356Y0107644D02*
X0177356Y0109422D01*
X0177356Y0107644D02*
X0175222Y0107644D01*
X0177355Y0107644D02*
X0177353Y0107540D01*
X0177347Y0107436D01*
X0177338Y0107333D01*
X0177325Y0107230D01*
X0177308Y0107127D01*
X0177287Y0107026D01*
X0177263Y0106925D01*
X0177234Y0106825D01*
X0177203Y0106726D01*
X0177167Y0106628D01*
X0177128Y0106532D01*
X0177086Y0106437D01*
X0177040Y0106344D01*
X0176991Y0106252D01*
X0176939Y0106162D01*
X0176883Y0106075D01*
X0176824Y0105989D01*
X0176762Y0105906D01*
X0176697Y0105825D01*
X0176629Y0105746D01*
X0176558Y0105670D01*
X0176485Y0105597D01*
X0176409Y0105526D01*
X0176330Y0105458D01*
X0176249Y0105393D01*
X0176166Y0105331D01*
X0176080Y0105272D01*
X0175993Y0105216D01*
X0175903Y0105164D01*
X0175811Y0105115D01*
X0175718Y0105069D01*
X0175623Y0105027D01*
X0175527Y0104988D01*
X0175429Y0104952D01*
X0175330Y0104921D01*
X0175230Y0104892D01*
X0175129Y0104868D01*
X0175028Y0104847D01*
X0174925Y0104830D01*
X0174822Y0104817D01*
X0174719Y0104808D01*
X0174615Y0104802D01*
X0174511Y0104800D01*
X0173800Y0109067D02*
X0173800Y0109422D01*
X0173800Y0109067D02*
X0173802Y0108993D01*
X0173808Y0108918D01*
X0173818Y0108845D01*
X0173831Y0108771D01*
X0173848Y0108699D01*
X0173870Y0108628D01*
X0173894Y0108557D01*
X0173923Y0108489D01*
X0173955Y0108421D01*
X0173991Y0108356D01*
X0174029Y0108293D01*
X0174072Y0108231D01*
X0174117Y0108172D01*
X0174165Y0108115D01*
X0174216Y0108061D01*
X0174270Y0108010D01*
X0174327Y0107962D01*
X0174386Y0107917D01*
X0174448Y0107874D01*
X0174511Y0107836D01*
X0174576Y0107800D01*
X0174644Y0107768D01*
X0174712Y0107739D01*
X0174783Y0107715D01*
X0174854Y0107693D01*
X0174926Y0107676D01*
X0175000Y0107663D01*
X0175073Y0107653D01*
X0175148Y0107647D01*
X0175222Y0107645D01*
X0173800Y0109422D02*
X0173802Y0109505D01*
X0173808Y0109588D01*
X0173818Y0109671D01*
X0173831Y0109754D01*
X0173849Y0109835D01*
X0173870Y0109916D01*
X0173895Y0109995D01*
X0173924Y0110073D01*
X0173956Y0110150D01*
X0173992Y0110225D01*
X0174031Y0110299D01*
X0174074Y0110370D01*
X0174120Y0110440D01*
X0174170Y0110507D01*
X0174222Y0110572D01*
X0174277Y0110634D01*
X0174336Y0110694D01*
X0174397Y0110751D01*
X0174460Y0110805D01*
X0174526Y0110856D01*
X0174595Y0110903D01*
X0174665Y0110948D01*
X0174738Y0110989D01*
X0174812Y0111026D01*
X0174888Y0111061D01*
X0174966Y0111091D01*
X0175044Y0111118D01*
X0175125Y0111141D01*
X0175206Y0111161D01*
X0175288Y0111176D01*
X0175370Y0111188D01*
X0175453Y0111196D01*
X0175536Y0111200D01*
X0175620Y0111200D01*
X0175703Y0111196D01*
X0175786Y0111188D01*
X0175868Y0111176D01*
X0175950Y0111161D01*
X0176031Y0111141D01*
X0176112Y0111118D01*
X0176190Y0111091D01*
X0176268Y0111061D01*
X0176344Y0111026D01*
X0176418Y0110989D01*
X0176491Y0110948D01*
X0176561Y0110903D01*
X0176630Y0110856D01*
X0176696Y0110805D01*
X0176759Y0110751D01*
X0176820Y0110694D01*
X0176879Y0110634D01*
X0176934Y0110572D01*
X0176986Y0110507D01*
X0177036Y0110440D01*
X0177082Y0110370D01*
X0177125Y0110299D01*
X0177164Y0110225D01*
X0177200Y0110150D01*
X0177232Y0110073D01*
X0177261Y0109995D01*
X0177286Y0109916D01*
X0177307Y0109835D01*
X0177325Y0109754D01*
X0177338Y0109671D01*
X0177348Y0109588D01*
X0177354Y0109505D01*
X0177356Y0109422D01*
X0153078Y0094700D02*
X0153078Y0088300D01*
X0151300Y0088300D02*
X0154856Y0088300D01*
X0157454Y0090078D02*
X0157454Y0091856D01*
X0159587Y0091856D01*
X0157454Y0091856D02*
X0157456Y0091962D01*
X0157462Y0092069D01*
X0157472Y0092174D01*
X0157486Y0092280D01*
X0157504Y0092385D01*
X0157525Y0092489D01*
X0157551Y0092592D01*
X0157580Y0092694D01*
X0157614Y0092795D01*
X0157651Y0092895D01*
X0157691Y0092993D01*
X0157736Y0093090D01*
X0157784Y0093185D01*
X0157835Y0093278D01*
X0157890Y0093369D01*
X0157948Y0093458D01*
X0158010Y0093545D01*
X0158074Y0093629D01*
X0158142Y0093711D01*
X0158213Y0093790D01*
X0158287Y0093867D01*
X0158364Y0093941D01*
X0158443Y0094012D01*
X0158525Y0094080D01*
X0158609Y0094144D01*
X0158696Y0094206D01*
X0158785Y0094264D01*
X0158876Y0094319D01*
X0158969Y0094370D01*
X0159064Y0094418D01*
X0159161Y0094463D01*
X0159259Y0094503D01*
X0159359Y0094540D01*
X0159460Y0094574D01*
X0159562Y0094603D01*
X0159665Y0094629D01*
X0159769Y0094650D01*
X0159874Y0094668D01*
X0159980Y0094682D01*
X0160085Y0094692D01*
X0160192Y0094698D01*
X0160298Y0094700D01*
X0159587Y0091855D02*
X0159661Y0091853D01*
X0159736Y0091847D01*
X0159809Y0091837D01*
X0159883Y0091824D01*
X0159955Y0091807D01*
X0160026Y0091785D01*
X0160097Y0091761D01*
X0160165Y0091732D01*
X0160233Y0091700D01*
X0160298Y0091664D01*
X0160361Y0091626D01*
X0160423Y0091583D01*
X0160482Y0091538D01*
X0160539Y0091490D01*
X0160593Y0091439D01*
X0160644Y0091385D01*
X0160692Y0091328D01*
X0160737Y0091269D01*
X0160780Y0091207D01*
X0160818Y0091144D01*
X0160854Y0091079D01*
X0160886Y0091011D01*
X0160915Y0090943D01*
X0160939Y0090872D01*
X0160961Y0090801D01*
X0160978Y0090729D01*
X0160991Y0090655D01*
X0161001Y0090582D01*
X0161007Y0090507D01*
X0161009Y0090433D01*
X0161010Y0090433D02*
X0161010Y0090078D01*
X0161008Y0089995D01*
X0161002Y0089912D01*
X0160992Y0089829D01*
X0160979Y0089746D01*
X0160961Y0089665D01*
X0160940Y0089584D01*
X0160915Y0089505D01*
X0160886Y0089427D01*
X0160854Y0089350D01*
X0160818Y0089275D01*
X0160779Y0089201D01*
X0160736Y0089130D01*
X0160690Y0089060D01*
X0160640Y0088993D01*
X0160588Y0088928D01*
X0160533Y0088866D01*
X0160474Y0088806D01*
X0160413Y0088749D01*
X0160350Y0088695D01*
X0160284Y0088644D01*
X0160215Y0088597D01*
X0160145Y0088552D01*
X0160072Y0088511D01*
X0159998Y0088474D01*
X0159922Y0088439D01*
X0159844Y0088409D01*
X0159766Y0088382D01*
X0159685Y0088359D01*
X0159604Y0088339D01*
X0159522Y0088324D01*
X0159440Y0088312D01*
X0159357Y0088304D01*
X0159274Y0088300D01*
X0159190Y0088300D01*
X0159107Y0088304D01*
X0159024Y0088312D01*
X0158942Y0088324D01*
X0158860Y0088339D01*
X0158779Y0088359D01*
X0158698Y0088382D01*
X0158620Y0088409D01*
X0158542Y0088439D01*
X0158466Y0088474D01*
X0158392Y0088511D01*
X0158319Y0088552D01*
X0158249Y0088597D01*
X0158180Y0088644D01*
X0158114Y0088695D01*
X0158051Y0088749D01*
X0157990Y0088806D01*
X0157931Y0088866D01*
X0157876Y0088928D01*
X0157824Y0088993D01*
X0157774Y0089060D01*
X0157728Y0089130D01*
X0157685Y0089201D01*
X0157646Y0089275D01*
X0157610Y0089350D01*
X0157578Y0089427D01*
X0157549Y0089505D01*
X0157524Y0089584D01*
X0157503Y0089665D01*
X0157485Y0089746D01*
X0157472Y0089829D01*
X0157462Y0089912D01*
X0157456Y0089995D01*
X0157454Y0090078D01*
X0153078Y0094700D02*
X0151300Y0093278D01*
D12*
X0163902Y0098907D02*
X0163902Y0118593D01*
X0089098Y0118593D01*
X0089098Y0098907D01*
X0163902Y0098907D01*
D13*
X0086980Y0101026D02*
X0086980Y0101430D01*
X0086978Y0101485D01*
X0086972Y0101540D01*
X0086963Y0101594D01*
X0086950Y0101648D01*
X0086933Y0101701D01*
X0086913Y0101752D01*
X0086889Y0101802D01*
X0086862Y0101850D01*
X0086832Y0101896D01*
X0086799Y0101940D01*
X0086763Y0101982D01*
X0086724Y0102021D01*
X0086682Y0102057D01*
X0086638Y0102090D01*
X0086592Y0102120D01*
X0086544Y0102147D01*
X0086494Y0102171D01*
X0086443Y0102191D01*
X0086390Y0102208D01*
X0086336Y0102221D01*
X0086282Y0102230D01*
X0086227Y0102236D01*
X0086172Y0102238D01*
X0083343Y0102238D01*
X0084151Y0103865D02*
X0083343Y0104875D01*
X0086980Y0104875D01*
X0086980Y0103865D02*
X0086980Y0105886D01*
D14*
X0122500Y0108750D02*
X0130500Y0108750D01*
X0126500Y0104750D02*
X0126500Y0112750D01*
M02*
