%
M48
M72
T01C0.01400
T02C0.02756
T03C0.10000
T04C0.25600
%
T01
X29000Y34750
X35000Y48750
X19000Y74750
X31000Y101750
X67000Y117750
X89000Y111750
X98000Y98650
X103000Y73750
X136000Y67750
X148000Y75750
X152000Y70750
X152000Y83750
X167000Y104750
X188000Y111750
X182000Y125750
X215000Y96750
X235000Y104750
X232000Y72750
X217000Y44750
X222000Y31750
X191000Y32750
X158000Y41750
X155000Y31750
X104000Y39750
X90000Y42750
X65000Y22750
T02
X95004Y104813
X102878Y104813
X110752Y104813
X118626Y104813
X126500Y104813
X134374Y104813
X142248Y104813
X150122Y104813
X157996Y104813
X157996Y112687
X150122Y112687
X142248Y112687
X134374Y112687
X126500Y112687
X118626Y112687
X110752Y112687
X102878Y112687
X95004Y112687
T03
X44866Y27556
X83134Y27556
X110194Y54616
X142806Y54616
X169866Y27556
X208134Y27556
X235194Y54616
X235194Y92884
X208134Y119944
X169866Y119944
X142806Y92884
X110194Y92884
X83134Y119940
X44866Y119940
X17806Y92884
X17806Y54616
T04
X64000Y73750
X189000Y73750
M30
