G75*
%MOIN*%
%OFA0B0*%
%FSLAX25Y25*%
%IPPOS*%
%LPD*%
%AMOC8*
5,1,8,0,0,1.08239X$1,22.5*
%
%ADD10C,0.15000*%
%ADD11C,0.00100*%
%ADD12R,0.04756X0.04756*%
%ADD13C,0.04756*%
%ADD14C,0.14000*%
%ADD15C,0.01600*%
%ADD16C,0.03000*%
%ADD17C,0.29600*%
%ADD18C,0.01000*%
D10*
X0041500Y0073750D02*
X0041507Y0074302D01*
X0041527Y0074854D01*
X0041561Y0075405D01*
X0041608Y0075955D01*
X0041669Y0076504D01*
X0041744Y0077051D01*
X0041831Y0077597D01*
X0041932Y0078140D01*
X0042047Y0078680D01*
X0042174Y0079217D01*
X0042315Y0079751D01*
X0042469Y0080281D01*
X0042636Y0080808D01*
X0042815Y0081330D01*
X0043008Y0081848D01*
X0043213Y0082360D01*
X0043430Y0082868D01*
X0043660Y0083370D01*
X0043902Y0083866D01*
X0044157Y0084356D01*
X0044423Y0084840D01*
X0044701Y0085317D01*
X0044991Y0085787D01*
X0045292Y0086250D01*
X0045604Y0086706D01*
X0045928Y0087153D01*
X0046262Y0087593D01*
X0046607Y0088024D01*
X0046963Y0088446D01*
X0047329Y0088860D01*
X0047704Y0089265D01*
X0048090Y0089660D01*
X0048485Y0090046D01*
X0048890Y0090421D01*
X0049304Y0090787D01*
X0049726Y0091143D01*
X0050157Y0091488D01*
X0050597Y0091822D01*
X0051044Y0092146D01*
X0051500Y0092458D01*
X0051963Y0092759D01*
X0052433Y0093049D01*
X0052910Y0093327D01*
X0053394Y0093593D01*
X0053884Y0093848D01*
X0054380Y0094090D01*
X0054882Y0094320D01*
X0055390Y0094537D01*
X0055902Y0094742D01*
X0056420Y0094935D01*
X0056942Y0095114D01*
X0057469Y0095281D01*
X0057999Y0095435D01*
X0058533Y0095576D01*
X0059070Y0095703D01*
X0059610Y0095818D01*
X0060153Y0095919D01*
X0060699Y0096006D01*
X0061246Y0096081D01*
X0061795Y0096142D01*
X0062345Y0096189D01*
X0062896Y0096223D01*
X0063448Y0096243D01*
X0064000Y0096250D01*
X0064552Y0096243D01*
X0065104Y0096223D01*
X0065655Y0096189D01*
X0066205Y0096142D01*
X0066754Y0096081D01*
X0067301Y0096006D01*
X0067847Y0095919D01*
X0068390Y0095818D01*
X0068930Y0095703D01*
X0069467Y0095576D01*
X0070001Y0095435D01*
X0070531Y0095281D01*
X0071058Y0095114D01*
X0071580Y0094935D01*
X0072098Y0094742D01*
X0072610Y0094537D01*
X0073118Y0094320D01*
X0073620Y0094090D01*
X0074116Y0093848D01*
X0074606Y0093593D01*
X0075090Y0093327D01*
X0075567Y0093049D01*
X0076037Y0092759D01*
X0076500Y0092458D01*
X0076956Y0092146D01*
X0077403Y0091822D01*
X0077843Y0091488D01*
X0078274Y0091143D01*
X0078696Y0090787D01*
X0079110Y0090421D01*
X0079515Y0090046D01*
X0079910Y0089660D01*
X0080296Y0089265D01*
X0080671Y0088860D01*
X0081037Y0088446D01*
X0081393Y0088024D01*
X0081738Y0087593D01*
X0082072Y0087153D01*
X0082396Y0086706D01*
X0082708Y0086250D01*
X0083009Y0085787D01*
X0083299Y0085317D01*
X0083577Y0084840D01*
X0083843Y0084356D01*
X0084098Y0083866D01*
X0084340Y0083370D01*
X0084570Y0082868D01*
X0084787Y0082360D01*
X0084992Y0081848D01*
X0085185Y0081330D01*
X0085364Y0080808D01*
X0085531Y0080281D01*
X0085685Y0079751D01*
X0085826Y0079217D01*
X0085953Y0078680D01*
X0086068Y0078140D01*
X0086169Y0077597D01*
X0086256Y0077051D01*
X0086331Y0076504D01*
X0086392Y0075955D01*
X0086439Y0075405D01*
X0086473Y0074854D01*
X0086493Y0074302D01*
X0086500Y0073750D01*
X0086493Y0073198D01*
X0086473Y0072646D01*
X0086439Y0072095D01*
X0086392Y0071545D01*
X0086331Y0070996D01*
X0086256Y0070449D01*
X0086169Y0069903D01*
X0086068Y0069360D01*
X0085953Y0068820D01*
X0085826Y0068283D01*
X0085685Y0067749D01*
X0085531Y0067219D01*
X0085364Y0066692D01*
X0085185Y0066170D01*
X0084992Y0065652D01*
X0084787Y0065140D01*
X0084570Y0064632D01*
X0084340Y0064130D01*
X0084098Y0063634D01*
X0083843Y0063144D01*
X0083577Y0062660D01*
X0083299Y0062183D01*
X0083009Y0061713D01*
X0082708Y0061250D01*
X0082396Y0060794D01*
X0082072Y0060347D01*
X0081738Y0059907D01*
X0081393Y0059476D01*
X0081037Y0059054D01*
X0080671Y0058640D01*
X0080296Y0058235D01*
X0079910Y0057840D01*
X0079515Y0057454D01*
X0079110Y0057079D01*
X0078696Y0056713D01*
X0078274Y0056357D01*
X0077843Y0056012D01*
X0077403Y0055678D01*
X0076956Y0055354D01*
X0076500Y0055042D01*
X0076037Y0054741D01*
X0075567Y0054451D01*
X0075090Y0054173D01*
X0074606Y0053907D01*
X0074116Y0053652D01*
X0073620Y0053410D01*
X0073118Y0053180D01*
X0072610Y0052963D01*
X0072098Y0052758D01*
X0071580Y0052565D01*
X0071058Y0052386D01*
X0070531Y0052219D01*
X0070001Y0052065D01*
X0069467Y0051924D01*
X0068930Y0051797D01*
X0068390Y0051682D01*
X0067847Y0051581D01*
X0067301Y0051494D01*
X0066754Y0051419D01*
X0066205Y0051358D01*
X0065655Y0051311D01*
X0065104Y0051277D01*
X0064552Y0051257D01*
X0064000Y0051250D01*
X0063448Y0051257D01*
X0062896Y0051277D01*
X0062345Y0051311D01*
X0061795Y0051358D01*
X0061246Y0051419D01*
X0060699Y0051494D01*
X0060153Y0051581D01*
X0059610Y0051682D01*
X0059070Y0051797D01*
X0058533Y0051924D01*
X0057999Y0052065D01*
X0057469Y0052219D01*
X0056942Y0052386D01*
X0056420Y0052565D01*
X0055902Y0052758D01*
X0055390Y0052963D01*
X0054882Y0053180D01*
X0054380Y0053410D01*
X0053884Y0053652D01*
X0053394Y0053907D01*
X0052910Y0054173D01*
X0052433Y0054451D01*
X0051963Y0054741D01*
X0051500Y0055042D01*
X0051044Y0055354D01*
X0050597Y0055678D01*
X0050157Y0056012D01*
X0049726Y0056357D01*
X0049304Y0056713D01*
X0048890Y0057079D01*
X0048485Y0057454D01*
X0048090Y0057840D01*
X0047704Y0058235D01*
X0047329Y0058640D01*
X0046963Y0059054D01*
X0046607Y0059476D01*
X0046262Y0059907D01*
X0045928Y0060347D01*
X0045604Y0060794D01*
X0045292Y0061250D01*
X0044991Y0061713D01*
X0044701Y0062183D01*
X0044423Y0062660D01*
X0044157Y0063144D01*
X0043902Y0063634D01*
X0043660Y0064130D01*
X0043430Y0064632D01*
X0043213Y0065140D01*
X0043008Y0065652D01*
X0042815Y0066170D01*
X0042636Y0066692D01*
X0042469Y0067219D01*
X0042315Y0067749D01*
X0042174Y0068283D01*
X0042047Y0068820D01*
X0041932Y0069360D01*
X0041831Y0069903D01*
X0041744Y0070449D01*
X0041669Y0070996D01*
X0041608Y0071545D01*
X0041561Y0072095D01*
X0041527Y0072646D01*
X0041507Y0073198D01*
X0041500Y0073750D01*
X0166500Y0073750D02*
X0166507Y0074302D01*
X0166527Y0074854D01*
X0166561Y0075405D01*
X0166608Y0075955D01*
X0166669Y0076504D01*
X0166744Y0077051D01*
X0166831Y0077597D01*
X0166932Y0078140D01*
X0167047Y0078680D01*
X0167174Y0079217D01*
X0167315Y0079751D01*
X0167469Y0080281D01*
X0167636Y0080808D01*
X0167815Y0081330D01*
X0168008Y0081848D01*
X0168213Y0082360D01*
X0168430Y0082868D01*
X0168660Y0083370D01*
X0168902Y0083866D01*
X0169157Y0084356D01*
X0169423Y0084840D01*
X0169701Y0085317D01*
X0169991Y0085787D01*
X0170292Y0086250D01*
X0170604Y0086706D01*
X0170928Y0087153D01*
X0171262Y0087593D01*
X0171607Y0088024D01*
X0171963Y0088446D01*
X0172329Y0088860D01*
X0172704Y0089265D01*
X0173090Y0089660D01*
X0173485Y0090046D01*
X0173890Y0090421D01*
X0174304Y0090787D01*
X0174726Y0091143D01*
X0175157Y0091488D01*
X0175597Y0091822D01*
X0176044Y0092146D01*
X0176500Y0092458D01*
X0176963Y0092759D01*
X0177433Y0093049D01*
X0177910Y0093327D01*
X0178394Y0093593D01*
X0178884Y0093848D01*
X0179380Y0094090D01*
X0179882Y0094320D01*
X0180390Y0094537D01*
X0180902Y0094742D01*
X0181420Y0094935D01*
X0181942Y0095114D01*
X0182469Y0095281D01*
X0182999Y0095435D01*
X0183533Y0095576D01*
X0184070Y0095703D01*
X0184610Y0095818D01*
X0185153Y0095919D01*
X0185699Y0096006D01*
X0186246Y0096081D01*
X0186795Y0096142D01*
X0187345Y0096189D01*
X0187896Y0096223D01*
X0188448Y0096243D01*
X0189000Y0096250D01*
X0189552Y0096243D01*
X0190104Y0096223D01*
X0190655Y0096189D01*
X0191205Y0096142D01*
X0191754Y0096081D01*
X0192301Y0096006D01*
X0192847Y0095919D01*
X0193390Y0095818D01*
X0193930Y0095703D01*
X0194467Y0095576D01*
X0195001Y0095435D01*
X0195531Y0095281D01*
X0196058Y0095114D01*
X0196580Y0094935D01*
X0197098Y0094742D01*
X0197610Y0094537D01*
X0198118Y0094320D01*
X0198620Y0094090D01*
X0199116Y0093848D01*
X0199606Y0093593D01*
X0200090Y0093327D01*
X0200567Y0093049D01*
X0201037Y0092759D01*
X0201500Y0092458D01*
X0201956Y0092146D01*
X0202403Y0091822D01*
X0202843Y0091488D01*
X0203274Y0091143D01*
X0203696Y0090787D01*
X0204110Y0090421D01*
X0204515Y0090046D01*
X0204910Y0089660D01*
X0205296Y0089265D01*
X0205671Y0088860D01*
X0206037Y0088446D01*
X0206393Y0088024D01*
X0206738Y0087593D01*
X0207072Y0087153D01*
X0207396Y0086706D01*
X0207708Y0086250D01*
X0208009Y0085787D01*
X0208299Y0085317D01*
X0208577Y0084840D01*
X0208843Y0084356D01*
X0209098Y0083866D01*
X0209340Y0083370D01*
X0209570Y0082868D01*
X0209787Y0082360D01*
X0209992Y0081848D01*
X0210185Y0081330D01*
X0210364Y0080808D01*
X0210531Y0080281D01*
X0210685Y0079751D01*
X0210826Y0079217D01*
X0210953Y0078680D01*
X0211068Y0078140D01*
X0211169Y0077597D01*
X0211256Y0077051D01*
X0211331Y0076504D01*
X0211392Y0075955D01*
X0211439Y0075405D01*
X0211473Y0074854D01*
X0211493Y0074302D01*
X0211500Y0073750D01*
X0211493Y0073198D01*
X0211473Y0072646D01*
X0211439Y0072095D01*
X0211392Y0071545D01*
X0211331Y0070996D01*
X0211256Y0070449D01*
X0211169Y0069903D01*
X0211068Y0069360D01*
X0210953Y0068820D01*
X0210826Y0068283D01*
X0210685Y0067749D01*
X0210531Y0067219D01*
X0210364Y0066692D01*
X0210185Y0066170D01*
X0209992Y0065652D01*
X0209787Y0065140D01*
X0209570Y0064632D01*
X0209340Y0064130D01*
X0209098Y0063634D01*
X0208843Y0063144D01*
X0208577Y0062660D01*
X0208299Y0062183D01*
X0208009Y0061713D01*
X0207708Y0061250D01*
X0207396Y0060794D01*
X0207072Y0060347D01*
X0206738Y0059907D01*
X0206393Y0059476D01*
X0206037Y0059054D01*
X0205671Y0058640D01*
X0205296Y0058235D01*
X0204910Y0057840D01*
X0204515Y0057454D01*
X0204110Y0057079D01*
X0203696Y0056713D01*
X0203274Y0056357D01*
X0202843Y0056012D01*
X0202403Y0055678D01*
X0201956Y0055354D01*
X0201500Y0055042D01*
X0201037Y0054741D01*
X0200567Y0054451D01*
X0200090Y0054173D01*
X0199606Y0053907D01*
X0199116Y0053652D01*
X0198620Y0053410D01*
X0198118Y0053180D01*
X0197610Y0052963D01*
X0197098Y0052758D01*
X0196580Y0052565D01*
X0196058Y0052386D01*
X0195531Y0052219D01*
X0195001Y0052065D01*
X0194467Y0051924D01*
X0193930Y0051797D01*
X0193390Y0051682D01*
X0192847Y0051581D01*
X0192301Y0051494D01*
X0191754Y0051419D01*
X0191205Y0051358D01*
X0190655Y0051311D01*
X0190104Y0051277D01*
X0189552Y0051257D01*
X0189000Y0051250D01*
X0188448Y0051257D01*
X0187896Y0051277D01*
X0187345Y0051311D01*
X0186795Y0051358D01*
X0186246Y0051419D01*
X0185699Y0051494D01*
X0185153Y0051581D01*
X0184610Y0051682D01*
X0184070Y0051797D01*
X0183533Y0051924D01*
X0182999Y0052065D01*
X0182469Y0052219D01*
X0181942Y0052386D01*
X0181420Y0052565D01*
X0180902Y0052758D01*
X0180390Y0052963D01*
X0179882Y0053180D01*
X0179380Y0053410D01*
X0178884Y0053652D01*
X0178394Y0053907D01*
X0177910Y0054173D01*
X0177433Y0054451D01*
X0176963Y0054741D01*
X0176500Y0055042D01*
X0176044Y0055354D01*
X0175597Y0055678D01*
X0175157Y0056012D01*
X0174726Y0056357D01*
X0174304Y0056713D01*
X0173890Y0057079D01*
X0173485Y0057454D01*
X0173090Y0057840D01*
X0172704Y0058235D01*
X0172329Y0058640D01*
X0171963Y0059054D01*
X0171607Y0059476D01*
X0171262Y0059907D01*
X0170928Y0060347D01*
X0170604Y0060794D01*
X0170292Y0061250D01*
X0169991Y0061713D01*
X0169701Y0062183D01*
X0169423Y0062660D01*
X0169157Y0063144D01*
X0168902Y0063634D01*
X0168660Y0064130D01*
X0168430Y0064632D01*
X0168213Y0065140D01*
X0168008Y0065652D01*
X0167815Y0066170D01*
X0167636Y0066692D01*
X0167469Y0067219D01*
X0167315Y0067749D01*
X0167174Y0068283D01*
X0167047Y0068820D01*
X0166932Y0069360D01*
X0166831Y0069903D01*
X0166744Y0070449D01*
X0166669Y0070996D01*
X0166608Y0071545D01*
X0166561Y0072095D01*
X0166527Y0072646D01*
X0166507Y0073198D01*
X0166500Y0073750D01*
D11*
X0137276Y0043342D02*
X0138035Y0042087D01*
X0138825Y0040850D01*
X0139644Y0039632D01*
X0140493Y0038435D01*
X0141372Y0037260D01*
X0142278Y0036106D01*
X0143213Y0034974D01*
X0144175Y0033866D01*
X0145164Y0032782D01*
X0146179Y0031722D01*
X0147219Y0030687D01*
X0148285Y0029678D01*
X0149375Y0028696D01*
X0150489Y0027740D01*
X0151626Y0026812D01*
X0152785Y0025912D01*
X0153965Y0025041D01*
X0155167Y0024199D01*
X0156389Y0023386D01*
X0157631Y0022604D01*
X0158891Y0021852D01*
X0160169Y0021131D01*
X0161465Y0020441D01*
X0162777Y0019784D01*
X0164104Y0019159D01*
X0165447Y0018566D01*
X0166803Y0018007D01*
X0168173Y0017481D01*
X0169556Y0016988D01*
X0170950Y0016529D01*
X0172355Y0016105D01*
X0173769Y0015715D01*
X0175193Y0015360D01*
X0176625Y0015040D01*
X0178065Y0014755D01*
X0179511Y0014505D01*
X0180963Y0014291D01*
X0182419Y0014112D01*
X0183880Y0013969D01*
X0185343Y0013862D01*
X0186809Y0013790D01*
X0188276Y0013754D01*
X0189744Y0013755D01*
X0191211Y0013791D01*
X0192676Y0013863D01*
X0194140Y0013971D01*
X0195600Y0014114D01*
X0197057Y0014293D01*
X0198509Y0014508D01*
X0199955Y0014759D01*
X0201394Y0015044D01*
X0202826Y0015365D01*
X0204250Y0015720D01*
X0205665Y0016111D01*
X0207069Y0016535D01*
X0208463Y0016994D01*
X0209845Y0017487D01*
X0211215Y0018014D01*
X0212571Y0018574D01*
X0213914Y0019167D01*
X0215241Y0019793D01*
X0216553Y0020451D01*
X0217848Y0021140D01*
X0219126Y0021862D01*
X0220386Y0022614D01*
X0221628Y0023397D01*
X0222849Y0024210D01*
X0224051Y0025052D01*
X0225231Y0025924D01*
X0226390Y0026825D01*
X0227526Y0027753D01*
X0228640Y0028709D01*
X0229730Y0029692D01*
X0230795Y0030701D01*
X0231835Y0031736D01*
X0232850Y0032796D01*
X0233838Y0033881D01*
X0234800Y0034990D01*
X0235734Y0036121D01*
X0236640Y0037276D01*
X0237518Y0038452D01*
X0238367Y0039649D01*
X0239186Y0040866D01*
X0239975Y0042103D01*
X0240734Y0043360D01*
X0241462Y0044634D01*
X0242158Y0045926D01*
X0242823Y0047234D01*
X0243455Y0048558D01*
X0244055Y0049898D01*
X0244622Y0051251D01*
X0245156Y0052618D01*
X0245656Y0053998D01*
X0246122Y0055389D01*
X0246554Y0056792D01*
X0246951Y0058205D01*
X0247314Y0059626D01*
X0247642Y0061057D01*
X0247935Y0062495D01*
X0248193Y0063940D01*
X0248415Y0065390D01*
X0248601Y0066846D01*
X0248752Y0068305D01*
X0248868Y0069768D01*
X0248947Y0071234D01*
X0248991Y0072701D01*
X0248999Y0074168D01*
X0248970Y0075635D01*
X0248906Y0077101D01*
X0248806Y0078565D01*
X0248671Y0080027D01*
X0248499Y0081484D01*
X0248292Y0082937D01*
X0248050Y0084384D01*
X0247772Y0085825D01*
X0247459Y0087259D01*
X0247112Y0088685D01*
X0246729Y0090101D01*
X0246312Y0091508D01*
X0245860Y0092905D01*
X0245375Y0094290D01*
X0244856Y0095662D01*
X0244303Y0097022D01*
X0243717Y0098367D01*
X0243099Y0099698D01*
X0242448Y0101013D01*
X0241765Y0102312D01*
X0241051Y0103594D01*
X0240306Y0104858D01*
X0239530Y0106104D01*
X0238723Y0107330D01*
X0237887Y0108536D01*
X0237022Y0109721D01*
X0236128Y0110885D01*
X0235205Y0112026D01*
X0234255Y0113145D01*
X0233278Y0114240D01*
X0232275Y0115311D01*
X0231246Y0116356D01*
X0230191Y0117377D01*
X0229112Y0118371D01*
X0228008Y0119339D01*
X0226882Y0120279D01*
X0225733Y0121192D01*
X0224561Y0122076D01*
X0223369Y0122931D01*
X0222156Y0123757D01*
X0220923Y0124553D01*
X0219671Y0125318D01*
X0218400Y0126053D01*
X0217112Y0126756D01*
X0215808Y0127428D01*
X0214487Y0128068D01*
X0213151Y0128675D01*
X0211800Y0129249D01*
X0210436Y0129790D01*
X0209059Y0130298D01*
X0207670Y0130771D01*
X0206270Y0131211D01*
X0204860Y0131616D01*
X0203440Y0131987D01*
X0202011Y0132322D01*
X0200575Y0132623D01*
X0199132Y0132888D01*
X0197682Y0133118D01*
X0196228Y0133313D01*
X0194769Y0133472D01*
X0193307Y0133595D01*
X0191842Y0133683D01*
X0190375Y0133734D01*
X0188908Y0133750D01*
X0187440Y0133730D01*
X0185974Y0133674D01*
X0184509Y0133582D01*
X0183047Y0133454D01*
X0181589Y0133291D01*
X0180135Y0133091D01*
X0178686Y0132857D01*
X0177244Y0132587D01*
X0175809Y0132282D01*
X0174381Y0131942D01*
X0172962Y0131567D01*
X0171553Y0131157D01*
X0170154Y0130713D01*
X0168767Y0130236D01*
X0167391Y0129724D01*
X0166029Y0129179D01*
X0164680Y0128600D01*
X0163346Y0127989D01*
X0162027Y0127345D01*
X0160725Y0126670D01*
X0159439Y0125962D01*
X0158171Y0125224D01*
X0156921Y0124454D01*
X0155691Y0123655D01*
X0154480Y0122825D01*
X0153290Y0121966D01*
X0152122Y0121079D01*
X0150975Y0120162D01*
X0149852Y0119219D01*
X0148751Y0118248D01*
X0147675Y0117250D01*
X0105325Y0117250D01*
X0104249Y0118248D01*
X0103148Y0119219D01*
X0102025Y0120162D01*
X0100878Y0121079D01*
X0099710Y0121966D01*
X0098520Y0122825D01*
X0097309Y0123655D01*
X0096079Y0124454D01*
X0094829Y0125224D01*
X0093561Y0125962D01*
X0092275Y0126670D01*
X0090973Y0127345D01*
X0089654Y0127989D01*
X0088320Y0128600D01*
X0086971Y0129179D01*
X0085609Y0129724D01*
X0084233Y0130236D01*
X0082846Y0130713D01*
X0081447Y0131157D01*
X0080038Y0131567D01*
X0078619Y0131942D01*
X0077191Y0132282D01*
X0075756Y0132587D01*
X0074314Y0132857D01*
X0072865Y0133091D01*
X0071411Y0133291D01*
X0069953Y0133454D01*
X0068491Y0133582D01*
X0067026Y0133674D01*
X0065560Y0133730D01*
X0064092Y0133750D01*
X0062625Y0133734D01*
X0061158Y0133683D01*
X0059693Y0133595D01*
X0058231Y0133472D01*
X0056772Y0133313D01*
X0055318Y0133118D01*
X0053868Y0132888D01*
X0052425Y0132623D01*
X0050989Y0132322D01*
X0049560Y0131987D01*
X0048140Y0131616D01*
X0046730Y0131211D01*
X0045330Y0130771D01*
X0043941Y0130298D01*
X0042564Y0129790D01*
X0041200Y0129249D01*
X0039849Y0128675D01*
X0038513Y0128068D01*
X0037192Y0127428D01*
X0035888Y0126756D01*
X0034600Y0126053D01*
X0033329Y0125318D01*
X0032077Y0124553D01*
X0030844Y0123757D01*
X0029631Y0122931D01*
X0028439Y0122076D01*
X0027267Y0121192D01*
X0026118Y0120279D01*
X0024992Y0119339D01*
X0023888Y0118371D01*
X0022809Y0117377D01*
X0021754Y0116356D01*
X0020725Y0115311D01*
X0019722Y0114240D01*
X0018745Y0113145D01*
X0017795Y0112026D01*
X0016872Y0110885D01*
X0015978Y0109721D01*
X0015113Y0108536D01*
X0014277Y0107330D01*
X0013470Y0106104D01*
X0012694Y0104858D01*
X0011949Y0103594D01*
X0011235Y0102312D01*
X0010552Y0101013D01*
X0009901Y0099698D01*
X0009283Y0098367D01*
X0008697Y0097022D01*
X0008144Y0095662D01*
X0007625Y0094290D01*
X0007140Y0092905D01*
X0006688Y0091508D01*
X0006271Y0090101D01*
X0005888Y0088685D01*
X0005541Y0087259D01*
X0005228Y0085825D01*
X0004950Y0084384D01*
X0004708Y0082937D01*
X0004501Y0081484D01*
X0004329Y0080027D01*
X0004194Y0078565D01*
X0004094Y0077101D01*
X0004030Y0075635D01*
X0004001Y0074168D01*
X0004009Y0072701D01*
X0004053Y0071234D01*
X0004132Y0069768D01*
X0004248Y0068305D01*
X0004399Y0066846D01*
X0004585Y0065390D01*
X0004807Y0063940D01*
X0005065Y0062495D01*
X0005358Y0061057D01*
X0005686Y0059626D01*
X0006049Y0058205D01*
X0006446Y0056792D01*
X0006878Y0055389D01*
X0007344Y0053998D01*
X0007844Y0052618D01*
X0008378Y0051251D01*
X0008945Y0049898D01*
X0009545Y0048558D01*
X0010177Y0047234D01*
X0010842Y0045926D01*
X0011538Y0044634D01*
X0012266Y0043360D01*
X0013025Y0042103D01*
X0013814Y0040866D01*
X0014633Y0039649D01*
X0015482Y0038452D01*
X0016360Y0037276D01*
X0017266Y0036121D01*
X0018200Y0034990D01*
X0019162Y0033881D01*
X0020150Y0032796D01*
X0021165Y0031736D01*
X0022205Y0030701D01*
X0023270Y0029692D01*
X0024360Y0028709D01*
X0025474Y0027753D01*
X0026610Y0026825D01*
X0027769Y0025924D01*
X0028949Y0025052D01*
X0030151Y0024210D01*
X0031372Y0023397D01*
X0032614Y0022614D01*
X0033874Y0021862D01*
X0035152Y0021140D01*
X0036447Y0020451D01*
X0037759Y0019793D01*
X0039086Y0019167D01*
X0040429Y0018574D01*
X0041785Y0018014D01*
X0043155Y0017487D01*
X0044537Y0016994D01*
X0045931Y0016535D01*
X0047335Y0016111D01*
X0048750Y0015720D01*
X0050174Y0015365D01*
X0051606Y0015044D01*
X0053045Y0014759D01*
X0054491Y0014508D01*
X0055943Y0014293D01*
X0057400Y0014114D01*
X0058860Y0013971D01*
X0060324Y0013863D01*
X0061789Y0013791D01*
X0063256Y0013755D01*
X0064724Y0013754D01*
X0066191Y0013790D01*
X0067657Y0013862D01*
X0069120Y0013969D01*
X0070581Y0014112D01*
X0072037Y0014291D01*
X0073489Y0014505D01*
X0074935Y0014755D01*
X0076375Y0015040D01*
X0077807Y0015360D01*
X0079231Y0015715D01*
X0080645Y0016105D01*
X0082050Y0016529D01*
X0083444Y0016988D01*
X0084827Y0017481D01*
X0086197Y0018007D01*
X0087553Y0018566D01*
X0088896Y0019159D01*
X0090223Y0019784D01*
X0091535Y0020441D01*
X0092831Y0021131D01*
X0094109Y0021852D01*
X0095369Y0022604D01*
X0096611Y0023386D01*
X0097833Y0024199D01*
X0099035Y0025041D01*
X0100215Y0025912D01*
X0101374Y0026812D01*
X0102511Y0027740D01*
X0103625Y0028696D01*
X0104715Y0029678D01*
X0105781Y0030687D01*
X0106821Y0031722D01*
X0107836Y0032782D01*
X0108825Y0033866D01*
X0109787Y0034974D01*
X0110722Y0036106D01*
X0111628Y0037260D01*
X0112507Y0038435D01*
X0113356Y0039632D01*
X0114175Y0040850D01*
X0114965Y0042087D01*
X0115724Y0043342D01*
X0115724Y0043343D02*
X0115882Y0043604D01*
X0116047Y0043862D01*
X0116217Y0044116D01*
X0116394Y0044365D01*
X0116577Y0044610D01*
X0116766Y0044850D01*
X0116961Y0045086D01*
X0117161Y0045317D01*
X0117367Y0045543D01*
X0117579Y0045763D01*
X0117795Y0045979D01*
X0118017Y0046189D01*
X0118244Y0046394D01*
X0118476Y0046593D01*
X0118713Y0046786D01*
X0118955Y0046974D01*
X0119200Y0047155D01*
X0119451Y0047331D01*
X0119705Y0047500D01*
X0119964Y0047663D01*
X0120226Y0047820D01*
X0120493Y0047970D01*
X0120762Y0048113D01*
X0121036Y0048250D01*
X0121312Y0048381D01*
X0121592Y0048504D01*
X0121874Y0048621D01*
X0122160Y0048730D01*
X0122448Y0048833D01*
X0122738Y0048929D01*
X0123031Y0049017D01*
X0123325Y0049098D01*
X0123622Y0049172D01*
X0123920Y0049239D01*
X0124220Y0049298D01*
X0124521Y0049350D01*
X0124824Y0049395D01*
X0125127Y0049432D01*
X0125431Y0049462D01*
X0125736Y0049485D01*
X0126042Y0049500D01*
X0126347Y0049507D01*
X0126653Y0049507D01*
X0126958Y0049500D01*
X0127264Y0049485D01*
X0127569Y0049462D01*
X0127873Y0049432D01*
X0128176Y0049395D01*
X0128479Y0049350D01*
X0128780Y0049298D01*
X0129080Y0049239D01*
X0129378Y0049172D01*
X0129675Y0049098D01*
X0129969Y0049017D01*
X0130262Y0048929D01*
X0130552Y0048833D01*
X0130840Y0048730D01*
X0131126Y0048621D01*
X0131408Y0048504D01*
X0131688Y0048381D01*
X0131964Y0048250D01*
X0132238Y0048113D01*
X0132507Y0047970D01*
X0132774Y0047820D01*
X0133036Y0047663D01*
X0133295Y0047500D01*
X0133549Y0047331D01*
X0133800Y0047155D01*
X0134045Y0046974D01*
X0134287Y0046786D01*
X0134524Y0046593D01*
X0134756Y0046394D01*
X0134983Y0046189D01*
X0135205Y0045979D01*
X0135421Y0045763D01*
X0135633Y0045543D01*
X0135839Y0045317D01*
X0136039Y0045086D01*
X0136234Y0044850D01*
X0136423Y0044610D01*
X0136606Y0044365D01*
X0136783Y0044116D01*
X0136953Y0043862D01*
X0137118Y0043604D01*
X0137276Y0043343D01*
D12*
X0095004Y0104813D03*
D13*
X0102878Y0104813D03*
X0110752Y0104813D03*
X0118626Y0104813D03*
X0126500Y0104813D03*
X0134374Y0104813D03*
X0142248Y0104813D03*
X0150122Y0104813D03*
X0157996Y0104813D03*
X0157996Y0112687D03*
X0150122Y0112687D03*
X0142248Y0112687D03*
X0134374Y0112687D03*
X0126500Y0112687D03*
X0118626Y0112687D03*
X0110752Y0112687D03*
X0102878Y0112687D03*
X0095004Y0112687D03*
D14*
X0083134Y0119940D03*
X0044866Y0119940D03*
X0017806Y0092884D03*
X0017806Y0054616D03*
X0044866Y0027556D03*
X0083134Y0027556D03*
X0110194Y0054616D03*
X0142806Y0054616D03*
X0169866Y0027556D03*
X0208134Y0027556D03*
X0235194Y0054616D03*
X0235194Y0092884D03*
X0208134Y0119944D03*
X0169866Y0119944D03*
X0142806Y0092884D03*
X0110194Y0092884D03*
D15*
X0106715Y0101284D02*
X0100181Y0094750D01*
X0097331Y0094750D01*
X0091226Y0100855D01*
X0091226Y0102524D01*
X0084000Y0109750D01*
X0055056Y0109750D01*
X0044866Y0119940D01*
X0048000Y0106750D02*
X0082000Y0106750D01*
X0108000Y0080750D01*
X0112000Y0080750D01*
X0120000Y0088750D01*
X0120000Y0098750D01*
X0118626Y0100124D01*
X0118626Y0104813D01*
X0118626Y0105376D01*
X0122404Y0107378D02*
X0122404Y0080154D01*
X0072000Y0029750D01*
X0047060Y0029750D01*
X0044866Y0027556D01*
X0090000Y0042750D02*
X0093466Y0046216D01*
X0113673Y0046216D01*
X0118594Y0051137D01*
X0118594Y0063344D01*
X0121000Y0065750D01*
X0121000Y0075639D01*
X0124604Y0079243D01*
X0124604Y0103917D01*
X0126500Y0104813D01*
X0122404Y0107378D02*
X0118626Y0111156D01*
X0118626Y0112687D01*
X0130596Y0109909D02*
X0130596Y0085154D01*
X0188194Y0027556D01*
X0208134Y0027556D01*
X0169866Y0027556D02*
X0158000Y0039422D01*
X0158000Y0041750D01*
X0148000Y0075750D02*
X0145000Y0075750D01*
X0134000Y0086750D01*
X0134000Y0097750D01*
X0138000Y0101750D01*
X0138000Y0103096D01*
X0138470Y0103566D01*
X0138470Y0106378D01*
X0140683Y0108591D01*
X0140841Y0108591D01*
X0143495Y0108591D01*
X0146026Y0111122D01*
X0146026Y0111750D01*
X0149185Y0111750D01*
X0150122Y0112687D01*
X0153900Y0111122D02*
X0153900Y0114934D01*
X0156431Y0117465D01*
X0159561Y0117465D01*
X0168276Y0108750D01*
X0173000Y0108750D01*
X0184194Y0119944D01*
X0208134Y0119944D01*
X0213000Y0106750D02*
X0175000Y0106750D01*
X0152000Y0083750D01*
X0142806Y0092884D02*
X0150957Y0101035D01*
X0151687Y0101035D01*
X0153900Y0103248D01*
X0153900Y0106060D01*
X0157996Y0110156D01*
X0157996Y0112687D01*
X0153900Y0111122D02*
X0151687Y0108909D01*
X0147875Y0108909D01*
X0143779Y0104813D01*
X0142248Y0104813D01*
X0140841Y0108591D02*
X0141000Y0108750D01*
X0134374Y0112687D02*
X0130596Y0109909D01*
X0110752Y0104813D02*
X0107223Y0101284D01*
X0106715Y0101284D01*
X0099100Y0098850D02*
X0099100Y0106378D01*
X0102878Y0110156D01*
X0102878Y0112687D01*
X0099100Y0098850D02*
X0099000Y0098750D01*
X0098000Y0098650D01*
X0048000Y0106750D02*
X0034134Y0092884D01*
X0017806Y0092884D01*
X0213000Y0106750D02*
X0226866Y0092884D01*
X0235194Y0092884D01*
D16*
X0215000Y0096750D03*
X0235000Y0104750D03*
X0188000Y0111750D03*
X0167000Y0104750D03*
X0152000Y0083750D03*
X0148000Y0075750D03*
X0152000Y0070750D03*
X0136000Y0067750D03*
X0103000Y0073750D03*
X0098000Y0098650D03*
X0089000Y0111750D03*
X0067000Y0117750D03*
X0031000Y0101750D03*
X0019000Y0074750D03*
X0035000Y0048750D03*
X0029000Y0034750D03*
X0065000Y0022750D03*
X0090000Y0042750D03*
X0104000Y0039750D03*
X0155000Y0031750D03*
X0158000Y0041750D03*
X0191000Y0032750D03*
X0217000Y0044750D03*
X0222000Y0031750D03*
X0232000Y0072750D03*
X0182000Y0125750D03*
D17*
X0189000Y0073750D03*
X0064000Y0073750D03*
D18*
X0039771Y0020559D02*
X0031879Y0024918D01*
X0024752Y0030439D01*
X0018558Y0036990D01*
X0013445Y0044415D01*
X0009535Y0052539D01*
X0006921Y0061167D01*
X0005665Y0070095D01*
X0005797Y0079109D01*
X0007313Y0087996D01*
X0010178Y0096544D01*
X0014324Y0104550D01*
X0019651Y0111823D01*
X0026034Y0118190D01*
X0033320Y0123500D01*
X0041335Y0127627D01*
X0049890Y0130471D01*
X0058781Y0131966D01*
X0067796Y0132077D01*
X0076720Y0130799D01*
X0085342Y0128164D01*
X0093456Y0124235D01*
X0100869Y0119105D01*
X0104251Y0116131D01*
X0104676Y0115707D01*
X0103570Y0116165D01*
X0102186Y0116165D01*
X0100908Y0115635D01*
X0099929Y0114657D01*
X0099400Y0113379D01*
X0099400Y0111995D01*
X0099929Y0110717D01*
X0100341Y0110306D01*
X0098365Y0108329D01*
X0098303Y0108391D01*
X0097961Y0108589D01*
X0097579Y0108691D01*
X0095193Y0108691D01*
X0095193Y0105002D01*
X0094815Y0105002D01*
X0094815Y0108691D01*
X0092428Y0108691D01*
X0092047Y0108589D01*
X0091705Y0108391D01*
X0091426Y0108112D01*
X0091228Y0107770D01*
X0091126Y0107388D01*
X0091126Y0105311D01*
X0084787Y0111650D01*
X0055843Y0111650D01*
X0051852Y0115641D01*
X0052966Y0118329D01*
X0052966Y0121551D01*
X0051733Y0124528D01*
X0049454Y0126807D01*
X0046477Y0128040D01*
X0043255Y0128040D01*
X0040278Y0126807D01*
X0037999Y0124528D01*
X0036766Y0121551D01*
X0036766Y0118329D01*
X0037999Y0115352D01*
X0040278Y0113073D01*
X0043255Y0111840D01*
X0046477Y0111840D01*
X0049165Y0112954D01*
X0053469Y0108650D01*
X0047213Y0108650D01*
X0046100Y0107537D01*
X0033347Y0094784D01*
X0025786Y0094784D01*
X0024673Y0097472D01*
X0022394Y0099751D01*
X0019417Y0100984D01*
X0016195Y0100984D01*
X0013218Y0099751D01*
X0010939Y0097472D01*
X0009706Y0094495D01*
X0009706Y0091273D01*
X0010939Y0088296D01*
X0013218Y0086017D01*
X0016195Y0084784D01*
X0019417Y0084784D01*
X0022394Y0086017D01*
X0024673Y0088296D01*
X0025786Y0090984D01*
X0034921Y0090984D01*
X0048787Y0104850D01*
X0081213Y0104850D01*
X0107213Y0078850D01*
X0112787Y0078850D01*
X0113900Y0079963D01*
X0120504Y0086567D01*
X0120504Y0080941D01*
X0071213Y0031650D01*
X0051938Y0031650D01*
X0051733Y0032144D01*
X0049454Y0034423D01*
X0046477Y0035656D01*
X0043255Y0035656D01*
X0040278Y0034423D01*
X0037999Y0032144D01*
X0036766Y0029167D01*
X0036766Y0025945D01*
X0037999Y0022968D01*
X0040278Y0020689D01*
X0043255Y0019456D01*
X0046477Y0019456D01*
X0049454Y0020689D01*
X0051733Y0022968D01*
X0052966Y0025945D01*
X0052966Y0027850D01*
X0072787Y0027850D01*
X0075691Y0030755D01*
X0075034Y0029167D01*
X0075034Y0025945D01*
X0076267Y0022968D01*
X0078546Y0020689D01*
X0081523Y0019456D01*
X0084745Y0019456D01*
X0087722Y0020689D01*
X0090001Y0022968D01*
X0091234Y0025945D01*
X0091234Y0029167D01*
X0090001Y0032144D01*
X0087722Y0034423D01*
X0084745Y0035656D01*
X0081523Y0035656D01*
X0079935Y0034998D01*
X0087400Y0042463D01*
X0087400Y0042233D01*
X0087796Y0041277D01*
X0088527Y0040546D01*
X0089483Y0040150D01*
X0090517Y0040150D01*
X0091473Y0040546D01*
X0092204Y0041277D01*
X0092600Y0042233D01*
X0092600Y0042663D01*
X0094253Y0044316D01*
X0114460Y0044316D01*
X0114552Y0044408D01*
X0114388Y0044129D01*
X0111953Y0040331D01*
X0106243Y0033354D01*
X0099529Y0027338D01*
X0091969Y0022427D01*
X0086331Y0019897D01*
X0078444Y0017284D01*
X0075048Y0016354D01*
X0066090Y0015338D01*
X0057082Y0015712D01*
X0048239Y0017466D01*
X0039771Y0020559D01*
X0039444Y0020740D02*
X0040227Y0020740D01*
X0039229Y0021738D02*
X0037637Y0021738D01*
X0038230Y0022737D02*
X0035829Y0022737D01*
X0034021Y0023735D02*
X0037681Y0023735D01*
X0037268Y0024734D02*
X0032213Y0024734D01*
X0030828Y0025732D02*
X0036854Y0025732D01*
X0036766Y0026731D02*
X0029539Y0026731D01*
X0028250Y0027729D02*
X0036766Y0027729D01*
X0036766Y0028728D02*
X0026961Y0028728D01*
X0025672Y0029726D02*
X0036998Y0029726D01*
X0037411Y0030725D02*
X0024481Y0030725D01*
X0023537Y0031723D02*
X0037825Y0031723D01*
X0038577Y0032722D02*
X0022593Y0032722D01*
X0021649Y0033720D02*
X0039575Y0033720D01*
X0040992Y0034719D02*
X0020705Y0034719D01*
X0019761Y0035717D02*
X0075280Y0035717D01*
X0074282Y0034719D02*
X0048740Y0034719D01*
X0050157Y0033720D02*
X0073283Y0033720D01*
X0072285Y0032722D02*
X0051155Y0032722D01*
X0051907Y0031723D02*
X0071286Y0031723D01*
X0074663Y0029726D02*
X0075266Y0029726D01*
X0075034Y0028728D02*
X0073665Y0028728D01*
X0075034Y0027729D02*
X0052966Y0027729D01*
X0052966Y0026731D02*
X0075034Y0026731D01*
X0075122Y0025732D02*
X0052878Y0025732D01*
X0052464Y0024734D02*
X0075536Y0024734D01*
X0075949Y0023735D02*
X0052051Y0023735D01*
X0051502Y0022737D02*
X0076498Y0022737D01*
X0077497Y0021738D02*
X0050503Y0021738D01*
X0049505Y0020740D02*
X0078495Y0020740D01*
X0080835Y0019741D02*
X0047165Y0019741D01*
X0044744Y0018743D02*
X0082845Y0018743D01*
X0085433Y0019741D02*
X0085860Y0019741D01*
X0087773Y0020740D02*
X0088209Y0020740D01*
X0088771Y0021738D02*
X0090434Y0021738D01*
X0089770Y0022737D02*
X0092446Y0022737D01*
X0093983Y0023735D02*
X0090319Y0023735D01*
X0090732Y0024734D02*
X0095520Y0024734D01*
X0097057Y0025732D02*
X0091146Y0025732D01*
X0091234Y0026731D02*
X0098594Y0026731D01*
X0099965Y0027729D02*
X0091234Y0027729D01*
X0091234Y0028728D02*
X0101080Y0028728D01*
X0102194Y0029726D02*
X0091002Y0029726D01*
X0090589Y0030725D02*
X0103309Y0030725D01*
X0104423Y0031723D02*
X0090175Y0031723D01*
X0089423Y0032722D02*
X0105538Y0032722D01*
X0106543Y0033720D02*
X0088425Y0033720D01*
X0087008Y0034719D02*
X0107360Y0034719D01*
X0108178Y0035717D02*
X0080654Y0035717D01*
X0081653Y0036716D02*
X0108995Y0036716D01*
X0109812Y0037714D02*
X0082651Y0037714D01*
X0083650Y0038713D02*
X0110629Y0038713D01*
X0111446Y0039711D02*
X0084648Y0039711D01*
X0085647Y0040710D02*
X0088363Y0040710D01*
X0087617Y0041708D02*
X0086645Y0041708D01*
X0084267Y0044704D02*
X0013306Y0044704D01*
X0012826Y0045702D02*
X0085265Y0045702D01*
X0086264Y0046701D02*
X0019864Y0046701D01*
X0019417Y0046516D02*
X0022394Y0047749D01*
X0024673Y0050028D01*
X0025906Y0053005D01*
X0025906Y0056227D01*
X0024673Y0059204D01*
X0022394Y0061483D01*
X0019417Y0062716D01*
X0016195Y0062716D01*
X0013218Y0061483D01*
X0010939Y0059204D01*
X0009706Y0056227D01*
X0009706Y0053005D01*
X0010939Y0050028D01*
X0013218Y0047749D01*
X0016195Y0046516D01*
X0019417Y0046516D01*
X0022274Y0047699D02*
X0087262Y0047699D01*
X0088261Y0048698D02*
X0023343Y0048698D01*
X0024342Y0049696D02*
X0089259Y0049696D01*
X0090258Y0050695D02*
X0024949Y0050695D01*
X0025363Y0051693D02*
X0091256Y0051693D01*
X0092255Y0052692D02*
X0025777Y0052692D01*
X0025906Y0053690D02*
X0093253Y0053690D01*
X0094252Y0054689D02*
X0025906Y0054689D01*
X0025906Y0055687D02*
X0095250Y0055687D01*
X0096249Y0056686D02*
X0025716Y0056686D01*
X0025302Y0057684D02*
X0097248Y0057684D01*
X0098246Y0058683D02*
X0024889Y0058683D01*
X0024196Y0059682D02*
X0099245Y0059682D01*
X0100243Y0060680D02*
X0023197Y0060680D01*
X0021922Y0061679D02*
X0101242Y0061679D01*
X0102240Y0062677D02*
X0019511Y0062677D01*
X0016101Y0062677D02*
X0006709Y0062677D01*
X0006849Y0061679D02*
X0013690Y0061679D01*
X0012415Y0060680D02*
X0007069Y0060680D01*
X0007371Y0059682D02*
X0011416Y0059682D01*
X0010723Y0058683D02*
X0007674Y0058683D01*
X0007976Y0057684D02*
X0010310Y0057684D01*
X0009896Y0056686D02*
X0008279Y0056686D01*
X0008581Y0055687D02*
X0009706Y0055687D01*
X0009706Y0054689D02*
X0008884Y0054689D01*
X0009186Y0053690D02*
X0009706Y0053690D01*
X0009836Y0052692D02*
X0009489Y0052692D01*
X0009942Y0051693D02*
X0010249Y0051693D01*
X0010423Y0050695D02*
X0010663Y0050695D01*
X0010903Y0049696D02*
X0011271Y0049696D01*
X0011384Y0048698D02*
X0012269Y0048698D01*
X0011865Y0047699D02*
X0013338Y0047699D01*
X0012345Y0046701D02*
X0015749Y0046701D01*
X0013934Y0043705D02*
X0083268Y0043705D01*
X0082270Y0042707D02*
X0014622Y0042707D01*
X0015309Y0041708D02*
X0081271Y0041708D01*
X0080273Y0040710D02*
X0015997Y0040710D01*
X0016684Y0039711D02*
X0079274Y0039711D01*
X0078276Y0038713D02*
X0017372Y0038713D01*
X0018059Y0037714D02*
X0077277Y0037714D01*
X0076279Y0036716D02*
X0018817Y0036716D01*
X0042011Y0019741D02*
X0042567Y0019741D01*
X0047478Y0017744D02*
X0079831Y0017744D01*
X0076476Y0016746D02*
X0051870Y0016746D01*
X0056904Y0015747D02*
X0069694Y0015747D01*
X0075662Y0030725D02*
X0075679Y0030725D01*
X0091637Y0040710D02*
X0112196Y0040710D01*
X0112836Y0041708D02*
X0092383Y0041708D01*
X0092644Y0042707D02*
X0113476Y0042707D01*
X0114117Y0043705D02*
X0093642Y0043705D01*
X0103239Y0063676D02*
X0006568Y0063676D01*
X0006428Y0064674D02*
X0104237Y0064674D01*
X0105236Y0065673D02*
X0006287Y0065673D01*
X0006147Y0066671D02*
X0106234Y0066671D01*
X0107233Y0067670D02*
X0006006Y0067670D01*
X0005866Y0068668D02*
X0108231Y0068668D01*
X0109230Y0069667D02*
X0005725Y0069667D01*
X0005673Y0070665D02*
X0110228Y0070665D01*
X0111227Y0071664D02*
X0005688Y0071664D01*
X0005703Y0072662D02*
X0112225Y0072662D01*
X0113224Y0073661D02*
X0005717Y0073661D01*
X0005732Y0074659D02*
X0114222Y0074659D01*
X0115221Y0075658D02*
X0005746Y0075658D01*
X0005761Y0076656D02*
X0116219Y0076656D01*
X0117218Y0077655D02*
X0005776Y0077655D01*
X0005790Y0078653D02*
X0118216Y0078653D01*
X0119215Y0079652D02*
X0113589Y0079652D01*
X0114587Y0080650D02*
X0120213Y0080650D01*
X0120504Y0081649D02*
X0115586Y0081649D01*
X0116584Y0082647D02*
X0120504Y0082647D01*
X0120504Y0083646D02*
X0117583Y0083646D01*
X0118581Y0084644D02*
X0120504Y0084644D01*
X0120504Y0085643D02*
X0119580Y0085643D01*
X0129000Y0084063D02*
X0187407Y0025656D01*
X0200154Y0025656D01*
X0201267Y0022968D01*
X0203546Y0020689D01*
X0206523Y0019456D01*
X0209745Y0019456D01*
X0212722Y0020689D01*
X0215001Y0022968D01*
X0216234Y0025945D01*
X0216234Y0029167D01*
X0215001Y0032144D01*
X0212722Y0034423D01*
X0209745Y0035656D01*
X0206523Y0035656D01*
X0203546Y0034423D01*
X0201267Y0032144D01*
X0200154Y0029456D01*
X0188981Y0029456D01*
X0144587Y0073850D01*
X0146223Y0073850D01*
X0146527Y0073546D01*
X0147483Y0073150D01*
X0148517Y0073150D01*
X0149473Y0073546D01*
X0150204Y0074277D01*
X0150600Y0075233D01*
X0150600Y0076267D01*
X0150204Y0077223D01*
X0149473Y0077954D01*
X0148517Y0078350D01*
X0147483Y0078350D01*
X0146527Y0077954D01*
X0146223Y0077650D01*
X0145787Y0077650D01*
X0135900Y0087537D01*
X0135900Y0088390D01*
X0135939Y0088296D01*
X0138218Y0086017D01*
X0141195Y0084784D01*
X0144417Y0084784D01*
X0147394Y0086017D01*
X0149673Y0088296D01*
X0150906Y0091273D01*
X0150906Y0094495D01*
X0149792Y0097183D01*
X0151744Y0099135D01*
X0152474Y0099135D01*
X0153587Y0100248D01*
X0155332Y0101993D01*
X0155524Y0101801D01*
X0156159Y0101376D01*
X0156865Y0101084D01*
X0157614Y0100935D01*
X0157807Y0100935D01*
X0157807Y0104624D01*
X0158185Y0104624D01*
X0158185Y0100935D01*
X0158378Y0100935D01*
X0159127Y0101084D01*
X0159833Y0101376D01*
X0160468Y0101801D01*
X0161008Y0102341D01*
X0161433Y0102976D01*
X0161725Y0103682D01*
X0161874Y0104431D01*
X0161874Y0104624D01*
X0158185Y0104624D01*
X0158185Y0105002D01*
X0161874Y0105002D01*
X0161874Y0105195D01*
X0161725Y0105944D01*
X0161433Y0106650D01*
X0161008Y0107285D01*
X0160468Y0107825D01*
X0159833Y0108250D01*
X0159127Y0108542D01*
X0159079Y0108552D01*
X0159896Y0109369D01*
X0159896Y0109710D01*
X0159966Y0109739D01*
X0160945Y0110717D01*
X0161474Y0111995D01*
X0161474Y0112865D01*
X0167489Y0106850D01*
X0172413Y0106850D01*
X0151913Y0086350D01*
X0151483Y0086350D01*
X0150527Y0085954D01*
X0149796Y0085223D01*
X0149400Y0084267D01*
X0149400Y0083233D01*
X0149796Y0082277D01*
X0150527Y0081546D01*
X0151483Y0081150D01*
X0152517Y0081150D01*
X0153473Y0081546D01*
X0154204Y0082277D01*
X0154600Y0083233D01*
X0154600Y0083663D01*
X0175787Y0104850D01*
X0212213Y0104850D01*
X0224966Y0092097D01*
X0226079Y0090984D01*
X0227214Y0090984D01*
X0228327Y0088296D01*
X0230606Y0086017D01*
X0233583Y0084784D01*
X0236805Y0084784D01*
X0239782Y0086017D01*
X0242061Y0088296D01*
X0243294Y0091273D01*
X0243294Y0094495D01*
X0242061Y0097472D01*
X0239782Y0099751D01*
X0236805Y0100984D01*
X0233583Y0100984D01*
X0230606Y0099751D01*
X0228327Y0097472D01*
X0227342Y0095095D01*
X0214900Y0107537D01*
X0213787Y0108650D01*
X0175587Y0108650D01*
X0184981Y0118044D01*
X0200154Y0118044D01*
X0201267Y0115356D01*
X0203546Y0113077D01*
X0206523Y0111844D01*
X0209745Y0111844D01*
X0212722Y0113077D01*
X0215001Y0115356D01*
X0216234Y0118333D01*
X0216234Y0121555D01*
X0215001Y0124532D01*
X0212722Y0126811D01*
X0209745Y0128044D01*
X0206523Y0128044D01*
X0203546Y0126811D01*
X0201267Y0124532D01*
X0200154Y0121844D01*
X0183407Y0121844D01*
X0182294Y0120731D01*
X0172213Y0110650D01*
X0169063Y0110650D01*
X0167596Y0112117D01*
X0168255Y0111844D01*
X0171477Y0111844D01*
X0174454Y0113077D01*
X0176733Y0115356D01*
X0177966Y0118333D01*
X0177966Y0121555D01*
X0176733Y0124532D01*
X0174454Y0126811D01*
X0171477Y0128044D01*
X0168255Y0128044D01*
X0165278Y0126811D01*
X0162999Y0124532D01*
X0161766Y0121555D01*
X0161766Y0118333D01*
X0162039Y0117674D01*
X0161461Y0118252D01*
X0160348Y0119365D01*
X0155644Y0119365D01*
X0154531Y0118252D01*
X0152000Y0115721D01*
X0152000Y0115674D01*
X0150814Y0116165D01*
X0149430Y0116165D01*
X0148324Y0115707D01*
X0148748Y0116131D01*
X0152131Y0119105D01*
X0159544Y0124235D01*
X0167658Y0128164D01*
X0176280Y0130799D01*
X0185204Y0132077D01*
X0194219Y0131966D01*
X0203110Y0130471D01*
X0211665Y0127627D01*
X0219680Y0123500D01*
X0226966Y0118190D01*
X0233349Y0111823D01*
X0238676Y0104550D01*
X0242822Y0096544D01*
X0245687Y0087996D01*
X0247203Y0079109D01*
X0247335Y0070095D01*
X0246079Y0061167D01*
X0243465Y0052539D01*
X0239555Y0044415D01*
X0234442Y0036990D01*
X0228248Y0030439D01*
X0221121Y0024918D01*
X0213229Y0020559D01*
X0204761Y0017466D01*
X0195918Y0015712D01*
X0186910Y0015338D01*
X0177952Y0016354D01*
X0169257Y0018736D01*
X0161031Y0022427D01*
X0153471Y0027338D01*
X0146757Y0033354D01*
X0141047Y0040331D01*
X0138612Y0044129D01*
X0138606Y0044139D01*
X0137547Y0045940D01*
X0134450Y0048782D01*
X0130657Y0050593D01*
X0129000Y0050841D01*
X0129000Y0084063D01*
X0129000Y0083646D02*
X0129417Y0083646D01*
X0129000Y0082647D02*
X0130416Y0082647D01*
X0131414Y0081649D02*
X0129000Y0081649D01*
X0129000Y0080650D02*
X0132413Y0080650D01*
X0133411Y0079652D02*
X0129000Y0079652D01*
X0129000Y0078653D02*
X0134410Y0078653D01*
X0135408Y0077655D02*
X0129000Y0077655D01*
X0129000Y0076656D02*
X0136407Y0076656D01*
X0137405Y0075658D02*
X0129000Y0075658D01*
X0129000Y0074659D02*
X0138404Y0074659D01*
X0139402Y0073661D02*
X0129000Y0073661D01*
X0129000Y0072662D02*
X0140401Y0072662D01*
X0141399Y0071664D02*
X0129000Y0071664D01*
X0129000Y0070665D02*
X0142398Y0070665D01*
X0143396Y0069667D02*
X0129000Y0069667D01*
X0129000Y0068668D02*
X0144395Y0068668D01*
X0145393Y0067670D02*
X0129000Y0067670D01*
X0129000Y0066671D02*
X0146392Y0066671D01*
X0147390Y0065673D02*
X0129000Y0065673D01*
X0129000Y0064674D02*
X0148389Y0064674D01*
X0149387Y0063676D02*
X0129000Y0063676D01*
X0129000Y0062677D02*
X0141101Y0062677D01*
X0141195Y0062716D02*
X0138218Y0061483D01*
X0135939Y0059204D01*
X0134706Y0056227D01*
X0134706Y0053005D01*
X0135939Y0050028D01*
X0138218Y0047749D01*
X0141195Y0046516D01*
X0144417Y0046516D01*
X0147394Y0047749D01*
X0149673Y0050028D01*
X0150906Y0053005D01*
X0150906Y0056227D01*
X0149673Y0059204D01*
X0147394Y0061483D01*
X0144417Y0062716D01*
X0141195Y0062716D01*
X0138690Y0061679D02*
X0129000Y0061679D01*
X0129000Y0060680D02*
X0137415Y0060680D01*
X0136416Y0059682D02*
X0129000Y0059682D01*
X0129000Y0058683D02*
X0135723Y0058683D01*
X0135310Y0057684D02*
X0129000Y0057684D01*
X0129000Y0056686D02*
X0134896Y0056686D01*
X0134706Y0055687D02*
X0129000Y0055687D01*
X0129000Y0054689D02*
X0134706Y0054689D01*
X0134706Y0053690D02*
X0129000Y0053690D01*
X0129000Y0052692D02*
X0134836Y0052692D01*
X0135249Y0051693D02*
X0129000Y0051693D01*
X0129974Y0050695D02*
X0135663Y0050695D01*
X0136270Y0049696D02*
X0132534Y0049696D01*
X0134450Y0048782D02*
X0134450Y0048782D01*
X0134541Y0048698D02*
X0137269Y0048698D01*
X0138338Y0047699D02*
X0135630Y0047699D01*
X0136718Y0046701D02*
X0140748Y0046701D01*
X0138274Y0044704D02*
X0168359Y0044704D01*
X0167361Y0045702D02*
X0137687Y0045702D01*
X0137547Y0045940D02*
X0137547Y0045940D01*
X0138883Y0043705D02*
X0156278Y0043705D01*
X0156527Y0043954D02*
X0155796Y0043223D01*
X0155400Y0042267D01*
X0155400Y0041233D01*
X0155796Y0040277D01*
X0156100Y0039973D01*
X0156100Y0038635D01*
X0157213Y0037522D01*
X0162880Y0031855D01*
X0161766Y0029167D01*
X0161766Y0025945D01*
X0162999Y0022968D01*
X0165278Y0020689D01*
X0168255Y0019456D01*
X0171477Y0019456D01*
X0174454Y0020689D01*
X0176733Y0022968D01*
X0177966Y0025945D01*
X0177966Y0029167D01*
X0176733Y0032144D01*
X0174454Y0034423D01*
X0171477Y0035656D01*
X0168255Y0035656D01*
X0165567Y0034542D01*
X0160018Y0040091D01*
X0160204Y0040277D01*
X0160600Y0041233D01*
X0160600Y0042267D01*
X0160204Y0043223D01*
X0159473Y0043954D01*
X0158517Y0044350D01*
X0157483Y0044350D01*
X0156527Y0043954D01*
X0155582Y0042707D02*
X0139524Y0042707D01*
X0140164Y0041708D02*
X0155400Y0041708D01*
X0155617Y0040710D02*
X0140804Y0040710D01*
X0141554Y0039711D02*
X0156100Y0039711D01*
X0156100Y0038713D02*
X0142371Y0038713D01*
X0143188Y0037714D02*
X0157021Y0037714D01*
X0158019Y0036716D02*
X0144005Y0036716D01*
X0144822Y0035717D02*
X0159018Y0035717D01*
X0160016Y0034719D02*
X0145640Y0034719D01*
X0146457Y0033720D02*
X0161015Y0033720D01*
X0162013Y0032722D02*
X0147462Y0032722D01*
X0148577Y0031723D02*
X0162825Y0031723D01*
X0162411Y0030725D02*
X0149691Y0030725D01*
X0150806Y0029726D02*
X0161998Y0029726D01*
X0161766Y0028728D02*
X0151920Y0028728D01*
X0153035Y0027729D02*
X0161766Y0027729D01*
X0161766Y0026731D02*
X0154406Y0026731D01*
X0155943Y0025732D02*
X0161854Y0025732D01*
X0162268Y0024734D02*
X0157480Y0024734D01*
X0159017Y0023735D02*
X0162681Y0023735D01*
X0163230Y0022737D02*
X0160554Y0022737D01*
X0162566Y0021738D02*
X0164229Y0021738D01*
X0164791Y0020740D02*
X0165227Y0020740D01*
X0167017Y0019741D02*
X0167567Y0019741D01*
X0169242Y0018743D02*
X0208256Y0018743D01*
X0210433Y0019741D02*
X0210989Y0019741D01*
X0212773Y0020740D02*
X0213556Y0020740D01*
X0213771Y0021738D02*
X0215363Y0021738D01*
X0214770Y0022737D02*
X0217171Y0022737D01*
X0218979Y0023735D02*
X0215319Y0023735D01*
X0215732Y0024734D02*
X0220787Y0024734D01*
X0222172Y0025732D02*
X0216146Y0025732D01*
X0216234Y0026731D02*
X0223461Y0026731D01*
X0224750Y0027729D02*
X0216234Y0027729D01*
X0216234Y0028728D02*
X0226039Y0028728D01*
X0227328Y0029726D02*
X0216002Y0029726D01*
X0215589Y0030725D02*
X0228519Y0030725D01*
X0229463Y0031723D02*
X0215175Y0031723D01*
X0214423Y0032722D02*
X0230407Y0032722D01*
X0231351Y0033720D02*
X0213425Y0033720D01*
X0212008Y0034719D02*
X0232295Y0034719D01*
X0233239Y0035717D02*
X0182720Y0035717D01*
X0183718Y0034719D02*
X0204260Y0034719D01*
X0202843Y0033720D02*
X0184717Y0033720D01*
X0185715Y0032722D02*
X0201845Y0032722D01*
X0201093Y0031723D02*
X0186714Y0031723D01*
X0187712Y0030725D02*
X0200679Y0030725D01*
X0200266Y0029726D02*
X0188711Y0029726D01*
X0186332Y0026731D02*
X0177966Y0026731D01*
X0177966Y0027729D02*
X0185334Y0027729D01*
X0184335Y0028728D02*
X0177966Y0028728D01*
X0177734Y0029726D02*
X0183337Y0029726D01*
X0182338Y0030725D02*
X0177321Y0030725D01*
X0176907Y0031723D02*
X0181340Y0031723D01*
X0180341Y0032722D02*
X0176155Y0032722D01*
X0175157Y0033720D02*
X0179343Y0033720D01*
X0178344Y0034719D02*
X0173740Y0034719D01*
X0176347Y0036716D02*
X0163393Y0036716D01*
X0162395Y0037714D02*
X0175349Y0037714D01*
X0174350Y0038713D02*
X0161396Y0038713D01*
X0160398Y0039711D02*
X0173352Y0039711D01*
X0172353Y0040710D02*
X0160383Y0040710D01*
X0160600Y0041708D02*
X0171355Y0041708D01*
X0170356Y0042707D02*
X0160418Y0042707D01*
X0159722Y0043705D02*
X0169358Y0043705D01*
X0171736Y0046701D02*
X0233136Y0046701D01*
X0233583Y0046516D02*
X0236805Y0046516D01*
X0239782Y0047749D01*
X0242061Y0050028D01*
X0243294Y0053005D01*
X0243294Y0056227D01*
X0242061Y0059204D01*
X0239782Y0061483D01*
X0236805Y0062716D01*
X0233583Y0062716D01*
X0230606Y0061483D01*
X0228327Y0059204D01*
X0227094Y0056227D01*
X0227094Y0053005D01*
X0228327Y0050028D01*
X0230606Y0047749D01*
X0233583Y0046516D01*
X0230726Y0047699D02*
X0170738Y0047699D01*
X0169739Y0048698D02*
X0229657Y0048698D01*
X0228658Y0049696D02*
X0168741Y0049696D01*
X0167742Y0050695D02*
X0228051Y0050695D01*
X0227637Y0051693D02*
X0166744Y0051693D01*
X0165745Y0052692D02*
X0227224Y0052692D01*
X0227094Y0053690D02*
X0164747Y0053690D01*
X0163748Y0054689D02*
X0227094Y0054689D01*
X0227094Y0055687D02*
X0162750Y0055687D01*
X0161751Y0056686D02*
X0227284Y0056686D01*
X0227698Y0057684D02*
X0160752Y0057684D01*
X0159754Y0058683D02*
X0228111Y0058683D01*
X0228804Y0059682D02*
X0158755Y0059682D01*
X0157757Y0060680D02*
X0229803Y0060680D01*
X0231078Y0061679D02*
X0156758Y0061679D01*
X0155760Y0062677D02*
X0233489Y0062677D01*
X0236899Y0062677D02*
X0246291Y0062677D01*
X0246151Y0061679D02*
X0239310Y0061679D01*
X0240585Y0060680D02*
X0245931Y0060680D01*
X0245629Y0059682D02*
X0241584Y0059682D01*
X0242277Y0058683D02*
X0245326Y0058683D01*
X0245024Y0057684D02*
X0242690Y0057684D01*
X0243104Y0056686D02*
X0244721Y0056686D01*
X0244419Y0055687D02*
X0243294Y0055687D01*
X0243294Y0054689D02*
X0244116Y0054689D01*
X0243814Y0053690D02*
X0243294Y0053690D01*
X0243164Y0052692D02*
X0243511Y0052692D01*
X0243058Y0051693D02*
X0242751Y0051693D01*
X0242577Y0050695D02*
X0242337Y0050695D01*
X0242097Y0049696D02*
X0241730Y0049696D01*
X0241616Y0048698D02*
X0240731Y0048698D01*
X0241135Y0047699D02*
X0239662Y0047699D01*
X0240655Y0046701D02*
X0237252Y0046701D01*
X0240174Y0045702D02*
X0172735Y0045702D01*
X0173733Y0044704D02*
X0239694Y0044704D01*
X0239066Y0043705D02*
X0174732Y0043705D01*
X0175730Y0042707D02*
X0238378Y0042707D01*
X0237691Y0041708D02*
X0176729Y0041708D01*
X0177727Y0040710D02*
X0237003Y0040710D01*
X0236316Y0039711D02*
X0178726Y0039711D01*
X0179724Y0038713D02*
X0235628Y0038713D01*
X0234941Y0037714D02*
X0180723Y0037714D01*
X0181721Y0036716D02*
X0234183Y0036716D01*
X0205835Y0019741D02*
X0172165Y0019741D01*
X0174505Y0020740D02*
X0203495Y0020740D01*
X0202497Y0021738D02*
X0175503Y0021738D01*
X0176502Y0022737D02*
X0201498Y0022737D01*
X0200949Y0023735D02*
X0177051Y0023735D01*
X0177464Y0024734D02*
X0200536Y0024734D01*
X0201130Y0016746D02*
X0176524Y0016746D01*
X0172878Y0017744D02*
X0205522Y0017744D01*
X0196096Y0015747D02*
X0183306Y0015747D01*
X0187331Y0025732D02*
X0177878Y0025732D01*
X0165992Y0034719D02*
X0165390Y0034719D01*
X0164392Y0035717D02*
X0177346Y0035717D01*
X0166362Y0046701D02*
X0144864Y0046701D01*
X0147274Y0047699D02*
X0165364Y0047699D01*
X0164365Y0048698D02*
X0148343Y0048698D01*
X0149342Y0049696D02*
X0163367Y0049696D01*
X0162368Y0050695D02*
X0149949Y0050695D01*
X0150363Y0051693D02*
X0161370Y0051693D01*
X0160371Y0052692D02*
X0150776Y0052692D01*
X0150906Y0053690D02*
X0159373Y0053690D01*
X0158374Y0054689D02*
X0150906Y0054689D01*
X0150906Y0055687D02*
X0157376Y0055687D01*
X0156377Y0056686D02*
X0150716Y0056686D01*
X0150302Y0057684D02*
X0155378Y0057684D01*
X0154380Y0058683D02*
X0149889Y0058683D01*
X0149196Y0059682D02*
X0153381Y0059682D01*
X0152383Y0060680D02*
X0148197Y0060680D01*
X0146922Y0061679D02*
X0151384Y0061679D01*
X0150386Y0062677D02*
X0144511Y0062677D01*
X0151766Y0066671D02*
X0246853Y0066671D01*
X0246713Y0065673D02*
X0152764Y0065673D01*
X0153763Y0064674D02*
X0246572Y0064674D01*
X0246432Y0063676D02*
X0154761Y0063676D01*
X0150767Y0067670D02*
X0246994Y0067670D01*
X0247134Y0068668D02*
X0149769Y0068668D01*
X0148770Y0069667D02*
X0247275Y0069667D01*
X0247327Y0070665D02*
X0147772Y0070665D01*
X0146773Y0071664D02*
X0247312Y0071664D01*
X0247297Y0072662D02*
X0145775Y0072662D01*
X0146412Y0073661D02*
X0144776Y0073661D01*
X0149588Y0073661D02*
X0247283Y0073661D01*
X0247268Y0074659D02*
X0150362Y0074659D01*
X0150600Y0075658D02*
X0247254Y0075658D01*
X0247239Y0076656D02*
X0150439Y0076656D01*
X0149772Y0077655D02*
X0247224Y0077655D01*
X0247210Y0078653D02*
X0144784Y0078653D01*
X0145782Y0077655D02*
X0146228Y0077655D01*
X0143785Y0079652D02*
X0247111Y0079652D01*
X0246940Y0080650D02*
X0142787Y0080650D01*
X0141788Y0081649D02*
X0150424Y0081649D01*
X0149643Y0082647D02*
X0140790Y0082647D01*
X0139791Y0083646D02*
X0149400Y0083646D01*
X0149556Y0084644D02*
X0138793Y0084644D01*
X0139121Y0085643D02*
X0137794Y0085643D01*
X0137594Y0086641D02*
X0136796Y0086641D01*
X0136595Y0087640D02*
X0135900Y0087640D01*
X0146491Y0085643D02*
X0150216Y0085643D01*
X0152204Y0086641D02*
X0148018Y0086641D01*
X0149017Y0087640D02*
X0153203Y0087640D01*
X0154201Y0088638D02*
X0149815Y0088638D01*
X0150228Y0089637D02*
X0155200Y0089637D01*
X0156198Y0090635D02*
X0150642Y0090635D01*
X0150906Y0091634D02*
X0157197Y0091634D01*
X0158195Y0092632D02*
X0150906Y0092632D01*
X0150906Y0093631D02*
X0159194Y0093631D01*
X0160192Y0094629D02*
X0150850Y0094629D01*
X0150437Y0095628D02*
X0161191Y0095628D01*
X0162189Y0096626D02*
X0150023Y0096626D01*
X0150234Y0097625D02*
X0163188Y0097625D01*
X0164186Y0098623D02*
X0151232Y0098623D01*
X0152961Y0099622D02*
X0165185Y0099622D01*
X0166184Y0100620D02*
X0153959Y0100620D01*
X0154958Y0101619D02*
X0155796Y0101619D01*
X0157807Y0101619D02*
X0158185Y0101619D01*
X0158185Y0102618D02*
X0157807Y0102618D01*
X0157807Y0103616D02*
X0158185Y0103616D01*
X0158185Y0104615D02*
X0157807Y0104615D01*
X0161698Y0103616D02*
X0169179Y0103616D01*
X0168181Y0102618D02*
X0161193Y0102618D01*
X0160196Y0101619D02*
X0167182Y0101619D01*
X0171557Y0100620D02*
X0216443Y0100620D01*
X0217441Y0099622D02*
X0170559Y0099622D01*
X0169560Y0098623D02*
X0218440Y0098623D01*
X0219438Y0097625D02*
X0168562Y0097625D01*
X0167563Y0096626D02*
X0220437Y0096626D01*
X0221435Y0095628D02*
X0166565Y0095628D01*
X0165566Y0094629D02*
X0222434Y0094629D01*
X0223432Y0093631D02*
X0164568Y0093631D01*
X0163569Y0092632D02*
X0224431Y0092632D01*
X0225429Y0091634D02*
X0162571Y0091634D01*
X0161572Y0090635D02*
X0227358Y0090635D01*
X0227772Y0089637D02*
X0160574Y0089637D01*
X0159575Y0088638D02*
X0228185Y0088638D01*
X0228983Y0087640D02*
X0158577Y0087640D01*
X0157578Y0086641D02*
X0229982Y0086641D01*
X0231509Y0085643D02*
X0156580Y0085643D01*
X0155581Y0084644D02*
X0246259Y0084644D01*
X0246429Y0083646D02*
X0154600Y0083646D01*
X0154357Y0082647D02*
X0246599Y0082647D01*
X0246770Y0081649D02*
X0153576Y0081649D01*
X0172556Y0101619D02*
X0215444Y0101619D01*
X0214445Y0102618D02*
X0173555Y0102618D01*
X0174553Y0103616D02*
X0213447Y0103616D01*
X0212448Y0104615D02*
X0175552Y0104615D01*
X0172175Y0106612D02*
X0161449Y0106612D01*
X0161791Y0105613D02*
X0171176Y0105613D01*
X0170178Y0104615D02*
X0161874Y0104615D01*
X0160683Y0107610D02*
X0166729Y0107610D01*
X0165730Y0108609D02*
X0159136Y0108609D01*
X0159896Y0109607D02*
X0164732Y0109607D01*
X0163733Y0110606D02*
X0160833Y0110606D01*
X0161312Y0111604D02*
X0162735Y0111604D01*
X0161736Y0112603D02*
X0161474Y0112603D01*
X0168109Y0111604D02*
X0173167Y0111604D01*
X0173309Y0112603D02*
X0174166Y0112603D01*
X0174978Y0113601D02*
X0175164Y0113601D01*
X0175977Y0114600D02*
X0176163Y0114600D01*
X0176833Y0115598D02*
X0177161Y0115598D01*
X0177247Y0116597D02*
X0178160Y0116597D01*
X0177660Y0117595D02*
X0179158Y0117595D01*
X0180157Y0118594D02*
X0177966Y0118594D01*
X0177966Y0119592D02*
X0181155Y0119592D01*
X0182154Y0120591D02*
X0177966Y0120591D01*
X0177952Y0121589D02*
X0183152Y0121589D01*
X0177538Y0122588D02*
X0200462Y0122588D01*
X0200875Y0123586D02*
X0177125Y0123586D01*
X0176680Y0124585D02*
X0201320Y0124585D01*
X0202318Y0125583D02*
X0175682Y0125583D01*
X0174683Y0126582D02*
X0203317Y0126582D01*
X0205403Y0127580D02*
X0172597Y0127580D01*
X0172282Y0129577D02*
X0205798Y0129577D01*
X0208801Y0128579D02*
X0169014Y0128579D01*
X0167135Y0127580D02*
X0166452Y0127580D01*
X0165049Y0126582D02*
X0164390Y0126582D01*
X0164050Y0125583D02*
X0162328Y0125583D01*
X0163052Y0124585D02*
X0160266Y0124585D01*
X0158606Y0123586D02*
X0162607Y0123586D01*
X0162194Y0122588D02*
X0157163Y0122588D01*
X0155721Y0121589D02*
X0161780Y0121589D01*
X0161766Y0120591D02*
X0154278Y0120591D01*
X0152835Y0119592D02*
X0161766Y0119592D01*
X0161766Y0118594D02*
X0161119Y0118594D01*
X0161461Y0118252D02*
X0161461Y0118252D01*
X0154873Y0118594D02*
X0151549Y0118594D01*
X0150413Y0117595D02*
X0153874Y0117595D01*
X0154531Y0118252D02*
X0154531Y0118252D01*
X0152876Y0116597D02*
X0149278Y0116597D01*
X0176544Y0109607D02*
X0234972Y0109607D01*
X0235703Y0108609D02*
X0213828Y0108609D01*
X0214827Y0107610D02*
X0236435Y0107610D01*
X0237166Y0106612D02*
X0215825Y0106612D01*
X0216824Y0105613D02*
X0237897Y0105613D01*
X0238629Y0104615D02*
X0217822Y0104615D01*
X0218821Y0103616D02*
X0239160Y0103616D01*
X0239677Y0102618D02*
X0219819Y0102618D01*
X0220818Y0101619D02*
X0240194Y0101619D01*
X0240711Y0100620D02*
X0237683Y0100620D01*
X0239911Y0099622D02*
X0241228Y0099622D01*
X0240910Y0098623D02*
X0241745Y0098623D01*
X0241908Y0097625D02*
X0242262Y0097625D01*
X0242411Y0096626D02*
X0242779Y0096626D01*
X0242825Y0095628D02*
X0243129Y0095628D01*
X0243238Y0094629D02*
X0243463Y0094629D01*
X0243294Y0093631D02*
X0243798Y0093631D01*
X0244133Y0092632D02*
X0243294Y0092632D01*
X0243294Y0091634D02*
X0244467Y0091634D01*
X0244802Y0090635D02*
X0243030Y0090635D01*
X0242616Y0089637D02*
X0245137Y0089637D01*
X0245471Y0088638D02*
X0242203Y0088638D01*
X0241405Y0087640D02*
X0245747Y0087640D01*
X0245918Y0086641D02*
X0240406Y0086641D01*
X0238879Y0085643D02*
X0246088Y0085643D01*
X0227563Y0095628D02*
X0226809Y0095628D01*
X0225811Y0096626D02*
X0227977Y0096626D01*
X0228480Y0097625D02*
X0224812Y0097625D01*
X0223814Y0098623D02*
X0229478Y0098623D01*
X0230477Y0099622D02*
X0222815Y0099622D01*
X0221816Y0100620D02*
X0232705Y0100620D01*
X0234240Y0110606D02*
X0177543Y0110606D01*
X0178541Y0111604D02*
X0233509Y0111604D01*
X0232567Y0112603D02*
X0211577Y0112603D01*
X0213246Y0113601D02*
X0231566Y0113601D01*
X0230565Y0114600D02*
X0214245Y0114600D01*
X0215101Y0115598D02*
X0229564Y0115598D01*
X0228564Y0116597D02*
X0215515Y0116597D01*
X0215928Y0117595D02*
X0227563Y0117595D01*
X0226413Y0118594D02*
X0216234Y0118594D01*
X0216234Y0119592D02*
X0225043Y0119592D01*
X0223672Y0120591D02*
X0216234Y0120591D01*
X0216220Y0121589D02*
X0222302Y0121589D01*
X0220932Y0122588D02*
X0215806Y0122588D01*
X0215393Y0123586D02*
X0219513Y0123586D01*
X0217574Y0124585D02*
X0214948Y0124585D01*
X0215634Y0125583D02*
X0213950Y0125583D01*
X0213694Y0126582D02*
X0212951Y0126582D01*
X0211755Y0127580D02*
X0210865Y0127580D01*
X0202488Y0130576D02*
X0175549Y0130576D01*
X0181696Y0131574D02*
X0196551Y0131574D01*
X0200340Y0117595D02*
X0184532Y0117595D01*
X0183534Y0116597D02*
X0200753Y0116597D01*
X0201167Y0115598D02*
X0182535Y0115598D01*
X0181537Y0114600D02*
X0202023Y0114600D01*
X0203022Y0113601D02*
X0180538Y0113601D01*
X0179540Y0112603D02*
X0204691Y0112603D01*
X0106411Y0079652D02*
X0005889Y0079652D01*
X0006060Y0080650D02*
X0105413Y0080650D01*
X0104414Y0081649D02*
X0006230Y0081649D01*
X0006401Y0082647D02*
X0103416Y0082647D01*
X0102417Y0083646D02*
X0006571Y0083646D01*
X0006741Y0084644D02*
X0101419Y0084644D01*
X0100420Y0085643D02*
X0021491Y0085643D01*
X0023018Y0086641D02*
X0099422Y0086641D01*
X0098423Y0087640D02*
X0024017Y0087640D01*
X0024815Y0088638D02*
X0097425Y0088638D01*
X0096426Y0089637D02*
X0025228Y0089637D01*
X0025642Y0090635D02*
X0095428Y0090635D01*
X0094429Y0091634D02*
X0035571Y0091634D01*
X0036569Y0092632D02*
X0093431Y0092632D01*
X0092432Y0093631D02*
X0037568Y0093631D01*
X0038566Y0094629D02*
X0091434Y0094629D01*
X0090435Y0095628D02*
X0039565Y0095628D01*
X0040563Y0096626D02*
X0089437Y0096626D01*
X0088438Y0097625D02*
X0041562Y0097625D01*
X0042560Y0098623D02*
X0087440Y0098623D01*
X0086441Y0099622D02*
X0043559Y0099622D01*
X0044557Y0100620D02*
X0085443Y0100620D01*
X0084444Y0101619D02*
X0045556Y0101619D01*
X0046555Y0102618D02*
X0083445Y0102618D01*
X0082447Y0103616D02*
X0047553Y0103616D01*
X0048552Y0104615D02*
X0081448Y0104615D01*
X0086830Y0109607D02*
X0093351Y0109607D01*
X0093034Y0109739D02*
X0094312Y0109209D01*
X0095696Y0109209D01*
X0096974Y0109739D01*
X0097952Y0110717D01*
X0098482Y0111995D01*
X0098482Y0113379D01*
X0097952Y0114657D01*
X0096974Y0115635D01*
X0095696Y0116165D01*
X0094312Y0116165D01*
X0093034Y0115635D01*
X0092055Y0114657D01*
X0091526Y0113379D01*
X0091526Y0111995D01*
X0092055Y0110717D01*
X0093034Y0109739D01*
X0092167Y0110606D02*
X0085831Y0110606D01*
X0084833Y0111604D02*
X0091688Y0111604D01*
X0091526Y0112603D02*
X0086586Y0112603D01*
X0087722Y0113073D02*
X0090001Y0115352D01*
X0091234Y0118329D01*
X0091234Y0121551D01*
X0090001Y0124528D01*
X0087722Y0126807D01*
X0084745Y0128040D01*
X0081523Y0128040D01*
X0078546Y0126807D01*
X0076267Y0124528D01*
X0075034Y0121551D01*
X0075034Y0118329D01*
X0076267Y0115352D01*
X0078546Y0113073D01*
X0081523Y0111840D01*
X0084745Y0111840D01*
X0087722Y0113073D01*
X0088250Y0113601D02*
X0091618Y0113601D01*
X0092032Y0114600D02*
X0089249Y0114600D01*
X0090103Y0115598D02*
X0092997Y0115598D01*
X0090517Y0116597D02*
X0103722Y0116597D01*
X0102587Y0117595D02*
X0090930Y0117595D01*
X0091234Y0118594D02*
X0101451Y0118594D01*
X0100165Y0119592D02*
X0091234Y0119592D01*
X0091234Y0120591D02*
X0098722Y0120591D01*
X0097279Y0121589D02*
X0091218Y0121589D01*
X0090805Y0122588D02*
X0095837Y0122588D01*
X0094394Y0123586D02*
X0090391Y0123586D01*
X0089944Y0124585D02*
X0092734Y0124585D01*
X0090672Y0125583D02*
X0088946Y0125583D01*
X0088610Y0126582D02*
X0087947Y0126582D01*
X0086548Y0127580D02*
X0085855Y0127580D01*
X0083986Y0128579D02*
X0044199Y0128579D01*
X0042145Y0127580D02*
X0041245Y0127580D01*
X0040053Y0126582D02*
X0039306Y0126582D01*
X0039054Y0125583D02*
X0037366Y0125583D01*
X0038056Y0124585D02*
X0035426Y0124585D01*
X0033487Y0123586D02*
X0037609Y0123586D01*
X0037195Y0122588D02*
X0032068Y0122588D01*
X0030698Y0121589D02*
X0036782Y0121589D01*
X0036766Y0120591D02*
X0029327Y0120591D01*
X0027957Y0119592D02*
X0036766Y0119592D01*
X0036766Y0118594D02*
X0026587Y0118594D01*
X0025437Y0117595D02*
X0037070Y0117595D01*
X0037483Y0116597D02*
X0024436Y0116597D01*
X0023436Y0115598D02*
X0037897Y0115598D01*
X0038751Y0114600D02*
X0022435Y0114600D01*
X0021434Y0113601D02*
X0039750Y0113601D01*
X0041414Y0112603D02*
X0020433Y0112603D01*
X0019491Y0111604D02*
X0050515Y0111604D01*
X0051513Y0110606D02*
X0018760Y0110606D01*
X0018028Y0109607D02*
X0052512Y0109607D01*
X0047172Y0108609D02*
X0017297Y0108609D01*
X0016565Y0107610D02*
X0046173Y0107610D01*
X0045175Y0106612D02*
X0015834Y0106612D01*
X0015103Y0105613D02*
X0044176Y0105613D01*
X0043178Y0104615D02*
X0014371Y0104615D01*
X0013840Y0103616D02*
X0042179Y0103616D01*
X0041181Y0102618D02*
X0013323Y0102618D01*
X0012806Y0101619D02*
X0040182Y0101619D01*
X0039183Y0100620D02*
X0020295Y0100620D01*
X0022523Y0099622D02*
X0038185Y0099622D01*
X0037186Y0098623D02*
X0023522Y0098623D01*
X0024520Y0097625D02*
X0036188Y0097625D01*
X0035189Y0096626D02*
X0025023Y0096626D01*
X0025437Y0095628D02*
X0034191Y0095628D01*
X0015317Y0100620D02*
X0012289Y0100620D01*
X0011772Y0099622D02*
X0013089Y0099622D01*
X0012090Y0098623D02*
X0011255Y0098623D01*
X0011092Y0097625D02*
X0010738Y0097625D01*
X0010589Y0096626D02*
X0010221Y0096626D01*
X0010175Y0095628D02*
X0009871Y0095628D01*
X0009762Y0094629D02*
X0009537Y0094629D01*
X0009706Y0093631D02*
X0009202Y0093631D01*
X0008867Y0092632D02*
X0009706Y0092632D01*
X0009706Y0091634D02*
X0008533Y0091634D01*
X0008198Y0090635D02*
X0009970Y0090635D01*
X0010384Y0089637D02*
X0007863Y0089637D01*
X0007529Y0088638D02*
X0010797Y0088638D01*
X0011595Y0087640D02*
X0007252Y0087640D01*
X0007082Y0086641D02*
X0012594Y0086641D01*
X0014121Y0085643D02*
X0006912Y0085643D01*
X0048318Y0112603D02*
X0049516Y0112603D01*
X0052893Y0114600D02*
X0077019Y0114600D01*
X0076165Y0115598D02*
X0051895Y0115598D01*
X0052248Y0116597D02*
X0075751Y0116597D01*
X0075338Y0117595D02*
X0052662Y0117595D01*
X0052966Y0118594D02*
X0075034Y0118594D01*
X0075034Y0119592D02*
X0052966Y0119592D01*
X0052966Y0120591D02*
X0075034Y0120591D01*
X0075050Y0121589D02*
X0052950Y0121589D01*
X0052537Y0122588D02*
X0075463Y0122588D01*
X0075877Y0123586D02*
X0052123Y0123586D01*
X0051676Y0124585D02*
X0076324Y0124585D01*
X0077322Y0125583D02*
X0050678Y0125583D01*
X0049679Y0126582D02*
X0078321Y0126582D01*
X0080413Y0127580D02*
X0047587Y0127580D01*
X0047202Y0129577D02*
X0080718Y0129577D01*
X0077451Y0130576D02*
X0050512Y0130576D01*
X0056449Y0131574D02*
X0071304Y0131574D01*
X0097011Y0115598D02*
X0100871Y0115598D01*
X0099906Y0114600D02*
X0097976Y0114600D01*
X0098390Y0113601D02*
X0099492Y0113601D01*
X0099400Y0112603D02*
X0098482Y0112603D01*
X0098320Y0111604D02*
X0099562Y0111604D01*
X0100041Y0110606D02*
X0097841Y0110606D01*
X0096657Y0109607D02*
X0099642Y0109607D01*
X0098644Y0108609D02*
X0097887Y0108609D01*
X0095193Y0108609D02*
X0094815Y0108609D01*
X0094815Y0107610D02*
X0095193Y0107610D01*
X0095193Y0106612D02*
X0094815Y0106612D01*
X0094815Y0105613D02*
X0095193Y0105613D01*
X0095193Y0104624D02*
X0095193Y0100935D01*
X0096723Y0100935D01*
X0096527Y0100854D01*
X0095796Y0100123D01*
X0095459Y0099309D01*
X0093833Y0100935D01*
X0094815Y0100935D01*
X0094815Y0104624D01*
X0095193Y0104624D01*
X0095193Y0104615D02*
X0094815Y0104615D01*
X0094815Y0103616D02*
X0095193Y0103616D01*
X0095193Y0102618D02*
X0094815Y0102618D01*
X0094815Y0101619D02*
X0095193Y0101619D01*
X0094148Y0100620D02*
X0096294Y0100620D01*
X0095588Y0099622D02*
X0095146Y0099622D01*
X0091126Y0105613D02*
X0090824Y0105613D01*
X0091126Y0106612D02*
X0089825Y0106612D01*
X0088827Y0107610D02*
X0091185Y0107610D01*
X0092121Y0108609D02*
X0087828Y0108609D01*
X0079682Y0112603D02*
X0054890Y0112603D01*
X0053892Y0113601D02*
X0078018Y0113601D01*
M02*
