G75*
%MOIN*%
%OFA0B0*%
%FSLAX25Y25*%
%IPPOS*%
%LPD*%
%AMOC8*
5,1,8,0,0,1.08239X$1,22.5*
%
%ADD10C,0.20000*%
%ADD11R,0.05556X0.05556*%
%ADD12C,0.05556*%
%ADD13C,0.14800*%
%ADD14C,0.03800*%
%ADD15C,0.30400*%
D10*
X0044000Y0073750D02*
X0044006Y0074241D01*
X0044024Y0074731D01*
X0044054Y0075221D01*
X0044096Y0075710D01*
X0044150Y0076198D01*
X0044216Y0076685D01*
X0044294Y0077169D01*
X0044384Y0077652D01*
X0044486Y0078132D01*
X0044599Y0078610D01*
X0044724Y0079084D01*
X0044861Y0079556D01*
X0045009Y0080024D01*
X0045169Y0080488D01*
X0045340Y0080948D01*
X0045522Y0081404D01*
X0045716Y0081855D01*
X0045920Y0082301D01*
X0046136Y0082742D01*
X0046362Y0083178D01*
X0046598Y0083608D01*
X0046845Y0084032D01*
X0047103Y0084450D01*
X0047371Y0084861D01*
X0047648Y0085266D01*
X0047936Y0085664D01*
X0048233Y0086055D01*
X0048540Y0086438D01*
X0048856Y0086813D01*
X0049181Y0087181D01*
X0049515Y0087541D01*
X0049858Y0087892D01*
X0050209Y0088235D01*
X0050569Y0088569D01*
X0050937Y0088894D01*
X0051312Y0089210D01*
X0051695Y0089517D01*
X0052086Y0089814D01*
X0052484Y0090102D01*
X0052889Y0090379D01*
X0053300Y0090647D01*
X0053718Y0090905D01*
X0054142Y0091152D01*
X0054572Y0091388D01*
X0055008Y0091614D01*
X0055449Y0091830D01*
X0055895Y0092034D01*
X0056346Y0092228D01*
X0056802Y0092410D01*
X0057262Y0092581D01*
X0057726Y0092741D01*
X0058194Y0092889D01*
X0058666Y0093026D01*
X0059140Y0093151D01*
X0059618Y0093264D01*
X0060098Y0093366D01*
X0060581Y0093456D01*
X0061065Y0093534D01*
X0061552Y0093600D01*
X0062040Y0093654D01*
X0062529Y0093696D01*
X0063019Y0093726D01*
X0063509Y0093744D01*
X0064000Y0093750D01*
X0064491Y0093744D01*
X0064981Y0093726D01*
X0065471Y0093696D01*
X0065960Y0093654D01*
X0066448Y0093600D01*
X0066935Y0093534D01*
X0067419Y0093456D01*
X0067902Y0093366D01*
X0068382Y0093264D01*
X0068860Y0093151D01*
X0069334Y0093026D01*
X0069806Y0092889D01*
X0070274Y0092741D01*
X0070738Y0092581D01*
X0071198Y0092410D01*
X0071654Y0092228D01*
X0072105Y0092034D01*
X0072551Y0091830D01*
X0072992Y0091614D01*
X0073428Y0091388D01*
X0073858Y0091152D01*
X0074282Y0090905D01*
X0074700Y0090647D01*
X0075111Y0090379D01*
X0075516Y0090102D01*
X0075914Y0089814D01*
X0076305Y0089517D01*
X0076688Y0089210D01*
X0077063Y0088894D01*
X0077431Y0088569D01*
X0077791Y0088235D01*
X0078142Y0087892D01*
X0078485Y0087541D01*
X0078819Y0087181D01*
X0079144Y0086813D01*
X0079460Y0086438D01*
X0079767Y0086055D01*
X0080064Y0085664D01*
X0080352Y0085266D01*
X0080629Y0084861D01*
X0080897Y0084450D01*
X0081155Y0084032D01*
X0081402Y0083608D01*
X0081638Y0083178D01*
X0081864Y0082742D01*
X0082080Y0082301D01*
X0082284Y0081855D01*
X0082478Y0081404D01*
X0082660Y0080948D01*
X0082831Y0080488D01*
X0082991Y0080024D01*
X0083139Y0079556D01*
X0083276Y0079084D01*
X0083401Y0078610D01*
X0083514Y0078132D01*
X0083616Y0077652D01*
X0083706Y0077169D01*
X0083784Y0076685D01*
X0083850Y0076198D01*
X0083904Y0075710D01*
X0083946Y0075221D01*
X0083976Y0074731D01*
X0083994Y0074241D01*
X0084000Y0073750D01*
X0083994Y0073259D01*
X0083976Y0072769D01*
X0083946Y0072279D01*
X0083904Y0071790D01*
X0083850Y0071302D01*
X0083784Y0070815D01*
X0083706Y0070331D01*
X0083616Y0069848D01*
X0083514Y0069368D01*
X0083401Y0068890D01*
X0083276Y0068416D01*
X0083139Y0067944D01*
X0082991Y0067476D01*
X0082831Y0067012D01*
X0082660Y0066552D01*
X0082478Y0066096D01*
X0082284Y0065645D01*
X0082080Y0065199D01*
X0081864Y0064758D01*
X0081638Y0064322D01*
X0081402Y0063892D01*
X0081155Y0063468D01*
X0080897Y0063050D01*
X0080629Y0062639D01*
X0080352Y0062234D01*
X0080064Y0061836D01*
X0079767Y0061445D01*
X0079460Y0061062D01*
X0079144Y0060687D01*
X0078819Y0060319D01*
X0078485Y0059959D01*
X0078142Y0059608D01*
X0077791Y0059265D01*
X0077431Y0058931D01*
X0077063Y0058606D01*
X0076688Y0058290D01*
X0076305Y0057983D01*
X0075914Y0057686D01*
X0075516Y0057398D01*
X0075111Y0057121D01*
X0074700Y0056853D01*
X0074282Y0056595D01*
X0073858Y0056348D01*
X0073428Y0056112D01*
X0072992Y0055886D01*
X0072551Y0055670D01*
X0072105Y0055466D01*
X0071654Y0055272D01*
X0071198Y0055090D01*
X0070738Y0054919D01*
X0070274Y0054759D01*
X0069806Y0054611D01*
X0069334Y0054474D01*
X0068860Y0054349D01*
X0068382Y0054236D01*
X0067902Y0054134D01*
X0067419Y0054044D01*
X0066935Y0053966D01*
X0066448Y0053900D01*
X0065960Y0053846D01*
X0065471Y0053804D01*
X0064981Y0053774D01*
X0064491Y0053756D01*
X0064000Y0053750D01*
X0063509Y0053756D01*
X0063019Y0053774D01*
X0062529Y0053804D01*
X0062040Y0053846D01*
X0061552Y0053900D01*
X0061065Y0053966D01*
X0060581Y0054044D01*
X0060098Y0054134D01*
X0059618Y0054236D01*
X0059140Y0054349D01*
X0058666Y0054474D01*
X0058194Y0054611D01*
X0057726Y0054759D01*
X0057262Y0054919D01*
X0056802Y0055090D01*
X0056346Y0055272D01*
X0055895Y0055466D01*
X0055449Y0055670D01*
X0055008Y0055886D01*
X0054572Y0056112D01*
X0054142Y0056348D01*
X0053718Y0056595D01*
X0053300Y0056853D01*
X0052889Y0057121D01*
X0052484Y0057398D01*
X0052086Y0057686D01*
X0051695Y0057983D01*
X0051312Y0058290D01*
X0050937Y0058606D01*
X0050569Y0058931D01*
X0050209Y0059265D01*
X0049858Y0059608D01*
X0049515Y0059959D01*
X0049181Y0060319D01*
X0048856Y0060687D01*
X0048540Y0061062D01*
X0048233Y0061445D01*
X0047936Y0061836D01*
X0047648Y0062234D01*
X0047371Y0062639D01*
X0047103Y0063050D01*
X0046845Y0063468D01*
X0046598Y0063892D01*
X0046362Y0064322D01*
X0046136Y0064758D01*
X0045920Y0065199D01*
X0045716Y0065645D01*
X0045522Y0066096D01*
X0045340Y0066552D01*
X0045169Y0067012D01*
X0045009Y0067476D01*
X0044861Y0067944D01*
X0044724Y0068416D01*
X0044599Y0068890D01*
X0044486Y0069368D01*
X0044384Y0069848D01*
X0044294Y0070331D01*
X0044216Y0070815D01*
X0044150Y0071302D01*
X0044096Y0071790D01*
X0044054Y0072279D01*
X0044024Y0072769D01*
X0044006Y0073259D01*
X0044000Y0073750D01*
X0169000Y0073750D02*
X0169006Y0074241D01*
X0169024Y0074731D01*
X0169054Y0075221D01*
X0169096Y0075710D01*
X0169150Y0076198D01*
X0169216Y0076685D01*
X0169294Y0077169D01*
X0169384Y0077652D01*
X0169486Y0078132D01*
X0169599Y0078610D01*
X0169724Y0079084D01*
X0169861Y0079556D01*
X0170009Y0080024D01*
X0170169Y0080488D01*
X0170340Y0080948D01*
X0170522Y0081404D01*
X0170716Y0081855D01*
X0170920Y0082301D01*
X0171136Y0082742D01*
X0171362Y0083178D01*
X0171598Y0083608D01*
X0171845Y0084032D01*
X0172103Y0084450D01*
X0172371Y0084861D01*
X0172648Y0085266D01*
X0172936Y0085664D01*
X0173233Y0086055D01*
X0173540Y0086438D01*
X0173856Y0086813D01*
X0174181Y0087181D01*
X0174515Y0087541D01*
X0174858Y0087892D01*
X0175209Y0088235D01*
X0175569Y0088569D01*
X0175937Y0088894D01*
X0176312Y0089210D01*
X0176695Y0089517D01*
X0177086Y0089814D01*
X0177484Y0090102D01*
X0177889Y0090379D01*
X0178300Y0090647D01*
X0178718Y0090905D01*
X0179142Y0091152D01*
X0179572Y0091388D01*
X0180008Y0091614D01*
X0180449Y0091830D01*
X0180895Y0092034D01*
X0181346Y0092228D01*
X0181802Y0092410D01*
X0182262Y0092581D01*
X0182726Y0092741D01*
X0183194Y0092889D01*
X0183666Y0093026D01*
X0184140Y0093151D01*
X0184618Y0093264D01*
X0185098Y0093366D01*
X0185581Y0093456D01*
X0186065Y0093534D01*
X0186552Y0093600D01*
X0187040Y0093654D01*
X0187529Y0093696D01*
X0188019Y0093726D01*
X0188509Y0093744D01*
X0189000Y0093750D01*
X0189491Y0093744D01*
X0189981Y0093726D01*
X0190471Y0093696D01*
X0190960Y0093654D01*
X0191448Y0093600D01*
X0191935Y0093534D01*
X0192419Y0093456D01*
X0192902Y0093366D01*
X0193382Y0093264D01*
X0193860Y0093151D01*
X0194334Y0093026D01*
X0194806Y0092889D01*
X0195274Y0092741D01*
X0195738Y0092581D01*
X0196198Y0092410D01*
X0196654Y0092228D01*
X0197105Y0092034D01*
X0197551Y0091830D01*
X0197992Y0091614D01*
X0198428Y0091388D01*
X0198858Y0091152D01*
X0199282Y0090905D01*
X0199700Y0090647D01*
X0200111Y0090379D01*
X0200516Y0090102D01*
X0200914Y0089814D01*
X0201305Y0089517D01*
X0201688Y0089210D01*
X0202063Y0088894D01*
X0202431Y0088569D01*
X0202791Y0088235D01*
X0203142Y0087892D01*
X0203485Y0087541D01*
X0203819Y0087181D01*
X0204144Y0086813D01*
X0204460Y0086438D01*
X0204767Y0086055D01*
X0205064Y0085664D01*
X0205352Y0085266D01*
X0205629Y0084861D01*
X0205897Y0084450D01*
X0206155Y0084032D01*
X0206402Y0083608D01*
X0206638Y0083178D01*
X0206864Y0082742D01*
X0207080Y0082301D01*
X0207284Y0081855D01*
X0207478Y0081404D01*
X0207660Y0080948D01*
X0207831Y0080488D01*
X0207991Y0080024D01*
X0208139Y0079556D01*
X0208276Y0079084D01*
X0208401Y0078610D01*
X0208514Y0078132D01*
X0208616Y0077652D01*
X0208706Y0077169D01*
X0208784Y0076685D01*
X0208850Y0076198D01*
X0208904Y0075710D01*
X0208946Y0075221D01*
X0208976Y0074731D01*
X0208994Y0074241D01*
X0209000Y0073750D01*
X0208994Y0073259D01*
X0208976Y0072769D01*
X0208946Y0072279D01*
X0208904Y0071790D01*
X0208850Y0071302D01*
X0208784Y0070815D01*
X0208706Y0070331D01*
X0208616Y0069848D01*
X0208514Y0069368D01*
X0208401Y0068890D01*
X0208276Y0068416D01*
X0208139Y0067944D01*
X0207991Y0067476D01*
X0207831Y0067012D01*
X0207660Y0066552D01*
X0207478Y0066096D01*
X0207284Y0065645D01*
X0207080Y0065199D01*
X0206864Y0064758D01*
X0206638Y0064322D01*
X0206402Y0063892D01*
X0206155Y0063468D01*
X0205897Y0063050D01*
X0205629Y0062639D01*
X0205352Y0062234D01*
X0205064Y0061836D01*
X0204767Y0061445D01*
X0204460Y0061062D01*
X0204144Y0060687D01*
X0203819Y0060319D01*
X0203485Y0059959D01*
X0203142Y0059608D01*
X0202791Y0059265D01*
X0202431Y0058931D01*
X0202063Y0058606D01*
X0201688Y0058290D01*
X0201305Y0057983D01*
X0200914Y0057686D01*
X0200516Y0057398D01*
X0200111Y0057121D01*
X0199700Y0056853D01*
X0199282Y0056595D01*
X0198858Y0056348D01*
X0198428Y0056112D01*
X0197992Y0055886D01*
X0197551Y0055670D01*
X0197105Y0055466D01*
X0196654Y0055272D01*
X0196198Y0055090D01*
X0195738Y0054919D01*
X0195274Y0054759D01*
X0194806Y0054611D01*
X0194334Y0054474D01*
X0193860Y0054349D01*
X0193382Y0054236D01*
X0192902Y0054134D01*
X0192419Y0054044D01*
X0191935Y0053966D01*
X0191448Y0053900D01*
X0190960Y0053846D01*
X0190471Y0053804D01*
X0189981Y0053774D01*
X0189491Y0053756D01*
X0189000Y0053750D01*
X0188509Y0053756D01*
X0188019Y0053774D01*
X0187529Y0053804D01*
X0187040Y0053846D01*
X0186552Y0053900D01*
X0186065Y0053966D01*
X0185581Y0054044D01*
X0185098Y0054134D01*
X0184618Y0054236D01*
X0184140Y0054349D01*
X0183666Y0054474D01*
X0183194Y0054611D01*
X0182726Y0054759D01*
X0182262Y0054919D01*
X0181802Y0055090D01*
X0181346Y0055272D01*
X0180895Y0055466D01*
X0180449Y0055670D01*
X0180008Y0055886D01*
X0179572Y0056112D01*
X0179142Y0056348D01*
X0178718Y0056595D01*
X0178300Y0056853D01*
X0177889Y0057121D01*
X0177484Y0057398D01*
X0177086Y0057686D01*
X0176695Y0057983D01*
X0176312Y0058290D01*
X0175937Y0058606D01*
X0175569Y0058931D01*
X0175209Y0059265D01*
X0174858Y0059608D01*
X0174515Y0059959D01*
X0174181Y0060319D01*
X0173856Y0060687D01*
X0173540Y0061062D01*
X0173233Y0061445D01*
X0172936Y0061836D01*
X0172648Y0062234D01*
X0172371Y0062639D01*
X0172103Y0063050D01*
X0171845Y0063468D01*
X0171598Y0063892D01*
X0171362Y0064322D01*
X0171136Y0064758D01*
X0170920Y0065199D01*
X0170716Y0065645D01*
X0170522Y0066096D01*
X0170340Y0066552D01*
X0170169Y0067012D01*
X0170009Y0067476D01*
X0169861Y0067944D01*
X0169724Y0068416D01*
X0169599Y0068890D01*
X0169486Y0069368D01*
X0169384Y0069848D01*
X0169294Y0070331D01*
X0169216Y0070815D01*
X0169150Y0071302D01*
X0169096Y0071790D01*
X0169054Y0072279D01*
X0169024Y0072769D01*
X0169006Y0073259D01*
X0169000Y0073750D01*
D11*
X0095004Y0104813D03*
D12*
X0102878Y0104813D03*
X0110752Y0104813D03*
X0118626Y0104813D03*
X0126500Y0104813D03*
X0134374Y0104813D03*
X0142248Y0104813D03*
X0150122Y0104813D03*
X0157996Y0104813D03*
X0157996Y0112687D03*
X0150122Y0112687D03*
X0142248Y0112687D03*
X0134374Y0112687D03*
X0126500Y0112687D03*
X0118626Y0112687D03*
X0110752Y0112687D03*
X0102878Y0112687D03*
X0095004Y0112687D03*
D13*
X0044866Y0027556D03*
X0083134Y0027556D03*
X0110194Y0054616D03*
X0142806Y0054616D03*
X0169866Y0027556D03*
X0208134Y0027556D03*
X0235194Y0054616D03*
X0235194Y0092884D03*
X0208134Y0119944D03*
X0169866Y0119944D03*
X0142806Y0092884D03*
X0110194Y0092884D03*
X0083134Y0119940D03*
X0044866Y0119940D03*
X0017806Y0092884D03*
X0017806Y0054616D03*
D14*
X0035000Y0048750D03*
X0029000Y0034750D03*
X0065000Y0022750D03*
X0090000Y0042750D03*
X0104000Y0039750D03*
X0136000Y0067750D03*
X0148000Y0075750D03*
X0152000Y0070750D03*
X0152000Y0083750D03*
X0167000Y0104750D03*
X0188000Y0111750D03*
X0182000Y0125750D03*
X0215000Y0096750D03*
X0235000Y0104750D03*
X0232000Y0072750D03*
X0217000Y0044750D03*
X0222000Y0031750D03*
X0191000Y0032750D03*
X0158000Y0041750D03*
X0155000Y0031750D03*
X0103000Y0073750D03*
X0098000Y0098650D03*
X0089000Y0111750D03*
X0067000Y0117750D03*
X0031000Y0101750D03*
X0019000Y0074750D03*
D15*
X0064000Y0073750D03*
X0189000Y0073750D03*
M02*
