G75*
%MOIN*%
%OFA0B0*%
%FSLAX25Y25*%
%IPPOS*%
%LPD*%
%AMOC8*
5,1,8,0,0,1.08239X$1,22.5*
%
%ADD10C,0.15000*%
%ADD11R,0.04756X0.04756*%
%ADD12C,0.04756*%
%ADD13C,0.14000*%
%ADD14C,0.01600*%
%ADD15C,0.03000*%
%ADD16C,0.29600*%
%ADD17C,0.01000*%
D10*
X0041500Y0073750D02*
X0041507Y0074302D01*
X0041527Y0074854D01*
X0041561Y0075405D01*
X0041608Y0075955D01*
X0041669Y0076504D01*
X0041744Y0077051D01*
X0041831Y0077597D01*
X0041932Y0078140D01*
X0042047Y0078680D01*
X0042174Y0079217D01*
X0042315Y0079751D01*
X0042469Y0080281D01*
X0042636Y0080808D01*
X0042815Y0081330D01*
X0043008Y0081848D01*
X0043213Y0082360D01*
X0043430Y0082868D01*
X0043660Y0083370D01*
X0043902Y0083866D01*
X0044157Y0084356D01*
X0044423Y0084840D01*
X0044701Y0085317D01*
X0044991Y0085787D01*
X0045292Y0086250D01*
X0045604Y0086706D01*
X0045928Y0087153D01*
X0046262Y0087593D01*
X0046607Y0088024D01*
X0046963Y0088446D01*
X0047329Y0088860D01*
X0047704Y0089265D01*
X0048090Y0089660D01*
X0048485Y0090046D01*
X0048890Y0090421D01*
X0049304Y0090787D01*
X0049726Y0091143D01*
X0050157Y0091488D01*
X0050597Y0091822D01*
X0051044Y0092146D01*
X0051500Y0092458D01*
X0051963Y0092759D01*
X0052433Y0093049D01*
X0052910Y0093327D01*
X0053394Y0093593D01*
X0053884Y0093848D01*
X0054380Y0094090D01*
X0054882Y0094320D01*
X0055390Y0094537D01*
X0055902Y0094742D01*
X0056420Y0094935D01*
X0056942Y0095114D01*
X0057469Y0095281D01*
X0057999Y0095435D01*
X0058533Y0095576D01*
X0059070Y0095703D01*
X0059610Y0095818D01*
X0060153Y0095919D01*
X0060699Y0096006D01*
X0061246Y0096081D01*
X0061795Y0096142D01*
X0062345Y0096189D01*
X0062896Y0096223D01*
X0063448Y0096243D01*
X0064000Y0096250D01*
X0064552Y0096243D01*
X0065104Y0096223D01*
X0065655Y0096189D01*
X0066205Y0096142D01*
X0066754Y0096081D01*
X0067301Y0096006D01*
X0067847Y0095919D01*
X0068390Y0095818D01*
X0068930Y0095703D01*
X0069467Y0095576D01*
X0070001Y0095435D01*
X0070531Y0095281D01*
X0071058Y0095114D01*
X0071580Y0094935D01*
X0072098Y0094742D01*
X0072610Y0094537D01*
X0073118Y0094320D01*
X0073620Y0094090D01*
X0074116Y0093848D01*
X0074606Y0093593D01*
X0075090Y0093327D01*
X0075567Y0093049D01*
X0076037Y0092759D01*
X0076500Y0092458D01*
X0076956Y0092146D01*
X0077403Y0091822D01*
X0077843Y0091488D01*
X0078274Y0091143D01*
X0078696Y0090787D01*
X0079110Y0090421D01*
X0079515Y0090046D01*
X0079910Y0089660D01*
X0080296Y0089265D01*
X0080671Y0088860D01*
X0081037Y0088446D01*
X0081393Y0088024D01*
X0081738Y0087593D01*
X0082072Y0087153D01*
X0082396Y0086706D01*
X0082708Y0086250D01*
X0083009Y0085787D01*
X0083299Y0085317D01*
X0083577Y0084840D01*
X0083843Y0084356D01*
X0084098Y0083866D01*
X0084340Y0083370D01*
X0084570Y0082868D01*
X0084787Y0082360D01*
X0084992Y0081848D01*
X0085185Y0081330D01*
X0085364Y0080808D01*
X0085531Y0080281D01*
X0085685Y0079751D01*
X0085826Y0079217D01*
X0085953Y0078680D01*
X0086068Y0078140D01*
X0086169Y0077597D01*
X0086256Y0077051D01*
X0086331Y0076504D01*
X0086392Y0075955D01*
X0086439Y0075405D01*
X0086473Y0074854D01*
X0086493Y0074302D01*
X0086500Y0073750D01*
X0086493Y0073198D01*
X0086473Y0072646D01*
X0086439Y0072095D01*
X0086392Y0071545D01*
X0086331Y0070996D01*
X0086256Y0070449D01*
X0086169Y0069903D01*
X0086068Y0069360D01*
X0085953Y0068820D01*
X0085826Y0068283D01*
X0085685Y0067749D01*
X0085531Y0067219D01*
X0085364Y0066692D01*
X0085185Y0066170D01*
X0084992Y0065652D01*
X0084787Y0065140D01*
X0084570Y0064632D01*
X0084340Y0064130D01*
X0084098Y0063634D01*
X0083843Y0063144D01*
X0083577Y0062660D01*
X0083299Y0062183D01*
X0083009Y0061713D01*
X0082708Y0061250D01*
X0082396Y0060794D01*
X0082072Y0060347D01*
X0081738Y0059907D01*
X0081393Y0059476D01*
X0081037Y0059054D01*
X0080671Y0058640D01*
X0080296Y0058235D01*
X0079910Y0057840D01*
X0079515Y0057454D01*
X0079110Y0057079D01*
X0078696Y0056713D01*
X0078274Y0056357D01*
X0077843Y0056012D01*
X0077403Y0055678D01*
X0076956Y0055354D01*
X0076500Y0055042D01*
X0076037Y0054741D01*
X0075567Y0054451D01*
X0075090Y0054173D01*
X0074606Y0053907D01*
X0074116Y0053652D01*
X0073620Y0053410D01*
X0073118Y0053180D01*
X0072610Y0052963D01*
X0072098Y0052758D01*
X0071580Y0052565D01*
X0071058Y0052386D01*
X0070531Y0052219D01*
X0070001Y0052065D01*
X0069467Y0051924D01*
X0068930Y0051797D01*
X0068390Y0051682D01*
X0067847Y0051581D01*
X0067301Y0051494D01*
X0066754Y0051419D01*
X0066205Y0051358D01*
X0065655Y0051311D01*
X0065104Y0051277D01*
X0064552Y0051257D01*
X0064000Y0051250D01*
X0063448Y0051257D01*
X0062896Y0051277D01*
X0062345Y0051311D01*
X0061795Y0051358D01*
X0061246Y0051419D01*
X0060699Y0051494D01*
X0060153Y0051581D01*
X0059610Y0051682D01*
X0059070Y0051797D01*
X0058533Y0051924D01*
X0057999Y0052065D01*
X0057469Y0052219D01*
X0056942Y0052386D01*
X0056420Y0052565D01*
X0055902Y0052758D01*
X0055390Y0052963D01*
X0054882Y0053180D01*
X0054380Y0053410D01*
X0053884Y0053652D01*
X0053394Y0053907D01*
X0052910Y0054173D01*
X0052433Y0054451D01*
X0051963Y0054741D01*
X0051500Y0055042D01*
X0051044Y0055354D01*
X0050597Y0055678D01*
X0050157Y0056012D01*
X0049726Y0056357D01*
X0049304Y0056713D01*
X0048890Y0057079D01*
X0048485Y0057454D01*
X0048090Y0057840D01*
X0047704Y0058235D01*
X0047329Y0058640D01*
X0046963Y0059054D01*
X0046607Y0059476D01*
X0046262Y0059907D01*
X0045928Y0060347D01*
X0045604Y0060794D01*
X0045292Y0061250D01*
X0044991Y0061713D01*
X0044701Y0062183D01*
X0044423Y0062660D01*
X0044157Y0063144D01*
X0043902Y0063634D01*
X0043660Y0064130D01*
X0043430Y0064632D01*
X0043213Y0065140D01*
X0043008Y0065652D01*
X0042815Y0066170D01*
X0042636Y0066692D01*
X0042469Y0067219D01*
X0042315Y0067749D01*
X0042174Y0068283D01*
X0042047Y0068820D01*
X0041932Y0069360D01*
X0041831Y0069903D01*
X0041744Y0070449D01*
X0041669Y0070996D01*
X0041608Y0071545D01*
X0041561Y0072095D01*
X0041527Y0072646D01*
X0041507Y0073198D01*
X0041500Y0073750D01*
X0166500Y0073750D02*
X0166507Y0074302D01*
X0166527Y0074854D01*
X0166561Y0075405D01*
X0166608Y0075955D01*
X0166669Y0076504D01*
X0166744Y0077051D01*
X0166831Y0077597D01*
X0166932Y0078140D01*
X0167047Y0078680D01*
X0167174Y0079217D01*
X0167315Y0079751D01*
X0167469Y0080281D01*
X0167636Y0080808D01*
X0167815Y0081330D01*
X0168008Y0081848D01*
X0168213Y0082360D01*
X0168430Y0082868D01*
X0168660Y0083370D01*
X0168902Y0083866D01*
X0169157Y0084356D01*
X0169423Y0084840D01*
X0169701Y0085317D01*
X0169991Y0085787D01*
X0170292Y0086250D01*
X0170604Y0086706D01*
X0170928Y0087153D01*
X0171262Y0087593D01*
X0171607Y0088024D01*
X0171963Y0088446D01*
X0172329Y0088860D01*
X0172704Y0089265D01*
X0173090Y0089660D01*
X0173485Y0090046D01*
X0173890Y0090421D01*
X0174304Y0090787D01*
X0174726Y0091143D01*
X0175157Y0091488D01*
X0175597Y0091822D01*
X0176044Y0092146D01*
X0176500Y0092458D01*
X0176963Y0092759D01*
X0177433Y0093049D01*
X0177910Y0093327D01*
X0178394Y0093593D01*
X0178884Y0093848D01*
X0179380Y0094090D01*
X0179882Y0094320D01*
X0180390Y0094537D01*
X0180902Y0094742D01*
X0181420Y0094935D01*
X0181942Y0095114D01*
X0182469Y0095281D01*
X0182999Y0095435D01*
X0183533Y0095576D01*
X0184070Y0095703D01*
X0184610Y0095818D01*
X0185153Y0095919D01*
X0185699Y0096006D01*
X0186246Y0096081D01*
X0186795Y0096142D01*
X0187345Y0096189D01*
X0187896Y0096223D01*
X0188448Y0096243D01*
X0189000Y0096250D01*
X0189552Y0096243D01*
X0190104Y0096223D01*
X0190655Y0096189D01*
X0191205Y0096142D01*
X0191754Y0096081D01*
X0192301Y0096006D01*
X0192847Y0095919D01*
X0193390Y0095818D01*
X0193930Y0095703D01*
X0194467Y0095576D01*
X0195001Y0095435D01*
X0195531Y0095281D01*
X0196058Y0095114D01*
X0196580Y0094935D01*
X0197098Y0094742D01*
X0197610Y0094537D01*
X0198118Y0094320D01*
X0198620Y0094090D01*
X0199116Y0093848D01*
X0199606Y0093593D01*
X0200090Y0093327D01*
X0200567Y0093049D01*
X0201037Y0092759D01*
X0201500Y0092458D01*
X0201956Y0092146D01*
X0202403Y0091822D01*
X0202843Y0091488D01*
X0203274Y0091143D01*
X0203696Y0090787D01*
X0204110Y0090421D01*
X0204515Y0090046D01*
X0204910Y0089660D01*
X0205296Y0089265D01*
X0205671Y0088860D01*
X0206037Y0088446D01*
X0206393Y0088024D01*
X0206738Y0087593D01*
X0207072Y0087153D01*
X0207396Y0086706D01*
X0207708Y0086250D01*
X0208009Y0085787D01*
X0208299Y0085317D01*
X0208577Y0084840D01*
X0208843Y0084356D01*
X0209098Y0083866D01*
X0209340Y0083370D01*
X0209570Y0082868D01*
X0209787Y0082360D01*
X0209992Y0081848D01*
X0210185Y0081330D01*
X0210364Y0080808D01*
X0210531Y0080281D01*
X0210685Y0079751D01*
X0210826Y0079217D01*
X0210953Y0078680D01*
X0211068Y0078140D01*
X0211169Y0077597D01*
X0211256Y0077051D01*
X0211331Y0076504D01*
X0211392Y0075955D01*
X0211439Y0075405D01*
X0211473Y0074854D01*
X0211493Y0074302D01*
X0211500Y0073750D01*
X0211493Y0073198D01*
X0211473Y0072646D01*
X0211439Y0072095D01*
X0211392Y0071545D01*
X0211331Y0070996D01*
X0211256Y0070449D01*
X0211169Y0069903D01*
X0211068Y0069360D01*
X0210953Y0068820D01*
X0210826Y0068283D01*
X0210685Y0067749D01*
X0210531Y0067219D01*
X0210364Y0066692D01*
X0210185Y0066170D01*
X0209992Y0065652D01*
X0209787Y0065140D01*
X0209570Y0064632D01*
X0209340Y0064130D01*
X0209098Y0063634D01*
X0208843Y0063144D01*
X0208577Y0062660D01*
X0208299Y0062183D01*
X0208009Y0061713D01*
X0207708Y0061250D01*
X0207396Y0060794D01*
X0207072Y0060347D01*
X0206738Y0059907D01*
X0206393Y0059476D01*
X0206037Y0059054D01*
X0205671Y0058640D01*
X0205296Y0058235D01*
X0204910Y0057840D01*
X0204515Y0057454D01*
X0204110Y0057079D01*
X0203696Y0056713D01*
X0203274Y0056357D01*
X0202843Y0056012D01*
X0202403Y0055678D01*
X0201956Y0055354D01*
X0201500Y0055042D01*
X0201037Y0054741D01*
X0200567Y0054451D01*
X0200090Y0054173D01*
X0199606Y0053907D01*
X0199116Y0053652D01*
X0198620Y0053410D01*
X0198118Y0053180D01*
X0197610Y0052963D01*
X0197098Y0052758D01*
X0196580Y0052565D01*
X0196058Y0052386D01*
X0195531Y0052219D01*
X0195001Y0052065D01*
X0194467Y0051924D01*
X0193930Y0051797D01*
X0193390Y0051682D01*
X0192847Y0051581D01*
X0192301Y0051494D01*
X0191754Y0051419D01*
X0191205Y0051358D01*
X0190655Y0051311D01*
X0190104Y0051277D01*
X0189552Y0051257D01*
X0189000Y0051250D01*
X0188448Y0051257D01*
X0187896Y0051277D01*
X0187345Y0051311D01*
X0186795Y0051358D01*
X0186246Y0051419D01*
X0185699Y0051494D01*
X0185153Y0051581D01*
X0184610Y0051682D01*
X0184070Y0051797D01*
X0183533Y0051924D01*
X0182999Y0052065D01*
X0182469Y0052219D01*
X0181942Y0052386D01*
X0181420Y0052565D01*
X0180902Y0052758D01*
X0180390Y0052963D01*
X0179882Y0053180D01*
X0179380Y0053410D01*
X0178884Y0053652D01*
X0178394Y0053907D01*
X0177910Y0054173D01*
X0177433Y0054451D01*
X0176963Y0054741D01*
X0176500Y0055042D01*
X0176044Y0055354D01*
X0175597Y0055678D01*
X0175157Y0056012D01*
X0174726Y0056357D01*
X0174304Y0056713D01*
X0173890Y0057079D01*
X0173485Y0057454D01*
X0173090Y0057840D01*
X0172704Y0058235D01*
X0172329Y0058640D01*
X0171963Y0059054D01*
X0171607Y0059476D01*
X0171262Y0059907D01*
X0170928Y0060347D01*
X0170604Y0060794D01*
X0170292Y0061250D01*
X0169991Y0061713D01*
X0169701Y0062183D01*
X0169423Y0062660D01*
X0169157Y0063144D01*
X0168902Y0063634D01*
X0168660Y0064130D01*
X0168430Y0064632D01*
X0168213Y0065140D01*
X0168008Y0065652D01*
X0167815Y0066170D01*
X0167636Y0066692D01*
X0167469Y0067219D01*
X0167315Y0067749D01*
X0167174Y0068283D01*
X0167047Y0068820D01*
X0166932Y0069360D01*
X0166831Y0069903D01*
X0166744Y0070449D01*
X0166669Y0070996D01*
X0166608Y0071545D01*
X0166561Y0072095D01*
X0166527Y0072646D01*
X0166507Y0073198D01*
X0166500Y0073750D01*
D11*
X0095004Y0104813D03*
D12*
X0102878Y0104813D03*
X0110752Y0104813D03*
X0118626Y0104813D03*
X0126500Y0104813D03*
X0134374Y0104813D03*
X0142248Y0104813D03*
X0150122Y0104813D03*
X0157996Y0104813D03*
X0157996Y0112687D03*
X0150122Y0112687D03*
X0142248Y0112687D03*
X0134374Y0112687D03*
X0126500Y0112687D03*
X0118626Y0112687D03*
X0110752Y0112687D03*
X0102878Y0112687D03*
X0095004Y0112687D03*
D13*
X0083134Y0119940D03*
X0044866Y0119940D03*
X0017806Y0092884D03*
X0017806Y0054616D03*
X0044866Y0027556D03*
X0083134Y0027556D03*
X0110194Y0054616D03*
X0142806Y0054616D03*
X0169866Y0027556D03*
X0208134Y0027556D03*
X0235194Y0054616D03*
X0235194Y0092884D03*
X0208134Y0119944D03*
X0169866Y0119944D03*
X0142806Y0092884D03*
X0110194Y0092884D03*
D14*
X0102043Y0101035D01*
X0101313Y0101035D01*
X0099100Y0103248D01*
X0099100Y0108011D01*
X0096800Y0110311D01*
X0096800Y0110891D01*
X0095004Y0112687D01*
X0095004Y0112549D01*
X0099000Y0111222D02*
X0099000Y0115750D01*
X0094810Y0119940D01*
X0083134Y0119940D01*
X0099000Y0111222D02*
X0101313Y0108909D01*
X0102841Y0108909D01*
X0103000Y0108750D01*
X0103000Y0104935D01*
X0102878Y0104813D01*
X0110752Y0111156D02*
X0110752Y0112687D01*
X0110752Y0111156D02*
X0114530Y0107378D01*
X0114530Y0103539D01*
X0120794Y0097275D01*
X0120794Y0053337D01*
X0113673Y0046216D01*
X0101794Y0046216D01*
X0083134Y0027556D01*
X0087000Y0039750D02*
X0032672Y0039750D01*
X0017806Y0054616D01*
X0087000Y0039750D02*
X0090000Y0042750D01*
X0110194Y0054616D02*
X0110194Y0081005D01*
X0098000Y0093198D01*
X0098000Y0098650D01*
X0126500Y0112250D02*
X0126500Y0112687D01*
X0126500Y0112250D02*
X0130000Y0108750D01*
X0130000Y0106656D01*
X0130278Y0106378D01*
X0130278Y0054472D01*
X0148000Y0036750D01*
X0222000Y0036750D01*
X0235194Y0049944D01*
X0235194Y0054616D01*
X0158000Y0041750D02*
X0158000Y0092592D01*
X0149557Y0101035D01*
X0148557Y0101035D01*
X0146344Y0103248D01*
X0146344Y0108591D01*
X0142248Y0112687D01*
X0152653Y0104813D02*
X0156749Y0108909D01*
X0159561Y0108909D01*
X0161774Y0111122D01*
X0161774Y0112122D01*
X0169596Y0119944D01*
X0169866Y0119944D01*
X0152653Y0104813D02*
X0150122Y0104813D01*
X0134374Y0104813D02*
X0134374Y0087376D01*
X0140000Y0081750D01*
X0150000Y0081750D01*
X0152000Y0083750D01*
X0148000Y0075750D02*
X0142806Y0070556D01*
X0142806Y0054616D01*
D15*
X0136000Y0067750D03*
X0148000Y0075750D03*
X0152000Y0070750D03*
X0152000Y0083750D03*
X0167000Y0104750D03*
X0188000Y0111750D03*
X0182000Y0125750D03*
X0215000Y0096750D03*
X0235000Y0104750D03*
X0232000Y0072750D03*
X0217000Y0044750D03*
X0222000Y0031750D03*
X0191000Y0032750D03*
X0158000Y0041750D03*
X0155000Y0031750D03*
X0104000Y0039750D03*
X0090000Y0042750D03*
X0065000Y0022750D03*
X0029000Y0034750D03*
X0035000Y0048750D03*
X0019000Y0074750D03*
X0031000Y0101750D03*
X0067000Y0117750D03*
X0089000Y0111750D03*
X0098000Y0098650D03*
X0103000Y0073750D03*
D16*
X0064000Y0073750D03*
X0189000Y0073750D03*
D17*
X0039771Y0020559D02*
X0031879Y0024918D01*
X0024752Y0030439D01*
X0018558Y0036990D01*
X0013445Y0044415D01*
X0009535Y0052539D01*
X0006921Y0061167D01*
X0005665Y0070095D01*
X0005797Y0079109D01*
X0007313Y0087996D01*
X0010178Y0096544D01*
X0014324Y0104550D01*
X0019651Y0111823D01*
X0026034Y0118190D01*
X0033320Y0123500D01*
X0041335Y0127627D01*
X0049890Y0130471D01*
X0058781Y0131966D01*
X0067796Y0132077D01*
X0076720Y0130799D01*
X0085342Y0128164D01*
X0093456Y0124235D01*
X0100869Y0119105D01*
X0104251Y0116131D01*
X0104676Y0115707D01*
X0103570Y0116165D01*
X0102186Y0116165D01*
X0100908Y0115635D01*
X0100900Y0115628D01*
X0100900Y0116537D01*
X0096710Y0120727D01*
X0095597Y0121840D01*
X0091114Y0121840D01*
X0090001Y0124528D01*
X0087722Y0126807D01*
X0084745Y0128040D01*
X0081523Y0128040D01*
X0078546Y0126807D01*
X0076267Y0124528D01*
X0075034Y0121551D01*
X0075034Y0118329D01*
X0076267Y0115352D01*
X0078546Y0113073D01*
X0081523Y0111840D01*
X0084745Y0111840D01*
X0087722Y0113073D01*
X0090001Y0115352D01*
X0091114Y0118040D01*
X0094023Y0118040D01*
X0096041Y0116022D01*
X0095696Y0116165D01*
X0094312Y0116165D01*
X0093034Y0115635D01*
X0092055Y0114657D01*
X0091526Y0113379D01*
X0091526Y0111995D01*
X0092055Y0110717D01*
X0093034Y0109739D01*
X0094312Y0109209D01*
X0095215Y0109209D01*
X0095733Y0108691D01*
X0095193Y0108691D01*
X0095193Y0105002D01*
X0094815Y0105002D01*
X0094815Y0108691D01*
X0092428Y0108691D01*
X0092047Y0108589D01*
X0091705Y0108391D01*
X0091426Y0108112D01*
X0091228Y0107770D01*
X0091126Y0107388D01*
X0091126Y0105002D01*
X0094815Y0105002D01*
X0094815Y0104624D01*
X0095193Y0104624D01*
X0095193Y0100935D01*
X0096723Y0100935D01*
X0096527Y0100854D01*
X0095796Y0100123D01*
X0095400Y0099167D01*
X0095400Y0098133D01*
X0095796Y0097177D01*
X0096100Y0096873D01*
X0096100Y0092411D01*
X0108294Y0080217D01*
X0108294Y0062596D01*
X0105606Y0061483D01*
X0103327Y0059204D01*
X0102094Y0056227D01*
X0102094Y0053005D01*
X0103327Y0050028D01*
X0105239Y0048116D01*
X0101007Y0048116D01*
X0099894Y0047003D01*
X0087433Y0034542D01*
X0084745Y0035656D01*
X0081523Y0035656D01*
X0078546Y0034423D01*
X0076267Y0032144D01*
X0075034Y0029167D01*
X0075034Y0025945D01*
X0076267Y0022968D01*
X0078546Y0020689D01*
X0081523Y0019456D01*
X0084745Y0019456D01*
X0087722Y0020689D01*
X0090001Y0022968D01*
X0091234Y0025945D01*
X0091234Y0029167D01*
X0090120Y0031855D01*
X0102581Y0044316D01*
X0114460Y0044316D01*
X0114552Y0044408D01*
X0114388Y0044129D01*
X0111953Y0040331D01*
X0106243Y0033354D01*
X0099529Y0027338D01*
X0091969Y0022427D01*
X0083743Y0018736D01*
X0075048Y0016354D01*
X0066090Y0015338D01*
X0057082Y0015712D01*
X0048239Y0017466D01*
X0039771Y0020559D01*
X0039444Y0020740D02*
X0040227Y0020740D01*
X0040278Y0020689D02*
X0043255Y0019456D01*
X0046477Y0019456D01*
X0049454Y0020689D01*
X0051733Y0022968D01*
X0052966Y0025945D01*
X0052966Y0029167D01*
X0051733Y0032144D01*
X0049454Y0034423D01*
X0046477Y0035656D01*
X0043255Y0035656D01*
X0040278Y0034423D01*
X0037999Y0032144D01*
X0036766Y0029167D01*
X0036766Y0025945D01*
X0037999Y0022968D01*
X0040278Y0020689D01*
X0039229Y0021738D02*
X0037637Y0021738D01*
X0038230Y0022737D02*
X0035829Y0022737D01*
X0034021Y0023735D02*
X0037681Y0023735D01*
X0037268Y0024734D02*
X0032213Y0024734D01*
X0030828Y0025732D02*
X0036854Y0025732D01*
X0036766Y0026731D02*
X0029539Y0026731D01*
X0028250Y0027729D02*
X0036766Y0027729D01*
X0036766Y0028728D02*
X0026961Y0028728D01*
X0025672Y0029726D02*
X0036998Y0029726D01*
X0037411Y0030725D02*
X0024481Y0030725D01*
X0023537Y0031723D02*
X0037825Y0031723D01*
X0038577Y0032722D02*
X0022593Y0032722D01*
X0021649Y0033720D02*
X0039575Y0033720D01*
X0040992Y0034719D02*
X0020705Y0034719D01*
X0019761Y0035717D02*
X0088608Y0035717D01*
X0087610Y0034719D02*
X0087008Y0034719D01*
X0090987Y0032722D02*
X0105538Y0032722D01*
X0106543Y0033720D02*
X0091985Y0033720D01*
X0092984Y0034719D02*
X0107360Y0034719D01*
X0108178Y0035717D02*
X0093982Y0035717D01*
X0094981Y0036716D02*
X0108995Y0036716D01*
X0109812Y0037714D02*
X0095979Y0037714D01*
X0096978Y0038713D02*
X0110629Y0038713D01*
X0111446Y0039711D02*
X0097976Y0039711D01*
X0098975Y0040710D02*
X0112196Y0040710D01*
X0112836Y0041708D02*
X0099973Y0041708D01*
X0100972Y0042707D02*
X0113476Y0042707D01*
X0114117Y0043705D02*
X0101970Y0043705D01*
X0099592Y0046701D02*
X0028408Y0046701D01*
X0027410Y0047699D02*
X0100590Y0047699D01*
X0103658Y0049696D02*
X0025413Y0049696D01*
X0024793Y0050317D02*
X0025906Y0053005D01*
X0025906Y0056227D01*
X0024673Y0059204D01*
X0022394Y0061483D01*
X0019417Y0062716D01*
X0016195Y0062716D01*
X0013218Y0061483D01*
X0010939Y0059204D01*
X0009706Y0056227D01*
X0009706Y0053005D01*
X0010939Y0050028D01*
X0013218Y0047749D01*
X0016195Y0046516D01*
X0019417Y0046516D01*
X0022106Y0047630D01*
X0031885Y0037850D01*
X0087787Y0037850D01*
X0088900Y0038963D01*
X0090087Y0040150D01*
X0090517Y0040150D01*
X0091473Y0040546D01*
X0092204Y0041277D01*
X0092600Y0042233D01*
X0092600Y0043267D01*
X0092204Y0044223D01*
X0091473Y0044954D01*
X0090517Y0045350D01*
X0089483Y0045350D01*
X0088527Y0044954D01*
X0087796Y0044223D01*
X0087400Y0043267D01*
X0087400Y0042837D01*
X0086213Y0041650D01*
X0033459Y0041650D01*
X0024793Y0050317D01*
X0024949Y0050695D02*
X0103051Y0050695D01*
X0102637Y0051693D02*
X0025363Y0051693D01*
X0025776Y0052692D02*
X0102223Y0052692D01*
X0102094Y0053690D02*
X0025906Y0053690D01*
X0025906Y0054689D02*
X0102094Y0054689D01*
X0102094Y0055687D02*
X0025906Y0055687D01*
X0025716Y0056686D02*
X0102284Y0056686D01*
X0102698Y0057684D02*
X0025302Y0057684D01*
X0024889Y0058683D02*
X0103111Y0058683D01*
X0103804Y0059682D02*
X0024196Y0059682D01*
X0023197Y0060680D02*
X0104803Y0060680D01*
X0106078Y0061679D02*
X0021922Y0061679D01*
X0019511Y0062677D02*
X0108294Y0062677D01*
X0108294Y0063676D02*
X0006568Y0063676D01*
X0006428Y0064674D02*
X0108294Y0064674D01*
X0108294Y0065673D02*
X0006287Y0065673D01*
X0006147Y0066671D02*
X0108294Y0066671D01*
X0108294Y0067670D02*
X0006006Y0067670D01*
X0005866Y0068668D02*
X0108294Y0068668D01*
X0108294Y0069667D02*
X0005725Y0069667D01*
X0005673Y0070665D02*
X0108294Y0070665D01*
X0108294Y0071664D02*
X0005688Y0071664D01*
X0005703Y0072662D02*
X0108294Y0072662D01*
X0108294Y0073661D02*
X0005717Y0073661D01*
X0005732Y0074659D02*
X0108294Y0074659D01*
X0108294Y0075658D02*
X0005746Y0075658D01*
X0005761Y0076656D02*
X0108294Y0076656D01*
X0108294Y0077655D02*
X0005776Y0077655D01*
X0005790Y0078653D02*
X0108294Y0078653D01*
X0108294Y0079652D02*
X0005889Y0079652D01*
X0006060Y0080650D02*
X0107861Y0080650D01*
X0106863Y0081649D02*
X0006230Y0081649D01*
X0006401Y0082647D02*
X0105864Y0082647D01*
X0104866Y0083646D02*
X0006571Y0083646D01*
X0006741Y0084644D02*
X0103867Y0084644D01*
X0102869Y0085643D02*
X0021491Y0085643D01*
X0022394Y0086017D02*
X0024673Y0088296D01*
X0025906Y0091273D01*
X0025906Y0094495D01*
X0024673Y0097472D01*
X0022394Y0099751D01*
X0019417Y0100984D01*
X0016195Y0100984D01*
X0013218Y0099751D01*
X0010939Y0097472D01*
X0009706Y0094495D01*
X0009706Y0091273D01*
X0010939Y0088296D01*
X0013218Y0086017D01*
X0016195Y0084784D01*
X0019417Y0084784D01*
X0022394Y0086017D01*
X0023018Y0086641D02*
X0101870Y0086641D01*
X0100872Y0087640D02*
X0024017Y0087640D01*
X0024815Y0088638D02*
X0099873Y0088638D01*
X0098875Y0089637D02*
X0025228Y0089637D01*
X0025642Y0090635D02*
X0097876Y0090635D01*
X0096878Y0091634D02*
X0025906Y0091634D01*
X0025906Y0092632D02*
X0096100Y0092632D01*
X0096100Y0093631D02*
X0025906Y0093631D01*
X0025850Y0094629D02*
X0096100Y0094629D01*
X0096100Y0095628D02*
X0025437Y0095628D01*
X0025023Y0096626D02*
X0096100Y0096626D01*
X0095610Y0097625D02*
X0024520Y0097625D01*
X0023522Y0098623D02*
X0095400Y0098623D01*
X0095588Y0099622D02*
X0022523Y0099622D01*
X0020295Y0100620D02*
X0096294Y0100620D01*
X0095193Y0101619D02*
X0094815Y0101619D01*
X0094815Y0100935D02*
X0092428Y0100935D01*
X0092047Y0101037D01*
X0091705Y0101235D01*
X0091426Y0101514D01*
X0091228Y0101856D01*
X0091126Y0102238D01*
X0091126Y0104624D01*
X0094815Y0104624D01*
X0094815Y0100935D01*
X0094815Y0102618D02*
X0095193Y0102618D01*
X0095193Y0103616D02*
X0094815Y0103616D01*
X0094815Y0104615D02*
X0095193Y0104615D01*
X0095193Y0105613D02*
X0094815Y0105613D01*
X0094815Y0106612D02*
X0095193Y0106612D01*
X0095193Y0107610D02*
X0094815Y0107610D01*
X0094815Y0108609D02*
X0095193Y0108609D01*
X0093351Y0109607D02*
X0018028Y0109607D01*
X0017297Y0108609D02*
X0092121Y0108609D01*
X0091185Y0107610D02*
X0016565Y0107610D01*
X0015834Y0106612D02*
X0091126Y0106612D01*
X0091126Y0105613D02*
X0015103Y0105613D01*
X0014371Y0104615D02*
X0091126Y0104615D01*
X0091126Y0103616D02*
X0013840Y0103616D01*
X0013323Y0102618D02*
X0091126Y0102618D01*
X0091365Y0101619D02*
X0012806Y0101619D01*
X0012289Y0100620D02*
X0015317Y0100620D01*
X0013089Y0099622D02*
X0011772Y0099622D01*
X0012090Y0098623D02*
X0011255Y0098623D01*
X0011092Y0097625D02*
X0010738Y0097625D01*
X0010589Y0096626D02*
X0010221Y0096626D01*
X0010175Y0095628D02*
X0009871Y0095628D01*
X0009762Y0094629D02*
X0009537Y0094629D01*
X0009706Y0093631D02*
X0009202Y0093631D01*
X0008867Y0092632D02*
X0009706Y0092632D01*
X0009706Y0091634D02*
X0008533Y0091634D01*
X0008198Y0090635D02*
X0009970Y0090635D01*
X0010384Y0089637D02*
X0007863Y0089637D01*
X0007529Y0088638D02*
X0010797Y0088638D01*
X0011595Y0087640D02*
X0007252Y0087640D01*
X0007082Y0086641D02*
X0012594Y0086641D01*
X0014121Y0085643D02*
X0006912Y0085643D01*
X0006709Y0062677D02*
X0016101Y0062677D01*
X0013690Y0061679D02*
X0006849Y0061679D01*
X0007069Y0060680D02*
X0012415Y0060680D01*
X0011416Y0059682D02*
X0007371Y0059682D01*
X0007674Y0058683D02*
X0010723Y0058683D01*
X0010310Y0057684D02*
X0007976Y0057684D01*
X0008279Y0056686D02*
X0009896Y0056686D01*
X0009706Y0055687D02*
X0008581Y0055687D01*
X0008884Y0054689D02*
X0009706Y0054689D01*
X0009706Y0053690D02*
X0009186Y0053690D01*
X0009489Y0052692D02*
X0009836Y0052692D01*
X0009942Y0051693D02*
X0010249Y0051693D01*
X0010423Y0050695D02*
X0010663Y0050695D01*
X0010903Y0049696D02*
X0011271Y0049696D01*
X0011384Y0048698D02*
X0012269Y0048698D01*
X0011865Y0047699D02*
X0013338Y0047699D01*
X0012345Y0046701D02*
X0015749Y0046701D01*
X0012826Y0045702D02*
X0024033Y0045702D01*
X0025031Y0044704D02*
X0013306Y0044704D01*
X0013934Y0043705D02*
X0026030Y0043705D01*
X0027028Y0042707D02*
X0014622Y0042707D01*
X0015309Y0041708D02*
X0028027Y0041708D01*
X0029025Y0040710D02*
X0015997Y0040710D01*
X0016684Y0039711D02*
X0030024Y0039711D01*
X0031022Y0038713D02*
X0017372Y0038713D01*
X0018059Y0037714D02*
X0090605Y0037714D01*
X0089607Y0036716D02*
X0018817Y0036716D01*
X0031404Y0043705D02*
X0087582Y0043705D01*
X0087270Y0042707D02*
X0032402Y0042707D01*
X0033401Y0041708D02*
X0086271Y0041708D01*
X0088277Y0044704D02*
X0030405Y0044704D01*
X0029407Y0045702D02*
X0098593Y0045702D01*
X0097595Y0044704D02*
X0091723Y0044704D01*
X0092418Y0043705D02*
X0096596Y0043705D01*
X0095598Y0042707D02*
X0092600Y0042707D01*
X0092383Y0041708D02*
X0094599Y0041708D01*
X0093601Y0040710D02*
X0091637Y0040710D01*
X0092602Y0039711D02*
X0089648Y0039711D01*
X0088650Y0038713D02*
X0091604Y0038713D01*
X0090175Y0031723D02*
X0104423Y0031723D01*
X0103309Y0030725D02*
X0090589Y0030725D01*
X0091002Y0029726D02*
X0102194Y0029726D01*
X0101080Y0028728D02*
X0091234Y0028728D01*
X0091234Y0027729D02*
X0099965Y0027729D01*
X0098594Y0026731D02*
X0091234Y0026731D01*
X0091146Y0025732D02*
X0097057Y0025732D01*
X0095520Y0024734D02*
X0090732Y0024734D01*
X0090319Y0023735D02*
X0093983Y0023735D01*
X0092446Y0022737D02*
X0089770Y0022737D01*
X0090434Y0021738D02*
X0088771Y0021738D01*
X0088209Y0020740D02*
X0087773Y0020740D01*
X0085983Y0019741D02*
X0085433Y0019741D01*
X0083758Y0018743D02*
X0044744Y0018743D01*
X0042567Y0019741D02*
X0042011Y0019741D01*
X0047165Y0019741D02*
X0080835Y0019741D01*
X0078495Y0020740D02*
X0049505Y0020740D01*
X0050503Y0021738D02*
X0077497Y0021738D01*
X0076498Y0022737D02*
X0051502Y0022737D01*
X0052051Y0023735D02*
X0075949Y0023735D01*
X0075536Y0024734D02*
X0052464Y0024734D01*
X0052878Y0025732D02*
X0075122Y0025732D01*
X0075034Y0026731D02*
X0052966Y0026731D01*
X0052966Y0027729D02*
X0075034Y0027729D01*
X0075034Y0028728D02*
X0052966Y0028728D01*
X0052734Y0029726D02*
X0075266Y0029726D01*
X0075679Y0030725D02*
X0052321Y0030725D01*
X0051907Y0031723D02*
X0076093Y0031723D01*
X0076845Y0032722D02*
X0051155Y0032722D01*
X0050157Y0033720D02*
X0077843Y0033720D01*
X0079260Y0034719D02*
X0048740Y0034719D01*
X0023034Y0046701D02*
X0019864Y0046701D01*
X0026411Y0048698D02*
X0104657Y0048698D01*
X0132178Y0055259D02*
X0132178Y0102091D01*
X0132404Y0101865D01*
X0132474Y0101835D01*
X0132474Y0086589D01*
X0139213Y0079850D01*
X0140787Y0079850D01*
X0149213Y0079850D01*
X0150787Y0079850D01*
X0152087Y0081150D01*
X0152517Y0081150D01*
X0153473Y0081546D01*
X0154204Y0082277D01*
X0154600Y0083233D01*
X0154600Y0084267D01*
X0154204Y0085223D01*
X0153473Y0085954D01*
X0152517Y0086350D01*
X0151483Y0086350D01*
X0150527Y0085954D01*
X0149796Y0085223D01*
X0149400Y0084267D01*
X0149400Y0083837D01*
X0149213Y0083650D01*
X0140787Y0083650D01*
X0138563Y0085874D01*
X0141195Y0084784D01*
X0144417Y0084784D01*
X0147394Y0086017D01*
X0149673Y0088296D01*
X0150906Y0091273D01*
X0150906Y0094495D01*
X0149673Y0097472D01*
X0148010Y0099135D01*
X0148770Y0099135D01*
X0156100Y0091805D01*
X0156100Y0043527D01*
X0155796Y0043223D01*
X0155400Y0042267D01*
X0155400Y0041233D01*
X0155796Y0040277D01*
X0156527Y0039546D01*
X0157483Y0039150D01*
X0158517Y0039150D01*
X0159473Y0039546D01*
X0160204Y0040277D01*
X0160600Y0041233D01*
X0160600Y0042267D01*
X0160204Y0043223D01*
X0159900Y0043527D01*
X0159900Y0093379D01*
X0151613Y0101666D01*
X0152092Y0101865D01*
X0153070Y0102843D01*
X0153100Y0102913D01*
X0153440Y0102913D01*
X0154258Y0103730D01*
X0154267Y0103682D01*
X0154559Y0102976D01*
X0154984Y0102341D01*
X0155524Y0101801D01*
X0156159Y0101376D01*
X0156865Y0101084D01*
X0157614Y0100935D01*
X0157807Y0100935D01*
X0157807Y0104624D01*
X0158185Y0104624D01*
X0158185Y0100935D01*
X0158378Y0100935D01*
X0159127Y0101084D01*
X0159833Y0101376D01*
X0160468Y0101801D01*
X0161008Y0102341D01*
X0161433Y0102976D01*
X0161725Y0103682D01*
X0161874Y0104431D01*
X0161874Y0104624D01*
X0158185Y0104624D01*
X0158185Y0105002D01*
X0161874Y0105002D01*
X0161874Y0105195D01*
X0161725Y0105944D01*
X0161433Y0106650D01*
X0161008Y0107285D01*
X0160816Y0107477D01*
X0163674Y0110335D01*
X0163674Y0111335D01*
X0165376Y0113037D01*
X0168255Y0111844D01*
X0171477Y0111844D01*
X0174454Y0113077D01*
X0176733Y0115356D01*
X0177966Y0118333D01*
X0177966Y0121555D01*
X0176733Y0124532D01*
X0174454Y0126811D01*
X0171477Y0128044D01*
X0168255Y0128044D01*
X0165278Y0126811D01*
X0162999Y0124532D01*
X0161766Y0121555D01*
X0161766Y0118333D01*
X0162800Y0115835D01*
X0161143Y0114178D01*
X0160945Y0114657D01*
X0159966Y0115635D01*
X0158688Y0116165D01*
X0157304Y0116165D01*
X0156026Y0115635D01*
X0155048Y0114657D01*
X0154518Y0113379D01*
X0154518Y0111995D01*
X0155048Y0110717D01*
X0155459Y0110306D01*
X0154849Y0109696D01*
X0152503Y0107350D01*
X0152092Y0107761D01*
X0150814Y0108291D01*
X0149430Y0108291D01*
X0148244Y0107800D01*
X0148244Y0109378D01*
X0147131Y0110491D01*
X0145697Y0111925D01*
X0145726Y0111995D01*
X0145726Y0113379D01*
X0145196Y0114657D01*
X0144218Y0115635D01*
X0144062Y0115700D01*
X0147655Y0115700D01*
X0148270Y0115684D01*
X0148152Y0115635D01*
X0147174Y0114657D01*
X0146644Y0113379D01*
X0146644Y0111995D01*
X0147174Y0110717D01*
X0148152Y0109739D01*
X0149430Y0109209D01*
X0150814Y0109209D01*
X0152092Y0109739D01*
X0153070Y0110717D01*
X0153600Y0111995D01*
X0153600Y0113379D01*
X0153070Y0114657D01*
X0152092Y0115635D01*
X0150814Y0116165D01*
X0149430Y0116165D01*
X0148324Y0115707D01*
X0148748Y0116131D01*
X0152131Y0119105D01*
X0159544Y0124235D01*
X0167658Y0128164D01*
X0176280Y0130799D01*
X0185204Y0132077D01*
X0194219Y0131966D01*
X0203110Y0130471D01*
X0211665Y0127627D01*
X0219680Y0123500D01*
X0226966Y0118190D01*
X0233349Y0111823D01*
X0238676Y0104550D01*
X0242822Y0096544D01*
X0245687Y0087996D01*
X0247203Y0079109D01*
X0247335Y0070095D01*
X0246079Y0061167D01*
X0243465Y0052539D01*
X0239555Y0044415D01*
X0234442Y0036990D01*
X0228248Y0030439D01*
X0221121Y0024918D01*
X0213229Y0020559D01*
X0204761Y0017466D01*
X0195918Y0015712D01*
X0186910Y0015338D01*
X0177952Y0016354D01*
X0169257Y0018736D01*
X0161031Y0022427D01*
X0153471Y0027338D01*
X0146757Y0033354D01*
X0141047Y0040331D01*
X0139823Y0042240D01*
X0147213Y0034850D01*
X0166309Y0034850D01*
X0165278Y0034423D01*
X0162999Y0032144D01*
X0161766Y0029167D01*
X0161766Y0025945D01*
X0162999Y0022968D01*
X0165278Y0020689D01*
X0168255Y0019456D01*
X0171477Y0019456D01*
X0174454Y0020689D01*
X0176733Y0022968D01*
X0177966Y0025945D01*
X0177966Y0029167D01*
X0176733Y0032144D01*
X0174454Y0034423D01*
X0173423Y0034850D01*
X0204577Y0034850D01*
X0203546Y0034423D01*
X0201267Y0032144D01*
X0200034Y0029167D01*
X0200034Y0025945D01*
X0201267Y0022968D01*
X0203546Y0020689D01*
X0206523Y0019456D01*
X0209745Y0019456D01*
X0212722Y0020689D01*
X0215001Y0022968D01*
X0216234Y0025945D01*
X0216234Y0029167D01*
X0215001Y0032144D01*
X0212722Y0034423D01*
X0211691Y0034850D01*
X0222787Y0034850D01*
X0234453Y0046516D01*
X0236805Y0046516D01*
X0239782Y0047749D01*
X0242061Y0050028D01*
X0243294Y0053005D01*
X0243294Y0056227D01*
X0242061Y0059204D01*
X0239782Y0061483D01*
X0236805Y0062716D01*
X0233583Y0062716D01*
X0230606Y0061483D01*
X0228327Y0059204D01*
X0227094Y0056227D01*
X0227094Y0053005D01*
X0228327Y0050028D01*
X0230459Y0047896D01*
X0221213Y0038650D01*
X0148787Y0038650D01*
X0140727Y0046710D01*
X0141195Y0046516D01*
X0144417Y0046516D01*
X0147394Y0047749D01*
X0149673Y0050028D01*
X0150906Y0053005D01*
X0150906Y0056227D01*
X0149673Y0059204D01*
X0147394Y0061483D01*
X0144706Y0062596D01*
X0144706Y0069769D01*
X0148087Y0073150D01*
X0148517Y0073150D01*
X0149473Y0073546D01*
X0150204Y0074277D01*
X0150600Y0075233D01*
X0150600Y0076267D01*
X0150204Y0077223D01*
X0149473Y0077954D01*
X0148517Y0078350D01*
X0147483Y0078350D01*
X0146527Y0077954D01*
X0145796Y0077223D01*
X0145400Y0076267D01*
X0145400Y0075837D01*
X0142019Y0072456D01*
X0140906Y0071343D01*
X0140906Y0062596D01*
X0138218Y0061483D01*
X0135939Y0059204D01*
X0134706Y0056227D01*
X0134706Y0053005D01*
X0134900Y0052537D01*
X0132178Y0055259D01*
X0132178Y0055687D02*
X0134706Y0055687D01*
X0134706Y0054689D02*
X0132748Y0054689D01*
X0133747Y0053690D02*
X0134706Y0053690D01*
X0134745Y0052692D02*
X0134836Y0052692D01*
X0134896Y0056686D02*
X0132178Y0056686D01*
X0132178Y0057684D02*
X0135310Y0057684D01*
X0135723Y0058683D02*
X0132178Y0058683D01*
X0132178Y0059682D02*
X0136416Y0059682D01*
X0137415Y0060680D02*
X0132178Y0060680D01*
X0132178Y0061679D02*
X0138690Y0061679D01*
X0140906Y0062677D02*
X0132178Y0062677D01*
X0132178Y0063676D02*
X0140906Y0063676D01*
X0140906Y0064674D02*
X0132178Y0064674D01*
X0132178Y0065673D02*
X0140906Y0065673D01*
X0140906Y0066671D02*
X0132178Y0066671D01*
X0132178Y0067670D02*
X0140906Y0067670D01*
X0140906Y0068668D02*
X0132178Y0068668D01*
X0132178Y0069667D02*
X0140906Y0069667D01*
X0140906Y0070665D02*
X0132178Y0070665D01*
X0132178Y0071664D02*
X0141227Y0071664D01*
X0142019Y0072456D02*
X0142019Y0072456D01*
X0142225Y0072662D02*
X0132178Y0072662D01*
X0132178Y0073661D02*
X0143224Y0073661D01*
X0144222Y0074659D02*
X0132178Y0074659D01*
X0132178Y0075658D02*
X0145221Y0075658D01*
X0145561Y0076656D02*
X0132178Y0076656D01*
X0132178Y0077655D02*
X0146228Y0077655D01*
X0149772Y0077655D02*
X0156100Y0077655D01*
X0156100Y0078653D02*
X0132178Y0078653D01*
X0132178Y0079652D02*
X0156100Y0079652D01*
X0156100Y0080650D02*
X0151587Y0080650D01*
X0153576Y0081649D02*
X0156100Y0081649D01*
X0156100Y0082647D02*
X0154357Y0082647D01*
X0154600Y0083646D02*
X0156100Y0083646D01*
X0156100Y0084644D02*
X0154444Y0084644D01*
X0153784Y0085643D02*
X0156100Y0085643D01*
X0156100Y0086641D02*
X0148018Y0086641D01*
X0149017Y0087640D02*
X0156100Y0087640D01*
X0156100Y0088638D02*
X0149815Y0088638D01*
X0150228Y0089637D02*
X0156100Y0089637D01*
X0156100Y0090635D02*
X0150642Y0090635D01*
X0150906Y0091634D02*
X0156100Y0091634D01*
X0155273Y0092632D02*
X0150906Y0092632D01*
X0150906Y0093631D02*
X0154274Y0093631D01*
X0153276Y0094629D02*
X0150850Y0094629D01*
X0150437Y0095628D02*
X0152277Y0095628D01*
X0151279Y0096626D02*
X0150023Y0096626D01*
X0150280Y0097625D02*
X0149520Y0097625D01*
X0149282Y0098623D02*
X0148522Y0098623D01*
X0152659Y0100620D02*
X0232705Y0100620D01*
X0233583Y0100984D02*
X0230606Y0099751D01*
X0228327Y0097472D01*
X0227094Y0094495D01*
X0227094Y0091273D01*
X0228327Y0088296D01*
X0230606Y0086017D01*
X0233583Y0084784D01*
X0236805Y0084784D01*
X0239782Y0086017D01*
X0242061Y0088296D01*
X0243294Y0091273D01*
X0243294Y0094495D01*
X0242061Y0097472D01*
X0239782Y0099751D01*
X0236805Y0100984D01*
X0233583Y0100984D01*
X0230477Y0099622D02*
X0153657Y0099622D01*
X0154656Y0098623D02*
X0229478Y0098623D01*
X0228480Y0097625D02*
X0155654Y0097625D01*
X0156653Y0096626D02*
X0227977Y0096626D01*
X0227563Y0095628D02*
X0157651Y0095628D01*
X0158650Y0094629D02*
X0227150Y0094629D01*
X0227094Y0093631D02*
X0159648Y0093631D01*
X0159900Y0092632D02*
X0227094Y0092632D01*
X0227094Y0091634D02*
X0159900Y0091634D01*
X0159900Y0090635D02*
X0227358Y0090635D01*
X0227772Y0089637D02*
X0159900Y0089637D01*
X0159900Y0088638D02*
X0228185Y0088638D01*
X0228983Y0087640D02*
X0159900Y0087640D01*
X0159900Y0086641D02*
X0229982Y0086641D01*
X0231509Y0085643D02*
X0159900Y0085643D01*
X0159900Y0084644D02*
X0246259Y0084644D01*
X0246429Y0083646D02*
X0159900Y0083646D01*
X0159900Y0082647D02*
X0246599Y0082647D01*
X0246770Y0081649D02*
X0159900Y0081649D01*
X0159900Y0080650D02*
X0246940Y0080650D01*
X0247111Y0079652D02*
X0159900Y0079652D01*
X0159900Y0078653D02*
X0247210Y0078653D01*
X0247224Y0077655D02*
X0159900Y0077655D01*
X0159900Y0076656D02*
X0247239Y0076656D01*
X0247254Y0075658D02*
X0159900Y0075658D01*
X0159900Y0074659D02*
X0247268Y0074659D01*
X0247283Y0073661D02*
X0159900Y0073661D01*
X0159900Y0072662D02*
X0247297Y0072662D01*
X0247312Y0071664D02*
X0159900Y0071664D01*
X0159900Y0070665D02*
X0247327Y0070665D01*
X0247275Y0069667D02*
X0159900Y0069667D01*
X0159900Y0068668D02*
X0247134Y0068668D01*
X0246994Y0067670D02*
X0159900Y0067670D01*
X0159900Y0066671D02*
X0246853Y0066671D01*
X0246713Y0065673D02*
X0159900Y0065673D01*
X0159900Y0064674D02*
X0246572Y0064674D01*
X0246432Y0063676D02*
X0159900Y0063676D01*
X0159900Y0062677D02*
X0233489Y0062677D01*
X0231078Y0061679D02*
X0159900Y0061679D01*
X0159900Y0060680D02*
X0229803Y0060680D01*
X0228804Y0059682D02*
X0159900Y0059682D01*
X0159900Y0058683D02*
X0228111Y0058683D01*
X0227698Y0057684D02*
X0159900Y0057684D01*
X0159900Y0056686D02*
X0227284Y0056686D01*
X0227094Y0055687D02*
X0159900Y0055687D01*
X0159900Y0054689D02*
X0227094Y0054689D01*
X0227094Y0053690D02*
X0159900Y0053690D01*
X0159900Y0052692D02*
X0227224Y0052692D01*
X0227637Y0051693D02*
X0159900Y0051693D01*
X0159900Y0050695D02*
X0228051Y0050695D01*
X0228658Y0049696D02*
X0159900Y0049696D01*
X0159900Y0048698D02*
X0229657Y0048698D01*
X0230262Y0047699D02*
X0159900Y0047699D01*
X0159900Y0046701D02*
X0229264Y0046701D01*
X0228265Y0045702D02*
X0159900Y0045702D01*
X0159900Y0044704D02*
X0227267Y0044704D01*
X0226268Y0043705D02*
X0159900Y0043705D01*
X0160418Y0042707D02*
X0225270Y0042707D01*
X0224271Y0041708D02*
X0160600Y0041708D01*
X0160383Y0040710D02*
X0223273Y0040710D01*
X0222274Y0039711D02*
X0159638Y0039711D01*
X0156362Y0039711D02*
X0147726Y0039711D01*
X0148724Y0038713D02*
X0221276Y0038713D01*
X0224653Y0036716D02*
X0234183Y0036716D01*
X0234941Y0037714D02*
X0225651Y0037714D01*
X0226650Y0038713D02*
X0235628Y0038713D01*
X0236316Y0039711D02*
X0227648Y0039711D01*
X0228647Y0040710D02*
X0237003Y0040710D01*
X0237691Y0041708D02*
X0229645Y0041708D01*
X0230644Y0042707D02*
X0238378Y0042707D01*
X0239066Y0043705D02*
X0231642Y0043705D01*
X0232641Y0044704D02*
X0239694Y0044704D01*
X0240174Y0045702D02*
X0233639Y0045702D01*
X0237252Y0046701D02*
X0240655Y0046701D01*
X0241135Y0047699D02*
X0239662Y0047699D01*
X0240731Y0048698D02*
X0241616Y0048698D01*
X0241730Y0049696D02*
X0242097Y0049696D01*
X0242337Y0050695D02*
X0242577Y0050695D01*
X0242751Y0051693D02*
X0243058Y0051693D01*
X0243164Y0052692D02*
X0243511Y0052692D01*
X0243294Y0053690D02*
X0243814Y0053690D01*
X0244116Y0054689D02*
X0243294Y0054689D01*
X0243294Y0055687D02*
X0244419Y0055687D01*
X0244721Y0056686D02*
X0243104Y0056686D01*
X0242690Y0057684D02*
X0245024Y0057684D01*
X0245326Y0058683D02*
X0242277Y0058683D01*
X0241584Y0059682D02*
X0245629Y0059682D01*
X0245931Y0060680D02*
X0240585Y0060680D01*
X0239310Y0061679D02*
X0246151Y0061679D01*
X0246291Y0062677D02*
X0236899Y0062677D01*
X0238879Y0085643D02*
X0246088Y0085643D01*
X0245918Y0086641D02*
X0240406Y0086641D01*
X0241405Y0087640D02*
X0245747Y0087640D01*
X0245471Y0088638D02*
X0242203Y0088638D01*
X0242616Y0089637D02*
X0245137Y0089637D01*
X0244802Y0090635D02*
X0243030Y0090635D01*
X0243294Y0091634D02*
X0244467Y0091634D01*
X0244133Y0092632D02*
X0243294Y0092632D01*
X0243294Y0093631D02*
X0243798Y0093631D01*
X0243463Y0094629D02*
X0243238Y0094629D01*
X0243129Y0095628D02*
X0242825Y0095628D01*
X0242779Y0096626D02*
X0242411Y0096626D01*
X0242262Y0097625D02*
X0241908Y0097625D01*
X0241745Y0098623D02*
X0240910Y0098623D01*
X0241228Y0099622D02*
X0239911Y0099622D01*
X0240711Y0100620D02*
X0237683Y0100620D01*
X0240194Y0101619D02*
X0160196Y0101619D01*
X0161193Y0102618D02*
X0239677Y0102618D01*
X0239160Y0103616D02*
X0161698Y0103616D01*
X0161874Y0104615D02*
X0238629Y0104615D01*
X0237897Y0105613D02*
X0161791Y0105613D01*
X0161449Y0106612D02*
X0237166Y0106612D01*
X0236435Y0107610D02*
X0160949Y0107610D01*
X0161947Y0108609D02*
X0235703Y0108609D01*
X0234972Y0109607D02*
X0162946Y0109607D01*
X0163674Y0110606D02*
X0234240Y0110606D01*
X0233509Y0111604D02*
X0163943Y0111604D01*
X0164941Y0112603D02*
X0166423Y0112603D01*
X0162563Y0115598D02*
X0160003Y0115598D01*
X0160968Y0114600D02*
X0161565Y0114600D01*
X0162485Y0116597D02*
X0149278Y0116597D01*
X0150413Y0117595D02*
X0162072Y0117595D01*
X0161766Y0118594D02*
X0151549Y0118594D01*
X0152835Y0119592D02*
X0161766Y0119592D01*
X0161766Y0120591D02*
X0154278Y0120591D01*
X0155721Y0121589D02*
X0161780Y0121589D01*
X0162194Y0122588D02*
X0157163Y0122588D01*
X0158606Y0123586D02*
X0162607Y0123586D01*
X0163052Y0124585D02*
X0160266Y0124585D01*
X0162328Y0125583D02*
X0164050Y0125583D01*
X0164390Y0126582D02*
X0165049Y0126582D01*
X0166452Y0127580D02*
X0167135Y0127580D01*
X0169014Y0128579D02*
X0208801Y0128579D01*
X0209745Y0128044D02*
X0206523Y0128044D01*
X0203546Y0126811D01*
X0201267Y0124532D01*
X0200034Y0121555D01*
X0200034Y0118333D01*
X0201267Y0115356D01*
X0203546Y0113077D01*
X0206523Y0111844D01*
X0209745Y0111844D01*
X0212722Y0113077D01*
X0215001Y0115356D01*
X0216234Y0118333D01*
X0216234Y0121555D01*
X0215001Y0124532D01*
X0212722Y0126811D01*
X0209745Y0128044D01*
X0210865Y0127580D02*
X0211755Y0127580D01*
X0212951Y0126582D02*
X0213694Y0126582D01*
X0213950Y0125583D02*
X0215634Y0125583D01*
X0214948Y0124585D02*
X0217574Y0124585D01*
X0219513Y0123586D02*
X0215393Y0123586D01*
X0215806Y0122588D02*
X0220932Y0122588D01*
X0222302Y0121589D02*
X0216220Y0121589D01*
X0216234Y0120591D02*
X0223672Y0120591D01*
X0225043Y0119592D02*
X0216234Y0119592D01*
X0216234Y0118594D02*
X0226413Y0118594D01*
X0227563Y0117595D02*
X0215928Y0117595D01*
X0215515Y0116597D02*
X0228564Y0116597D01*
X0229564Y0115598D02*
X0215101Y0115598D01*
X0214245Y0114600D02*
X0230565Y0114600D01*
X0231566Y0113601D02*
X0213246Y0113601D01*
X0211577Y0112603D02*
X0232567Y0112603D01*
X0205403Y0127580D02*
X0172597Y0127580D01*
X0174683Y0126582D02*
X0203317Y0126582D01*
X0202318Y0125583D02*
X0175682Y0125583D01*
X0176680Y0124585D02*
X0201320Y0124585D01*
X0200875Y0123586D02*
X0177125Y0123586D01*
X0177538Y0122588D02*
X0200462Y0122588D01*
X0200048Y0121589D02*
X0177952Y0121589D01*
X0177966Y0120591D02*
X0200034Y0120591D01*
X0200034Y0119592D02*
X0177966Y0119592D01*
X0177966Y0118594D02*
X0200034Y0118594D01*
X0200340Y0117595D02*
X0177660Y0117595D01*
X0177247Y0116597D02*
X0200753Y0116597D01*
X0201167Y0115598D02*
X0176833Y0115598D01*
X0175977Y0114600D02*
X0202023Y0114600D01*
X0203022Y0113601D02*
X0174978Y0113601D01*
X0173309Y0112603D02*
X0204691Y0112603D01*
X0205798Y0129577D02*
X0172282Y0129577D01*
X0175549Y0130576D02*
X0202488Y0130576D01*
X0196551Y0131574D02*
X0181696Y0131574D01*
X0155989Y0115598D02*
X0152129Y0115598D01*
X0153094Y0114600D02*
X0155024Y0114600D01*
X0154610Y0113601D02*
X0153508Y0113601D01*
X0153600Y0112603D02*
X0154518Y0112603D01*
X0154680Y0111604D02*
X0153438Y0111604D01*
X0152959Y0110606D02*
X0155159Y0110606D01*
X0154760Y0109607D02*
X0151775Y0109607D01*
X0152244Y0107610D02*
X0152763Y0107610D01*
X0153762Y0108609D02*
X0148244Y0108609D01*
X0148015Y0109607D02*
X0148469Y0109607D01*
X0147285Y0110606D02*
X0147016Y0110606D01*
X0146806Y0111604D02*
X0146018Y0111604D01*
X0145726Y0112603D02*
X0146644Y0112603D01*
X0146736Y0113601D02*
X0145634Y0113601D01*
X0145220Y0114600D02*
X0147150Y0114600D01*
X0148115Y0115598D02*
X0144255Y0115598D01*
X0157807Y0104615D02*
X0158185Y0104615D01*
X0158185Y0103616D02*
X0157807Y0103616D01*
X0157807Y0102618D02*
X0158185Y0102618D01*
X0158185Y0101619D02*
X0157807Y0101619D01*
X0155796Y0101619D02*
X0151660Y0101619D01*
X0152845Y0102618D02*
X0154799Y0102618D01*
X0154294Y0103616D02*
X0154143Y0103616D01*
X0132474Y0101619D02*
X0132178Y0101619D01*
X0132178Y0100620D02*
X0132474Y0100620D01*
X0132474Y0099622D02*
X0132178Y0099622D01*
X0132178Y0098623D02*
X0132474Y0098623D01*
X0132474Y0097625D02*
X0132178Y0097625D01*
X0132178Y0096626D02*
X0132474Y0096626D01*
X0132474Y0095628D02*
X0132178Y0095628D01*
X0132178Y0094629D02*
X0132474Y0094629D01*
X0132474Y0093631D02*
X0132178Y0093631D01*
X0132178Y0092632D02*
X0132474Y0092632D01*
X0132474Y0091634D02*
X0132178Y0091634D01*
X0132178Y0090635D02*
X0132474Y0090635D01*
X0132474Y0089637D02*
X0132178Y0089637D01*
X0132178Y0088638D02*
X0132474Y0088638D01*
X0132474Y0087640D02*
X0132178Y0087640D01*
X0132178Y0086641D02*
X0132474Y0086641D01*
X0132178Y0085643D02*
X0133420Y0085643D01*
X0134419Y0084644D02*
X0132178Y0084644D01*
X0132178Y0083646D02*
X0135417Y0083646D01*
X0136416Y0082647D02*
X0132178Y0082647D01*
X0132178Y0081649D02*
X0137414Y0081649D01*
X0138413Y0080650D02*
X0132178Y0080650D01*
X0138794Y0085643D02*
X0139121Y0085643D01*
X0139793Y0084644D02*
X0149556Y0084644D01*
X0150216Y0085643D02*
X0146491Y0085643D01*
X0150439Y0076656D02*
X0156100Y0076656D01*
X0156100Y0075658D02*
X0150600Y0075658D01*
X0150362Y0074659D02*
X0156100Y0074659D01*
X0156100Y0073661D02*
X0149588Y0073661D01*
X0147599Y0072662D02*
X0156100Y0072662D01*
X0156100Y0071664D02*
X0146601Y0071664D01*
X0145602Y0070665D02*
X0156100Y0070665D01*
X0156100Y0069667D02*
X0144706Y0069667D01*
X0144706Y0068668D02*
X0156100Y0068668D01*
X0156100Y0067670D02*
X0144706Y0067670D01*
X0144706Y0066671D02*
X0156100Y0066671D01*
X0156100Y0065673D02*
X0144706Y0065673D01*
X0144706Y0064674D02*
X0156100Y0064674D01*
X0156100Y0063676D02*
X0144706Y0063676D01*
X0144706Y0062677D02*
X0156100Y0062677D01*
X0156100Y0061679D02*
X0146922Y0061679D01*
X0148197Y0060680D02*
X0156100Y0060680D01*
X0156100Y0059682D02*
X0149196Y0059682D01*
X0149889Y0058683D02*
X0156100Y0058683D01*
X0156100Y0057684D02*
X0150302Y0057684D01*
X0150716Y0056686D02*
X0156100Y0056686D01*
X0156100Y0055687D02*
X0150906Y0055687D01*
X0150906Y0054689D02*
X0156100Y0054689D01*
X0156100Y0053690D02*
X0150906Y0053690D01*
X0150776Y0052692D02*
X0156100Y0052692D01*
X0156100Y0051693D02*
X0150363Y0051693D01*
X0149949Y0050695D02*
X0156100Y0050695D01*
X0156100Y0049696D02*
X0149342Y0049696D01*
X0148343Y0048698D02*
X0156100Y0048698D01*
X0156100Y0047699D02*
X0147274Y0047699D01*
X0144864Y0046701D02*
X0156100Y0046701D01*
X0156100Y0045702D02*
X0141735Y0045702D01*
X0140748Y0046701D02*
X0140736Y0046701D01*
X0142733Y0044704D02*
X0156100Y0044704D01*
X0156100Y0043705D02*
X0143732Y0043705D01*
X0144730Y0042707D02*
X0155582Y0042707D01*
X0155400Y0041708D02*
X0145729Y0041708D01*
X0146727Y0040710D02*
X0155617Y0040710D01*
X0146346Y0035717D02*
X0144822Y0035717D01*
X0145347Y0036716D02*
X0144005Y0036716D01*
X0144349Y0037714D02*
X0143188Y0037714D01*
X0143350Y0038713D02*
X0142371Y0038713D01*
X0142352Y0039711D02*
X0141554Y0039711D01*
X0141353Y0040710D02*
X0140804Y0040710D01*
X0140355Y0041708D02*
X0140164Y0041708D01*
X0145640Y0034719D02*
X0165992Y0034719D01*
X0164575Y0033720D02*
X0146457Y0033720D01*
X0147462Y0032722D02*
X0163577Y0032722D01*
X0162825Y0031723D02*
X0148577Y0031723D01*
X0149691Y0030725D02*
X0162411Y0030725D01*
X0161998Y0029726D02*
X0150806Y0029726D01*
X0151920Y0028728D02*
X0161766Y0028728D01*
X0161766Y0027729D02*
X0153035Y0027729D01*
X0154406Y0026731D02*
X0161766Y0026731D01*
X0161854Y0025732D02*
X0155943Y0025732D01*
X0157480Y0024734D02*
X0162268Y0024734D01*
X0162681Y0023735D02*
X0159017Y0023735D01*
X0160554Y0022737D02*
X0163230Y0022737D01*
X0162566Y0021738D02*
X0164229Y0021738D01*
X0164791Y0020740D02*
X0165227Y0020740D01*
X0167017Y0019741D02*
X0167567Y0019741D01*
X0169242Y0018743D02*
X0208256Y0018743D01*
X0210433Y0019741D02*
X0210989Y0019741D01*
X0212773Y0020740D02*
X0213556Y0020740D01*
X0213771Y0021738D02*
X0215363Y0021738D01*
X0214770Y0022737D02*
X0217171Y0022737D01*
X0218979Y0023735D02*
X0215319Y0023735D01*
X0215732Y0024734D02*
X0220787Y0024734D01*
X0222172Y0025732D02*
X0216146Y0025732D01*
X0216234Y0026731D02*
X0223461Y0026731D01*
X0224750Y0027729D02*
X0216234Y0027729D01*
X0216234Y0028728D02*
X0226039Y0028728D01*
X0227328Y0029726D02*
X0216002Y0029726D01*
X0215589Y0030725D02*
X0228519Y0030725D01*
X0229463Y0031723D02*
X0215175Y0031723D01*
X0214423Y0032722D02*
X0230407Y0032722D01*
X0231351Y0033720D02*
X0213425Y0033720D01*
X0212008Y0034719D02*
X0232295Y0034719D01*
X0233239Y0035717D02*
X0223654Y0035717D01*
X0204260Y0034719D02*
X0173740Y0034719D01*
X0175157Y0033720D02*
X0202843Y0033720D01*
X0201845Y0032722D02*
X0176155Y0032722D01*
X0176907Y0031723D02*
X0201093Y0031723D01*
X0200679Y0030725D02*
X0177321Y0030725D01*
X0177734Y0029726D02*
X0200266Y0029726D01*
X0200034Y0028728D02*
X0177966Y0028728D01*
X0177966Y0027729D02*
X0200034Y0027729D01*
X0200034Y0026731D02*
X0177966Y0026731D01*
X0177878Y0025732D02*
X0200122Y0025732D01*
X0200536Y0024734D02*
X0177464Y0024734D01*
X0177051Y0023735D02*
X0200949Y0023735D01*
X0201498Y0022737D02*
X0176502Y0022737D01*
X0175503Y0021738D02*
X0202497Y0021738D01*
X0203495Y0020740D02*
X0174505Y0020740D01*
X0172165Y0019741D02*
X0205835Y0019741D01*
X0205522Y0017744D02*
X0172878Y0017744D01*
X0176524Y0016746D02*
X0201130Y0016746D01*
X0196096Y0015747D02*
X0183306Y0015747D01*
X0080122Y0017744D02*
X0047478Y0017744D01*
X0051870Y0016746D02*
X0076476Y0016746D01*
X0069694Y0015747D02*
X0056904Y0015747D01*
X0092167Y0110606D02*
X0018760Y0110606D01*
X0019491Y0111604D02*
X0091688Y0111604D01*
X0091526Y0112603D02*
X0086586Y0112603D01*
X0088250Y0113601D02*
X0091618Y0113601D01*
X0092032Y0114600D02*
X0089249Y0114600D01*
X0090103Y0115598D02*
X0092997Y0115598D01*
X0094468Y0117595D02*
X0090930Y0117595D01*
X0090517Y0116597D02*
X0095466Y0116597D01*
X0098843Y0118594D02*
X0101451Y0118594D01*
X0102587Y0117595D02*
X0099842Y0117595D01*
X0100840Y0116597D02*
X0103722Y0116597D01*
X0100165Y0119592D02*
X0097845Y0119592D01*
X0098722Y0120591D02*
X0096846Y0120591D01*
X0096710Y0120727D02*
X0096710Y0120727D01*
X0097279Y0121589D02*
X0095848Y0121589D01*
X0095837Y0122588D02*
X0090805Y0122588D01*
X0090391Y0123586D02*
X0094394Y0123586D01*
X0092734Y0124585D02*
X0089944Y0124585D01*
X0090672Y0125583D02*
X0088946Y0125583D01*
X0088610Y0126582D02*
X0087947Y0126582D01*
X0086548Y0127580D02*
X0085855Y0127580D01*
X0083986Y0128579D02*
X0044199Y0128579D01*
X0043255Y0128040D02*
X0040278Y0126807D01*
X0037999Y0124528D01*
X0036766Y0121551D01*
X0036766Y0118329D01*
X0037999Y0115352D01*
X0040278Y0113073D01*
X0043255Y0111840D01*
X0046477Y0111840D01*
X0049454Y0113073D01*
X0051733Y0115352D01*
X0052966Y0118329D01*
X0052966Y0121551D01*
X0051733Y0124528D01*
X0049454Y0126807D01*
X0046477Y0128040D01*
X0043255Y0128040D01*
X0042145Y0127580D02*
X0041245Y0127580D01*
X0040053Y0126582D02*
X0039306Y0126582D01*
X0039054Y0125583D02*
X0037366Y0125583D01*
X0038056Y0124585D02*
X0035426Y0124585D01*
X0033487Y0123586D02*
X0037609Y0123586D01*
X0037195Y0122588D02*
X0032068Y0122588D01*
X0030698Y0121589D02*
X0036782Y0121589D01*
X0036766Y0120591D02*
X0029327Y0120591D01*
X0027957Y0119592D02*
X0036766Y0119592D01*
X0036766Y0118594D02*
X0026587Y0118594D01*
X0025437Y0117595D02*
X0037070Y0117595D01*
X0037483Y0116597D02*
X0024436Y0116597D01*
X0023436Y0115598D02*
X0037897Y0115598D01*
X0038751Y0114600D02*
X0022435Y0114600D01*
X0021434Y0113601D02*
X0039750Y0113601D01*
X0041414Y0112603D02*
X0020433Y0112603D01*
X0047587Y0127580D02*
X0080413Y0127580D01*
X0078321Y0126582D02*
X0049679Y0126582D01*
X0050678Y0125583D02*
X0077322Y0125583D01*
X0076324Y0124585D02*
X0051676Y0124585D01*
X0052123Y0123586D02*
X0075877Y0123586D01*
X0075463Y0122588D02*
X0052537Y0122588D01*
X0052950Y0121589D02*
X0075050Y0121589D01*
X0075034Y0120591D02*
X0052966Y0120591D01*
X0052966Y0119592D02*
X0075034Y0119592D01*
X0075034Y0118594D02*
X0052966Y0118594D01*
X0052662Y0117595D02*
X0075338Y0117595D01*
X0075751Y0116597D02*
X0052249Y0116597D01*
X0051835Y0115598D02*
X0076165Y0115598D01*
X0077019Y0114600D02*
X0050981Y0114600D01*
X0049982Y0113601D02*
X0078018Y0113601D01*
X0079682Y0112603D02*
X0048318Y0112603D01*
X0047202Y0129577D02*
X0080718Y0129577D01*
X0077451Y0130576D02*
X0050512Y0130576D01*
X0056449Y0131574D02*
X0071304Y0131574D01*
M02*
