G75*
%MOIN*%
%OFA0B0*%
%FSLAX25Y25*%
%IPPOS*%
%LPD*%
%AMOC8*
5,1,8,0,0,1.08239X$1,22.5*
%
%ADD10C,0.00039*%
%ADD11C,0.03962*%
%ADD12C,0.07087*%
%ADD13C,0.09843*%
%ADD14C,0.04921*%
D10*
X0019322Y0049341D02*
X0019322Y0072963D01*
X0019321Y0072963D02*
X0019323Y0073061D01*
X0019329Y0073159D01*
X0019338Y0073256D01*
X0019352Y0073353D01*
X0019369Y0073449D01*
X0019391Y0073545D01*
X0019416Y0073639D01*
X0019444Y0073733D01*
X0019477Y0073825D01*
X0019513Y0073916D01*
X0019553Y0074006D01*
X0019596Y0074093D01*
X0019643Y0074179D01*
X0019693Y0074263D01*
X0019746Y0074345D01*
X0019803Y0074425D01*
X0019862Y0074503D01*
X0019925Y0074578D01*
X0019991Y0074651D01*
X0020059Y0074720D01*
X0020130Y0074788D01*
X0020204Y0074852D01*
X0020281Y0074913D01*
X0020359Y0074971D01*
X0020440Y0075026D01*
X0020523Y0075078D01*
X0020608Y0075126D01*
X0020695Y0075171D01*
X0020784Y0075213D01*
X0020874Y0075250D01*
X0020966Y0075285D01*
X0021059Y0075315D01*
X0021153Y0075342D01*
X0021248Y0075365D01*
X0021344Y0075385D01*
X0021441Y0075400D01*
X0021538Y0075412D01*
X0021635Y0075420D01*
X0021733Y0075424D01*
X0021831Y0075424D01*
X0021929Y0075420D01*
X0022026Y0075412D01*
X0022123Y0075400D01*
X0022220Y0075385D01*
X0022316Y0075365D01*
X0022411Y0075342D01*
X0022505Y0075315D01*
X0022598Y0075285D01*
X0022690Y0075250D01*
X0022780Y0075213D01*
X0022869Y0075171D01*
X0022956Y0075126D01*
X0023041Y0075078D01*
X0023124Y0075026D01*
X0023205Y0074971D01*
X0023283Y0074913D01*
X0023360Y0074852D01*
X0023434Y0074788D01*
X0023505Y0074720D01*
X0023573Y0074651D01*
X0023639Y0074578D01*
X0023702Y0074503D01*
X0023761Y0074425D01*
X0023818Y0074345D01*
X0023871Y0074263D01*
X0023921Y0074179D01*
X0023968Y0074093D01*
X0024011Y0074006D01*
X0024051Y0073916D01*
X0024087Y0073825D01*
X0024120Y0073733D01*
X0024148Y0073639D01*
X0024173Y0073545D01*
X0024195Y0073449D01*
X0024212Y0073353D01*
X0024226Y0073256D01*
X0024235Y0073159D01*
X0024241Y0073061D01*
X0024243Y0072963D01*
X0024243Y0049341D01*
X0024241Y0049243D01*
X0024235Y0049145D01*
X0024226Y0049048D01*
X0024212Y0048951D01*
X0024195Y0048855D01*
X0024173Y0048759D01*
X0024148Y0048665D01*
X0024120Y0048571D01*
X0024087Y0048479D01*
X0024051Y0048388D01*
X0024011Y0048298D01*
X0023968Y0048211D01*
X0023921Y0048125D01*
X0023871Y0048041D01*
X0023818Y0047959D01*
X0023761Y0047879D01*
X0023702Y0047801D01*
X0023639Y0047726D01*
X0023573Y0047653D01*
X0023505Y0047584D01*
X0023434Y0047516D01*
X0023360Y0047452D01*
X0023283Y0047391D01*
X0023205Y0047333D01*
X0023124Y0047278D01*
X0023041Y0047226D01*
X0022956Y0047178D01*
X0022869Y0047133D01*
X0022780Y0047091D01*
X0022690Y0047054D01*
X0022598Y0047019D01*
X0022505Y0046989D01*
X0022411Y0046962D01*
X0022316Y0046939D01*
X0022220Y0046919D01*
X0022123Y0046904D01*
X0022026Y0046892D01*
X0021929Y0046884D01*
X0021831Y0046880D01*
X0021733Y0046880D01*
X0021635Y0046884D01*
X0021538Y0046892D01*
X0021441Y0046904D01*
X0021344Y0046919D01*
X0021248Y0046939D01*
X0021153Y0046962D01*
X0021059Y0046989D01*
X0020966Y0047019D01*
X0020874Y0047054D01*
X0020784Y0047091D01*
X0020695Y0047133D01*
X0020608Y0047178D01*
X0020523Y0047226D01*
X0020440Y0047278D01*
X0020359Y0047333D01*
X0020281Y0047391D01*
X0020204Y0047452D01*
X0020130Y0047516D01*
X0020059Y0047584D01*
X0019991Y0047653D01*
X0019925Y0047726D01*
X0019862Y0047801D01*
X0019803Y0047879D01*
X0019746Y0047959D01*
X0019693Y0048041D01*
X0019643Y0048125D01*
X0019596Y0048211D01*
X0019553Y0048298D01*
X0019513Y0048388D01*
X0019477Y0048479D01*
X0019444Y0048571D01*
X0019416Y0048665D01*
X0019391Y0048759D01*
X0019369Y0048855D01*
X0019352Y0048951D01*
X0019338Y0049048D01*
X0019329Y0049145D01*
X0019323Y0049243D01*
X0019321Y0049341D01*
X0021782Y0049341D02*
X0021782Y0072963D01*
X0063121Y0117254D02*
X0064478Y0117190D01*
X0065833Y0117094D01*
X0067185Y0116964D01*
X0068534Y0116801D01*
X0069879Y0116606D01*
X0071219Y0116379D01*
X0072552Y0116119D01*
X0073879Y0115827D01*
X0075199Y0115503D01*
X0076510Y0115147D01*
X0077812Y0114760D01*
X0079105Y0114341D01*
X0080387Y0113891D01*
X0081658Y0113410D01*
X0082916Y0112898D01*
X0084162Y0112356D01*
X0085395Y0111785D01*
X0086613Y0111183D01*
X0087816Y0110552D01*
X0089004Y0109892D01*
X0090176Y0109204D01*
X0091330Y0108488D01*
X0092467Y0107743D01*
X0093585Y0106972D01*
X0094685Y0106173D01*
X0095764Y0105349D01*
X0096824Y0104498D01*
X0097862Y0103622D01*
X0098880Y0102721D01*
X0099875Y0101796D01*
X0100847Y0100847D01*
X0101796Y0099875D01*
X0102721Y0098880D01*
X0103622Y0097862D01*
X0104498Y0096824D01*
X0105349Y0095764D01*
X0106173Y0094685D01*
X0106972Y0093585D01*
X0107743Y0092467D01*
X0108488Y0091330D01*
X0109204Y0090176D01*
X0109892Y0089004D01*
X0110552Y0087816D01*
X0111183Y0086613D01*
X0111785Y0085395D01*
X0112356Y0084162D01*
X0112898Y0082916D01*
X0113410Y0081658D01*
X0113891Y0080387D01*
X0114341Y0079105D01*
X0114760Y0077812D01*
X0115147Y0076510D01*
X0115503Y0075199D01*
X0115827Y0073879D01*
X0116119Y0072552D01*
X0116379Y0071219D01*
X0116606Y0069879D01*
X0116801Y0068534D01*
X0116964Y0067185D01*
X0117094Y0065833D01*
X0117190Y0064478D01*
X0117254Y0063121D01*
X0117255Y0063121D02*
X0123160Y0063121D01*
X0123160Y0059184D02*
X0117255Y0059184D01*
X0102983Y0049341D02*
X0102983Y0072963D01*
X0102981Y0073061D01*
X0102975Y0073159D01*
X0102966Y0073256D01*
X0102952Y0073353D01*
X0102935Y0073449D01*
X0102913Y0073545D01*
X0102888Y0073639D01*
X0102860Y0073733D01*
X0102827Y0073825D01*
X0102791Y0073916D01*
X0102751Y0074006D01*
X0102708Y0074093D01*
X0102661Y0074179D01*
X0102611Y0074263D01*
X0102558Y0074345D01*
X0102501Y0074425D01*
X0102442Y0074503D01*
X0102379Y0074578D01*
X0102313Y0074651D01*
X0102245Y0074720D01*
X0102174Y0074788D01*
X0102100Y0074852D01*
X0102023Y0074913D01*
X0101945Y0074971D01*
X0101864Y0075026D01*
X0101781Y0075078D01*
X0101696Y0075126D01*
X0101609Y0075171D01*
X0101520Y0075213D01*
X0101430Y0075250D01*
X0101338Y0075285D01*
X0101245Y0075315D01*
X0101151Y0075342D01*
X0101056Y0075365D01*
X0100960Y0075385D01*
X0100863Y0075400D01*
X0100766Y0075412D01*
X0100669Y0075420D01*
X0100571Y0075424D01*
X0100473Y0075424D01*
X0100375Y0075420D01*
X0100278Y0075412D01*
X0100181Y0075400D01*
X0100084Y0075385D01*
X0099988Y0075365D01*
X0099893Y0075342D01*
X0099799Y0075315D01*
X0099706Y0075285D01*
X0099614Y0075250D01*
X0099524Y0075213D01*
X0099435Y0075171D01*
X0099348Y0075126D01*
X0099263Y0075078D01*
X0099180Y0075026D01*
X0099099Y0074971D01*
X0099021Y0074913D01*
X0098944Y0074852D01*
X0098870Y0074788D01*
X0098799Y0074720D01*
X0098731Y0074651D01*
X0098665Y0074578D01*
X0098602Y0074503D01*
X0098543Y0074425D01*
X0098486Y0074345D01*
X0098433Y0074263D01*
X0098383Y0074179D01*
X0098336Y0074093D01*
X0098293Y0074006D01*
X0098253Y0073916D01*
X0098217Y0073825D01*
X0098184Y0073733D01*
X0098156Y0073639D01*
X0098131Y0073545D01*
X0098109Y0073449D01*
X0098092Y0073353D01*
X0098078Y0073256D01*
X0098069Y0073159D01*
X0098063Y0073061D01*
X0098061Y0072963D01*
X0098062Y0072963D02*
X0098062Y0049341D01*
X0098061Y0049341D02*
X0098063Y0049243D01*
X0098069Y0049145D01*
X0098078Y0049048D01*
X0098092Y0048951D01*
X0098109Y0048855D01*
X0098131Y0048759D01*
X0098156Y0048665D01*
X0098184Y0048571D01*
X0098217Y0048479D01*
X0098253Y0048388D01*
X0098293Y0048298D01*
X0098336Y0048211D01*
X0098383Y0048125D01*
X0098433Y0048041D01*
X0098486Y0047959D01*
X0098543Y0047879D01*
X0098602Y0047801D01*
X0098665Y0047726D01*
X0098731Y0047653D01*
X0098799Y0047584D01*
X0098870Y0047516D01*
X0098944Y0047452D01*
X0099021Y0047391D01*
X0099099Y0047333D01*
X0099180Y0047278D01*
X0099263Y0047226D01*
X0099348Y0047178D01*
X0099435Y0047133D01*
X0099524Y0047091D01*
X0099614Y0047054D01*
X0099706Y0047019D01*
X0099799Y0046989D01*
X0099893Y0046962D01*
X0099988Y0046939D01*
X0100084Y0046919D01*
X0100181Y0046904D01*
X0100278Y0046892D01*
X0100375Y0046884D01*
X0100473Y0046880D01*
X0100571Y0046880D01*
X0100669Y0046884D01*
X0100766Y0046892D01*
X0100863Y0046904D01*
X0100960Y0046919D01*
X0101056Y0046939D01*
X0101151Y0046962D01*
X0101245Y0046989D01*
X0101338Y0047019D01*
X0101430Y0047054D01*
X0101520Y0047091D01*
X0101609Y0047133D01*
X0101696Y0047178D01*
X0101781Y0047226D01*
X0101864Y0047278D01*
X0101945Y0047333D01*
X0102023Y0047391D01*
X0102100Y0047452D01*
X0102174Y0047516D01*
X0102245Y0047584D01*
X0102313Y0047653D01*
X0102379Y0047726D01*
X0102442Y0047801D01*
X0102501Y0047879D01*
X0102558Y0047959D01*
X0102611Y0048041D01*
X0102661Y0048125D01*
X0102708Y0048211D01*
X0102751Y0048298D01*
X0102791Y0048388D01*
X0102827Y0048479D01*
X0102860Y0048571D01*
X0102888Y0048665D01*
X0102913Y0048759D01*
X0102935Y0048855D01*
X0102952Y0048951D01*
X0102966Y0049048D01*
X0102975Y0049145D01*
X0102981Y0049243D01*
X0102983Y0049341D01*
X0100522Y0049341D02*
X0100522Y0072963D01*
X0137432Y0072963D02*
X0137432Y0049341D01*
X0137434Y0049243D01*
X0137440Y0049145D01*
X0137449Y0049048D01*
X0137463Y0048951D01*
X0137480Y0048855D01*
X0137502Y0048759D01*
X0137527Y0048665D01*
X0137555Y0048571D01*
X0137588Y0048479D01*
X0137624Y0048388D01*
X0137664Y0048298D01*
X0137707Y0048211D01*
X0137754Y0048125D01*
X0137804Y0048041D01*
X0137857Y0047959D01*
X0137914Y0047879D01*
X0137973Y0047801D01*
X0138036Y0047726D01*
X0138102Y0047653D01*
X0138170Y0047584D01*
X0138241Y0047516D01*
X0138315Y0047452D01*
X0138392Y0047391D01*
X0138470Y0047333D01*
X0138551Y0047278D01*
X0138634Y0047226D01*
X0138719Y0047178D01*
X0138806Y0047133D01*
X0138895Y0047091D01*
X0138985Y0047054D01*
X0139077Y0047019D01*
X0139170Y0046989D01*
X0139264Y0046962D01*
X0139359Y0046939D01*
X0139455Y0046919D01*
X0139552Y0046904D01*
X0139649Y0046892D01*
X0139746Y0046884D01*
X0139844Y0046880D01*
X0139942Y0046880D01*
X0140040Y0046884D01*
X0140137Y0046892D01*
X0140234Y0046904D01*
X0140331Y0046919D01*
X0140427Y0046939D01*
X0140522Y0046962D01*
X0140616Y0046989D01*
X0140709Y0047019D01*
X0140801Y0047054D01*
X0140891Y0047091D01*
X0140980Y0047133D01*
X0141067Y0047178D01*
X0141152Y0047226D01*
X0141235Y0047278D01*
X0141316Y0047333D01*
X0141394Y0047391D01*
X0141471Y0047452D01*
X0141545Y0047516D01*
X0141616Y0047584D01*
X0141684Y0047653D01*
X0141750Y0047726D01*
X0141813Y0047801D01*
X0141872Y0047879D01*
X0141929Y0047959D01*
X0141982Y0048041D01*
X0142032Y0048125D01*
X0142079Y0048211D01*
X0142122Y0048298D01*
X0142162Y0048388D01*
X0142198Y0048479D01*
X0142231Y0048571D01*
X0142259Y0048665D01*
X0142284Y0048759D01*
X0142306Y0048855D01*
X0142323Y0048951D01*
X0142337Y0049048D01*
X0142346Y0049145D01*
X0142352Y0049243D01*
X0142354Y0049341D01*
X0142353Y0049341D02*
X0142353Y0072963D01*
X0142354Y0072963D02*
X0142352Y0073061D01*
X0142346Y0073159D01*
X0142337Y0073256D01*
X0142323Y0073353D01*
X0142306Y0073449D01*
X0142284Y0073545D01*
X0142259Y0073639D01*
X0142231Y0073733D01*
X0142198Y0073825D01*
X0142162Y0073916D01*
X0142122Y0074006D01*
X0142079Y0074093D01*
X0142032Y0074179D01*
X0141982Y0074263D01*
X0141929Y0074345D01*
X0141872Y0074425D01*
X0141813Y0074503D01*
X0141750Y0074578D01*
X0141684Y0074651D01*
X0141616Y0074720D01*
X0141545Y0074788D01*
X0141471Y0074852D01*
X0141394Y0074913D01*
X0141316Y0074971D01*
X0141235Y0075026D01*
X0141152Y0075078D01*
X0141067Y0075126D01*
X0140980Y0075171D01*
X0140891Y0075213D01*
X0140801Y0075250D01*
X0140709Y0075285D01*
X0140616Y0075315D01*
X0140522Y0075342D01*
X0140427Y0075365D01*
X0140331Y0075385D01*
X0140234Y0075400D01*
X0140137Y0075412D01*
X0140040Y0075420D01*
X0139942Y0075424D01*
X0139844Y0075424D01*
X0139746Y0075420D01*
X0139649Y0075412D01*
X0139552Y0075400D01*
X0139455Y0075385D01*
X0139359Y0075365D01*
X0139264Y0075342D01*
X0139170Y0075315D01*
X0139077Y0075285D01*
X0138985Y0075250D01*
X0138895Y0075213D01*
X0138806Y0075171D01*
X0138719Y0075126D01*
X0138634Y0075078D01*
X0138551Y0075026D01*
X0138470Y0074971D01*
X0138392Y0074913D01*
X0138315Y0074852D01*
X0138241Y0074788D01*
X0138170Y0074720D01*
X0138102Y0074651D01*
X0138036Y0074578D01*
X0137973Y0074503D01*
X0137914Y0074425D01*
X0137857Y0074345D01*
X0137804Y0074263D01*
X0137754Y0074179D01*
X0137707Y0074093D01*
X0137664Y0074006D01*
X0137624Y0073916D01*
X0137588Y0073825D01*
X0137555Y0073733D01*
X0137527Y0073639D01*
X0137502Y0073545D01*
X0137480Y0073449D01*
X0137463Y0073353D01*
X0137449Y0073256D01*
X0137440Y0073159D01*
X0137434Y0073061D01*
X0137432Y0072963D01*
X0139893Y0072963D02*
X0139893Y0049341D01*
X0181232Y0117254D02*
X0182589Y0117190D01*
X0183944Y0117094D01*
X0185296Y0116964D01*
X0186645Y0116801D01*
X0187990Y0116606D01*
X0189330Y0116379D01*
X0190663Y0116119D01*
X0191990Y0115827D01*
X0193310Y0115503D01*
X0194621Y0115147D01*
X0195923Y0114760D01*
X0197216Y0114341D01*
X0198498Y0113891D01*
X0199769Y0113410D01*
X0201027Y0112898D01*
X0202273Y0112356D01*
X0203506Y0111785D01*
X0204724Y0111183D01*
X0205927Y0110552D01*
X0207115Y0109892D01*
X0208287Y0109204D01*
X0209441Y0108488D01*
X0210578Y0107743D01*
X0211696Y0106972D01*
X0212796Y0106173D01*
X0213875Y0105349D01*
X0214935Y0104498D01*
X0215973Y0103622D01*
X0216991Y0102721D01*
X0217986Y0101796D01*
X0218958Y0100847D01*
X0219907Y0099875D01*
X0220832Y0098880D01*
X0221733Y0097862D01*
X0222609Y0096824D01*
X0223460Y0095764D01*
X0224284Y0094685D01*
X0225083Y0093585D01*
X0225854Y0092467D01*
X0226599Y0091330D01*
X0227315Y0090176D01*
X0228003Y0089004D01*
X0228663Y0087816D01*
X0229294Y0086613D01*
X0229896Y0085395D01*
X0230467Y0084162D01*
X0231009Y0082916D01*
X0231521Y0081658D01*
X0232002Y0080387D01*
X0232452Y0079105D01*
X0232871Y0077812D01*
X0233258Y0076510D01*
X0233614Y0075199D01*
X0233938Y0073879D01*
X0234230Y0072552D01*
X0234490Y0071219D01*
X0234717Y0069879D01*
X0234912Y0068534D01*
X0235075Y0067185D01*
X0235205Y0065833D01*
X0235301Y0064478D01*
X0235365Y0063121D01*
X0241270Y0063121D01*
X0241270Y0059184D02*
X0235365Y0059184D01*
X0221093Y0049341D02*
X0221093Y0072963D01*
X0221094Y0072963D02*
X0221092Y0073061D01*
X0221086Y0073159D01*
X0221077Y0073256D01*
X0221063Y0073353D01*
X0221046Y0073449D01*
X0221024Y0073545D01*
X0220999Y0073639D01*
X0220971Y0073733D01*
X0220938Y0073825D01*
X0220902Y0073916D01*
X0220862Y0074006D01*
X0220819Y0074093D01*
X0220772Y0074179D01*
X0220722Y0074263D01*
X0220669Y0074345D01*
X0220612Y0074425D01*
X0220553Y0074503D01*
X0220490Y0074578D01*
X0220424Y0074651D01*
X0220356Y0074720D01*
X0220285Y0074788D01*
X0220211Y0074852D01*
X0220134Y0074913D01*
X0220056Y0074971D01*
X0219975Y0075026D01*
X0219892Y0075078D01*
X0219807Y0075126D01*
X0219720Y0075171D01*
X0219631Y0075213D01*
X0219541Y0075250D01*
X0219449Y0075285D01*
X0219356Y0075315D01*
X0219262Y0075342D01*
X0219167Y0075365D01*
X0219071Y0075385D01*
X0218974Y0075400D01*
X0218877Y0075412D01*
X0218780Y0075420D01*
X0218682Y0075424D01*
X0218584Y0075424D01*
X0218486Y0075420D01*
X0218389Y0075412D01*
X0218292Y0075400D01*
X0218195Y0075385D01*
X0218099Y0075365D01*
X0218004Y0075342D01*
X0217910Y0075315D01*
X0217817Y0075285D01*
X0217725Y0075250D01*
X0217635Y0075213D01*
X0217546Y0075171D01*
X0217459Y0075126D01*
X0217374Y0075078D01*
X0217291Y0075026D01*
X0217210Y0074971D01*
X0217132Y0074913D01*
X0217055Y0074852D01*
X0216981Y0074788D01*
X0216910Y0074720D01*
X0216842Y0074651D01*
X0216776Y0074578D01*
X0216713Y0074503D01*
X0216654Y0074425D01*
X0216597Y0074345D01*
X0216544Y0074263D01*
X0216494Y0074179D01*
X0216447Y0074093D01*
X0216404Y0074006D01*
X0216364Y0073916D01*
X0216328Y0073825D01*
X0216295Y0073733D01*
X0216267Y0073639D01*
X0216242Y0073545D01*
X0216220Y0073449D01*
X0216203Y0073353D01*
X0216189Y0073256D01*
X0216180Y0073159D01*
X0216174Y0073061D01*
X0216172Y0072963D01*
X0216172Y0049341D01*
X0216174Y0049243D01*
X0216180Y0049145D01*
X0216189Y0049048D01*
X0216203Y0048951D01*
X0216220Y0048855D01*
X0216242Y0048759D01*
X0216267Y0048665D01*
X0216295Y0048571D01*
X0216328Y0048479D01*
X0216364Y0048388D01*
X0216404Y0048298D01*
X0216447Y0048211D01*
X0216494Y0048125D01*
X0216544Y0048041D01*
X0216597Y0047959D01*
X0216654Y0047879D01*
X0216713Y0047801D01*
X0216776Y0047726D01*
X0216842Y0047653D01*
X0216910Y0047584D01*
X0216981Y0047516D01*
X0217055Y0047452D01*
X0217132Y0047391D01*
X0217210Y0047333D01*
X0217291Y0047278D01*
X0217374Y0047226D01*
X0217459Y0047178D01*
X0217546Y0047133D01*
X0217635Y0047091D01*
X0217725Y0047054D01*
X0217817Y0047019D01*
X0217910Y0046989D01*
X0218004Y0046962D01*
X0218099Y0046939D01*
X0218195Y0046919D01*
X0218292Y0046904D01*
X0218389Y0046892D01*
X0218486Y0046884D01*
X0218584Y0046880D01*
X0218682Y0046880D01*
X0218780Y0046884D01*
X0218877Y0046892D01*
X0218974Y0046904D01*
X0219071Y0046919D01*
X0219167Y0046939D01*
X0219262Y0046962D01*
X0219356Y0046989D01*
X0219449Y0047019D01*
X0219541Y0047054D01*
X0219631Y0047091D01*
X0219720Y0047133D01*
X0219807Y0047178D01*
X0219892Y0047226D01*
X0219975Y0047278D01*
X0220056Y0047333D01*
X0220134Y0047391D01*
X0220211Y0047452D01*
X0220285Y0047516D01*
X0220356Y0047584D01*
X0220424Y0047653D01*
X0220490Y0047726D01*
X0220553Y0047801D01*
X0220612Y0047879D01*
X0220669Y0047959D01*
X0220722Y0048041D01*
X0220772Y0048125D01*
X0220819Y0048211D01*
X0220862Y0048298D01*
X0220902Y0048388D01*
X0220938Y0048479D01*
X0220971Y0048571D01*
X0220999Y0048665D01*
X0221024Y0048759D01*
X0221046Y0048855D01*
X0221063Y0048951D01*
X0221077Y0049048D01*
X0221086Y0049145D01*
X0221092Y0049243D01*
X0221094Y0049341D01*
X0218633Y0049341D02*
X0218633Y0072963D01*
X0235365Y0059183D02*
X0235301Y0057817D01*
X0235203Y0056452D01*
X0235072Y0055090D01*
X0234907Y0053731D01*
X0234710Y0052377D01*
X0234480Y0051028D01*
X0234216Y0049685D01*
X0233921Y0048349D01*
X0233592Y0047021D01*
X0233232Y0045701D01*
X0232839Y0044390D01*
X0232415Y0043089D01*
X0231959Y0041799D01*
X0231471Y0040520D01*
X0230953Y0039254D01*
X0230404Y0038001D01*
X0229824Y0036761D01*
X0229215Y0035536D01*
X0228575Y0034326D01*
X0227907Y0033132D01*
X0227210Y0031955D01*
X0226484Y0030795D01*
X0225730Y0029653D01*
X0224948Y0028529D01*
X0224139Y0027426D01*
X0223304Y0026342D01*
X0222442Y0025279D01*
X0221555Y0024237D01*
X0220643Y0023217D01*
X0219706Y0022220D01*
X0218745Y0021245D01*
X0217761Y0020295D01*
X0216753Y0019369D01*
X0215724Y0018467D01*
X0214672Y0017591D01*
X0213600Y0016741D01*
X0212508Y0015917D01*
X0211395Y0015121D01*
X0210264Y0014351D01*
X0209114Y0013609D01*
X0207946Y0012896D01*
X0206761Y0012211D01*
X0205560Y0011555D01*
X0204343Y0010929D01*
X0203112Y0010333D01*
X0201866Y0009767D01*
X0200607Y0009231D01*
X0199335Y0008726D01*
X0198051Y0008252D01*
X0196756Y0007810D01*
X0195451Y0007400D01*
X0194136Y0007021D01*
X0192812Y0006675D01*
X0191480Y0006361D01*
X0190141Y0006079D01*
X0188796Y0005830D01*
X0187444Y0005614D01*
X0186088Y0005431D01*
X0184728Y0005282D01*
X0183365Y0005165D01*
X0181999Y0005082D01*
X0180631Y0005032D01*
X0179263Y0005015D01*
X0177895Y0005032D01*
X0176527Y0005082D01*
X0175161Y0005165D01*
X0173798Y0005282D01*
X0172438Y0005431D01*
X0171082Y0005614D01*
X0169730Y0005830D01*
X0168385Y0006079D01*
X0167046Y0006361D01*
X0165714Y0006675D01*
X0164390Y0007021D01*
X0163075Y0007400D01*
X0161770Y0007810D01*
X0160475Y0008252D01*
X0159191Y0008726D01*
X0157919Y0009231D01*
X0156660Y0009767D01*
X0155414Y0010333D01*
X0154183Y0010929D01*
X0152966Y0011555D01*
X0151765Y0012211D01*
X0150580Y0012896D01*
X0149412Y0013609D01*
X0148262Y0014351D01*
X0147131Y0015121D01*
X0146018Y0015917D01*
X0144926Y0016741D01*
X0143854Y0017591D01*
X0142802Y0018467D01*
X0141773Y0019369D01*
X0140765Y0020295D01*
X0139781Y0021245D01*
X0138820Y0022220D01*
X0137883Y0023217D01*
X0136971Y0024237D01*
X0136084Y0025279D01*
X0135222Y0026342D01*
X0134387Y0027426D01*
X0133578Y0028529D01*
X0132796Y0029653D01*
X0132042Y0030795D01*
X0131316Y0031955D01*
X0130619Y0033132D01*
X0129951Y0034326D01*
X0129311Y0035536D01*
X0128702Y0036761D01*
X0128122Y0038001D01*
X0127573Y0039254D01*
X0127055Y0040520D01*
X0126567Y0041799D01*
X0126111Y0043089D01*
X0125687Y0044390D01*
X0125294Y0045701D01*
X0124934Y0047021D01*
X0124605Y0048349D01*
X0124310Y0049685D01*
X0124046Y0051028D01*
X0123816Y0052377D01*
X0123619Y0053731D01*
X0123454Y0055090D01*
X0123323Y0056452D01*
X0123225Y0057817D01*
X0123161Y0059183D01*
X0123161Y0063121D02*
X0123225Y0064478D01*
X0123321Y0065833D01*
X0123451Y0067185D01*
X0123614Y0068534D01*
X0123809Y0069879D01*
X0124036Y0071219D01*
X0124296Y0072552D01*
X0124588Y0073879D01*
X0124912Y0075199D01*
X0125268Y0076510D01*
X0125655Y0077812D01*
X0126074Y0079105D01*
X0126524Y0080387D01*
X0127005Y0081658D01*
X0127517Y0082916D01*
X0128059Y0084162D01*
X0128630Y0085395D01*
X0129232Y0086613D01*
X0129863Y0087816D01*
X0130523Y0089004D01*
X0131211Y0090176D01*
X0131927Y0091330D01*
X0132672Y0092467D01*
X0133443Y0093585D01*
X0134242Y0094685D01*
X0135066Y0095764D01*
X0135917Y0096824D01*
X0136793Y0097862D01*
X0137694Y0098880D01*
X0138619Y0099875D01*
X0139568Y0100847D01*
X0140540Y0101796D01*
X0141535Y0102721D01*
X0142553Y0103622D01*
X0143591Y0104498D01*
X0144651Y0105349D01*
X0145730Y0106173D01*
X0146830Y0106972D01*
X0147948Y0107743D01*
X0149085Y0108488D01*
X0150239Y0109204D01*
X0151411Y0109892D01*
X0152599Y0110552D01*
X0153802Y0111183D01*
X0155020Y0111785D01*
X0156253Y0112356D01*
X0157499Y0112898D01*
X0158757Y0113410D01*
X0160028Y0113891D01*
X0161310Y0114341D01*
X0162603Y0114760D01*
X0163905Y0115147D01*
X0165216Y0115503D01*
X0166536Y0115827D01*
X0167863Y0116119D01*
X0169196Y0116379D01*
X0170536Y0116606D01*
X0171881Y0116801D01*
X0173230Y0116964D01*
X0174582Y0117094D01*
X0175937Y0117190D01*
X0177294Y0117254D01*
X0177294Y0117255D02*
X0177294Y0123160D01*
X0181231Y0123160D02*
X0181231Y0117255D01*
X0216172Y0167452D02*
X0216172Y0191074D01*
X0216174Y0191172D01*
X0216180Y0191270D01*
X0216189Y0191367D01*
X0216203Y0191464D01*
X0216220Y0191560D01*
X0216242Y0191656D01*
X0216267Y0191750D01*
X0216295Y0191844D01*
X0216328Y0191936D01*
X0216364Y0192027D01*
X0216404Y0192117D01*
X0216447Y0192204D01*
X0216494Y0192290D01*
X0216544Y0192374D01*
X0216597Y0192456D01*
X0216654Y0192536D01*
X0216713Y0192614D01*
X0216776Y0192689D01*
X0216842Y0192762D01*
X0216910Y0192831D01*
X0216981Y0192899D01*
X0217055Y0192963D01*
X0217132Y0193024D01*
X0217210Y0193082D01*
X0217291Y0193137D01*
X0217374Y0193189D01*
X0217459Y0193237D01*
X0217546Y0193282D01*
X0217635Y0193324D01*
X0217725Y0193361D01*
X0217817Y0193396D01*
X0217910Y0193426D01*
X0218004Y0193453D01*
X0218099Y0193476D01*
X0218195Y0193496D01*
X0218292Y0193511D01*
X0218389Y0193523D01*
X0218486Y0193531D01*
X0218584Y0193535D01*
X0218682Y0193535D01*
X0218780Y0193531D01*
X0218877Y0193523D01*
X0218974Y0193511D01*
X0219071Y0193496D01*
X0219167Y0193476D01*
X0219262Y0193453D01*
X0219356Y0193426D01*
X0219449Y0193396D01*
X0219541Y0193361D01*
X0219631Y0193324D01*
X0219720Y0193282D01*
X0219807Y0193237D01*
X0219892Y0193189D01*
X0219975Y0193137D01*
X0220056Y0193082D01*
X0220134Y0193024D01*
X0220211Y0192963D01*
X0220285Y0192899D01*
X0220356Y0192831D01*
X0220424Y0192762D01*
X0220490Y0192689D01*
X0220553Y0192614D01*
X0220612Y0192536D01*
X0220669Y0192456D01*
X0220722Y0192374D01*
X0220772Y0192290D01*
X0220819Y0192204D01*
X0220862Y0192117D01*
X0220902Y0192027D01*
X0220938Y0191936D01*
X0220971Y0191844D01*
X0220999Y0191750D01*
X0221024Y0191656D01*
X0221046Y0191560D01*
X0221063Y0191464D01*
X0221077Y0191367D01*
X0221086Y0191270D01*
X0221092Y0191172D01*
X0221094Y0191074D01*
X0221093Y0191074D02*
X0221093Y0167452D01*
X0221094Y0167452D02*
X0221092Y0167354D01*
X0221086Y0167256D01*
X0221077Y0167159D01*
X0221063Y0167062D01*
X0221046Y0166966D01*
X0221024Y0166870D01*
X0220999Y0166776D01*
X0220971Y0166682D01*
X0220938Y0166590D01*
X0220902Y0166499D01*
X0220862Y0166409D01*
X0220819Y0166322D01*
X0220772Y0166236D01*
X0220722Y0166152D01*
X0220669Y0166070D01*
X0220612Y0165990D01*
X0220553Y0165912D01*
X0220490Y0165837D01*
X0220424Y0165764D01*
X0220356Y0165695D01*
X0220285Y0165627D01*
X0220211Y0165563D01*
X0220134Y0165502D01*
X0220056Y0165444D01*
X0219975Y0165389D01*
X0219892Y0165337D01*
X0219807Y0165289D01*
X0219720Y0165244D01*
X0219631Y0165202D01*
X0219541Y0165165D01*
X0219449Y0165130D01*
X0219356Y0165100D01*
X0219262Y0165073D01*
X0219167Y0165050D01*
X0219071Y0165030D01*
X0218974Y0165015D01*
X0218877Y0165003D01*
X0218780Y0164995D01*
X0218682Y0164991D01*
X0218584Y0164991D01*
X0218486Y0164995D01*
X0218389Y0165003D01*
X0218292Y0165015D01*
X0218195Y0165030D01*
X0218099Y0165050D01*
X0218004Y0165073D01*
X0217910Y0165100D01*
X0217817Y0165130D01*
X0217725Y0165165D01*
X0217635Y0165202D01*
X0217546Y0165244D01*
X0217459Y0165289D01*
X0217374Y0165337D01*
X0217291Y0165389D01*
X0217210Y0165444D01*
X0217132Y0165502D01*
X0217055Y0165563D01*
X0216981Y0165627D01*
X0216910Y0165695D01*
X0216842Y0165764D01*
X0216776Y0165837D01*
X0216713Y0165912D01*
X0216654Y0165990D01*
X0216597Y0166070D01*
X0216544Y0166152D01*
X0216494Y0166236D01*
X0216447Y0166322D01*
X0216404Y0166409D01*
X0216364Y0166499D01*
X0216328Y0166590D01*
X0216295Y0166682D01*
X0216267Y0166776D01*
X0216242Y0166870D01*
X0216220Y0166966D01*
X0216203Y0167062D01*
X0216189Y0167159D01*
X0216180Y0167256D01*
X0216174Y0167354D01*
X0216172Y0167452D01*
X0218633Y0167452D02*
X0218633Y0191074D01*
X0235365Y0181231D02*
X0241270Y0181231D01*
X0241270Y0177294D02*
X0235365Y0177294D01*
X0285562Y0142353D02*
X0309184Y0142353D01*
X0309184Y0142354D02*
X0309282Y0142352D01*
X0309380Y0142346D01*
X0309477Y0142337D01*
X0309574Y0142323D01*
X0309670Y0142306D01*
X0309766Y0142284D01*
X0309860Y0142259D01*
X0309954Y0142231D01*
X0310046Y0142198D01*
X0310137Y0142162D01*
X0310227Y0142122D01*
X0310314Y0142079D01*
X0310400Y0142032D01*
X0310484Y0141982D01*
X0310566Y0141929D01*
X0310646Y0141872D01*
X0310724Y0141813D01*
X0310799Y0141750D01*
X0310872Y0141684D01*
X0310941Y0141616D01*
X0311009Y0141545D01*
X0311073Y0141471D01*
X0311134Y0141394D01*
X0311192Y0141316D01*
X0311247Y0141235D01*
X0311299Y0141152D01*
X0311347Y0141067D01*
X0311392Y0140980D01*
X0311434Y0140891D01*
X0311471Y0140801D01*
X0311506Y0140709D01*
X0311536Y0140616D01*
X0311563Y0140522D01*
X0311586Y0140427D01*
X0311606Y0140331D01*
X0311621Y0140234D01*
X0311633Y0140137D01*
X0311641Y0140040D01*
X0311645Y0139942D01*
X0311645Y0139844D01*
X0311641Y0139746D01*
X0311633Y0139649D01*
X0311621Y0139552D01*
X0311606Y0139455D01*
X0311586Y0139359D01*
X0311563Y0139264D01*
X0311536Y0139170D01*
X0311506Y0139077D01*
X0311471Y0138985D01*
X0311434Y0138895D01*
X0311392Y0138806D01*
X0311347Y0138719D01*
X0311299Y0138634D01*
X0311247Y0138551D01*
X0311192Y0138470D01*
X0311134Y0138392D01*
X0311073Y0138315D01*
X0311009Y0138241D01*
X0310941Y0138170D01*
X0310872Y0138102D01*
X0310799Y0138036D01*
X0310724Y0137973D01*
X0310646Y0137914D01*
X0310566Y0137857D01*
X0310484Y0137804D01*
X0310400Y0137754D01*
X0310314Y0137707D01*
X0310227Y0137664D01*
X0310137Y0137624D01*
X0310046Y0137588D01*
X0309954Y0137555D01*
X0309860Y0137527D01*
X0309766Y0137502D01*
X0309670Y0137480D01*
X0309574Y0137463D01*
X0309477Y0137449D01*
X0309380Y0137440D01*
X0309282Y0137434D01*
X0309184Y0137432D01*
X0285562Y0137432D01*
X0285464Y0137434D01*
X0285366Y0137440D01*
X0285269Y0137449D01*
X0285172Y0137463D01*
X0285076Y0137480D01*
X0284980Y0137502D01*
X0284886Y0137527D01*
X0284792Y0137555D01*
X0284700Y0137588D01*
X0284609Y0137624D01*
X0284519Y0137664D01*
X0284432Y0137707D01*
X0284346Y0137754D01*
X0284262Y0137804D01*
X0284180Y0137857D01*
X0284100Y0137914D01*
X0284022Y0137973D01*
X0283947Y0138036D01*
X0283874Y0138102D01*
X0283805Y0138170D01*
X0283737Y0138241D01*
X0283673Y0138315D01*
X0283612Y0138392D01*
X0283554Y0138470D01*
X0283499Y0138551D01*
X0283447Y0138634D01*
X0283399Y0138719D01*
X0283354Y0138806D01*
X0283312Y0138895D01*
X0283275Y0138985D01*
X0283240Y0139077D01*
X0283210Y0139170D01*
X0283183Y0139264D01*
X0283160Y0139359D01*
X0283140Y0139455D01*
X0283125Y0139552D01*
X0283113Y0139649D01*
X0283105Y0139746D01*
X0283101Y0139844D01*
X0283101Y0139942D01*
X0283105Y0140040D01*
X0283113Y0140137D01*
X0283125Y0140234D01*
X0283140Y0140331D01*
X0283160Y0140427D01*
X0283183Y0140522D01*
X0283210Y0140616D01*
X0283240Y0140709D01*
X0283275Y0140801D01*
X0283312Y0140891D01*
X0283354Y0140980D01*
X0283399Y0141067D01*
X0283447Y0141152D01*
X0283499Y0141235D01*
X0283554Y0141316D01*
X0283612Y0141394D01*
X0283673Y0141471D01*
X0283737Y0141545D01*
X0283805Y0141616D01*
X0283874Y0141684D01*
X0283947Y0141750D01*
X0284022Y0141813D01*
X0284100Y0141872D01*
X0284180Y0141929D01*
X0284262Y0141982D01*
X0284346Y0142032D01*
X0284432Y0142079D01*
X0284519Y0142122D01*
X0284609Y0142162D01*
X0284700Y0142198D01*
X0284792Y0142231D01*
X0284886Y0142259D01*
X0284980Y0142284D01*
X0285076Y0142306D01*
X0285172Y0142323D01*
X0285269Y0142337D01*
X0285366Y0142346D01*
X0285464Y0142352D01*
X0285562Y0142354D01*
X0285562Y0139893D02*
X0309184Y0139893D01*
X0299341Y0123160D02*
X0299341Y0117255D01*
X0299341Y0123160D01*
X0295404Y0123160D02*
X0295404Y0117255D01*
X0295404Y0123160D01*
X0285562Y0102983D02*
X0309184Y0102983D01*
X0309282Y0102981D01*
X0309380Y0102975D01*
X0309477Y0102966D01*
X0309574Y0102952D01*
X0309670Y0102935D01*
X0309766Y0102913D01*
X0309860Y0102888D01*
X0309954Y0102860D01*
X0310046Y0102827D01*
X0310137Y0102791D01*
X0310227Y0102751D01*
X0310314Y0102708D01*
X0310400Y0102661D01*
X0310484Y0102611D01*
X0310566Y0102558D01*
X0310646Y0102501D01*
X0310724Y0102442D01*
X0310799Y0102379D01*
X0310872Y0102313D01*
X0310941Y0102245D01*
X0311009Y0102174D01*
X0311073Y0102100D01*
X0311134Y0102023D01*
X0311192Y0101945D01*
X0311247Y0101864D01*
X0311299Y0101781D01*
X0311347Y0101696D01*
X0311392Y0101609D01*
X0311434Y0101520D01*
X0311471Y0101430D01*
X0311506Y0101338D01*
X0311536Y0101245D01*
X0311563Y0101151D01*
X0311586Y0101056D01*
X0311606Y0100960D01*
X0311621Y0100863D01*
X0311633Y0100766D01*
X0311641Y0100669D01*
X0311645Y0100571D01*
X0311645Y0100473D01*
X0311641Y0100375D01*
X0311633Y0100278D01*
X0311621Y0100181D01*
X0311606Y0100084D01*
X0311586Y0099988D01*
X0311563Y0099893D01*
X0311536Y0099799D01*
X0311506Y0099706D01*
X0311471Y0099614D01*
X0311434Y0099524D01*
X0311392Y0099435D01*
X0311347Y0099348D01*
X0311299Y0099263D01*
X0311247Y0099180D01*
X0311192Y0099099D01*
X0311134Y0099021D01*
X0311073Y0098944D01*
X0311009Y0098870D01*
X0310941Y0098799D01*
X0310872Y0098731D01*
X0310799Y0098665D01*
X0310724Y0098602D01*
X0310646Y0098543D01*
X0310566Y0098486D01*
X0310484Y0098433D01*
X0310400Y0098383D01*
X0310314Y0098336D01*
X0310227Y0098293D01*
X0310137Y0098253D01*
X0310046Y0098217D01*
X0309954Y0098184D01*
X0309860Y0098156D01*
X0309766Y0098131D01*
X0309670Y0098109D01*
X0309574Y0098092D01*
X0309477Y0098078D01*
X0309380Y0098069D01*
X0309282Y0098063D01*
X0309184Y0098061D01*
X0309184Y0098062D02*
X0285562Y0098062D01*
X0285562Y0098061D02*
X0285464Y0098063D01*
X0285366Y0098069D01*
X0285269Y0098078D01*
X0285172Y0098092D01*
X0285076Y0098109D01*
X0284980Y0098131D01*
X0284886Y0098156D01*
X0284792Y0098184D01*
X0284700Y0098217D01*
X0284609Y0098253D01*
X0284519Y0098293D01*
X0284432Y0098336D01*
X0284346Y0098383D01*
X0284262Y0098433D01*
X0284180Y0098486D01*
X0284100Y0098543D01*
X0284022Y0098602D01*
X0283947Y0098665D01*
X0283874Y0098731D01*
X0283805Y0098799D01*
X0283737Y0098870D01*
X0283673Y0098944D01*
X0283612Y0099021D01*
X0283554Y0099099D01*
X0283499Y0099180D01*
X0283447Y0099263D01*
X0283399Y0099348D01*
X0283354Y0099435D01*
X0283312Y0099524D01*
X0283275Y0099614D01*
X0283240Y0099706D01*
X0283210Y0099799D01*
X0283183Y0099893D01*
X0283160Y0099988D01*
X0283140Y0100084D01*
X0283125Y0100181D01*
X0283113Y0100278D01*
X0283105Y0100375D01*
X0283101Y0100473D01*
X0283101Y0100571D01*
X0283105Y0100669D01*
X0283113Y0100766D01*
X0283125Y0100863D01*
X0283140Y0100960D01*
X0283160Y0101056D01*
X0283183Y0101151D01*
X0283210Y0101245D01*
X0283240Y0101338D01*
X0283275Y0101430D01*
X0283312Y0101520D01*
X0283354Y0101609D01*
X0283399Y0101696D01*
X0283447Y0101781D01*
X0283499Y0101864D01*
X0283554Y0101945D01*
X0283612Y0102023D01*
X0283673Y0102100D01*
X0283737Y0102174D01*
X0283805Y0102245D01*
X0283874Y0102313D01*
X0283947Y0102379D01*
X0284022Y0102442D01*
X0284100Y0102501D01*
X0284180Y0102558D01*
X0284262Y0102611D01*
X0284346Y0102661D01*
X0284432Y0102708D01*
X0284519Y0102751D01*
X0284609Y0102791D01*
X0284700Y0102827D01*
X0284792Y0102860D01*
X0284886Y0102888D01*
X0284980Y0102913D01*
X0285076Y0102935D01*
X0285172Y0102952D01*
X0285269Y0102966D01*
X0285366Y0102975D01*
X0285464Y0102981D01*
X0285562Y0102983D01*
X0285562Y0100522D02*
X0309184Y0100522D01*
X0299342Y0117254D02*
X0300712Y0117190D01*
X0302080Y0117091D01*
X0303445Y0116960D01*
X0304806Y0116795D01*
X0306164Y0116596D01*
X0307515Y0116365D01*
X0308861Y0116101D01*
X0310200Y0115804D01*
X0311532Y0115474D01*
X0312855Y0115112D01*
X0314168Y0114718D01*
X0315472Y0114291D01*
X0316765Y0113833D01*
X0318046Y0113344D01*
X0319315Y0112823D01*
X0320571Y0112272D01*
X0321812Y0111690D01*
X0323040Y0111078D01*
X0324252Y0110436D01*
X0325448Y0109764D01*
X0326627Y0109064D01*
X0327789Y0108335D01*
X0328933Y0107578D01*
X0330057Y0106793D01*
X0331163Y0105981D01*
X0332248Y0105142D01*
X0333312Y0104277D01*
X0334355Y0103386D01*
X0335376Y0102470D01*
X0336374Y0101529D01*
X0337348Y0100564D01*
X0338299Y0099576D01*
X0339226Y0098565D01*
X0340127Y0097531D01*
X0341003Y0096476D01*
X0341853Y0095399D01*
X0342677Y0094302D01*
X0343473Y0093186D01*
X0344242Y0092050D01*
X0344983Y0090895D01*
X0345695Y0089723D01*
X0346379Y0088534D01*
X0347033Y0087329D01*
X0347658Y0086108D01*
X0348252Y0084872D01*
X0348817Y0083622D01*
X0349350Y0082358D01*
X0349853Y0081082D01*
X0350324Y0079794D01*
X0350764Y0078495D01*
X0351172Y0077186D01*
X0351547Y0075866D01*
X0351891Y0074539D01*
X0352201Y0073203D01*
X0352479Y0071860D01*
X0352725Y0070510D01*
X0352937Y0069155D01*
X0353116Y0067795D01*
X0353261Y0066431D01*
X0353373Y0065064D01*
X0353452Y0063695D01*
X0353498Y0062324D01*
X0353510Y0060953D01*
X0353488Y0059582D01*
X0353433Y0058211D01*
X0353344Y0056842D01*
X0353222Y0055476D01*
X0353067Y0054114D01*
X0352878Y0052755D01*
X0352657Y0051401D01*
X0352402Y0050054D01*
X0352114Y0048713D01*
X0351794Y0047379D01*
X0351442Y0046054D01*
X0351057Y0044737D01*
X0350639Y0043431D01*
X0350191Y0042135D01*
X0349710Y0040850D01*
X0349199Y0039577D01*
X0348656Y0038318D01*
X0348083Y0037072D01*
X0347480Y0035840D01*
X0346846Y0034623D01*
X0346183Y0033423D01*
X0345491Y0032238D01*
X0344771Y0031072D01*
X0344022Y0029923D01*
X0343245Y0028792D01*
X0342440Y0027681D01*
X0341609Y0026590D01*
X0340752Y0025520D01*
X0339868Y0024471D01*
X0338959Y0023443D01*
X0338026Y0022439D01*
X0337068Y0021457D01*
X0336086Y0020499D01*
X0335082Y0019566D01*
X0334054Y0018657D01*
X0333005Y0017773D01*
X0331935Y0016916D01*
X0330844Y0016085D01*
X0329733Y0015280D01*
X0328602Y0014503D01*
X0327453Y0013754D01*
X0326287Y0013034D01*
X0325102Y0012342D01*
X0323902Y0011679D01*
X0322685Y0011045D01*
X0321453Y0010442D01*
X0320207Y0009869D01*
X0318948Y0009326D01*
X0317675Y0008815D01*
X0316390Y0008334D01*
X0315094Y0007886D01*
X0313788Y0007468D01*
X0312471Y0007083D01*
X0311146Y0006731D01*
X0309812Y0006411D01*
X0308471Y0006123D01*
X0307124Y0005868D01*
X0305770Y0005647D01*
X0304411Y0005458D01*
X0303049Y0005303D01*
X0301683Y0005181D01*
X0300314Y0005092D01*
X0298943Y0005037D01*
X0297572Y0005015D01*
X0296201Y0005027D01*
X0294830Y0005073D01*
X0293461Y0005152D01*
X0292094Y0005264D01*
X0290730Y0005409D01*
X0289370Y0005588D01*
X0288015Y0005800D01*
X0286665Y0006046D01*
X0285322Y0006324D01*
X0283986Y0006634D01*
X0282659Y0006978D01*
X0281339Y0007353D01*
X0280030Y0007761D01*
X0278731Y0008201D01*
X0277443Y0008672D01*
X0276167Y0009175D01*
X0274903Y0009708D01*
X0273653Y0010273D01*
X0272417Y0010867D01*
X0271196Y0011492D01*
X0269991Y0012146D01*
X0268802Y0012830D01*
X0267630Y0013542D01*
X0266475Y0014283D01*
X0265339Y0015052D01*
X0264223Y0015848D01*
X0263126Y0016672D01*
X0262049Y0017522D01*
X0260994Y0018398D01*
X0259960Y0019299D01*
X0258949Y0020226D01*
X0257961Y0021177D01*
X0256996Y0022151D01*
X0256055Y0023149D01*
X0255139Y0024170D01*
X0254248Y0025213D01*
X0253383Y0026277D01*
X0252544Y0027362D01*
X0251732Y0028468D01*
X0250947Y0029592D01*
X0250190Y0030736D01*
X0249461Y0031898D01*
X0248761Y0033077D01*
X0248089Y0034273D01*
X0247447Y0035485D01*
X0246835Y0036713D01*
X0246253Y0037954D01*
X0245702Y0039210D01*
X0245181Y0040479D01*
X0244692Y0041760D01*
X0244234Y0043053D01*
X0243807Y0044357D01*
X0243413Y0045670D01*
X0243051Y0046993D01*
X0242721Y0048325D01*
X0242424Y0049664D01*
X0242160Y0051010D01*
X0241929Y0052361D01*
X0241730Y0053719D01*
X0241565Y0055080D01*
X0241434Y0056445D01*
X0241335Y0057813D01*
X0241271Y0059183D01*
X0285562Y0024243D02*
X0309184Y0024243D01*
X0309282Y0024241D01*
X0309380Y0024235D01*
X0309477Y0024226D01*
X0309574Y0024212D01*
X0309670Y0024195D01*
X0309766Y0024173D01*
X0309860Y0024148D01*
X0309954Y0024120D01*
X0310046Y0024087D01*
X0310137Y0024051D01*
X0310227Y0024011D01*
X0310314Y0023968D01*
X0310400Y0023921D01*
X0310484Y0023871D01*
X0310566Y0023818D01*
X0310646Y0023761D01*
X0310724Y0023702D01*
X0310799Y0023639D01*
X0310872Y0023573D01*
X0310941Y0023505D01*
X0311009Y0023434D01*
X0311073Y0023360D01*
X0311134Y0023283D01*
X0311192Y0023205D01*
X0311247Y0023124D01*
X0311299Y0023041D01*
X0311347Y0022956D01*
X0311392Y0022869D01*
X0311434Y0022780D01*
X0311471Y0022690D01*
X0311506Y0022598D01*
X0311536Y0022505D01*
X0311563Y0022411D01*
X0311586Y0022316D01*
X0311606Y0022220D01*
X0311621Y0022123D01*
X0311633Y0022026D01*
X0311641Y0021929D01*
X0311645Y0021831D01*
X0311645Y0021733D01*
X0311641Y0021635D01*
X0311633Y0021538D01*
X0311621Y0021441D01*
X0311606Y0021344D01*
X0311586Y0021248D01*
X0311563Y0021153D01*
X0311536Y0021059D01*
X0311506Y0020966D01*
X0311471Y0020874D01*
X0311434Y0020784D01*
X0311392Y0020695D01*
X0311347Y0020608D01*
X0311299Y0020523D01*
X0311247Y0020440D01*
X0311192Y0020359D01*
X0311134Y0020281D01*
X0311073Y0020204D01*
X0311009Y0020130D01*
X0310941Y0020059D01*
X0310872Y0019991D01*
X0310799Y0019925D01*
X0310724Y0019862D01*
X0310646Y0019803D01*
X0310566Y0019746D01*
X0310484Y0019693D01*
X0310400Y0019643D01*
X0310314Y0019596D01*
X0310227Y0019553D01*
X0310137Y0019513D01*
X0310046Y0019477D01*
X0309954Y0019444D01*
X0309860Y0019416D01*
X0309766Y0019391D01*
X0309670Y0019369D01*
X0309574Y0019352D01*
X0309477Y0019338D01*
X0309380Y0019329D01*
X0309282Y0019323D01*
X0309184Y0019321D01*
X0309184Y0019322D02*
X0285562Y0019322D01*
X0285562Y0019321D02*
X0285464Y0019323D01*
X0285366Y0019329D01*
X0285269Y0019338D01*
X0285172Y0019352D01*
X0285076Y0019369D01*
X0284980Y0019391D01*
X0284886Y0019416D01*
X0284792Y0019444D01*
X0284700Y0019477D01*
X0284609Y0019513D01*
X0284519Y0019553D01*
X0284432Y0019596D01*
X0284346Y0019643D01*
X0284262Y0019693D01*
X0284180Y0019746D01*
X0284100Y0019803D01*
X0284022Y0019862D01*
X0283947Y0019925D01*
X0283874Y0019991D01*
X0283805Y0020059D01*
X0283737Y0020130D01*
X0283673Y0020204D01*
X0283612Y0020281D01*
X0283554Y0020359D01*
X0283499Y0020440D01*
X0283447Y0020523D01*
X0283399Y0020608D01*
X0283354Y0020695D01*
X0283312Y0020784D01*
X0283275Y0020874D01*
X0283240Y0020966D01*
X0283210Y0021059D01*
X0283183Y0021153D01*
X0283160Y0021248D01*
X0283140Y0021344D01*
X0283125Y0021441D01*
X0283113Y0021538D01*
X0283105Y0021635D01*
X0283101Y0021733D01*
X0283101Y0021831D01*
X0283105Y0021929D01*
X0283113Y0022026D01*
X0283125Y0022123D01*
X0283140Y0022220D01*
X0283160Y0022316D01*
X0283183Y0022411D01*
X0283210Y0022505D01*
X0283240Y0022598D01*
X0283275Y0022690D01*
X0283312Y0022780D01*
X0283354Y0022869D01*
X0283399Y0022956D01*
X0283447Y0023041D01*
X0283499Y0023124D01*
X0283554Y0023205D01*
X0283612Y0023283D01*
X0283673Y0023360D01*
X0283737Y0023434D01*
X0283805Y0023505D01*
X0283874Y0023573D01*
X0283947Y0023639D01*
X0284022Y0023702D01*
X0284100Y0023761D01*
X0284180Y0023818D01*
X0284262Y0023871D01*
X0284346Y0023921D01*
X0284432Y0023968D01*
X0284519Y0024011D01*
X0284609Y0024051D01*
X0284700Y0024087D01*
X0284792Y0024120D01*
X0284886Y0024148D01*
X0284980Y0024173D01*
X0285076Y0024195D01*
X0285172Y0024212D01*
X0285269Y0024226D01*
X0285366Y0024235D01*
X0285464Y0024241D01*
X0285562Y0024243D01*
X0285562Y0021782D02*
X0309184Y0021782D01*
X0241271Y0063121D02*
X0241335Y0064478D01*
X0241431Y0065833D01*
X0241561Y0067185D01*
X0241724Y0068534D01*
X0241919Y0069879D01*
X0242146Y0071219D01*
X0242406Y0072552D01*
X0242698Y0073879D01*
X0243022Y0075199D01*
X0243378Y0076510D01*
X0243765Y0077812D01*
X0244184Y0079105D01*
X0244634Y0080387D01*
X0245115Y0081658D01*
X0245627Y0082916D01*
X0246169Y0084162D01*
X0246740Y0085395D01*
X0247342Y0086613D01*
X0247973Y0087816D01*
X0248633Y0089004D01*
X0249321Y0090176D01*
X0250037Y0091330D01*
X0250782Y0092467D01*
X0251553Y0093585D01*
X0252352Y0094685D01*
X0253176Y0095764D01*
X0254027Y0096824D01*
X0254903Y0097862D01*
X0255804Y0098880D01*
X0256729Y0099875D01*
X0257678Y0100847D01*
X0258650Y0101796D01*
X0259645Y0102721D01*
X0260663Y0103622D01*
X0261701Y0104498D01*
X0262761Y0105349D01*
X0263840Y0106173D01*
X0264940Y0106972D01*
X0266058Y0107743D01*
X0267195Y0108488D01*
X0268349Y0109204D01*
X0269521Y0109892D01*
X0270709Y0110552D01*
X0271912Y0111183D01*
X0273130Y0111785D01*
X0274363Y0112356D01*
X0275609Y0112898D01*
X0276867Y0113410D01*
X0278138Y0113891D01*
X0279420Y0114341D01*
X0280713Y0114760D01*
X0282015Y0115147D01*
X0283326Y0115503D01*
X0284646Y0115827D01*
X0285973Y0116119D01*
X0287306Y0116379D01*
X0288646Y0116606D01*
X0289991Y0116801D01*
X0291340Y0116964D01*
X0292692Y0117094D01*
X0294047Y0117190D01*
X0295404Y0117254D01*
X0265877Y0061152D02*
X0265886Y0061925D01*
X0265915Y0062697D01*
X0265962Y0063469D01*
X0266029Y0064239D01*
X0266114Y0065007D01*
X0266218Y0065773D01*
X0266341Y0066537D01*
X0266482Y0067297D01*
X0266642Y0068053D01*
X0266821Y0068805D01*
X0267018Y0069552D01*
X0267233Y0070295D01*
X0267467Y0071032D01*
X0267718Y0071763D01*
X0267987Y0072487D01*
X0268274Y0073205D01*
X0268579Y0073915D01*
X0268901Y0074618D01*
X0269240Y0075313D01*
X0269596Y0075999D01*
X0269969Y0076676D01*
X0270358Y0077344D01*
X0270763Y0078002D01*
X0271185Y0078650D01*
X0271622Y0079288D01*
X0272075Y0079914D01*
X0272543Y0080529D01*
X0273026Y0081133D01*
X0273524Y0081724D01*
X0274036Y0082303D01*
X0274562Y0082870D01*
X0275102Y0083423D01*
X0275655Y0083963D01*
X0276222Y0084489D01*
X0276801Y0085001D01*
X0277392Y0085499D01*
X0277996Y0085982D01*
X0278611Y0086450D01*
X0279237Y0086903D01*
X0279875Y0087340D01*
X0280523Y0087762D01*
X0281181Y0088167D01*
X0281849Y0088556D01*
X0282526Y0088929D01*
X0283212Y0089285D01*
X0283907Y0089624D01*
X0284610Y0089946D01*
X0285320Y0090251D01*
X0286038Y0090538D01*
X0286762Y0090807D01*
X0287493Y0091058D01*
X0288230Y0091292D01*
X0288973Y0091507D01*
X0289720Y0091704D01*
X0290472Y0091883D01*
X0291228Y0092043D01*
X0291988Y0092184D01*
X0292752Y0092307D01*
X0293518Y0092411D01*
X0294286Y0092496D01*
X0295056Y0092563D01*
X0295828Y0092610D01*
X0296600Y0092639D01*
X0297373Y0092648D01*
X0298146Y0092639D01*
X0298918Y0092610D01*
X0299690Y0092563D01*
X0300460Y0092496D01*
X0301228Y0092411D01*
X0301994Y0092307D01*
X0302758Y0092184D01*
X0303518Y0092043D01*
X0304274Y0091883D01*
X0305026Y0091704D01*
X0305773Y0091507D01*
X0306516Y0091292D01*
X0307253Y0091058D01*
X0307984Y0090807D01*
X0308708Y0090538D01*
X0309426Y0090251D01*
X0310136Y0089946D01*
X0310839Y0089624D01*
X0311534Y0089285D01*
X0312220Y0088929D01*
X0312897Y0088556D01*
X0313565Y0088167D01*
X0314223Y0087762D01*
X0314871Y0087340D01*
X0315509Y0086903D01*
X0316135Y0086450D01*
X0316750Y0085982D01*
X0317354Y0085499D01*
X0317945Y0085001D01*
X0318524Y0084489D01*
X0319091Y0083963D01*
X0319644Y0083423D01*
X0320184Y0082870D01*
X0320710Y0082303D01*
X0321222Y0081724D01*
X0321720Y0081133D01*
X0322203Y0080529D01*
X0322671Y0079914D01*
X0323124Y0079288D01*
X0323561Y0078650D01*
X0323983Y0078002D01*
X0324388Y0077344D01*
X0324777Y0076676D01*
X0325150Y0075999D01*
X0325506Y0075313D01*
X0325845Y0074618D01*
X0326167Y0073915D01*
X0326472Y0073205D01*
X0326759Y0072487D01*
X0327028Y0071763D01*
X0327279Y0071032D01*
X0327513Y0070295D01*
X0327728Y0069552D01*
X0327925Y0068805D01*
X0328104Y0068053D01*
X0328264Y0067297D01*
X0328405Y0066537D01*
X0328528Y0065773D01*
X0328632Y0065007D01*
X0328717Y0064239D01*
X0328784Y0063469D01*
X0328831Y0062697D01*
X0328860Y0061925D01*
X0328869Y0061152D01*
X0328860Y0060379D01*
X0328831Y0059607D01*
X0328784Y0058835D01*
X0328717Y0058065D01*
X0328632Y0057297D01*
X0328528Y0056531D01*
X0328405Y0055767D01*
X0328264Y0055007D01*
X0328104Y0054251D01*
X0327925Y0053499D01*
X0327728Y0052752D01*
X0327513Y0052009D01*
X0327279Y0051272D01*
X0327028Y0050541D01*
X0326759Y0049817D01*
X0326472Y0049099D01*
X0326167Y0048389D01*
X0325845Y0047686D01*
X0325506Y0046991D01*
X0325150Y0046305D01*
X0324777Y0045628D01*
X0324388Y0044960D01*
X0323983Y0044302D01*
X0323561Y0043654D01*
X0323124Y0043016D01*
X0322671Y0042390D01*
X0322203Y0041775D01*
X0321720Y0041171D01*
X0321222Y0040580D01*
X0320710Y0040001D01*
X0320184Y0039434D01*
X0319644Y0038881D01*
X0319091Y0038341D01*
X0318524Y0037815D01*
X0317945Y0037303D01*
X0317354Y0036805D01*
X0316750Y0036322D01*
X0316135Y0035854D01*
X0315509Y0035401D01*
X0314871Y0034964D01*
X0314223Y0034542D01*
X0313565Y0034137D01*
X0312897Y0033748D01*
X0312220Y0033375D01*
X0311534Y0033019D01*
X0310839Y0032680D01*
X0310136Y0032358D01*
X0309426Y0032053D01*
X0308708Y0031766D01*
X0307984Y0031497D01*
X0307253Y0031246D01*
X0306516Y0031012D01*
X0305773Y0030797D01*
X0305026Y0030600D01*
X0304274Y0030421D01*
X0303518Y0030261D01*
X0302758Y0030120D01*
X0301994Y0029997D01*
X0301228Y0029893D01*
X0300460Y0029808D01*
X0299690Y0029741D01*
X0298918Y0029694D01*
X0298146Y0029665D01*
X0297373Y0029656D01*
X0296600Y0029665D01*
X0295828Y0029694D01*
X0295056Y0029741D01*
X0294286Y0029808D01*
X0293518Y0029893D01*
X0292752Y0029997D01*
X0291988Y0030120D01*
X0291228Y0030261D01*
X0290472Y0030421D01*
X0289720Y0030600D01*
X0288973Y0030797D01*
X0288230Y0031012D01*
X0287493Y0031246D01*
X0286762Y0031497D01*
X0286038Y0031766D01*
X0285320Y0032053D01*
X0284610Y0032358D01*
X0283907Y0032680D01*
X0283212Y0033019D01*
X0282526Y0033375D01*
X0281849Y0033748D01*
X0281181Y0034137D01*
X0280523Y0034542D01*
X0279875Y0034964D01*
X0279237Y0035401D01*
X0278611Y0035854D01*
X0277996Y0036322D01*
X0277392Y0036805D01*
X0276801Y0037303D01*
X0276222Y0037815D01*
X0275655Y0038341D01*
X0275102Y0038881D01*
X0274562Y0039434D01*
X0274036Y0040001D01*
X0273524Y0040580D01*
X0273026Y0041171D01*
X0272543Y0041775D01*
X0272075Y0042390D01*
X0271622Y0043016D01*
X0271185Y0043654D01*
X0270763Y0044302D01*
X0270358Y0044960D01*
X0269969Y0045628D01*
X0269596Y0046305D01*
X0269240Y0046991D01*
X0268901Y0047686D01*
X0268579Y0048389D01*
X0268274Y0049099D01*
X0267987Y0049817D01*
X0267718Y0050541D01*
X0267467Y0051272D01*
X0267233Y0052009D01*
X0267018Y0052752D01*
X0266821Y0053499D01*
X0266642Y0054251D01*
X0266482Y0055007D01*
X0266341Y0055767D01*
X0266218Y0056531D01*
X0266114Y0057297D01*
X0266029Y0058065D01*
X0265962Y0058835D01*
X0265915Y0059607D01*
X0265886Y0060379D01*
X0265877Y0061152D01*
X0147767Y0061152D02*
X0147776Y0061925D01*
X0147805Y0062697D01*
X0147852Y0063469D01*
X0147919Y0064239D01*
X0148004Y0065007D01*
X0148108Y0065773D01*
X0148231Y0066537D01*
X0148372Y0067297D01*
X0148532Y0068053D01*
X0148711Y0068805D01*
X0148908Y0069552D01*
X0149123Y0070295D01*
X0149357Y0071032D01*
X0149608Y0071763D01*
X0149877Y0072487D01*
X0150164Y0073205D01*
X0150469Y0073915D01*
X0150791Y0074618D01*
X0151130Y0075313D01*
X0151486Y0075999D01*
X0151859Y0076676D01*
X0152248Y0077344D01*
X0152653Y0078002D01*
X0153075Y0078650D01*
X0153512Y0079288D01*
X0153965Y0079914D01*
X0154433Y0080529D01*
X0154916Y0081133D01*
X0155414Y0081724D01*
X0155926Y0082303D01*
X0156452Y0082870D01*
X0156992Y0083423D01*
X0157545Y0083963D01*
X0158112Y0084489D01*
X0158691Y0085001D01*
X0159282Y0085499D01*
X0159886Y0085982D01*
X0160501Y0086450D01*
X0161127Y0086903D01*
X0161765Y0087340D01*
X0162413Y0087762D01*
X0163071Y0088167D01*
X0163739Y0088556D01*
X0164416Y0088929D01*
X0165102Y0089285D01*
X0165797Y0089624D01*
X0166500Y0089946D01*
X0167210Y0090251D01*
X0167928Y0090538D01*
X0168652Y0090807D01*
X0169383Y0091058D01*
X0170120Y0091292D01*
X0170863Y0091507D01*
X0171610Y0091704D01*
X0172362Y0091883D01*
X0173118Y0092043D01*
X0173878Y0092184D01*
X0174642Y0092307D01*
X0175408Y0092411D01*
X0176176Y0092496D01*
X0176946Y0092563D01*
X0177718Y0092610D01*
X0178490Y0092639D01*
X0179263Y0092648D01*
X0180036Y0092639D01*
X0180808Y0092610D01*
X0181580Y0092563D01*
X0182350Y0092496D01*
X0183118Y0092411D01*
X0183884Y0092307D01*
X0184648Y0092184D01*
X0185408Y0092043D01*
X0186164Y0091883D01*
X0186916Y0091704D01*
X0187663Y0091507D01*
X0188406Y0091292D01*
X0189143Y0091058D01*
X0189874Y0090807D01*
X0190598Y0090538D01*
X0191316Y0090251D01*
X0192026Y0089946D01*
X0192729Y0089624D01*
X0193424Y0089285D01*
X0194110Y0088929D01*
X0194787Y0088556D01*
X0195455Y0088167D01*
X0196113Y0087762D01*
X0196761Y0087340D01*
X0197399Y0086903D01*
X0198025Y0086450D01*
X0198640Y0085982D01*
X0199244Y0085499D01*
X0199835Y0085001D01*
X0200414Y0084489D01*
X0200981Y0083963D01*
X0201534Y0083423D01*
X0202074Y0082870D01*
X0202600Y0082303D01*
X0203112Y0081724D01*
X0203610Y0081133D01*
X0204093Y0080529D01*
X0204561Y0079914D01*
X0205014Y0079288D01*
X0205451Y0078650D01*
X0205873Y0078002D01*
X0206278Y0077344D01*
X0206667Y0076676D01*
X0207040Y0075999D01*
X0207396Y0075313D01*
X0207735Y0074618D01*
X0208057Y0073915D01*
X0208362Y0073205D01*
X0208649Y0072487D01*
X0208918Y0071763D01*
X0209169Y0071032D01*
X0209403Y0070295D01*
X0209618Y0069552D01*
X0209815Y0068805D01*
X0209994Y0068053D01*
X0210154Y0067297D01*
X0210295Y0066537D01*
X0210418Y0065773D01*
X0210522Y0065007D01*
X0210607Y0064239D01*
X0210674Y0063469D01*
X0210721Y0062697D01*
X0210750Y0061925D01*
X0210759Y0061152D01*
X0210750Y0060379D01*
X0210721Y0059607D01*
X0210674Y0058835D01*
X0210607Y0058065D01*
X0210522Y0057297D01*
X0210418Y0056531D01*
X0210295Y0055767D01*
X0210154Y0055007D01*
X0209994Y0054251D01*
X0209815Y0053499D01*
X0209618Y0052752D01*
X0209403Y0052009D01*
X0209169Y0051272D01*
X0208918Y0050541D01*
X0208649Y0049817D01*
X0208362Y0049099D01*
X0208057Y0048389D01*
X0207735Y0047686D01*
X0207396Y0046991D01*
X0207040Y0046305D01*
X0206667Y0045628D01*
X0206278Y0044960D01*
X0205873Y0044302D01*
X0205451Y0043654D01*
X0205014Y0043016D01*
X0204561Y0042390D01*
X0204093Y0041775D01*
X0203610Y0041171D01*
X0203112Y0040580D01*
X0202600Y0040001D01*
X0202074Y0039434D01*
X0201534Y0038881D01*
X0200981Y0038341D01*
X0200414Y0037815D01*
X0199835Y0037303D01*
X0199244Y0036805D01*
X0198640Y0036322D01*
X0198025Y0035854D01*
X0197399Y0035401D01*
X0196761Y0034964D01*
X0196113Y0034542D01*
X0195455Y0034137D01*
X0194787Y0033748D01*
X0194110Y0033375D01*
X0193424Y0033019D01*
X0192729Y0032680D01*
X0192026Y0032358D01*
X0191316Y0032053D01*
X0190598Y0031766D01*
X0189874Y0031497D01*
X0189143Y0031246D01*
X0188406Y0031012D01*
X0187663Y0030797D01*
X0186916Y0030600D01*
X0186164Y0030421D01*
X0185408Y0030261D01*
X0184648Y0030120D01*
X0183884Y0029997D01*
X0183118Y0029893D01*
X0182350Y0029808D01*
X0181580Y0029741D01*
X0180808Y0029694D01*
X0180036Y0029665D01*
X0179263Y0029656D01*
X0178490Y0029665D01*
X0177718Y0029694D01*
X0176946Y0029741D01*
X0176176Y0029808D01*
X0175408Y0029893D01*
X0174642Y0029997D01*
X0173878Y0030120D01*
X0173118Y0030261D01*
X0172362Y0030421D01*
X0171610Y0030600D01*
X0170863Y0030797D01*
X0170120Y0031012D01*
X0169383Y0031246D01*
X0168652Y0031497D01*
X0167928Y0031766D01*
X0167210Y0032053D01*
X0166500Y0032358D01*
X0165797Y0032680D01*
X0165102Y0033019D01*
X0164416Y0033375D01*
X0163739Y0033748D01*
X0163071Y0034137D01*
X0162413Y0034542D01*
X0161765Y0034964D01*
X0161127Y0035401D01*
X0160501Y0035854D01*
X0159886Y0036322D01*
X0159282Y0036805D01*
X0158691Y0037303D01*
X0158112Y0037815D01*
X0157545Y0038341D01*
X0156992Y0038881D01*
X0156452Y0039434D01*
X0155926Y0040001D01*
X0155414Y0040580D01*
X0154916Y0041171D01*
X0154433Y0041775D01*
X0153965Y0042390D01*
X0153512Y0043016D01*
X0153075Y0043654D01*
X0152653Y0044302D01*
X0152248Y0044960D01*
X0151859Y0045628D01*
X0151486Y0046305D01*
X0151130Y0046991D01*
X0150791Y0047686D01*
X0150469Y0048389D01*
X0150164Y0049099D01*
X0149877Y0049817D01*
X0149608Y0050541D01*
X0149357Y0051272D01*
X0149123Y0052009D01*
X0148908Y0052752D01*
X0148711Y0053499D01*
X0148532Y0054251D01*
X0148372Y0055007D01*
X0148231Y0055767D01*
X0148108Y0056531D01*
X0148004Y0057297D01*
X0147919Y0058065D01*
X0147852Y0058835D01*
X0147805Y0059607D01*
X0147776Y0060379D01*
X0147767Y0061152D01*
X0072963Y0137432D02*
X0049341Y0137432D01*
X0049243Y0137434D01*
X0049145Y0137440D01*
X0049048Y0137449D01*
X0048951Y0137463D01*
X0048855Y0137480D01*
X0048759Y0137502D01*
X0048665Y0137527D01*
X0048571Y0137555D01*
X0048479Y0137588D01*
X0048388Y0137624D01*
X0048298Y0137664D01*
X0048211Y0137707D01*
X0048125Y0137754D01*
X0048041Y0137804D01*
X0047959Y0137857D01*
X0047879Y0137914D01*
X0047801Y0137973D01*
X0047726Y0138036D01*
X0047653Y0138102D01*
X0047584Y0138170D01*
X0047516Y0138241D01*
X0047452Y0138315D01*
X0047391Y0138392D01*
X0047333Y0138470D01*
X0047278Y0138551D01*
X0047226Y0138634D01*
X0047178Y0138719D01*
X0047133Y0138806D01*
X0047091Y0138895D01*
X0047054Y0138985D01*
X0047019Y0139077D01*
X0046989Y0139170D01*
X0046962Y0139264D01*
X0046939Y0139359D01*
X0046919Y0139455D01*
X0046904Y0139552D01*
X0046892Y0139649D01*
X0046884Y0139746D01*
X0046880Y0139844D01*
X0046880Y0139942D01*
X0046884Y0140040D01*
X0046892Y0140137D01*
X0046904Y0140234D01*
X0046919Y0140331D01*
X0046939Y0140427D01*
X0046962Y0140522D01*
X0046989Y0140616D01*
X0047019Y0140709D01*
X0047054Y0140801D01*
X0047091Y0140891D01*
X0047133Y0140980D01*
X0047178Y0141067D01*
X0047226Y0141152D01*
X0047278Y0141235D01*
X0047333Y0141316D01*
X0047391Y0141394D01*
X0047452Y0141471D01*
X0047516Y0141545D01*
X0047584Y0141616D01*
X0047653Y0141684D01*
X0047726Y0141750D01*
X0047801Y0141813D01*
X0047879Y0141872D01*
X0047959Y0141929D01*
X0048041Y0141982D01*
X0048125Y0142032D01*
X0048211Y0142079D01*
X0048298Y0142122D01*
X0048388Y0142162D01*
X0048479Y0142198D01*
X0048571Y0142231D01*
X0048665Y0142259D01*
X0048759Y0142284D01*
X0048855Y0142306D01*
X0048951Y0142323D01*
X0049048Y0142337D01*
X0049145Y0142346D01*
X0049243Y0142352D01*
X0049341Y0142354D01*
X0049341Y0142353D02*
X0072963Y0142353D01*
X0072963Y0142354D02*
X0073061Y0142352D01*
X0073159Y0142346D01*
X0073256Y0142337D01*
X0073353Y0142323D01*
X0073449Y0142306D01*
X0073545Y0142284D01*
X0073639Y0142259D01*
X0073733Y0142231D01*
X0073825Y0142198D01*
X0073916Y0142162D01*
X0074006Y0142122D01*
X0074093Y0142079D01*
X0074179Y0142032D01*
X0074263Y0141982D01*
X0074345Y0141929D01*
X0074425Y0141872D01*
X0074503Y0141813D01*
X0074578Y0141750D01*
X0074651Y0141684D01*
X0074720Y0141616D01*
X0074788Y0141545D01*
X0074852Y0141471D01*
X0074913Y0141394D01*
X0074971Y0141316D01*
X0075026Y0141235D01*
X0075078Y0141152D01*
X0075126Y0141067D01*
X0075171Y0140980D01*
X0075213Y0140891D01*
X0075250Y0140801D01*
X0075285Y0140709D01*
X0075315Y0140616D01*
X0075342Y0140522D01*
X0075365Y0140427D01*
X0075385Y0140331D01*
X0075400Y0140234D01*
X0075412Y0140137D01*
X0075420Y0140040D01*
X0075424Y0139942D01*
X0075424Y0139844D01*
X0075420Y0139746D01*
X0075412Y0139649D01*
X0075400Y0139552D01*
X0075385Y0139455D01*
X0075365Y0139359D01*
X0075342Y0139264D01*
X0075315Y0139170D01*
X0075285Y0139077D01*
X0075250Y0138985D01*
X0075213Y0138895D01*
X0075171Y0138806D01*
X0075126Y0138719D01*
X0075078Y0138634D01*
X0075026Y0138551D01*
X0074971Y0138470D01*
X0074913Y0138392D01*
X0074852Y0138315D01*
X0074788Y0138241D01*
X0074720Y0138170D01*
X0074651Y0138102D01*
X0074578Y0138036D01*
X0074503Y0137973D01*
X0074425Y0137914D01*
X0074345Y0137857D01*
X0074263Y0137804D01*
X0074179Y0137754D01*
X0074093Y0137707D01*
X0074006Y0137664D01*
X0073916Y0137624D01*
X0073825Y0137588D01*
X0073733Y0137555D01*
X0073639Y0137527D01*
X0073545Y0137502D01*
X0073449Y0137480D01*
X0073353Y0137463D01*
X0073256Y0137449D01*
X0073159Y0137440D01*
X0073061Y0137434D01*
X0072963Y0137432D01*
X0072963Y0139893D02*
X0049341Y0139893D01*
X0059184Y0123160D02*
X0059184Y0117255D01*
X0063121Y0117255D02*
X0063121Y0123160D01*
X0117255Y0177294D02*
X0123160Y0177294D01*
X0123160Y0181231D02*
X0117255Y0181231D01*
X0137432Y0191074D02*
X0137432Y0167452D01*
X0137434Y0167354D01*
X0137440Y0167256D01*
X0137449Y0167159D01*
X0137463Y0167062D01*
X0137480Y0166966D01*
X0137502Y0166870D01*
X0137527Y0166776D01*
X0137555Y0166682D01*
X0137588Y0166590D01*
X0137624Y0166499D01*
X0137664Y0166409D01*
X0137707Y0166322D01*
X0137754Y0166236D01*
X0137804Y0166152D01*
X0137857Y0166070D01*
X0137914Y0165990D01*
X0137973Y0165912D01*
X0138036Y0165837D01*
X0138102Y0165764D01*
X0138170Y0165695D01*
X0138241Y0165627D01*
X0138315Y0165563D01*
X0138392Y0165502D01*
X0138470Y0165444D01*
X0138551Y0165389D01*
X0138634Y0165337D01*
X0138719Y0165289D01*
X0138806Y0165244D01*
X0138895Y0165202D01*
X0138985Y0165165D01*
X0139077Y0165130D01*
X0139170Y0165100D01*
X0139264Y0165073D01*
X0139359Y0165050D01*
X0139455Y0165030D01*
X0139552Y0165015D01*
X0139649Y0165003D01*
X0139746Y0164995D01*
X0139844Y0164991D01*
X0139942Y0164991D01*
X0140040Y0164995D01*
X0140137Y0165003D01*
X0140234Y0165015D01*
X0140331Y0165030D01*
X0140427Y0165050D01*
X0140522Y0165073D01*
X0140616Y0165100D01*
X0140709Y0165130D01*
X0140801Y0165165D01*
X0140891Y0165202D01*
X0140980Y0165244D01*
X0141067Y0165289D01*
X0141152Y0165337D01*
X0141235Y0165389D01*
X0141316Y0165444D01*
X0141394Y0165502D01*
X0141471Y0165563D01*
X0141545Y0165627D01*
X0141616Y0165695D01*
X0141684Y0165764D01*
X0141750Y0165837D01*
X0141813Y0165912D01*
X0141872Y0165990D01*
X0141929Y0166070D01*
X0141982Y0166152D01*
X0142032Y0166236D01*
X0142079Y0166322D01*
X0142122Y0166409D01*
X0142162Y0166499D01*
X0142198Y0166590D01*
X0142231Y0166682D01*
X0142259Y0166776D01*
X0142284Y0166870D01*
X0142306Y0166966D01*
X0142323Y0167062D01*
X0142337Y0167159D01*
X0142346Y0167256D01*
X0142352Y0167354D01*
X0142354Y0167452D01*
X0142353Y0167452D02*
X0142353Y0191074D01*
X0142354Y0191074D02*
X0142352Y0191172D01*
X0142346Y0191270D01*
X0142337Y0191367D01*
X0142323Y0191464D01*
X0142306Y0191560D01*
X0142284Y0191656D01*
X0142259Y0191750D01*
X0142231Y0191844D01*
X0142198Y0191936D01*
X0142162Y0192027D01*
X0142122Y0192117D01*
X0142079Y0192204D01*
X0142032Y0192290D01*
X0141982Y0192374D01*
X0141929Y0192456D01*
X0141872Y0192536D01*
X0141813Y0192614D01*
X0141750Y0192689D01*
X0141684Y0192762D01*
X0141616Y0192831D01*
X0141545Y0192899D01*
X0141471Y0192963D01*
X0141394Y0193024D01*
X0141316Y0193082D01*
X0141235Y0193137D01*
X0141152Y0193189D01*
X0141067Y0193237D01*
X0140980Y0193282D01*
X0140891Y0193324D01*
X0140801Y0193361D01*
X0140709Y0193396D01*
X0140616Y0193426D01*
X0140522Y0193453D01*
X0140427Y0193476D01*
X0140331Y0193496D01*
X0140234Y0193511D01*
X0140137Y0193523D01*
X0140040Y0193531D01*
X0139942Y0193535D01*
X0139844Y0193535D01*
X0139746Y0193531D01*
X0139649Y0193523D01*
X0139552Y0193511D01*
X0139455Y0193496D01*
X0139359Y0193476D01*
X0139264Y0193453D01*
X0139170Y0193426D01*
X0139077Y0193396D01*
X0138985Y0193361D01*
X0138895Y0193324D01*
X0138806Y0193282D01*
X0138719Y0193237D01*
X0138634Y0193189D01*
X0138551Y0193137D01*
X0138470Y0193082D01*
X0138392Y0193024D01*
X0138315Y0192963D01*
X0138241Y0192899D01*
X0138170Y0192831D01*
X0138102Y0192762D01*
X0138036Y0192689D01*
X0137973Y0192614D01*
X0137914Y0192536D01*
X0137857Y0192456D01*
X0137804Y0192374D01*
X0137754Y0192290D01*
X0137707Y0192204D01*
X0137664Y0192117D01*
X0137624Y0192027D01*
X0137588Y0191936D01*
X0137555Y0191844D01*
X0137527Y0191750D01*
X0137502Y0191656D01*
X0137480Y0191560D01*
X0137463Y0191464D01*
X0137449Y0191367D01*
X0137440Y0191270D01*
X0137434Y0191172D01*
X0137432Y0191074D01*
X0139893Y0191074D02*
X0139893Y0167452D01*
X0181232Y0123161D02*
X0182589Y0123225D01*
X0183944Y0123321D01*
X0185296Y0123451D01*
X0186645Y0123614D01*
X0187990Y0123809D01*
X0189330Y0124036D01*
X0190663Y0124296D01*
X0191990Y0124588D01*
X0193310Y0124912D01*
X0194621Y0125268D01*
X0195923Y0125655D01*
X0197216Y0126074D01*
X0198498Y0126524D01*
X0199769Y0127005D01*
X0201027Y0127517D01*
X0202273Y0128059D01*
X0203506Y0128630D01*
X0204724Y0129232D01*
X0205927Y0129863D01*
X0207115Y0130523D01*
X0208287Y0131211D01*
X0209441Y0131927D01*
X0210578Y0132672D01*
X0211696Y0133443D01*
X0212796Y0134242D01*
X0213875Y0135066D01*
X0214935Y0135917D01*
X0215973Y0136793D01*
X0216991Y0137694D01*
X0217986Y0138619D01*
X0218958Y0139568D01*
X0219907Y0140540D01*
X0220832Y0141535D01*
X0221733Y0142553D01*
X0222609Y0143591D01*
X0223460Y0144651D01*
X0224284Y0145730D01*
X0225083Y0146830D01*
X0225854Y0147948D01*
X0226599Y0149085D01*
X0227315Y0150239D01*
X0228003Y0151411D01*
X0228663Y0152599D01*
X0229294Y0153802D01*
X0229896Y0155020D01*
X0230467Y0156253D01*
X0231009Y0157499D01*
X0231521Y0158757D01*
X0232002Y0160028D01*
X0232452Y0161310D01*
X0232871Y0162603D01*
X0233258Y0163905D01*
X0233614Y0165216D01*
X0233938Y0166536D01*
X0234230Y0167863D01*
X0234490Y0169196D01*
X0234717Y0170536D01*
X0234912Y0171881D01*
X0235075Y0173230D01*
X0235205Y0174582D01*
X0235301Y0175937D01*
X0235365Y0177294D01*
X0285562Y0216172D02*
X0309184Y0216172D01*
X0309282Y0216174D01*
X0309380Y0216180D01*
X0309477Y0216189D01*
X0309574Y0216203D01*
X0309670Y0216220D01*
X0309766Y0216242D01*
X0309860Y0216267D01*
X0309954Y0216295D01*
X0310046Y0216328D01*
X0310137Y0216364D01*
X0310227Y0216404D01*
X0310314Y0216447D01*
X0310400Y0216494D01*
X0310484Y0216544D01*
X0310566Y0216597D01*
X0310646Y0216654D01*
X0310724Y0216713D01*
X0310799Y0216776D01*
X0310872Y0216842D01*
X0310941Y0216910D01*
X0311009Y0216981D01*
X0311073Y0217055D01*
X0311134Y0217132D01*
X0311192Y0217210D01*
X0311247Y0217291D01*
X0311299Y0217374D01*
X0311347Y0217459D01*
X0311392Y0217546D01*
X0311434Y0217635D01*
X0311471Y0217725D01*
X0311506Y0217817D01*
X0311536Y0217910D01*
X0311563Y0218004D01*
X0311586Y0218099D01*
X0311606Y0218195D01*
X0311621Y0218292D01*
X0311633Y0218389D01*
X0311641Y0218486D01*
X0311645Y0218584D01*
X0311645Y0218682D01*
X0311641Y0218780D01*
X0311633Y0218877D01*
X0311621Y0218974D01*
X0311606Y0219071D01*
X0311586Y0219167D01*
X0311563Y0219262D01*
X0311536Y0219356D01*
X0311506Y0219449D01*
X0311471Y0219541D01*
X0311434Y0219631D01*
X0311392Y0219720D01*
X0311347Y0219807D01*
X0311299Y0219892D01*
X0311247Y0219975D01*
X0311192Y0220056D01*
X0311134Y0220134D01*
X0311073Y0220211D01*
X0311009Y0220285D01*
X0310941Y0220356D01*
X0310872Y0220424D01*
X0310799Y0220490D01*
X0310724Y0220553D01*
X0310646Y0220612D01*
X0310566Y0220669D01*
X0310484Y0220722D01*
X0310400Y0220772D01*
X0310314Y0220819D01*
X0310227Y0220862D01*
X0310137Y0220902D01*
X0310046Y0220938D01*
X0309954Y0220971D01*
X0309860Y0220999D01*
X0309766Y0221024D01*
X0309670Y0221046D01*
X0309574Y0221063D01*
X0309477Y0221077D01*
X0309380Y0221086D01*
X0309282Y0221092D01*
X0309184Y0221094D01*
X0309184Y0221093D02*
X0285562Y0221093D01*
X0285562Y0221094D02*
X0285464Y0221092D01*
X0285366Y0221086D01*
X0285269Y0221077D01*
X0285172Y0221063D01*
X0285076Y0221046D01*
X0284980Y0221024D01*
X0284886Y0220999D01*
X0284792Y0220971D01*
X0284700Y0220938D01*
X0284609Y0220902D01*
X0284519Y0220862D01*
X0284432Y0220819D01*
X0284346Y0220772D01*
X0284262Y0220722D01*
X0284180Y0220669D01*
X0284100Y0220612D01*
X0284022Y0220553D01*
X0283947Y0220490D01*
X0283874Y0220424D01*
X0283805Y0220356D01*
X0283737Y0220285D01*
X0283673Y0220211D01*
X0283612Y0220134D01*
X0283554Y0220056D01*
X0283499Y0219975D01*
X0283447Y0219892D01*
X0283399Y0219807D01*
X0283354Y0219720D01*
X0283312Y0219631D01*
X0283275Y0219541D01*
X0283240Y0219449D01*
X0283210Y0219356D01*
X0283183Y0219262D01*
X0283160Y0219167D01*
X0283140Y0219071D01*
X0283125Y0218974D01*
X0283113Y0218877D01*
X0283105Y0218780D01*
X0283101Y0218682D01*
X0283101Y0218584D01*
X0283105Y0218486D01*
X0283113Y0218389D01*
X0283125Y0218292D01*
X0283140Y0218195D01*
X0283160Y0218099D01*
X0283183Y0218004D01*
X0283210Y0217910D01*
X0283240Y0217817D01*
X0283275Y0217725D01*
X0283312Y0217635D01*
X0283354Y0217546D01*
X0283399Y0217459D01*
X0283447Y0217374D01*
X0283499Y0217291D01*
X0283554Y0217210D01*
X0283612Y0217132D01*
X0283673Y0217055D01*
X0283737Y0216981D01*
X0283805Y0216910D01*
X0283874Y0216842D01*
X0283947Y0216776D01*
X0284022Y0216713D01*
X0284100Y0216654D01*
X0284180Y0216597D01*
X0284262Y0216544D01*
X0284346Y0216494D01*
X0284432Y0216447D01*
X0284519Y0216404D01*
X0284609Y0216364D01*
X0284700Y0216328D01*
X0284792Y0216295D01*
X0284886Y0216267D01*
X0284980Y0216242D01*
X0285076Y0216220D01*
X0285172Y0216203D01*
X0285269Y0216189D01*
X0285366Y0216180D01*
X0285464Y0216174D01*
X0285562Y0216172D01*
X0285562Y0218633D02*
X0309184Y0218633D01*
X0299341Y0235365D02*
X0299341Y0241270D01*
X0295404Y0241270D02*
X0295404Y0235365D01*
X0260463Y0285562D02*
X0260463Y0309184D01*
X0260464Y0309184D02*
X0260462Y0309282D01*
X0260456Y0309380D01*
X0260447Y0309477D01*
X0260433Y0309574D01*
X0260416Y0309670D01*
X0260394Y0309766D01*
X0260369Y0309860D01*
X0260341Y0309954D01*
X0260308Y0310046D01*
X0260272Y0310137D01*
X0260232Y0310227D01*
X0260189Y0310314D01*
X0260142Y0310400D01*
X0260092Y0310484D01*
X0260039Y0310566D01*
X0259982Y0310646D01*
X0259923Y0310724D01*
X0259860Y0310799D01*
X0259794Y0310872D01*
X0259726Y0310941D01*
X0259655Y0311009D01*
X0259581Y0311073D01*
X0259504Y0311134D01*
X0259426Y0311192D01*
X0259345Y0311247D01*
X0259262Y0311299D01*
X0259177Y0311347D01*
X0259090Y0311392D01*
X0259001Y0311434D01*
X0258911Y0311471D01*
X0258819Y0311506D01*
X0258726Y0311536D01*
X0258632Y0311563D01*
X0258537Y0311586D01*
X0258441Y0311606D01*
X0258344Y0311621D01*
X0258247Y0311633D01*
X0258150Y0311641D01*
X0258052Y0311645D01*
X0257954Y0311645D01*
X0257856Y0311641D01*
X0257759Y0311633D01*
X0257662Y0311621D01*
X0257565Y0311606D01*
X0257469Y0311586D01*
X0257374Y0311563D01*
X0257280Y0311536D01*
X0257187Y0311506D01*
X0257095Y0311471D01*
X0257005Y0311434D01*
X0256916Y0311392D01*
X0256829Y0311347D01*
X0256744Y0311299D01*
X0256661Y0311247D01*
X0256580Y0311192D01*
X0256502Y0311134D01*
X0256425Y0311073D01*
X0256351Y0311009D01*
X0256280Y0310941D01*
X0256212Y0310872D01*
X0256146Y0310799D01*
X0256083Y0310724D01*
X0256024Y0310646D01*
X0255967Y0310566D01*
X0255914Y0310484D01*
X0255864Y0310400D01*
X0255817Y0310314D01*
X0255774Y0310227D01*
X0255734Y0310137D01*
X0255698Y0310046D01*
X0255665Y0309954D01*
X0255637Y0309860D01*
X0255612Y0309766D01*
X0255590Y0309670D01*
X0255573Y0309574D01*
X0255559Y0309477D01*
X0255550Y0309380D01*
X0255544Y0309282D01*
X0255542Y0309184D01*
X0255542Y0285562D01*
X0255544Y0285464D01*
X0255550Y0285366D01*
X0255559Y0285269D01*
X0255573Y0285172D01*
X0255590Y0285076D01*
X0255612Y0284980D01*
X0255637Y0284886D01*
X0255665Y0284792D01*
X0255698Y0284700D01*
X0255734Y0284609D01*
X0255774Y0284519D01*
X0255817Y0284432D01*
X0255864Y0284346D01*
X0255914Y0284262D01*
X0255967Y0284180D01*
X0256024Y0284100D01*
X0256083Y0284022D01*
X0256146Y0283947D01*
X0256212Y0283874D01*
X0256280Y0283805D01*
X0256351Y0283737D01*
X0256425Y0283673D01*
X0256502Y0283612D01*
X0256580Y0283554D01*
X0256661Y0283499D01*
X0256744Y0283447D01*
X0256829Y0283399D01*
X0256916Y0283354D01*
X0257005Y0283312D01*
X0257095Y0283275D01*
X0257187Y0283240D01*
X0257280Y0283210D01*
X0257374Y0283183D01*
X0257469Y0283160D01*
X0257565Y0283140D01*
X0257662Y0283125D01*
X0257759Y0283113D01*
X0257856Y0283105D01*
X0257954Y0283101D01*
X0258052Y0283101D01*
X0258150Y0283105D01*
X0258247Y0283113D01*
X0258344Y0283125D01*
X0258441Y0283140D01*
X0258537Y0283160D01*
X0258632Y0283183D01*
X0258726Y0283210D01*
X0258819Y0283240D01*
X0258911Y0283275D01*
X0259001Y0283312D01*
X0259090Y0283354D01*
X0259177Y0283399D01*
X0259262Y0283447D01*
X0259345Y0283499D01*
X0259426Y0283554D01*
X0259504Y0283612D01*
X0259581Y0283673D01*
X0259655Y0283737D01*
X0259726Y0283805D01*
X0259794Y0283874D01*
X0259860Y0283947D01*
X0259923Y0284022D01*
X0259982Y0284100D01*
X0260039Y0284180D01*
X0260092Y0284262D01*
X0260142Y0284346D01*
X0260189Y0284432D01*
X0260232Y0284519D01*
X0260272Y0284609D01*
X0260308Y0284700D01*
X0260341Y0284792D01*
X0260369Y0284886D01*
X0260394Y0284980D01*
X0260416Y0285076D01*
X0260433Y0285172D01*
X0260447Y0285269D01*
X0260456Y0285366D01*
X0260462Y0285464D01*
X0260464Y0285562D01*
X0258003Y0285562D02*
X0258003Y0309184D01*
X0241270Y0299341D02*
X0235365Y0299341D01*
X0241270Y0299341D01*
X0241270Y0295404D02*
X0235365Y0295404D01*
X0241270Y0295404D01*
X0221093Y0285562D02*
X0221093Y0309184D01*
X0221094Y0309184D02*
X0221092Y0309282D01*
X0221086Y0309380D01*
X0221077Y0309477D01*
X0221063Y0309574D01*
X0221046Y0309670D01*
X0221024Y0309766D01*
X0220999Y0309860D01*
X0220971Y0309954D01*
X0220938Y0310046D01*
X0220902Y0310137D01*
X0220862Y0310227D01*
X0220819Y0310314D01*
X0220772Y0310400D01*
X0220722Y0310484D01*
X0220669Y0310566D01*
X0220612Y0310646D01*
X0220553Y0310724D01*
X0220490Y0310799D01*
X0220424Y0310872D01*
X0220356Y0310941D01*
X0220285Y0311009D01*
X0220211Y0311073D01*
X0220134Y0311134D01*
X0220056Y0311192D01*
X0219975Y0311247D01*
X0219892Y0311299D01*
X0219807Y0311347D01*
X0219720Y0311392D01*
X0219631Y0311434D01*
X0219541Y0311471D01*
X0219449Y0311506D01*
X0219356Y0311536D01*
X0219262Y0311563D01*
X0219167Y0311586D01*
X0219071Y0311606D01*
X0218974Y0311621D01*
X0218877Y0311633D01*
X0218780Y0311641D01*
X0218682Y0311645D01*
X0218584Y0311645D01*
X0218486Y0311641D01*
X0218389Y0311633D01*
X0218292Y0311621D01*
X0218195Y0311606D01*
X0218099Y0311586D01*
X0218004Y0311563D01*
X0217910Y0311536D01*
X0217817Y0311506D01*
X0217725Y0311471D01*
X0217635Y0311434D01*
X0217546Y0311392D01*
X0217459Y0311347D01*
X0217374Y0311299D01*
X0217291Y0311247D01*
X0217210Y0311192D01*
X0217132Y0311134D01*
X0217055Y0311073D01*
X0216981Y0311009D01*
X0216910Y0310941D01*
X0216842Y0310872D01*
X0216776Y0310799D01*
X0216713Y0310724D01*
X0216654Y0310646D01*
X0216597Y0310566D01*
X0216544Y0310484D01*
X0216494Y0310400D01*
X0216447Y0310314D01*
X0216404Y0310227D01*
X0216364Y0310137D01*
X0216328Y0310046D01*
X0216295Y0309954D01*
X0216267Y0309860D01*
X0216242Y0309766D01*
X0216220Y0309670D01*
X0216203Y0309574D01*
X0216189Y0309477D01*
X0216180Y0309380D01*
X0216174Y0309282D01*
X0216172Y0309184D01*
X0216172Y0285562D01*
X0216174Y0285464D01*
X0216180Y0285366D01*
X0216189Y0285269D01*
X0216203Y0285172D01*
X0216220Y0285076D01*
X0216242Y0284980D01*
X0216267Y0284886D01*
X0216295Y0284792D01*
X0216328Y0284700D01*
X0216364Y0284609D01*
X0216404Y0284519D01*
X0216447Y0284432D01*
X0216494Y0284346D01*
X0216544Y0284262D01*
X0216597Y0284180D01*
X0216654Y0284100D01*
X0216713Y0284022D01*
X0216776Y0283947D01*
X0216842Y0283874D01*
X0216910Y0283805D01*
X0216981Y0283737D01*
X0217055Y0283673D01*
X0217132Y0283612D01*
X0217210Y0283554D01*
X0217291Y0283499D01*
X0217374Y0283447D01*
X0217459Y0283399D01*
X0217546Y0283354D01*
X0217635Y0283312D01*
X0217725Y0283275D01*
X0217817Y0283240D01*
X0217910Y0283210D01*
X0218004Y0283183D01*
X0218099Y0283160D01*
X0218195Y0283140D01*
X0218292Y0283125D01*
X0218389Y0283113D01*
X0218486Y0283105D01*
X0218584Y0283101D01*
X0218682Y0283101D01*
X0218780Y0283105D01*
X0218877Y0283113D01*
X0218974Y0283125D01*
X0219071Y0283140D01*
X0219167Y0283160D01*
X0219262Y0283183D01*
X0219356Y0283210D01*
X0219449Y0283240D01*
X0219541Y0283275D01*
X0219631Y0283312D01*
X0219720Y0283354D01*
X0219807Y0283399D01*
X0219892Y0283447D01*
X0219975Y0283499D01*
X0220056Y0283554D01*
X0220134Y0283612D01*
X0220211Y0283673D01*
X0220285Y0283737D01*
X0220356Y0283805D01*
X0220424Y0283874D01*
X0220490Y0283947D01*
X0220553Y0284022D01*
X0220612Y0284100D01*
X0220669Y0284180D01*
X0220722Y0284262D01*
X0220772Y0284346D01*
X0220819Y0284432D01*
X0220862Y0284519D01*
X0220902Y0284609D01*
X0220938Y0284700D01*
X0220971Y0284792D01*
X0220999Y0284886D01*
X0221024Y0284980D01*
X0221046Y0285076D01*
X0221063Y0285172D01*
X0221077Y0285269D01*
X0221086Y0285366D01*
X0221092Y0285464D01*
X0221094Y0285562D01*
X0218633Y0285562D02*
X0218633Y0309184D01*
X0235365Y0299342D02*
X0235301Y0300708D01*
X0235203Y0302073D01*
X0235072Y0303435D01*
X0234907Y0304794D01*
X0234710Y0306148D01*
X0234480Y0307497D01*
X0234216Y0308840D01*
X0233921Y0310176D01*
X0233592Y0311504D01*
X0233232Y0312824D01*
X0232839Y0314135D01*
X0232415Y0315436D01*
X0231959Y0316726D01*
X0231471Y0318005D01*
X0230953Y0319271D01*
X0230404Y0320524D01*
X0229824Y0321764D01*
X0229215Y0322989D01*
X0228575Y0324199D01*
X0227907Y0325393D01*
X0227210Y0326570D01*
X0226484Y0327730D01*
X0225730Y0328872D01*
X0224948Y0329996D01*
X0224139Y0331099D01*
X0223304Y0332183D01*
X0222442Y0333246D01*
X0221555Y0334288D01*
X0220643Y0335308D01*
X0219706Y0336305D01*
X0218745Y0337280D01*
X0217761Y0338230D01*
X0216753Y0339156D01*
X0215724Y0340058D01*
X0214672Y0340934D01*
X0213600Y0341784D01*
X0212508Y0342608D01*
X0211395Y0343404D01*
X0210264Y0344174D01*
X0209114Y0344916D01*
X0207946Y0345629D01*
X0206761Y0346314D01*
X0205560Y0346970D01*
X0204343Y0347596D01*
X0203112Y0348192D01*
X0201866Y0348758D01*
X0200607Y0349294D01*
X0199335Y0349799D01*
X0198051Y0350273D01*
X0196756Y0350715D01*
X0195451Y0351125D01*
X0194136Y0351504D01*
X0192812Y0351850D01*
X0191480Y0352164D01*
X0190141Y0352446D01*
X0188796Y0352695D01*
X0187444Y0352911D01*
X0186088Y0353094D01*
X0184728Y0353243D01*
X0183365Y0353360D01*
X0181999Y0353443D01*
X0180631Y0353493D01*
X0179263Y0353510D01*
X0177895Y0353493D01*
X0176527Y0353443D01*
X0175161Y0353360D01*
X0173798Y0353243D01*
X0172438Y0353094D01*
X0171082Y0352911D01*
X0169730Y0352695D01*
X0168385Y0352446D01*
X0167046Y0352164D01*
X0165714Y0351850D01*
X0164390Y0351504D01*
X0163075Y0351125D01*
X0161770Y0350715D01*
X0160475Y0350273D01*
X0159191Y0349799D01*
X0157919Y0349294D01*
X0156660Y0348758D01*
X0155414Y0348192D01*
X0154183Y0347596D01*
X0152966Y0346970D01*
X0151765Y0346314D01*
X0150580Y0345629D01*
X0149412Y0344916D01*
X0148262Y0344174D01*
X0147131Y0343404D01*
X0146018Y0342608D01*
X0144926Y0341784D01*
X0143854Y0340934D01*
X0142802Y0340058D01*
X0141773Y0339156D01*
X0140765Y0338230D01*
X0139781Y0337280D01*
X0138820Y0336305D01*
X0137883Y0335308D01*
X0136971Y0334288D01*
X0136084Y0333246D01*
X0135222Y0332183D01*
X0134387Y0331099D01*
X0133578Y0329996D01*
X0132796Y0328872D01*
X0132042Y0327730D01*
X0131316Y0326570D01*
X0130619Y0325393D01*
X0129951Y0324199D01*
X0129311Y0322989D01*
X0128702Y0321764D01*
X0128122Y0320524D01*
X0127573Y0319271D01*
X0127055Y0318005D01*
X0126567Y0316726D01*
X0126111Y0315436D01*
X0125687Y0314135D01*
X0125294Y0312824D01*
X0124934Y0311504D01*
X0124605Y0310176D01*
X0124310Y0308840D01*
X0124046Y0307497D01*
X0123816Y0306148D01*
X0123619Y0304794D01*
X0123454Y0303435D01*
X0123323Y0302073D01*
X0123225Y0300708D01*
X0123161Y0299342D01*
X0123160Y0299341D02*
X0117255Y0299341D01*
X0117255Y0295404D02*
X0123160Y0295404D01*
X0137432Y0285562D02*
X0137432Y0309184D01*
X0137434Y0309282D01*
X0137440Y0309380D01*
X0137449Y0309477D01*
X0137463Y0309574D01*
X0137480Y0309670D01*
X0137502Y0309766D01*
X0137527Y0309860D01*
X0137555Y0309954D01*
X0137588Y0310046D01*
X0137624Y0310137D01*
X0137664Y0310227D01*
X0137707Y0310314D01*
X0137754Y0310400D01*
X0137804Y0310484D01*
X0137857Y0310566D01*
X0137914Y0310646D01*
X0137973Y0310724D01*
X0138036Y0310799D01*
X0138102Y0310872D01*
X0138170Y0310941D01*
X0138241Y0311009D01*
X0138315Y0311073D01*
X0138392Y0311134D01*
X0138470Y0311192D01*
X0138551Y0311247D01*
X0138634Y0311299D01*
X0138719Y0311347D01*
X0138806Y0311392D01*
X0138895Y0311434D01*
X0138985Y0311471D01*
X0139077Y0311506D01*
X0139170Y0311536D01*
X0139264Y0311563D01*
X0139359Y0311586D01*
X0139455Y0311606D01*
X0139552Y0311621D01*
X0139649Y0311633D01*
X0139746Y0311641D01*
X0139844Y0311645D01*
X0139942Y0311645D01*
X0140040Y0311641D01*
X0140137Y0311633D01*
X0140234Y0311621D01*
X0140331Y0311606D01*
X0140427Y0311586D01*
X0140522Y0311563D01*
X0140616Y0311536D01*
X0140709Y0311506D01*
X0140801Y0311471D01*
X0140891Y0311434D01*
X0140980Y0311392D01*
X0141067Y0311347D01*
X0141152Y0311299D01*
X0141235Y0311247D01*
X0141316Y0311192D01*
X0141394Y0311134D01*
X0141471Y0311073D01*
X0141545Y0311009D01*
X0141616Y0310941D01*
X0141684Y0310872D01*
X0141750Y0310799D01*
X0141813Y0310724D01*
X0141872Y0310646D01*
X0141929Y0310566D01*
X0141982Y0310484D01*
X0142032Y0310400D01*
X0142079Y0310314D01*
X0142122Y0310227D01*
X0142162Y0310137D01*
X0142198Y0310046D01*
X0142231Y0309954D01*
X0142259Y0309860D01*
X0142284Y0309766D01*
X0142306Y0309670D01*
X0142323Y0309574D01*
X0142337Y0309477D01*
X0142346Y0309380D01*
X0142352Y0309282D01*
X0142354Y0309184D01*
X0142353Y0309184D02*
X0142353Y0285562D01*
X0142354Y0285562D02*
X0142352Y0285464D01*
X0142346Y0285366D01*
X0142337Y0285269D01*
X0142323Y0285172D01*
X0142306Y0285076D01*
X0142284Y0284980D01*
X0142259Y0284886D01*
X0142231Y0284792D01*
X0142198Y0284700D01*
X0142162Y0284609D01*
X0142122Y0284519D01*
X0142079Y0284432D01*
X0142032Y0284346D01*
X0141982Y0284262D01*
X0141929Y0284180D01*
X0141872Y0284100D01*
X0141813Y0284022D01*
X0141750Y0283947D01*
X0141684Y0283874D01*
X0141616Y0283805D01*
X0141545Y0283737D01*
X0141471Y0283673D01*
X0141394Y0283612D01*
X0141316Y0283554D01*
X0141235Y0283499D01*
X0141152Y0283447D01*
X0141067Y0283399D01*
X0140980Y0283354D01*
X0140891Y0283312D01*
X0140801Y0283275D01*
X0140709Y0283240D01*
X0140616Y0283210D01*
X0140522Y0283183D01*
X0140427Y0283160D01*
X0140331Y0283140D01*
X0140234Y0283125D01*
X0140137Y0283113D01*
X0140040Y0283105D01*
X0139942Y0283101D01*
X0139844Y0283101D01*
X0139746Y0283105D01*
X0139649Y0283113D01*
X0139552Y0283125D01*
X0139455Y0283140D01*
X0139359Y0283160D01*
X0139264Y0283183D01*
X0139170Y0283210D01*
X0139077Y0283240D01*
X0138985Y0283275D01*
X0138895Y0283312D01*
X0138806Y0283354D01*
X0138719Y0283399D01*
X0138634Y0283447D01*
X0138551Y0283499D01*
X0138470Y0283554D01*
X0138392Y0283612D01*
X0138315Y0283673D01*
X0138241Y0283737D01*
X0138170Y0283805D01*
X0138102Y0283874D01*
X0138036Y0283947D01*
X0137973Y0284022D01*
X0137914Y0284100D01*
X0137857Y0284180D01*
X0137804Y0284262D01*
X0137754Y0284346D01*
X0137707Y0284432D01*
X0137664Y0284519D01*
X0137624Y0284609D01*
X0137588Y0284700D01*
X0137555Y0284792D01*
X0137527Y0284886D01*
X0137502Y0284980D01*
X0137480Y0285076D01*
X0137463Y0285172D01*
X0137449Y0285269D01*
X0137440Y0285366D01*
X0137434Y0285464D01*
X0137432Y0285562D01*
X0139893Y0285562D02*
X0139893Y0309184D01*
X0181232Y0241271D02*
X0182589Y0241335D01*
X0183944Y0241431D01*
X0185296Y0241561D01*
X0186645Y0241724D01*
X0187990Y0241919D01*
X0189330Y0242146D01*
X0190663Y0242406D01*
X0191990Y0242698D01*
X0193310Y0243022D01*
X0194621Y0243378D01*
X0195923Y0243765D01*
X0197216Y0244184D01*
X0198498Y0244634D01*
X0199769Y0245115D01*
X0201027Y0245627D01*
X0202273Y0246169D01*
X0203506Y0246740D01*
X0204724Y0247342D01*
X0205927Y0247973D01*
X0207115Y0248633D01*
X0208287Y0249321D01*
X0209441Y0250037D01*
X0210578Y0250782D01*
X0211696Y0251553D01*
X0212796Y0252352D01*
X0213875Y0253176D01*
X0214935Y0254027D01*
X0215973Y0254903D01*
X0216991Y0255804D01*
X0217986Y0256729D01*
X0218958Y0257678D01*
X0219907Y0258650D01*
X0220832Y0259645D01*
X0221733Y0260663D01*
X0222609Y0261701D01*
X0223460Y0262761D01*
X0224284Y0263840D01*
X0225083Y0264940D01*
X0225854Y0266058D01*
X0226599Y0267195D01*
X0227315Y0268349D01*
X0228003Y0269521D01*
X0228663Y0270709D01*
X0229294Y0271912D01*
X0229896Y0273130D01*
X0230467Y0274363D01*
X0231009Y0275609D01*
X0231521Y0276867D01*
X0232002Y0278138D01*
X0232452Y0279420D01*
X0232871Y0280713D01*
X0233258Y0282015D01*
X0233614Y0283326D01*
X0233938Y0284646D01*
X0234230Y0285973D01*
X0234490Y0287306D01*
X0234717Y0288646D01*
X0234912Y0289991D01*
X0235075Y0291340D01*
X0235205Y0292692D01*
X0235301Y0294047D01*
X0235365Y0295404D01*
X0177294Y0241271D02*
X0175937Y0241335D01*
X0174582Y0241431D01*
X0173230Y0241561D01*
X0171881Y0241724D01*
X0170536Y0241919D01*
X0169196Y0242146D01*
X0167863Y0242406D01*
X0166536Y0242698D01*
X0165216Y0243022D01*
X0163905Y0243378D01*
X0162603Y0243765D01*
X0161310Y0244184D01*
X0160028Y0244634D01*
X0158757Y0245115D01*
X0157499Y0245627D01*
X0156253Y0246169D01*
X0155020Y0246740D01*
X0153802Y0247342D01*
X0152599Y0247973D01*
X0151411Y0248633D01*
X0150239Y0249321D01*
X0149085Y0250037D01*
X0147948Y0250782D01*
X0146830Y0251553D01*
X0145730Y0252352D01*
X0144651Y0253176D01*
X0143591Y0254027D01*
X0142553Y0254903D01*
X0141535Y0255804D01*
X0140540Y0256729D01*
X0139568Y0257678D01*
X0138619Y0258650D01*
X0137694Y0259645D01*
X0136793Y0260663D01*
X0135917Y0261701D01*
X0135066Y0262761D01*
X0134242Y0263840D01*
X0133443Y0264940D01*
X0132672Y0266058D01*
X0131927Y0267195D01*
X0131211Y0268349D01*
X0130523Y0269521D01*
X0129863Y0270709D01*
X0129232Y0271912D01*
X0128630Y0273130D01*
X0128059Y0274363D01*
X0127517Y0275609D01*
X0127005Y0276867D01*
X0126524Y0278138D01*
X0126074Y0279420D01*
X0125655Y0280713D01*
X0125268Y0282015D01*
X0124912Y0283326D01*
X0124588Y0284646D01*
X0124296Y0285973D01*
X0124036Y0287306D01*
X0123809Y0288646D01*
X0123614Y0289991D01*
X0123451Y0291340D01*
X0123321Y0292692D01*
X0123225Y0294047D01*
X0123161Y0295404D01*
X0072963Y0260463D02*
X0049341Y0260463D01*
X0049341Y0260464D02*
X0049243Y0260462D01*
X0049145Y0260456D01*
X0049048Y0260447D01*
X0048951Y0260433D01*
X0048855Y0260416D01*
X0048759Y0260394D01*
X0048665Y0260369D01*
X0048571Y0260341D01*
X0048479Y0260308D01*
X0048388Y0260272D01*
X0048298Y0260232D01*
X0048211Y0260189D01*
X0048125Y0260142D01*
X0048041Y0260092D01*
X0047959Y0260039D01*
X0047879Y0259982D01*
X0047801Y0259923D01*
X0047726Y0259860D01*
X0047653Y0259794D01*
X0047584Y0259726D01*
X0047516Y0259655D01*
X0047452Y0259581D01*
X0047391Y0259504D01*
X0047333Y0259426D01*
X0047278Y0259345D01*
X0047226Y0259262D01*
X0047178Y0259177D01*
X0047133Y0259090D01*
X0047091Y0259001D01*
X0047054Y0258911D01*
X0047019Y0258819D01*
X0046989Y0258726D01*
X0046962Y0258632D01*
X0046939Y0258537D01*
X0046919Y0258441D01*
X0046904Y0258344D01*
X0046892Y0258247D01*
X0046884Y0258150D01*
X0046880Y0258052D01*
X0046880Y0257954D01*
X0046884Y0257856D01*
X0046892Y0257759D01*
X0046904Y0257662D01*
X0046919Y0257565D01*
X0046939Y0257469D01*
X0046962Y0257374D01*
X0046989Y0257280D01*
X0047019Y0257187D01*
X0047054Y0257095D01*
X0047091Y0257005D01*
X0047133Y0256916D01*
X0047178Y0256829D01*
X0047226Y0256744D01*
X0047278Y0256661D01*
X0047333Y0256580D01*
X0047391Y0256502D01*
X0047452Y0256425D01*
X0047516Y0256351D01*
X0047584Y0256280D01*
X0047653Y0256212D01*
X0047726Y0256146D01*
X0047801Y0256083D01*
X0047879Y0256024D01*
X0047959Y0255967D01*
X0048041Y0255914D01*
X0048125Y0255864D01*
X0048211Y0255817D01*
X0048298Y0255774D01*
X0048388Y0255734D01*
X0048479Y0255698D01*
X0048571Y0255665D01*
X0048665Y0255637D01*
X0048759Y0255612D01*
X0048855Y0255590D01*
X0048951Y0255573D01*
X0049048Y0255559D01*
X0049145Y0255550D01*
X0049243Y0255544D01*
X0049341Y0255542D01*
X0072963Y0255542D01*
X0073061Y0255544D01*
X0073159Y0255550D01*
X0073256Y0255559D01*
X0073353Y0255573D01*
X0073449Y0255590D01*
X0073545Y0255612D01*
X0073639Y0255637D01*
X0073733Y0255665D01*
X0073825Y0255698D01*
X0073916Y0255734D01*
X0074006Y0255774D01*
X0074093Y0255817D01*
X0074179Y0255864D01*
X0074263Y0255914D01*
X0074345Y0255967D01*
X0074425Y0256024D01*
X0074503Y0256083D01*
X0074578Y0256146D01*
X0074651Y0256212D01*
X0074720Y0256280D01*
X0074788Y0256351D01*
X0074852Y0256425D01*
X0074913Y0256502D01*
X0074971Y0256580D01*
X0075026Y0256661D01*
X0075078Y0256744D01*
X0075126Y0256829D01*
X0075171Y0256916D01*
X0075213Y0257005D01*
X0075250Y0257095D01*
X0075285Y0257187D01*
X0075315Y0257280D01*
X0075342Y0257374D01*
X0075365Y0257469D01*
X0075385Y0257565D01*
X0075400Y0257662D01*
X0075412Y0257759D01*
X0075420Y0257856D01*
X0075424Y0257954D01*
X0075424Y0258052D01*
X0075420Y0258150D01*
X0075412Y0258247D01*
X0075400Y0258344D01*
X0075385Y0258441D01*
X0075365Y0258537D01*
X0075342Y0258632D01*
X0075315Y0258726D01*
X0075285Y0258819D01*
X0075250Y0258911D01*
X0075213Y0259001D01*
X0075171Y0259090D01*
X0075126Y0259177D01*
X0075078Y0259262D01*
X0075026Y0259345D01*
X0074971Y0259426D01*
X0074913Y0259504D01*
X0074852Y0259581D01*
X0074788Y0259655D01*
X0074720Y0259726D01*
X0074651Y0259794D01*
X0074578Y0259860D01*
X0074503Y0259923D01*
X0074425Y0259982D01*
X0074345Y0260039D01*
X0074263Y0260092D01*
X0074179Y0260142D01*
X0074093Y0260189D01*
X0074006Y0260232D01*
X0073916Y0260272D01*
X0073825Y0260308D01*
X0073733Y0260341D01*
X0073639Y0260369D01*
X0073545Y0260394D01*
X0073449Y0260416D01*
X0073353Y0260433D01*
X0073256Y0260447D01*
X0073159Y0260456D01*
X0073061Y0260462D01*
X0072963Y0260464D01*
X0072963Y0258003D02*
X0049341Y0258003D01*
X0059184Y0241270D02*
X0059184Y0235365D01*
X0059184Y0241270D01*
X0063121Y0241270D02*
X0063121Y0235365D01*
X0063121Y0241270D01*
X0072963Y0221093D02*
X0049341Y0221093D01*
X0049341Y0221094D02*
X0049243Y0221092D01*
X0049145Y0221086D01*
X0049048Y0221077D01*
X0048951Y0221063D01*
X0048855Y0221046D01*
X0048759Y0221024D01*
X0048665Y0220999D01*
X0048571Y0220971D01*
X0048479Y0220938D01*
X0048388Y0220902D01*
X0048298Y0220862D01*
X0048211Y0220819D01*
X0048125Y0220772D01*
X0048041Y0220722D01*
X0047959Y0220669D01*
X0047879Y0220612D01*
X0047801Y0220553D01*
X0047726Y0220490D01*
X0047653Y0220424D01*
X0047584Y0220356D01*
X0047516Y0220285D01*
X0047452Y0220211D01*
X0047391Y0220134D01*
X0047333Y0220056D01*
X0047278Y0219975D01*
X0047226Y0219892D01*
X0047178Y0219807D01*
X0047133Y0219720D01*
X0047091Y0219631D01*
X0047054Y0219541D01*
X0047019Y0219449D01*
X0046989Y0219356D01*
X0046962Y0219262D01*
X0046939Y0219167D01*
X0046919Y0219071D01*
X0046904Y0218974D01*
X0046892Y0218877D01*
X0046884Y0218780D01*
X0046880Y0218682D01*
X0046880Y0218584D01*
X0046884Y0218486D01*
X0046892Y0218389D01*
X0046904Y0218292D01*
X0046919Y0218195D01*
X0046939Y0218099D01*
X0046962Y0218004D01*
X0046989Y0217910D01*
X0047019Y0217817D01*
X0047054Y0217725D01*
X0047091Y0217635D01*
X0047133Y0217546D01*
X0047178Y0217459D01*
X0047226Y0217374D01*
X0047278Y0217291D01*
X0047333Y0217210D01*
X0047391Y0217132D01*
X0047452Y0217055D01*
X0047516Y0216981D01*
X0047584Y0216910D01*
X0047653Y0216842D01*
X0047726Y0216776D01*
X0047801Y0216713D01*
X0047879Y0216654D01*
X0047959Y0216597D01*
X0048041Y0216544D01*
X0048125Y0216494D01*
X0048211Y0216447D01*
X0048298Y0216404D01*
X0048388Y0216364D01*
X0048479Y0216328D01*
X0048571Y0216295D01*
X0048665Y0216267D01*
X0048759Y0216242D01*
X0048855Y0216220D01*
X0048951Y0216203D01*
X0049048Y0216189D01*
X0049145Y0216180D01*
X0049243Y0216174D01*
X0049341Y0216172D01*
X0072963Y0216172D01*
X0073061Y0216174D01*
X0073159Y0216180D01*
X0073256Y0216189D01*
X0073353Y0216203D01*
X0073449Y0216220D01*
X0073545Y0216242D01*
X0073639Y0216267D01*
X0073733Y0216295D01*
X0073825Y0216328D01*
X0073916Y0216364D01*
X0074006Y0216404D01*
X0074093Y0216447D01*
X0074179Y0216494D01*
X0074263Y0216544D01*
X0074345Y0216597D01*
X0074425Y0216654D01*
X0074503Y0216713D01*
X0074578Y0216776D01*
X0074651Y0216842D01*
X0074720Y0216910D01*
X0074788Y0216981D01*
X0074852Y0217055D01*
X0074913Y0217132D01*
X0074971Y0217210D01*
X0075026Y0217291D01*
X0075078Y0217374D01*
X0075126Y0217459D01*
X0075171Y0217546D01*
X0075213Y0217635D01*
X0075250Y0217725D01*
X0075285Y0217817D01*
X0075315Y0217910D01*
X0075342Y0218004D01*
X0075365Y0218099D01*
X0075385Y0218195D01*
X0075400Y0218292D01*
X0075412Y0218389D01*
X0075420Y0218486D01*
X0075424Y0218584D01*
X0075424Y0218682D01*
X0075420Y0218780D01*
X0075412Y0218877D01*
X0075400Y0218974D01*
X0075385Y0219071D01*
X0075365Y0219167D01*
X0075342Y0219262D01*
X0075315Y0219356D01*
X0075285Y0219449D01*
X0075250Y0219541D01*
X0075213Y0219631D01*
X0075171Y0219720D01*
X0075126Y0219807D01*
X0075078Y0219892D01*
X0075026Y0219975D01*
X0074971Y0220056D01*
X0074913Y0220134D01*
X0074852Y0220211D01*
X0074788Y0220285D01*
X0074720Y0220356D01*
X0074651Y0220424D01*
X0074578Y0220490D01*
X0074503Y0220553D01*
X0074425Y0220612D01*
X0074345Y0220669D01*
X0074263Y0220722D01*
X0074179Y0220772D01*
X0074093Y0220819D01*
X0074006Y0220862D01*
X0073916Y0220902D01*
X0073825Y0220938D01*
X0073733Y0220971D01*
X0073639Y0220999D01*
X0073545Y0221024D01*
X0073449Y0221046D01*
X0073353Y0221063D01*
X0073256Y0221077D01*
X0073159Y0221086D01*
X0073061Y0221092D01*
X0072963Y0221094D01*
X0072963Y0218633D02*
X0049341Y0218633D01*
X0117254Y0177294D02*
X0117190Y0175937D01*
X0117094Y0174582D01*
X0116964Y0173230D01*
X0116801Y0171881D01*
X0116606Y0170536D01*
X0116379Y0169196D01*
X0116119Y0167863D01*
X0115827Y0166536D01*
X0115503Y0165216D01*
X0115147Y0163905D01*
X0114760Y0162603D01*
X0114341Y0161310D01*
X0113891Y0160028D01*
X0113410Y0158757D01*
X0112898Y0157499D01*
X0112356Y0156253D01*
X0111785Y0155020D01*
X0111183Y0153802D01*
X0110552Y0152599D01*
X0109892Y0151411D01*
X0109204Y0150239D01*
X0108488Y0149085D01*
X0107743Y0147948D01*
X0106972Y0146830D01*
X0106173Y0145730D01*
X0105349Y0144651D01*
X0104498Y0143591D01*
X0103622Y0142553D01*
X0102721Y0141535D01*
X0101796Y0140540D01*
X0100847Y0139568D01*
X0099875Y0138619D01*
X0098880Y0137694D01*
X0097862Y0136793D01*
X0096824Y0135917D01*
X0095764Y0135066D01*
X0094685Y0134242D01*
X0093585Y0133443D01*
X0092467Y0132672D01*
X0091330Y0131927D01*
X0090176Y0131211D01*
X0089004Y0130523D01*
X0087816Y0129863D01*
X0086613Y0129232D01*
X0085395Y0128630D01*
X0084162Y0128059D01*
X0082916Y0127517D01*
X0081658Y0127005D01*
X0080387Y0126524D01*
X0079105Y0126074D01*
X0077812Y0125655D01*
X0076510Y0125268D01*
X0075199Y0124912D01*
X0073879Y0124588D01*
X0072552Y0124296D01*
X0071219Y0124036D01*
X0069879Y0123809D01*
X0068534Y0123614D01*
X0067185Y0123451D01*
X0065833Y0123321D01*
X0064478Y0123225D01*
X0063121Y0123161D01*
X0117254Y0181232D02*
X0117190Y0182589D01*
X0117094Y0183944D01*
X0116964Y0185296D01*
X0116801Y0186645D01*
X0116606Y0187990D01*
X0116379Y0189330D01*
X0116119Y0190663D01*
X0115827Y0191990D01*
X0115503Y0193310D01*
X0115147Y0194621D01*
X0114760Y0195923D01*
X0114341Y0197216D01*
X0113891Y0198498D01*
X0113410Y0199769D01*
X0112898Y0201027D01*
X0112356Y0202273D01*
X0111785Y0203506D01*
X0111183Y0204724D01*
X0110552Y0205927D01*
X0109892Y0207115D01*
X0109204Y0208287D01*
X0108488Y0209441D01*
X0107743Y0210578D01*
X0106972Y0211696D01*
X0106173Y0212796D01*
X0105349Y0213875D01*
X0104498Y0214935D01*
X0103622Y0215973D01*
X0102721Y0216991D01*
X0101796Y0217986D01*
X0100847Y0218958D01*
X0099875Y0219907D01*
X0098880Y0220832D01*
X0097862Y0221733D01*
X0096824Y0222609D01*
X0095764Y0223460D01*
X0094685Y0224284D01*
X0093585Y0225083D01*
X0092467Y0225854D01*
X0091330Y0226599D01*
X0090176Y0227315D01*
X0089004Y0228003D01*
X0087816Y0228663D01*
X0086613Y0229294D01*
X0085395Y0229896D01*
X0084162Y0230467D01*
X0082916Y0231009D01*
X0081658Y0231521D01*
X0080387Y0232002D01*
X0079105Y0232452D01*
X0077812Y0232871D01*
X0076510Y0233258D01*
X0075199Y0233614D01*
X0073879Y0233938D01*
X0072552Y0234230D01*
X0071219Y0234490D01*
X0069879Y0234717D01*
X0068534Y0234912D01*
X0067185Y0235075D01*
X0065833Y0235205D01*
X0064478Y0235301D01*
X0063121Y0235365D01*
X0059183Y0235365D02*
X0057817Y0235301D01*
X0056452Y0235203D01*
X0055090Y0235072D01*
X0053731Y0234907D01*
X0052377Y0234710D01*
X0051028Y0234480D01*
X0049685Y0234216D01*
X0048349Y0233921D01*
X0047021Y0233592D01*
X0045701Y0233232D01*
X0044390Y0232839D01*
X0043089Y0232415D01*
X0041799Y0231959D01*
X0040520Y0231471D01*
X0039254Y0230953D01*
X0038001Y0230404D01*
X0036761Y0229824D01*
X0035536Y0229215D01*
X0034326Y0228575D01*
X0033132Y0227907D01*
X0031955Y0227210D01*
X0030795Y0226484D01*
X0029653Y0225730D01*
X0028529Y0224948D01*
X0027426Y0224139D01*
X0026342Y0223304D01*
X0025279Y0222442D01*
X0024237Y0221555D01*
X0023217Y0220643D01*
X0022220Y0219706D01*
X0021245Y0218745D01*
X0020295Y0217761D01*
X0019369Y0216753D01*
X0018467Y0215724D01*
X0017591Y0214672D01*
X0016741Y0213600D01*
X0015917Y0212508D01*
X0015121Y0211395D01*
X0014351Y0210264D01*
X0013609Y0209114D01*
X0012896Y0207946D01*
X0012211Y0206761D01*
X0011555Y0205560D01*
X0010929Y0204343D01*
X0010333Y0203112D01*
X0009767Y0201866D01*
X0009231Y0200607D01*
X0008726Y0199335D01*
X0008252Y0198051D01*
X0007810Y0196756D01*
X0007400Y0195451D01*
X0007021Y0194136D01*
X0006675Y0192812D01*
X0006361Y0191480D01*
X0006079Y0190141D01*
X0005830Y0188796D01*
X0005614Y0187444D01*
X0005431Y0186088D01*
X0005282Y0184728D01*
X0005165Y0183365D01*
X0005082Y0181999D01*
X0005032Y0180631D01*
X0005015Y0179263D01*
X0005032Y0177895D01*
X0005082Y0176527D01*
X0005165Y0175161D01*
X0005282Y0173798D01*
X0005431Y0172438D01*
X0005614Y0171082D01*
X0005830Y0169730D01*
X0006079Y0168385D01*
X0006361Y0167046D01*
X0006675Y0165714D01*
X0007021Y0164390D01*
X0007400Y0163075D01*
X0007810Y0161770D01*
X0008252Y0160475D01*
X0008726Y0159191D01*
X0009231Y0157919D01*
X0009767Y0156660D01*
X0010333Y0155414D01*
X0010929Y0154183D01*
X0011555Y0152966D01*
X0012211Y0151765D01*
X0012896Y0150580D01*
X0013609Y0149412D01*
X0014351Y0148262D01*
X0015121Y0147131D01*
X0015917Y0146018D01*
X0016741Y0144926D01*
X0017591Y0143854D01*
X0018467Y0142802D01*
X0019369Y0141773D01*
X0020295Y0140765D01*
X0021245Y0139781D01*
X0022220Y0138820D01*
X0023217Y0137883D01*
X0024237Y0136971D01*
X0025279Y0136084D01*
X0026342Y0135222D01*
X0027426Y0134387D01*
X0028529Y0133578D01*
X0029653Y0132796D01*
X0030795Y0132042D01*
X0031955Y0131316D01*
X0033132Y0130619D01*
X0034326Y0129951D01*
X0035536Y0129311D01*
X0036761Y0128702D01*
X0038001Y0128122D01*
X0039254Y0127573D01*
X0040520Y0127055D01*
X0041799Y0126567D01*
X0043089Y0126111D01*
X0044390Y0125687D01*
X0045701Y0125294D01*
X0047021Y0124934D01*
X0048349Y0124605D01*
X0049685Y0124310D01*
X0051028Y0124046D01*
X0052377Y0123816D01*
X0053731Y0123619D01*
X0055090Y0123454D01*
X0056452Y0123323D01*
X0057817Y0123225D01*
X0059183Y0123161D01*
X0029656Y0179263D02*
X0029665Y0180036D01*
X0029694Y0180808D01*
X0029741Y0181580D01*
X0029808Y0182350D01*
X0029893Y0183118D01*
X0029997Y0183884D01*
X0030120Y0184648D01*
X0030261Y0185408D01*
X0030421Y0186164D01*
X0030600Y0186916D01*
X0030797Y0187663D01*
X0031012Y0188406D01*
X0031246Y0189143D01*
X0031497Y0189874D01*
X0031766Y0190598D01*
X0032053Y0191316D01*
X0032358Y0192026D01*
X0032680Y0192729D01*
X0033019Y0193424D01*
X0033375Y0194110D01*
X0033748Y0194787D01*
X0034137Y0195455D01*
X0034542Y0196113D01*
X0034964Y0196761D01*
X0035401Y0197399D01*
X0035854Y0198025D01*
X0036322Y0198640D01*
X0036805Y0199244D01*
X0037303Y0199835D01*
X0037815Y0200414D01*
X0038341Y0200981D01*
X0038881Y0201534D01*
X0039434Y0202074D01*
X0040001Y0202600D01*
X0040580Y0203112D01*
X0041171Y0203610D01*
X0041775Y0204093D01*
X0042390Y0204561D01*
X0043016Y0205014D01*
X0043654Y0205451D01*
X0044302Y0205873D01*
X0044960Y0206278D01*
X0045628Y0206667D01*
X0046305Y0207040D01*
X0046991Y0207396D01*
X0047686Y0207735D01*
X0048389Y0208057D01*
X0049099Y0208362D01*
X0049817Y0208649D01*
X0050541Y0208918D01*
X0051272Y0209169D01*
X0052009Y0209403D01*
X0052752Y0209618D01*
X0053499Y0209815D01*
X0054251Y0209994D01*
X0055007Y0210154D01*
X0055767Y0210295D01*
X0056531Y0210418D01*
X0057297Y0210522D01*
X0058065Y0210607D01*
X0058835Y0210674D01*
X0059607Y0210721D01*
X0060379Y0210750D01*
X0061152Y0210759D01*
X0061925Y0210750D01*
X0062697Y0210721D01*
X0063469Y0210674D01*
X0064239Y0210607D01*
X0065007Y0210522D01*
X0065773Y0210418D01*
X0066537Y0210295D01*
X0067297Y0210154D01*
X0068053Y0209994D01*
X0068805Y0209815D01*
X0069552Y0209618D01*
X0070295Y0209403D01*
X0071032Y0209169D01*
X0071763Y0208918D01*
X0072487Y0208649D01*
X0073205Y0208362D01*
X0073915Y0208057D01*
X0074618Y0207735D01*
X0075313Y0207396D01*
X0075999Y0207040D01*
X0076676Y0206667D01*
X0077344Y0206278D01*
X0078002Y0205873D01*
X0078650Y0205451D01*
X0079288Y0205014D01*
X0079914Y0204561D01*
X0080529Y0204093D01*
X0081133Y0203610D01*
X0081724Y0203112D01*
X0082303Y0202600D01*
X0082870Y0202074D01*
X0083423Y0201534D01*
X0083963Y0200981D01*
X0084489Y0200414D01*
X0085001Y0199835D01*
X0085499Y0199244D01*
X0085982Y0198640D01*
X0086450Y0198025D01*
X0086903Y0197399D01*
X0087340Y0196761D01*
X0087762Y0196113D01*
X0088167Y0195455D01*
X0088556Y0194787D01*
X0088929Y0194110D01*
X0089285Y0193424D01*
X0089624Y0192729D01*
X0089946Y0192026D01*
X0090251Y0191316D01*
X0090538Y0190598D01*
X0090807Y0189874D01*
X0091058Y0189143D01*
X0091292Y0188406D01*
X0091507Y0187663D01*
X0091704Y0186916D01*
X0091883Y0186164D01*
X0092043Y0185408D01*
X0092184Y0184648D01*
X0092307Y0183884D01*
X0092411Y0183118D01*
X0092496Y0182350D01*
X0092563Y0181580D01*
X0092610Y0180808D01*
X0092639Y0180036D01*
X0092648Y0179263D01*
X0092639Y0178490D01*
X0092610Y0177718D01*
X0092563Y0176946D01*
X0092496Y0176176D01*
X0092411Y0175408D01*
X0092307Y0174642D01*
X0092184Y0173878D01*
X0092043Y0173118D01*
X0091883Y0172362D01*
X0091704Y0171610D01*
X0091507Y0170863D01*
X0091292Y0170120D01*
X0091058Y0169383D01*
X0090807Y0168652D01*
X0090538Y0167928D01*
X0090251Y0167210D01*
X0089946Y0166500D01*
X0089624Y0165797D01*
X0089285Y0165102D01*
X0088929Y0164416D01*
X0088556Y0163739D01*
X0088167Y0163071D01*
X0087762Y0162413D01*
X0087340Y0161765D01*
X0086903Y0161127D01*
X0086450Y0160501D01*
X0085982Y0159886D01*
X0085499Y0159282D01*
X0085001Y0158691D01*
X0084489Y0158112D01*
X0083963Y0157545D01*
X0083423Y0156992D01*
X0082870Y0156452D01*
X0082303Y0155926D01*
X0081724Y0155414D01*
X0081133Y0154916D01*
X0080529Y0154433D01*
X0079914Y0153965D01*
X0079288Y0153512D01*
X0078650Y0153075D01*
X0078002Y0152653D01*
X0077344Y0152248D01*
X0076676Y0151859D01*
X0075999Y0151486D01*
X0075313Y0151130D01*
X0074618Y0150791D01*
X0073915Y0150469D01*
X0073205Y0150164D01*
X0072487Y0149877D01*
X0071763Y0149608D01*
X0071032Y0149357D01*
X0070295Y0149123D01*
X0069552Y0148908D01*
X0068805Y0148711D01*
X0068053Y0148532D01*
X0067297Y0148372D01*
X0066537Y0148231D01*
X0065773Y0148108D01*
X0065007Y0148004D01*
X0064239Y0147919D01*
X0063469Y0147852D01*
X0062697Y0147805D01*
X0061925Y0147776D01*
X0061152Y0147767D01*
X0060379Y0147776D01*
X0059607Y0147805D01*
X0058835Y0147852D01*
X0058065Y0147919D01*
X0057297Y0148004D01*
X0056531Y0148108D01*
X0055767Y0148231D01*
X0055007Y0148372D01*
X0054251Y0148532D01*
X0053499Y0148711D01*
X0052752Y0148908D01*
X0052009Y0149123D01*
X0051272Y0149357D01*
X0050541Y0149608D01*
X0049817Y0149877D01*
X0049099Y0150164D01*
X0048389Y0150469D01*
X0047686Y0150791D01*
X0046991Y0151130D01*
X0046305Y0151486D01*
X0045628Y0151859D01*
X0044960Y0152248D01*
X0044302Y0152653D01*
X0043654Y0153075D01*
X0043016Y0153512D01*
X0042390Y0153965D01*
X0041775Y0154433D01*
X0041171Y0154916D01*
X0040580Y0155414D01*
X0040001Y0155926D01*
X0039434Y0156452D01*
X0038881Y0156992D01*
X0038341Y0157545D01*
X0037815Y0158112D01*
X0037303Y0158691D01*
X0036805Y0159282D01*
X0036322Y0159886D01*
X0035854Y0160501D01*
X0035401Y0161127D01*
X0034964Y0161765D01*
X0034542Y0162413D01*
X0034137Y0163071D01*
X0033748Y0163739D01*
X0033375Y0164416D01*
X0033019Y0165102D01*
X0032680Y0165797D01*
X0032358Y0166500D01*
X0032053Y0167210D01*
X0031766Y0167928D01*
X0031497Y0168652D01*
X0031246Y0169383D01*
X0031012Y0170120D01*
X0030797Y0170863D01*
X0030600Y0171610D01*
X0030421Y0172362D01*
X0030261Y0173118D01*
X0030120Y0173878D01*
X0029997Y0174642D01*
X0029893Y0175408D01*
X0029808Y0176176D01*
X0029741Y0176946D01*
X0029694Y0177718D01*
X0029665Y0178490D01*
X0029656Y0179263D01*
X0059183Y0241271D02*
X0057813Y0241335D01*
X0056445Y0241434D01*
X0055080Y0241565D01*
X0053719Y0241730D01*
X0052361Y0241929D01*
X0051010Y0242160D01*
X0049664Y0242424D01*
X0048325Y0242721D01*
X0046993Y0243051D01*
X0045670Y0243413D01*
X0044357Y0243807D01*
X0043053Y0244234D01*
X0041760Y0244692D01*
X0040479Y0245181D01*
X0039210Y0245702D01*
X0037954Y0246253D01*
X0036713Y0246835D01*
X0035485Y0247447D01*
X0034273Y0248089D01*
X0033077Y0248761D01*
X0031898Y0249461D01*
X0030736Y0250190D01*
X0029592Y0250947D01*
X0028468Y0251732D01*
X0027362Y0252544D01*
X0026277Y0253383D01*
X0025213Y0254248D01*
X0024170Y0255139D01*
X0023149Y0256055D01*
X0022151Y0256996D01*
X0021177Y0257961D01*
X0020226Y0258949D01*
X0019299Y0259960D01*
X0018398Y0260994D01*
X0017522Y0262049D01*
X0016672Y0263126D01*
X0015848Y0264223D01*
X0015052Y0265339D01*
X0014283Y0266475D01*
X0013542Y0267630D01*
X0012830Y0268802D01*
X0012146Y0269991D01*
X0011492Y0271196D01*
X0010867Y0272417D01*
X0010273Y0273653D01*
X0009708Y0274903D01*
X0009175Y0276167D01*
X0008672Y0277443D01*
X0008201Y0278731D01*
X0007761Y0280030D01*
X0007353Y0281339D01*
X0006978Y0282659D01*
X0006634Y0283986D01*
X0006324Y0285322D01*
X0006046Y0286665D01*
X0005800Y0288015D01*
X0005588Y0289370D01*
X0005409Y0290730D01*
X0005264Y0292094D01*
X0005152Y0293461D01*
X0005073Y0294830D01*
X0005027Y0296201D01*
X0005015Y0297572D01*
X0005037Y0298943D01*
X0005092Y0300314D01*
X0005181Y0301683D01*
X0005303Y0303049D01*
X0005458Y0304411D01*
X0005647Y0305770D01*
X0005868Y0307124D01*
X0006123Y0308471D01*
X0006411Y0309812D01*
X0006731Y0311146D01*
X0007083Y0312471D01*
X0007468Y0313788D01*
X0007886Y0315094D01*
X0008334Y0316390D01*
X0008815Y0317675D01*
X0009326Y0318948D01*
X0009869Y0320207D01*
X0010442Y0321453D01*
X0011045Y0322685D01*
X0011679Y0323902D01*
X0012342Y0325102D01*
X0013034Y0326287D01*
X0013754Y0327453D01*
X0014503Y0328602D01*
X0015280Y0329733D01*
X0016085Y0330844D01*
X0016916Y0331935D01*
X0017773Y0333005D01*
X0018657Y0334054D01*
X0019566Y0335082D01*
X0020499Y0336086D01*
X0021457Y0337068D01*
X0022439Y0338026D01*
X0023443Y0338959D01*
X0024471Y0339868D01*
X0025520Y0340752D01*
X0026590Y0341609D01*
X0027681Y0342440D01*
X0028792Y0343245D01*
X0029923Y0344022D01*
X0031072Y0344771D01*
X0032238Y0345491D01*
X0033423Y0346183D01*
X0034623Y0346846D01*
X0035840Y0347480D01*
X0037072Y0348083D01*
X0038318Y0348656D01*
X0039577Y0349199D01*
X0040850Y0349710D01*
X0042135Y0350191D01*
X0043431Y0350639D01*
X0044737Y0351057D01*
X0046054Y0351442D01*
X0047379Y0351794D01*
X0048713Y0352114D01*
X0050054Y0352402D01*
X0051401Y0352657D01*
X0052755Y0352878D01*
X0054114Y0353067D01*
X0055476Y0353222D01*
X0056842Y0353344D01*
X0058211Y0353433D01*
X0059582Y0353488D01*
X0060953Y0353510D01*
X0062324Y0353498D01*
X0063695Y0353452D01*
X0065064Y0353373D01*
X0066431Y0353261D01*
X0067795Y0353116D01*
X0069155Y0352937D01*
X0070510Y0352725D01*
X0071860Y0352479D01*
X0073203Y0352201D01*
X0074539Y0351891D01*
X0075866Y0351547D01*
X0077186Y0351172D01*
X0078495Y0350764D01*
X0079794Y0350324D01*
X0081082Y0349853D01*
X0082358Y0349350D01*
X0083622Y0348817D01*
X0084872Y0348252D01*
X0086108Y0347658D01*
X0087329Y0347033D01*
X0088534Y0346379D01*
X0089723Y0345695D01*
X0090895Y0344983D01*
X0092050Y0344242D01*
X0093186Y0343473D01*
X0094302Y0342677D01*
X0095399Y0341853D01*
X0096476Y0341003D01*
X0097531Y0340127D01*
X0098565Y0339226D01*
X0099576Y0338299D01*
X0100564Y0337348D01*
X0101529Y0336374D01*
X0102470Y0335376D01*
X0103386Y0334355D01*
X0104277Y0333312D01*
X0105142Y0332248D01*
X0105981Y0331163D01*
X0106793Y0330057D01*
X0107578Y0328933D01*
X0108335Y0327789D01*
X0109064Y0326627D01*
X0109764Y0325448D01*
X0110436Y0324252D01*
X0111078Y0323040D01*
X0111690Y0321812D01*
X0112272Y0320571D01*
X0112823Y0319315D01*
X0113344Y0318046D01*
X0113833Y0316765D01*
X0114291Y0315472D01*
X0114718Y0314168D01*
X0115112Y0312855D01*
X0115474Y0311532D01*
X0115804Y0310200D01*
X0116101Y0308861D01*
X0116365Y0307515D01*
X0116596Y0306164D01*
X0116795Y0304806D01*
X0116960Y0303445D01*
X0117091Y0302080D01*
X0117190Y0300712D01*
X0117254Y0299342D01*
X0072963Y0334282D02*
X0049341Y0334282D01*
X0049243Y0334284D01*
X0049145Y0334290D01*
X0049048Y0334299D01*
X0048951Y0334313D01*
X0048855Y0334330D01*
X0048759Y0334352D01*
X0048665Y0334377D01*
X0048571Y0334405D01*
X0048479Y0334438D01*
X0048388Y0334474D01*
X0048298Y0334514D01*
X0048211Y0334557D01*
X0048125Y0334604D01*
X0048041Y0334654D01*
X0047959Y0334707D01*
X0047879Y0334764D01*
X0047801Y0334823D01*
X0047726Y0334886D01*
X0047653Y0334952D01*
X0047584Y0335020D01*
X0047516Y0335091D01*
X0047452Y0335165D01*
X0047391Y0335242D01*
X0047333Y0335320D01*
X0047278Y0335401D01*
X0047226Y0335484D01*
X0047178Y0335569D01*
X0047133Y0335656D01*
X0047091Y0335745D01*
X0047054Y0335835D01*
X0047019Y0335927D01*
X0046989Y0336020D01*
X0046962Y0336114D01*
X0046939Y0336209D01*
X0046919Y0336305D01*
X0046904Y0336402D01*
X0046892Y0336499D01*
X0046884Y0336596D01*
X0046880Y0336694D01*
X0046880Y0336792D01*
X0046884Y0336890D01*
X0046892Y0336987D01*
X0046904Y0337084D01*
X0046919Y0337181D01*
X0046939Y0337277D01*
X0046962Y0337372D01*
X0046989Y0337466D01*
X0047019Y0337559D01*
X0047054Y0337651D01*
X0047091Y0337741D01*
X0047133Y0337830D01*
X0047178Y0337917D01*
X0047226Y0338002D01*
X0047278Y0338085D01*
X0047333Y0338166D01*
X0047391Y0338244D01*
X0047452Y0338321D01*
X0047516Y0338395D01*
X0047584Y0338466D01*
X0047653Y0338534D01*
X0047726Y0338600D01*
X0047801Y0338663D01*
X0047879Y0338722D01*
X0047959Y0338779D01*
X0048041Y0338832D01*
X0048125Y0338882D01*
X0048211Y0338929D01*
X0048298Y0338972D01*
X0048388Y0339012D01*
X0048479Y0339048D01*
X0048571Y0339081D01*
X0048665Y0339109D01*
X0048759Y0339134D01*
X0048855Y0339156D01*
X0048951Y0339173D01*
X0049048Y0339187D01*
X0049145Y0339196D01*
X0049243Y0339202D01*
X0049341Y0339204D01*
X0072963Y0339204D01*
X0073061Y0339202D01*
X0073159Y0339196D01*
X0073256Y0339187D01*
X0073353Y0339173D01*
X0073449Y0339156D01*
X0073545Y0339134D01*
X0073639Y0339109D01*
X0073733Y0339081D01*
X0073825Y0339048D01*
X0073916Y0339012D01*
X0074006Y0338972D01*
X0074093Y0338929D01*
X0074179Y0338882D01*
X0074263Y0338832D01*
X0074345Y0338779D01*
X0074425Y0338722D01*
X0074503Y0338663D01*
X0074578Y0338600D01*
X0074651Y0338534D01*
X0074720Y0338466D01*
X0074788Y0338395D01*
X0074852Y0338321D01*
X0074913Y0338244D01*
X0074971Y0338166D01*
X0075026Y0338085D01*
X0075078Y0338002D01*
X0075126Y0337917D01*
X0075171Y0337830D01*
X0075213Y0337741D01*
X0075250Y0337651D01*
X0075285Y0337559D01*
X0075315Y0337466D01*
X0075342Y0337372D01*
X0075365Y0337277D01*
X0075385Y0337181D01*
X0075400Y0337084D01*
X0075412Y0336987D01*
X0075420Y0336890D01*
X0075424Y0336792D01*
X0075424Y0336694D01*
X0075420Y0336596D01*
X0075412Y0336499D01*
X0075400Y0336402D01*
X0075385Y0336305D01*
X0075365Y0336209D01*
X0075342Y0336114D01*
X0075315Y0336020D01*
X0075285Y0335927D01*
X0075250Y0335835D01*
X0075213Y0335745D01*
X0075171Y0335656D01*
X0075126Y0335569D01*
X0075078Y0335484D01*
X0075026Y0335401D01*
X0074971Y0335320D01*
X0074913Y0335242D01*
X0074852Y0335165D01*
X0074788Y0335091D01*
X0074720Y0335020D01*
X0074651Y0334952D01*
X0074578Y0334886D01*
X0074503Y0334823D01*
X0074425Y0334764D01*
X0074345Y0334707D01*
X0074263Y0334654D01*
X0074179Y0334604D01*
X0074093Y0334557D01*
X0074006Y0334514D01*
X0073916Y0334474D01*
X0073825Y0334438D01*
X0073733Y0334405D01*
X0073639Y0334377D01*
X0073545Y0334352D01*
X0073449Y0334330D01*
X0073353Y0334313D01*
X0073256Y0334299D01*
X0073159Y0334290D01*
X0073061Y0334284D01*
X0072963Y0334282D01*
X0072963Y0336743D02*
X0049341Y0336743D01*
X0117254Y0295404D02*
X0117190Y0294047D01*
X0117094Y0292692D01*
X0116964Y0291340D01*
X0116801Y0289991D01*
X0116606Y0288646D01*
X0116379Y0287306D01*
X0116119Y0285973D01*
X0115827Y0284646D01*
X0115503Y0283326D01*
X0115147Y0282015D01*
X0114760Y0280713D01*
X0114341Y0279420D01*
X0113891Y0278138D01*
X0113410Y0276867D01*
X0112898Y0275609D01*
X0112356Y0274363D01*
X0111785Y0273130D01*
X0111183Y0271912D01*
X0110552Y0270709D01*
X0109892Y0269521D01*
X0109204Y0268349D01*
X0108488Y0267195D01*
X0107743Y0266058D01*
X0106972Y0264940D01*
X0106173Y0263840D01*
X0105349Y0262761D01*
X0104498Y0261701D01*
X0103622Y0260663D01*
X0102721Y0259645D01*
X0101796Y0258650D01*
X0100847Y0257678D01*
X0099875Y0256729D01*
X0098880Y0255804D01*
X0097862Y0254903D01*
X0096824Y0254027D01*
X0095764Y0253176D01*
X0094685Y0252352D01*
X0093585Y0251553D01*
X0092467Y0250782D01*
X0091330Y0250037D01*
X0090176Y0249321D01*
X0089004Y0248633D01*
X0087816Y0247973D01*
X0086613Y0247342D01*
X0085395Y0246740D01*
X0084162Y0246169D01*
X0082916Y0245627D01*
X0081658Y0245115D01*
X0080387Y0244634D01*
X0079105Y0244184D01*
X0077812Y0243765D01*
X0076510Y0243378D01*
X0075199Y0243022D01*
X0073879Y0242698D01*
X0072552Y0242406D01*
X0071219Y0242146D01*
X0069879Y0241919D01*
X0068534Y0241724D01*
X0067185Y0241561D01*
X0065833Y0241431D01*
X0064478Y0241335D01*
X0063121Y0241271D01*
X0029656Y0297373D02*
X0029665Y0298146D01*
X0029694Y0298918D01*
X0029741Y0299690D01*
X0029808Y0300460D01*
X0029893Y0301228D01*
X0029997Y0301994D01*
X0030120Y0302758D01*
X0030261Y0303518D01*
X0030421Y0304274D01*
X0030600Y0305026D01*
X0030797Y0305773D01*
X0031012Y0306516D01*
X0031246Y0307253D01*
X0031497Y0307984D01*
X0031766Y0308708D01*
X0032053Y0309426D01*
X0032358Y0310136D01*
X0032680Y0310839D01*
X0033019Y0311534D01*
X0033375Y0312220D01*
X0033748Y0312897D01*
X0034137Y0313565D01*
X0034542Y0314223D01*
X0034964Y0314871D01*
X0035401Y0315509D01*
X0035854Y0316135D01*
X0036322Y0316750D01*
X0036805Y0317354D01*
X0037303Y0317945D01*
X0037815Y0318524D01*
X0038341Y0319091D01*
X0038881Y0319644D01*
X0039434Y0320184D01*
X0040001Y0320710D01*
X0040580Y0321222D01*
X0041171Y0321720D01*
X0041775Y0322203D01*
X0042390Y0322671D01*
X0043016Y0323124D01*
X0043654Y0323561D01*
X0044302Y0323983D01*
X0044960Y0324388D01*
X0045628Y0324777D01*
X0046305Y0325150D01*
X0046991Y0325506D01*
X0047686Y0325845D01*
X0048389Y0326167D01*
X0049099Y0326472D01*
X0049817Y0326759D01*
X0050541Y0327028D01*
X0051272Y0327279D01*
X0052009Y0327513D01*
X0052752Y0327728D01*
X0053499Y0327925D01*
X0054251Y0328104D01*
X0055007Y0328264D01*
X0055767Y0328405D01*
X0056531Y0328528D01*
X0057297Y0328632D01*
X0058065Y0328717D01*
X0058835Y0328784D01*
X0059607Y0328831D01*
X0060379Y0328860D01*
X0061152Y0328869D01*
X0061925Y0328860D01*
X0062697Y0328831D01*
X0063469Y0328784D01*
X0064239Y0328717D01*
X0065007Y0328632D01*
X0065773Y0328528D01*
X0066537Y0328405D01*
X0067297Y0328264D01*
X0068053Y0328104D01*
X0068805Y0327925D01*
X0069552Y0327728D01*
X0070295Y0327513D01*
X0071032Y0327279D01*
X0071763Y0327028D01*
X0072487Y0326759D01*
X0073205Y0326472D01*
X0073915Y0326167D01*
X0074618Y0325845D01*
X0075313Y0325506D01*
X0075999Y0325150D01*
X0076676Y0324777D01*
X0077344Y0324388D01*
X0078002Y0323983D01*
X0078650Y0323561D01*
X0079288Y0323124D01*
X0079914Y0322671D01*
X0080529Y0322203D01*
X0081133Y0321720D01*
X0081724Y0321222D01*
X0082303Y0320710D01*
X0082870Y0320184D01*
X0083423Y0319644D01*
X0083963Y0319091D01*
X0084489Y0318524D01*
X0085001Y0317945D01*
X0085499Y0317354D01*
X0085982Y0316750D01*
X0086450Y0316135D01*
X0086903Y0315509D01*
X0087340Y0314871D01*
X0087762Y0314223D01*
X0088167Y0313565D01*
X0088556Y0312897D01*
X0088929Y0312220D01*
X0089285Y0311534D01*
X0089624Y0310839D01*
X0089946Y0310136D01*
X0090251Y0309426D01*
X0090538Y0308708D01*
X0090807Y0307984D01*
X0091058Y0307253D01*
X0091292Y0306516D01*
X0091507Y0305773D01*
X0091704Y0305026D01*
X0091883Y0304274D01*
X0092043Y0303518D01*
X0092184Y0302758D01*
X0092307Y0301994D01*
X0092411Y0301228D01*
X0092496Y0300460D01*
X0092563Y0299690D01*
X0092610Y0298918D01*
X0092639Y0298146D01*
X0092648Y0297373D01*
X0092639Y0296600D01*
X0092610Y0295828D01*
X0092563Y0295056D01*
X0092496Y0294286D01*
X0092411Y0293518D01*
X0092307Y0292752D01*
X0092184Y0291988D01*
X0092043Y0291228D01*
X0091883Y0290472D01*
X0091704Y0289720D01*
X0091507Y0288973D01*
X0091292Y0288230D01*
X0091058Y0287493D01*
X0090807Y0286762D01*
X0090538Y0286038D01*
X0090251Y0285320D01*
X0089946Y0284610D01*
X0089624Y0283907D01*
X0089285Y0283212D01*
X0088929Y0282526D01*
X0088556Y0281849D01*
X0088167Y0281181D01*
X0087762Y0280523D01*
X0087340Y0279875D01*
X0086903Y0279237D01*
X0086450Y0278611D01*
X0085982Y0277996D01*
X0085499Y0277392D01*
X0085001Y0276801D01*
X0084489Y0276222D01*
X0083963Y0275655D01*
X0083423Y0275102D01*
X0082870Y0274562D01*
X0082303Y0274036D01*
X0081724Y0273524D01*
X0081133Y0273026D01*
X0080529Y0272543D01*
X0079914Y0272075D01*
X0079288Y0271622D01*
X0078650Y0271185D01*
X0078002Y0270763D01*
X0077344Y0270358D01*
X0076676Y0269969D01*
X0075999Y0269596D01*
X0075313Y0269240D01*
X0074618Y0268901D01*
X0073915Y0268579D01*
X0073205Y0268274D01*
X0072487Y0267987D01*
X0071763Y0267718D01*
X0071032Y0267467D01*
X0070295Y0267233D01*
X0069552Y0267018D01*
X0068805Y0266821D01*
X0068053Y0266642D01*
X0067297Y0266482D01*
X0066537Y0266341D01*
X0065773Y0266218D01*
X0065007Y0266114D01*
X0064239Y0266029D01*
X0063469Y0265962D01*
X0062697Y0265915D01*
X0061925Y0265886D01*
X0061152Y0265877D01*
X0060379Y0265886D01*
X0059607Y0265915D01*
X0058835Y0265962D01*
X0058065Y0266029D01*
X0057297Y0266114D01*
X0056531Y0266218D01*
X0055767Y0266341D01*
X0055007Y0266482D01*
X0054251Y0266642D01*
X0053499Y0266821D01*
X0052752Y0267018D01*
X0052009Y0267233D01*
X0051272Y0267467D01*
X0050541Y0267718D01*
X0049817Y0267987D01*
X0049099Y0268274D01*
X0048389Y0268579D01*
X0047686Y0268901D01*
X0046991Y0269240D01*
X0046305Y0269596D01*
X0045628Y0269969D01*
X0044960Y0270358D01*
X0044302Y0270763D01*
X0043654Y0271185D01*
X0043016Y0271622D01*
X0042390Y0272075D01*
X0041775Y0272543D01*
X0041171Y0273026D01*
X0040580Y0273524D01*
X0040001Y0274036D01*
X0039434Y0274562D01*
X0038881Y0275102D01*
X0038341Y0275655D01*
X0037815Y0276222D01*
X0037303Y0276801D01*
X0036805Y0277392D01*
X0036322Y0277996D01*
X0035854Y0278611D01*
X0035401Y0279237D01*
X0034964Y0279875D01*
X0034542Y0280523D01*
X0034137Y0281181D01*
X0033748Y0281849D01*
X0033375Y0282526D01*
X0033019Y0283212D01*
X0032680Y0283907D01*
X0032358Y0284610D01*
X0032053Y0285320D01*
X0031766Y0286038D01*
X0031497Y0286762D01*
X0031246Y0287493D01*
X0031012Y0288230D01*
X0030797Y0288973D01*
X0030600Y0289720D01*
X0030421Y0290472D01*
X0030261Y0291228D01*
X0030120Y0291988D01*
X0029997Y0292752D01*
X0029893Y0293518D01*
X0029808Y0294286D01*
X0029741Y0295056D01*
X0029694Y0295828D01*
X0029665Y0296600D01*
X0029656Y0297373D01*
X0177294Y0241270D02*
X0177294Y0235365D01*
X0181231Y0235365D02*
X0181231Y0241270D01*
X0147767Y0297373D02*
X0147776Y0298146D01*
X0147805Y0298918D01*
X0147852Y0299690D01*
X0147919Y0300460D01*
X0148004Y0301228D01*
X0148108Y0301994D01*
X0148231Y0302758D01*
X0148372Y0303518D01*
X0148532Y0304274D01*
X0148711Y0305026D01*
X0148908Y0305773D01*
X0149123Y0306516D01*
X0149357Y0307253D01*
X0149608Y0307984D01*
X0149877Y0308708D01*
X0150164Y0309426D01*
X0150469Y0310136D01*
X0150791Y0310839D01*
X0151130Y0311534D01*
X0151486Y0312220D01*
X0151859Y0312897D01*
X0152248Y0313565D01*
X0152653Y0314223D01*
X0153075Y0314871D01*
X0153512Y0315509D01*
X0153965Y0316135D01*
X0154433Y0316750D01*
X0154916Y0317354D01*
X0155414Y0317945D01*
X0155926Y0318524D01*
X0156452Y0319091D01*
X0156992Y0319644D01*
X0157545Y0320184D01*
X0158112Y0320710D01*
X0158691Y0321222D01*
X0159282Y0321720D01*
X0159886Y0322203D01*
X0160501Y0322671D01*
X0161127Y0323124D01*
X0161765Y0323561D01*
X0162413Y0323983D01*
X0163071Y0324388D01*
X0163739Y0324777D01*
X0164416Y0325150D01*
X0165102Y0325506D01*
X0165797Y0325845D01*
X0166500Y0326167D01*
X0167210Y0326472D01*
X0167928Y0326759D01*
X0168652Y0327028D01*
X0169383Y0327279D01*
X0170120Y0327513D01*
X0170863Y0327728D01*
X0171610Y0327925D01*
X0172362Y0328104D01*
X0173118Y0328264D01*
X0173878Y0328405D01*
X0174642Y0328528D01*
X0175408Y0328632D01*
X0176176Y0328717D01*
X0176946Y0328784D01*
X0177718Y0328831D01*
X0178490Y0328860D01*
X0179263Y0328869D01*
X0180036Y0328860D01*
X0180808Y0328831D01*
X0181580Y0328784D01*
X0182350Y0328717D01*
X0183118Y0328632D01*
X0183884Y0328528D01*
X0184648Y0328405D01*
X0185408Y0328264D01*
X0186164Y0328104D01*
X0186916Y0327925D01*
X0187663Y0327728D01*
X0188406Y0327513D01*
X0189143Y0327279D01*
X0189874Y0327028D01*
X0190598Y0326759D01*
X0191316Y0326472D01*
X0192026Y0326167D01*
X0192729Y0325845D01*
X0193424Y0325506D01*
X0194110Y0325150D01*
X0194787Y0324777D01*
X0195455Y0324388D01*
X0196113Y0323983D01*
X0196761Y0323561D01*
X0197399Y0323124D01*
X0198025Y0322671D01*
X0198640Y0322203D01*
X0199244Y0321720D01*
X0199835Y0321222D01*
X0200414Y0320710D01*
X0200981Y0320184D01*
X0201534Y0319644D01*
X0202074Y0319091D01*
X0202600Y0318524D01*
X0203112Y0317945D01*
X0203610Y0317354D01*
X0204093Y0316750D01*
X0204561Y0316135D01*
X0205014Y0315509D01*
X0205451Y0314871D01*
X0205873Y0314223D01*
X0206278Y0313565D01*
X0206667Y0312897D01*
X0207040Y0312220D01*
X0207396Y0311534D01*
X0207735Y0310839D01*
X0208057Y0310136D01*
X0208362Y0309426D01*
X0208649Y0308708D01*
X0208918Y0307984D01*
X0209169Y0307253D01*
X0209403Y0306516D01*
X0209618Y0305773D01*
X0209815Y0305026D01*
X0209994Y0304274D01*
X0210154Y0303518D01*
X0210295Y0302758D01*
X0210418Y0301994D01*
X0210522Y0301228D01*
X0210607Y0300460D01*
X0210674Y0299690D01*
X0210721Y0298918D01*
X0210750Y0298146D01*
X0210759Y0297373D01*
X0210750Y0296600D01*
X0210721Y0295828D01*
X0210674Y0295056D01*
X0210607Y0294286D01*
X0210522Y0293518D01*
X0210418Y0292752D01*
X0210295Y0291988D01*
X0210154Y0291228D01*
X0209994Y0290472D01*
X0209815Y0289720D01*
X0209618Y0288973D01*
X0209403Y0288230D01*
X0209169Y0287493D01*
X0208918Y0286762D01*
X0208649Y0286038D01*
X0208362Y0285320D01*
X0208057Y0284610D01*
X0207735Y0283907D01*
X0207396Y0283212D01*
X0207040Y0282526D01*
X0206667Y0281849D01*
X0206278Y0281181D01*
X0205873Y0280523D01*
X0205451Y0279875D01*
X0205014Y0279237D01*
X0204561Y0278611D01*
X0204093Y0277996D01*
X0203610Y0277392D01*
X0203112Y0276801D01*
X0202600Y0276222D01*
X0202074Y0275655D01*
X0201534Y0275102D01*
X0200981Y0274562D01*
X0200414Y0274036D01*
X0199835Y0273524D01*
X0199244Y0273026D01*
X0198640Y0272543D01*
X0198025Y0272075D01*
X0197399Y0271622D01*
X0196761Y0271185D01*
X0196113Y0270763D01*
X0195455Y0270358D01*
X0194787Y0269969D01*
X0194110Y0269596D01*
X0193424Y0269240D01*
X0192729Y0268901D01*
X0192026Y0268579D01*
X0191316Y0268274D01*
X0190598Y0267987D01*
X0189874Y0267718D01*
X0189143Y0267467D01*
X0188406Y0267233D01*
X0187663Y0267018D01*
X0186916Y0266821D01*
X0186164Y0266642D01*
X0185408Y0266482D01*
X0184648Y0266341D01*
X0183884Y0266218D01*
X0183118Y0266114D01*
X0182350Y0266029D01*
X0181580Y0265962D01*
X0180808Y0265915D01*
X0180036Y0265886D01*
X0179263Y0265877D01*
X0178490Y0265886D01*
X0177718Y0265915D01*
X0176946Y0265962D01*
X0176176Y0266029D01*
X0175408Y0266114D01*
X0174642Y0266218D01*
X0173878Y0266341D01*
X0173118Y0266482D01*
X0172362Y0266642D01*
X0171610Y0266821D01*
X0170863Y0267018D01*
X0170120Y0267233D01*
X0169383Y0267467D01*
X0168652Y0267718D01*
X0167928Y0267987D01*
X0167210Y0268274D01*
X0166500Y0268579D01*
X0165797Y0268901D01*
X0165102Y0269240D01*
X0164416Y0269596D01*
X0163739Y0269969D01*
X0163071Y0270358D01*
X0162413Y0270763D01*
X0161765Y0271185D01*
X0161127Y0271622D01*
X0160501Y0272075D01*
X0159886Y0272543D01*
X0159282Y0273026D01*
X0158691Y0273524D01*
X0158112Y0274036D01*
X0157545Y0274562D01*
X0156992Y0275102D01*
X0156452Y0275655D01*
X0155926Y0276222D01*
X0155414Y0276801D01*
X0154916Y0277392D01*
X0154433Y0277996D01*
X0153965Y0278611D01*
X0153512Y0279237D01*
X0153075Y0279875D01*
X0152653Y0280523D01*
X0152248Y0281181D01*
X0151859Y0281849D01*
X0151486Y0282526D01*
X0151130Y0283212D01*
X0150791Y0283907D01*
X0150469Y0284610D01*
X0150164Y0285320D01*
X0149877Y0286038D01*
X0149608Y0286762D01*
X0149357Y0287493D01*
X0149123Y0288230D01*
X0148908Y0288973D01*
X0148711Y0289720D01*
X0148532Y0290472D01*
X0148372Y0291228D01*
X0148231Y0291988D01*
X0148108Y0292752D01*
X0148004Y0293518D01*
X0147919Y0294286D01*
X0147852Y0295056D01*
X0147805Y0295828D01*
X0147776Y0296600D01*
X0147767Y0297373D01*
X0123161Y0177294D02*
X0123225Y0175937D01*
X0123321Y0174582D01*
X0123451Y0173230D01*
X0123614Y0171881D01*
X0123809Y0170536D01*
X0124036Y0169196D01*
X0124296Y0167863D01*
X0124588Y0166536D01*
X0124912Y0165216D01*
X0125268Y0163905D01*
X0125655Y0162603D01*
X0126074Y0161310D01*
X0126524Y0160028D01*
X0127005Y0158757D01*
X0127517Y0157499D01*
X0128059Y0156253D01*
X0128630Y0155020D01*
X0129232Y0153802D01*
X0129863Y0152599D01*
X0130523Y0151411D01*
X0131211Y0150239D01*
X0131927Y0149085D01*
X0132672Y0147948D01*
X0133443Y0146830D01*
X0134242Y0145730D01*
X0135066Y0144651D01*
X0135917Y0143591D01*
X0136793Y0142553D01*
X0137694Y0141535D01*
X0138619Y0140540D01*
X0139568Y0139568D01*
X0140540Y0138619D01*
X0141535Y0137694D01*
X0142553Y0136793D01*
X0143591Y0135917D01*
X0144651Y0135066D01*
X0145730Y0134242D01*
X0146830Y0133443D01*
X0147948Y0132672D01*
X0149085Y0131927D01*
X0150239Y0131211D01*
X0151411Y0130523D01*
X0152599Y0129863D01*
X0153802Y0129232D01*
X0155020Y0128630D01*
X0156253Y0128059D01*
X0157499Y0127517D01*
X0158757Y0127005D01*
X0160028Y0126524D01*
X0161310Y0126074D01*
X0162603Y0125655D01*
X0163905Y0125268D01*
X0165216Y0124912D01*
X0166536Y0124588D01*
X0167863Y0124296D01*
X0169196Y0124036D01*
X0170536Y0123809D01*
X0171881Y0123614D01*
X0173230Y0123451D01*
X0174582Y0123321D01*
X0175937Y0123225D01*
X0177294Y0123161D01*
X0235365Y0181232D02*
X0235301Y0182589D01*
X0235205Y0183944D01*
X0235075Y0185296D01*
X0234912Y0186645D01*
X0234717Y0187990D01*
X0234490Y0189330D01*
X0234230Y0190663D01*
X0233938Y0191990D01*
X0233614Y0193310D01*
X0233258Y0194621D01*
X0232871Y0195923D01*
X0232452Y0197216D01*
X0232002Y0198498D01*
X0231521Y0199769D01*
X0231009Y0201027D01*
X0230467Y0202273D01*
X0229896Y0203506D01*
X0229294Y0204724D01*
X0228663Y0205927D01*
X0228003Y0207115D01*
X0227315Y0208287D01*
X0226599Y0209441D01*
X0225854Y0210578D01*
X0225083Y0211696D01*
X0224284Y0212796D01*
X0223460Y0213875D01*
X0222609Y0214935D01*
X0221733Y0215973D01*
X0220832Y0216991D01*
X0219907Y0217986D01*
X0218958Y0218958D01*
X0217986Y0219907D01*
X0216991Y0220832D01*
X0215973Y0221733D01*
X0214935Y0222609D01*
X0213875Y0223460D01*
X0212796Y0224284D01*
X0211696Y0225083D01*
X0210578Y0225854D01*
X0209441Y0226599D01*
X0208287Y0227315D01*
X0207115Y0228003D01*
X0205927Y0228663D01*
X0204724Y0229294D01*
X0203506Y0229896D01*
X0202273Y0230467D01*
X0201027Y0231009D01*
X0199769Y0231521D01*
X0198498Y0232002D01*
X0197216Y0232452D01*
X0195923Y0232871D01*
X0194621Y0233258D01*
X0193310Y0233614D01*
X0191990Y0233938D01*
X0190663Y0234230D01*
X0189330Y0234490D01*
X0187990Y0234717D01*
X0186645Y0234912D01*
X0185296Y0235075D01*
X0183944Y0235205D01*
X0182589Y0235301D01*
X0181232Y0235365D01*
X0123161Y0177294D02*
X0123225Y0175937D01*
X0123321Y0174582D01*
X0123451Y0173230D01*
X0123614Y0171881D01*
X0123809Y0170536D01*
X0124036Y0169196D01*
X0124296Y0167863D01*
X0124588Y0166536D01*
X0124912Y0165216D01*
X0125268Y0163905D01*
X0125655Y0162603D01*
X0126074Y0161310D01*
X0126524Y0160028D01*
X0127005Y0158757D01*
X0127517Y0157499D01*
X0128059Y0156253D01*
X0128630Y0155020D01*
X0129232Y0153802D01*
X0129863Y0152599D01*
X0130523Y0151411D01*
X0131211Y0150239D01*
X0131927Y0149085D01*
X0132672Y0147948D01*
X0133443Y0146830D01*
X0134242Y0145730D01*
X0135066Y0144651D01*
X0135917Y0143591D01*
X0136793Y0142553D01*
X0137694Y0141535D01*
X0138619Y0140540D01*
X0139568Y0139568D01*
X0140540Y0138619D01*
X0141535Y0137694D01*
X0142553Y0136793D01*
X0143591Y0135917D01*
X0144651Y0135066D01*
X0145730Y0134242D01*
X0146830Y0133443D01*
X0147948Y0132672D01*
X0149085Y0131927D01*
X0150239Y0131211D01*
X0151411Y0130523D01*
X0152599Y0129863D01*
X0153802Y0129232D01*
X0155020Y0128630D01*
X0156253Y0128059D01*
X0157499Y0127517D01*
X0158757Y0127005D01*
X0160028Y0126524D01*
X0161310Y0126074D01*
X0162603Y0125655D01*
X0163905Y0125268D01*
X0165216Y0124912D01*
X0166536Y0124588D01*
X0167863Y0124296D01*
X0169196Y0124036D01*
X0170536Y0123809D01*
X0171881Y0123614D01*
X0173230Y0123451D01*
X0174582Y0123321D01*
X0175937Y0123225D01*
X0177294Y0123161D01*
X0123161Y0181232D02*
X0123225Y0182589D01*
X0123321Y0183944D01*
X0123451Y0185296D01*
X0123614Y0186645D01*
X0123809Y0187990D01*
X0124036Y0189330D01*
X0124296Y0190663D01*
X0124588Y0191990D01*
X0124912Y0193310D01*
X0125268Y0194621D01*
X0125655Y0195923D01*
X0126074Y0197216D01*
X0126524Y0198498D01*
X0127005Y0199769D01*
X0127517Y0201027D01*
X0128059Y0202273D01*
X0128630Y0203506D01*
X0129232Y0204724D01*
X0129863Y0205927D01*
X0130523Y0207115D01*
X0131211Y0208287D01*
X0131927Y0209441D01*
X0132672Y0210578D01*
X0133443Y0211696D01*
X0134242Y0212796D01*
X0135066Y0213875D01*
X0135917Y0214935D01*
X0136793Y0215973D01*
X0137694Y0216991D01*
X0138619Y0217986D01*
X0139568Y0218958D01*
X0140540Y0219907D01*
X0141535Y0220832D01*
X0142553Y0221733D01*
X0143591Y0222609D01*
X0144651Y0223460D01*
X0145730Y0224284D01*
X0146830Y0225083D01*
X0147948Y0225854D01*
X0149085Y0226599D01*
X0150239Y0227315D01*
X0151411Y0228003D01*
X0152599Y0228663D01*
X0153802Y0229294D01*
X0155020Y0229896D01*
X0156253Y0230467D01*
X0157499Y0231009D01*
X0158757Y0231521D01*
X0160028Y0232002D01*
X0161310Y0232452D01*
X0162603Y0232871D01*
X0163905Y0233258D01*
X0165216Y0233614D01*
X0166536Y0233938D01*
X0167863Y0234230D01*
X0169196Y0234490D01*
X0170536Y0234717D01*
X0171881Y0234912D01*
X0173230Y0235075D01*
X0174582Y0235205D01*
X0175937Y0235301D01*
X0177294Y0235365D01*
X0147767Y0179263D02*
X0147776Y0180036D01*
X0147805Y0180808D01*
X0147852Y0181580D01*
X0147919Y0182350D01*
X0148004Y0183118D01*
X0148108Y0183884D01*
X0148231Y0184648D01*
X0148372Y0185408D01*
X0148532Y0186164D01*
X0148711Y0186916D01*
X0148908Y0187663D01*
X0149123Y0188406D01*
X0149357Y0189143D01*
X0149608Y0189874D01*
X0149877Y0190598D01*
X0150164Y0191316D01*
X0150469Y0192026D01*
X0150791Y0192729D01*
X0151130Y0193424D01*
X0151486Y0194110D01*
X0151859Y0194787D01*
X0152248Y0195455D01*
X0152653Y0196113D01*
X0153075Y0196761D01*
X0153512Y0197399D01*
X0153965Y0198025D01*
X0154433Y0198640D01*
X0154916Y0199244D01*
X0155414Y0199835D01*
X0155926Y0200414D01*
X0156452Y0200981D01*
X0156992Y0201534D01*
X0157545Y0202074D01*
X0158112Y0202600D01*
X0158691Y0203112D01*
X0159282Y0203610D01*
X0159886Y0204093D01*
X0160501Y0204561D01*
X0161127Y0205014D01*
X0161765Y0205451D01*
X0162413Y0205873D01*
X0163071Y0206278D01*
X0163739Y0206667D01*
X0164416Y0207040D01*
X0165102Y0207396D01*
X0165797Y0207735D01*
X0166500Y0208057D01*
X0167210Y0208362D01*
X0167928Y0208649D01*
X0168652Y0208918D01*
X0169383Y0209169D01*
X0170120Y0209403D01*
X0170863Y0209618D01*
X0171610Y0209815D01*
X0172362Y0209994D01*
X0173118Y0210154D01*
X0173878Y0210295D01*
X0174642Y0210418D01*
X0175408Y0210522D01*
X0176176Y0210607D01*
X0176946Y0210674D01*
X0177718Y0210721D01*
X0178490Y0210750D01*
X0179263Y0210759D01*
X0180036Y0210750D01*
X0180808Y0210721D01*
X0181580Y0210674D01*
X0182350Y0210607D01*
X0183118Y0210522D01*
X0183884Y0210418D01*
X0184648Y0210295D01*
X0185408Y0210154D01*
X0186164Y0209994D01*
X0186916Y0209815D01*
X0187663Y0209618D01*
X0188406Y0209403D01*
X0189143Y0209169D01*
X0189874Y0208918D01*
X0190598Y0208649D01*
X0191316Y0208362D01*
X0192026Y0208057D01*
X0192729Y0207735D01*
X0193424Y0207396D01*
X0194110Y0207040D01*
X0194787Y0206667D01*
X0195455Y0206278D01*
X0196113Y0205873D01*
X0196761Y0205451D01*
X0197399Y0205014D01*
X0198025Y0204561D01*
X0198640Y0204093D01*
X0199244Y0203610D01*
X0199835Y0203112D01*
X0200414Y0202600D01*
X0200981Y0202074D01*
X0201534Y0201534D01*
X0202074Y0200981D01*
X0202600Y0200414D01*
X0203112Y0199835D01*
X0203610Y0199244D01*
X0204093Y0198640D01*
X0204561Y0198025D01*
X0205014Y0197399D01*
X0205451Y0196761D01*
X0205873Y0196113D01*
X0206278Y0195455D01*
X0206667Y0194787D01*
X0207040Y0194110D01*
X0207396Y0193424D01*
X0207735Y0192729D01*
X0208057Y0192026D01*
X0208362Y0191316D01*
X0208649Y0190598D01*
X0208918Y0189874D01*
X0209169Y0189143D01*
X0209403Y0188406D01*
X0209618Y0187663D01*
X0209815Y0186916D01*
X0209994Y0186164D01*
X0210154Y0185408D01*
X0210295Y0184648D01*
X0210418Y0183884D01*
X0210522Y0183118D01*
X0210607Y0182350D01*
X0210674Y0181580D01*
X0210721Y0180808D01*
X0210750Y0180036D01*
X0210759Y0179263D01*
X0210750Y0178490D01*
X0210721Y0177718D01*
X0210674Y0176946D01*
X0210607Y0176176D01*
X0210522Y0175408D01*
X0210418Y0174642D01*
X0210295Y0173878D01*
X0210154Y0173118D01*
X0209994Y0172362D01*
X0209815Y0171610D01*
X0209618Y0170863D01*
X0209403Y0170120D01*
X0209169Y0169383D01*
X0208918Y0168652D01*
X0208649Y0167928D01*
X0208362Y0167210D01*
X0208057Y0166500D01*
X0207735Y0165797D01*
X0207396Y0165102D01*
X0207040Y0164416D01*
X0206667Y0163739D01*
X0206278Y0163071D01*
X0205873Y0162413D01*
X0205451Y0161765D01*
X0205014Y0161127D01*
X0204561Y0160501D01*
X0204093Y0159886D01*
X0203610Y0159282D01*
X0203112Y0158691D01*
X0202600Y0158112D01*
X0202074Y0157545D01*
X0201534Y0156992D01*
X0200981Y0156452D01*
X0200414Y0155926D01*
X0199835Y0155414D01*
X0199244Y0154916D01*
X0198640Y0154433D01*
X0198025Y0153965D01*
X0197399Y0153512D01*
X0196761Y0153075D01*
X0196113Y0152653D01*
X0195455Y0152248D01*
X0194787Y0151859D01*
X0194110Y0151486D01*
X0193424Y0151130D01*
X0192729Y0150791D01*
X0192026Y0150469D01*
X0191316Y0150164D01*
X0190598Y0149877D01*
X0189874Y0149608D01*
X0189143Y0149357D01*
X0188406Y0149123D01*
X0187663Y0148908D01*
X0186916Y0148711D01*
X0186164Y0148532D01*
X0185408Y0148372D01*
X0184648Y0148231D01*
X0183884Y0148108D01*
X0183118Y0148004D01*
X0182350Y0147919D01*
X0181580Y0147852D01*
X0180808Y0147805D01*
X0180036Y0147776D01*
X0179263Y0147767D01*
X0178490Y0147776D01*
X0177718Y0147805D01*
X0176946Y0147852D01*
X0176176Y0147919D01*
X0175408Y0148004D01*
X0174642Y0148108D01*
X0173878Y0148231D01*
X0173118Y0148372D01*
X0172362Y0148532D01*
X0171610Y0148711D01*
X0170863Y0148908D01*
X0170120Y0149123D01*
X0169383Y0149357D01*
X0168652Y0149608D01*
X0167928Y0149877D01*
X0167210Y0150164D01*
X0166500Y0150469D01*
X0165797Y0150791D01*
X0165102Y0151130D01*
X0164416Y0151486D01*
X0163739Y0151859D01*
X0163071Y0152248D01*
X0162413Y0152653D01*
X0161765Y0153075D01*
X0161127Y0153512D01*
X0160501Y0153965D01*
X0159886Y0154433D01*
X0159282Y0154916D01*
X0158691Y0155414D01*
X0158112Y0155926D01*
X0157545Y0156452D01*
X0156992Y0156992D01*
X0156452Y0157545D01*
X0155926Y0158112D01*
X0155414Y0158691D01*
X0154916Y0159282D01*
X0154433Y0159886D01*
X0153965Y0160501D01*
X0153512Y0161127D01*
X0153075Y0161765D01*
X0152653Y0162413D01*
X0152248Y0163071D01*
X0151859Y0163739D01*
X0151486Y0164416D01*
X0151130Y0165102D01*
X0150791Y0165797D01*
X0150469Y0166500D01*
X0150164Y0167210D01*
X0149877Y0167928D01*
X0149608Y0168652D01*
X0149357Y0169383D01*
X0149123Y0170120D01*
X0148908Y0170863D01*
X0148711Y0171610D01*
X0148532Y0172362D01*
X0148372Y0173118D01*
X0148231Y0173878D01*
X0148108Y0174642D01*
X0148004Y0175408D01*
X0147919Y0176176D01*
X0147852Y0176946D01*
X0147805Y0177718D01*
X0147776Y0178490D01*
X0147767Y0179263D01*
X0059183Y0117254D02*
X0057813Y0117190D01*
X0056445Y0117091D01*
X0055080Y0116960D01*
X0053719Y0116795D01*
X0052361Y0116596D01*
X0051010Y0116365D01*
X0049664Y0116101D01*
X0048325Y0115804D01*
X0046993Y0115474D01*
X0045670Y0115112D01*
X0044357Y0114718D01*
X0043053Y0114291D01*
X0041760Y0113833D01*
X0040479Y0113344D01*
X0039210Y0112823D01*
X0037954Y0112272D01*
X0036713Y0111690D01*
X0035485Y0111078D01*
X0034273Y0110436D01*
X0033077Y0109764D01*
X0031898Y0109064D01*
X0030736Y0108335D01*
X0029592Y0107578D01*
X0028468Y0106793D01*
X0027362Y0105981D01*
X0026277Y0105142D01*
X0025213Y0104277D01*
X0024170Y0103386D01*
X0023149Y0102470D01*
X0022151Y0101529D01*
X0021177Y0100564D01*
X0020226Y0099576D01*
X0019299Y0098565D01*
X0018398Y0097531D01*
X0017522Y0096476D01*
X0016672Y0095399D01*
X0015848Y0094302D01*
X0015052Y0093186D01*
X0014283Y0092050D01*
X0013542Y0090895D01*
X0012830Y0089723D01*
X0012146Y0088534D01*
X0011492Y0087329D01*
X0010867Y0086108D01*
X0010273Y0084872D01*
X0009708Y0083622D01*
X0009175Y0082358D01*
X0008672Y0081082D01*
X0008201Y0079794D01*
X0007761Y0078495D01*
X0007353Y0077186D01*
X0006978Y0075866D01*
X0006634Y0074539D01*
X0006324Y0073203D01*
X0006046Y0071860D01*
X0005800Y0070510D01*
X0005588Y0069155D01*
X0005409Y0067795D01*
X0005264Y0066431D01*
X0005152Y0065064D01*
X0005073Y0063695D01*
X0005027Y0062324D01*
X0005015Y0060953D01*
X0005037Y0059582D01*
X0005092Y0058211D01*
X0005181Y0056842D01*
X0005303Y0055476D01*
X0005458Y0054114D01*
X0005647Y0052755D01*
X0005868Y0051401D01*
X0006123Y0050054D01*
X0006411Y0048713D01*
X0006731Y0047379D01*
X0007083Y0046054D01*
X0007468Y0044737D01*
X0007886Y0043431D01*
X0008334Y0042135D01*
X0008815Y0040850D01*
X0009326Y0039577D01*
X0009869Y0038318D01*
X0010442Y0037072D01*
X0011045Y0035840D01*
X0011679Y0034623D01*
X0012342Y0033423D01*
X0013034Y0032238D01*
X0013754Y0031072D01*
X0014503Y0029923D01*
X0015280Y0028792D01*
X0016085Y0027681D01*
X0016916Y0026590D01*
X0017773Y0025520D01*
X0018657Y0024471D01*
X0019566Y0023443D01*
X0020499Y0022439D01*
X0021457Y0021457D01*
X0022439Y0020499D01*
X0023443Y0019566D01*
X0024471Y0018657D01*
X0025520Y0017773D01*
X0026590Y0016916D01*
X0027681Y0016085D01*
X0028792Y0015280D01*
X0029923Y0014503D01*
X0031072Y0013754D01*
X0032238Y0013034D01*
X0033423Y0012342D01*
X0034623Y0011679D01*
X0035840Y0011045D01*
X0037072Y0010442D01*
X0038318Y0009869D01*
X0039577Y0009326D01*
X0040850Y0008815D01*
X0042135Y0008334D01*
X0043431Y0007886D01*
X0044737Y0007468D01*
X0046054Y0007083D01*
X0047379Y0006731D01*
X0048713Y0006411D01*
X0050054Y0006123D01*
X0051401Y0005868D01*
X0052755Y0005647D01*
X0054114Y0005458D01*
X0055476Y0005303D01*
X0056842Y0005181D01*
X0058211Y0005092D01*
X0059582Y0005037D01*
X0060953Y0005015D01*
X0062324Y0005027D01*
X0063695Y0005073D01*
X0065064Y0005152D01*
X0066431Y0005264D01*
X0067795Y0005409D01*
X0069155Y0005588D01*
X0070510Y0005800D01*
X0071860Y0006046D01*
X0073203Y0006324D01*
X0074539Y0006634D01*
X0075866Y0006978D01*
X0077186Y0007353D01*
X0078495Y0007761D01*
X0079794Y0008201D01*
X0081082Y0008672D01*
X0082358Y0009175D01*
X0083622Y0009708D01*
X0084872Y0010273D01*
X0086108Y0010867D01*
X0087329Y0011492D01*
X0088534Y0012146D01*
X0089723Y0012830D01*
X0090895Y0013542D01*
X0092050Y0014283D01*
X0093186Y0015052D01*
X0094302Y0015848D01*
X0095399Y0016672D01*
X0096476Y0017522D01*
X0097531Y0018398D01*
X0098565Y0019299D01*
X0099576Y0020226D01*
X0100564Y0021177D01*
X0101529Y0022151D01*
X0102470Y0023149D01*
X0103386Y0024170D01*
X0104277Y0025213D01*
X0105142Y0026277D01*
X0105981Y0027362D01*
X0106793Y0028468D01*
X0107578Y0029592D01*
X0108335Y0030736D01*
X0109064Y0031898D01*
X0109764Y0033077D01*
X0110436Y0034273D01*
X0111078Y0035485D01*
X0111690Y0036713D01*
X0112272Y0037954D01*
X0112823Y0039210D01*
X0113344Y0040479D01*
X0113833Y0041760D01*
X0114291Y0043053D01*
X0114718Y0044357D01*
X0115112Y0045670D01*
X0115474Y0046993D01*
X0115804Y0048325D01*
X0116101Y0049664D01*
X0116365Y0051010D01*
X0116596Y0052361D01*
X0116795Y0053719D01*
X0116960Y0055080D01*
X0117091Y0056445D01*
X0117190Y0057813D01*
X0117254Y0059183D01*
X0029656Y0061152D02*
X0029665Y0061925D01*
X0029694Y0062697D01*
X0029741Y0063469D01*
X0029808Y0064239D01*
X0029893Y0065007D01*
X0029997Y0065773D01*
X0030120Y0066537D01*
X0030261Y0067297D01*
X0030421Y0068053D01*
X0030600Y0068805D01*
X0030797Y0069552D01*
X0031012Y0070295D01*
X0031246Y0071032D01*
X0031497Y0071763D01*
X0031766Y0072487D01*
X0032053Y0073205D01*
X0032358Y0073915D01*
X0032680Y0074618D01*
X0033019Y0075313D01*
X0033375Y0075999D01*
X0033748Y0076676D01*
X0034137Y0077344D01*
X0034542Y0078002D01*
X0034964Y0078650D01*
X0035401Y0079288D01*
X0035854Y0079914D01*
X0036322Y0080529D01*
X0036805Y0081133D01*
X0037303Y0081724D01*
X0037815Y0082303D01*
X0038341Y0082870D01*
X0038881Y0083423D01*
X0039434Y0083963D01*
X0040001Y0084489D01*
X0040580Y0085001D01*
X0041171Y0085499D01*
X0041775Y0085982D01*
X0042390Y0086450D01*
X0043016Y0086903D01*
X0043654Y0087340D01*
X0044302Y0087762D01*
X0044960Y0088167D01*
X0045628Y0088556D01*
X0046305Y0088929D01*
X0046991Y0089285D01*
X0047686Y0089624D01*
X0048389Y0089946D01*
X0049099Y0090251D01*
X0049817Y0090538D01*
X0050541Y0090807D01*
X0051272Y0091058D01*
X0052009Y0091292D01*
X0052752Y0091507D01*
X0053499Y0091704D01*
X0054251Y0091883D01*
X0055007Y0092043D01*
X0055767Y0092184D01*
X0056531Y0092307D01*
X0057297Y0092411D01*
X0058065Y0092496D01*
X0058835Y0092563D01*
X0059607Y0092610D01*
X0060379Y0092639D01*
X0061152Y0092648D01*
X0061925Y0092639D01*
X0062697Y0092610D01*
X0063469Y0092563D01*
X0064239Y0092496D01*
X0065007Y0092411D01*
X0065773Y0092307D01*
X0066537Y0092184D01*
X0067297Y0092043D01*
X0068053Y0091883D01*
X0068805Y0091704D01*
X0069552Y0091507D01*
X0070295Y0091292D01*
X0071032Y0091058D01*
X0071763Y0090807D01*
X0072487Y0090538D01*
X0073205Y0090251D01*
X0073915Y0089946D01*
X0074618Y0089624D01*
X0075313Y0089285D01*
X0075999Y0088929D01*
X0076676Y0088556D01*
X0077344Y0088167D01*
X0078002Y0087762D01*
X0078650Y0087340D01*
X0079288Y0086903D01*
X0079914Y0086450D01*
X0080529Y0085982D01*
X0081133Y0085499D01*
X0081724Y0085001D01*
X0082303Y0084489D01*
X0082870Y0083963D01*
X0083423Y0083423D01*
X0083963Y0082870D01*
X0084489Y0082303D01*
X0085001Y0081724D01*
X0085499Y0081133D01*
X0085982Y0080529D01*
X0086450Y0079914D01*
X0086903Y0079288D01*
X0087340Y0078650D01*
X0087762Y0078002D01*
X0088167Y0077344D01*
X0088556Y0076676D01*
X0088929Y0075999D01*
X0089285Y0075313D01*
X0089624Y0074618D01*
X0089946Y0073915D01*
X0090251Y0073205D01*
X0090538Y0072487D01*
X0090807Y0071763D01*
X0091058Y0071032D01*
X0091292Y0070295D01*
X0091507Y0069552D01*
X0091704Y0068805D01*
X0091883Y0068053D01*
X0092043Y0067297D01*
X0092184Y0066537D01*
X0092307Y0065773D01*
X0092411Y0065007D01*
X0092496Y0064239D01*
X0092563Y0063469D01*
X0092610Y0062697D01*
X0092639Y0061925D01*
X0092648Y0061152D01*
X0092639Y0060379D01*
X0092610Y0059607D01*
X0092563Y0058835D01*
X0092496Y0058065D01*
X0092411Y0057297D01*
X0092307Y0056531D01*
X0092184Y0055767D01*
X0092043Y0055007D01*
X0091883Y0054251D01*
X0091704Y0053499D01*
X0091507Y0052752D01*
X0091292Y0052009D01*
X0091058Y0051272D01*
X0090807Y0050541D01*
X0090538Y0049817D01*
X0090251Y0049099D01*
X0089946Y0048389D01*
X0089624Y0047686D01*
X0089285Y0046991D01*
X0088929Y0046305D01*
X0088556Y0045628D01*
X0088167Y0044960D01*
X0087762Y0044302D01*
X0087340Y0043654D01*
X0086903Y0043016D01*
X0086450Y0042390D01*
X0085982Y0041775D01*
X0085499Y0041171D01*
X0085001Y0040580D01*
X0084489Y0040001D01*
X0083963Y0039434D01*
X0083423Y0038881D01*
X0082870Y0038341D01*
X0082303Y0037815D01*
X0081724Y0037303D01*
X0081133Y0036805D01*
X0080529Y0036322D01*
X0079914Y0035854D01*
X0079288Y0035401D01*
X0078650Y0034964D01*
X0078002Y0034542D01*
X0077344Y0034137D01*
X0076676Y0033748D01*
X0075999Y0033375D01*
X0075313Y0033019D01*
X0074618Y0032680D01*
X0073915Y0032358D01*
X0073205Y0032053D01*
X0072487Y0031766D01*
X0071763Y0031497D01*
X0071032Y0031246D01*
X0070295Y0031012D01*
X0069552Y0030797D01*
X0068805Y0030600D01*
X0068053Y0030421D01*
X0067297Y0030261D01*
X0066537Y0030120D01*
X0065773Y0029997D01*
X0065007Y0029893D01*
X0064239Y0029808D01*
X0063469Y0029741D01*
X0062697Y0029694D01*
X0061925Y0029665D01*
X0061152Y0029656D01*
X0060379Y0029665D01*
X0059607Y0029694D01*
X0058835Y0029741D01*
X0058065Y0029808D01*
X0057297Y0029893D01*
X0056531Y0029997D01*
X0055767Y0030120D01*
X0055007Y0030261D01*
X0054251Y0030421D01*
X0053499Y0030600D01*
X0052752Y0030797D01*
X0052009Y0031012D01*
X0051272Y0031246D01*
X0050541Y0031497D01*
X0049817Y0031766D01*
X0049099Y0032053D01*
X0048389Y0032358D01*
X0047686Y0032680D01*
X0046991Y0033019D01*
X0046305Y0033375D01*
X0045628Y0033748D01*
X0044960Y0034137D01*
X0044302Y0034542D01*
X0043654Y0034964D01*
X0043016Y0035401D01*
X0042390Y0035854D01*
X0041775Y0036322D01*
X0041171Y0036805D01*
X0040580Y0037303D01*
X0040001Y0037815D01*
X0039434Y0038341D01*
X0038881Y0038881D01*
X0038341Y0039434D01*
X0037815Y0040001D01*
X0037303Y0040580D01*
X0036805Y0041171D01*
X0036322Y0041775D01*
X0035854Y0042390D01*
X0035401Y0043016D01*
X0034964Y0043654D01*
X0034542Y0044302D01*
X0034137Y0044960D01*
X0033748Y0045628D01*
X0033375Y0046305D01*
X0033019Y0046991D01*
X0032680Y0047686D01*
X0032358Y0048389D01*
X0032053Y0049099D01*
X0031766Y0049817D01*
X0031497Y0050541D01*
X0031246Y0051272D01*
X0031012Y0052009D01*
X0030797Y0052752D01*
X0030600Y0053499D01*
X0030421Y0054251D01*
X0030261Y0055007D01*
X0030120Y0055767D01*
X0029997Y0056531D01*
X0029893Y0057297D01*
X0029808Y0058065D01*
X0029741Y0058835D01*
X0029694Y0059607D01*
X0029665Y0060379D01*
X0029656Y0061152D01*
X0299342Y0123161D02*
X0300708Y0123225D01*
X0302073Y0123323D01*
X0303435Y0123454D01*
X0304794Y0123619D01*
X0306148Y0123816D01*
X0307497Y0124046D01*
X0308840Y0124310D01*
X0310176Y0124605D01*
X0311504Y0124934D01*
X0312824Y0125294D01*
X0314135Y0125687D01*
X0315436Y0126111D01*
X0316726Y0126567D01*
X0318005Y0127055D01*
X0319271Y0127573D01*
X0320524Y0128122D01*
X0321764Y0128702D01*
X0322989Y0129311D01*
X0324199Y0129951D01*
X0325393Y0130619D01*
X0326570Y0131316D01*
X0327730Y0132042D01*
X0328872Y0132796D01*
X0329996Y0133578D01*
X0331099Y0134387D01*
X0332183Y0135222D01*
X0333246Y0136084D01*
X0334288Y0136971D01*
X0335308Y0137883D01*
X0336305Y0138820D01*
X0337280Y0139781D01*
X0338230Y0140765D01*
X0339156Y0141773D01*
X0340058Y0142802D01*
X0340934Y0143854D01*
X0341784Y0144926D01*
X0342608Y0146018D01*
X0343404Y0147131D01*
X0344174Y0148262D01*
X0344916Y0149412D01*
X0345629Y0150580D01*
X0346314Y0151765D01*
X0346970Y0152966D01*
X0347596Y0154183D01*
X0348192Y0155414D01*
X0348758Y0156660D01*
X0349294Y0157919D01*
X0349799Y0159191D01*
X0350273Y0160475D01*
X0350715Y0161770D01*
X0351125Y0163075D01*
X0351504Y0164390D01*
X0351850Y0165714D01*
X0352164Y0167046D01*
X0352446Y0168385D01*
X0352695Y0169730D01*
X0352911Y0171082D01*
X0353094Y0172438D01*
X0353243Y0173798D01*
X0353360Y0175161D01*
X0353443Y0176527D01*
X0353493Y0177895D01*
X0353510Y0179263D01*
X0353493Y0180631D01*
X0353443Y0181999D01*
X0353360Y0183365D01*
X0353243Y0184728D01*
X0353094Y0186088D01*
X0352911Y0187444D01*
X0352695Y0188796D01*
X0352446Y0190141D01*
X0352164Y0191480D01*
X0351850Y0192812D01*
X0351504Y0194136D01*
X0351125Y0195451D01*
X0350715Y0196756D01*
X0350273Y0198051D01*
X0349799Y0199335D01*
X0349294Y0200607D01*
X0348758Y0201866D01*
X0348192Y0203112D01*
X0347596Y0204343D01*
X0346970Y0205560D01*
X0346314Y0206761D01*
X0345629Y0207946D01*
X0344916Y0209114D01*
X0344174Y0210264D01*
X0343404Y0211395D01*
X0342608Y0212508D01*
X0341784Y0213600D01*
X0340934Y0214672D01*
X0340058Y0215724D01*
X0339156Y0216753D01*
X0338230Y0217761D01*
X0337280Y0218745D01*
X0336305Y0219706D01*
X0335308Y0220643D01*
X0334288Y0221555D01*
X0333246Y0222442D01*
X0332183Y0223304D01*
X0331099Y0224139D01*
X0329996Y0224948D01*
X0328872Y0225730D01*
X0327730Y0226484D01*
X0326570Y0227210D01*
X0325393Y0227907D01*
X0324199Y0228575D01*
X0322989Y0229215D01*
X0321764Y0229824D01*
X0320524Y0230404D01*
X0319271Y0230953D01*
X0318005Y0231471D01*
X0316726Y0231959D01*
X0315436Y0232415D01*
X0314135Y0232839D01*
X0312824Y0233232D01*
X0311504Y0233592D01*
X0310176Y0233921D01*
X0308840Y0234216D01*
X0307497Y0234480D01*
X0306148Y0234710D01*
X0304794Y0234907D01*
X0303435Y0235072D01*
X0302073Y0235203D01*
X0300708Y0235301D01*
X0299342Y0235365D01*
X0334282Y0285562D02*
X0334282Y0309184D01*
X0334284Y0309282D01*
X0334290Y0309380D01*
X0334299Y0309477D01*
X0334313Y0309574D01*
X0334330Y0309670D01*
X0334352Y0309766D01*
X0334377Y0309860D01*
X0334405Y0309954D01*
X0334438Y0310046D01*
X0334474Y0310137D01*
X0334514Y0310227D01*
X0334557Y0310314D01*
X0334604Y0310400D01*
X0334654Y0310484D01*
X0334707Y0310566D01*
X0334764Y0310646D01*
X0334823Y0310724D01*
X0334886Y0310799D01*
X0334952Y0310872D01*
X0335020Y0310941D01*
X0335091Y0311009D01*
X0335165Y0311073D01*
X0335242Y0311134D01*
X0335320Y0311192D01*
X0335401Y0311247D01*
X0335484Y0311299D01*
X0335569Y0311347D01*
X0335656Y0311392D01*
X0335745Y0311434D01*
X0335835Y0311471D01*
X0335927Y0311506D01*
X0336020Y0311536D01*
X0336114Y0311563D01*
X0336209Y0311586D01*
X0336305Y0311606D01*
X0336402Y0311621D01*
X0336499Y0311633D01*
X0336596Y0311641D01*
X0336694Y0311645D01*
X0336792Y0311645D01*
X0336890Y0311641D01*
X0336987Y0311633D01*
X0337084Y0311621D01*
X0337181Y0311606D01*
X0337277Y0311586D01*
X0337372Y0311563D01*
X0337466Y0311536D01*
X0337559Y0311506D01*
X0337651Y0311471D01*
X0337741Y0311434D01*
X0337830Y0311392D01*
X0337917Y0311347D01*
X0338002Y0311299D01*
X0338085Y0311247D01*
X0338166Y0311192D01*
X0338244Y0311134D01*
X0338321Y0311073D01*
X0338395Y0311009D01*
X0338466Y0310941D01*
X0338534Y0310872D01*
X0338600Y0310799D01*
X0338663Y0310724D01*
X0338722Y0310646D01*
X0338779Y0310566D01*
X0338832Y0310484D01*
X0338882Y0310400D01*
X0338929Y0310314D01*
X0338972Y0310227D01*
X0339012Y0310137D01*
X0339048Y0310046D01*
X0339081Y0309954D01*
X0339109Y0309860D01*
X0339134Y0309766D01*
X0339156Y0309670D01*
X0339173Y0309574D01*
X0339187Y0309477D01*
X0339196Y0309380D01*
X0339202Y0309282D01*
X0339204Y0309184D01*
X0339204Y0285562D01*
X0339202Y0285464D01*
X0339196Y0285366D01*
X0339187Y0285269D01*
X0339173Y0285172D01*
X0339156Y0285076D01*
X0339134Y0284980D01*
X0339109Y0284886D01*
X0339081Y0284792D01*
X0339048Y0284700D01*
X0339012Y0284609D01*
X0338972Y0284519D01*
X0338929Y0284432D01*
X0338882Y0284346D01*
X0338832Y0284262D01*
X0338779Y0284180D01*
X0338722Y0284100D01*
X0338663Y0284022D01*
X0338600Y0283947D01*
X0338534Y0283874D01*
X0338466Y0283805D01*
X0338395Y0283737D01*
X0338321Y0283673D01*
X0338244Y0283612D01*
X0338166Y0283554D01*
X0338085Y0283499D01*
X0338002Y0283447D01*
X0337917Y0283399D01*
X0337830Y0283354D01*
X0337741Y0283312D01*
X0337651Y0283275D01*
X0337559Y0283240D01*
X0337466Y0283210D01*
X0337372Y0283183D01*
X0337277Y0283160D01*
X0337181Y0283140D01*
X0337084Y0283125D01*
X0336987Y0283113D01*
X0336890Y0283105D01*
X0336792Y0283101D01*
X0336694Y0283101D01*
X0336596Y0283105D01*
X0336499Y0283113D01*
X0336402Y0283125D01*
X0336305Y0283140D01*
X0336209Y0283160D01*
X0336114Y0283183D01*
X0336020Y0283210D01*
X0335927Y0283240D01*
X0335835Y0283275D01*
X0335745Y0283312D01*
X0335656Y0283354D01*
X0335569Y0283399D01*
X0335484Y0283447D01*
X0335401Y0283499D01*
X0335320Y0283554D01*
X0335242Y0283612D01*
X0335165Y0283673D01*
X0335091Y0283737D01*
X0335020Y0283805D01*
X0334952Y0283874D01*
X0334886Y0283947D01*
X0334823Y0284022D01*
X0334764Y0284100D01*
X0334707Y0284180D01*
X0334654Y0284262D01*
X0334604Y0284346D01*
X0334557Y0284432D01*
X0334514Y0284519D01*
X0334474Y0284609D01*
X0334438Y0284700D01*
X0334405Y0284792D01*
X0334377Y0284886D01*
X0334352Y0284980D01*
X0334330Y0285076D01*
X0334313Y0285172D01*
X0334299Y0285269D01*
X0334290Y0285366D01*
X0334284Y0285464D01*
X0334282Y0285562D01*
X0336743Y0285562D02*
X0336743Y0309184D01*
X0295404Y0241271D02*
X0294047Y0241335D01*
X0292692Y0241431D01*
X0291340Y0241561D01*
X0289991Y0241724D01*
X0288646Y0241919D01*
X0287306Y0242146D01*
X0285973Y0242406D01*
X0284646Y0242698D01*
X0283326Y0243022D01*
X0282015Y0243378D01*
X0280713Y0243765D01*
X0279420Y0244184D01*
X0278138Y0244634D01*
X0276867Y0245115D01*
X0275609Y0245627D01*
X0274363Y0246169D01*
X0273130Y0246740D01*
X0271912Y0247342D01*
X0270709Y0247973D01*
X0269521Y0248633D01*
X0268349Y0249321D01*
X0267195Y0250037D01*
X0266058Y0250782D01*
X0264940Y0251553D01*
X0263840Y0252352D01*
X0262761Y0253176D01*
X0261701Y0254027D01*
X0260663Y0254903D01*
X0259645Y0255804D01*
X0258650Y0256729D01*
X0257678Y0257678D01*
X0256729Y0258650D01*
X0255804Y0259645D01*
X0254903Y0260663D01*
X0254027Y0261701D01*
X0253176Y0262761D01*
X0252352Y0263840D01*
X0251553Y0264940D01*
X0250782Y0266058D01*
X0250037Y0267195D01*
X0249321Y0268349D01*
X0248633Y0269521D01*
X0247973Y0270709D01*
X0247342Y0271912D01*
X0246740Y0273130D01*
X0246169Y0274363D01*
X0245627Y0275609D01*
X0245115Y0276867D01*
X0244634Y0278138D01*
X0244184Y0279420D01*
X0243765Y0280713D01*
X0243378Y0282015D01*
X0243022Y0283326D01*
X0242698Y0284646D01*
X0242406Y0285973D01*
X0242146Y0287306D01*
X0241919Y0288646D01*
X0241724Y0289991D01*
X0241561Y0291340D01*
X0241431Y0292692D01*
X0241335Y0294047D01*
X0241271Y0295404D01*
X0241271Y0299342D02*
X0241335Y0300712D01*
X0241434Y0302080D01*
X0241565Y0303445D01*
X0241730Y0304806D01*
X0241929Y0306164D01*
X0242160Y0307515D01*
X0242424Y0308861D01*
X0242721Y0310200D01*
X0243051Y0311532D01*
X0243413Y0312855D01*
X0243807Y0314168D01*
X0244234Y0315472D01*
X0244692Y0316765D01*
X0245181Y0318046D01*
X0245702Y0319315D01*
X0246253Y0320571D01*
X0246835Y0321812D01*
X0247447Y0323040D01*
X0248089Y0324252D01*
X0248761Y0325448D01*
X0249461Y0326627D01*
X0250190Y0327789D01*
X0250947Y0328933D01*
X0251732Y0330057D01*
X0252544Y0331163D01*
X0253383Y0332248D01*
X0254248Y0333312D01*
X0255139Y0334355D01*
X0256055Y0335376D01*
X0256996Y0336374D01*
X0257961Y0337348D01*
X0258949Y0338299D01*
X0259960Y0339226D01*
X0260994Y0340127D01*
X0262049Y0341003D01*
X0263126Y0341853D01*
X0264223Y0342677D01*
X0265339Y0343473D01*
X0266475Y0344242D01*
X0267630Y0344983D01*
X0268802Y0345695D01*
X0269991Y0346379D01*
X0271196Y0347033D01*
X0272417Y0347658D01*
X0273653Y0348252D01*
X0274903Y0348817D01*
X0276167Y0349350D01*
X0277443Y0349853D01*
X0278731Y0350324D01*
X0280030Y0350764D01*
X0281339Y0351172D01*
X0282659Y0351547D01*
X0283986Y0351891D01*
X0285322Y0352201D01*
X0286665Y0352479D01*
X0288015Y0352725D01*
X0289370Y0352937D01*
X0290730Y0353116D01*
X0292094Y0353261D01*
X0293461Y0353373D01*
X0294830Y0353452D01*
X0296201Y0353498D01*
X0297572Y0353510D01*
X0298943Y0353488D01*
X0300314Y0353433D01*
X0301683Y0353344D01*
X0303049Y0353222D01*
X0304411Y0353067D01*
X0305770Y0352878D01*
X0307124Y0352657D01*
X0308471Y0352402D01*
X0309812Y0352114D01*
X0311146Y0351794D01*
X0312471Y0351442D01*
X0313788Y0351057D01*
X0315094Y0350639D01*
X0316390Y0350191D01*
X0317675Y0349710D01*
X0318948Y0349199D01*
X0320207Y0348656D01*
X0321453Y0348083D01*
X0322685Y0347480D01*
X0323902Y0346846D01*
X0325102Y0346183D01*
X0326287Y0345491D01*
X0327453Y0344771D01*
X0328602Y0344022D01*
X0329733Y0343245D01*
X0330844Y0342440D01*
X0331935Y0341609D01*
X0333005Y0340752D01*
X0334054Y0339868D01*
X0335082Y0338959D01*
X0336086Y0338026D01*
X0337068Y0337068D01*
X0338026Y0336086D01*
X0338959Y0335082D01*
X0339868Y0334054D01*
X0340752Y0333005D01*
X0341609Y0331935D01*
X0342440Y0330844D01*
X0343245Y0329733D01*
X0344022Y0328602D01*
X0344771Y0327453D01*
X0345491Y0326287D01*
X0346183Y0325102D01*
X0346846Y0323902D01*
X0347480Y0322685D01*
X0348083Y0321453D01*
X0348656Y0320207D01*
X0349199Y0318948D01*
X0349710Y0317675D01*
X0350191Y0316390D01*
X0350639Y0315094D01*
X0351057Y0313788D01*
X0351442Y0312471D01*
X0351794Y0311146D01*
X0352114Y0309812D01*
X0352402Y0308471D01*
X0352657Y0307124D01*
X0352878Y0305770D01*
X0353067Y0304411D01*
X0353222Y0303049D01*
X0353344Y0301683D01*
X0353433Y0300314D01*
X0353488Y0298943D01*
X0353510Y0297572D01*
X0353498Y0296201D01*
X0353452Y0294830D01*
X0353373Y0293461D01*
X0353261Y0292094D01*
X0353116Y0290730D01*
X0352937Y0289370D01*
X0352725Y0288015D01*
X0352479Y0286665D01*
X0352201Y0285322D01*
X0351891Y0283986D01*
X0351547Y0282659D01*
X0351172Y0281339D01*
X0350764Y0280030D01*
X0350324Y0278731D01*
X0349853Y0277443D01*
X0349350Y0276167D01*
X0348817Y0274903D01*
X0348252Y0273653D01*
X0347658Y0272417D01*
X0347033Y0271196D01*
X0346379Y0269991D01*
X0345695Y0268802D01*
X0344983Y0267630D01*
X0344242Y0266475D01*
X0343473Y0265339D01*
X0342677Y0264223D01*
X0341853Y0263126D01*
X0341003Y0262049D01*
X0340127Y0260994D01*
X0339226Y0259960D01*
X0338299Y0258949D01*
X0337348Y0257961D01*
X0336374Y0256996D01*
X0335376Y0256055D01*
X0334355Y0255139D01*
X0333312Y0254248D01*
X0332248Y0253383D01*
X0331163Y0252544D01*
X0330057Y0251732D01*
X0328933Y0250947D01*
X0327789Y0250190D01*
X0326627Y0249461D01*
X0325448Y0248761D01*
X0324252Y0248089D01*
X0323040Y0247447D01*
X0321812Y0246835D01*
X0320571Y0246253D01*
X0319315Y0245702D01*
X0318046Y0245181D01*
X0316765Y0244692D01*
X0315472Y0244234D01*
X0314168Y0243807D01*
X0312855Y0243413D01*
X0311532Y0243051D01*
X0310200Y0242721D01*
X0308861Y0242424D01*
X0307515Y0242160D01*
X0306164Y0241929D01*
X0304806Y0241730D01*
X0303445Y0241565D01*
X0302080Y0241434D01*
X0300712Y0241335D01*
X0299342Y0241271D01*
X0265877Y0297373D02*
X0265886Y0298146D01*
X0265915Y0298918D01*
X0265962Y0299690D01*
X0266029Y0300460D01*
X0266114Y0301228D01*
X0266218Y0301994D01*
X0266341Y0302758D01*
X0266482Y0303518D01*
X0266642Y0304274D01*
X0266821Y0305026D01*
X0267018Y0305773D01*
X0267233Y0306516D01*
X0267467Y0307253D01*
X0267718Y0307984D01*
X0267987Y0308708D01*
X0268274Y0309426D01*
X0268579Y0310136D01*
X0268901Y0310839D01*
X0269240Y0311534D01*
X0269596Y0312220D01*
X0269969Y0312897D01*
X0270358Y0313565D01*
X0270763Y0314223D01*
X0271185Y0314871D01*
X0271622Y0315509D01*
X0272075Y0316135D01*
X0272543Y0316750D01*
X0273026Y0317354D01*
X0273524Y0317945D01*
X0274036Y0318524D01*
X0274562Y0319091D01*
X0275102Y0319644D01*
X0275655Y0320184D01*
X0276222Y0320710D01*
X0276801Y0321222D01*
X0277392Y0321720D01*
X0277996Y0322203D01*
X0278611Y0322671D01*
X0279237Y0323124D01*
X0279875Y0323561D01*
X0280523Y0323983D01*
X0281181Y0324388D01*
X0281849Y0324777D01*
X0282526Y0325150D01*
X0283212Y0325506D01*
X0283907Y0325845D01*
X0284610Y0326167D01*
X0285320Y0326472D01*
X0286038Y0326759D01*
X0286762Y0327028D01*
X0287493Y0327279D01*
X0288230Y0327513D01*
X0288973Y0327728D01*
X0289720Y0327925D01*
X0290472Y0328104D01*
X0291228Y0328264D01*
X0291988Y0328405D01*
X0292752Y0328528D01*
X0293518Y0328632D01*
X0294286Y0328717D01*
X0295056Y0328784D01*
X0295828Y0328831D01*
X0296600Y0328860D01*
X0297373Y0328869D01*
X0298146Y0328860D01*
X0298918Y0328831D01*
X0299690Y0328784D01*
X0300460Y0328717D01*
X0301228Y0328632D01*
X0301994Y0328528D01*
X0302758Y0328405D01*
X0303518Y0328264D01*
X0304274Y0328104D01*
X0305026Y0327925D01*
X0305773Y0327728D01*
X0306516Y0327513D01*
X0307253Y0327279D01*
X0307984Y0327028D01*
X0308708Y0326759D01*
X0309426Y0326472D01*
X0310136Y0326167D01*
X0310839Y0325845D01*
X0311534Y0325506D01*
X0312220Y0325150D01*
X0312897Y0324777D01*
X0313565Y0324388D01*
X0314223Y0323983D01*
X0314871Y0323561D01*
X0315509Y0323124D01*
X0316135Y0322671D01*
X0316750Y0322203D01*
X0317354Y0321720D01*
X0317945Y0321222D01*
X0318524Y0320710D01*
X0319091Y0320184D01*
X0319644Y0319644D01*
X0320184Y0319091D01*
X0320710Y0318524D01*
X0321222Y0317945D01*
X0321720Y0317354D01*
X0322203Y0316750D01*
X0322671Y0316135D01*
X0323124Y0315509D01*
X0323561Y0314871D01*
X0323983Y0314223D01*
X0324388Y0313565D01*
X0324777Y0312897D01*
X0325150Y0312220D01*
X0325506Y0311534D01*
X0325845Y0310839D01*
X0326167Y0310136D01*
X0326472Y0309426D01*
X0326759Y0308708D01*
X0327028Y0307984D01*
X0327279Y0307253D01*
X0327513Y0306516D01*
X0327728Y0305773D01*
X0327925Y0305026D01*
X0328104Y0304274D01*
X0328264Y0303518D01*
X0328405Y0302758D01*
X0328528Y0301994D01*
X0328632Y0301228D01*
X0328717Y0300460D01*
X0328784Y0299690D01*
X0328831Y0298918D01*
X0328860Y0298146D01*
X0328869Y0297373D01*
X0328860Y0296600D01*
X0328831Y0295828D01*
X0328784Y0295056D01*
X0328717Y0294286D01*
X0328632Y0293518D01*
X0328528Y0292752D01*
X0328405Y0291988D01*
X0328264Y0291228D01*
X0328104Y0290472D01*
X0327925Y0289720D01*
X0327728Y0288973D01*
X0327513Y0288230D01*
X0327279Y0287493D01*
X0327028Y0286762D01*
X0326759Y0286038D01*
X0326472Y0285320D01*
X0326167Y0284610D01*
X0325845Y0283907D01*
X0325506Y0283212D01*
X0325150Y0282526D01*
X0324777Y0281849D01*
X0324388Y0281181D01*
X0323983Y0280523D01*
X0323561Y0279875D01*
X0323124Y0279237D01*
X0322671Y0278611D01*
X0322203Y0277996D01*
X0321720Y0277392D01*
X0321222Y0276801D01*
X0320710Y0276222D01*
X0320184Y0275655D01*
X0319644Y0275102D01*
X0319091Y0274562D01*
X0318524Y0274036D01*
X0317945Y0273524D01*
X0317354Y0273026D01*
X0316750Y0272543D01*
X0316135Y0272075D01*
X0315509Y0271622D01*
X0314871Y0271185D01*
X0314223Y0270763D01*
X0313565Y0270358D01*
X0312897Y0269969D01*
X0312220Y0269596D01*
X0311534Y0269240D01*
X0310839Y0268901D01*
X0310136Y0268579D01*
X0309426Y0268274D01*
X0308708Y0267987D01*
X0307984Y0267718D01*
X0307253Y0267467D01*
X0306516Y0267233D01*
X0305773Y0267018D01*
X0305026Y0266821D01*
X0304274Y0266642D01*
X0303518Y0266482D01*
X0302758Y0266341D01*
X0301994Y0266218D01*
X0301228Y0266114D01*
X0300460Y0266029D01*
X0299690Y0265962D01*
X0298918Y0265915D01*
X0298146Y0265886D01*
X0297373Y0265877D01*
X0296600Y0265886D01*
X0295828Y0265915D01*
X0295056Y0265962D01*
X0294286Y0266029D01*
X0293518Y0266114D01*
X0292752Y0266218D01*
X0291988Y0266341D01*
X0291228Y0266482D01*
X0290472Y0266642D01*
X0289720Y0266821D01*
X0288973Y0267018D01*
X0288230Y0267233D01*
X0287493Y0267467D01*
X0286762Y0267718D01*
X0286038Y0267987D01*
X0285320Y0268274D01*
X0284610Y0268579D01*
X0283907Y0268901D01*
X0283212Y0269240D01*
X0282526Y0269596D01*
X0281849Y0269969D01*
X0281181Y0270358D01*
X0280523Y0270763D01*
X0279875Y0271185D01*
X0279237Y0271622D01*
X0278611Y0272075D01*
X0277996Y0272543D01*
X0277392Y0273026D01*
X0276801Y0273524D01*
X0276222Y0274036D01*
X0275655Y0274562D01*
X0275102Y0275102D01*
X0274562Y0275655D01*
X0274036Y0276222D01*
X0273524Y0276801D01*
X0273026Y0277392D01*
X0272543Y0277996D01*
X0272075Y0278611D01*
X0271622Y0279237D01*
X0271185Y0279875D01*
X0270763Y0280523D01*
X0270358Y0281181D01*
X0269969Y0281849D01*
X0269596Y0282526D01*
X0269240Y0283212D01*
X0268901Y0283907D01*
X0268579Y0284610D01*
X0268274Y0285320D01*
X0267987Y0286038D01*
X0267718Y0286762D01*
X0267467Y0287493D01*
X0267233Y0288230D01*
X0267018Y0288973D01*
X0266821Y0289720D01*
X0266642Y0290472D01*
X0266482Y0291228D01*
X0266341Y0291988D01*
X0266218Y0292752D01*
X0266114Y0293518D01*
X0266029Y0294286D01*
X0265962Y0295056D01*
X0265915Y0295828D01*
X0265886Y0296600D01*
X0265877Y0297373D01*
X0241271Y0177294D02*
X0241335Y0175937D01*
X0241431Y0174582D01*
X0241561Y0173230D01*
X0241724Y0171881D01*
X0241919Y0170536D01*
X0242146Y0169196D01*
X0242406Y0167863D01*
X0242698Y0166536D01*
X0243022Y0165216D01*
X0243378Y0163905D01*
X0243765Y0162603D01*
X0244184Y0161310D01*
X0244634Y0160028D01*
X0245115Y0158757D01*
X0245627Y0157499D01*
X0246169Y0156253D01*
X0246740Y0155020D01*
X0247342Y0153802D01*
X0247973Y0152599D01*
X0248633Y0151411D01*
X0249321Y0150239D01*
X0250037Y0149085D01*
X0250782Y0147948D01*
X0251553Y0146830D01*
X0252352Y0145730D01*
X0253176Y0144651D01*
X0254027Y0143591D01*
X0254903Y0142553D01*
X0255804Y0141535D01*
X0256729Y0140540D01*
X0257678Y0139568D01*
X0258650Y0138619D01*
X0259645Y0137694D01*
X0260663Y0136793D01*
X0261701Y0135917D01*
X0262761Y0135066D01*
X0263840Y0134242D01*
X0264940Y0133443D01*
X0266058Y0132672D01*
X0267195Y0131927D01*
X0268349Y0131211D01*
X0269521Y0130523D01*
X0270709Y0129863D01*
X0271912Y0129232D01*
X0273130Y0128630D01*
X0274363Y0128059D01*
X0275609Y0127517D01*
X0276867Y0127005D01*
X0278138Y0126524D01*
X0279420Y0126074D01*
X0280713Y0125655D01*
X0282015Y0125268D01*
X0283326Y0124912D01*
X0284646Y0124588D01*
X0285973Y0124296D01*
X0287306Y0124036D01*
X0288646Y0123809D01*
X0289991Y0123614D01*
X0291340Y0123451D01*
X0292692Y0123321D01*
X0294047Y0123225D01*
X0295404Y0123161D01*
X0241271Y0181232D02*
X0241335Y0182589D01*
X0241431Y0183944D01*
X0241561Y0185296D01*
X0241724Y0186645D01*
X0241919Y0187990D01*
X0242146Y0189330D01*
X0242406Y0190663D01*
X0242698Y0191990D01*
X0243022Y0193310D01*
X0243378Y0194621D01*
X0243765Y0195923D01*
X0244184Y0197216D01*
X0244634Y0198498D01*
X0245115Y0199769D01*
X0245627Y0201027D01*
X0246169Y0202273D01*
X0246740Y0203506D01*
X0247342Y0204724D01*
X0247973Y0205927D01*
X0248633Y0207115D01*
X0249321Y0208287D01*
X0250037Y0209441D01*
X0250782Y0210578D01*
X0251553Y0211696D01*
X0252352Y0212796D01*
X0253176Y0213875D01*
X0254027Y0214935D01*
X0254903Y0215973D01*
X0255804Y0216991D01*
X0256729Y0217986D01*
X0257678Y0218958D01*
X0258650Y0219907D01*
X0259645Y0220832D01*
X0260663Y0221733D01*
X0261701Y0222609D01*
X0262761Y0223460D01*
X0263840Y0224284D01*
X0264940Y0225083D01*
X0266058Y0225854D01*
X0267195Y0226599D01*
X0268349Y0227315D01*
X0269521Y0228003D01*
X0270709Y0228663D01*
X0271912Y0229294D01*
X0273130Y0229896D01*
X0274363Y0230467D01*
X0275609Y0231009D01*
X0276867Y0231521D01*
X0278138Y0232002D01*
X0279420Y0232452D01*
X0280713Y0232871D01*
X0282015Y0233258D01*
X0283326Y0233614D01*
X0284646Y0233938D01*
X0285973Y0234230D01*
X0287306Y0234490D01*
X0288646Y0234717D01*
X0289991Y0234912D01*
X0291340Y0235075D01*
X0292692Y0235205D01*
X0294047Y0235301D01*
X0295404Y0235365D01*
X0265877Y0179263D02*
X0265886Y0180036D01*
X0265915Y0180808D01*
X0265962Y0181580D01*
X0266029Y0182350D01*
X0266114Y0183118D01*
X0266218Y0183884D01*
X0266341Y0184648D01*
X0266482Y0185408D01*
X0266642Y0186164D01*
X0266821Y0186916D01*
X0267018Y0187663D01*
X0267233Y0188406D01*
X0267467Y0189143D01*
X0267718Y0189874D01*
X0267987Y0190598D01*
X0268274Y0191316D01*
X0268579Y0192026D01*
X0268901Y0192729D01*
X0269240Y0193424D01*
X0269596Y0194110D01*
X0269969Y0194787D01*
X0270358Y0195455D01*
X0270763Y0196113D01*
X0271185Y0196761D01*
X0271622Y0197399D01*
X0272075Y0198025D01*
X0272543Y0198640D01*
X0273026Y0199244D01*
X0273524Y0199835D01*
X0274036Y0200414D01*
X0274562Y0200981D01*
X0275102Y0201534D01*
X0275655Y0202074D01*
X0276222Y0202600D01*
X0276801Y0203112D01*
X0277392Y0203610D01*
X0277996Y0204093D01*
X0278611Y0204561D01*
X0279237Y0205014D01*
X0279875Y0205451D01*
X0280523Y0205873D01*
X0281181Y0206278D01*
X0281849Y0206667D01*
X0282526Y0207040D01*
X0283212Y0207396D01*
X0283907Y0207735D01*
X0284610Y0208057D01*
X0285320Y0208362D01*
X0286038Y0208649D01*
X0286762Y0208918D01*
X0287493Y0209169D01*
X0288230Y0209403D01*
X0288973Y0209618D01*
X0289720Y0209815D01*
X0290472Y0209994D01*
X0291228Y0210154D01*
X0291988Y0210295D01*
X0292752Y0210418D01*
X0293518Y0210522D01*
X0294286Y0210607D01*
X0295056Y0210674D01*
X0295828Y0210721D01*
X0296600Y0210750D01*
X0297373Y0210759D01*
X0298146Y0210750D01*
X0298918Y0210721D01*
X0299690Y0210674D01*
X0300460Y0210607D01*
X0301228Y0210522D01*
X0301994Y0210418D01*
X0302758Y0210295D01*
X0303518Y0210154D01*
X0304274Y0209994D01*
X0305026Y0209815D01*
X0305773Y0209618D01*
X0306516Y0209403D01*
X0307253Y0209169D01*
X0307984Y0208918D01*
X0308708Y0208649D01*
X0309426Y0208362D01*
X0310136Y0208057D01*
X0310839Y0207735D01*
X0311534Y0207396D01*
X0312220Y0207040D01*
X0312897Y0206667D01*
X0313565Y0206278D01*
X0314223Y0205873D01*
X0314871Y0205451D01*
X0315509Y0205014D01*
X0316135Y0204561D01*
X0316750Y0204093D01*
X0317354Y0203610D01*
X0317945Y0203112D01*
X0318524Y0202600D01*
X0319091Y0202074D01*
X0319644Y0201534D01*
X0320184Y0200981D01*
X0320710Y0200414D01*
X0321222Y0199835D01*
X0321720Y0199244D01*
X0322203Y0198640D01*
X0322671Y0198025D01*
X0323124Y0197399D01*
X0323561Y0196761D01*
X0323983Y0196113D01*
X0324388Y0195455D01*
X0324777Y0194787D01*
X0325150Y0194110D01*
X0325506Y0193424D01*
X0325845Y0192729D01*
X0326167Y0192026D01*
X0326472Y0191316D01*
X0326759Y0190598D01*
X0327028Y0189874D01*
X0327279Y0189143D01*
X0327513Y0188406D01*
X0327728Y0187663D01*
X0327925Y0186916D01*
X0328104Y0186164D01*
X0328264Y0185408D01*
X0328405Y0184648D01*
X0328528Y0183884D01*
X0328632Y0183118D01*
X0328717Y0182350D01*
X0328784Y0181580D01*
X0328831Y0180808D01*
X0328860Y0180036D01*
X0328869Y0179263D01*
X0328860Y0178490D01*
X0328831Y0177718D01*
X0328784Y0176946D01*
X0328717Y0176176D01*
X0328632Y0175408D01*
X0328528Y0174642D01*
X0328405Y0173878D01*
X0328264Y0173118D01*
X0328104Y0172362D01*
X0327925Y0171610D01*
X0327728Y0170863D01*
X0327513Y0170120D01*
X0327279Y0169383D01*
X0327028Y0168652D01*
X0326759Y0167928D01*
X0326472Y0167210D01*
X0326167Y0166500D01*
X0325845Y0165797D01*
X0325506Y0165102D01*
X0325150Y0164416D01*
X0324777Y0163739D01*
X0324388Y0163071D01*
X0323983Y0162413D01*
X0323561Y0161765D01*
X0323124Y0161127D01*
X0322671Y0160501D01*
X0322203Y0159886D01*
X0321720Y0159282D01*
X0321222Y0158691D01*
X0320710Y0158112D01*
X0320184Y0157545D01*
X0319644Y0156992D01*
X0319091Y0156452D01*
X0318524Y0155926D01*
X0317945Y0155414D01*
X0317354Y0154916D01*
X0316750Y0154433D01*
X0316135Y0153965D01*
X0315509Y0153512D01*
X0314871Y0153075D01*
X0314223Y0152653D01*
X0313565Y0152248D01*
X0312897Y0151859D01*
X0312220Y0151486D01*
X0311534Y0151130D01*
X0310839Y0150791D01*
X0310136Y0150469D01*
X0309426Y0150164D01*
X0308708Y0149877D01*
X0307984Y0149608D01*
X0307253Y0149357D01*
X0306516Y0149123D01*
X0305773Y0148908D01*
X0305026Y0148711D01*
X0304274Y0148532D01*
X0303518Y0148372D01*
X0302758Y0148231D01*
X0301994Y0148108D01*
X0301228Y0148004D01*
X0300460Y0147919D01*
X0299690Y0147852D01*
X0298918Y0147805D01*
X0298146Y0147776D01*
X0297373Y0147767D01*
X0296600Y0147776D01*
X0295828Y0147805D01*
X0295056Y0147852D01*
X0294286Y0147919D01*
X0293518Y0148004D01*
X0292752Y0148108D01*
X0291988Y0148231D01*
X0291228Y0148372D01*
X0290472Y0148532D01*
X0289720Y0148711D01*
X0288973Y0148908D01*
X0288230Y0149123D01*
X0287493Y0149357D01*
X0286762Y0149608D01*
X0286038Y0149877D01*
X0285320Y0150164D01*
X0284610Y0150469D01*
X0283907Y0150791D01*
X0283212Y0151130D01*
X0282526Y0151486D01*
X0281849Y0151859D01*
X0281181Y0152248D01*
X0280523Y0152653D01*
X0279875Y0153075D01*
X0279237Y0153512D01*
X0278611Y0153965D01*
X0277996Y0154433D01*
X0277392Y0154916D01*
X0276801Y0155414D01*
X0276222Y0155926D01*
X0275655Y0156452D01*
X0275102Y0156992D01*
X0274562Y0157545D01*
X0274036Y0158112D01*
X0273524Y0158691D01*
X0273026Y0159282D01*
X0272543Y0159886D01*
X0272075Y0160501D01*
X0271622Y0161127D01*
X0271185Y0161765D01*
X0270763Y0162413D01*
X0270358Y0163071D01*
X0269969Y0163739D01*
X0269596Y0164416D01*
X0269240Y0165102D01*
X0268901Y0165797D01*
X0268579Y0166500D01*
X0268274Y0167210D01*
X0267987Y0167928D01*
X0267718Y0168652D01*
X0267467Y0169383D01*
X0267233Y0170120D01*
X0267018Y0170863D01*
X0266821Y0171610D01*
X0266642Y0172362D01*
X0266482Y0173118D01*
X0266341Y0173878D01*
X0266218Y0174642D01*
X0266114Y0175408D01*
X0266029Y0176176D01*
X0265962Y0176946D01*
X0265915Y0177718D01*
X0265886Y0178490D01*
X0265877Y0179263D01*
D11*
X0021290Y0021290D03*
X0021782Y0021782D03*
X0022274Y0022274D03*
X0022767Y0022767D03*
X0006526Y0061152D03*
X0006034Y0061152D03*
X0005542Y0061152D03*
X0005050Y0061152D03*
X0022767Y0099538D03*
X0022274Y0100030D03*
X0021782Y0100522D03*
X0021290Y0101015D03*
X0021290Y0139400D03*
X0021782Y0139893D03*
X0022274Y0140385D03*
X0022767Y0140877D03*
X0061152Y0124637D03*
X0061152Y0124144D03*
X0061152Y0123652D03*
X0061152Y0123160D03*
X0061152Y0117255D03*
X0061152Y0116763D03*
X0061152Y0116270D03*
X0061152Y0115778D03*
X0099538Y0099538D03*
X0100030Y0100030D03*
X0100522Y0100522D03*
X0101015Y0101015D03*
X0101015Y0139400D03*
X0100522Y0139893D03*
X0100030Y0140385D03*
X0099538Y0140877D03*
X0139400Y0139400D03*
X0139893Y0139893D03*
X0140385Y0140385D03*
X0140877Y0140877D03*
X0139400Y0101015D03*
X0139893Y0100522D03*
X0140385Y0100030D03*
X0140877Y0099538D03*
X0124637Y0061152D03*
X0124144Y0061152D03*
X0123652Y0061152D03*
X0123160Y0061152D03*
X0117255Y0061152D03*
X0116763Y0061152D03*
X0116270Y0061152D03*
X0115778Y0061152D03*
X0099538Y0022767D03*
X0100030Y0022274D03*
X0100522Y0021782D03*
X0101015Y0021290D03*
X0139400Y0021290D03*
X0139893Y0021782D03*
X0140385Y0022274D03*
X0140877Y0022767D03*
X0179263Y0006526D03*
X0179263Y0006034D03*
X0179263Y0005542D03*
X0179263Y0005050D03*
X0217648Y0022767D03*
X0218141Y0022274D03*
X0218633Y0021782D03*
X0219125Y0021290D03*
X0257511Y0021290D03*
X0258003Y0021782D03*
X0258495Y0022274D03*
X0258987Y0022767D03*
X0297373Y0006526D03*
X0297373Y0006034D03*
X0297373Y0005542D03*
X0297373Y0005050D03*
X0335759Y0022767D03*
X0336251Y0022274D03*
X0336743Y0021782D03*
X0337235Y0021290D03*
X0351999Y0061152D03*
X0352491Y0061152D03*
X0335759Y0099538D03*
X0336251Y0100030D03*
X0336743Y0100522D03*
X0337235Y0101015D03*
X0337235Y0139400D03*
X0336743Y0139893D03*
X0336251Y0140385D03*
X0335759Y0140877D03*
X0351999Y0179263D03*
X0352491Y0179263D03*
X0352983Y0179263D03*
X0353475Y0179263D03*
X0335759Y0217648D03*
X0336251Y0218141D03*
X0336743Y0218633D03*
X0337235Y0219125D03*
X0337235Y0257511D03*
X0336743Y0258003D03*
X0336251Y0258495D03*
X0335759Y0258987D03*
X0351999Y0297373D03*
X0352491Y0297373D03*
X0352983Y0297373D03*
X0353475Y0297373D03*
X0335759Y0335759D03*
X0336251Y0336251D03*
X0336743Y0336743D03*
X0337235Y0337235D03*
X0297373Y0351999D03*
X0297373Y0352491D03*
X0258987Y0335759D03*
X0258495Y0336251D03*
X0258003Y0336743D03*
X0257511Y0337235D03*
X0219125Y0337235D03*
X0218633Y0336743D03*
X0218141Y0336251D03*
X0217648Y0335759D03*
X0179263Y0351999D03*
X0179263Y0352491D03*
X0179263Y0352983D03*
X0179263Y0353475D03*
X0140877Y0335759D03*
X0140385Y0336251D03*
X0139893Y0336743D03*
X0139400Y0337235D03*
X0101015Y0337235D03*
X0100522Y0336743D03*
X0100030Y0336251D03*
X0099538Y0335759D03*
X0061152Y0351999D03*
X0061152Y0352491D03*
X0061152Y0352983D03*
X0061152Y0353475D03*
X0022767Y0335759D03*
X0022274Y0336251D03*
X0021782Y0336743D03*
X0021290Y0337235D03*
X0006526Y0297373D03*
X0006034Y0297373D03*
X0022767Y0258987D03*
X0022274Y0258495D03*
X0021782Y0258003D03*
X0021290Y0257511D03*
X0021290Y0219125D03*
X0021782Y0218633D03*
X0022274Y0218141D03*
X0022767Y0217648D03*
X0006526Y0179263D03*
X0006034Y0179263D03*
X0005542Y0179263D03*
X0005050Y0179263D03*
X0061152Y0233889D03*
X0061152Y0234381D03*
X0061152Y0234873D03*
X0061152Y0235365D03*
X0061152Y0241270D03*
X0061152Y0241763D03*
X0061152Y0242255D03*
X0061152Y0242747D03*
X0099538Y0258987D03*
X0100030Y0258495D03*
X0100522Y0258003D03*
X0101015Y0257511D03*
X0139400Y0257511D03*
X0139893Y0258003D03*
X0140385Y0258495D03*
X0140877Y0258987D03*
X0124637Y0297373D03*
X0124144Y0297373D03*
X0123652Y0297373D03*
X0123160Y0297373D03*
X0117255Y0297373D03*
X0116763Y0297373D03*
X0116270Y0297373D03*
X0115778Y0297373D03*
X0179263Y0242747D03*
X0179263Y0242255D03*
X0179263Y0241763D03*
X0179263Y0241270D03*
X0179263Y0235365D03*
X0179263Y0234873D03*
X0179263Y0234381D03*
X0179263Y0233889D03*
X0217648Y0217648D03*
X0218141Y0218141D03*
X0218633Y0218633D03*
X0219125Y0219125D03*
X0219125Y0257511D03*
X0218633Y0258003D03*
X0218141Y0258495D03*
X0217648Y0258987D03*
X0233889Y0297373D03*
X0234381Y0297373D03*
X0234873Y0297373D03*
X0235365Y0297373D03*
X0241270Y0297373D03*
X0241763Y0297373D03*
X0242255Y0297373D03*
X0242747Y0297373D03*
X0258987Y0258987D03*
X0258495Y0258495D03*
X0258003Y0258003D03*
X0257511Y0257511D03*
X0257511Y0219125D03*
X0258003Y0218633D03*
X0258495Y0218141D03*
X0258987Y0217648D03*
X0242747Y0179263D03*
X0242255Y0179263D03*
X0241763Y0179263D03*
X0241270Y0179263D03*
X0235365Y0179263D03*
X0234873Y0179263D03*
X0234381Y0179263D03*
X0233889Y0179263D03*
X0217648Y0140877D03*
X0218141Y0140385D03*
X0218633Y0139893D03*
X0219125Y0139400D03*
X0219125Y0101015D03*
X0218633Y0100522D03*
X0218141Y0100030D03*
X0217648Y0099538D03*
X0179263Y0115778D03*
X0179263Y0116270D03*
X0179263Y0116763D03*
X0179263Y0117255D03*
X0179263Y0123160D03*
X0179263Y0123652D03*
X0179263Y0124144D03*
X0179263Y0124637D03*
X0124637Y0179263D03*
X0124144Y0179263D03*
X0123652Y0179263D03*
X0123160Y0179263D03*
X0117255Y0179263D03*
X0116763Y0179263D03*
X0116270Y0179263D03*
X0115778Y0179263D03*
X0099538Y0217648D03*
X0100030Y0218141D03*
X0100522Y0218633D03*
X0101015Y0219125D03*
X0139400Y0219125D03*
X0139893Y0218633D03*
X0140385Y0218141D03*
X0140877Y0217648D03*
X0257511Y0139400D03*
X0258003Y0139893D03*
X0258495Y0140385D03*
X0258987Y0140877D03*
X0297373Y0124637D03*
X0297373Y0124144D03*
X0297373Y0123652D03*
X0297373Y0123160D03*
X0297373Y0117255D03*
X0297373Y0116763D03*
X0297373Y0116270D03*
X0297373Y0115778D03*
X0258987Y0099538D03*
X0258495Y0100030D03*
X0258003Y0100522D03*
X0257511Y0101015D03*
X0242747Y0061152D03*
X0242255Y0061152D03*
X0241763Y0061152D03*
X0241270Y0061152D03*
X0235365Y0061152D03*
X0234873Y0061152D03*
X0234381Y0061152D03*
X0233889Y0061152D03*
X0061152Y0006526D03*
X0061152Y0006034D03*
X0061152Y0005542D03*
X0061152Y0005050D03*
X0297373Y0233889D03*
X0297373Y0234381D03*
X0297373Y0234873D03*
X0297373Y0235365D03*
X0297373Y0241270D03*
X0297373Y0241763D03*
X0297373Y0242255D03*
X0297373Y0242747D03*
D12*
X0297373Y0218633D03*
X0298357Y0218633D03*
X0299341Y0218633D03*
X0300326Y0218633D03*
X0301310Y0218633D03*
X0302294Y0218633D03*
X0303278Y0218633D03*
X0304263Y0218633D03*
X0305247Y0218633D03*
X0306231Y0218633D03*
X0307215Y0218633D03*
X0308200Y0218633D03*
X0309184Y0218633D03*
X0296389Y0218633D03*
X0295404Y0218633D03*
X0294420Y0218633D03*
X0293436Y0218633D03*
X0292452Y0218633D03*
X0291467Y0218633D03*
X0290483Y0218633D03*
X0289499Y0218633D03*
X0288515Y0218633D03*
X0287530Y0218633D03*
X0286546Y0218633D03*
X0285562Y0218633D03*
X0258003Y0285562D03*
X0258003Y0286546D03*
X0258003Y0287530D03*
X0258003Y0288515D03*
X0258003Y0289499D03*
X0258003Y0290483D03*
X0258003Y0291467D03*
X0258003Y0292452D03*
X0258003Y0293436D03*
X0258003Y0294420D03*
X0258003Y0295404D03*
X0258003Y0296389D03*
X0258003Y0297373D03*
X0258003Y0298357D03*
X0258003Y0299341D03*
X0258003Y0300326D03*
X0258003Y0301310D03*
X0258003Y0302294D03*
X0258003Y0303278D03*
X0258003Y0304263D03*
X0258003Y0305247D03*
X0258003Y0306231D03*
X0258003Y0307215D03*
X0258003Y0308200D03*
X0258003Y0309184D03*
X0218633Y0309184D03*
X0218633Y0308200D03*
X0218633Y0307215D03*
X0218633Y0306231D03*
X0218633Y0305247D03*
X0218633Y0304263D03*
X0218633Y0303278D03*
X0218633Y0302294D03*
X0218633Y0301310D03*
X0218633Y0300326D03*
X0218633Y0299341D03*
X0218633Y0298357D03*
X0218633Y0297373D03*
X0218633Y0296389D03*
X0218633Y0295404D03*
X0218633Y0294420D03*
X0218633Y0293436D03*
X0218633Y0292452D03*
X0218633Y0291467D03*
X0218633Y0290483D03*
X0218633Y0289499D03*
X0218633Y0288515D03*
X0218633Y0287530D03*
X0218633Y0286546D03*
X0218633Y0285562D03*
X0139893Y0285562D03*
X0139893Y0286546D03*
X0139893Y0287530D03*
X0139893Y0288515D03*
X0139893Y0289499D03*
X0139893Y0290483D03*
X0139893Y0291467D03*
X0139893Y0292452D03*
X0139893Y0293436D03*
X0139893Y0294420D03*
X0139893Y0295404D03*
X0139893Y0296389D03*
X0139893Y0297373D03*
X0139893Y0298357D03*
X0139893Y0299341D03*
X0139893Y0300326D03*
X0139893Y0301310D03*
X0139893Y0302294D03*
X0139893Y0303278D03*
X0139893Y0304263D03*
X0139893Y0305247D03*
X0139893Y0306231D03*
X0139893Y0307215D03*
X0139893Y0308200D03*
X0139893Y0309184D03*
X0072963Y0336743D03*
X0071979Y0336743D03*
X0070995Y0336743D03*
X0070011Y0336743D03*
X0069026Y0336743D03*
X0068042Y0336743D03*
X0067058Y0336743D03*
X0066074Y0336743D03*
X0065089Y0336743D03*
X0064105Y0336743D03*
X0063121Y0336743D03*
X0062137Y0336743D03*
X0061152Y0336743D03*
X0060168Y0336743D03*
X0059184Y0336743D03*
X0058200Y0336743D03*
X0057215Y0336743D03*
X0056231Y0336743D03*
X0055247Y0336743D03*
X0054263Y0336743D03*
X0053278Y0336743D03*
X0052294Y0336743D03*
X0051310Y0336743D03*
X0050326Y0336743D03*
X0049341Y0336743D03*
X0049341Y0258003D03*
X0050326Y0258003D03*
X0051310Y0258003D03*
X0052294Y0258003D03*
X0053278Y0258003D03*
X0054263Y0258003D03*
X0055247Y0258003D03*
X0056231Y0258003D03*
X0057215Y0258003D03*
X0058200Y0258003D03*
X0059184Y0258003D03*
X0060168Y0258003D03*
X0061152Y0258003D03*
X0062137Y0258003D03*
X0063121Y0258003D03*
X0064105Y0258003D03*
X0065089Y0258003D03*
X0066074Y0258003D03*
X0067058Y0258003D03*
X0068042Y0258003D03*
X0069026Y0258003D03*
X0070011Y0258003D03*
X0070995Y0258003D03*
X0071979Y0258003D03*
X0072963Y0258003D03*
X0072963Y0218633D03*
X0071979Y0218633D03*
X0070995Y0218633D03*
X0070011Y0218633D03*
X0069026Y0218633D03*
X0068042Y0218633D03*
X0067058Y0218633D03*
X0066074Y0218633D03*
X0065089Y0218633D03*
X0064105Y0218633D03*
X0063121Y0218633D03*
X0062137Y0218633D03*
X0061152Y0218633D03*
X0060168Y0218633D03*
X0059184Y0218633D03*
X0058200Y0218633D03*
X0057215Y0218633D03*
X0056231Y0218633D03*
X0055247Y0218633D03*
X0054263Y0218633D03*
X0053278Y0218633D03*
X0052294Y0218633D03*
X0051310Y0218633D03*
X0050326Y0218633D03*
X0049341Y0218633D03*
X0049341Y0139893D03*
X0050326Y0139893D03*
X0051310Y0139893D03*
X0052294Y0139893D03*
X0053278Y0139893D03*
X0054263Y0139893D03*
X0055247Y0139893D03*
X0056231Y0139893D03*
X0057215Y0139893D03*
X0058200Y0139893D03*
X0059184Y0139893D03*
X0060168Y0139893D03*
X0061152Y0139893D03*
X0062137Y0139893D03*
X0063121Y0139893D03*
X0064105Y0139893D03*
X0065089Y0139893D03*
X0066074Y0139893D03*
X0067058Y0139893D03*
X0068042Y0139893D03*
X0069026Y0139893D03*
X0070011Y0139893D03*
X0070995Y0139893D03*
X0071979Y0139893D03*
X0072963Y0139893D03*
X0139893Y0167452D03*
X0139893Y0168436D03*
X0139893Y0169420D03*
X0139893Y0170404D03*
X0139893Y0171389D03*
X0139893Y0172373D03*
X0139893Y0173357D03*
X0139893Y0174341D03*
X0139893Y0175326D03*
X0139893Y0176310D03*
X0139893Y0177294D03*
X0139893Y0178278D03*
X0139893Y0179263D03*
X0139893Y0180247D03*
X0139893Y0181231D03*
X0139893Y0182215D03*
X0139893Y0183200D03*
X0139893Y0184184D03*
X0139893Y0185168D03*
X0139893Y0186152D03*
X0139893Y0187137D03*
X0139893Y0188121D03*
X0139893Y0189105D03*
X0139893Y0190089D03*
X0139893Y0191074D03*
X0218633Y0191074D03*
X0218633Y0190089D03*
X0218633Y0189105D03*
X0218633Y0188121D03*
X0218633Y0187137D03*
X0218633Y0186152D03*
X0218633Y0185168D03*
X0218633Y0184184D03*
X0218633Y0183200D03*
X0218633Y0182215D03*
X0218633Y0181231D03*
X0218633Y0180247D03*
X0218633Y0179263D03*
X0218633Y0178278D03*
X0218633Y0177294D03*
X0218633Y0176310D03*
X0218633Y0175326D03*
X0218633Y0174341D03*
X0218633Y0173357D03*
X0218633Y0172373D03*
X0218633Y0171389D03*
X0218633Y0170404D03*
X0218633Y0169420D03*
X0218633Y0168436D03*
X0218633Y0167452D03*
X0285562Y0139893D03*
X0286546Y0139893D03*
X0287530Y0139893D03*
X0288515Y0139893D03*
X0289499Y0139893D03*
X0290483Y0139893D03*
X0291467Y0139893D03*
X0292452Y0139893D03*
X0293436Y0139893D03*
X0294420Y0139893D03*
X0295404Y0139893D03*
X0296389Y0139893D03*
X0297373Y0139893D03*
X0298357Y0139893D03*
X0299341Y0139893D03*
X0300326Y0139893D03*
X0301310Y0139893D03*
X0302294Y0139893D03*
X0303278Y0139893D03*
X0304263Y0139893D03*
X0305247Y0139893D03*
X0306231Y0139893D03*
X0307215Y0139893D03*
X0308200Y0139893D03*
X0309184Y0139893D03*
X0309184Y0100522D03*
X0308200Y0100522D03*
X0307215Y0100522D03*
X0306231Y0100522D03*
X0305247Y0100522D03*
X0304263Y0100522D03*
X0303278Y0100522D03*
X0302294Y0100522D03*
X0301310Y0100522D03*
X0300326Y0100522D03*
X0299341Y0100522D03*
X0298357Y0100522D03*
X0297373Y0100522D03*
X0296389Y0100522D03*
X0295404Y0100522D03*
X0294420Y0100522D03*
X0293436Y0100522D03*
X0292452Y0100522D03*
X0291467Y0100522D03*
X0290483Y0100522D03*
X0289499Y0100522D03*
X0288515Y0100522D03*
X0287530Y0100522D03*
X0286546Y0100522D03*
X0285562Y0100522D03*
X0218633Y0072963D03*
X0218633Y0071979D03*
X0218633Y0070995D03*
X0218633Y0070011D03*
X0218633Y0069026D03*
X0218633Y0068042D03*
X0218633Y0067058D03*
X0218633Y0066074D03*
X0218633Y0065089D03*
X0218633Y0064105D03*
X0218633Y0063121D03*
X0218633Y0062137D03*
X0218633Y0061152D03*
X0218633Y0060168D03*
X0218633Y0059184D03*
X0218633Y0058200D03*
X0218633Y0057215D03*
X0218633Y0056231D03*
X0218633Y0055247D03*
X0218633Y0054263D03*
X0218633Y0053278D03*
X0218633Y0052294D03*
X0218633Y0051310D03*
X0218633Y0050326D03*
X0218633Y0049341D03*
X0285562Y0021782D03*
X0286546Y0021782D03*
X0287530Y0021782D03*
X0288515Y0021782D03*
X0289499Y0021782D03*
X0290483Y0021782D03*
X0291467Y0021782D03*
X0292452Y0021782D03*
X0293436Y0021782D03*
X0294420Y0021782D03*
X0295404Y0021782D03*
X0296389Y0021782D03*
X0297373Y0021782D03*
X0298357Y0021782D03*
X0299341Y0021782D03*
X0300326Y0021782D03*
X0301310Y0021782D03*
X0302294Y0021782D03*
X0303278Y0021782D03*
X0304263Y0021782D03*
X0305247Y0021782D03*
X0306231Y0021782D03*
X0307215Y0021782D03*
X0308200Y0021782D03*
X0309184Y0021782D03*
X0139893Y0049341D03*
X0139893Y0050326D03*
X0139893Y0051310D03*
X0139893Y0052294D03*
X0139893Y0053278D03*
X0139893Y0054263D03*
X0139893Y0055247D03*
X0139893Y0056231D03*
X0139893Y0057215D03*
X0139893Y0058200D03*
X0139893Y0059184D03*
X0139893Y0060168D03*
X0139893Y0061152D03*
X0139893Y0062137D03*
X0139893Y0063121D03*
X0139893Y0064105D03*
X0139893Y0065089D03*
X0139893Y0066074D03*
X0139893Y0067058D03*
X0139893Y0068042D03*
X0139893Y0069026D03*
X0139893Y0070011D03*
X0139893Y0070995D03*
X0139893Y0071979D03*
X0139893Y0072963D03*
X0100522Y0072963D03*
X0100522Y0071979D03*
X0100522Y0070995D03*
X0100522Y0070011D03*
X0100522Y0069026D03*
X0100522Y0068042D03*
X0100522Y0067058D03*
X0100522Y0066074D03*
X0100522Y0065089D03*
X0100522Y0064105D03*
X0100522Y0063121D03*
X0100522Y0062137D03*
X0100522Y0061152D03*
X0100522Y0060168D03*
X0100522Y0059184D03*
X0100522Y0058200D03*
X0100522Y0057215D03*
X0100522Y0056231D03*
X0100522Y0055247D03*
X0100522Y0054263D03*
X0100522Y0053278D03*
X0100522Y0052294D03*
X0100522Y0051310D03*
X0100522Y0050326D03*
X0100522Y0049341D03*
X0021782Y0049341D03*
X0021782Y0050326D03*
X0021782Y0051310D03*
X0021782Y0052294D03*
X0021782Y0053278D03*
X0021782Y0054263D03*
X0021782Y0055247D03*
X0021782Y0056231D03*
X0021782Y0057215D03*
X0021782Y0058200D03*
X0021782Y0059184D03*
X0021782Y0060168D03*
X0021782Y0061152D03*
X0021782Y0062137D03*
X0021782Y0063121D03*
X0021782Y0064105D03*
X0021782Y0065089D03*
X0021782Y0066074D03*
X0021782Y0067058D03*
X0021782Y0068042D03*
X0021782Y0069026D03*
X0021782Y0070011D03*
X0021782Y0070995D03*
X0021782Y0071979D03*
X0021782Y0072963D03*
X0336743Y0285562D03*
X0336743Y0286546D03*
X0336743Y0287530D03*
X0336743Y0288515D03*
X0336743Y0289499D03*
X0336743Y0290483D03*
X0336743Y0291467D03*
X0336743Y0292452D03*
X0336743Y0293436D03*
X0336743Y0294420D03*
X0336743Y0295404D03*
X0336743Y0296389D03*
X0336743Y0297373D03*
X0336743Y0298357D03*
X0336743Y0299341D03*
X0336743Y0300326D03*
X0336743Y0301310D03*
X0336743Y0302294D03*
X0336743Y0303278D03*
X0336743Y0304263D03*
X0336743Y0305247D03*
X0336743Y0306231D03*
X0336743Y0307215D03*
X0336743Y0308200D03*
X0336743Y0309184D03*
D13*
X0336743Y0297373D01*
X0336743Y0285562D01*
X0309184Y0218633D02*
X0285562Y0218633D01*
X0258003Y0285562D02*
X0258003Y0309184D01*
X0218633Y0309184D02*
X0218633Y0297373D01*
X0218633Y0285562D01*
X0139893Y0285562D02*
X0139893Y0309184D01*
X0072963Y0336743D02*
X0061152Y0336743D01*
X0049341Y0336743D01*
X0049341Y0258003D02*
X0072963Y0258003D01*
X0072963Y0218633D02*
X0061152Y0218633D01*
X0049341Y0218633D01*
X0049341Y0139893D02*
X0072963Y0139893D01*
X0139893Y0167452D02*
X0139893Y0179263D01*
X0139893Y0191074D01*
X0218633Y0191074D02*
X0218633Y0167452D01*
X0285562Y0139893D02*
X0297373Y0139893D01*
X0309184Y0139893D01*
X0309184Y0100522D02*
X0285562Y0100522D01*
X0218633Y0072963D02*
X0218633Y0049341D01*
X0285562Y0021782D02*
X0297373Y0021782D01*
X0309184Y0021782D01*
X0139893Y0049341D02*
X0139893Y0061152D01*
X0139893Y0072963D01*
X0100522Y0072963D02*
X0100522Y0049341D01*
X0021782Y0049341D02*
X0021782Y0061152D01*
X0021782Y0072963D01*
D14*
X0021782Y0061152D02*
X0005050Y0061152D01*
X0123160Y0061152D02*
X0139893Y0061152D01*
X0139893Y0179263D02*
X0123160Y0179263D01*
X0061152Y0218633D02*
X0061152Y0235365D01*
X0061152Y0336743D02*
X0061152Y0353475D01*
X0218633Y0297373D02*
X0235365Y0297373D01*
X0336743Y0297373D02*
X0353475Y0297373D01*
X0297373Y0139893D02*
X0297373Y0123160D01*
X0297373Y0021782D02*
X0297373Y0005050D01*
M02*
