G75*
%MOIN*%
%OFA0B0*%
%FSLAX25Y25*%
%IPPOS*%
%LPD*%
%AMOC8*
5,1,8,0,0,1.08239X$1,22.5*
%
%ADD10C,0.03962*%
%ADD11C,0.07087*%
D10*
X0021290Y0021290D03*
X0021782Y0021782D03*
X0022274Y0022274D03*
X0022767Y0022767D03*
X0006526Y0061152D03*
X0006034Y0061152D03*
X0005542Y0061152D03*
X0005050Y0061152D03*
X0022767Y0099538D03*
X0022274Y0100030D03*
X0021782Y0100522D03*
X0021290Y0101015D03*
X0021290Y0139400D03*
X0021782Y0139893D03*
X0022274Y0140385D03*
X0022767Y0140877D03*
X0061152Y0124637D03*
X0061152Y0124144D03*
X0061152Y0123652D03*
X0061152Y0123160D03*
X0061152Y0117255D03*
X0061152Y0116763D03*
X0061152Y0116270D03*
X0061152Y0115778D03*
X0099538Y0099538D03*
X0100030Y0100030D03*
X0100522Y0100522D03*
X0101015Y0101015D03*
X0101015Y0139400D03*
X0100522Y0139893D03*
X0100030Y0140385D03*
X0099538Y0140877D03*
X0139400Y0139400D03*
X0139893Y0139893D03*
X0140385Y0140385D03*
X0140877Y0140877D03*
X0139400Y0101015D03*
X0139893Y0100522D03*
X0140385Y0100030D03*
X0140877Y0099538D03*
X0124637Y0061152D03*
X0124144Y0061152D03*
X0123652Y0061152D03*
X0123160Y0061152D03*
X0117255Y0061152D03*
X0116763Y0061152D03*
X0116270Y0061152D03*
X0115778Y0061152D03*
X0099538Y0022767D03*
X0100030Y0022274D03*
X0100522Y0021782D03*
X0101015Y0021290D03*
X0139400Y0021290D03*
X0139893Y0021782D03*
X0140385Y0022274D03*
X0140877Y0022767D03*
X0179263Y0006526D03*
X0179263Y0006034D03*
X0179263Y0005542D03*
X0179263Y0005050D03*
X0217648Y0022767D03*
X0218141Y0022274D03*
X0218633Y0021782D03*
X0219125Y0021290D03*
X0257511Y0021290D03*
X0258003Y0021782D03*
X0258495Y0022274D03*
X0258987Y0022767D03*
X0297373Y0006526D03*
X0297373Y0006034D03*
X0297373Y0005542D03*
X0297373Y0005050D03*
X0335759Y0022767D03*
X0336251Y0022274D03*
X0336743Y0021782D03*
X0337235Y0021290D03*
X0351999Y0061152D03*
X0352491Y0061152D03*
X0335759Y0099538D03*
X0336251Y0100030D03*
X0336743Y0100522D03*
X0337235Y0101015D03*
X0337235Y0139400D03*
X0336743Y0139893D03*
X0336251Y0140385D03*
X0335759Y0140877D03*
X0351999Y0179263D03*
X0352491Y0179263D03*
X0352983Y0179263D03*
X0353475Y0179263D03*
X0335759Y0217648D03*
X0336251Y0218141D03*
X0336743Y0218633D03*
X0337235Y0219125D03*
X0337235Y0257511D03*
X0336743Y0258003D03*
X0336251Y0258495D03*
X0335759Y0258987D03*
X0351999Y0297373D03*
X0352491Y0297373D03*
X0352983Y0297373D03*
X0353475Y0297373D03*
X0335759Y0335759D03*
X0336251Y0336251D03*
X0336743Y0336743D03*
X0337235Y0337235D03*
X0297373Y0351999D03*
X0297373Y0352491D03*
X0258987Y0335759D03*
X0258495Y0336251D03*
X0258003Y0336743D03*
X0257511Y0337235D03*
X0219125Y0337235D03*
X0218633Y0336743D03*
X0218141Y0336251D03*
X0217648Y0335759D03*
X0179263Y0351999D03*
X0179263Y0352491D03*
X0179263Y0352983D03*
X0179263Y0353475D03*
X0140877Y0335759D03*
X0140385Y0336251D03*
X0139893Y0336743D03*
X0139400Y0337235D03*
X0101015Y0337235D03*
X0100522Y0336743D03*
X0100030Y0336251D03*
X0099538Y0335759D03*
X0061152Y0351999D03*
X0061152Y0352491D03*
X0061152Y0352983D03*
X0061152Y0353475D03*
X0022767Y0335759D03*
X0022274Y0336251D03*
X0021782Y0336743D03*
X0021290Y0337235D03*
X0006526Y0297373D03*
X0006034Y0297373D03*
X0022767Y0258987D03*
X0022274Y0258495D03*
X0021782Y0258003D03*
X0021290Y0257511D03*
X0021290Y0219125D03*
X0021782Y0218633D03*
X0022274Y0218141D03*
X0022767Y0217648D03*
X0006526Y0179263D03*
X0006034Y0179263D03*
X0005542Y0179263D03*
X0005050Y0179263D03*
X0061152Y0233889D03*
X0061152Y0234381D03*
X0061152Y0234873D03*
X0061152Y0235365D03*
X0061152Y0241270D03*
X0061152Y0241763D03*
X0061152Y0242255D03*
X0061152Y0242747D03*
X0099538Y0258987D03*
X0100030Y0258495D03*
X0100522Y0258003D03*
X0101015Y0257511D03*
X0139400Y0257511D03*
X0139893Y0258003D03*
X0140385Y0258495D03*
X0140877Y0258987D03*
X0124637Y0297373D03*
X0124144Y0297373D03*
X0123652Y0297373D03*
X0123160Y0297373D03*
X0117255Y0297373D03*
X0116763Y0297373D03*
X0116270Y0297373D03*
X0115778Y0297373D03*
X0179263Y0242747D03*
X0179263Y0242255D03*
X0179263Y0241763D03*
X0179263Y0241270D03*
X0179263Y0235365D03*
X0179263Y0234873D03*
X0179263Y0234381D03*
X0179263Y0233889D03*
X0217648Y0217648D03*
X0218141Y0218141D03*
X0218633Y0218633D03*
X0219125Y0219125D03*
X0219125Y0257511D03*
X0218633Y0258003D03*
X0218141Y0258495D03*
X0217648Y0258987D03*
X0233889Y0297373D03*
X0234381Y0297373D03*
X0234873Y0297373D03*
X0235365Y0297373D03*
X0241270Y0297373D03*
X0241763Y0297373D03*
X0242255Y0297373D03*
X0242747Y0297373D03*
X0258987Y0258987D03*
X0258495Y0258495D03*
X0258003Y0258003D03*
X0257511Y0257511D03*
X0257511Y0219125D03*
X0258003Y0218633D03*
X0258495Y0218141D03*
X0258987Y0217648D03*
X0242747Y0179263D03*
X0242255Y0179263D03*
X0241763Y0179263D03*
X0241270Y0179263D03*
X0235365Y0179263D03*
X0234873Y0179263D03*
X0234381Y0179263D03*
X0233889Y0179263D03*
X0217648Y0140877D03*
X0218141Y0140385D03*
X0218633Y0139893D03*
X0219125Y0139400D03*
X0219125Y0101015D03*
X0218633Y0100522D03*
X0218141Y0100030D03*
X0217648Y0099538D03*
X0179263Y0115778D03*
X0179263Y0116270D03*
X0179263Y0116763D03*
X0179263Y0117255D03*
X0179263Y0123160D03*
X0179263Y0123652D03*
X0179263Y0124144D03*
X0179263Y0124637D03*
X0124637Y0179263D03*
X0124144Y0179263D03*
X0123652Y0179263D03*
X0123160Y0179263D03*
X0117255Y0179263D03*
X0116763Y0179263D03*
X0116270Y0179263D03*
X0115778Y0179263D03*
X0099538Y0217648D03*
X0100030Y0218141D03*
X0100522Y0218633D03*
X0101015Y0219125D03*
X0139400Y0219125D03*
X0139893Y0218633D03*
X0140385Y0218141D03*
X0140877Y0217648D03*
X0257511Y0139400D03*
X0258003Y0139893D03*
X0258495Y0140385D03*
X0258987Y0140877D03*
X0297373Y0124637D03*
X0297373Y0124144D03*
X0297373Y0123652D03*
X0297373Y0123160D03*
X0297373Y0117255D03*
X0297373Y0116763D03*
X0297373Y0116270D03*
X0297373Y0115778D03*
X0258987Y0099538D03*
X0258495Y0100030D03*
X0258003Y0100522D03*
X0257511Y0101015D03*
X0242747Y0061152D03*
X0242255Y0061152D03*
X0241763Y0061152D03*
X0241270Y0061152D03*
X0235365Y0061152D03*
X0234873Y0061152D03*
X0234381Y0061152D03*
X0233889Y0061152D03*
X0061152Y0006526D03*
X0061152Y0006034D03*
X0061152Y0005542D03*
X0061152Y0005050D03*
X0297373Y0233889D03*
X0297373Y0234381D03*
X0297373Y0234873D03*
X0297373Y0235365D03*
X0297373Y0241270D03*
X0297373Y0241763D03*
X0297373Y0242255D03*
X0297373Y0242747D03*
D11*
X0297373Y0218633D03*
X0298357Y0218633D03*
X0299341Y0218633D03*
X0300326Y0218633D03*
X0301310Y0218633D03*
X0302294Y0218633D03*
X0303278Y0218633D03*
X0304263Y0218633D03*
X0305247Y0218633D03*
X0306231Y0218633D03*
X0307215Y0218633D03*
X0308200Y0218633D03*
X0309184Y0218633D03*
X0296389Y0218633D03*
X0295404Y0218633D03*
X0294420Y0218633D03*
X0293436Y0218633D03*
X0292452Y0218633D03*
X0291467Y0218633D03*
X0290483Y0218633D03*
X0289499Y0218633D03*
X0288515Y0218633D03*
X0287530Y0218633D03*
X0286546Y0218633D03*
X0285562Y0218633D03*
X0258003Y0285562D03*
X0258003Y0286546D03*
X0258003Y0287530D03*
X0258003Y0288515D03*
X0258003Y0289499D03*
X0258003Y0290483D03*
X0258003Y0291467D03*
X0258003Y0292452D03*
X0258003Y0293436D03*
X0258003Y0294420D03*
X0258003Y0295404D03*
X0258003Y0296389D03*
X0258003Y0297373D03*
X0258003Y0298357D03*
X0258003Y0299341D03*
X0258003Y0300326D03*
X0258003Y0301310D03*
X0258003Y0302294D03*
X0258003Y0303278D03*
X0258003Y0304263D03*
X0258003Y0305247D03*
X0258003Y0306231D03*
X0258003Y0307215D03*
X0258003Y0308200D03*
X0258003Y0309184D03*
X0218633Y0309184D03*
X0218633Y0308200D03*
X0218633Y0307215D03*
X0218633Y0306231D03*
X0218633Y0305247D03*
X0218633Y0304263D03*
X0218633Y0303278D03*
X0218633Y0302294D03*
X0218633Y0301310D03*
X0218633Y0300326D03*
X0218633Y0299341D03*
X0218633Y0298357D03*
X0218633Y0297373D03*
X0218633Y0296389D03*
X0218633Y0295404D03*
X0218633Y0294420D03*
X0218633Y0293436D03*
X0218633Y0292452D03*
X0218633Y0291467D03*
X0218633Y0290483D03*
X0218633Y0289499D03*
X0218633Y0288515D03*
X0218633Y0287530D03*
X0218633Y0286546D03*
X0218633Y0285562D03*
X0139893Y0285562D03*
X0139893Y0286546D03*
X0139893Y0287530D03*
X0139893Y0288515D03*
X0139893Y0289499D03*
X0139893Y0290483D03*
X0139893Y0291467D03*
X0139893Y0292452D03*
X0139893Y0293436D03*
X0139893Y0294420D03*
X0139893Y0295404D03*
X0139893Y0296389D03*
X0139893Y0297373D03*
X0139893Y0298357D03*
X0139893Y0299341D03*
X0139893Y0300326D03*
X0139893Y0301310D03*
X0139893Y0302294D03*
X0139893Y0303278D03*
X0139893Y0304263D03*
X0139893Y0305247D03*
X0139893Y0306231D03*
X0139893Y0307215D03*
X0139893Y0308200D03*
X0139893Y0309184D03*
X0072963Y0336743D03*
X0071979Y0336743D03*
X0070995Y0336743D03*
X0070011Y0336743D03*
X0069026Y0336743D03*
X0068042Y0336743D03*
X0067058Y0336743D03*
X0066074Y0336743D03*
X0065089Y0336743D03*
X0064105Y0336743D03*
X0063121Y0336743D03*
X0062137Y0336743D03*
X0061152Y0336743D03*
X0060168Y0336743D03*
X0059184Y0336743D03*
X0058200Y0336743D03*
X0057215Y0336743D03*
X0056231Y0336743D03*
X0055247Y0336743D03*
X0054263Y0336743D03*
X0053278Y0336743D03*
X0052294Y0336743D03*
X0051310Y0336743D03*
X0050326Y0336743D03*
X0049341Y0336743D03*
X0049341Y0258003D03*
X0050326Y0258003D03*
X0051310Y0258003D03*
X0052294Y0258003D03*
X0053278Y0258003D03*
X0054263Y0258003D03*
X0055247Y0258003D03*
X0056231Y0258003D03*
X0057215Y0258003D03*
X0058200Y0258003D03*
X0059184Y0258003D03*
X0060168Y0258003D03*
X0061152Y0258003D03*
X0062137Y0258003D03*
X0063121Y0258003D03*
X0064105Y0258003D03*
X0065089Y0258003D03*
X0066074Y0258003D03*
X0067058Y0258003D03*
X0068042Y0258003D03*
X0069026Y0258003D03*
X0070011Y0258003D03*
X0070995Y0258003D03*
X0071979Y0258003D03*
X0072963Y0258003D03*
X0072963Y0218633D03*
X0071979Y0218633D03*
X0070995Y0218633D03*
X0070011Y0218633D03*
X0069026Y0218633D03*
X0068042Y0218633D03*
X0067058Y0218633D03*
X0066074Y0218633D03*
X0065089Y0218633D03*
X0064105Y0218633D03*
X0063121Y0218633D03*
X0062137Y0218633D03*
X0061152Y0218633D03*
X0060168Y0218633D03*
X0059184Y0218633D03*
X0058200Y0218633D03*
X0057215Y0218633D03*
X0056231Y0218633D03*
X0055247Y0218633D03*
X0054263Y0218633D03*
X0053278Y0218633D03*
X0052294Y0218633D03*
X0051310Y0218633D03*
X0050326Y0218633D03*
X0049341Y0218633D03*
X0049341Y0139893D03*
X0050326Y0139893D03*
X0051310Y0139893D03*
X0052294Y0139893D03*
X0053278Y0139893D03*
X0054263Y0139893D03*
X0055247Y0139893D03*
X0056231Y0139893D03*
X0057215Y0139893D03*
X0058200Y0139893D03*
X0059184Y0139893D03*
X0060168Y0139893D03*
X0061152Y0139893D03*
X0062137Y0139893D03*
X0063121Y0139893D03*
X0064105Y0139893D03*
X0065089Y0139893D03*
X0066074Y0139893D03*
X0067058Y0139893D03*
X0068042Y0139893D03*
X0069026Y0139893D03*
X0070011Y0139893D03*
X0070995Y0139893D03*
X0071979Y0139893D03*
X0072963Y0139893D03*
X0139893Y0167452D03*
X0139893Y0168436D03*
X0139893Y0169420D03*
X0139893Y0170404D03*
X0139893Y0171389D03*
X0139893Y0172373D03*
X0139893Y0173357D03*
X0139893Y0174341D03*
X0139893Y0175326D03*
X0139893Y0176310D03*
X0139893Y0177294D03*
X0139893Y0178278D03*
X0139893Y0179263D03*
X0139893Y0180247D03*
X0139893Y0181231D03*
X0139893Y0182215D03*
X0139893Y0183200D03*
X0139893Y0184184D03*
X0139893Y0185168D03*
X0139893Y0186152D03*
X0139893Y0187137D03*
X0139893Y0188121D03*
X0139893Y0189105D03*
X0139893Y0190089D03*
X0139893Y0191074D03*
X0218633Y0191074D03*
X0218633Y0190089D03*
X0218633Y0189105D03*
X0218633Y0188121D03*
X0218633Y0187137D03*
X0218633Y0186152D03*
X0218633Y0185168D03*
X0218633Y0184184D03*
X0218633Y0183200D03*
X0218633Y0182215D03*
X0218633Y0181231D03*
X0218633Y0180247D03*
X0218633Y0179263D03*
X0218633Y0178278D03*
X0218633Y0177294D03*
X0218633Y0176310D03*
X0218633Y0175326D03*
X0218633Y0174341D03*
X0218633Y0173357D03*
X0218633Y0172373D03*
X0218633Y0171389D03*
X0218633Y0170404D03*
X0218633Y0169420D03*
X0218633Y0168436D03*
X0218633Y0167452D03*
X0285562Y0139893D03*
X0286546Y0139893D03*
X0287530Y0139893D03*
X0288515Y0139893D03*
X0289499Y0139893D03*
X0290483Y0139893D03*
X0291467Y0139893D03*
X0292452Y0139893D03*
X0293436Y0139893D03*
X0294420Y0139893D03*
X0295404Y0139893D03*
X0296389Y0139893D03*
X0297373Y0139893D03*
X0298357Y0139893D03*
X0299341Y0139893D03*
X0300326Y0139893D03*
X0301310Y0139893D03*
X0302294Y0139893D03*
X0303278Y0139893D03*
X0304263Y0139893D03*
X0305247Y0139893D03*
X0306231Y0139893D03*
X0307215Y0139893D03*
X0308200Y0139893D03*
X0309184Y0139893D03*
X0309184Y0100522D03*
X0308200Y0100522D03*
X0307215Y0100522D03*
X0306231Y0100522D03*
X0305247Y0100522D03*
X0304263Y0100522D03*
X0303278Y0100522D03*
X0302294Y0100522D03*
X0301310Y0100522D03*
X0300326Y0100522D03*
X0299341Y0100522D03*
X0298357Y0100522D03*
X0297373Y0100522D03*
X0296389Y0100522D03*
X0295404Y0100522D03*
X0294420Y0100522D03*
X0293436Y0100522D03*
X0292452Y0100522D03*
X0291467Y0100522D03*
X0290483Y0100522D03*
X0289499Y0100522D03*
X0288515Y0100522D03*
X0287530Y0100522D03*
X0286546Y0100522D03*
X0285562Y0100522D03*
X0218633Y0072963D03*
X0218633Y0071979D03*
X0218633Y0070995D03*
X0218633Y0070011D03*
X0218633Y0069026D03*
X0218633Y0068042D03*
X0218633Y0067058D03*
X0218633Y0066074D03*
X0218633Y0065089D03*
X0218633Y0064105D03*
X0218633Y0063121D03*
X0218633Y0062137D03*
X0218633Y0061152D03*
X0218633Y0060168D03*
X0218633Y0059184D03*
X0218633Y0058200D03*
X0218633Y0057215D03*
X0218633Y0056231D03*
X0218633Y0055247D03*
X0218633Y0054263D03*
X0218633Y0053278D03*
X0218633Y0052294D03*
X0218633Y0051310D03*
X0218633Y0050326D03*
X0218633Y0049341D03*
X0285562Y0021782D03*
X0286546Y0021782D03*
X0287530Y0021782D03*
X0288515Y0021782D03*
X0289499Y0021782D03*
X0290483Y0021782D03*
X0291467Y0021782D03*
X0292452Y0021782D03*
X0293436Y0021782D03*
X0294420Y0021782D03*
X0295404Y0021782D03*
X0296389Y0021782D03*
X0297373Y0021782D03*
X0298357Y0021782D03*
X0299341Y0021782D03*
X0300326Y0021782D03*
X0301310Y0021782D03*
X0302294Y0021782D03*
X0303278Y0021782D03*
X0304263Y0021782D03*
X0305247Y0021782D03*
X0306231Y0021782D03*
X0307215Y0021782D03*
X0308200Y0021782D03*
X0309184Y0021782D03*
X0139893Y0049341D03*
X0139893Y0050326D03*
X0139893Y0051310D03*
X0139893Y0052294D03*
X0139893Y0053278D03*
X0139893Y0054263D03*
X0139893Y0055247D03*
X0139893Y0056231D03*
X0139893Y0057215D03*
X0139893Y0058200D03*
X0139893Y0059184D03*
X0139893Y0060168D03*
X0139893Y0061152D03*
X0139893Y0062137D03*
X0139893Y0063121D03*
X0139893Y0064105D03*
X0139893Y0065089D03*
X0139893Y0066074D03*
X0139893Y0067058D03*
X0139893Y0068042D03*
X0139893Y0069026D03*
X0139893Y0070011D03*
X0139893Y0070995D03*
X0139893Y0071979D03*
X0139893Y0072963D03*
X0100522Y0072963D03*
X0100522Y0071979D03*
X0100522Y0070995D03*
X0100522Y0070011D03*
X0100522Y0069026D03*
X0100522Y0068042D03*
X0100522Y0067058D03*
X0100522Y0066074D03*
X0100522Y0065089D03*
X0100522Y0064105D03*
X0100522Y0063121D03*
X0100522Y0062137D03*
X0100522Y0061152D03*
X0100522Y0060168D03*
X0100522Y0059184D03*
X0100522Y0058200D03*
X0100522Y0057215D03*
X0100522Y0056231D03*
X0100522Y0055247D03*
X0100522Y0054263D03*
X0100522Y0053278D03*
X0100522Y0052294D03*
X0100522Y0051310D03*
X0100522Y0050326D03*
X0100522Y0049341D03*
X0021782Y0049341D03*
X0021782Y0050326D03*
X0021782Y0051310D03*
X0021782Y0052294D03*
X0021782Y0053278D03*
X0021782Y0054263D03*
X0021782Y0055247D03*
X0021782Y0056231D03*
X0021782Y0057215D03*
X0021782Y0058200D03*
X0021782Y0059184D03*
X0021782Y0060168D03*
X0021782Y0061152D03*
X0021782Y0062137D03*
X0021782Y0063121D03*
X0021782Y0064105D03*
X0021782Y0065089D03*
X0021782Y0066074D03*
X0021782Y0067058D03*
X0021782Y0068042D03*
X0021782Y0069026D03*
X0021782Y0070011D03*
X0021782Y0070995D03*
X0021782Y0071979D03*
X0021782Y0072963D03*
X0336743Y0285562D03*
X0336743Y0286546D03*
X0336743Y0287530D03*
X0336743Y0288515D03*
X0336743Y0289499D03*
X0336743Y0290483D03*
X0336743Y0291467D03*
X0336743Y0292452D03*
X0336743Y0293436D03*
X0336743Y0294420D03*
X0336743Y0295404D03*
X0336743Y0296389D03*
X0336743Y0297373D03*
X0336743Y0298357D03*
X0336743Y0299341D03*
X0336743Y0300326D03*
X0336743Y0301310D03*
X0336743Y0302294D03*
X0336743Y0303278D03*
X0336743Y0304263D03*
X0336743Y0305247D03*
X0336743Y0306231D03*
X0336743Y0307215D03*
X0336743Y0308200D03*
X0336743Y0309184D03*
M02*
