%
M48
M72
T01C0.02362
T02C0.04724
%
T01
X21290Y21290
X21782Y21782
X22274Y22274
X22767Y22767
X6526Y61152
X6034Y61152
X5542Y61152
X5050Y61152
X22767Y99538
X22274Y100030
X21782Y100522
X21290Y101015
X21290Y139400
X21782Y139893
X22274Y140385
X22767Y140877
X61152Y124637
X61152Y124144
X61152Y123652
X61152Y123160
X61152Y117255
X61152Y116763
X61152Y116270
X61152Y115778
X99538Y99538
X100030Y100030
X100522Y100522
X101015Y101015
X101015Y139400
X100522Y139893
X100030Y140385
X99538Y140877
X139400Y139400
X139893Y139893
X140385Y140385
X140877Y140877
X139400Y101015
X139893Y100522
X140385Y100030
X140877Y99538
X124637Y61152
X124144Y61152
X123652Y61152
X123160Y61152
X117255Y61152
X116763Y61152
X116270Y61152
X115778Y61152
X99538Y22767
X100030Y22274
X100522Y21782
X101015Y21290
X139400Y21290
X139893Y21782
X140385Y22274
X140877Y22767
X179263Y6526
X179263Y6034
X179263Y5542
X179263Y5050
X217648Y22767
X218141Y22274
X218633Y21782
X219125Y21290
X257511Y21290
X258003Y21782
X258495Y22274
X258987Y22767
X297373Y6526
X297373Y6034
X297373Y5542
X297373Y5050
X335759Y22767
X336251Y22274
X336743Y21782
X337235Y21290
X351999Y61152
X352491Y61152
X335759Y99538
X336251Y100030
X336743Y100522
X337235Y101015
X337235Y139400
X336743Y139893
X336251Y140385
X335759Y140877
X351999Y179263
X352491Y179263
X352983Y179263
X353475Y179263
X335759Y217648
X336251Y218141
X336743Y218633
X337235Y219125
X337235Y257511
X336743Y258003
X336251Y258495
X335759Y258987
X351999Y297373
X352491Y297373
X352983Y297373
X353475Y297373
X335759Y335759
X336251Y336251
X336743Y336743
X337235Y337235
X297373Y351999
X297373Y352491
X258987Y335759
X258495Y336251
X258003Y336743
X257511Y337235
X219125Y337235
X218633Y336743
X218141Y336251
X217648Y335759
X179263Y351999
X179263Y352491
X179263Y352983
X179263Y353475
X140877Y335759
X140385Y336251
X139893Y336743
X139400Y337235
X101015Y337235
X100522Y336743
X100030Y336251
X99538Y335759
X61152Y351999
X61152Y352491
X61152Y352983
X61152Y353475
X22767Y335759
X22274Y336251
X21782Y336743
X21290Y337235
X6526Y297373
X6034Y297373
X22767Y258987
X22274Y258495
X21782Y258003
X21290Y257511
X21290Y219125
X21782Y218633
X22274Y218141
X22767Y217648
X6526Y179263
X6034Y179263
X5542Y179263
X5050Y179263
X61152Y233889
X61152Y234381
X61152Y234873
X61152Y235365
X61152Y241270
X61152Y241763
X61152Y242255
X61152Y242747
X99538Y258987
X100030Y258495
X100522Y258003
X101015Y257511
X139400Y257511
X139893Y258003
X140385Y258495
X140877Y258987
X124637Y297373
X124144Y297373
X123652Y297373
X123160Y297373
X117255Y297373
X116763Y297373
X116270Y297373
X115778Y297373
X179263Y242747
X179263Y242255
X179263Y241763
X179263Y241270
X179263Y235365
X179263Y234873
X179263Y234381
X179263Y233889
X217648Y217648
X218141Y218141
X218633Y218633
X219125Y219125
X219125Y257511
X218633Y258003
X218141Y258495
X217648Y258987
X233889Y297373
X234381Y297373
X234873Y297373
X235365Y297373
X241270Y297373
X241763Y297373
X242255Y297373
X242747Y297373
X258987Y258987
X258495Y258495
X258003Y258003
X257511Y257511
X257511Y219125
X258003Y218633
X258495Y218141
X258987Y217648
X242747Y179263
X242255Y179263
X241763Y179263
X241270Y179263
X235365Y179263
X234873Y179263
X234381Y179263
X233889Y179263
X217648Y140877
X218141Y140385
X218633Y139893
X219125Y139400
X219125Y101015
X218633Y100522
X218141Y100030
X217648Y99538
X179263Y115778
X179263Y116270
X179263Y116763
X179263Y117255
X179263Y123160
X179263Y123652
X179263Y124144
X179263Y124637
X124637Y179263
X124144Y179263
X123652Y179263
X123160Y179263
X117255Y179263
X116763Y179263
X116270Y179263
X115778Y179263
X99538Y217648
X100030Y218141
X100522Y218633
X101015Y219125
X139400Y219125
X139893Y218633
X140385Y218141
X140877Y217648
X257511Y139400
X258003Y139893
X258495Y140385
X258987Y140877
X297373Y124637
X297373Y124144
X297373Y123652
X297373Y123160
X297373Y117255
X297373Y116763
X297373Y116270
X297373Y115778
X258987Y99538
X258495Y100030
X258003Y100522
X257511Y101015
X242747Y61152
X242255Y61152
X241763Y61152
X241270Y61152
X235365Y61152
X234873Y61152
X234381Y61152
X233889Y61152
X61152Y6526
X61152Y6034
X61152Y5542
X61152Y5050
X297373Y233889
X297373Y234381
X297373Y234873
X297373Y235365
X297373Y241270
X297373Y241763
X297373Y242255
X297373Y242747
T02
X297373Y218633
X298357Y218633
X299341Y218633
X300326Y218633
X301310Y218633
X302294Y218633
X303278Y218633
X304263Y218633
X305247Y218633
X306231Y218633
X307215Y218633
X308200Y218633
X309184Y218633
X296389Y218633
X295404Y218633
X294420Y218633
X293436Y218633
X292452Y218633
X291467Y218633
X290483Y218633
X289499Y218633
X288515Y218633
X287530Y218633
X286546Y218633
X285562Y218633
X258003Y285562
X258003Y286546
X258003Y287530
X258003Y288515
X258003Y289499
X258003Y290483
X258003Y291467
X258003Y292452
X258003Y293436
X258003Y294420
X258003Y295404
X258003Y296389
X258003Y297373
X258003Y298357
X258003Y299341
X258003Y300326
X258003Y301310
X258003Y302294
X258003Y303278
X258003Y304263
X258003Y305247
X258003Y306231
X258003Y307215
X258003Y308200
X258003Y309184
X218633Y309184
X218633Y308200
X218633Y307215
X218633Y306231
X218633Y305247
X218633Y304263
X218633Y303278
X218633Y302294
X218633Y301310
X218633Y300326
X218633Y299341
X218633Y298357
X218633Y297373
X218633Y296389
X218633Y295404
X218633Y294420
X218633Y293436
X218633Y292452
X218633Y291467
X218633Y290483
X218633Y289499
X218633Y288515
X218633Y287530
X218633Y286546
X218633Y285562
X139893Y285562
X139893Y286546
X139893Y287530
X139893Y288515
X139893Y289499
X139893Y290483
X139893Y291467
X139893Y292452
X139893Y293436
X139893Y294420
X139893Y295404
X139893Y296389
X139893Y297373
X139893Y298357
X139893Y299341
X139893Y300326
X139893Y301310
X139893Y302294
X139893Y303278
X139893Y304263
X139893Y305247
X139893Y306231
X139893Y307215
X139893Y308200
X139893Y309184
X72963Y336743
X71979Y336743
X70995Y336743
X70011Y336743
X69026Y336743
X68042Y336743
X67058Y336743
X66074Y336743
X65089Y336743
X64105Y336743
X63121Y336743
X62137Y336743
X61152Y336743
X60168Y336743
X59184Y336743
X58200Y336743
X57215Y336743
X56231Y336743
X55247Y336743
X54263Y336743
X53278Y336743
X52294Y336743
X51310Y336743
X50326Y336743
X49341Y336743
X49341Y258003
X50326Y258003
X51310Y258003
X52294Y258003
X53278Y258003
X54263Y258003
X55247Y258003
X56231Y258003
X57215Y258003
X58200Y258003
X59184Y258003
X60168Y258003
X61152Y258003
X62137Y258003
X63121Y258003
X64105Y258003
X65089Y258003
X66074Y258003
X67058Y258003
X68042Y258003
X69026Y258003
X70011Y258003
X70995Y258003
X71979Y258003
X72963Y258003
X72963Y218633
X71979Y218633
X70995Y218633
X70011Y218633
X69026Y218633
X68042Y218633
X67058Y218633
X66074Y218633
X65089Y218633
X64105Y218633
X63121Y218633
X62137Y218633
X61152Y218633
X60168Y218633
X59184Y218633
X58200Y218633
X57215Y218633
X56231Y218633
X55247Y218633
X54263Y218633
X53278Y218633
X52294Y218633
X51310Y218633
X50326Y218633
X49341Y218633
X49341Y139893
X50326Y139893
X51310Y139893
X52294Y139893
X53278Y139893
X54263Y139893
X55247Y139893
X56231Y139893
X57215Y139893
X58200Y139893
X59184Y139893
X60168Y139893
X61152Y139893
X62137Y139893
X63121Y139893
X64105Y139893
X65089Y139893
X66074Y139893
X67058Y139893
X68042Y139893
X69026Y139893
X70011Y139893
X70995Y139893
X71979Y139893
X72963Y139893
X139893Y167452
X139893Y168436
X139893Y169420
X139893Y170404
X139893Y171389
X139893Y172373
X139893Y173357
X139893Y174341
X139893Y175326
X139893Y176310
X139893Y177294
X139893Y178278
X139893Y179263
X139893Y180247
X139893Y181231
X139893Y182215
X139893Y183200
X139893Y184184
X139893Y185168
X139893Y186152
X139893Y187137
X139893Y188121
X139893Y189105
X139893Y190089
X139893Y191074
X218633Y191074
X218633Y190089
X218633Y189105
X218633Y188121
X218633Y187137
X218633Y186152
X218633Y185168
X218633Y184184
X218633Y183200
X218633Y182215
X218633Y181231
X218633Y180247
X218633Y179263
X218633Y178278
X218633Y177294
X218633Y176310
X218633Y175326
X218633Y174341
X218633Y173357
X218633Y172373
X218633Y171389
X218633Y170404
X218633Y169420
X218633Y168436
X218633Y167452
X285562Y139893
X286546Y139893
X287530Y139893
X288515Y139893
X289499Y139893
X290483Y139893
X291467Y139893
X292452Y139893
X293436Y139893
X294420Y139893
X295404Y139893
X296389Y139893
X297373Y139893
X298357Y139893
X299341Y139893
X300326Y139893
X301310Y139893
X302294Y139893
X303278Y139893
X304263Y139893
X305247Y139893
X306231Y139893
X307215Y139893
X308200Y139893
X309184Y139893
X309184Y100522
X308200Y100522
X307215Y100522
X306231Y100522
X305247Y100522
X304263Y100522
X303278Y100522
X302294Y100522
X301310Y100522
X300326Y100522
X299341Y100522
X298357Y100522
X297373Y100522
X296389Y100522
X295404Y100522
X294420Y100522
X293436Y100522
X292452Y100522
X291467Y100522
X290483Y100522
X289499Y100522
X288515Y100522
X287530Y100522
X286546Y100522
X285562Y100522
X218633Y72963
X218633Y71979
X218633Y70995
X218633Y70011
X218633Y69026
X218633Y68042
X218633Y67058
X218633Y66074
X218633Y65089
X218633Y64105
X218633Y63121
X218633Y62137
X218633Y61152
X218633Y60168
X218633Y59184
X218633Y58200
X218633Y57215
X218633Y56231
X218633Y55247
X218633Y54263
X218633Y53278
X218633Y52294
X218633Y51310
X218633Y50326
X218633Y49341
X285562Y21782
X286546Y21782
X287530Y21782
X288515Y21782
X289499Y21782
X290483Y21782
X291467Y21782
X292452Y21782
X293436Y21782
X294420Y21782
X295404Y21782
X296389Y21782
X297373Y21782
X298357Y21782
X299341Y21782
X300326Y21782
X301310Y21782
X302294Y21782
X303278Y21782
X304263Y21782
X305247Y21782
X306231Y21782
X307215Y21782
X308200Y21782
X309184Y21782
X139893Y49341
X139893Y50326
X139893Y51310
X139893Y52294
X139893Y53278
X139893Y54263
X139893Y55247
X139893Y56231
X139893Y57215
X139893Y58200
X139893Y59184
X139893Y60168
X139893Y61152
X139893Y62137
X139893Y63121
X139893Y64105
X139893Y65089
X139893Y66074
X139893Y67058
X139893Y68042
X139893Y69026
X139893Y70011
X139893Y70995
X139893Y71979
X139893Y72963
X100522Y72963
X100522Y71979
X100522Y70995
X100522Y70011
X100522Y69026
X100522Y68042
X100522Y67058
X100522Y66074
X100522Y65089
X100522Y64105
X100522Y63121
X100522Y62137
X100522Y61152
X100522Y60168
X100522Y59184
X100522Y58200
X100522Y57215
X100522Y56231
X100522Y55247
X100522Y54263
X100522Y53278
X100522Y52294
X100522Y51310
X100522Y50326
X100522Y49341
X21782Y49341
X21782Y50326
X21782Y51310
X21782Y52294
X21782Y53278
X21782Y54263
X21782Y55247
X21782Y56231
X21782Y57215
X21782Y58200
X21782Y59184
X21782Y60168
X21782Y61152
X21782Y62137
X21782Y63121
X21782Y64105
X21782Y65089
X21782Y66074
X21782Y67058
X21782Y68042
X21782Y69026
X21782Y70011
X21782Y70995
X21782Y71979
X21782Y72963
X336743Y285562
X336743Y286546
X336743Y287530
X336743Y288515
X336743Y289499
X336743Y290483
X336743Y291467
X336743Y292452
X336743Y293436
X336743Y294420
X336743Y295404
X336743Y296389
X336743Y297373
X336743Y298357
X336743Y299341
X336743Y300326
X336743Y301310
X336743Y302294
X336743Y303278
X336743Y304263
X336743Y305247
X336743Y306231
X336743Y307215
X336743Y308200
X336743Y309184
M30
