G75*
%MOIN*%
%OFA0B0*%
%FSLAX25Y25*%
%IPPOS*%
%LPD*%
%AMOC8*
5,1,8,0,0,1.08239X$1,22.5*
%
%ADD10R,0.05524X0.03950*%
%ADD11C,0.06700*%
%ADD12R,0.06700X0.06700*%
%ADD13R,0.03950X0.05524*%
%ADD14C,0.06737*%
%ADD15R,0.15800X0.25800*%
%ADD16C,0.03400*%
%ADD17C,0.06800*%
%ADD18C,0.05400*%
D10*
X0081500Y0015957D03*
X0087100Y0015957D03*
X0117750Y0020207D03*
X0087100Y0023043D03*
X0081500Y0023043D03*
X0117750Y0027293D03*
X0158000Y0024207D03*
X0189500Y0026793D03*
X0158000Y0031293D03*
X0189500Y0019707D03*
D11*
X0042250Y0015500D03*
X0032250Y0015500D03*
X0032250Y0025500D03*
X0022250Y0025500D03*
X0042250Y0025500D03*
D12*
X0022250Y0015500D03*
D13*
X0127707Y0031250D03*
X0134793Y0031250D03*
X0163207Y0029750D03*
X0170293Y0029750D03*
X0206707Y0033250D03*
X0213793Y0033250D03*
X0218957Y0033250D03*
X0226043Y0033250D03*
X0170293Y0023000D03*
X0163207Y0023000D03*
D14*
X0206000Y0020031D02*
X0206000Y0025969D01*
X0216000Y0025969D02*
X0216000Y0020031D01*
X0226000Y0020031D02*
X0226000Y0025969D01*
X0236000Y0025969D02*
X0236000Y0020031D01*
D15*
X0248000Y0023000D03*
X0010000Y0023000D03*
D16*
X0012250Y0012250D03*
X0037250Y0012250D03*
X0059250Y0012750D03*
X0068250Y0016500D03*
X0074250Y0017000D03*
X0065750Y0019500D03*
X0057250Y0020750D03*
X0073250Y0022500D03*
X0086043Y0019707D03*
X0091750Y0019250D03*
X0097500Y0018750D03*
X0101250Y0020500D03*
X0100250Y0016000D03*
X0125500Y0019500D03*
X0146750Y0023750D03*
X0132750Y0024250D03*
X0125500Y0026750D03*
X0137500Y0027000D03*
X0144000Y0027000D03*
X0149500Y0027000D03*
X0166250Y0030750D03*
X0167500Y0034250D03*
X0181500Y0034250D03*
X0192250Y0030500D03*
X0219000Y0033250D03*
X0197000Y0025500D03*
X0176250Y0025500D03*
X0176250Y0020500D03*
X0181250Y0018000D03*
X0189500Y0019000D03*
X0134750Y0032000D03*
X0088750Y0029000D03*
X0074750Y0030500D03*
X0063250Y0029750D03*
X0051000Y0028500D03*
X0065500Y0033500D03*
X0078750Y0034250D03*
X0016750Y0034250D03*
X0005250Y0032500D03*
X0027250Y0020750D03*
X0038000Y0019750D03*
D17*
X0005750Y0023000D03*
X0248000Y0023000D03*
D18*
X0148750Y0033000D03*
X0136000Y0013000D03*
M02*
