%
M48
M72
T01C0.01000
T02C0.03000
T03C0.03900
T04C0.03937
T05C0.04000
%
T01
X12250Y12250
X37250Y12250
X59250Y12750
X68250Y16500
X74250Y17000
X65750Y19500
X57250Y20750
X73250Y22500
X86043Y19707
X91750Y19250
X97500Y18750
X101250Y20500
X100250Y16000
X125500Y19500
X146750Y23750
X132750Y24250
X125500Y26750
X137500Y27000
X144000Y27000
X149500Y27000
X166250Y30750
X167500Y34250
X181500Y34250
X192250Y30500
X219000Y33250
X197000Y25500
X176250Y25500
X176250Y20500
X181250Y18000
X189500Y19000
X134750Y32000
X88750Y29000
X74750Y30500
X63250Y29750
X51000Y28500
X65500Y33500
X78750Y34250
X16750Y34250
X5250Y32500
X27250Y20750
X38000Y19750
T02
X136000Y13000
X148750Y33000
T03
X42250Y25500
X32250Y25500
X22250Y25500
X22250Y15500
X32250Y15500
X42250Y15500
T04
X206000Y23000
X216000Y23000
X226000Y23000
X236000Y23000
T05
X248000Y23000
X5750Y23000
M30
