G75*
%MOIN*%
%OFA0B0*%
%FSLAX25Y25*%
%IPPOS*%
%LPD*%
%AMOC8*
5,1,8,0,0,1.08239X$1,22.5*
%
%ADD10C,0.00039*%
%ADD11C,0.01575*%
%ADD12C,0.11811*%
%ADD13C,0.08858*%
%ADD14C,0.05906*%
%ADD15C,0.03569*%
D10*
X0025409Y0005724D02*
X0320685Y0005724D01*
X0321161Y0005730D01*
X0321636Y0005747D01*
X0322111Y0005776D01*
X0322585Y0005816D01*
X0323058Y0005868D01*
X0323529Y0005931D01*
X0323999Y0006005D01*
X0324467Y0006091D01*
X0324933Y0006188D01*
X0325396Y0006296D01*
X0325856Y0006415D01*
X0326314Y0006546D01*
X0326768Y0006687D01*
X0327219Y0006840D01*
X0327665Y0007003D01*
X0328108Y0007177D01*
X0328546Y0007362D01*
X0328980Y0007557D01*
X0329409Y0007763D01*
X0329833Y0007979D01*
X0330252Y0008205D01*
X0330665Y0008441D01*
X0331072Y0008687D01*
X0331473Y0008943D01*
X0331867Y0009209D01*
X0332256Y0009484D01*
X0332637Y0009768D01*
X0333011Y0010061D01*
X0333379Y0010363D01*
X0333739Y0010675D01*
X0334091Y0010994D01*
X0334435Y0011322D01*
X0334772Y0011659D01*
X0335100Y0012003D01*
X0335419Y0012355D01*
X0335731Y0012715D01*
X0336033Y0013083D01*
X0336326Y0013457D01*
X0336610Y0013838D01*
X0336885Y0014227D01*
X0337151Y0014621D01*
X0337407Y0015022D01*
X0337653Y0015429D01*
X0337889Y0015842D01*
X0338115Y0016261D01*
X0338331Y0016685D01*
X0338537Y0017114D01*
X0338732Y0017548D01*
X0338917Y0017986D01*
X0339091Y0018429D01*
X0339254Y0018875D01*
X0339407Y0019326D01*
X0339548Y0019780D01*
X0339679Y0020238D01*
X0339798Y0020698D01*
X0339906Y0021161D01*
X0340003Y0021627D01*
X0340089Y0022095D01*
X0340163Y0022565D01*
X0340226Y0023036D01*
X0340278Y0023509D01*
X0340318Y0023983D01*
X0340347Y0024458D01*
X0340364Y0024933D01*
X0340370Y0025409D01*
X0340370Y0182890D01*
X0340364Y0183366D01*
X0340347Y0183841D01*
X0340318Y0184316D01*
X0340278Y0184790D01*
X0340226Y0185263D01*
X0340163Y0185734D01*
X0340089Y0186204D01*
X0340003Y0186672D01*
X0339906Y0187138D01*
X0339798Y0187601D01*
X0339679Y0188061D01*
X0339548Y0188519D01*
X0339407Y0188973D01*
X0339254Y0189424D01*
X0339091Y0189870D01*
X0338917Y0190313D01*
X0338732Y0190751D01*
X0338537Y0191185D01*
X0338331Y0191614D01*
X0338115Y0192038D01*
X0337889Y0192457D01*
X0337653Y0192870D01*
X0337407Y0193277D01*
X0337151Y0193678D01*
X0336885Y0194072D01*
X0336610Y0194461D01*
X0336326Y0194842D01*
X0336033Y0195216D01*
X0335731Y0195584D01*
X0335419Y0195944D01*
X0335100Y0196296D01*
X0334772Y0196640D01*
X0334435Y0196977D01*
X0334091Y0197305D01*
X0333739Y0197624D01*
X0333379Y0197936D01*
X0333011Y0198238D01*
X0332637Y0198531D01*
X0332256Y0198815D01*
X0331867Y0199090D01*
X0331473Y0199356D01*
X0331072Y0199612D01*
X0330665Y0199858D01*
X0330252Y0200094D01*
X0329833Y0200320D01*
X0329409Y0200536D01*
X0328980Y0200742D01*
X0328546Y0200937D01*
X0328108Y0201122D01*
X0327665Y0201296D01*
X0327219Y0201459D01*
X0326768Y0201612D01*
X0326314Y0201753D01*
X0325856Y0201884D01*
X0325396Y0202003D01*
X0324933Y0202111D01*
X0324467Y0202208D01*
X0323999Y0202294D01*
X0323529Y0202368D01*
X0323058Y0202431D01*
X0322585Y0202483D01*
X0322111Y0202523D01*
X0321636Y0202552D01*
X0321161Y0202569D01*
X0320685Y0202575D01*
X0025409Y0202575D01*
X0024933Y0202569D01*
X0024458Y0202552D01*
X0023983Y0202523D01*
X0023509Y0202483D01*
X0023036Y0202431D01*
X0022565Y0202368D01*
X0022095Y0202294D01*
X0021627Y0202208D01*
X0021161Y0202111D01*
X0020698Y0202003D01*
X0020238Y0201884D01*
X0019780Y0201753D01*
X0019326Y0201612D01*
X0018875Y0201459D01*
X0018429Y0201296D01*
X0017986Y0201122D01*
X0017548Y0200937D01*
X0017114Y0200742D01*
X0016685Y0200536D01*
X0016261Y0200320D01*
X0015842Y0200094D01*
X0015429Y0199858D01*
X0015022Y0199612D01*
X0014621Y0199356D01*
X0014227Y0199090D01*
X0013838Y0198815D01*
X0013457Y0198531D01*
X0013083Y0198238D01*
X0012715Y0197936D01*
X0012355Y0197624D01*
X0012003Y0197305D01*
X0011659Y0196977D01*
X0011322Y0196640D01*
X0010994Y0196296D01*
X0010675Y0195944D01*
X0010363Y0195584D01*
X0010061Y0195216D01*
X0009768Y0194842D01*
X0009484Y0194461D01*
X0009209Y0194072D01*
X0008943Y0193678D01*
X0008687Y0193277D01*
X0008441Y0192870D01*
X0008205Y0192457D01*
X0007979Y0192038D01*
X0007763Y0191614D01*
X0007557Y0191185D01*
X0007362Y0190751D01*
X0007177Y0190313D01*
X0007003Y0189870D01*
X0006840Y0189424D01*
X0006687Y0188973D01*
X0006546Y0188519D01*
X0006415Y0188061D01*
X0006296Y0187601D01*
X0006188Y0187138D01*
X0006091Y0186672D01*
X0006005Y0186204D01*
X0005931Y0185734D01*
X0005868Y0185263D01*
X0005816Y0184790D01*
X0005776Y0184316D01*
X0005747Y0183841D01*
X0005730Y0183366D01*
X0005724Y0182890D01*
X0005724Y0025409D01*
X0005730Y0024933D01*
X0005747Y0024458D01*
X0005776Y0023983D01*
X0005816Y0023509D01*
X0005868Y0023036D01*
X0005931Y0022565D01*
X0006005Y0022095D01*
X0006091Y0021627D01*
X0006188Y0021161D01*
X0006296Y0020698D01*
X0006415Y0020238D01*
X0006546Y0019780D01*
X0006687Y0019326D01*
X0006840Y0018875D01*
X0007003Y0018429D01*
X0007177Y0017986D01*
X0007362Y0017548D01*
X0007557Y0017114D01*
X0007763Y0016685D01*
X0007979Y0016261D01*
X0008205Y0015842D01*
X0008441Y0015429D01*
X0008687Y0015022D01*
X0008943Y0014621D01*
X0009209Y0014227D01*
X0009484Y0013838D01*
X0009768Y0013457D01*
X0010061Y0013083D01*
X0010363Y0012715D01*
X0010675Y0012355D01*
X0010994Y0012003D01*
X0011322Y0011659D01*
X0011659Y0011322D01*
X0012003Y0010994D01*
X0012355Y0010675D01*
X0012715Y0010363D01*
X0013083Y0010061D01*
X0013457Y0009768D01*
X0013838Y0009484D01*
X0014227Y0009209D01*
X0014621Y0008943D01*
X0015022Y0008687D01*
X0015429Y0008441D01*
X0015842Y0008205D01*
X0016261Y0007979D01*
X0016685Y0007763D01*
X0017114Y0007557D01*
X0017548Y0007362D01*
X0017986Y0007177D01*
X0018429Y0007003D01*
X0018875Y0006840D01*
X0019326Y0006687D01*
X0019780Y0006546D01*
X0020238Y0006415D01*
X0020698Y0006296D01*
X0021161Y0006188D01*
X0021627Y0006091D01*
X0022095Y0006005D01*
X0022565Y0005931D01*
X0023036Y0005868D01*
X0023509Y0005816D01*
X0023983Y0005776D01*
X0024458Y0005747D01*
X0024933Y0005730D01*
X0025409Y0005724D01*
D11*
X0020496Y0011366D02*
X0017494Y0012812D01*
X0014889Y0014889D01*
X0012812Y0017494D01*
X0011366Y0020496D01*
X0010625Y0023744D01*
X0010531Y0025409D01*
X0010531Y0182890D01*
X0010625Y0184556D01*
X0011366Y0187804D01*
X0012812Y0190805D01*
X0014889Y0193410D01*
X0017494Y0195487D01*
X0020496Y0196933D01*
X0023744Y0197674D01*
X0025409Y0197768D01*
X0320685Y0197768D01*
X0322351Y0197674D01*
X0325599Y0196933D01*
X0328601Y0195487D01*
X0331205Y0193410D01*
X0333283Y0190805D01*
X0334728Y0187804D01*
X0335469Y0184556D01*
X0335563Y0182890D01*
X0335563Y0025409D01*
X0335469Y0023744D01*
X0334728Y0020496D01*
X0333283Y0017494D01*
X0331205Y0014889D01*
X0328601Y0012812D01*
X0325599Y0011366D01*
X0322351Y0010625D01*
X0320685Y0010531D01*
X0025409Y0010531D01*
X0023744Y0010625D01*
X0020496Y0011366D01*
X0019143Y0012018D02*
X0326951Y0012018D01*
X0329577Y0013591D02*
X0016517Y0013591D01*
X0014670Y0015164D02*
X0331425Y0015164D01*
X0332679Y0016738D02*
X0013415Y0016738D01*
X0012812Y0017494D02*
X0012812Y0017494D01*
X0012418Y0018311D02*
X0279395Y0018311D01*
X0279864Y0018117D02*
X0282766Y0018117D01*
X0285446Y0019227D01*
X0287498Y0021278D01*
X0288608Y0023959D01*
X0288608Y0026860D01*
X0287498Y0029541D01*
X0285446Y0031592D01*
X0282766Y0032702D01*
X0279864Y0032702D01*
X0277184Y0031592D01*
X0275132Y0029541D01*
X0274022Y0026860D01*
X0274022Y0023959D01*
X0275132Y0021278D01*
X0277184Y0019227D01*
X0279864Y0018117D01*
X0283235Y0018311D02*
X0299080Y0018311D01*
X0299549Y0018117D02*
X0302451Y0018117D01*
X0305131Y0019227D01*
X0307183Y0021278D01*
X0308293Y0023959D01*
X0308293Y0026860D01*
X0307183Y0029541D01*
X0305131Y0031592D01*
X0302451Y0032702D01*
X0299549Y0032702D01*
X0296869Y0031592D01*
X0294817Y0029541D01*
X0293707Y0026860D01*
X0293707Y0023959D01*
X0294817Y0021278D01*
X0296869Y0019227D01*
X0299549Y0018117D01*
X0302920Y0018311D02*
X0318765Y0018311D01*
X0319234Y0018117D02*
X0322136Y0018117D01*
X0324816Y0019227D01*
X0326868Y0021278D01*
X0327978Y0023959D01*
X0327978Y0026860D01*
X0326868Y0029541D01*
X0324816Y0031592D01*
X0322136Y0032702D01*
X0319234Y0032702D01*
X0316554Y0031592D01*
X0314502Y0029541D01*
X0313392Y0026860D01*
X0313392Y0023959D01*
X0314502Y0021278D01*
X0316554Y0019227D01*
X0319234Y0018117D01*
X0322605Y0018311D02*
X0333676Y0018311D01*
X0334434Y0019884D02*
X0325474Y0019884D01*
X0326942Y0021458D02*
X0334948Y0021458D01*
X0335307Y0023031D02*
X0327594Y0023031D01*
X0327978Y0024604D02*
X0335518Y0024604D01*
X0335563Y0026177D02*
X0327978Y0026177D01*
X0327609Y0027751D02*
X0335563Y0027751D01*
X0335563Y0029324D02*
X0326957Y0029324D01*
X0325511Y0030897D02*
X0335563Y0030897D01*
X0335563Y0032471D02*
X0322695Y0032471D01*
X0318675Y0032471D02*
X0303010Y0032471D01*
X0305826Y0030897D02*
X0315859Y0030897D01*
X0314413Y0029324D02*
X0307272Y0029324D01*
X0307924Y0027751D02*
X0313761Y0027751D01*
X0313392Y0026177D02*
X0308293Y0026177D01*
X0308293Y0024604D02*
X0313392Y0024604D01*
X0313776Y0023031D02*
X0307909Y0023031D01*
X0307257Y0021458D02*
X0314428Y0021458D01*
X0315896Y0019884D02*
X0305789Y0019884D01*
X0296211Y0019884D02*
X0286103Y0019884D01*
X0287572Y0021458D02*
X0294743Y0021458D01*
X0294091Y0023031D02*
X0288223Y0023031D01*
X0288608Y0024604D02*
X0293707Y0024604D01*
X0293707Y0026177D02*
X0288608Y0026177D01*
X0288239Y0027751D02*
X0294076Y0027751D01*
X0294728Y0029324D02*
X0287587Y0029324D01*
X0286141Y0030897D02*
X0296174Y0030897D01*
X0298990Y0032471D02*
X0283325Y0032471D01*
X0279305Y0032471D02*
X0010531Y0032471D01*
X0010531Y0034044D02*
X0335563Y0034044D01*
X0335563Y0035617D02*
X0010531Y0035617D01*
X0010531Y0037191D02*
X0335563Y0037191D01*
X0335563Y0038764D02*
X0324459Y0038764D01*
X0324816Y0038912D02*
X0326868Y0040963D01*
X0327978Y0043644D01*
X0327978Y0046545D01*
X0326868Y0049226D01*
X0324816Y0051277D01*
X0322136Y0052387D01*
X0319234Y0052387D01*
X0316554Y0051277D01*
X0314502Y0049226D01*
X0313392Y0046545D01*
X0313392Y0043644D01*
X0314502Y0040963D01*
X0316554Y0038912D01*
X0319234Y0037802D01*
X0322136Y0037802D01*
X0324816Y0038912D01*
X0326242Y0040337D02*
X0335563Y0040337D01*
X0335563Y0041911D02*
X0327260Y0041911D01*
X0327912Y0043484D02*
X0335563Y0043484D01*
X0335563Y0045057D02*
X0327978Y0045057D01*
X0327943Y0046631D02*
X0335563Y0046631D01*
X0335563Y0048204D02*
X0327291Y0048204D01*
X0326316Y0049777D02*
X0335563Y0049777D01*
X0335563Y0051351D02*
X0324639Y0051351D01*
X0316731Y0051351D02*
X0304954Y0051351D01*
X0305131Y0051277D02*
X0302451Y0052387D01*
X0299549Y0052387D01*
X0296869Y0051277D01*
X0294817Y0049226D01*
X0293707Y0046545D01*
X0293707Y0043644D01*
X0294817Y0040963D01*
X0296869Y0038912D01*
X0299549Y0037802D01*
X0302451Y0037802D01*
X0305131Y0038912D01*
X0307183Y0040963D01*
X0308293Y0043644D01*
X0308293Y0046545D01*
X0307183Y0049226D01*
X0305131Y0051277D01*
X0306631Y0049777D02*
X0315054Y0049777D01*
X0314079Y0048204D02*
X0307606Y0048204D01*
X0308258Y0046631D02*
X0313428Y0046631D01*
X0313392Y0045057D02*
X0308293Y0045057D01*
X0308227Y0043484D02*
X0313458Y0043484D01*
X0314110Y0041911D02*
X0307575Y0041911D01*
X0306557Y0040337D02*
X0315128Y0040337D01*
X0316911Y0038764D02*
X0304774Y0038764D01*
X0297226Y0038764D02*
X0010531Y0038764D01*
X0010531Y0040337D02*
X0238476Y0040337D01*
X0238650Y0040163D02*
X0240788Y0039278D01*
X0243102Y0039278D01*
X0245240Y0040163D01*
X0246876Y0041800D01*
X0247761Y0043937D01*
X0247761Y0046251D01*
X0246876Y0048389D01*
X0245240Y0050026D01*
X0243102Y0050911D01*
X0240788Y0050911D01*
X0238650Y0050026D01*
X0237014Y0048389D01*
X0236128Y0046251D01*
X0236128Y0043937D01*
X0237014Y0041800D01*
X0238650Y0040163D01*
X0236968Y0041911D02*
X0225214Y0041911D01*
X0224718Y0041415D02*
X0225939Y0042636D01*
X0226600Y0044231D01*
X0226600Y0045958D01*
X0225939Y0047553D01*
X0224718Y0048774D01*
X0223123Y0049435D01*
X0221397Y0049435D01*
X0219801Y0048774D01*
X0218580Y0047553D01*
X0217920Y0045958D01*
X0217920Y0044231D01*
X0218580Y0042636D01*
X0219801Y0041415D01*
X0221397Y0040754D01*
X0223123Y0040754D01*
X0224718Y0041415D01*
X0226290Y0043484D02*
X0236316Y0043484D01*
X0236128Y0045057D02*
X0226600Y0045057D01*
X0226321Y0046631D02*
X0236285Y0046631D01*
X0236937Y0048204D02*
X0225288Y0048204D01*
X0219231Y0048204D02*
X0205603Y0048204D01*
X0205033Y0048774D02*
X0203438Y0049435D01*
X0201711Y0049435D01*
X0200116Y0048774D01*
X0198895Y0047553D01*
X0198235Y0045958D01*
X0198235Y0044231D01*
X0198895Y0042636D01*
X0200116Y0041415D01*
X0201711Y0040754D01*
X0203438Y0040754D01*
X0205033Y0041415D01*
X0206254Y0042636D01*
X0206915Y0044231D01*
X0206915Y0045958D01*
X0206254Y0047553D01*
X0205033Y0048774D01*
X0206636Y0046631D02*
X0218198Y0046631D01*
X0217920Y0045057D02*
X0206915Y0045057D01*
X0206605Y0043484D02*
X0218229Y0043484D01*
X0219306Y0041911D02*
X0205529Y0041911D01*
X0199621Y0041911D02*
X0185844Y0041911D01*
X0185348Y0041415D02*
X0186569Y0042636D01*
X0187230Y0044231D01*
X0187230Y0045958D01*
X0186569Y0047553D01*
X0185348Y0048774D01*
X0183753Y0049435D01*
X0182026Y0049435D01*
X0180431Y0048774D01*
X0179210Y0047553D01*
X0178550Y0045958D01*
X0178550Y0044231D01*
X0179210Y0042636D01*
X0180431Y0041415D01*
X0182026Y0040754D01*
X0183753Y0040754D01*
X0185348Y0041415D01*
X0186920Y0043484D02*
X0198544Y0043484D01*
X0198235Y0045057D02*
X0187230Y0045057D01*
X0186951Y0046631D02*
X0198513Y0046631D01*
X0199546Y0048204D02*
X0185918Y0048204D01*
X0179861Y0048204D02*
X0163986Y0048204D01*
X0163836Y0048266D02*
X0162574Y0048266D01*
X0161408Y0047783D01*
X0160516Y0046891D01*
X0160033Y0045725D01*
X0160033Y0044464D01*
X0160516Y0043298D01*
X0161408Y0042406D01*
X0162574Y0041923D01*
X0163836Y0041923D01*
X0165001Y0042406D01*
X0165894Y0043298D01*
X0166376Y0044464D01*
X0166376Y0045725D01*
X0165894Y0046891D01*
X0165001Y0047783D01*
X0163836Y0048266D01*
X0162424Y0048204D02*
X0144301Y0048204D01*
X0144151Y0048266D02*
X0142889Y0048266D01*
X0141723Y0047783D01*
X0140831Y0046891D01*
X0140348Y0045725D01*
X0140348Y0044464D01*
X0140831Y0043298D01*
X0141723Y0042406D01*
X0142889Y0041923D01*
X0144151Y0041923D01*
X0145316Y0042406D01*
X0146208Y0043298D01*
X0146691Y0044464D01*
X0146691Y0045725D01*
X0146208Y0046891D01*
X0145316Y0047783D01*
X0144151Y0048266D01*
X0142739Y0048204D02*
X0124616Y0048204D01*
X0124466Y0048266D02*
X0125631Y0047783D01*
X0126523Y0046891D01*
X0127006Y0045725D01*
X0127006Y0044464D01*
X0126523Y0043298D01*
X0125631Y0042406D01*
X0124466Y0041923D01*
X0123204Y0041923D01*
X0122038Y0042406D01*
X0121146Y0043298D01*
X0120663Y0044464D01*
X0120663Y0045725D01*
X0121146Y0046891D01*
X0122038Y0047783D01*
X0123204Y0048266D01*
X0124466Y0048266D01*
X0123054Y0048204D02*
X0010531Y0048204D01*
X0010531Y0049777D02*
X0238402Y0049777D01*
X0245488Y0049777D02*
X0258087Y0049777D01*
X0258335Y0050026D02*
X0256699Y0048389D01*
X0255813Y0046251D01*
X0255813Y0043937D01*
X0256699Y0041800D01*
X0258335Y0040163D01*
X0260473Y0039278D01*
X0262787Y0039278D01*
X0264925Y0040163D01*
X0266561Y0041800D01*
X0267446Y0043937D01*
X0267446Y0046251D01*
X0266561Y0048389D01*
X0264925Y0050026D01*
X0262787Y0050911D01*
X0260473Y0050911D01*
X0258335Y0050026D01*
X0256622Y0048204D02*
X0246953Y0048204D01*
X0247604Y0046631D02*
X0255970Y0046631D01*
X0255813Y0045057D02*
X0247761Y0045057D01*
X0247574Y0043484D02*
X0256001Y0043484D01*
X0256653Y0041911D02*
X0246922Y0041911D01*
X0245414Y0040337D02*
X0258161Y0040337D01*
X0265099Y0040337D02*
X0277846Y0040337D01*
X0278020Y0040163D02*
X0280158Y0039278D01*
X0282472Y0039278D01*
X0284610Y0040163D01*
X0286246Y0041800D01*
X0287131Y0043937D01*
X0287131Y0046251D01*
X0286246Y0048389D01*
X0284610Y0050026D01*
X0282472Y0050911D01*
X0280158Y0050911D01*
X0278020Y0050026D01*
X0276384Y0048389D01*
X0275498Y0046251D01*
X0275498Y0043937D01*
X0276384Y0041800D01*
X0278020Y0040163D01*
X0276338Y0041911D02*
X0266607Y0041911D01*
X0267259Y0043484D02*
X0275686Y0043484D01*
X0275498Y0045057D02*
X0267446Y0045057D01*
X0267289Y0046631D02*
X0275655Y0046631D01*
X0276307Y0048204D02*
X0266638Y0048204D01*
X0265173Y0049777D02*
X0277772Y0049777D01*
X0284858Y0049777D02*
X0295369Y0049777D01*
X0294394Y0048204D02*
X0286323Y0048204D01*
X0286974Y0046631D02*
X0293742Y0046631D01*
X0293707Y0045057D02*
X0287131Y0045057D01*
X0286944Y0043484D02*
X0293773Y0043484D01*
X0294425Y0041911D02*
X0286292Y0041911D01*
X0284784Y0040337D02*
X0295443Y0040337D01*
X0297046Y0051351D02*
X0010531Y0051351D01*
X0010531Y0052924D02*
X0335563Y0052924D01*
X0335563Y0054497D02*
X0010531Y0054497D01*
X0010531Y0056070D02*
X0335563Y0056070D01*
X0335563Y0057644D02*
X0322515Y0057644D01*
X0322136Y0057487D02*
X0324816Y0058597D01*
X0326868Y0060648D01*
X0327978Y0063329D01*
X0327978Y0066230D01*
X0326868Y0068911D01*
X0324816Y0070962D01*
X0322136Y0072072D01*
X0319234Y0072072D01*
X0316554Y0070962D01*
X0314502Y0068911D01*
X0313392Y0066230D01*
X0313392Y0063329D01*
X0314502Y0060648D01*
X0316554Y0058597D01*
X0319234Y0057487D01*
X0322136Y0057487D01*
X0318855Y0057644D02*
X0010531Y0057644D01*
X0010531Y0059217D02*
X0259859Y0059217D01*
X0260473Y0058963D02*
X0262787Y0058963D01*
X0264925Y0059848D01*
X0266561Y0061485D01*
X0267446Y0063623D01*
X0267446Y0065937D01*
X0266561Y0068074D01*
X0264925Y0069711D01*
X0262787Y0070596D01*
X0260473Y0070596D01*
X0258335Y0069711D01*
X0256699Y0068074D01*
X0255813Y0065937D01*
X0255813Y0063623D01*
X0256699Y0061485D01*
X0258335Y0059848D01*
X0260473Y0058963D01*
X0263400Y0059217D02*
X0279544Y0059217D01*
X0280158Y0058963D02*
X0282472Y0058963D01*
X0284610Y0059848D01*
X0286246Y0061485D01*
X0287131Y0063623D01*
X0287131Y0065937D01*
X0286246Y0068074D01*
X0284610Y0069711D01*
X0282472Y0070596D01*
X0280158Y0070596D01*
X0278020Y0069711D01*
X0276384Y0068074D01*
X0275498Y0065937D01*
X0275498Y0063623D01*
X0276384Y0061485D01*
X0278020Y0059848D01*
X0280158Y0058963D01*
X0283085Y0059217D02*
X0299230Y0059217D01*
X0299843Y0058963D02*
X0302157Y0058963D01*
X0304295Y0059848D01*
X0305931Y0061485D01*
X0306817Y0063623D01*
X0306817Y0065937D01*
X0305931Y0068074D01*
X0304295Y0069711D01*
X0302157Y0070596D01*
X0299843Y0070596D01*
X0297705Y0069711D01*
X0296069Y0068074D01*
X0295183Y0065937D01*
X0295183Y0063623D01*
X0296069Y0061485D01*
X0297705Y0059848D01*
X0299843Y0058963D01*
X0302770Y0059217D02*
X0315934Y0059217D01*
X0314444Y0060790D02*
X0305237Y0060790D01*
X0306295Y0062364D02*
X0313792Y0062364D01*
X0313392Y0063937D02*
X0306817Y0063937D01*
X0306817Y0065510D02*
X0313392Y0065510D01*
X0313746Y0067084D02*
X0306341Y0067084D01*
X0305348Y0068657D02*
X0314397Y0068657D01*
X0315822Y0070230D02*
X0303040Y0070230D01*
X0298960Y0070230D02*
X0283355Y0070230D01*
X0285663Y0068657D02*
X0296652Y0068657D01*
X0295659Y0067084D02*
X0286656Y0067084D01*
X0287131Y0065510D02*
X0295183Y0065510D01*
X0295183Y0063937D02*
X0287131Y0063937D01*
X0286610Y0062364D02*
X0295705Y0062364D01*
X0296763Y0060790D02*
X0285552Y0060790D01*
X0277078Y0060790D02*
X0265867Y0060790D01*
X0266925Y0062364D02*
X0276020Y0062364D01*
X0275498Y0063937D02*
X0267446Y0063937D01*
X0267446Y0065510D02*
X0275498Y0065510D01*
X0275974Y0067084D02*
X0266971Y0067084D01*
X0265978Y0068657D02*
X0276967Y0068657D01*
X0279275Y0070230D02*
X0263670Y0070230D01*
X0259590Y0070230D02*
X0010531Y0070230D01*
X0010531Y0068657D02*
X0200594Y0068657D01*
X0200116Y0068459D02*
X0198895Y0067238D01*
X0198235Y0065643D01*
X0198235Y0063916D01*
X0198895Y0062321D01*
X0200116Y0061100D01*
X0201711Y0060439D01*
X0203438Y0060439D01*
X0205033Y0061100D01*
X0206254Y0062321D01*
X0206915Y0063916D01*
X0206915Y0065643D01*
X0206254Y0067238D01*
X0205033Y0068459D01*
X0203438Y0069120D01*
X0201711Y0069120D01*
X0200116Y0068459D01*
X0198831Y0067084D02*
X0185071Y0067084D01*
X0184686Y0067468D02*
X0183521Y0067951D01*
X0182259Y0067951D01*
X0181093Y0067468D01*
X0180201Y0066576D01*
X0179718Y0065410D01*
X0179718Y0064149D01*
X0180201Y0062983D01*
X0181093Y0062091D01*
X0182259Y0061608D01*
X0183521Y0061608D01*
X0184686Y0062091D01*
X0185579Y0062983D01*
X0186061Y0064149D01*
X0186061Y0065410D01*
X0185579Y0066576D01*
X0184686Y0067468D01*
X0186020Y0065510D02*
X0198235Y0065510D01*
X0198235Y0063937D02*
X0185974Y0063937D01*
X0184959Y0062364D02*
X0198878Y0062364D01*
X0200864Y0060790D02*
X0010531Y0060790D01*
X0010531Y0062364D02*
X0141450Y0062364D01*
X0141723Y0062091D02*
X0142889Y0061608D01*
X0144151Y0061608D01*
X0145316Y0062091D01*
X0146208Y0062983D01*
X0146691Y0064149D01*
X0146691Y0065410D01*
X0146208Y0066576D01*
X0145316Y0067468D01*
X0144151Y0067951D01*
X0142889Y0067951D01*
X0141723Y0067468D01*
X0140831Y0066576D01*
X0140348Y0065410D01*
X0140348Y0064149D01*
X0140831Y0062983D01*
X0141723Y0062091D01*
X0140436Y0063937D02*
X0010531Y0063937D01*
X0010531Y0065510D02*
X0140389Y0065510D01*
X0141338Y0067084D02*
X0010531Y0067084D01*
X0010531Y0071804D02*
X0318585Y0071804D01*
X0322785Y0071804D02*
X0335563Y0071804D01*
X0335563Y0073377D02*
X0010531Y0073377D01*
X0010531Y0074950D02*
X0335563Y0074950D01*
X0335563Y0076524D02*
X0010531Y0076524D01*
X0010531Y0078097D02*
X0335563Y0078097D01*
X0335563Y0079670D02*
X0324116Y0079670D01*
X0323980Y0079534D02*
X0325616Y0081170D01*
X0326502Y0083308D01*
X0326502Y0085622D01*
X0325616Y0087759D01*
X0323980Y0089396D01*
X0321842Y0090281D01*
X0319528Y0090281D01*
X0317390Y0089396D01*
X0315754Y0087759D01*
X0314869Y0085622D01*
X0314869Y0083308D01*
X0315754Y0081170D01*
X0317390Y0079534D01*
X0319528Y0078648D01*
X0321842Y0078648D01*
X0323980Y0079534D01*
X0325647Y0081244D02*
X0335563Y0081244D01*
X0335563Y0082817D02*
X0326298Y0082817D01*
X0326502Y0084390D02*
X0335563Y0084390D01*
X0335563Y0085963D02*
X0326360Y0085963D01*
X0325708Y0087537D02*
X0335563Y0087537D01*
X0335563Y0089110D02*
X0324265Y0089110D01*
X0317105Y0089110D02*
X0304580Y0089110D01*
X0304295Y0089396D02*
X0305931Y0087759D01*
X0306817Y0085622D01*
X0306817Y0083308D01*
X0305931Y0081170D01*
X0304295Y0079534D01*
X0302157Y0078648D01*
X0299843Y0078648D01*
X0297705Y0079534D01*
X0296069Y0081170D01*
X0295183Y0083308D01*
X0295183Y0085622D01*
X0296069Y0087759D01*
X0297705Y0089396D01*
X0299843Y0090281D01*
X0302157Y0090281D01*
X0304295Y0089396D01*
X0306023Y0087537D02*
X0315662Y0087537D01*
X0315010Y0085963D02*
X0306675Y0085963D01*
X0306817Y0084390D02*
X0314869Y0084390D01*
X0315072Y0082817D02*
X0306613Y0082817D01*
X0305962Y0081244D02*
X0315723Y0081244D01*
X0317254Y0079670D02*
X0304431Y0079670D01*
X0297569Y0079670D02*
X0284746Y0079670D01*
X0284610Y0079534D02*
X0286246Y0081170D01*
X0287131Y0083308D01*
X0287131Y0085622D01*
X0286246Y0087759D01*
X0284610Y0089396D01*
X0282472Y0090281D01*
X0280158Y0090281D01*
X0278020Y0089396D01*
X0276384Y0087759D01*
X0275498Y0085622D01*
X0275498Y0083308D01*
X0276384Y0081170D01*
X0278020Y0079534D01*
X0280158Y0078648D01*
X0282472Y0078648D01*
X0284610Y0079534D01*
X0286277Y0081244D02*
X0296038Y0081244D01*
X0295387Y0082817D02*
X0286928Y0082817D01*
X0287131Y0084390D02*
X0295183Y0084390D01*
X0295325Y0085963D02*
X0286990Y0085963D01*
X0286338Y0087537D02*
X0295977Y0087537D01*
X0297420Y0089110D02*
X0284895Y0089110D01*
X0277735Y0089110D02*
X0010531Y0089110D01*
X0010531Y0087537D02*
X0201704Y0087537D01*
X0201944Y0087636D02*
X0200778Y0087153D01*
X0199886Y0086261D01*
X0199403Y0085095D01*
X0199403Y0083834D01*
X0199886Y0082668D01*
X0200778Y0081776D01*
X0201944Y0081293D01*
X0203206Y0081293D01*
X0204371Y0081776D01*
X0205264Y0082668D01*
X0205746Y0083834D01*
X0205746Y0085095D01*
X0205264Y0086261D01*
X0204371Y0087153D01*
X0203206Y0087636D01*
X0201944Y0087636D01*
X0203446Y0087537D02*
X0219194Y0087537D01*
X0219801Y0088144D02*
X0218580Y0086923D01*
X0217920Y0085328D01*
X0217920Y0083601D01*
X0218580Y0082006D01*
X0219801Y0080785D01*
X0221397Y0080124D01*
X0223123Y0080124D01*
X0224718Y0080785D01*
X0225939Y0082006D01*
X0226600Y0083601D01*
X0226600Y0085328D01*
X0225939Y0086923D01*
X0224718Y0088144D01*
X0223123Y0088805D01*
X0221397Y0088805D01*
X0219801Y0088144D01*
X0218183Y0085963D02*
X0205387Y0085963D01*
X0205746Y0084390D02*
X0217920Y0084390D01*
X0218245Y0082817D02*
X0205325Y0082817D01*
X0199824Y0082817D02*
X0010531Y0082817D01*
X0010531Y0084390D02*
X0199403Y0084390D01*
X0199763Y0085963D02*
X0010531Y0085963D01*
X0010531Y0081244D02*
X0219343Y0081244D01*
X0225177Y0081244D02*
X0239028Y0081244D01*
X0239486Y0080785D02*
X0241082Y0080124D01*
X0242808Y0080124D01*
X0244403Y0080785D01*
X0245624Y0082006D01*
X0246285Y0083601D01*
X0246285Y0085328D01*
X0245624Y0086923D01*
X0244403Y0088144D01*
X0242808Y0088805D01*
X0241082Y0088805D01*
X0239486Y0088144D01*
X0238265Y0086923D01*
X0237605Y0085328D01*
X0237605Y0083601D01*
X0238265Y0082006D01*
X0239486Y0080785D01*
X0237930Y0082817D02*
X0226275Y0082817D01*
X0226600Y0084390D02*
X0237605Y0084390D01*
X0237868Y0085963D02*
X0226337Y0085963D01*
X0225326Y0087537D02*
X0238879Y0087537D01*
X0245011Y0087537D02*
X0258564Y0087537D01*
X0259171Y0088144D02*
X0257951Y0086923D01*
X0257290Y0085328D01*
X0257290Y0083601D01*
X0257951Y0082006D01*
X0259171Y0080785D01*
X0260767Y0080124D01*
X0262493Y0080124D01*
X0264088Y0080785D01*
X0265309Y0082006D01*
X0265970Y0083601D01*
X0265970Y0085328D01*
X0265309Y0086923D01*
X0264088Y0088144D01*
X0262493Y0088805D01*
X0260767Y0088805D01*
X0259171Y0088144D01*
X0257553Y0085963D02*
X0246022Y0085963D01*
X0246285Y0084390D02*
X0257290Y0084390D01*
X0257615Y0082817D02*
X0245960Y0082817D01*
X0244862Y0081244D02*
X0258713Y0081244D01*
X0264547Y0081244D02*
X0276353Y0081244D01*
X0275702Y0082817D02*
X0265645Y0082817D01*
X0265970Y0084390D02*
X0275498Y0084390D01*
X0275640Y0085963D02*
X0265707Y0085963D01*
X0264696Y0087537D02*
X0276292Y0087537D01*
X0277884Y0079670D02*
X0010531Y0079670D01*
X0010531Y0090683D02*
X0335563Y0090683D01*
X0335563Y0092257D02*
X0010531Y0092257D01*
X0010531Y0093830D02*
X0335563Y0093830D01*
X0335563Y0095403D02*
X0010531Y0095403D01*
X0010531Y0096977D02*
X0335563Y0096977D01*
X0335563Y0098550D02*
X0322366Y0098550D01*
X0321842Y0098333D02*
X0323980Y0099219D01*
X0325616Y0100855D01*
X0326502Y0102993D01*
X0326502Y0105307D01*
X0325616Y0107444D01*
X0323980Y0109081D01*
X0321842Y0109966D01*
X0319528Y0109966D01*
X0317390Y0109081D01*
X0315754Y0107444D01*
X0314869Y0105307D01*
X0314869Y0102993D01*
X0315754Y0100855D01*
X0317390Y0099219D01*
X0319528Y0098333D01*
X0321842Y0098333D01*
X0319004Y0098550D02*
X0302681Y0098550D01*
X0302157Y0098333D02*
X0304295Y0099219D01*
X0305931Y0100855D01*
X0306817Y0102993D01*
X0306817Y0105307D01*
X0305931Y0107444D01*
X0304295Y0109081D01*
X0302157Y0109966D01*
X0299843Y0109966D01*
X0297705Y0109081D01*
X0296069Y0107444D01*
X0295183Y0105307D01*
X0295183Y0102993D01*
X0296069Y0100855D01*
X0297705Y0099219D01*
X0299843Y0098333D01*
X0302157Y0098333D01*
X0299319Y0098550D02*
X0010531Y0098550D01*
X0010531Y0100123D02*
X0240324Y0100123D01*
X0241082Y0099809D02*
X0239486Y0100470D01*
X0238265Y0101691D01*
X0237605Y0103286D01*
X0237605Y0105013D01*
X0238265Y0106608D01*
X0239486Y0107829D01*
X0241082Y0108490D01*
X0242808Y0108490D01*
X0244403Y0107829D01*
X0245624Y0106608D01*
X0246285Y0105013D01*
X0246285Y0103286D01*
X0245624Y0101691D01*
X0244403Y0100470D01*
X0242808Y0099809D01*
X0241082Y0099809D01*
X0243566Y0100123D02*
X0260009Y0100123D01*
X0260767Y0099809D02*
X0262493Y0099809D01*
X0264088Y0100470D01*
X0265309Y0101691D01*
X0265970Y0103286D01*
X0265970Y0105013D01*
X0265309Y0106608D01*
X0264088Y0107829D01*
X0262493Y0108490D01*
X0260767Y0108490D01*
X0259171Y0107829D01*
X0257951Y0106608D01*
X0257290Y0105013D01*
X0257290Y0103286D01*
X0257951Y0101691D01*
X0259171Y0100470D01*
X0260767Y0099809D01*
X0263251Y0100123D02*
X0279694Y0100123D01*
X0280452Y0099809D02*
X0278856Y0100470D01*
X0277636Y0101691D01*
X0276975Y0103286D01*
X0276975Y0105013D01*
X0277636Y0106608D01*
X0278856Y0107829D01*
X0280452Y0108490D01*
X0282178Y0108490D01*
X0283773Y0107829D01*
X0284994Y0106608D01*
X0285655Y0105013D01*
X0285655Y0103286D01*
X0284994Y0101691D01*
X0283773Y0100470D01*
X0282178Y0099809D01*
X0280452Y0099809D01*
X0282936Y0100123D02*
X0296800Y0100123D01*
X0295720Y0101697D02*
X0284997Y0101697D01*
X0285648Y0103270D02*
X0295183Y0103270D01*
X0295183Y0104843D02*
X0285655Y0104843D01*
X0285074Y0106417D02*
X0295643Y0106417D01*
X0296614Y0107990D02*
X0283385Y0107990D01*
X0279245Y0107990D02*
X0263700Y0107990D01*
X0265389Y0106417D02*
X0277556Y0106417D01*
X0276975Y0104843D02*
X0265970Y0104843D01*
X0265963Y0103270D02*
X0276982Y0103270D01*
X0277633Y0101697D02*
X0265312Y0101697D01*
X0257948Y0101697D02*
X0245627Y0101697D01*
X0246278Y0103270D02*
X0257297Y0103270D01*
X0257290Y0104843D02*
X0246285Y0104843D01*
X0245704Y0106417D02*
X0257871Y0106417D01*
X0259560Y0107990D02*
X0244015Y0107990D01*
X0239875Y0107990D02*
X0010531Y0107990D01*
X0010531Y0109563D02*
X0298870Y0109563D01*
X0303130Y0109563D02*
X0318555Y0109563D01*
X0316299Y0107990D02*
X0305386Y0107990D01*
X0306357Y0106417D02*
X0315328Y0106417D01*
X0314869Y0104843D02*
X0306817Y0104843D01*
X0306817Y0103270D02*
X0314869Y0103270D01*
X0315405Y0101697D02*
X0306280Y0101697D01*
X0305199Y0100123D02*
X0316486Y0100123D01*
X0324885Y0100123D02*
X0335563Y0100123D01*
X0335563Y0101697D02*
X0325965Y0101697D01*
X0326502Y0103270D02*
X0335563Y0103270D01*
X0335563Y0104843D02*
X0326502Y0104843D01*
X0326042Y0106417D02*
X0335563Y0106417D01*
X0335563Y0107990D02*
X0325071Y0107990D01*
X0322815Y0109563D02*
X0335563Y0109563D01*
X0335563Y0111136D02*
X0010531Y0111136D01*
X0010531Y0112710D02*
X0335563Y0112710D01*
X0335563Y0114283D02*
X0010531Y0114283D01*
X0010531Y0115856D02*
X0335563Y0115856D01*
X0335563Y0117430D02*
X0010531Y0117430D01*
X0010531Y0119003D02*
X0317291Y0119003D01*
X0317390Y0118904D02*
X0319528Y0118018D01*
X0321842Y0118018D01*
X0323980Y0118904D01*
X0325616Y0120540D01*
X0326502Y0122678D01*
X0326502Y0124992D01*
X0325616Y0127129D01*
X0323980Y0128766D01*
X0321842Y0129651D01*
X0319528Y0129651D01*
X0317390Y0128766D01*
X0315754Y0127129D01*
X0314869Y0124992D01*
X0314869Y0122678D01*
X0315754Y0120540D01*
X0317390Y0118904D01*
X0315739Y0120576D02*
X0303880Y0120576D01*
X0303458Y0120155D02*
X0304679Y0121376D01*
X0305340Y0122971D01*
X0305340Y0124698D01*
X0304679Y0126293D01*
X0303458Y0127514D01*
X0301863Y0128175D01*
X0300137Y0128175D01*
X0298541Y0127514D01*
X0297321Y0126293D01*
X0296660Y0124698D01*
X0296660Y0122971D01*
X0297321Y0121376D01*
X0298541Y0120155D01*
X0300137Y0119494D01*
X0301863Y0119494D01*
X0303458Y0120155D01*
X0305000Y0122150D02*
X0315087Y0122150D01*
X0314869Y0123723D02*
X0305340Y0123723D01*
X0305092Y0125296D02*
X0314995Y0125296D01*
X0315646Y0126870D02*
X0304103Y0126870D01*
X0297897Y0126870D02*
X0284418Y0126870D01*
X0284994Y0126293D02*
X0283773Y0127514D01*
X0282178Y0128175D01*
X0280452Y0128175D01*
X0278856Y0127514D01*
X0277636Y0126293D01*
X0276975Y0124698D01*
X0276975Y0122971D01*
X0277636Y0121376D01*
X0278856Y0120155D01*
X0280452Y0119494D01*
X0282178Y0119494D01*
X0283773Y0120155D01*
X0284994Y0121376D01*
X0285655Y0122971D01*
X0285655Y0124698D01*
X0284994Y0126293D01*
X0285407Y0125296D02*
X0296908Y0125296D01*
X0296660Y0123723D02*
X0285655Y0123723D01*
X0285315Y0122150D02*
X0297000Y0122150D01*
X0298120Y0120576D02*
X0284195Y0120576D01*
X0278435Y0120576D02*
X0264510Y0120576D01*
X0264088Y0120155D02*
X0265309Y0121376D01*
X0265970Y0122971D01*
X0265970Y0124698D01*
X0265309Y0126293D01*
X0264088Y0127514D01*
X0262493Y0128175D01*
X0260767Y0128175D01*
X0259171Y0127514D01*
X0257951Y0126293D01*
X0257290Y0124698D01*
X0257290Y0122971D01*
X0257951Y0121376D01*
X0259171Y0120155D01*
X0260767Y0119494D01*
X0262493Y0119494D01*
X0264088Y0120155D01*
X0265630Y0122150D02*
X0277315Y0122150D01*
X0276975Y0123723D02*
X0265970Y0123723D01*
X0265722Y0125296D02*
X0277223Y0125296D01*
X0278212Y0126870D02*
X0264733Y0126870D01*
X0258527Y0126870D02*
X0010531Y0126870D01*
X0010531Y0128443D02*
X0317068Y0128443D01*
X0324303Y0128443D02*
X0335563Y0128443D01*
X0335563Y0130016D02*
X0010531Y0130016D01*
X0010531Y0131590D02*
X0335563Y0131590D01*
X0335563Y0133163D02*
X0010531Y0133163D01*
X0010531Y0134736D02*
X0335563Y0134736D01*
X0335563Y0136310D02*
X0010531Y0136310D01*
X0010531Y0137883D02*
X0335563Y0137883D01*
X0335563Y0139456D02*
X0322216Y0139456D01*
X0321548Y0139180D02*
X0323144Y0139840D01*
X0324364Y0141061D01*
X0325025Y0142656D01*
X0325025Y0144383D01*
X0324364Y0145978D01*
X0323144Y0147199D01*
X0321548Y0147860D01*
X0319822Y0147860D01*
X0318227Y0147199D01*
X0317006Y0145978D01*
X0316345Y0144383D01*
X0316345Y0142656D01*
X0317006Y0141061D01*
X0318227Y0139840D01*
X0319822Y0139180D01*
X0321548Y0139180D01*
X0319154Y0139456D02*
X0302531Y0139456D01*
X0301863Y0139180D02*
X0303458Y0139840D01*
X0304679Y0141061D01*
X0305340Y0142656D01*
X0305340Y0144383D01*
X0304679Y0145978D01*
X0303458Y0147199D01*
X0301863Y0147860D01*
X0300137Y0147860D01*
X0298541Y0147199D01*
X0297321Y0145978D01*
X0296660Y0144383D01*
X0296660Y0142656D01*
X0297321Y0141061D01*
X0298541Y0139840D01*
X0300137Y0139180D01*
X0301863Y0139180D01*
X0299469Y0139456D02*
X0282846Y0139456D01*
X0282178Y0139180D02*
X0283773Y0139840D01*
X0284994Y0141061D01*
X0285655Y0142656D01*
X0285655Y0144383D01*
X0284994Y0145978D01*
X0283773Y0147199D01*
X0282178Y0147860D01*
X0280452Y0147860D01*
X0278856Y0147199D01*
X0277636Y0145978D01*
X0276975Y0144383D01*
X0276975Y0142656D01*
X0277636Y0141061D01*
X0278856Y0139840D01*
X0280452Y0139180D01*
X0282178Y0139180D01*
X0279784Y0139456D02*
X0010531Y0139456D01*
X0010531Y0141029D02*
X0259635Y0141029D01*
X0259833Y0140831D02*
X0260999Y0140348D01*
X0262261Y0140348D01*
X0263427Y0140831D01*
X0264319Y0141723D01*
X0264802Y0142889D01*
X0264802Y0144151D01*
X0264319Y0145316D01*
X0263427Y0146208D01*
X0262261Y0146691D01*
X0260999Y0146691D01*
X0259833Y0146208D01*
X0258941Y0145316D01*
X0258458Y0144151D01*
X0258458Y0142889D01*
X0258941Y0141723D01*
X0259833Y0140831D01*
X0258577Y0142603D02*
X0010531Y0142603D01*
X0010531Y0144176D02*
X0258469Y0144176D01*
X0259374Y0145749D02*
X0010531Y0145749D01*
X0010531Y0147323D02*
X0279155Y0147323D01*
X0277541Y0145749D02*
X0263886Y0145749D01*
X0264791Y0144176D02*
X0276975Y0144176D01*
X0276997Y0142603D02*
X0264683Y0142603D01*
X0263625Y0141029D02*
X0277667Y0141029D01*
X0284963Y0141029D02*
X0297352Y0141029D01*
X0296682Y0142603D02*
X0285633Y0142603D01*
X0285655Y0144176D02*
X0296660Y0144176D01*
X0297226Y0145749D02*
X0285089Y0145749D01*
X0283475Y0147323D02*
X0298840Y0147323D01*
X0303160Y0147323D02*
X0318525Y0147323D01*
X0316911Y0145749D02*
X0304774Y0145749D01*
X0305340Y0144176D02*
X0316345Y0144176D01*
X0316367Y0142603D02*
X0305318Y0142603D01*
X0304648Y0141029D02*
X0317037Y0141029D01*
X0324333Y0141029D02*
X0335563Y0141029D01*
X0335563Y0142603D02*
X0325003Y0142603D01*
X0325025Y0144176D02*
X0335563Y0144176D01*
X0335563Y0145749D02*
X0324459Y0145749D01*
X0322845Y0147323D02*
X0335563Y0147323D01*
X0335563Y0148896D02*
X0010531Y0148896D01*
X0010531Y0150469D02*
X0335563Y0150469D01*
X0335563Y0152043D02*
X0010531Y0152043D01*
X0010531Y0153616D02*
X0335563Y0153616D01*
X0335563Y0155189D02*
X0010531Y0155189D01*
X0010531Y0156763D02*
X0335563Y0156763D01*
X0335563Y0158336D02*
X0010531Y0158336D01*
X0010531Y0159909D02*
X0298158Y0159909D01*
X0298541Y0159525D02*
X0300137Y0158865D01*
X0301863Y0158865D01*
X0303458Y0159525D01*
X0304679Y0160746D01*
X0305340Y0162341D01*
X0305340Y0164068D01*
X0304679Y0165663D01*
X0303458Y0166884D01*
X0301863Y0167545D01*
X0300137Y0167545D01*
X0298541Y0166884D01*
X0297321Y0165663D01*
X0296660Y0164068D01*
X0296660Y0162341D01*
X0297321Y0160746D01*
X0298541Y0159525D01*
X0297016Y0161483D02*
X0284035Y0161483D01*
X0284004Y0161408D02*
X0284487Y0162574D01*
X0284487Y0163836D01*
X0284004Y0165001D01*
X0283112Y0165894D01*
X0281946Y0166376D01*
X0280684Y0166376D01*
X0279518Y0165894D01*
X0278626Y0165001D01*
X0278143Y0163836D01*
X0278143Y0162574D01*
X0278626Y0161408D01*
X0279518Y0160516D01*
X0280684Y0160033D01*
X0281946Y0160033D01*
X0283112Y0160516D01*
X0284004Y0161408D01*
X0284487Y0163056D02*
X0296660Y0163056D01*
X0296892Y0164629D02*
X0284158Y0164629D01*
X0282366Y0166202D02*
X0297860Y0166202D01*
X0304140Y0166202D02*
X0317545Y0166202D01*
X0317006Y0165663D02*
X0316345Y0164068D01*
X0316345Y0162341D01*
X0317006Y0160746D01*
X0318227Y0159525D01*
X0319822Y0158865D01*
X0321548Y0158865D01*
X0323144Y0159525D01*
X0324364Y0160746D01*
X0325025Y0162341D01*
X0325025Y0164068D01*
X0324364Y0165663D01*
X0323144Y0166884D01*
X0321548Y0167545D01*
X0319822Y0167545D01*
X0318227Y0166884D01*
X0317006Y0165663D01*
X0316577Y0164629D02*
X0305108Y0164629D01*
X0305340Y0163056D02*
X0316345Y0163056D01*
X0316701Y0161483D02*
X0304984Y0161483D01*
X0303842Y0159909D02*
X0317843Y0159909D01*
X0323527Y0159909D02*
X0335563Y0159909D01*
X0335563Y0161483D02*
X0324669Y0161483D01*
X0325025Y0163056D02*
X0335563Y0163056D01*
X0335563Y0164629D02*
X0324793Y0164629D01*
X0323825Y0166202D02*
X0335563Y0166202D01*
X0335563Y0167776D02*
X0010531Y0167776D01*
X0010531Y0169349D02*
X0335563Y0169349D01*
X0335563Y0170922D02*
X0010531Y0170922D01*
X0010531Y0172496D02*
X0335563Y0172496D01*
X0335563Y0174069D02*
X0010531Y0174069D01*
X0010531Y0175642D02*
X0335563Y0175642D01*
X0335563Y0177216D02*
X0010531Y0177216D01*
X0010531Y0178789D02*
X0319244Y0178789D01*
X0319822Y0178550D02*
X0321548Y0178550D01*
X0323144Y0179210D01*
X0324364Y0180431D01*
X0325025Y0182026D01*
X0325025Y0183753D01*
X0324364Y0185348D01*
X0323144Y0186569D01*
X0321548Y0187230D01*
X0319822Y0187230D01*
X0318227Y0186569D01*
X0317006Y0185348D01*
X0316345Y0183753D01*
X0316345Y0182026D01*
X0317006Y0180431D01*
X0318227Y0179210D01*
X0319822Y0178550D01*
X0322126Y0178789D02*
X0335563Y0178789D01*
X0335563Y0180362D02*
X0324295Y0180362D01*
X0324988Y0181936D02*
X0335563Y0181936D01*
X0335528Y0183509D02*
X0325025Y0183509D01*
X0324475Y0185082D02*
X0335349Y0185082D01*
X0334990Y0186656D02*
X0322935Y0186656D01*
X0318435Y0186656D02*
X0011104Y0186656D01*
X0010745Y0185082D02*
X0259337Y0185082D01*
X0258941Y0184686D02*
X0258458Y0183521D01*
X0258458Y0182259D01*
X0258941Y0181093D01*
X0259833Y0180201D01*
X0260999Y0179718D01*
X0262261Y0179718D01*
X0263427Y0180201D01*
X0264319Y0181093D01*
X0264802Y0182259D01*
X0264802Y0183521D01*
X0264319Y0184686D01*
X0263427Y0185579D01*
X0262261Y0186061D01*
X0260999Y0186061D01*
X0259833Y0185579D01*
X0258941Y0184686D01*
X0258458Y0183509D02*
X0010566Y0183509D01*
X0010531Y0181936D02*
X0258592Y0181936D01*
X0259672Y0180362D02*
X0010531Y0180362D01*
X0011571Y0188229D02*
X0334523Y0188229D01*
X0333766Y0189802D02*
X0012329Y0189802D01*
X0013267Y0191376D02*
X0332828Y0191376D01*
X0331573Y0192949D02*
X0014521Y0192949D01*
X0016284Y0194522D02*
X0329811Y0194522D01*
X0327338Y0196095D02*
X0018757Y0196095D01*
X0023720Y0197669D02*
X0322374Y0197669D01*
X0316895Y0185082D02*
X0303293Y0185082D01*
X0303689Y0184686D02*
X0302797Y0185579D01*
X0301631Y0186061D01*
X0300369Y0186061D01*
X0299203Y0185579D01*
X0298311Y0184686D01*
X0297828Y0183521D01*
X0297828Y0182259D01*
X0298311Y0181093D01*
X0299203Y0180201D01*
X0300369Y0179718D01*
X0301631Y0179718D01*
X0302797Y0180201D01*
X0303689Y0181093D01*
X0304172Y0182259D01*
X0304172Y0183521D01*
X0303689Y0184686D01*
X0304172Y0183509D02*
X0316345Y0183509D01*
X0316382Y0181936D02*
X0304038Y0181936D01*
X0302958Y0180362D02*
X0317075Y0180362D01*
X0299042Y0180362D02*
X0283273Y0180362D01*
X0283112Y0180201D02*
X0284004Y0181093D01*
X0284487Y0182259D01*
X0284487Y0183521D01*
X0284004Y0184686D01*
X0283112Y0185579D01*
X0281946Y0186061D01*
X0280684Y0186061D01*
X0279518Y0185579D01*
X0278626Y0184686D01*
X0278143Y0183521D01*
X0278143Y0182259D01*
X0278626Y0181093D01*
X0279518Y0180201D01*
X0280684Y0179718D01*
X0281946Y0179718D01*
X0283112Y0180201D01*
X0284353Y0181936D02*
X0297962Y0181936D01*
X0297828Y0183509D02*
X0284487Y0183509D01*
X0283608Y0185082D02*
X0298707Y0185082D01*
X0279022Y0185082D02*
X0263923Y0185082D01*
X0264802Y0183509D02*
X0278143Y0183509D01*
X0278277Y0181936D02*
X0264668Y0181936D01*
X0263588Y0180362D02*
X0279357Y0180362D01*
X0280264Y0166202D02*
X0262681Y0166202D01*
X0262261Y0166376D02*
X0260999Y0166376D01*
X0259833Y0165894D01*
X0258941Y0165001D01*
X0258458Y0163836D01*
X0258458Y0162574D01*
X0258941Y0161408D01*
X0259833Y0160516D01*
X0260999Y0160033D01*
X0262261Y0160033D01*
X0263427Y0160516D01*
X0264319Y0161408D01*
X0264802Y0162574D01*
X0264802Y0163836D01*
X0264319Y0165001D01*
X0263427Y0165894D01*
X0262261Y0166376D01*
X0260579Y0166202D02*
X0010531Y0166202D01*
X0010531Y0164629D02*
X0258787Y0164629D01*
X0258458Y0163056D02*
X0010531Y0163056D01*
X0010531Y0161483D02*
X0258910Y0161483D01*
X0264350Y0161483D02*
X0278595Y0161483D01*
X0278143Y0163056D02*
X0264802Y0163056D01*
X0264473Y0164629D02*
X0278472Y0164629D01*
X0241551Y0182890D02*
X0241553Y0182929D01*
X0241559Y0182968D01*
X0241569Y0183006D01*
X0241582Y0183043D01*
X0241599Y0183078D01*
X0241619Y0183112D01*
X0241643Y0183143D01*
X0241670Y0183172D01*
X0241699Y0183198D01*
X0241731Y0183221D01*
X0241765Y0183241D01*
X0241801Y0183257D01*
X0241838Y0183269D01*
X0241877Y0183278D01*
X0241916Y0183283D01*
X0241955Y0183284D01*
X0241994Y0183281D01*
X0242033Y0183274D01*
X0242070Y0183263D01*
X0242107Y0183249D01*
X0242142Y0183231D01*
X0242175Y0183210D01*
X0242206Y0183185D01*
X0242234Y0183158D01*
X0242259Y0183128D01*
X0242281Y0183095D01*
X0242300Y0183061D01*
X0242315Y0183025D01*
X0242327Y0182987D01*
X0242335Y0182949D01*
X0242339Y0182910D01*
X0242339Y0182870D01*
X0242335Y0182831D01*
X0242327Y0182793D01*
X0242315Y0182755D01*
X0242300Y0182719D01*
X0242281Y0182685D01*
X0242259Y0182652D01*
X0242234Y0182622D01*
X0242206Y0182595D01*
X0242175Y0182570D01*
X0242142Y0182549D01*
X0242107Y0182531D01*
X0242070Y0182517D01*
X0242033Y0182506D01*
X0241994Y0182499D01*
X0241955Y0182496D01*
X0241916Y0182497D01*
X0241877Y0182502D01*
X0241838Y0182511D01*
X0241801Y0182523D01*
X0241765Y0182539D01*
X0241731Y0182559D01*
X0241699Y0182582D01*
X0241670Y0182608D01*
X0241643Y0182637D01*
X0241619Y0182668D01*
X0241599Y0182702D01*
X0241582Y0182737D01*
X0241569Y0182774D01*
X0241559Y0182812D01*
X0241553Y0182851D01*
X0241551Y0182890D01*
X0221866Y0182890D02*
X0221868Y0182929D01*
X0221874Y0182968D01*
X0221884Y0183006D01*
X0221897Y0183043D01*
X0221914Y0183078D01*
X0221934Y0183112D01*
X0221958Y0183143D01*
X0221985Y0183172D01*
X0222014Y0183198D01*
X0222046Y0183221D01*
X0222080Y0183241D01*
X0222116Y0183257D01*
X0222153Y0183269D01*
X0222192Y0183278D01*
X0222231Y0183283D01*
X0222270Y0183284D01*
X0222309Y0183281D01*
X0222348Y0183274D01*
X0222385Y0183263D01*
X0222422Y0183249D01*
X0222457Y0183231D01*
X0222490Y0183210D01*
X0222521Y0183185D01*
X0222549Y0183158D01*
X0222574Y0183128D01*
X0222596Y0183095D01*
X0222615Y0183061D01*
X0222630Y0183025D01*
X0222642Y0182987D01*
X0222650Y0182949D01*
X0222654Y0182910D01*
X0222654Y0182870D01*
X0222650Y0182831D01*
X0222642Y0182793D01*
X0222630Y0182755D01*
X0222615Y0182719D01*
X0222596Y0182685D01*
X0222574Y0182652D01*
X0222549Y0182622D01*
X0222521Y0182595D01*
X0222490Y0182570D01*
X0222457Y0182549D01*
X0222422Y0182531D01*
X0222385Y0182517D01*
X0222348Y0182506D01*
X0222309Y0182499D01*
X0222270Y0182496D01*
X0222231Y0182497D01*
X0222192Y0182502D01*
X0222153Y0182511D01*
X0222116Y0182523D01*
X0222080Y0182539D01*
X0222046Y0182559D01*
X0222014Y0182582D01*
X0221985Y0182608D01*
X0221958Y0182637D01*
X0221934Y0182668D01*
X0221914Y0182702D01*
X0221897Y0182737D01*
X0221884Y0182774D01*
X0221874Y0182812D01*
X0221868Y0182851D01*
X0221866Y0182890D01*
X0202181Y0182890D02*
X0202183Y0182929D01*
X0202189Y0182968D01*
X0202199Y0183006D01*
X0202212Y0183043D01*
X0202229Y0183078D01*
X0202249Y0183112D01*
X0202273Y0183143D01*
X0202300Y0183172D01*
X0202329Y0183198D01*
X0202361Y0183221D01*
X0202395Y0183241D01*
X0202431Y0183257D01*
X0202468Y0183269D01*
X0202507Y0183278D01*
X0202546Y0183283D01*
X0202585Y0183284D01*
X0202624Y0183281D01*
X0202663Y0183274D01*
X0202700Y0183263D01*
X0202737Y0183249D01*
X0202772Y0183231D01*
X0202805Y0183210D01*
X0202836Y0183185D01*
X0202864Y0183158D01*
X0202889Y0183128D01*
X0202911Y0183095D01*
X0202930Y0183061D01*
X0202945Y0183025D01*
X0202957Y0182987D01*
X0202965Y0182949D01*
X0202969Y0182910D01*
X0202969Y0182870D01*
X0202965Y0182831D01*
X0202957Y0182793D01*
X0202945Y0182755D01*
X0202930Y0182719D01*
X0202911Y0182685D01*
X0202889Y0182652D01*
X0202864Y0182622D01*
X0202836Y0182595D01*
X0202805Y0182570D01*
X0202772Y0182549D01*
X0202737Y0182531D01*
X0202700Y0182517D01*
X0202663Y0182506D01*
X0202624Y0182499D01*
X0202585Y0182496D01*
X0202546Y0182497D01*
X0202507Y0182502D01*
X0202468Y0182511D01*
X0202431Y0182523D01*
X0202395Y0182539D01*
X0202361Y0182559D01*
X0202329Y0182582D01*
X0202300Y0182608D01*
X0202273Y0182637D01*
X0202249Y0182668D01*
X0202229Y0182702D01*
X0202212Y0182737D01*
X0202199Y0182774D01*
X0202189Y0182812D01*
X0202183Y0182851D01*
X0202181Y0182890D01*
X0257538Y0125296D02*
X0010531Y0125296D01*
X0010531Y0123723D02*
X0257290Y0123723D01*
X0257630Y0122150D02*
X0010531Y0122150D01*
X0010531Y0120576D02*
X0258750Y0120576D01*
X0238186Y0106417D02*
X0224478Y0106417D01*
X0224056Y0106838D02*
X0222891Y0107321D01*
X0221629Y0107321D01*
X0220463Y0106838D01*
X0219571Y0105946D01*
X0219088Y0104780D01*
X0219088Y0103519D01*
X0219571Y0102353D01*
X0220463Y0101461D01*
X0221629Y0100978D01*
X0222891Y0100978D01*
X0224056Y0101461D01*
X0224949Y0102353D01*
X0225431Y0103519D01*
X0225431Y0104780D01*
X0224949Y0105946D01*
X0224056Y0106838D01*
X0225405Y0104843D02*
X0237605Y0104843D01*
X0237612Y0103270D02*
X0225328Y0103270D01*
X0224292Y0101697D02*
X0238263Y0101697D01*
X0220227Y0101697D02*
X0204607Y0101697D01*
X0204371Y0101461D02*
X0205264Y0102353D01*
X0205746Y0103519D01*
X0205746Y0104780D01*
X0205264Y0105946D01*
X0204371Y0106838D01*
X0203206Y0107321D01*
X0201944Y0107321D01*
X0200778Y0106838D01*
X0199886Y0105946D01*
X0199403Y0104780D01*
X0199403Y0103519D01*
X0199886Y0102353D01*
X0200778Y0101461D01*
X0201944Y0100978D01*
X0203206Y0100978D01*
X0204371Y0101461D01*
X0205643Y0103270D02*
X0219191Y0103270D01*
X0219114Y0104843D02*
X0205720Y0104843D01*
X0204793Y0106417D02*
X0220041Y0106417D01*
X0200356Y0106417D02*
X0185108Y0106417D01*
X0184686Y0106838D02*
X0183521Y0107321D01*
X0182259Y0107321D01*
X0181093Y0106838D01*
X0180201Y0105946D01*
X0179718Y0104780D01*
X0179718Y0103519D01*
X0180201Y0102353D01*
X0181093Y0101461D01*
X0182259Y0100978D01*
X0183521Y0100978D01*
X0184686Y0101461D01*
X0185579Y0102353D01*
X0186061Y0103519D01*
X0186061Y0104780D01*
X0185579Y0105946D01*
X0184686Y0106838D01*
X0186035Y0104843D02*
X0199429Y0104843D01*
X0199506Y0103270D02*
X0185958Y0103270D01*
X0184922Y0101697D02*
X0200542Y0101697D01*
X0180857Y0101697D02*
X0010531Y0101697D01*
X0010531Y0103270D02*
X0179821Y0103270D01*
X0179744Y0104843D02*
X0010531Y0104843D01*
X0010531Y0106417D02*
X0180671Y0106417D01*
X0162811Y0104150D02*
X0162813Y0104189D01*
X0162819Y0104228D01*
X0162829Y0104266D01*
X0162842Y0104303D01*
X0162859Y0104338D01*
X0162879Y0104372D01*
X0162903Y0104403D01*
X0162930Y0104432D01*
X0162959Y0104458D01*
X0162991Y0104481D01*
X0163025Y0104501D01*
X0163061Y0104517D01*
X0163098Y0104529D01*
X0163137Y0104538D01*
X0163176Y0104543D01*
X0163215Y0104544D01*
X0163254Y0104541D01*
X0163293Y0104534D01*
X0163330Y0104523D01*
X0163367Y0104509D01*
X0163402Y0104491D01*
X0163435Y0104470D01*
X0163466Y0104445D01*
X0163494Y0104418D01*
X0163519Y0104388D01*
X0163541Y0104355D01*
X0163560Y0104321D01*
X0163575Y0104285D01*
X0163587Y0104247D01*
X0163595Y0104209D01*
X0163599Y0104170D01*
X0163599Y0104130D01*
X0163595Y0104091D01*
X0163587Y0104053D01*
X0163575Y0104015D01*
X0163560Y0103979D01*
X0163541Y0103945D01*
X0163519Y0103912D01*
X0163494Y0103882D01*
X0163466Y0103855D01*
X0163435Y0103830D01*
X0163402Y0103809D01*
X0163367Y0103791D01*
X0163330Y0103777D01*
X0163293Y0103766D01*
X0163254Y0103759D01*
X0163215Y0103756D01*
X0163176Y0103757D01*
X0163137Y0103762D01*
X0163098Y0103771D01*
X0163061Y0103783D01*
X0163025Y0103799D01*
X0162991Y0103819D01*
X0162959Y0103842D01*
X0162930Y0103868D01*
X0162903Y0103897D01*
X0162879Y0103928D01*
X0162859Y0103962D01*
X0162842Y0103997D01*
X0162829Y0104034D01*
X0162819Y0104072D01*
X0162813Y0104111D01*
X0162811Y0104150D01*
X0143126Y0104150D02*
X0143128Y0104189D01*
X0143134Y0104228D01*
X0143144Y0104266D01*
X0143157Y0104303D01*
X0143174Y0104338D01*
X0143194Y0104372D01*
X0143218Y0104403D01*
X0143245Y0104432D01*
X0143274Y0104458D01*
X0143306Y0104481D01*
X0143340Y0104501D01*
X0143376Y0104517D01*
X0143413Y0104529D01*
X0143452Y0104538D01*
X0143491Y0104543D01*
X0143530Y0104544D01*
X0143569Y0104541D01*
X0143608Y0104534D01*
X0143645Y0104523D01*
X0143682Y0104509D01*
X0143717Y0104491D01*
X0143750Y0104470D01*
X0143781Y0104445D01*
X0143809Y0104418D01*
X0143834Y0104388D01*
X0143856Y0104355D01*
X0143875Y0104321D01*
X0143890Y0104285D01*
X0143902Y0104247D01*
X0143910Y0104209D01*
X0143914Y0104170D01*
X0143914Y0104130D01*
X0143910Y0104091D01*
X0143902Y0104053D01*
X0143890Y0104015D01*
X0143875Y0103979D01*
X0143856Y0103945D01*
X0143834Y0103912D01*
X0143809Y0103882D01*
X0143781Y0103855D01*
X0143750Y0103830D01*
X0143717Y0103809D01*
X0143682Y0103791D01*
X0143645Y0103777D01*
X0143608Y0103766D01*
X0143569Y0103759D01*
X0143530Y0103756D01*
X0143491Y0103757D01*
X0143452Y0103762D01*
X0143413Y0103771D01*
X0143376Y0103783D01*
X0143340Y0103799D01*
X0143306Y0103819D01*
X0143274Y0103842D01*
X0143245Y0103868D01*
X0143218Y0103897D01*
X0143194Y0103928D01*
X0143174Y0103962D01*
X0143157Y0103997D01*
X0143144Y0104034D01*
X0143134Y0104072D01*
X0143128Y0104111D01*
X0143126Y0104150D01*
X0145701Y0067084D02*
X0161023Y0067084D01*
X0161408Y0067468D02*
X0160516Y0066576D01*
X0160033Y0065410D01*
X0160033Y0064149D01*
X0160516Y0062983D01*
X0161408Y0062091D01*
X0162574Y0061608D01*
X0163836Y0061608D01*
X0165001Y0062091D01*
X0165894Y0062983D01*
X0166376Y0064149D01*
X0166376Y0065410D01*
X0165894Y0066576D01*
X0165001Y0067468D01*
X0163836Y0067951D01*
X0162574Y0067951D01*
X0161408Y0067468D01*
X0160074Y0065510D02*
X0146650Y0065510D01*
X0146604Y0063937D02*
X0160121Y0063937D01*
X0161135Y0062364D02*
X0145589Y0062364D01*
X0165274Y0062364D02*
X0180820Y0062364D01*
X0179806Y0063937D02*
X0166289Y0063937D01*
X0166335Y0065510D02*
X0179760Y0065510D01*
X0180709Y0067084D02*
X0165386Y0067084D01*
X0166001Y0046631D02*
X0178828Y0046631D01*
X0178550Y0045057D02*
X0166376Y0045057D01*
X0165971Y0043484D02*
X0178859Y0043484D01*
X0179936Y0041911D02*
X0010531Y0041911D01*
X0010531Y0043484D02*
X0121069Y0043484D01*
X0120663Y0045057D02*
X0010531Y0045057D01*
X0010531Y0046631D02*
X0121038Y0046631D01*
X0126631Y0046631D02*
X0140723Y0046631D01*
X0140348Y0045057D02*
X0127006Y0045057D01*
X0126601Y0043484D02*
X0140754Y0043484D01*
X0146286Y0043484D02*
X0160439Y0043484D01*
X0160033Y0045057D02*
X0146691Y0045057D01*
X0146316Y0046631D02*
X0160408Y0046631D01*
X0162341Y0029750D02*
X0160746Y0029089D01*
X0159525Y0027868D01*
X0158865Y0026273D01*
X0158865Y0024546D01*
X0159525Y0022951D01*
X0160746Y0021730D01*
X0162341Y0021069D01*
X0164068Y0021069D01*
X0165663Y0021730D01*
X0166884Y0022951D01*
X0167545Y0024546D01*
X0167545Y0026273D01*
X0166884Y0027868D01*
X0165663Y0029089D01*
X0164068Y0029750D01*
X0162341Y0029750D01*
X0161314Y0029324D02*
X0010531Y0029324D01*
X0010531Y0027751D02*
X0102006Y0027751D01*
X0102353Y0028098D02*
X0101461Y0027206D01*
X0100978Y0026040D01*
X0100978Y0024779D01*
X0101461Y0023613D01*
X0102353Y0022721D01*
X0103519Y0022238D01*
X0104780Y0022238D01*
X0105946Y0022721D01*
X0106838Y0023613D01*
X0107321Y0024779D01*
X0107321Y0026040D01*
X0106838Y0027206D01*
X0105946Y0028098D01*
X0104780Y0028581D01*
X0103519Y0028581D01*
X0102353Y0028098D01*
X0101035Y0026177D02*
X0010531Y0026177D01*
X0010577Y0024604D02*
X0101050Y0024604D01*
X0102043Y0023031D02*
X0010788Y0023031D01*
X0011147Y0021458D02*
X0161404Y0021458D01*
X0159492Y0023031D02*
X0145627Y0023031D01*
X0145316Y0022721D02*
X0146208Y0023613D01*
X0146691Y0024779D01*
X0146691Y0026040D01*
X0146208Y0027206D01*
X0145316Y0028098D01*
X0144151Y0028581D01*
X0142889Y0028581D01*
X0141723Y0028098D01*
X0140831Y0027206D01*
X0140348Y0026040D01*
X0140348Y0024779D01*
X0140831Y0023613D01*
X0141723Y0022721D01*
X0142889Y0022238D01*
X0144151Y0022238D01*
X0145316Y0022721D01*
X0146619Y0024604D02*
X0158865Y0024604D01*
X0158865Y0026177D02*
X0146635Y0026177D01*
X0145664Y0027751D02*
X0159477Y0027751D01*
X0165095Y0029324D02*
X0180999Y0029324D01*
X0180431Y0029089D02*
X0182026Y0029750D01*
X0183753Y0029750D01*
X0185348Y0029089D01*
X0186569Y0027868D01*
X0187230Y0026273D01*
X0187230Y0024546D01*
X0186569Y0022951D01*
X0185348Y0021730D01*
X0183753Y0021069D01*
X0182026Y0021069D01*
X0180431Y0021730D01*
X0179210Y0022951D01*
X0178550Y0024546D01*
X0178550Y0026273D01*
X0179210Y0027868D01*
X0180431Y0029089D01*
X0179162Y0027751D02*
X0166933Y0027751D01*
X0167545Y0026177D02*
X0178550Y0026177D01*
X0178550Y0024604D02*
X0167545Y0024604D01*
X0166917Y0023031D02*
X0179177Y0023031D01*
X0181089Y0021458D02*
X0165005Y0021458D01*
X0184690Y0021458D02*
X0200774Y0021458D01*
X0200116Y0021730D02*
X0201711Y0021069D01*
X0203438Y0021069D01*
X0205033Y0021730D01*
X0206254Y0022951D01*
X0206915Y0024546D01*
X0206915Y0026273D01*
X0206254Y0027868D01*
X0205033Y0029089D01*
X0203438Y0029750D01*
X0201711Y0029750D01*
X0200116Y0029089D01*
X0198895Y0027868D01*
X0198235Y0026273D01*
X0198235Y0024546D01*
X0198895Y0022951D01*
X0200116Y0021730D01*
X0198862Y0023031D02*
X0186602Y0023031D01*
X0187230Y0024604D02*
X0198235Y0024604D01*
X0198235Y0026177D02*
X0187230Y0026177D01*
X0186618Y0027751D02*
X0198847Y0027751D01*
X0200684Y0029324D02*
X0184780Y0029324D01*
X0204465Y0029324D02*
X0217949Y0029324D01*
X0217329Y0028704D02*
X0216443Y0026566D01*
X0216443Y0024252D01*
X0217329Y0022115D01*
X0218965Y0020478D01*
X0221103Y0019593D01*
X0223417Y0019593D01*
X0225555Y0020478D01*
X0227191Y0022115D01*
X0228076Y0024252D01*
X0228076Y0026566D01*
X0227191Y0028704D01*
X0225555Y0030340D01*
X0223417Y0031226D01*
X0221103Y0031226D01*
X0218965Y0030340D01*
X0217329Y0028704D01*
X0216934Y0027751D02*
X0206303Y0027751D01*
X0206915Y0026177D02*
X0216443Y0026177D01*
X0216443Y0024604D02*
X0206915Y0024604D01*
X0206287Y0023031D02*
X0216949Y0023031D01*
X0217986Y0021458D02*
X0204375Y0021458D01*
X0220400Y0019884D02*
X0011661Y0019884D01*
X0010531Y0030897D02*
X0220310Y0030897D01*
X0224210Y0030897D02*
X0239995Y0030897D01*
X0240788Y0031226D02*
X0238650Y0030340D01*
X0237014Y0028704D01*
X0236128Y0026566D01*
X0236128Y0024252D01*
X0237014Y0022115D01*
X0238650Y0020478D01*
X0240788Y0019593D01*
X0243102Y0019593D01*
X0245240Y0020478D01*
X0246876Y0022115D01*
X0247761Y0024252D01*
X0247761Y0026566D01*
X0246876Y0028704D01*
X0245240Y0030340D01*
X0243102Y0031226D01*
X0240788Y0031226D01*
X0243895Y0030897D02*
X0259680Y0030897D01*
X0260473Y0031226D02*
X0258335Y0030340D01*
X0256699Y0028704D01*
X0255813Y0026566D01*
X0255813Y0024252D01*
X0256699Y0022115D01*
X0258335Y0020478D01*
X0260473Y0019593D01*
X0262787Y0019593D01*
X0264925Y0020478D01*
X0266561Y0022115D01*
X0267446Y0024252D01*
X0267446Y0026566D01*
X0266561Y0028704D01*
X0264925Y0030340D01*
X0262787Y0031226D01*
X0260473Y0031226D01*
X0263580Y0030897D02*
X0276489Y0030897D01*
X0275043Y0029324D02*
X0265941Y0029324D01*
X0266956Y0027751D02*
X0274391Y0027751D01*
X0274022Y0026177D02*
X0267446Y0026177D01*
X0267446Y0024604D02*
X0274022Y0024604D01*
X0274406Y0023031D02*
X0266940Y0023031D01*
X0265904Y0021458D02*
X0275058Y0021458D01*
X0276526Y0019884D02*
X0263490Y0019884D01*
X0259770Y0019884D02*
X0243805Y0019884D01*
X0246219Y0021458D02*
X0257356Y0021458D01*
X0256319Y0023031D02*
X0247255Y0023031D01*
X0247761Y0024604D02*
X0255813Y0024604D01*
X0255813Y0026177D02*
X0247761Y0026177D01*
X0247271Y0027751D02*
X0256304Y0027751D01*
X0257319Y0029324D02*
X0246256Y0029324D01*
X0237634Y0029324D02*
X0226571Y0029324D01*
X0227586Y0027751D02*
X0236619Y0027751D01*
X0236128Y0026177D02*
X0228076Y0026177D01*
X0228076Y0024604D02*
X0236128Y0024604D01*
X0236634Y0023031D02*
X0227570Y0023031D01*
X0226534Y0021458D02*
X0237671Y0021458D01*
X0240085Y0019884D02*
X0224120Y0019884D01*
X0223123Y0060439D02*
X0221397Y0060439D01*
X0219801Y0061100D01*
X0218580Y0062321D01*
X0217920Y0063916D01*
X0217920Y0065643D01*
X0218580Y0067238D01*
X0219801Y0068459D01*
X0221397Y0069120D01*
X0223123Y0069120D01*
X0224718Y0068459D01*
X0225939Y0067238D01*
X0226600Y0065643D01*
X0226600Y0063916D01*
X0225939Y0062321D01*
X0224718Y0061100D01*
X0223123Y0060439D01*
X0223971Y0060790D02*
X0240234Y0060790D01*
X0239486Y0061100D02*
X0241082Y0060439D01*
X0242808Y0060439D01*
X0244403Y0061100D01*
X0245624Y0062321D01*
X0246285Y0063916D01*
X0246285Y0065643D01*
X0245624Y0067238D01*
X0244403Y0068459D01*
X0242808Y0069120D01*
X0241082Y0069120D01*
X0239486Y0068459D01*
X0238265Y0067238D01*
X0237605Y0065643D01*
X0237605Y0063916D01*
X0238265Y0062321D01*
X0239486Y0061100D01*
X0238248Y0062364D02*
X0225957Y0062364D01*
X0226600Y0063937D02*
X0237605Y0063937D01*
X0237605Y0065510D02*
X0226600Y0065510D01*
X0226003Y0067084D02*
X0238202Y0067084D01*
X0239965Y0068657D02*
X0224240Y0068657D01*
X0220280Y0068657D02*
X0204555Y0068657D01*
X0206318Y0067084D02*
X0218517Y0067084D01*
X0217920Y0065510D02*
X0206915Y0065510D01*
X0206915Y0063937D02*
X0217920Y0063937D01*
X0218563Y0062364D02*
X0206272Y0062364D01*
X0204286Y0060790D02*
X0220549Y0060790D01*
X0243656Y0060790D02*
X0257393Y0060790D01*
X0256335Y0062364D02*
X0245642Y0062364D01*
X0246285Y0063937D02*
X0255813Y0063937D01*
X0255813Y0065510D02*
X0246285Y0065510D01*
X0245688Y0067084D02*
X0256289Y0067084D01*
X0257282Y0068657D02*
X0243925Y0068657D01*
X0325548Y0070230D02*
X0335563Y0070230D01*
X0335563Y0068657D02*
X0326973Y0068657D01*
X0327624Y0067084D02*
X0335563Y0067084D01*
X0335563Y0065510D02*
X0327978Y0065510D01*
X0327978Y0063937D02*
X0335563Y0063937D01*
X0335563Y0062364D02*
X0327578Y0062364D01*
X0326926Y0060790D02*
X0335563Y0060790D01*
X0335563Y0059217D02*
X0325436Y0059217D01*
X0324079Y0119003D02*
X0335563Y0119003D01*
X0335563Y0120576D02*
X0325631Y0120576D01*
X0326283Y0122150D02*
X0335563Y0122150D01*
X0335563Y0123723D02*
X0326502Y0123723D01*
X0326375Y0125296D02*
X0335563Y0125296D01*
X0335563Y0126870D02*
X0325724Y0126870D01*
X0141376Y0027751D02*
X0125979Y0027751D01*
X0125631Y0028098D02*
X0124466Y0028581D01*
X0123204Y0028581D01*
X0122038Y0028098D01*
X0121146Y0027206D01*
X0120663Y0026040D01*
X0120663Y0024779D01*
X0121146Y0023613D01*
X0122038Y0022721D01*
X0123204Y0022238D01*
X0124466Y0022238D01*
X0125631Y0022721D01*
X0126523Y0023613D01*
X0127006Y0024779D01*
X0127006Y0026040D01*
X0126523Y0027206D01*
X0125631Y0028098D01*
X0126949Y0026177D02*
X0140405Y0026177D01*
X0140420Y0024604D02*
X0126934Y0024604D01*
X0125941Y0023031D02*
X0141413Y0023031D01*
X0121728Y0023031D02*
X0106256Y0023031D01*
X0107249Y0024604D02*
X0120735Y0024604D01*
X0120720Y0026177D02*
X0107264Y0026177D01*
X0106294Y0027751D02*
X0121691Y0027751D01*
X0103756Y0045094D02*
X0103758Y0045133D01*
X0103764Y0045172D01*
X0103774Y0045210D01*
X0103787Y0045247D01*
X0103804Y0045282D01*
X0103824Y0045316D01*
X0103848Y0045347D01*
X0103875Y0045376D01*
X0103904Y0045402D01*
X0103936Y0045425D01*
X0103970Y0045445D01*
X0104006Y0045461D01*
X0104043Y0045473D01*
X0104082Y0045482D01*
X0104121Y0045487D01*
X0104160Y0045488D01*
X0104199Y0045485D01*
X0104238Y0045478D01*
X0104275Y0045467D01*
X0104312Y0045453D01*
X0104347Y0045435D01*
X0104380Y0045414D01*
X0104411Y0045389D01*
X0104439Y0045362D01*
X0104464Y0045332D01*
X0104486Y0045299D01*
X0104505Y0045265D01*
X0104520Y0045229D01*
X0104532Y0045191D01*
X0104540Y0045153D01*
X0104544Y0045114D01*
X0104544Y0045074D01*
X0104540Y0045035D01*
X0104532Y0044997D01*
X0104520Y0044959D01*
X0104505Y0044923D01*
X0104486Y0044889D01*
X0104464Y0044856D01*
X0104439Y0044826D01*
X0104411Y0044799D01*
X0104380Y0044774D01*
X0104347Y0044753D01*
X0104312Y0044735D01*
X0104275Y0044721D01*
X0104238Y0044710D01*
X0104199Y0044703D01*
X0104160Y0044700D01*
X0104121Y0044701D01*
X0104082Y0044706D01*
X0104043Y0044715D01*
X0104006Y0044727D01*
X0103970Y0044743D01*
X0103936Y0044763D01*
X0103904Y0044786D01*
X0103875Y0044812D01*
X0103848Y0044841D01*
X0103824Y0044872D01*
X0103804Y0044906D01*
X0103787Y0044941D01*
X0103774Y0044978D01*
X0103764Y0045016D01*
X0103758Y0045055D01*
X0103756Y0045094D01*
X0084071Y0045094D02*
X0084073Y0045133D01*
X0084079Y0045172D01*
X0084089Y0045210D01*
X0084102Y0045247D01*
X0084119Y0045282D01*
X0084139Y0045316D01*
X0084163Y0045347D01*
X0084190Y0045376D01*
X0084219Y0045402D01*
X0084251Y0045425D01*
X0084285Y0045445D01*
X0084321Y0045461D01*
X0084358Y0045473D01*
X0084397Y0045482D01*
X0084436Y0045487D01*
X0084475Y0045488D01*
X0084514Y0045485D01*
X0084553Y0045478D01*
X0084590Y0045467D01*
X0084627Y0045453D01*
X0084662Y0045435D01*
X0084695Y0045414D01*
X0084726Y0045389D01*
X0084754Y0045362D01*
X0084779Y0045332D01*
X0084801Y0045299D01*
X0084820Y0045265D01*
X0084835Y0045229D01*
X0084847Y0045191D01*
X0084855Y0045153D01*
X0084859Y0045114D01*
X0084859Y0045074D01*
X0084855Y0045035D01*
X0084847Y0044997D01*
X0084835Y0044959D01*
X0084820Y0044923D01*
X0084801Y0044889D01*
X0084779Y0044856D01*
X0084754Y0044826D01*
X0084726Y0044799D01*
X0084695Y0044774D01*
X0084662Y0044753D01*
X0084627Y0044735D01*
X0084590Y0044721D01*
X0084553Y0044710D01*
X0084514Y0044703D01*
X0084475Y0044700D01*
X0084436Y0044701D01*
X0084397Y0044706D01*
X0084358Y0044715D01*
X0084321Y0044727D01*
X0084285Y0044743D01*
X0084251Y0044763D01*
X0084219Y0044786D01*
X0084190Y0044812D01*
X0084163Y0044841D01*
X0084139Y0044872D01*
X0084119Y0044906D01*
X0084102Y0044941D01*
X0084089Y0044978D01*
X0084079Y0045016D01*
X0084073Y0045055D01*
X0084071Y0045094D01*
X0064386Y0045094D02*
X0064388Y0045133D01*
X0064394Y0045172D01*
X0064404Y0045210D01*
X0064417Y0045247D01*
X0064434Y0045282D01*
X0064454Y0045316D01*
X0064478Y0045347D01*
X0064505Y0045376D01*
X0064534Y0045402D01*
X0064566Y0045425D01*
X0064600Y0045445D01*
X0064636Y0045461D01*
X0064673Y0045473D01*
X0064712Y0045482D01*
X0064751Y0045487D01*
X0064790Y0045488D01*
X0064829Y0045485D01*
X0064868Y0045478D01*
X0064905Y0045467D01*
X0064942Y0045453D01*
X0064977Y0045435D01*
X0065010Y0045414D01*
X0065041Y0045389D01*
X0065069Y0045362D01*
X0065094Y0045332D01*
X0065116Y0045299D01*
X0065135Y0045265D01*
X0065150Y0045229D01*
X0065162Y0045191D01*
X0065170Y0045153D01*
X0065174Y0045114D01*
X0065174Y0045074D01*
X0065170Y0045035D01*
X0065162Y0044997D01*
X0065150Y0044959D01*
X0065135Y0044923D01*
X0065116Y0044889D01*
X0065094Y0044856D01*
X0065069Y0044826D01*
X0065041Y0044799D01*
X0065010Y0044774D01*
X0064977Y0044753D01*
X0064942Y0044735D01*
X0064905Y0044721D01*
X0064868Y0044710D01*
X0064829Y0044703D01*
X0064790Y0044700D01*
X0064751Y0044701D01*
X0064712Y0044706D01*
X0064673Y0044715D01*
X0064636Y0044727D01*
X0064600Y0044743D01*
X0064566Y0044763D01*
X0064534Y0044786D01*
X0064505Y0044812D01*
X0064478Y0044841D01*
X0064454Y0044872D01*
X0064434Y0044906D01*
X0064417Y0044941D01*
X0064404Y0044978D01*
X0064394Y0045016D01*
X0064388Y0045055D01*
X0064386Y0045094D01*
X0064386Y0025409D02*
X0064388Y0025448D01*
X0064394Y0025487D01*
X0064404Y0025525D01*
X0064417Y0025562D01*
X0064434Y0025597D01*
X0064454Y0025631D01*
X0064478Y0025662D01*
X0064505Y0025691D01*
X0064534Y0025717D01*
X0064566Y0025740D01*
X0064600Y0025760D01*
X0064636Y0025776D01*
X0064673Y0025788D01*
X0064712Y0025797D01*
X0064751Y0025802D01*
X0064790Y0025803D01*
X0064829Y0025800D01*
X0064868Y0025793D01*
X0064905Y0025782D01*
X0064942Y0025768D01*
X0064977Y0025750D01*
X0065010Y0025729D01*
X0065041Y0025704D01*
X0065069Y0025677D01*
X0065094Y0025647D01*
X0065116Y0025614D01*
X0065135Y0025580D01*
X0065150Y0025544D01*
X0065162Y0025506D01*
X0065170Y0025468D01*
X0065174Y0025429D01*
X0065174Y0025389D01*
X0065170Y0025350D01*
X0065162Y0025312D01*
X0065150Y0025274D01*
X0065135Y0025238D01*
X0065116Y0025204D01*
X0065094Y0025171D01*
X0065069Y0025141D01*
X0065041Y0025114D01*
X0065010Y0025089D01*
X0064977Y0025068D01*
X0064942Y0025050D01*
X0064905Y0025036D01*
X0064868Y0025025D01*
X0064829Y0025018D01*
X0064790Y0025015D01*
X0064751Y0025016D01*
X0064712Y0025021D01*
X0064673Y0025030D01*
X0064636Y0025042D01*
X0064600Y0025058D01*
X0064566Y0025078D01*
X0064534Y0025101D01*
X0064505Y0025127D01*
X0064478Y0025156D01*
X0064454Y0025187D01*
X0064434Y0025221D01*
X0064417Y0025256D01*
X0064404Y0025293D01*
X0064394Y0025331D01*
X0064388Y0025370D01*
X0064386Y0025409D01*
X0044700Y0025409D02*
X0044702Y0025448D01*
X0044708Y0025487D01*
X0044718Y0025525D01*
X0044731Y0025562D01*
X0044748Y0025597D01*
X0044768Y0025631D01*
X0044792Y0025662D01*
X0044819Y0025691D01*
X0044848Y0025717D01*
X0044880Y0025740D01*
X0044914Y0025760D01*
X0044950Y0025776D01*
X0044987Y0025788D01*
X0045026Y0025797D01*
X0045065Y0025802D01*
X0045104Y0025803D01*
X0045143Y0025800D01*
X0045182Y0025793D01*
X0045219Y0025782D01*
X0045256Y0025768D01*
X0045291Y0025750D01*
X0045324Y0025729D01*
X0045355Y0025704D01*
X0045383Y0025677D01*
X0045408Y0025647D01*
X0045430Y0025614D01*
X0045449Y0025580D01*
X0045464Y0025544D01*
X0045476Y0025506D01*
X0045484Y0025468D01*
X0045488Y0025429D01*
X0045488Y0025389D01*
X0045484Y0025350D01*
X0045476Y0025312D01*
X0045464Y0025274D01*
X0045449Y0025238D01*
X0045430Y0025204D01*
X0045408Y0025171D01*
X0045383Y0025141D01*
X0045355Y0025114D01*
X0045324Y0025089D01*
X0045291Y0025068D01*
X0045256Y0025050D01*
X0045219Y0025036D01*
X0045182Y0025025D01*
X0045143Y0025018D01*
X0045104Y0025015D01*
X0045065Y0025016D01*
X0045026Y0025021D01*
X0044987Y0025030D01*
X0044950Y0025042D01*
X0044914Y0025058D01*
X0044880Y0025078D01*
X0044848Y0025101D01*
X0044819Y0025127D01*
X0044792Y0025156D01*
X0044768Y0025187D01*
X0044748Y0025221D01*
X0044731Y0025256D01*
X0044718Y0025293D01*
X0044708Y0025331D01*
X0044702Y0025370D01*
X0044700Y0025409D01*
X0084071Y0025409D02*
X0084073Y0025448D01*
X0084079Y0025487D01*
X0084089Y0025525D01*
X0084102Y0025562D01*
X0084119Y0025597D01*
X0084139Y0025631D01*
X0084163Y0025662D01*
X0084190Y0025691D01*
X0084219Y0025717D01*
X0084251Y0025740D01*
X0084285Y0025760D01*
X0084321Y0025776D01*
X0084358Y0025788D01*
X0084397Y0025797D01*
X0084436Y0025802D01*
X0084475Y0025803D01*
X0084514Y0025800D01*
X0084553Y0025793D01*
X0084590Y0025782D01*
X0084627Y0025768D01*
X0084662Y0025750D01*
X0084695Y0025729D01*
X0084726Y0025704D01*
X0084754Y0025677D01*
X0084779Y0025647D01*
X0084801Y0025614D01*
X0084820Y0025580D01*
X0084835Y0025544D01*
X0084847Y0025506D01*
X0084855Y0025468D01*
X0084859Y0025429D01*
X0084859Y0025389D01*
X0084855Y0025350D01*
X0084847Y0025312D01*
X0084835Y0025274D01*
X0084820Y0025238D01*
X0084801Y0025204D01*
X0084779Y0025171D01*
X0084754Y0025141D01*
X0084726Y0025114D01*
X0084695Y0025089D01*
X0084662Y0025068D01*
X0084627Y0025050D01*
X0084590Y0025036D01*
X0084553Y0025025D01*
X0084514Y0025018D01*
X0084475Y0025015D01*
X0084436Y0025016D01*
X0084397Y0025021D01*
X0084358Y0025030D01*
X0084321Y0025042D01*
X0084285Y0025058D01*
X0084251Y0025078D01*
X0084219Y0025101D01*
X0084190Y0025127D01*
X0084163Y0025156D01*
X0084139Y0025187D01*
X0084119Y0025221D01*
X0084102Y0025256D01*
X0084089Y0025293D01*
X0084079Y0025331D01*
X0084073Y0025370D01*
X0084071Y0025409D01*
X0084071Y0064780D02*
X0084073Y0064819D01*
X0084079Y0064858D01*
X0084089Y0064896D01*
X0084102Y0064933D01*
X0084119Y0064968D01*
X0084139Y0065002D01*
X0084163Y0065033D01*
X0084190Y0065062D01*
X0084219Y0065088D01*
X0084251Y0065111D01*
X0084285Y0065131D01*
X0084321Y0065147D01*
X0084358Y0065159D01*
X0084397Y0065168D01*
X0084436Y0065173D01*
X0084475Y0065174D01*
X0084514Y0065171D01*
X0084553Y0065164D01*
X0084590Y0065153D01*
X0084627Y0065139D01*
X0084662Y0065121D01*
X0084695Y0065100D01*
X0084726Y0065075D01*
X0084754Y0065048D01*
X0084779Y0065018D01*
X0084801Y0064985D01*
X0084820Y0064951D01*
X0084835Y0064915D01*
X0084847Y0064877D01*
X0084855Y0064839D01*
X0084859Y0064800D01*
X0084859Y0064760D01*
X0084855Y0064721D01*
X0084847Y0064683D01*
X0084835Y0064645D01*
X0084820Y0064609D01*
X0084801Y0064575D01*
X0084779Y0064542D01*
X0084754Y0064512D01*
X0084726Y0064485D01*
X0084695Y0064460D01*
X0084662Y0064439D01*
X0084627Y0064421D01*
X0084590Y0064407D01*
X0084553Y0064396D01*
X0084514Y0064389D01*
X0084475Y0064386D01*
X0084436Y0064387D01*
X0084397Y0064392D01*
X0084358Y0064401D01*
X0084321Y0064413D01*
X0084285Y0064429D01*
X0084251Y0064449D01*
X0084219Y0064472D01*
X0084190Y0064498D01*
X0084163Y0064527D01*
X0084139Y0064558D01*
X0084119Y0064592D01*
X0084102Y0064627D01*
X0084089Y0064664D01*
X0084079Y0064702D01*
X0084073Y0064741D01*
X0084071Y0064780D01*
X0103756Y0064780D02*
X0103758Y0064819D01*
X0103764Y0064858D01*
X0103774Y0064896D01*
X0103787Y0064933D01*
X0103804Y0064968D01*
X0103824Y0065002D01*
X0103848Y0065033D01*
X0103875Y0065062D01*
X0103904Y0065088D01*
X0103936Y0065111D01*
X0103970Y0065131D01*
X0104006Y0065147D01*
X0104043Y0065159D01*
X0104082Y0065168D01*
X0104121Y0065173D01*
X0104160Y0065174D01*
X0104199Y0065171D01*
X0104238Y0065164D01*
X0104275Y0065153D01*
X0104312Y0065139D01*
X0104347Y0065121D01*
X0104380Y0065100D01*
X0104411Y0065075D01*
X0104439Y0065048D01*
X0104464Y0065018D01*
X0104486Y0064985D01*
X0104505Y0064951D01*
X0104520Y0064915D01*
X0104532Y0064877D01*
X0104540Y0064839D01*
X0104544Y0064800D01*
X0104544Y0064760D01*
X0104540Y0064721D01*
X0104532Y0064683D01*
X0104520Y0064645D01*
X0104505Y0064609D01*
X0104486Y0064575D01*
X0104464Y0064542D01*
X0104439Y0064512D01*
X0104411Y0064485D01*
X0104380Y0064460D01*
X0104347Y0064439D01*
X0104312Y0064421D01*
X0104275Y0064407D01*
X0104238Y0064396D01*
X0104199Y0064389D01*
X0104160Y0064386D01*
X0104121Y0064387D01*
X0104082Y0064392D01*
X0104043Y0064401D01*
X0104006Y0064413D01*
X0103970Y0064429D01*
X0103936Y0064449D01*
X0103904Y0064472D01*
X0103875Y0064498D01*
X0103848Y0064527D01*
X0103824Y0064558D01*
X0103804Y0064592D01*
X0103787Y0064627D01*
X0103774Y0064664D01*
X0103764Y0064702D01*
X0103758Y0064741D01*
X0103756Y0064780D01*
X0123441Y0064780D02*
X0123443Y0064819D01*
X0123449Y0064858D01*
X0123459Y0064896D01*
X0123472Y0064933D01*
X0123489Y0064968D01*
X0123509Y0065002D01*
X0123533Y0065033D01*
X0123560Y0065062D01*
X0123589Y0065088D01*
X0123621Y0065111D01*
X0123655Y0065131D01*
X0123691Y0065147D01*
X0123728Y0065159D01*
X0123767Y0065168D01*
X0123806Y0065173D01*
X0123845Y0065174D01*
X0123884Y0065171D01*
X0123923Y0065164D01*
X0123960Y0065153D01*
X0123997Y0065139D01*
X0124032Y0065121D01*
X0124065Y0065100D01*
X0124096Y0065075D01*
X0124124Y0065048D01*
X0124149Y0065018D01*
X0124171Y0064985D01*
X0124190Y0064951D01*
X0124205Y0064915D01*
X0124217Y0064877D01*
X0124225Y0064839D01*
X0124229Y0064800D01*
X0124229Y0064760D01*
X0124225Y0064721D01*
X0124217Y0064683D01*
X0124205Y0064645D01*
X0124190Y0064609D01*
X0124171Y0064575D01*
X0124149Y0064542D01*
X0124124Y0064512D01*
X0124096Y0064485D01*
X0124065Y0064460D01*
X0124032Y0064439D01*
X0123997Y0064421D01*
X0123960Y0064407D01*
X0123923Y0064396D01*
X0123884Y0064389D01*
X0123845Y0064386D01*
X0123806Y0064387D01*
X0123767Y0064392D01*
X0123728Y0064401D01*
X0123691Y0064413D01*
X0123655Y0064429D01*
X0123621Y0064449D01*
X0123589Y0064472D01*
X0123560Y0064498D01*
X0123533Y0064527D01*
X0123509Y0064558D01*
X0123489Y0064592D01*
X0123472Y0064627D01*
X0123459Y0064664D01*
X0123449Y0064702D01*
X0123443Y0064741D01*
X0123441Y0064780D01*
D12*
X0281315Y0025409D03*
X0301000Y0025409D03*
X0320685Y0025409D03*
X0320685Y0045094D03*
X0301000Y0045094D03*
X0320685Y0064780D03*
D13*
X0301000Y0064780D03*
X0281315Y0064780D03*
X0261630Y0064780D03*
X0281315Y0084465D03*
X0301000Y0084465D03*
X0320685Y0084465D03*
X0320685Y0104150D03*
X0301000Y0104150D03*
X0320685Y0123835D03*
X0281315Y0045094D03*
X0261630Y0045094D03*
X0241945Y0045094D03*
X0241945Y0025409D03*
X0222260Y0025409D03*
X0261630Y0025409D03*
D14*
X0222260Y0045094D03*
X0202575Y0045094D03*
X0182890Y0045094D03*
X0182890Y0025409D03*
X0163205Y0025409D03*
X0202575Y0025409D03*
X0202575Y0064780D03*
X0222260Y0064780D03*
X0241945Y0064780D03*
X0241945Y0084465D03*
X0222260Y0084465D03*
X0241945Y0104150D03*
X0261630Y0104150D03*
X0281315Y0104150D03*
X0281315Y0123835D03*
X0301000Y0123835D03*
X0301000Y0143520D03*
X0281315Y0143520D03*
X0261630Y0123835D03*
X0320685Y0143520D03*
X0320685Y0163205D03*
X0301000Y0163205D03*
X0320685Y0182890D03*
X0261630Y0084465D03*
D15*
X0222260Y0104150D03*
X0202575Y0104150D03*
X0182890Y0104150D03*
X0202575Y0084465D03*
X0182890Y0064780D03*
X0163205Y0064780D03*
X0143520Y0064780D03*
X0143520Y0045094D03*
X0163205Y0045094D03*
X0143520Y0025409D03*
X0123835Y0025409D03*
X0104150Y0025409D03*
X0123835Y0045094D03*
X0261630Y0143520D03*
X0261630Y0163205D03*
X0281315Y0163205D03*
X0281315Y0182890D03*
X0301000Y0182890D03*
X0261630Y0182890D03*
M02*
