G75*
%MOIN*%
%OFA0B0*%
%FSLAX25Y25*%
%IPPOS*%
%LPD*%
%AMOC8*
5,1,8,0,0,1.08239X$1,22.5*
%
%ADD10C,0.00500*%
%ADD11C,0.00394*%
D10*
X0001600Y0007415D02*
X0011600Y0007415D01*
X0011600Y0057415D01*
X0001600Y0057415D01*
X0001600Y0007415D01*
X0016600Y0009415D02*
X0016600Y0017415D01*
X0019600Y0016415D02*
X0019600Y0014415D01*
X0016600Y0009415D02*
X0034600Y0009415D01*
X0037600Y0012415D01*
X0037600Y0017415D01*
X0035600Y0015415D02*
X0033600Y0015415D01*
X0034600Y0014415D02*
X0034600Y0016415D01*
X0037600Y0023415D02*
X0037600Y0028415D01*
X0034600Y0031415D01*
X0016600Y0031415D01*
X0016600Y0023415D01*
X0016600Y0033415D02*
X0016600Y0041415D01*
X0019600Y0040415D02*
X0019600Y0038415D01*
X0016600Y0033415D02*
X0034600Y0033415D01*
X0037600Y0036415D01*
X0037600Y0041415D01*
X0035600Y0039415D02*
X0033600Y0039415D01*
X0034600Y0038415D02*
X0034600Y0040415D01*
X0037600Y0047415D02*
X0037600Y0052415D01*
X0034600Y0055415D01*
X0016600Y0055415D01*
X0016600Y0047415D01*
X0050931Y0037982D02*
X0050931Y0036013D01*
X0050931Y0037982D02*
X0090301Y0037982D01*
X0090301Y0008848D01*
X0050931Y0008848D01*
X0050931Y0010816D01*
X0050931Y0018297D02*
X0050931Y0028533D01*
X0063600Y0040415D02*
X0063600Y0046415D01*
X0077600Y0046415D01*
X0077600Y0040415D01*
X0063600Y0040415D01*
X0064663Y0047871D02*
X0064663Y0048265D01*
X0064663Y0047871D02*
X0072537Y0047871D01*
X0072537Y0048265D01*
X0073600Y0047915D02*
X0073602Y0047959D01*
X0073608Y0048003D01*
X0073618Y0048046D01*
X0073631Y0048088D01*
X0073648Y0048129D01*
X0073669Y0048168D01*
X0073693Y0048205D01*
X0073720Y0048240D01*
X0073750Y0048272D01*
X0073783Y0048302D01*
X0073819Y0048328D01*
X0073856Y0048352D01*
X0073896Y0048371D01*
X0073937Y0048388D01*
X0073980Y0048400D01*
X0074023Y0048409D01*
X0074067Y0048414D01*
X0074111Y0048415D01*
X0074155Y0048412D01*
X0074199Y0048405D01*
X0074242Y0048394D01*
X0074284Y0048380D01*
X0074324Y0048362D01*
X0074363Y0048340D01*
X0074399Y0048316D01*
X0074433Y0048288D01*
X0074465Y0048257D01*
X0074494Y0048223D01*
X0074520Y0048187D01*
X0074542Y0048149D01*
X0074561Y0048109D01*
X0074576Y0048067D01*
X0074588Y0048025D01*
X0074596Y0047981D01*
X0074600Y0047937D01*
X0074600Y0047893D01*
X0074596Y0047849D01*
X0074588Y0047805D01*
X0074576Y0047763D01*
X0074561Y0047721D01*
X0074542Y0047681D01*
X0074520Y0047643D01*
X0074494Y0047607D01*
X0074465Y0047573D01*
X0074433Y0047542D01*
X0074399Y0047514D01*
X0074363Y0047490D01*
X0074324Y0047468D01*
X0074284Y0047450D01*
X0074242Y0047436D01*
X0074199Y0047425D01*
X0074155Y0047418D01*
X0074111Y0047415D01*
X0074067Y0047416D01*
X0074023Y0047421D01*
X0073980Y0047430D01*
X0073937Y0047442D01*
X0073896Y0047459D01*
X0073856Y0047478D01*
X0073819Y0047502D01*
X0073783Y0047528D01*
X0073750Y0047558D01*
X0073720Y0047590D01*
X0073693Y0047625D01*
X0073669Y0047662D01*
X0073648Y0047701D01*
X0073631Y0047742D01*
X0073618Y0047784D01*
X0073608Y0047827D01*
X0073602Y0047871D01*
X0073600Y0047915D01*
X0082057Y0049352D02*
X0082450Y0049352D01*
X0082057Y0049352D02*
X0082057Y0041478D01*
X0082450Y0041478D01*
X0081600Y0039915D02*
X0081602Y0039959D01*
X0081608Y0040003D01*
X0081618Y0040046D01*
X0081631Y0040088D01*
X0081648Y0040129D01*
X0081669Y0040168D01*
X0081693Y0040205D01*
X0081720Y0040240D01*
X0081750Y0040272D01*
X0081783Y0040302D01*
X0081819Y0040328D01*
X0081856Y0040352D01*
X0081896Y0040371D01*
X0081937Y0040388D01*
X0081980Y0040400D01*
X0082023Y0040409D01*
X0082067Y0040414D01*
X0082111Y0040415D01*
X0082155Y0040412D01*
X0082199Y0040405D01*
X0082242Y0040394D01*
X0082284Y0040380D01*
X0082324Y0040362D01*
X0082363Y0040340D01*
X0082399Y0040316D01*
X0082433Y0040288D01*
X0082465Y0040257D01*
X0082494Y0040223D01*
X0082520Y0040187D01*
X0082542Y0040149D01*
X0082561Y0040109D01*
X0082576Y0040067D01*
X0082588Y0040025D01*
X0082596Y0039981D01*
X0082600Y0039937D01*
X0082600Y0039893D01*
X0082596Y0039849D01*
X0082588Y0039805D01*
X0082576Y0039763D01*
X0082561Y0039721D01*
X0082542Y0039681D01*
X0082520Y0039643D01*
X0082494Y0039607D01*
X0082465Y0039573D01*
X0082433Y0039542D01*
X0082399Y0039514D01*
X0082363Y0039490D01*
X0082324Y0039468D01*
X0082284Y0039450D01*
X0082242Y0039436D01*
X0082199Y0039425D01*
X0082155Y0039418D01*
X0082111Y0039415D01*
X0082067Y0039416D01*
X0082023Y0039421D01*
X0081980Y0039430D01*
X0081937Y0039442D01*
X0081896Y0039459D01*
X0081856Y0039478D01*
X0081819Y0039502D01*
X0081783Y0039528D01*
X0081750Y0039558D01*
X0081720Y0039590D01*
X0081693Y0039625D01*
X0081669Y0039662D01*
X0081648Y0039701D01*
X0081631Y0039742D01*
X0081618Y0039784D01*
X0081608Y0039827D01*
X0081602Y0039871D01*
X0081600Y0039915D01*
X0088750Y0041478D02*
X0089143Y0041478D01*
X0089143Y0049352D01*
X0088750Y0049352D01*
X0072537Y0054564D02*
X0072537Y0054958D01*
X0064663Y0054958D01*
X0064663Y0054564D01*
D11*
X0056104Y0053438D02*
X0056104Y0052651D01*
X0056104Y0053438D02*
X0049017Y0053438D01*
X0049017Y0052651D01*
X0049017Y0049895D02*
X0049017Y0045171D01*
X0049017Y0042415D02*
X0049017Y0041627D01*
X0056104Y0041627D01*
X0056104Y0042415D01*
X0056104Y0045171D02*
X0056104Y0046155D01*
X0056104Y0048911D02*
X0056104Y0049895D01*
M02*
