%
M48
M72
T01C0.02362
T02C0.04724
T03C0.75787
%
T01
X9479Y56138
X8987Y56630
X8495Y57122
X8003Y57122
X7511Y57122
X7019Y57122
X6526Y57122
X6034Y57122
X5542Y57122
X5050Y57122
T02
X17845Y41374
X17845Y43343
X17845Y45311
X17845Y47280
X17845Y49248
X17845Y51217
X17845Y53185
X17845Y55154
X17845Y57122
X17845Y59091
X17845Y61059
X17845Y63028
X17845Y64996
X17845Y66965
X17845Y68933
X17845Y70902
X17845Y72870
X45404Y100429
X47373Y100429
X49341Y100429
X51310Y100429
X53278Y100429
X55247Y100429
X57215Y100429
X59184Y100429
X61152Y100429
X63121Y100429
X65089Y100429
X67058Y100429
X69026Y100429
X70995Y100429
X72963Y100429
X74932Y100429
X104459Y72870
X104459Y70902
X104459Y68933
X104459Y66965
X104459Y64996
X104459Y63028
X104459Y61059
X104459Y59091
X104459Y57122
X104459Y55154
X104459Y53185
X104459Y51217
X104459Y49248
X104459Y47280
X104459Y45311
X104459Y43343
X76900Y13815
X74932Y13815
X72963Y13815
X70995Y13815
X69026Y13815
X67058Y13815
X65089Y13815
X63121Y13815
X61152Y13815
X59184Y13815
X57215Y13815
X55247Y13815
X53278Y13815
X51310Y13815
X49341Y13815
X47373Y13815
T03
X61152Y57122
M30
