G75*
%MOIN*%
%OFA0B0*%
%FSLAX25Y25*%
%IPPOS*%
%LPD*%
%AMOC8*
5,1,8,0,0,1.08239X$1,22.5*
%
%ADD10C,0.00039*%
%ADD11C,0.03962*%
%ADD12C,0.00394*%
%ADD13C,0.79787*%
%ADD14C,0.07087*%
%ADD15C,0.09843*%
D10*
X0020601Y0018343D02*
X0020691Y0018451D01*
X0020785Y0018556D01*
X0020881Y0018659D01*
X0020980Y0018759D01*
X0021081Y0018857D01*
X0021186Y0018951D01*
X0021293Y0019043D01*
X0021402Y0019132D01*
X0021514Y0019217D01*
X0021628Y0019299D01*
X0021745Y0019379D01*
X0021864Y0019455D01*
X0021984Y0019527D01*
X0022107Y0019596D01*
X0022231Y0019662D01*
X0022358Y0019725D01*
X0022486Y0019783D01*
X0022615Y0019838D01*
X0022746Y0019890D01*
X0022879Y0019938D01*
X0023013Y0019982D01*
X0023148Y0020023D01*
X0023283Y0020059D01*
X0023420Y0020092D01*
X0023558Y0020121D01*
X0023697Y0020147D01*
X0023836Y0020168D01*
X0023976Y0020186D01*
X0024116Y0020199D01*
X0024256Y0020209D01*
X0024397Y0020215D01*
X0024538Y0020217D01*
X0024679Y0020215D01*
X0024820Y0020209D01*
X0024960Y0020199D01*
X0025100Y0020186D01*
X0025240Y0020168D01*
X0025379Y0020147D01*
X0025518Y0020121D01*
X0025656Y0020092D01*
X0025793Y0020059D01*
X0025928Y0020023D01*
X0026063Y0019982D01*
X0026197Y0019938D01*
X0026330Y0019890D01*
X0026461Y0019838D01*
X0026590Y0019783D01*
X0026718Y0019725D01*
X0026845Y0019662D01*
X0026969Y0019596D01*
X0027092Y0019527D01*
X0027212Y0019455D01*
X0027331Y0019379D01*
X0027448Y0019299D01*
X0027562Y0019217D01*
X0027674Y0019132D01*
X0027783Y0019043D01*
X0027890Y0018951D01*
X0027995Y0018857D01*
X0028096Y0018759D01*
X0028195Y0018659D01*
X0028291Y0018556D01*
X0028385Y0018451D01*
X0028475Y0018343D01*
X0028522Y0018293D01*
X0028567Y0018240D01*
X0028609Y0018185D01*
X0028647Y0018128D01*
X0028683Y0018068D01*
X0028715Y0018007D01*
X0028743Y0017944D01*
X0028768Y0017880D01*
X0028790Y0017815D01*
X0028808Y0017748D01*
X0028822Y0017680D01*
X0028832Y0017612D01*
X0028839Y0017543D01*
X0028842Y0017474D01*
X0028841Y0017405D01*
X0028836Y0017336D01*
X0028828Y0017268D01*
X0028815Y0017200D01*
X0028799Y0017133D01*
X0028780Y0017067D01*
X0028756Y0017002D01*
X0028729Y0016938D01*
X0028699Y0016876D01*
X0028665Y0016816D01*
X0028628Y0016757D01*
X0028588Y0016701D01*
X0028545Y0016647D01*
X0028499Y0016596D01*
X0028450Y0016547D01*
X0028399Y0016501D01*
X0028345Y0016458D01*
X0028289Y0016418D01*
X0028230Y0016381D01*
X0028170Y0016347D01*
X0028108Y0016317D01*
X0028044Y0016290D01*
X0027979Y0016266D01*
X0027913Y0016247D01*
X0027846Y0016231D01*
X0027778Y0016218D01*
X0027710Y0016210D01*
X0027641Y0016205D01*
X0027572Y0016204D01*
X0027503Y0016207D01*
X0027434Y0016214D01*
X0027366Y0016224D01*
X0027298Y0016238D01*
X0027231Y0016256D01*
X0027166Y0016278D01*
X0027102Y0016303D01*
X0027039Y0016331D01*
X0026978Y0016363D01*
X0026918Y0016399D01*
X0026861Y0016437D01*
X0026806Y0016479D01*
X0026753Y0016524D01*
X0026703Y0016571D01*
X0026646Y0016654D01*
X0026587Y0016735D01*
X0026524Y0016813D01*
X0026458Y0016889D01*
X0026389Y0016963D01*
X0026317Y0017033D01*
X0026243Y0017101D01*
X0026166Y0017166D01*
X0026086Y0017228D01*
X0026005Y0017286D01*
X0025921Y0017342D01*
X0025835Y0017394D01*
X0025747Y0017442D01*
X0025657Y0017488D01*
X0025565Y0017529D01*
X0025472Y0017567D01*
X0025378Y0017602D01*
X0025282Y0017633D01*
X0025185Y0017660D01*
X0025087Y0017683D01*
X0024988Y0017702D01*
X0024889Y0017718D01*
X0024789Y0017730D01*
X0024689Y0017738D01*
X0024588Y0017742D01*
X0024488Y0017742D01*
X0024387Y0017738D01*
X0024287Y0017730D01*
X0024187Y0017718D01*
X0024088Y0017702D01*
X0023989Y0017683D01*
X0023891Y0017660D01*
X0023794Y0017633D01*
X0023698Y0017602D01*
X0023604Y0017567D01*
X0023511Y0017529D01*
X0023419Y0017488D01*
X0023329Y0017442D01*
X0023241Y0017394D01*
X0023155Y0017342D01*
X0023071Y0017286D01*
X0022990Y0017228D01*
X0022910Y0017166D01*
X0022833Y0017101D01*
X0022759Y0017033D01*
X0022687Y0016963D01*
X0022618Y0016889D01*
X0022552Y0016813D01*
X0022489Y0016735D01*
X0022430Y0016654D01*
X0022373Y0016571D01*
X0005050Y0057122D02*
X0005067Y0058499D01*
X0005118Y0059875D01*
X0005202Y0061249D01*
X0005320Y0062621D01*
X0005472Y0063989D01*
X0005657Y0065354D01*
X0005876Y0066713D01*
X0006128Y0068067D01*
X0006413Y0069414D01*
X0006731Y0070754D01*
X0007082Y0072085D01*
X0007466Y0073408D01*
X0007882Y0074720D01*
X0008329Y0076022D01*
X0008809Y0077313D01*
X0009321Y0078591D01*
X0009863Y0079857D01*
X0010436Y0081109D01*
X0011040Y0082346D01*
X0011674Y0083568D01*
X0012338Y0084775D01*
X0013032Y0085964D01*
X0013754Y0087136D01*
X0014505Y0088291D01*
X0015284Y0089426D01*
X0016090Y0090542D01*
X0016924Y0091638D01*
X0017785Y0092713D01*
X0018671Y0093766D01*
X0019583Y0094798D01*
X0020520Y0095807D01*
X0021482Y0096792D01*
X0022467Y0097754D01*
X0023476Y0098691D01*
X0024508Y0099603D01*
X0025561Y0100489D01*
X0026636Y0101350D01*
X0027732Y0102184D01*
X0028848Y0102990D01*
X0029983Y0103769D01*
X0031138Y0104520D01*
X0032310Y0105242D01*
X0033499Y0105936D01*
X0034706Y0106600D01*
X0035928Y0107234D01*
X0037165Y0107838D01*
X0038417Y0108411D01*
X0039683Y0108953D01*
X0040961Y0109465D01*
X0042252Y0109945D01*
X0043554Y0110392D01*
X0044866Y0110808D01*
X0046189Y0111192D01*
X0047520Y0111543D01*
X0048860Y0111861D01*
X0050207Y0112146D01*
X0051561Y0112398D01*
X0052920Y0112617D01*
X0054285Y0112802D01*
X0055653Y0112954D01*
X0057025Y0113072D01*
X0058399Y0113156D01*
X0059775Y0113207D01*
X0061152Y0113224D01*
X0062529Y0113207D01*
X0063905Y0113156D01*
X0065279Y0113072D01*
X0066651Y0112954D01*
X0068019Y0112802D01*
X0069384Y0112617D01*
X0070743Y0112398D01*
X0072097Y0112146D01*
X0073444Y0111861D01*
X0074784Y0111543D01*
X0076115Y0111192D01*
X0077438Y0110808D01*
X0078750Y0110392D01*
X0080052Y0109945D01*
X0081343Y0109465D01*
X0082621Y0108953D01*
X0083887Y0108411D01*
X0085139Y0107838D01*
X0086376Y0107234D01*
X0087598Y0106600D01*
X0088805Y0105936D01*
X0089994Y0105242D01*
X0091166Y0104520D01*
X0092321Y0103769D01*
X0093456Y0102990D01*
X0094572Y0102184D01*
X0095668Y0101350D01*
X0096743Y0100489D01*
X0097796Y0099603D01*
X0098828Y0098691D01*
X0099837Y0097754D01*
X0100822Y0096792D01*
X0101784Y0095807D01*
X0102721Y0094798D01*
X0103633Y0093766D01*
X0104519Y0092713D01*
X0105380Y0091638D01*
X0106214Y0090542D01*
X0107020Y0089426D01*
X0107799Y0088291D01*
X0108550Y0087136D01*
X0109272Y0085964D01*
X0109966Y0084775D01*
X0110630Y0083568D01*
X0111264Y0082346D01*
X0111868Y0081109D01*
X0112441Y0079857D01*
X0112983Y0078591D01*
X0113495Y0077313D01*
X0113975Y0076022D01*
X0114422Y0074720D01*
X0114838Y0073408D01*
X0115222Y0072085D01*
X0115573Y0070754D01*
X0115891Y0069414D01*
X0116176Y0068067D01*
X0116428Y0066713D01*
X0116647Y0065354D01*
X0116832Y0063989D01*
X0116984Y0062621D01*
X0117102Y0061249D01*
X0117186Y0059875D01*
X0117237Y0058499D01*
X0117254Y0057122D01*
X0117237Y0055745D01*
X0117186Y0054369D01*
X0117102Y0052995D01*
X0116984Y0051623D01*
X0116832Y0050255D01*
X0116647Y0048890D01*
X0116428Y0047531D01*
X0116176Y0046177D01*
X0115891Y0044830D01*
X0115573Y0043490D01*
X0115222Y0042159D01*
X0114838Y0040836D01*
X0114422Y0039524D01*
X0113975Y0038222D01*
X0113495Y0036931D01*
X0112983Y0035653D01*
X0112441Y0034387D01*
X0111868Y0033135D01*
X0111264Y0031898D01*
X0110630Y0030676D01*
X0109966Y0029469D01*
X0109272Y0028280D01*
X0108550Y0027108D01*
X0107799Y0025953D01*
X0107020Y0024818D01*
X0106214Y0023702D01*
X0105380Y0022606D01*
X0104519Y0021531D01*
X0103633Y0020478D01*
X0102721Y0019446D01*
X0101784Y0018437D01*
X0100822Y0017452D01*
X0099837Y0016490D01*
X0098828Y0015553D01*
X0097796Y0014641D01*
X0096743Y0013755D01*
X0095668Y0012894D01*
X0094572Y0012060D01*
X0093456Y0011254D01*
X0092321Y0010475D01*
X0091166Y0009724D01*
X0089994Y0009002D01*
X0088805Y0008308D01*
X0087598Y0007644D01*
X0086376Y0007010D01*
X0085139Y0006406D01*
X0083887Y0005833D01*
X0082621Y0005291D01*
X0081343Y0004779D01*
X0080052Y0004299D01*
X0078750Y0003852D01*
X0077438Y0003436D01*
X0076115Y0003052D01*
X0074784Y0002701D01*
X0073444Y0002383D01*
X0072097Y0002098D01*
X0070743Y0001846D01*
X0069384Y0001627D01*
X0068019Y0001442D01*
X0066651Y0001290D01*
X0065279Y0001172D01*
X0063905Y0001088D01*
X0062529Y0001037D01*
X0061152Y0001020D01*
X0059775Y0001037D01*
X0058399Y0001088D01*
X0057025Y0001172D01*
X0055653Y0001290D01*
X0054285Y0001442D01*
X0052920Y0001627D01*
X0051561Y0001846D01*
X0050207Y0002098D01*
X0048860Y0002383D01*
X0047520Y0002701D01*
X0046189Y0003052D01*
X0044866Y0003436D01*
X0043554Y0003852D01*
X0042252Y0004299D01*
X0040961Y0004779D01*
X0039683Y0005291D01*
X0038417Y0005833D01*
X0037165Y0006406D01*
X0035928Y0007010D01*
X0034706Y0007644D01*
X0033499Y0008308D01*
X0032310Y0009002D01*
X0031138Y0009724D01*
X0029983Y0010475D01*
X0028848Y0011254D01*
X0027732Y0012060D01*
X0026636Y0012894D01*
X0025561Y0013755D01*
X0024508Y0014641D01*
X0023476Y0015553D01*
X0022467Y0016490D01*
X0021482Y0017452D01*
X0020520Y0018437D01*
X0019583Y0019446D01*
X0018671Y0020478D01*
X0017785Y0021531D01*
X0016924Y0022606D01*
X0016090Y0023702D01*
X0015284Y0024818D01*
X0014505Y0025953D01*
X0013754Y0027108D01*
X0013032Y0028280D01*
X0012338Y0029469D01*
X0011674Y0030676D01*
X0011040Y0031898D01*
X0010436Y0033135D01*
X0009863Y0034387D01*
X0009321Y0035653D01*
X0008809Y0036931D01*
X0008329Y0038222D01*
X0007882Y0039524D01*
X0007466Y0040836D01*
X0007082Y0042159D01*
X0006731Y0043490D01*
X0006413Y0044830D01*
X0006128Y0046177D01*
X0005876Y0047531D01*
X0005657Y0048890D01*
X0005472Y0050255D01*
X0005320Y0051623D01*
X0005202Y0052995D01*
X0005118Y0054369D01*
X0005067Y0055745D01*
X0005050Y0057122D01*
X0022373Y0089799D02*
X0022323Y0089752D01*
X0022270Y0089707D01*
X0022215Y0089665D01*
X0022158Y0089627D01*
X0022098Y0089591D01*
X0022037Y0089559D01*
X0021974Y0089531D01*
X0021910Y0089506D01*
X0021845Y0089484D01*
X0021778Y0089466D01*
X0021710Y0089452D01*
X0021642Y0089442D01*
X0021573Y0089435D01*
X0021504Y0089432D01*
X0021435Y0089433D01*
X0021366Y0089438D01*
X0021298Y0089446D01*
X0021230Y0089459D01*
X0021163Y0089475D01*
X0021097Y0089494D01*
X0021032Y0089518D01*
X0020968Y0089545D01*
X0020906Y0089575D01*
X0020846Y0089609D01*
X0020787Y0089646D01*
X0020731Y0089686D01*
X0020677Y0089729D01*
X0020626Y0089775D01*
X0020577Y0089824D01*
X0020531Y0089875D01*
X0020488Y0089929D01*
X0020448Y0089985D01*
X0020411Y0090044D01*
X0020377Y0090104D01*
X0020347Y0090166D01*
X0020320Y0090230D01*
X0020296Y0090295D01*
X0020277Y0090361D01*
X0020261Y0090428D01*
X0020248Y0090496D01*
X0020240Y0090564D01*
X0020235Y0090633D01*
X0020234Y0090702D01*
X0020237Y0090771D01*
X0020244Y0090840D01*
X0020254Y0090908D01*
X0020268Y0090976D01*
X0020286Y0091043D01*
X0020308Y0091108D01*
X0020333Y0091172D01*
X0020361Y0091235D01*
X0020393Y0091296D01*
X0020429Y0091356D01*
X0020467Y0091413D01*
X0020509Y0091468D01*
X0020554Y0091521D01*
X0020601Y0091571D01*
X0020684Y0091628D01*
X0020765Y0091687D01*
X0020843Y0091750D01*
X0020919Y0091816D01*
X0020993Y0091885D01*
X0021063Y0091957D01*
X0021131Y0092031D01*
X0021196Y0092108D01*
X0021258Y0092188D01*
X0021316Y0092269D01*
X0021372Y0092353D01*
X0021424Y0092439D01*
X0021472Y0092527D01*
X0021518Y0092617D01*
X0021559Y0092709D01*
X0021597Y0092802D01*
X0021632Y0092896D01*
X0021663Y0092992D01*
X0021690Y0093089D01*
X0021713Y0093187D01*
X0021732Y0093286D01*
X0021748Y0093385D01*
X0021760Y0093485D01*
X0021768Y0093585D01*
X0021772Y0093686D01*
X0021772Y0093786D01*
X0021768Y0093887D01*
X0021760Y0093987D01*
X0021748Y0094087D01*
X0021732Y0094186D01*
X0021713Y0094285D01*
X0021690Y0094383D01*
X0021663Y0094480D01*
X0021632Y0094576D01*
X0021597Y0094670D01*
X0021559Y0094763D01*
X0021518Y0094855D01*
X0021472Y0094945D01*
X0021424Y0095033D01*
X0021372Y0095119D01*
X0021316Y0095203D01*
X0021258Y0095284D01*
X0021196Y0095364D01*
X0021131Y0095441D01*
X0021063Y0095515D01*
X0020993Y0095587D01*
X0020919Y0095656D01*
X0020843Y0095722D01*
X0020765Y0095785D01*
X0020684Y0095844D01*
X0020601Y0095901D01*
X0022373Y0097673D02*
X0022481Y0097583D01*
X0022586Y0097489D01*
X0022689Y0097393D01*
X0022789Y0097294D01*
X0022887Y0097193D01*
X0022981Y0097088D01*
X0023073Y0096981D01*
X0023162Y0096872D01*
X0023247Y0096760D01*
X0023329Y0096646D01*
X0023409Y0096529D01*
X0023485Y0096410D01*
X0023557Y0096290D01*
X0023626Y0096167D01*
X0023692Y0096043D01*
X0023755Y0095916D01*
X0023813Y0095788D01*
X0023868Y0095659D01*
X0023920Y0095528D01*
X0023968Y0095395D01*
X0024012Y0095261D01*
X0024053Y0095126D01*
X0024089Y0094991D01*
X0024122Y0094854D01*
X0024151Y0094716D01*
X0024177Y0094577D01*
X0024198Y0094438D01*
X0024216Y0094298D01*
X0024229Y0094158D01*
X0024239Y0094018D01*
X0024245Y0093877D01*
X0024247Y0093736D01*
X0024245Y0093595D01*
X0024239Y0093454D01*
X0024229Y0093314D01*
X0024216Y0093174D01*
X0024198Y0093034D01*
X0024177Y0092895D01*
X0024151Y0092756D01*
X0024122Y0092618D01*
X0024089Y0092481D01*
X0024053Y0092346D01*
X0024012Y0092211D01*
X0023968Y0092077D01*
X0023920Y0091944D01*
X0023868Y0091813D01*
X0023813Y0091684D01*
X0023755Y0091556D01*
X0023692Y0091429D01*
X0023626Y0091305D01*
X0023557Y0091182D01*
X0023485Y0091062D01*
X0023409Y0090943D01*
X0023329Y0090826D01*
X0023247Y0090712D01*
X0023162Y0090600D01*
X0023073Y0090491D01*
X0022981Y0090384D01*
X0022887Y0090279D01*
X0022789Y0090178D01*
X0022689Y0090079D01*
X0022586Y0089983D01*
X0022481Y0089889D01*
X0022373Y0089799D01*
X0056920Y0107712D02*
X0056849Y0107714D01*
X0056779Y0107720D01*
X0056709Y0107729D01*
X0056640Y0107743D01*
X0056572Y0107760D01*
X0056504Y0107781D01*
X0056438Y0107806D01*
X0056374Y0107834D01*
X0056311Y0107866D01*
X0056250Y0107902D01*
X0056191Y0107940D01*
X0056134Y0107982D01*
X0056079Y0108027D01*
X0056027Y0108075D01*
X0055978Y0108125D01*
X0055932Y0108178D01*
X0055889Y0108234D01*
X0055848Y0108292D01*
X0055811Y0108352D01*
X0055778Y0108414D01*
X0055748Y0108478D01*
X0055721Y0108543D01*
X0055698Y0108610D01*
X0055679Y0108678D01*
X0055664Y0108747D01*
X0055652Y0108816D01*
X0055644Y0108886D01*
X0055640Y0108957D01*
X0055640Y0109027D01*
X0055644Y0109098D01*
X0055652Y0109168D01*
X0055664Y0109237D01*
X0055679Y0109306D01*
X0055698Y0109374D01*
X0055721Y0109441D01*
X0055748Y0109506D01*
X0055778Y0109570D01*
X0055811Y0109632D01*
X0055848Y0109692D01*
X0055889Y0109750D01*
X0055932Y0109806D01*
X0055978Y0109859D01*
X0056027Y0109909D01*
X0056079Y0109957D01*
X0056134Y0110002D01*
X0056191Y0110044D01*
X0056250Y0110082D01*
X0056311Y0110118D01*
X0056374Y0110150D01*
X0056438Y0110178D01*
X0056504Y0110203D01*
X0056572Y0110224D01*
X0056640Y0110241D01*
X0056709Y0110255D01*
X0056779Y0110264D01*
X0056849Y0110270D01*
X0056920Y0110272D01*
X0056920Y0107713D02*
X0057066Y0107712D01*
X0057212Y0107715D01*
X0057358Y0107722D01*
X0057503Y0107733D01*
X0057649Y0107748D01*
X0057793Y0107767D01*
X0057938Y0107789D01*
X0058081Y0107815D01*
X0058224Y0107845D01*
X0058366Y0107879D01*
X0058507Y0107916D01*
X0058647Y0107958D01*
X0058786Y0108003D01*
X0058924Y0108051D01*
X0059060Y0108103D01*
X0059195Y0108159D01*
X0059328Y0108219D01*
X0059460Y0108282D01*
X0059590Y0108348D01*
X0059718Y0108418D01*
X0059844Y0108491D01*
X0059968Y0108567D01*
X0060091Y0108647D01*
X0060211Y0108730D01*
X0060329Y0108816D01*
X0060444Y0108905D01*
X0060557Y0108997D01*
X0060668Y0109093D01*
X0060776Y0109191D01*
X0060882Y0109292D01*
X0060984Y0109395D01*
X0061084Y0109502D01*
X0061181Y0109610D01*
X0061276Y0109722D01*
X0061367Y0109836D01*
X0061455Y0109952D01*
X0061540Y0110071D01*
X0061622Y0110192D01*
X0061700Y0110315D01*
X0061776Y0110440D01*
X0061848Y0110566D01*
X0061917Y0110695D01*
X0061982Y0110826D01*
X0062043Y0110958D01*
X0062102Y0111092D01*
X0062156Y0111227D01*
X0062207Y0111364D01*
X0062255Y0111502D01*
X0062298Y0111641D01*
X0062338Y0111782D01*
X0062375Y0111923D01*
X0062407Y0112065D01*
X0062436Y0112208D01*
X0062461Y0112352D01*
X0062482Y0112497D01*
X0062499Y0112642D01*
X0062513Y0112787D01*
X0062522Y0112932D01*
X0062528Y0113078D01*
X0062530Y0113224D01*
X0059971Y0113225D02*
X0059967Y0113118D01*
X0059959Y0113011D01*
X0059948Y0112904D01*
X0059933Y0112798D01*
X0059914Y0112693D01*
X0059892Y0112588D01*
X0059865Y0112484D01*
X0059835Y0112381D01*
X0059801Y0112279D01*
X0059764Y0112179D01*
X0059723Y0112080D01*
X0059679Y0111982D01*
X0059631Y0111886D01*
X0059580Y0111792D01*
X0059525Y0111700D01*
X0059468Y0111610D01*
X0059407Y0111522D01*
X0059342Y0111436D01*
X0059275Y0111352D01*
X0059205Y0111271D01*
X0059132Y0111193D01*
X0059057Y0111117D01*
X0058978Y0111044D01*
X0058897Y0110973D01*
X0058814Y0110906D01*
X0058728Y0110842D01*
X0058640Y0110780D01*
X0058550Y0110722D01*
X0058458Y0110667D01*
X0058364Y0110616D01*
X0058269Y0110568D01*
X0058171Y0110523D01*
X0058072Y0110482D01*
X0057972Y0110444D01*
X0057870Y0110410D01*
X0057767Y0110380D01*
X0057664Y0110353D01*
X0057559Y0110331D01*
X0057454Y0110311D01*
X0057347Y0110296D01*
X0057241Y0110284D01*
X0057134Y0110277D01*
X0057027Y0110273D01*
X0056920Y0110272D01*
X0093829Y0095901D02*
X0093782Y0095951D01*
X0093737Y0096004D01*
X0093695Y0096059D01*
X0093657Y0096116D01*
X0093621Y0096176D01*
X0093589Y0096237D01*
X0093561Y0096300D01*
X0093536Y0096364D01*
X0093514Y0096429D01*
X0093496Y0096496D01*
X0093482Y0096564D01*
X0093472Y0096632D01*
X0093465Y0096701D01*
X0093462Y0096770D01*
X0093463Y0096839D01*
X0093468Y0096908D01*
X0093476Y0096976D01*
X0093489Y0097044D01*
X0093505Y0097111D01*
X0093524Y0097177D01*
X0093548Y0097242D01*
X0093575Y0097306D01*
X0093605Y0097368D01*
X0093639Y0097428D01*
X0093676Y0097487D01*
X0093716Y0097543D01*
X0093759Y0097597D01*
X0093805Y0097648D01*
X0093854Y0097697D01*
X0093905Y0097743D01*
X0093959Y0097786D01*
X0094015Y0097826D01*
X0094074Y0097863D01*
X0094134Y0097897D01*
X0094196Y0097927D01*
X0094260Y0097954D01*
X0094325Y0097978D01*
X0094391Y0097997D01*
X0094458Y0098013D01*
X0094526Y0098026D01*
X0094594Y0098034D01*
X0094663Y0098039D01*
X0094732Y0098040D01*
X0094801Y0098037D01*
X0094870Y0098030D01*
X0094938Y0098020D01*
X0095006Y0098006D01*
X0095073Y0097988D01*
X0095138Y0097966D01*
X0095202Y0097941D01*
X0095265Y0097913D01*
X0095326Y0097881D01*
X0095386Y0097845D01*
X0095443Y0097807D01*
X0095498Y0097765D01*
X0095551Y0097720D01*
X0095601Y0097673D01*
X0095602Y0097673D02*
X0095659Y0097590D01*
X0095718Y0097509D01*
X0095781Y0097431D01*
X0095847Y0097355D01*
X0095916Y0097281D01*
X0095988Y0097211D01*
X0096062Y0097143D01*
X0096139Y0097078D01*
X0096219Y0097016D01*
X0096300Y0096958D01*
X0096384Y0096902D01*
X0096470Y0096850D01*
X0096558Y0096802D01*
X0096648Y0096756D01*
X0096740Y0096715D01*
X0096833Y0096677D01*
X0096927Y0096642D01*
X0097023Y0096611D01*
X0097120Y0096584D01*
X0097218Y0096561D01*
X0097317Y0096542D01*
X0097416Y0096526D01*
X0097516Y0096514D01*
X0097616Y0096506D01*
X0097717Y0096502D01*
X0097817Y0096502D01*
X0097918Y0096506D01*
X0098018Y0096514D01*
X0098118Y0096526D01*
X0098217Y0096542D01*
X0098316Y0096561D01*
X0098414Y0096584D01*
X0098511Y0096611D01*
X0098607Y0096642D01*
X0098701Y0096677D01*
X0098794Y0096715D01*
X0098886Y0096756D01*
X0098976Y0096802D01*
X0099064Y0096850D01*
X0099150Y0096902D01*
X0099234Y0096958D01*
X0099315Y0097016D01*
X0099395Y0097078D01*
X0099472Y0097143D01*
X0099546Y0097211D01*
X0099618Y0097281D01*
X0099687Y0097355D01*
X0099753Y0097431D01*
X0099816Y0097509D01*
X0099875Y0097590D01*
X0099932Y0097673D01*
X0101704Y0095901D02*
X0101614Y0095793D01*
X0101520Y0095688D01*
X0101424Y0095585D01*
X0101325Y0095485D01*
X0101224Y0095387D01*
X0101119Y0095293D01*
X0101012Y0095201D01*
X0100903Y0095112D01*
X0100791Y0095027D01*
X0100677Y0094945D01*
X0100560Y0094865D01*
X0100441Y0094789D01*
X0100321Y0094717D01*
X0100198Y0094648D01*
X0100074Y0094582D01*
X0099947Y0094519D01*
X0099819Y0094461D01*
X0099690Y0094406D01*
X0099559Y0094354D01*
X0099426Y0094306D01*
X0099292Y0094262D01*
X0099157Y0094221D01*
X0099022Y0094185D01*
X0098885Y0094152D01*
X0098747Y0094123D01*
X0098608Y0094097D01*
X0098469Y0094076D01*
X0098329Y0094058D01*
X0098189Y0094045D01*
X0098049Y0094035D01*
X0097908Y0094029D01*
X0097767Y0094027D01*
X0097626Y0094029D01*
X0097485Y0094035D01*
X0097345Y0094045D01*
X0097205Y0094058D01*
X0097065Y0094076D01*
X0096926Y0094097D01*
X0096787Y0094123D01*
X0096649Y0094152D01*
X0096512Y0094185D01*
X0096377Y0094221D01*
X0096242Y0094262D01*
X0096108Y0094306D01*
X0095975Y0094354D01*
X0095844Y0094406D01*
X0095715Y0094461D01*
X0095587Y0094519D01*
X0095460Y0094582D01*
X0095336Y0094648D01*
X0095213Y0094717D01*
X0095093Y0094789D01*
X0094974Y0094865D01*
X0094857Y0094945D01*
X0094743Y0095027D01*
X0094631Y0095112D01*
X0094522Y0095201D01*
X0094415Y0095293D01*
X0094310Y0095387D01*
X0094209Y0095485D01*
X0094110Y0095585D01*
X0094014Y0095688D01*
X0093920Y0095793D01*
X0093830Y0095901D01*
X0111742Y0061256D02*
X0111744Y0061327D01*
X0111750Y0061397D01*
X0111759Y0061467D01*
X0111773Y0061536D01*
X0111790Y0061604D01*
X0111811Y0061672D01*
X0111836Y0061738D01*
X0111864Y0061802D01*
X0111896Y0061865D01*
X0111932Y0061926D01*
X0111970Y0061985D01*
X0112012Y0062042D01*
X0112057Y0062097D01*
X0112105Y0062149D01*
X0112155Y0062198D01*
X0112208Y0062244D01*
X0112264Y0062287D01*
X0112322Y0062328D01*
X0112382Y0062365D01*
X0112444Y0062398D01*
X0112508Y0062428D01*
X0112573Y0062455D01*
X0112640Y0062478D01*
X0112708Y0062497D01*
X0112777Y0062512D01*
X0112846Y0062524D01*
X0112916Y0062532D01*
X0112987Y0062536D01*
X0113057Y0062536D01*
X0113128Y0062532D01*
X0113198Y0062524D01*
X0113267Y0062512D01*
X0113336Y0062497D01*
X0113404Y0062478D01*
X0113471Y0062455D01*
X0113536Y0062428D01*
X0113600Y0062398D01*
X0113662Y0062365D01*
X0113722Y0062328D01*
X0113780Y0062287D01*
X0113836Y0062244D01*
X0113889Y0062198D01*
X0113939Y0062149D01*
X0113987Y0062097D01*
X0114032Y0062042D01*
X0114074Y0061985D01*
X0114112Y0061926D01*
X0114148Y0061865D01*
X0114180Y0061802D01*
X0114208Y0061738D01*
X0114233Y0061672D01*
X0114254Y0061604D01*
X0114271Y0061536D01*
X0114285Y0061467D01*
X0114294Y0061397D01*
X0114300Y0061327D01*
X0114302Y0061256D01*
X0111743Y0061256D02*
X0111742Y0061110D01*
X0111745Y0060964D01*
X0111752Y0060818D01*
X0111763Y0060673D01*
X0111778Y0060527D01*
X0111797Y0060383D01*
X0111819Y0060238D01*
X0111845Y0060095D01*
X0111875Y0059952D01*
X0111909Y0059810D01*
X0111946Y0059669D01*
X0111988Y0059529D01*
X0112033Y0059390D01*
X0112081Y0059252D01*
X0112133Y0059116D01*
X0112189Y0058981D01*
X0112249Y0058848D01*
X0112312Y0058716D01*
X0112378Y0058586D01*
X0112448Y0058458D01*
X0112521Y0058332D01*
X0112597Y0058208D01*
X0112677Y0058085D01*
X0112760Y0057965D01*
X0112846Y0057847D01*
X0112935Y0057732D01*
X0113027Y0057619D01*
X0113123Y0057508D01*
X0113221Y0057400D01*
X0113322Y0057294D01*
X0113425Y0057192D01*
X0113532Y0057092D01*
X0113640Y0056995D01*
X0113752Y0056900D01*
X0113866Y0056809D01*
X0113982Y0056721D01*
X0114101Y0056636D01*
X0114222Y0056554D01*
X0114345Y0056476D01*
X0114470Y0056400D01*
X0114596Y0056328D01*
X0114725Y0056259D01*
X0114856Y0056194D01*
X0114988Y0056133D01*
X0115122Y0056074D01*
X0115257Y0056020D01*
X0115394Y0055969D01*
X0115532Y0055921D01*
X0115671Y0055878D01*
X0115812Y0055838D01*
X0115953Y0055801D01*
X0116095Y0055769D01*
X0116238Y0055740D01*
X0116382Y0055715D01*
X0116527Y0055694D01*
X0116672Y0055677D01*
X0116817Y0055663D01*
X0116962Y0055654D01*
X0117108Y0055648D01*
X0117254Y0055646D01*
X0117255Y0058205D02*
X0117148Y0058209D01*
X0117041Y0058217D01*
X0116934Y0058228D01*
X0116828Y0058243D01*
X0116723Y0058262D01*
X0116618Y0058284D01*
X0116514Y0058311D01*
X0116411Y0058341D01*
X0116309Y0058375D01*
X0116209Y0058412D01*
X0116110Y0058453D01*
X0116012Y0058497D01*
X0115916Y0058545D01*
X0115822Y0058596D01*
X0115730Y0058651D01*
X0115640Y0058708D01*
X0115552Y0058769D01*
X0115466Y0058834D01*
X0115382Y0058901D01*
X0115301Y0058971D01*
X0115223Y0059044D01*
X0115147Y0059119D01*
X0115074Y0059198D01*
X0115003Y0059279D01*
X0114936Y0059362D01*
X0114872Y0059448D01*
X0114810Y0059536D01*
X0114752Y0059626D01*
X0114697Y0059718D01*
X0114646Y0059812D01*
X0114598Y0059907D01*
X0114553Y0060005D01*
X0114512Y0060104D01*
X0114474Y0060204D01*
X0114440Y0060306D01*
X0114410Y0060409D01*
X0114383Y0060512D01*
X0114361Y0060617D01*
X0114341Y0060722D01*
X0114326Y0060829D01*
X0114314Y0060935D01*
X0114307Y0061042D01*
X0114303Y0061149D01*
X0114302Y0061256D01*
X0099932Y0024445D02*
X0099983Y0024493D01*
X0100037Y0024539D01*
X0100093Y0024581D01*
X0100151Y0024620D01*
X0100212Y0024656D01*
X0100274Y0024688D01*
X0100338Y0024717D01*
X0100404Y0024742D01*
X0100471Y0024763D01*
X0100539Y0024781D01*
X0100608Y0024794D01*
X0100678Y0024804D01*
X0100748Y0024810D01*
X0100818Y0024812D01*
X0100888Y0024810D01*
X0100958Y0024804D01*
X0101028Y0024794D01*
X0101097Y0024781D01*
X0101165Y0024763D01*
X0101232Y0024742D01*
X0101298Y0024717D01*
X0101362Y0024688D01*
X0101424Y0024656D01*
X0101485Y0024620D01*
X0101543Y0024581D01*
X0101599Y0024539D01*
X0101653Y0024493D01*
X0101704Y0024445D01*
X0101752Y0024394D01*
X0101798Y0024340D01*
X0101840Y0024284D01*
X0101879Y0024226D01*
X0101915Y0024165D01*
X0101947Y0024103D01*
X0101976Y0024039D01*
X0102001Y0023973D01*
X0102022Y0023906D01*
X0102040Y0023838D01*
X0102053Y0023769D01*
X0102063Y0023699D01*
X0102069Y0023629D01*
X0102071Y0023559D01*
X0102069Y0023489D01*
X0102063Y0023419D01*
X0102053Y0023349D01*
X0102040Y0023280D01*
X0102022Y0023212D01*
X0102001Y0023145D01*
X0101976Y0023079D01*
X0101947Y0023015D01*
X0101915Y0022953D01*
X0101879Y0022892D01*
X0101840Y0022834D01*
X0101798Y0022778D01*
X0101752Y0022724D01*
X0101704Y0022673D01*
X0101621Y0022616D01*
X0101540Y0022557D01*
X0101462Y0022494D01*
X0101386Y0022428D01*
X0101312Y0022359D01*
X0101242Y0022287D01*
X0101174Y0022213D01*
X0101109Y0022136D01*
X0101047Y0022056D01*
X0100989Y0021975D01*
X0100933Y0021891D01*
X0100881Y0021805D01*
X0100833Y0021717D01*
X0100787Y0021627D01*
X0100746Y0021535D01*
X0100708Y0021442D01*
X0100673Y0021348D01*
X0100642Y0021252D01*
X0100615Y0021155D01*
X0100592Y0021057D01*
X0100573Y0020958D01*
X0100557Y0020859D01*
X0100545Y0020759D01*
X0100537Y0020659D01*
X0100533Y0020558D01*
X0100533Y0020458D01*
X0100537Y0020357D01*
X0100545Y0020257D01*
X0100557Y0020157D01*
X0100573Y0020058D01*
X0100592Y0019959D01*
X0100615Y0019861D01*
X0100642Y0019764D01*
X0100673Y0019668D01*
X0100708Y0019574D01*
X0100746Y0019481D01*
X0100787Y0019389D01*
X0100833Y0019299D01*
X0100881Y0019211D01*
X0100933Y0019125D01*
X0100989Y0019041D01*
X0101047Y0018960D01*
X0101109Y0018880D01*
X0101174Y0018803D01*
X0101242Y0018729D01*
X0101312Y0018657D01*
X0101386Y0018588D01*
X0101462Y0018522D01*
X0101540Y0018459D01*
X0101621Y0018400D01*
X0101704Y0018343D01*
X0099932Y0016571D02*
X0099824Y0016661D01*
X0099719Y0016755D01*
X0099616Y0016851D01*
X0099516Y0016950D01*
X0099418Y0017051D01*
X0099324Y0017156D01*
X0099232Y0017263D01*
X0099143Y0017372D01*
X0099058Y0017484D01*
X0098976Y0017598D01*
X0098896Y0017715D01*
X0098820Y0017834D01*
X0098748Y0017954D01*
X0098679Y0018077D01*
X0098613Y0018201D01*
X0098550Y0018328D01*
X0098492Y0018456D01*
X0098437Y0018585D01*
X0098385Y0018716D01*
X0098337Y0018849D01*
X0098293Y0018983D01*
X0098252Y0019118D01*
X0098216Y0019253D01*
X0098183Y0019390D01*
X0098154Y0019528D01*
X0098128Y0019667D01*
X0098107Y0019806D01*
X0098089Y0019946D01*
X0098076Y0020086D01*
X0098066Y0020226D01*
X0098060Y0020367D01*
X0098058Y0020508D01*
X0098060Y0020649D01*
X0098066Y0020790D01*
X0098076Y0020930D01*
X0098089Y0021070D01*
X0098107Y0021210D01*
X0098128Y0021349D01*
X0098154Y0021488D01*
X0098183Y0021626D01*
X0098216Y0021763D01*
X0098252Y0021898D01*
X0098293Y0022033D01*
X0098337Y0022167D01*
X0098385Y0022300D01*
X0098437Y0022431D01*
X0098492Y0022560D01*
X0098550Y0022688D01*
X0098613Y0022815D01*
X0098679Y0022939D01*
X0098748Y0023062D01*
X0098820Y0023182D01*
X0098896Y0023301D01*
X0098976Y0023418D01*
X0099058Y0023532D01*
X0099143Y0023644D01*
X0099232Y0023753D01*
X0099324Y0023860D01*
X0099418Y0023965D01*
X0099516Y0024066D01*
X0099616Y0024165D01*
X0099719Y0024261D01*
X0099824Y0024355D01*
X0099932Y0024445D01*
X0065385Y0006532D02*
X0065456Y0006530D01*
X0065526Y0006524D01*
X0065596Y0006515D01*
X0065665Y0006501D01*
X0065733Y0006484D01*
X0065801Y0006463D01*
X0065867Y0006438D01*
X0065931Y0006410D01*
X0065994Y0006378D01*
X0066055Y0006342D01*
X0066114Y0006304D01*
X0066171Y0006262D01*
X0066226Y0006217D01*
X0066278Y0006169D01*
X0066327Y0006119D01*
X0066373Y0006066D01*
X0066416Y0006010D01*
X0066457Y0005952D01*
X0066494Y0005892D01*
X0066527Y0005830D01*
X0066557Y0005766D01*
X0066584Y0005701D01*
X0066607Y0005634D01*
X0066626Y0005566D01*
X0066641Y0005497D01*
X0066653Y0005428D01*
X0066661Y0005358D01*
X0066665Y0005287D01*
X0066665Y0005217D01*
X0066661Y0005146D01*
X0066653Y0005076D01*
X0066641Y0005007D01*
X0066626Y0004938D01*
X0066607Y0004870D01*
X0066584Y0004803D01*
X0066557Y0004738D01*
X0066527Y0004674D01*
X0066494Y0004612D01*
X0066457Y0004552D01*
X0066416Y0004494D01*
X0066373Y0004438D01*
X0066327Y0004385D01*
X0066278Y0004335D01*
X0066226Y0004287D01*
X0066171Y0004242D01*
X0066114Y0004200D01*
X0066055Y0004162D01*
X0065994Y0004126D01*
X0065931Y0004094D01*
X0065867Y0004066D01*
X0065801Y0004041D01*
X0065733Y0004020D01*
X0065665Y0004003D01*
X0065596Y0003989D01*
X0065526Y0003980D01*
X0065456Y0003974D01*
X0065385Y0003972D01*
X0065385Y0006531D02*
X0065239Y0006532D01*
X0065093Y0006529D01*
X0064947Y0006522D01*
X0064802Y0006511D01*
X0064656Y0006496D01*
X0064512Y0006477D01*
X0064367Y0006455D01*
X0064224Y0006429D01*
X0064081Y0006399D01*
X0063939Y0006365D01*
X0063798Y0006328D01*
X0063658Y0006286D01*
X0063519Y0006241D01*
X0063381Y0006193D01*
X0063245Y0006141D01*
X0063110Y0006085D01*
X0062977Y0006025D01*
X0062845Y0005962D01*
X0062715Y0005896D01*
X0062587Y0005826D01*
X0062461Y0005753D01*
X0062337Y0005677D01*
X0062214Y0005597D01*
X0062094Y0005514D01*
X0061976Y0005428D01*
X0061861Y0005339D01*
X0061748Y0005247D01*
X0061637Y0005151D01*
X0061529Y0005053D01*
X0061423Y0004952D01*
X0061321Y0004849D01*
X0061221Y0004742D01*
X0061124Y0004634D01*
X0061029Y0004522D01*
X0060938Y0004408D01*
X0060850Y0004292D01*
X0060765Y0004173D01*
X0060683Y0004052D01*
X0060605Y0003929D01*
X0060529Y0003804D01*
X0060457Y0003678D01*
X0060388Y0003549D01*
X0060323Y0003418D01*
X0060262Y0003286D01*
X0060203Y0003152D01*
X0060149Y0003017D01*
X0060098Y0002880D01*
X0060050Y0002742D01*
X0060007Y0002603D01*
X0059967Y0002462D01*
X0059930Y0002321D01*
X0059898Y0002179D01*
X0059869Y0002036D01*
X0059844Y0001892D01*
X0059823Y0001747D01*
X0059806Y0001602D01*
X0059792Y0001457D01*
X0059783Y0001312D01*
X0059777Y0001166D01*
X0059775Y0001020D01*
X0062333Y0001019D02*
X0062337Y0001126D01*
X0062345Y0001233D01*
X0062356Y0001340D01*
X0062371Y0001446D01*
X0062390Y0001551D01*
X0062412Y0001656D01*
X0062439Y0001760D01*
X0062469Y0001863D01*
X0062503Y0001965D01*
X0062540Y0002065D01*
X0062581Y0002164D01*
X0062625Y0002262D01*
X0062673Y0002358D01*
X0062724Y0002452D01*
X0062779Y0002544D01*
X0062836Y0002634D01*
X0062897Y0002722D01*
X0062962Y0002808D01*
X0063029Y0002892D01*
X0063099Y0002973D01*
X0063172Y0003051D01*
X0063247Y0003127D01*
X0063326Y0003200D01*
X0063407Y0003271D01*
X0063490Y0003338D01*
X0063576Y0003402D01*
X0063664Y0003464D01*
X0063754Y0003522D01*
X0063846Y0003577D01*
X0063940Y0003628D01*
X0064035Y0003676D01*
X0064133Y0003721D01*
X0064232Y0003762D01*
X0064332Y0003800D01*
X0064434Y0003834D01*
X0064537Y0003864D01*
X0064640Y0003891D01*
X0064745Y0003913D01*
X0064850Y0003933D01*
X0064957Y0003948D01*
X0065063Y0003960D01*
X0065170Y0003967D01*
X0065277Y0003971D01*
X0065384Y0003972D01*
D11*
X0009479Y0056138D03*
X0008987Y0056630D03*
X0008495Y0057122D03*
X0008003Y0057122D03*
X0007511Y0057122D03*
X0007019Y0057122D03*
X0006526Y0057122D03*
X0006034Y0057122D03*
X0005542Y0057122D03*
X0005050Y0057122D03*
D12*
X0006034Y0057122D02*
X0009971Y0053185D01*
X0009971Y0049248D01*
X0016464Y0050246D02*
X0106130Y0050246D01*
X0106191Y0050627D02*
X0105482Y0046149D01*
X0104308Y0041771D01*
X0102684Y0037539D01*
X0100626Y0033500D01*
X0098157Y0029698D01*
X0095304Y0026175D01*
X0092099Y0022970D01*
X0088576Y0020117D01*
X0084774Y0017649D01*
X0080735Y0015591D01*
X0076503Y0013966D01*
X0072125Y0012793D01*
X0067648Y0012084D01*
X0063121Y0011846D01*
X0061152Y0011846D01*
X0056420Y0012094D01*
X0051739Y0012836D01*
X0047161Y0014062D01*
X0042737Y0015761D01*
X0038515Y0017912D01*
X0034540Y0020493D01*
X0030857Y0023476D01*
X0027506Y0026827D01*
X0024524Y0030510D01*
X0021943Y0034484D01*
X0019791Y0038707D01*
X0018093Y0043131D01*
X0016866Y0047709D01*
X0016125Y0052389D01*
X0015877Y0057122D01*
X0016125Y0061855D01*
X0016866Y0066535D01*
X0018093Y0071113D01*
X0019791Y0075537D01*
X0021943Y0079760D01*
X0024524Y0083734D01*
X0027506Y0087417D01*
X0030857Y0090768D01*
X0034540Y0093751D01*
X0038515Y0096332D01*
X0042737Y0098483D01*
X0047161Y0100182D01*
X0051739Y0101408D01*
X0056420Y0102150D01*
X0061152Y0102398D01*
X0065885Y0102150D01*
X0070566Y0101408D01*
X0075143Y0100182D01*
X0079568Y0098483D01*
X0083790Y0096332D01*
X0087765Y0093751D01*
X0091448Y0090768D01*
X0094799Y0087417D01*
X0097781Y0083734D01*
X0100362Y0079760D01*
X0102514Y0075537D01*
X0104212Y0071113D01*
X0105439Y0066535D01*
X0106180Y0061855D01*
X0106428Y0057122D01*
X0106428Y0055154D01*
X0106191Y0050627D01*
X0106191Y0050638D02*
X0016402Y0050638D01*
X0016340Y0051030D02*
X0106212Y0051030D01*
X0106232Y0051423D02*
X0016278Y0051423D01*
X0016216Y0051815D02*
X0106253Y0051815D01*
X0106274Y0052207D02*
X0016154Y0052207D01*
X0016114Y0052599D02*
X0106294Y0052599D01*
X0106315Y0052992D02*
X0016093Y0052992D01*
X0016073Y0053384D02*
X0106335Y0053384D01*
X0106356Y0053776D02*
X0016052Y0053776D01*
X0016032Y0054168D02*
X0106376Y0054168D01*
X0106397Y0054560D02*
X0016011Y0054560D01*
X0015990Y0054953D02*
X0106417Y0054953D01*
X0106428Y0055345D02*
X0015970Y0055345D01*
X0015949Y0055737D02*
X0106428Y0055737D01*
X0106428Y0056129D02*
X0015929Y0056129D01*
X0015908Y0056521D02*
X0106428Y0056521D01*
X0106428Y0056914D02*
X0015888Y0056914D01*
X0015886Y0057306D02*
X0106418Y0057306D01*
X0106398Y0057698D02*
X0015907Y0057698D01*
X0015928Y0058090D02*
X0106377Y0058090D01*
X0106357Y0058482D02*
X0015948Y0058482D01*
X0015969Y0058875D02*
X0106336Y0058875D01*
X0106316Y0059267D02*
X0015989Y0059267D01*
X0016010Y0059659D02*
X0106295Y0059659D01*
X0106274Y0060051D02*
X0016030Y0060051D01*
X0016051Y0060444D02*
X0106254Y0060444D01*
X0106233Y0060836D02*
X0016071Y0060836D01*
X0016092Y0061228D02*
X0106213Y0061228D01*
X0106192Y0061620D02*
X0016112Y0061620D01*
X0016150Y0062012D02*
X0106155Y0062012D01*
X0106093Y0062405D02*
X0016212Y0062405D01*
X0016274Y0062797D02*
X0106031Y0062797D01*
X0105969Y0063189D02*
X0016336Y0063189D01*
X0016398Y0063581D02*
X0105906Y0063581D01*
X0105844Y0063973D02*
X0016460Y0063973D01*
X0016522Y0064366D02*
X0105782Y0064366D01*
X0105720Y0064758D02*
X0016585Y0064758D01*
X0016647Y0065150D02*
X0105658Y0065150D01*
X0105596Y0065542D02*
X0016709Y0065542D01*
X0016771Y0065935D02*
X0105534Y0065935D01*
X0105472Y0066327D02*
X0016833Y0066327D01*
X0016915Y0066719D02*
X0105389Y0066719D01*
X0105284Y0067111D02*
X0017020Y0067111D01*
X0017126Y0067503D02*
X0105179Y0067503D01*
X0105074Y0067896D02*
X0017231Y0067896D01*
X0017336Y0068288D02*
X0104969Y0068288D01*
X0104864Y0068680D02*
X0017441Y0068680D01*
X0017546Y0069072D02*
X0104759Y0069072D01*
X0104654Y0069464D02*
X0017651Y0069464D01*
X0017756Y0069857D02*
X0104549Y0069857D01*
X0104444Y0070249D02*
X0017861Y0070249D01*
X0017966Y0070641D02*
X0104338Y0070641D01*
X0104233Y0071033D02*
X0018071Y0071033D01*
X0018213Y0071425D02*
X0104092Y0071425D01*
X0103941Y0071818D02*
X0018363Y0071818D01*
X0018514Y0072210D02*
X0103791Y0072210D01*
X0103640Y0072602D02*
X0018664Y0072602D01*
X0018815Y0072994D02*
X0103490Y0072994D01*
X0103339Y0073387D02*
X0018965Y0073387D01*
X0019116Y0073779D02*
X0103189Y0073779D01*
X0103038Y0074171D02*
X0019267Y0074171D01*
X0019417Y0074563D02*
X0102888Y0074563D01*
X0102737Y0074955D02*
X0019568Y0074955D01*
X0019718Y0075348D02*
X0102586Y0075348D01*
X0102410Y0075740D02*
X0019894Y0075740D01*
X0020094Y0076132D02*
X0102211Y0076132D01*
X0102011Y0076524D02*
X0020294Y0076524D01*
X0020494Y0076916D02*
X0101811Y0076916D01*
X0101611Y0077309D02*
X0020694Y0077309D01*
X0020893Y0077701D02*
X0101411Y0077701D01*
X0101211Y0078093D02*
X0021093Y0078093D01*
X0021293Y0078485D02*
X0101012Y0078485D01*
X0100812Y0078878D02*
X0021493Y0078878D01*
X0021693Y0079270D02*
X0100612Y0079270D01*
X0100412Y0079662D02*
X0021893Y0079662D01*
X0022134Y0080054D02*
X0100171Y0080054D01*
X0099916Y0080446D02*
X0022388Y0080446D01*
X0022643Y0080839D02*
X0099662Y0080839D01*
X0099407Y0081231D02*
X0022898Y0081231D01*
X0023152Y0081623D02*
X0099152Y0081623D01*
X0098898Y0082015D02*
X0023407Y0082015D01*
X0023662Y0082407D02*
X0098643Y0082407D01*
X0098388Y0082800D02*
X0023917Y0082800D01*
X0024171Y0083192D02*
X0098133Y0083192D01*
X0097879Y0083584D02*
X0024426Y0083584D01*
X0024720Y0083976D02*
X0097585Y0083976D01*
X0097268Y0084368D02*
X0025037Y0084368D01*
X0025355Y0084761D02*
X0096950Y0084761D01*
X0096632Y0085153D02*
X0025672Y0085153D01*
X0025990Y0085545D02*
X0096315Y0085545D01*
X0095997Y0085937D02*
X0026308Y0085937D01*
X0026625Y0086330D02*
X0095680Y0086330D01*
X0095362Y0086722D02*
X0026943Y0086722D01*
X0027260Y0087114D02*
X0095044Y0087114D01*
X0094710Y0087506D02*
X0027595Y0087506D01*
X0027987Y0087898D02*
X0094318Y0087898D01*
X0093925Y0088291D02*
X0028379Y0088291D01*
X0028772Y0088683D02*
X0093533Y0088683D01*
X0093141Y0089075D02*
X0029164Y0089075D01*
X0029556Y0089467D02*
X0092749Y0089467D01*
X0092357Y0089859D02*
X0029948Y0089859D01*
X0030340Y0090252D02*
X0091964Y0090252D01*
X0091572Y0090644D02*
X0030733Y0090644D01*
X0031188Y0091036D02*
X0091117Y0091036D01*
X0090633Y0091428D02*
X0031672Y0091428D01*
X0032156Y0091821D02*
X0090148Y0091821D01*
X0089664Y0092213D02*
X0032641Y0092213D01*
X0033125Y0092605D02*
X0089180Y0092605D01*
X0088695Y0092997D02*
X0033609Y0092997D01*
X0034094Y0093389D02*
X0088211Y0093389D01*
X0087717Y0093782D02*
X0034587Y0093782D01*
X0035191Y0094174D02*
X0087113Y0094174D01*
X0086509Y0094566D02*
X0035795Y0094566D01*
X0036399Y0094958D02*
X0085905Y0094958D01*
X0085301Y0095350D02*
X0037003Y0095350D01*
X0037607Y0095743D02*
X0084697Y0095743D01*
X0084094Y0096135D02*
X0038211Y0096135D01*
X0038898Y0096527D02*
X0083407Y0096527D01*
X0082637Y0096919D02*
X0039667Y0096919D01*
X0040437Y0097311D02*
X0081868Y0097311D01*
X0081098Y0097704D02*
X0041207Y0097704D01*
X0041977Y0098096D02*
X0080328Y0098096D01*
X0079555Y0098488D02*
X0042750Y0098488D01*
X0043771Y0098880D02*
X0078533Y0098880D01*
X0077512Y0099273D02*
X0044793Y0099273D01*
X0045815Y0099665D02*
X0076490Y0099665D01*
X0075468Y0100057D02*
X0046836Y0100057D01*
X0048160Y0100449D02*
X0074145Y0100449D01*
X0072681Y0100841D02*
X0049623Y0100841D01*
X0051087Y0101234D02*
X0071218Y0101234D01*
X0069192Y0101626D02*
X0053113Y0101626D01*
X0055589Y0102018D02*
X0066716Y0102018D01*
X0106068Y0049854D02*
X0016526Y0049854D01*
X0016589Y0049462D02*
X0106006Y0049462D01*
X0105944Y0049069D02*
X0016651Y0049069D01*
X0016713Y0048677D02*
X0105882Y0048677D01*
X0105820Y0048285D02*
X0016775Y0048285D01*
X0016837Y0047893D02*
X0105758Y0047893D01*
X0105696Y0047501D02*
X0016922Y0047501D01*
X0017027Y0047108D02*
X0105633Y0047108D01*
X0105571Y0046716D02*
X0017132Y0046716D01*
X0017237Y0046324D02*
X0105509Y0046324D01*
X0105423Y0045932D02*
X0017342Y0045932D01*
X0017447Y0045539D02*
X0105318Y0045539D01*
X0105213Y0045147D02*
X0017552Y0045147D01*
X0017658Y0044755D02*
X0105108Y0044755D01*
X0105003Y0044363D02*
X0017763Y0044363D01*
X0017868Y0043971D02*
X0104898Y0043971D01*
X0104793Y0043578D02*
X0017973Y0043578D01*
X0018078Y0043186D02*
X0104688Y0043186D01*
X0104582Y0042794D02*
X0018222Y0042794D01*
X0018373Y0042402D02*
X0104477Y0042402D01*
X0104372Y0042010D02*
X0018523Y0042010D01*
X0018674Y0041617D02*
X0104249Y0041617D01*
X0104099Y0041225D02*
X0018824Y0041225D01*
X0018975Y0040833D02*
X0103948Y0040833D01*
X0103798Y0040441D02*
X0019125Y0040441D01*
X0019276Y0040049D02*
X0103647Y0040049D01*
X0103497Y0039656D02*
X0019427Y0039656D01*
X0019577Y0039264D02*
X0103346Y0039264D01*
X0103196Y0038872D02*
X0019728Y0038872D01*
X0019907Y0038480D02*
X0103045Y0038480D01*
X0102894Y0038087D02*
X0020107Y0038087D01*
X0020306Y0037695D02*
X0102744Y0037695D01*
X0102564Y0037303D02*
X0020506Y0037303D01*
X0020706Y0036911D02*
X0102364Y0036911D01*
X0102164Y0036519D02*
X0020906Y0036519D01*
X0021106Y0036126D02*
X0101964Y0036126D01*
X0101764Y0035734D02*
X0021306Y0035734D01*
X0021506Y0035342D02*
X0101564Y0035342D01*
X0101365Y0034950D02*
X0021705Y0034950D01*
X0021905Y0034558D02*
X0101165Y0034558D01*
X0100965Y0034165D02*
X0022150Y0034165D01*
X0022404Y0033773D02*
X0100765Y0033773D01*
X0100549Y0033381D02*
X0022659Y0033381D01*
X0022914Y0032989D02*
X0100294Y0032989D01*
X0100039Y0032596D02*
X0023168Y0032596D01*
X0023423Y0032204D02*
X0099784Y0032204D01*
X0099530Y0031812D02*
X0023678Y0031812D01*
X0023933Y0031420D02*
X0099275Y0031420D01*
X0099020Y0031028D02*
X0024187Y0031028D01*
X0024442Y0030635D02*
X0098766Y0030635D01*
X0098511Y0030243D02*
X0024739Y0030243D01*
X0025057Y0029851D02*
X0098256Y0029851D01*
X0097963Y0029459D02*
X0025375Y0029459D01*
X0025692Y0029067D02*
X0097645Y0029067D01*
X0097328Y0028674D02*
X0026010Y0028674D01*
X0026327Y0028282D02*
X0097010Y0028282D01*
X0096693Y0027890D02*
X0026645Y0027890D01*
X0026963Y0027498D02*
X0096375Y0027498D01*
X0096057Y0027106D02*
X0027280Y0027106D01*
X0027620Y0026713D02*
X0095740Y0026713D01*
X0095422Y0026321D02*
X0028012Y0026321D01*
X0028404Y0025929D02*
X0095058Y0025929D01*
X0094666Y0025537D02*
X0028796Y0025537D01*
X0029188Y0025144D02*
X0094273Y0025144D01*
X0093881Y0024752D02*
X0029581Y0024752D01*
X0029973Y0024360D02*
X0093489Y0024360D01*
X0093097Y0023968D02*
X0030365Y0023968D01*
X0030757Y0023576D02*
X0092704Y0023576D01*
X0092312Y0023183D02*
X0031218Y0023183D01*
X0031702Y0022791D02*
X0091878Y0022791D01*
X0091394Y0022399D02*
X0032187Y0022399D01*
X0032671Y0022007D02*
X0090909Y0022007D01*
X0090425Y0021615D02*
X0033155Y0021615D01*
X0033640Y0021222D02*
X0089941Y0021222D01*
X0089456Y0020830D02*
X0034124Y0020830D01*
X0034625Y0020438D02*
X0088972Y0020438D01*
X0088466Y0020046D02*
X0035229Y0020046D01*
X0035833Y0019653D02*
X0087862Y0019653D01*
X0087258Y0019261D02*
X0036437Y0019261D01*
X0037041Y0018869D02*
X0086654Y0018869D01*
X0086050Y0018477D02*
X0037645Y0018477D01*
X0038249Y0018085D02*
X0085446Y0018085D01*
X0084842Y0017692D02*
X0038946Y0017692D01*
X0039716Y0017300D02*
X0084091Y0017300D01*
X0083321Y0016908D02*
X0040486Y0016908D01*
X0041255Y0016516D02*
X0082551Y0016516D01*
X0081782Y0016124D02*
X0042025Y0016124D01*
X0042814Y0015731D02*
X0081012Y0015731D01*
X0080081Y0015339D02*
X0043835Y0015339D01*
X0044857Y0014947D02*
X0079059Y0014947D01*
X0078037Y0014555D02*
X0045879Y0014555D01*
X0046901Y0014163D02*
X0077015Y0014163D01*
X0075773Y0013770D02*
X0048252Y0013770D01*
X0049715Y0013378D02*
X0074309Y0013378D01*
X0072845Y0012986D02*
X0051179Y0012986D01*
X0053268Y0012594D02*
X0070868Y0012594D01*
X0068391Y0012201D02*
X0055744Y0012201D01*
D13*
X0061152Y0057122D03*
D14*
X0017845Y0057122D03*
X0017845Y0059091D03*
X0017845Y0061059D03*
X0017845Y0063028D03*
X0017845Y0064996D03*
X0017845Y0066965D03*
X0017845Y0068933D03*
X0017845Y0070902D03*
X0017845Y0072870D03*
X0017845Y0055154D03*
X0017845Y0053185D03*
X0017845Y0051217D03*
X0017845Y0049248D03*
X0017845Y0047280D03*
X0017845Y0045311D03*
X0017845Y0043343D03*
X0017845Y0041374D03*
X0047373Y0013815D03*
X0049341Y0013815D03*
X0051310Y0013815D03*
X0053278Y0013815D03*
X0055247Y0013815D03*
X0057215Y0013815D03*
X0059184Y0013815D03*
X0061152Y0013815D03*
X0063121Y0013815D03*
X0065089Y0013815D03*
X0067058Y0013815D03*
X0069026Y0013815D03*
X0070995Y0013815D03*
X0072963Y0013815D03*
X0074932Y0013815D03*
X0076900Y0013815D03*
X0104459Y0043343D03*
X0104459Y0045311D03*
X0104459Y0047280D03*
X0104459Y0049248D03*
X0104459Y0051217D03*
X0104459Y0053185D03*
X0104459Y0055154D03*
X0104459Y0057122D03*
X0104459Y0059091D03*
X0104459Y0061059D03*
X0104459Y0063028D03*
X0104459Y0064996D03*
X0104459Y0066965D03*
X0104459Y0068933D03*
X0104459Y0070902D03*
X0104459Y0072870D03*
X0074932Y0100429D03*
X0072963Y0100429D03*
X0070995Y0100429D03*
X0069026Y0100429D03*
X0067058Y0100429D03*
X0065089Y0100429D03*
X0063121Y0100429D03*
X0061152Y0100429D03*
X0059184Y0100429D03*
X0057215Y0100429D03*
X0055247Y0100429D03*
X0053278Y0100429D03*
X0051310Y0100429D03*
X0049341Y0100429D03*
X0047373Y0100429D03*
X0045404Y0100429D03*
D15*
X0074932Y0100429D01*
X0104459Y0072870D02*
X0104459Y0043343D01*
X0076900Y0013815D02*
X0047373Y0013815D01*
X0017845Y0041374D02*
X0017845Y0072870D01*
X0017655Y0072868D01*
X0017465Y0072861D01*
X0017275Y0072849D01*
X0017085Y0072833D01*
X0016896Y0072813D01*
X0016707Y0072787D01*
X0016519Y0072758D01*
X0016332Y0072723D01*
X0016146Y0072684D01*
X0015961Y0072641D01*
X0015776Y0072593D01*
X0015593Y0072541D01*
X0015412Y0072485D01*
X0015232Y0072424D01*
X0015053Y0072358D01*
X0014876Y0072289D01*
X0014700Y0072215D01*
X0014527Y0072137D01*
X0014355Y0072054D01*
X0014186Y0071968D01*
X0014018Y0071878D01*
X0013853Y0071783D01*
X0013690Y0071685D01*
X0013530Y0071582D01*
X0013372Y0071476D01*
X0013217Y0071366D01*
X0013064Y0071253D01*
X0012914Y0071135D01*
X0012768Y0071014D01*
X0012624Y0070890D01*
X0012483Y0070762D01*
X0012345Y0070631D01*
X0012210Y0070496D01*
X0012079Y0070358D01*
X0011951Y0070217D01*
X0011827Y0070073D01*
X0011706Y0069927D01*
X0011588Y0069777D01*
X0011475Y0069624D01*
X0011365Y0069469D01*
X0011259Y0069311D01*
X0011156Y0069151D01*
X0011058Y0068988D01*
X0010963Y0068823D01*
X0010873Y0068655D01*
X0010787Y0068486D01*
X0010704Y0068314D01*
X0010626Y0068141D01*
X0010552Y0067965D01*
X0010483Y0067788D01*
X0010417Y0067609D01*
X0010356Y0067429D01*
X0010300Y0067248D01*
X0010248Y0067065D01*
X0010200Y0066880D01*
X0010157Y0066695D01*
X0010118Y0066509D01*
X0010083Y0066322D01*
X0010054Y0066134D01*
X0010028Y0065945D01*
X0010008Y0065756D01*
X0009992Y0065566D01*
X0009980Y0065376D01*
X0009973Y0065186D01*
X0009971Y0064996D01*
X0009971Y0049248D01*
X0009973Y0049058D01*
X0009980Y0048868D01*
X0009992Y0048678D01*
X0010008Y0048488D01*
X0010028Y0048299D01*
X0010054Y0048110D01*
X0010083Y0047922D01*
X0010118Y0047735D01*
X0010157Y0047549D01*
X0010200Y0047364D01*
X0010248Y0047179D01*
X0010300Y0046996D01*
X0010356Y0046815D01*
X0010417Y0046635D01*
X0010483Y0046456D01*
X0010552Y0046279D01*
X0010626Y0046103D01*
X0010704Y0045930D01*
X0010787Y0045758D01*
X0010873Y0045589D01*
X0010963Y0045421D01*
X0011058Y0045256D01*
X0011156Y0045093D01*
X0011259Y0044933D01*
X0011365Y0044775D01*
X0011475Y0044620D01*
X0011588Y0044467D01*
X0011706Y0044317D01*
X0011827Y0044171D01*
X0011951Y0044027D01*
X0012079Y0043886D01*
X0012210Y0043748D01*
X0012345Y0043613D01*
X0012483Y0043482D01*
X0012624Y0043354D01*
X0012768Y0043230D01*
X0012914Y0043109D01*
X0013064Y0042991D01*
X0013217Y0042878D01*
X0013372Y0042768D01*
X0013530Y0042662D01*
X0013690Y0042559D01*
X0013853Y0042461D01*
X0014018Y0042366D01*
X0014186Y0042276D01*
X0014355Y0042190D01*
X0014527Y0042107D01*
X0014700Y0042029D01*
X0014876Y0041955D01*
X0015053Y0041886D01*
X0015232Y0041820D01*
X0015412Y0041759D01*
X0015593Y0041703D01*
X0015776Y0041651D01*
X0015961Y0041603D01*
X0016146Y0041560D01*
X0016332Y0041521D01*
X0016519Y0041486D01*
X0016707Y0041457D01*
X0016896Y0041431D01*
X0017085Y0041411D01*
X0017275Y0041395D01*
X0017465Y0041383D01*
X0017655Y0041376D01*
X0017845Y0041374D01*
M02*
