G75*
%MOIN*%
%OFA0B0*%
%FSLAX25Y25*%
%IPPOS*%
%LPD*%
%AMOC8*
5,1,8,0,0,1.08239X$1,22.5*
%
%ADD10C,0.00800*%
%ADD11C,0.01000*%
D10*
X0044800Y0020675D02*
X0044800Y0025675D01*
X0028300Y0033175D02*
X0028306Y0033703D01*
X0028326Y0034230D01*
X0028358Y0034757D01*
X0028404Y0035282D01*
X0028462Y0035807D01*
X0028533Y0036330D01*
X0028617Y0036851D01*
X0028713Y0037369D01*
X0028822Y0037886D01*
X0028944Y0038399D01*
X0029079Y0038909D01*
X0029226Y0039416D01*
X0029385Y0039919D01*
X0029557Y0040418D01*
X0029741Y0040913D01*
X0029937Y0041403D01*
X0030144Y0041888D01*
X0030364Y0042367D01*
X0030596Y0042842D01*
X0030839Y0043310D01*
X0031093Y0043772D01*
X0031359Y0044228D01*
X0031636Y0044677D01*
X0031923Y0045120D01*
X0032222Y0045555D01*
X0032531Y0045983D01*
X0032851Y0046402D01*
X0033180Y0046814D01*
X0033520Y0047218D01*
X0033870Y0047614D01*
X0034229Y0048000D01*
X0034597Y0048378D01*
X0034975Y0048746D01*
X0035361Y0049105D01*
X0035757Y0049455D01*
X0036161Y0049795D01*
X0036573Y0050124D01*
X0036992Y0050444D01*
X0037420Y0050753D01*
X0037855Y0051052D01*
X0038298Y0051339D01*
X0038747Y0051616D01*
X0039203Y0051882D01*
X0039665Y0052136D01*
X0040133Y0052379D01*
X0040608Y0052611D01*
X0041087Y0052831D01*
X0041572Y0053038D01*
X0042062Y0053234D01*
X0042557Y0053418D01*
X0043056Y0053590D01*
X0043559Y0053749D01*
X0044066Y0053896D01*
X0044576Y0054031D01*
X0045089Y0054153D01*
X0045606Y0054262D01*
X0046124Y0054358D01*
X0046645Y0054442D01*
X0047168Y0054513D01*
X0047693Y0054571D01*
X0048218Y0054617D01*
X0048745Y0054649D01*
X0049272Y0054669D01*
X0049800Y0054675D01*
X0050328Y0054669D01*
X0050855Y0054649D01*
X0051382Y0054617D01*
X0051907Y0054571D01*
X0052432Y0054513D01*
X0052955Y0054442D01*
X0053476Y0054358D01*
X0053994Y0054262D01*
X0054511Y0054153D01*
X0055024Y0054031D01*
X0055534Y0053896D01*
X0056041Y0053749D01*
X0056544Y0053590D01*
X0057043Y0053418D01*
X0057538Y0053234D01*
X0058028Y0053038D01*
X0058513Y0052831D01*
X0058992Y0052611D01*
X0059467Y0052379D01*
X0059935Y0052136D01*
X0060397Y0051882D01*
X0060853Y0051616D01*
X0061302Y0051339D01*
X0061745Y0051052D01*
X0062180Y0050753D01*
X0062608Y0050444D01*
X0063027Y0050124D01*
X0063439Y0049795D01*
X0063843Y0049455D01*
X0064239Y0049105D01*
X0064625Y0048746D01*
X0065003Y0048378D01*
X0065371Y0048000D01*
X0065730Y0047614D01*
X0066080Y0047218D01*
X0066420Y0046814D01*
X0066749Y0046402D01*
X0067069Y0045983D01*
X0067378Y0045555D01*
X0067677Y0045120D01*
X0067964Y0044677D01*
X0068241Y0044228D01*
X0068507Y0043772D01*
X0068761Y0043310D01*
X0069004Y0042842D01*
X0069236Y0042367D01*
X0069456Y0041888D01*
X0069663Y0041403D01*
X0069859Y0040913D01*
X0070043Y0040418D01*
X0070215Y0039919D01*
X0070374Y0039416D01*
X0070521Y0038909D01*
X0070656Y0038399D01*
X0070778Y0037886D01*
X0070887Y0037369D01*
X0070983Y0036851D01*
X0071067Y0036330D01*
X0071138Y0035807D01*
X0071196Y0035282D01*
X0071242Y0034757D01*
X0071274Y0034230D01*
X0071294Y0033703D01*
X0071300Y0033175D01*
X0071294Y0032647D01*
X0071274Y0032120D01*
X0071242Y0031593D01*
X0071196Y0031068D01*
X0071138Y0030543D01*
X0071067Y0030020D01*
X0070983Y0029499D01*
X0070887Y0028981D01*
X0070778Y0028464D01*
X0070656Y0027951D01*
X0070521Y0027441D01*
X0070374Y0026934D01*
X0070215Y0026431D01*
X0070043Y0025932D01*
X0069859Y0025437D01*
X0069663Y0024947D01*
X0069456Y0024462D01*
X0069236Y0023983D01*
X0069004Y0023508D01*
X0068761Y0023040D01*
X0068507Y0022578D01*
X0068241Y0022122D01*
X0067964Y0021673D01*
X0067677Y0021230D01*
X0067378Y0020795D01*
X0067069Y0020367D01*
X0066749Y0019948D01*
X0066420Y0019536D01*
X0066080Y0019132D01*
X0065730Y0018736D01*
X0065371Y0018350D01*
X0065003Y0017972D01*
X0064625Y0017604D01*
X0064239Y0017245D01*
X0063843Y0016895D01*
X0063439Y0016555D01*
X0063027Y0016226D01*
X0062608Y0015906D01*
X0062180Y0015597D01*
X0061745Y0015298D01*
X0061302Y0015011D01*
X0060853Y0014734D01*
X0060397Y0014468D01*
X0059935Y0014214D01*
X0059467Y0013971D01*
X0058992Y0013739D01*
X0058513Y0013519D01*
X0058028Y0013312D01*
X0057538Y0013116D01*
X0057043Y0012932D01*
X0056544Y0012760D01*
X0056041Y0012601D01*
X0055534Y0012454D01*
X0055024Y0012319D01*
X0054511Y0012197D01*
X0053994Y0012088D01*
X0053476Y0011992D01*
X0052955Y0011908D01*
X0052432Y0011837D01*
X0051907Y0011779D01*
X0051382Y0011733D01*
X0050855Y0011701D01*
X0050328Y0011681D01*
X0049800Y0011675D01*
X0049272Y0011681D01*
X0048745Y0011701D01*
X0048218Y0011733D01*
X0047693Y0011779D01*
X0047168Y0011837D01*
X0046645Y0011908D01*
X0046124Y0011992D01*
X0045606Y0012088D01*
X0045089Y0012197D01*
X0044576Y0012319D01*
X0044066Y0012454D01*
X0043559Y0012601D01*
X0043056Y0012760D01*
X0042557Y0012932D01*
X0042062Y0013116D01*
X0041572Y0013312D01*
X0041087Y0013519D01*
X0040608Y0013739D01*
X0040133Y0013971D01*
X0039665Y0014214D01*
X0039203Y0014468D01*
X0038747Y0014734D01*
X0038298Y0015011D01*
X0037855Y0015298D01*
X0037420Y0015597D01*
X0036992Y0015906D01*
X0036573Y0016226D01*
X0036161Y0016555D01*
X0035757Y0016895D01*
X0035361Y0017245D01*
X0034975Y0017604D01*
X0034597Y0017972D01*
X0034229Y0018350D01*
X0033870Y0018736D01*
X0033520Y0019132D01*
X0033180Y0019536D01*
X0032851Y0019948D01*
X0032531Y0020367D01*
X0032222Y0020795D01*
X0031923Y0021230D01*
X0031636Y0021673D01*
X0031359Y0022122D01*
X0031093Y0022578D01*
X0030839Y0023040D01*
X0030596Y0023508D01*
X0030364Y0023983D01*
X0030144Y0024462D01*
X0029937Y0024947D01*
X0029741Y0025437D01*
X0029557Y0025932D01*
X0029385Y0026431D01*
X0029226Y0026934D01*
X0029079Y0027441D01*
X0028944Y0027951D01*
X0028822Y0028464D01*
X0028713Y0028981D01*
X0028617Y0029499D01*
X0028533Y0030020D01*
X0028462Y0030543D01*
X0028404Y0031068D01*
X0028358Y0031593D01*
X0028326Y0032120D01*
X0028306Y0032647D01*
X0028300Y0033175D01*
X0080300Y0033175D02*
X0080306Y0033703D01*
X0080326Y0034230D01*
X0080358Y0034757D01*
X0080404Y0035282D01*
X0080462Y0035807D01*
X0080533Y0036330D01*
X0080617Y0036851D01*
X0080713Y0037369D01*
X0080822Y0037886D01*
X0080944Y0038399D01*
X0081079Y0038909D01*
X0081226Y0039416D01*
X0081385Y0039919D01*
X0081557Y0040418D01*
X0081741Y0040913D01*
X0081937Y0041403D01*
X0082144Y0041888D01*
X0082364Y0042367D01*
X0082596Y0042842D01*
X0082839Y0043310D01*
X0083093Y0043772D01*
X0083359Y0044228D01*
X0083636Y0044677D01*
X0083923Y0045120D01*
X0084222Y0045555D01*
X0084531Y0045983D01*
X0084851Y0046402D01*
X0085180Y0046814D01*
X0085520Y0047218D01*
X0085870Y0047614D01*
X0086229Y0048000D01*
X0086597Y0048378D01*
X0086975Y0048746D01*
X0087361Y0049105D01*
X0087757Y0049455D01*
X0088161Y0049795D01*
X0088573Y0050124D01*
X0088992Y0050444D01*
X0089420Y0050753D01*
X0089855Y0051052D01*
X0090298Y0051339D01*
X0090747Y0051616D01*
X0091203Y0051882D01*
X0091665Y0052136D01*
X0092133Y0052379D01*
X0092608Y0052611D01*
X0093087Y0052831D01*
X0093572Y0053038D01*
X0094062Y0053234D01*
X0094557Y0053418D01*
X0095056Y0053590D01*
X0095559Y0053749D01*
X0096066Y0053896D01*
X0096576Y0054031D01*
X0097089Y0054153D01*
X0097606Y0054262D01*
X0098124Y0054358D01*
X0098645Y0054442D01*
X0099168Y0054513D01*
X0099693Y0054571D01*
X0100218Y0054617D01*
X0100745Y0054649D01*
X0101272Y0054669D01*
X0101800Y0054675D01*
X0102328Y0054669D01*
X0102855Y0054649D01*
X0103382Y0054617D01*
X0103907Y0054571D01*
X0104432Y0054513D01*
X0104955Y0054442D01*
X0105476Y0054358D01*
X0105994Y0054262D01*
X0106511Y0054153D01*
X0107024Y0054031D01*
X0107534Y0053896D01*
X0108041Y0053749D01*
X0108544Y0053590D01*
X0109043Y0053418D01*
X0109538Y0053234D01*
X0110028Y0053038D01*
X0110513Y0052831D01*
X0110992Y0052611D01*
X0111467Y0052379D01*
X0111935Y0052136D01*
X0112397Y0051882D01*
X0112853Y0051616D01*
X0113302Y0051339D01*
X0113745Y0051052D01*
X0114180Y0050753D01*
X0114608Y0050444D01*
X0115027Y0050124D01*
X0115439Y0049795D01*
X0115843Y0049455D01*
X0116239Y0049105D01*
X0116625Y0048746D01*
X0117003Y0048378D01*
X0117371Y0048000D01*
X0117730Y0047614D01*
X0118080Y0047218D01*
X0118420Y0046814D01*
X0118749Y0046402D01*
X0119069Y0045983D01*
X0119378Y0045555D01*
X0119677Y0045120D01*
X0119964Y0044677D01*
X0120241Y0044228D01*
X0120507Y0043772D01*
X0120761Y0043310D01*
X0121004Y0042842D01*
X0121236Y0042367D01*
X0121456Y0041888D01*
X0121663Y0041403D01*
X0121859Y0040913D01*
X0122043Y0040418D01*
X0122215Y0039919D01*
X0122374Y0039416D01*
X0122521Y0038909D01*
X0122656Y0038399D01*
X0122778Y0037886D01*
X0122887Y0037369D01*
X0122983Y0036851D01*
X0123067Y0036330D01*
X0123138Y0035807D01*
X0123196Y0035282D01*
X0123242Y0034757D01*
X0123274Y0034230D01*
X0123294Y0033703D01*
X0123300Y0033175D01*
X0123294Y0032647D01*
X0123274Y0032120D01*
X0123242Y0031593D01*
X0123196Y0031068D01*
X0123138Y0030543D01*
X0123067Y0030020D01*
X0122983Y0029499D01*
X0122887Y0028981D01*
X0122778Y0028464D01*
X0122656Y0027951D01*
X0122521Y0027441D01*
X0122374Y0026934D01*
X0122215Y0026431D01*
X0122043Y0025932D01*
X0121859Y0025437D01*
X0121663Y0024947D01*
X0121456Y0024462D01*
X0121236Y0023983D01*
X0121004Y0023508D01*
X0120761Y0023040D01*
X0120507Y0022578D01*
X0120241Y0022122D01*
X0119964Y0021673D01*
X0119677Y0021230D01*
X0119378Y0020795D01*
X0119069Y0020367D01*
X0118749Y0019948D01*
X0118420Y0019536D01*
X0118080Y0019132D01*
X0117730Y0018736D01*
X0117371Y0018350D01*
X0117003Y0017972D01*
X0116625Y0017604D01*
X0116239Y0017245D01*
X0115843Y0016895D01*
X0115439Y0016555D01*
X0115027Y0016226D01*
X0114608Y0015906D01*
X0114180Y0015597D01*
X0113745Y0015298D01*
X0113302Y0015011D01*
X0112853Y0014734D01*
X0112397Y0014468D01*
X0111935Y0014214D01*
X0111467Y0013971D01*
X0110992Y0013739D01*
X0110513Y0013519D01*
X0110028Y0013312D01*
X0109538Y0013116D01*
X0109043Y0012932D01*
X0108544Y0012760D01*
X0108041Y0012601D01*
X0107534Y0012454D01*
X0107024Y0012319D01*
X0106511Y0012197D01*
X0105994Y0012088D01*
X0105476Y0011992D01*
X0104955Y0011908D01*
X0104432Y0011837D01*
X0103907Y0011779D01*
X0103382Y0011733D01*
X0102855Y0011701D01*
X0102328Y0011681D01*
X0101800Y0011675D01*
X0101272Y0011681D01*
X0100745Y0011701D01*
X0100218Y0011733D01*
X0099693Y0011779D01*
X0099168Y0011837D01*
X0098645Y0011908D01*
X0098124Y0011992D01*
X0097606Y0012088D01*
X0097089Y0012197D01*
X0096576Y0012319D01*
X0096066Y0012454D01*
X0095559Y0012601D01*
X0095056Y0012760D01*
X0094557Y0012932D01*
X0094062Y0013116D01*
X0093572Y0013312D01*
X0093087Y0013519D01*
X0092608Y0013739D01*
X0092133Y0013971D01*
X0091665Y0014214D01*
X0091203Y0014468D01*
X0090747Y0014734D01*
X0090298Y0015011D01*
X0089855Y0015298D01*
X0089420Y0015597D01*
X0088992Y0015906D01*
X0088573Y0016226D01*
X0088161Y0016555D01*
X0087757Y0016895D01*
X0087361Y0017245D01*
X0086975Y0017604D01*
X0086597Y0017972D01*
X0086229Y0018350D01*
X0085870Y0018736D01*
X0085520Y0019132D01*
X0085180Y0019536D01*
X0084851Y0019948D01*
X0084531Y0020367D01*
X0084222Y0020795D01*
X0083923Y0021230D01*
X0083636Y0021673D01*
X0083359Y0022122D01*
X0083093Y0022578D01*
X0082839Y0023040D01*
X0082596Y0023508D01*
X0082364Y0023983D01*
X0082144Y0024462D01*
X0081937Y0024947D01*
X0081741Y0025437D01*
X0081557Y0025932D01*
X0081385Y0026431D01*
X0081226Y0026934D01*
X0081079Y0027441D01*
X0080944Y0027951D01*
X0080822Y0028464D01*
X0080713Y0028981D01*
X0080617Y0029499D01*
X0080533Y0030020D01*
X0080462Y0030543D01*
X0080404Y0031068D01*
X0080358Y0031593D01*
X0080326Y0032120D01*
X0080306Y0032647D01*
X0080300Y0033175D01*
X0106800Y0040675D02*
X0106800Y0045675D01*
D11*
X0085800Y0051675D02*
X0065800Y0051675D01*
X0065800Y0069175D01*
X0085800Y0069175D01*
X0085800Y0051675D01*
X0085800Y0069175D02*
X0085800Y0076675D01*
X0065800Y0076675D01*
X0065800Y0069175D01*
M02*
