G75*
%MOIN*%
%OFA0B0*%
%FSLAX25Y25*%
%IPPOS*%
%LPD*%
%AMOC8*
5,1,8,0,0,1.08239X$1,22.5*
%
%ADD10C,0.08300*%
%ADD11R,0.03950X0.05524*%
%ADD12R,0.05524X0.03950*%
%ADD13R,0.03300X0.05800*%
%ADD14R,0.20800X0.10800*%
%ADD15R,0.05800X0.03300*%
%ADD16R,0.10800X0.20800*%
%ADD17C,0.06700*%
%ADD18R,0.06700X0.06700*%
%ADD19C,0.06737*%
%ADD20R,0.07099X0.07887*%
%ADD21R,0.07887X0.07099*%
%ADD22C,0.20800*%
%ADD23C,0.03400*%
D10*
X0020000Y0084300D03*
X0091000Y0123000D03*
X0152500Y0017500D03*
D11*
X0140543Y0033000D03*
X0133457Y0033000D03*
X0117443Y0032400D03*
X0110357Y0032400D03*
G36*
X0088956Y0037961D02*
X0091749Y0040754D01*
X0095654Y0036849D01*
X0092861Y0034056D01*
X0088956Y0037961D01*
G37*
G36*
X0083946Y0032951D02*
X0086739Y0035744D01*
X0090644Y0031839D01*
X0087851Y0029046D01*
X0083946Y0032951D01*
G37*
X0079543Y0032500D03*
X0072457Y0032500D03*
X0065643Y0016500D03*
X0058557Y0016500D03*
X0053643Y0016500D03*
X0046557Y0016500D03*
X0047457Y0049500D03*
X0054543Y0049500D03*
X0058957Y0049500D03*
X0066043Y0049500D03*
X0097957Y0078500D03*
X0097957Y0084500D03*
X0105043Y0084500D03*
X0109957Y0084500D03*
X0109957Y0078500D03*
X0105043Y0078500D03*
X0117043Y0078500D03*
X0117043Y0084500D03*
X0130957Y0084500D03*
X0130957Y0078500D03*
X0138043Y0078500D03*
X0142957Y0078500D03*
X0142957Y0084500D03*
X0138043Y0084500D03*
X0144457Y0095500D03*
X0151543Y0095500D03*
X0150043Y0084500D03*
X0150043Y0078500D03*
X0119043Y0118500D03*
X0119043Y0124000D03*
X0111957Y0124000D03*
X0111957Y0118500D03*
D12*
X0121500Y0105543D03*
X0127500Y0105543D03*
X0127500Y0098457D03*
X0121500Y0098457D03*
X0131500Y0113357D03*
X0137200Y0113357D03*
X0137200Y0120443D03*
X0131500Y0120443D03*
X0128400Y0060043D03*
X0128400Y0052957D03*
X0131000Y0048043D03*
X0131000Y0040957D03*
X0098000Y0040957D03*
X0098000Y0048043D03*
X0095100Y0053157D03*
X0095100Y0060243D03*
X0027500Y0061457D03*
X0027500Y0056543D03*
X0027500Y0049457D03*
X0021500Y0049457D03*
X0021500Y0056543D03*
X0021500Y0061457D03*
X0021500Y0068543D03*
X0027500Y0068543D03*
X0027500Y0035543D03*
X0021500Y0035543D03*
X0021500Y0028457D03*
X0021500Y0023543D03*
X0021500Y0016457D03*
X0027500Y0016457D03*
X0027500Y0023543D03*
X0027500Y0028457D03*
D13*
X0105000Y0050000D03*
X0110000Y0050000D03*
X0115000Y0050000D03*
X0120000Y0050000D03*
X0138000Y0050000D03*
X0143000Y0050000D03*
X0148000Y0050000D03*
X0153000Y0050000D03*
X0153000Y0072500D03*
X0148000Y0072500D03*
X0143000Y0072500D03*
X0138000Y0072500D03*
X0120000Y0072500D03*
X0115000Y0072500D03*
X0110000Y0072500D03*
X0105000Y0072500D03*
D14*
X0109000Y0061250D03*
X0142000Y0061250D03*
D15*
X0056000Y0061500D03*
X0056000Y0066500D03*
X0056000Y0071500D03*
X0056000Y0056500D03*
X0056000Y0038500D03*
X0056000Y0033500D03*
X0056000Y0028500D03*
X0056000Y0023500D03*
X0033500Y0023500D03*
X0033500Y0028500D03*
X0033500Y0033500D03*
X0033500Y0038500D03*
X0033500Y0056500D03*
X0033500Y0061500D03*
X0033500Y0066500D03*
X0033500Y0071500D03*
D16*
X0044750Y0060500D03*
X0044750Y0027500D03*
D17*
X0042000Y0095000D03*
X0042000Y0105000D03*
X0042000Y0115000D03*
X0144500Y0113000D03*
X0144500Y0103000D03*
X0154500Y0103000D03*
X0154500Y0113000D03*
X0154500Y0123000D03*
D18*
X0144500Y0123000D03*
X0042000Y0125000D03*
D19*
X0056000Y0122269D02*
X0056000Y0116331D01*
X0066000Y0116331D02*
X0066000Y0122269D01*
X0076000Y0122269D02*
X0076000Y0116331D01*
X0025969Y0115000D02*
X0020031Y0115000D01*
X0020031Y0105000D02*
X0025969Y0105000D01*
X0025969Y0095000D02*
X0020031Y0095000D01*
X0020031Y0125000D02*
X0025969Y0125000D01*
X0072000Y0025969D02*
X0072000Y0020031D01*
X0082000Y0020031D02*
X0082000Y0025969D01*
X0092000Y0025969D02*
X0092000Y0020031D01*
X0102000Y0020031D02*
X0102000Y0025969D01*
X0112000Y0025969D02*
X0112000Y0020031D01*
X0122000Y0020031D02*
X0122000Y0025969D01*
X0132000Y0025969D02*
X0132000Y0020031D01*
X0142000Y0020031D02*
X0142000Y0025969D01*
D20*
X0138488Y0042500D03*
X0149512Y0042500D03*
X0116512Y0042500D03*
X0105488Y0042500D03*
D21*
X0063500Y0035012D03*
X0063500Y0023988D03*
X0063500Y0056988D03*
X0063500Y0068012D03*
D22*
X0060000Y0089000D03*
X0083500Y0089000D03*
D23*
X0016600Y0014000D03*
X0027500Y0023000D03*
X0045000Y0024000D03*
X0045000Y0033000D03*
X0054000Y0028500D03*
X0054200Y0038500D03*
X0069500Y0045000D03*
X0072000Y0050500D03*
X0085500Y0063000D03*
X0089000Y0060500D03*
X0089500Y0051500D03*
X0105500Y0061000D03*
X0110000Y0052000D03*
X0114500Y0061000D03*
X0120000Y0051500D03*
X0111000Y0038500D03*
X0126100Y0035100D03*
X0144000Y0038000D03*
X0143000Y0052000D03*
X0138500Y0061000D03*
X0147500Y0061000D03*
X0153000Y0051500D03*
X0154500Y0026000D03*
X0137000Y0015500D03*
X0117000Y0015500D03*
X0097000Y0015500D03*
X0077000Y0015500D03*
X0045000Y0057000D03*
X0045000Y0066000D03*
X0054000Y0061500D03*
X0054500Y0071500D03*
X0053000Y0078500D03*
X0046600Y0088800D03*
X0035500Y0091500D03*
X0030500Y0100000D03*
X0035300Y0106600D03*
X0048500Y0109200D03*
X0051500Y0107000D03*
X0060900Y0110000D03*
X0071000Y0112000D03*
X0085500Y0115000D03*
X0089500Y0110500D03*
X0095500Y0109000D03*
X0093500Y0105000D03*
X0096500Y0115500D03*
X0099000Y0124000D03*
X0107500Y0120000D03*
X0112000Y0118500D03*
X0116600Y0108600D03*
X0112500Y0106500D03*
X0108000Y0103000D03*
X0111500Y0099500D03*
X0120100Y0089000D03*
X0121000Y0099500D03*
X0127500Y0102500D03*
X0133500Y0093500D03*
X0130300Y0086000D03*
X0137500Y0078500D03*
X0142957Y0084500D03*
X0144700Y0090100D03*
X0155500Y0080500D03*
X0127000Y0069500D03*
X0121700Y0077700D03*
X0104500Y0079000D03*
X0125800Y0112500D03*
X0129100Y0119300D03*
X0122000Y0119500D03*
X0135000Y0124500D03*
X0072500Y0070000D03*
X0033700Y0120900D03*
X0027200Y0087700D03*
X0027500Y0056600D03*
X0025100Y0043600D03*
M02*
