G75*
%MOIN*%
%OFA0B0*%
%FSLAX25Y25*%
%IPPOS*%
%LPD*%
%AMOC8*
5,1,8,0,0,1.08239X$1,22.5*
%
%ADD10R,0.07874X0.07874*%
%ADD11R,0.02000X0.05800*%
%ADD12R,0.05800X0.02000*%
%ADD13R,0.30000X0.07100*%
%ADD14R,0.07100X0.30000*%
%ADD15R,0.03150X0.04724*%
%ADD16R,0.04724X0.03150*%
%ADD17R,0.03937X0.11614*%
%ADD18R,0.04724X0.04724*%
%ADD19R,0.03268X0.02480*%
D10*
X0027000Y0018126D03*
X0027000Y0033874D03*
X0027000Y0051126D03*
X0027000Y0066874D03*
X0099626Y0075000D03*
X0115374Y0075000D03*
X0132626Y0075000D03*
X0148374Y0075000D03*
D11*
X0129500Y0092800D03*
X0126400Y0092800D03*
X0123200Y0092800D03*
X0120100Y0092800D03*
X0116900Y0092800D03*
X0113800Y0092800D03*
X0110600Y0092800D03*
X0107500Y0092800D03*
X0107500Y0125200D03*
X0110600Y0125200D03*
X0113800Y0125200D03*
X0116900Y0125200D03*
X0120100Y0125200D03*
X0123200Y0125200D03*
X0126400Y0125200D03*
X0129500Y0125200D03*
D12*
X0134700Y0120000D03*
X0134700Y0116900D03*
X0134700Y0113700D03*
X0134700Y0110600D03*
X0134700Y0107400D03*
X0134700Y0104300D03*
X0134700Y0101100D03*
X0134700Y0098000D03*
X0102300Y0098000D03*
X0102300Y0101100D03*
X0102300Y0104300D03*
X0102300Y0107400D03*
X0102300Y0110600D03*
X0102300Y0113700D03*
X0102300Y0116900D03*
X0102300Y0120000D03*
D13*
X0049500Y0072500D03*
X0049500Y0050500D03*
X0049500Y0039500D03*
X0049500Y0017500D03*
D14*
X0099000Y0052500D03*
X0121000Y0052500D03*
X0132000Y0052500D03*
X0154000Y0052500D03*
D15*
X0075543Y0101000D03*
X0068457Y0101000D03*
D16*
X0092400Y0079343D03*
X0092400Y0072257D03*
X0149500Y0086857D03*
X0149500Y0093943D03*
D17*
X0080000Y0065449D03*
X0080000Y0046551D03*
D18*
X0155100Y0086266D03*
X0155100Y0094534D03*
D19*
X0095500Y0095972D03*
X0095500Y0105028D03*
M02*
