G75*
%MOIN*%
%OFA0B0*%
%FSLAX25Y25*%
%IPPOS*%
%LPD*%
%AMOC8*
5,1,8,0,0,1.08239X$1,22.5*
%
%ADD10C,0.00600*%
%ADD11C,0.02200*%
%ADD12C,0.00394*%
%ADD13C,0.00500*%
%ADD14C,0.00300*%
%ADD15C,0.01000*%
%ADD16R,0.00787X0.00787*%
D10*
X0054900Y0010500D02*
X0064300Y0010500D01*
X0066700Y0010500D01*
X0076100Y0010500D01*
X0076100Y0011500D01*
X0066700Y0010500D02*
X0066698Y0010569D01*
X0066692Y0010637D01*
X0066682Y0010705D01*
X0066669Y0010772D01*
X0066651Y0010838D01*
X0066630Y0010903D01*
X0066605Y0010967D01*
X0066577Y0011029D01*
X0066545Y0011090D01*
X0066510Y0011149D01*
X0066471Y0011205D01*
X0066429Y0011260D01*
X0066384Y0011311D01*
X0066336Y0011361D01*
X0066286Y0011407D01*
X0066233Y0011450D01*
X0066177Y0011491D01*
X0066120Y0011528D01*
X0066060Y0011561D01*
X0065998Y0011592D01*
X0065935Y0011618D01*
X0065871Y0011641D01*
X0065805Y0011661D01*
X0065738Y0011676D01*
X0065671Y0011688D01*
X0065603Y0011696D01*
X0065534Y0011700D01*
X0065466Y0011700D01*
X0065397Y0011696D01*
X0065329Y0011688D01*
X0065262Y0011676D01*
X0065195Y0011661D01*
X0065129Y0011641D01*
X0065065Y0011618D01*
X0065002Y0011592D01*
X0064940Y0011561D01*
X0064880Y0011528D01*
X0064823Y0011491D01*
X0064767Y0011450D01*
X0064714Y0011407D01*
X0064664Y0011361D01*
X0064616Y0011311D01*
X0064571Y0011260D01*
X0064529Y0011205D01*
X0064490Y0011149D01*
X0064455Y0011090D01*
X0064423Y0011029D01*
X0064395Y0010967D01*
X0064370Y0010903D01*
X0064349Y0010838D01*
X0064331Y0010772D01*
X0064318Y0010705D01*
X0064308Y0010637D01*
X0064302Y0010569D01*
X0064300Y0010500D01*
X0064302Y0010569D01*
X0064308Y0010637D01*
X0064318Y0010705D01*
X0064331Y0010772D01*
X0064349Y0010838D01*
X0064370Y0010903D01*
X0064395Y0010967D01*
X0064423Y0011029D01*
X0064455Y0011090D01*
X0064490Y0011149D01*
X0064529Y0011205D01*
X0064571Y0011260D01*
X0064616Y0011311D01*
X0064664Y0011361D01*
X0064714Y0011407D01*
X0064767Y0011450D01*
X0064823Y0011491D01*
X0064880Y0011528D01*
X0064940Y0011561D01*
X0065002Y0011592D01*
X0065065Y0011618D01*
X0065129Y0011641D01*
X0065195Y0011661D01*
X0065262Y0011676D01*
X0065329Y0011688D01*
X0065397Y0011696D01*
X0065466Y0011700D01*
X0065534Y0011700D01*
X0065603Y0011696D01*
X0065671Y0011688D01*
X0065738Y0011676D01*
X0065805Y0011661D01*
X0065871Y0011641D01*
X0065935Y0011618D01*
X0065998Y0011592D01*
X0066060Y0011561D01*
X0066120Y0011528D01*
X0066177Y0011491D01*
X0066233Y0011450D01*
X0066286Y0011407D01*
X0066336Y0011361D01*
X0066384Y0011311D01*
X0066429Y0011260D01*
X0066471Y0011205D01*
X0066510Y0011149D01*
X0066545Y0011090D01*
X0066577Y0011029D01*
X0066605Y0010967D01*
X0066630Y0010903D01*
X0066651Y0010838D01*
X0066669Y0010772D01*
X0066682Y0010705D01*
X0066692Y0010637D01*
X0066698Y0010569D01*
X0066700Y0010500D01*
X0054900Y0010500D02*
X0054900Y0011500D01*
X0054900Y0015500D02*
X0054900Y0016500D01*
X0054900Y0020500D02*
X0054900Y0021500D01*
X0054900Y0025500D02*
X0054900Y0026500D01*
X0054900Y0030500D02*
X0054900Y0031500D01*
X0076100Y0031500D01*
X0076100Y0030500D01*
X0087569Y0030388D02*
X0089931Y0030388D01*
X0076100Y0026500D02*
X0076100Y0025500D01*
X0076100Y0021500D02*
X0076100Y0020500D01*
X0076100Y0016500D02*
X0076100Y0015500D01*
X0134888Y0022319D02*
X0134888Y0024681D01*
X0139612Y0024681D02*
X0139612Y0022319D01*
X0157819Y0030688D02*
X0160181Y0030688D01*
X0160181Y0035412D02*
X0157819Y0035412D01*
X0089931Y0035112D02*
X0087569Y0035112D01*
X0014362Y0016931D02*
X0014362Y0014569D01*
X0009638Y0014569D02*
X0009638Y0016931D01*
D11*
X0088750Y0032630D02*
X0088750Y0032870D01*
X0159000Y0033170D02*
X0159000Y0032930D01*
D12*
X0103793Y0025463D02*
X0103793Y0016604D01*
X0096707Y0016604D01*
X0096707Y0014045D01*
X0098478Y0014045D01*
X0102022Y0014045D02*
X0103793Y0014045D01*
X0103793Y0016604D01*
X0096707Y0016604D02*
X0096707Y0025463D01*
X0098478Y0025463D01*
X0102022Y0025463D02*
X0103793Y0025463D01*
X0096037Y0023004D02*
X0095250Y0023004D01*
X0096037Y0023004D02*
X0096037Y0015917D01*
X0095250Y0015917D01*
X0092494Y0015917D02*
X0087770Y0015917D01*
X0085014Y0015917D02*
X0084226Y0015917D01*
X0084226Y0023004D01*
X0085014Y0023004D01*
X0087770Y0023004D02*
X0088754Y0023004D01*
X0091510Y0023004D02*
X0092494Y0023004D01*
D13*
X0017250Y0030500D02*
X0017250Y0010500D01*
X0047250Y0010500D01*
X0047250Y0030500D01*
X0017250Y0030500D01*
X0108500Y0036750D02*
X0109750Y0038000D01*
X0124750Y0038000D01*
X0126000Y0036750D01*
X0141750Y0029500D02*
X0172750Y0029500D01*
X0172750Y0009500D01*
X0141750Y0009500D01*
X0141750Y0029500D01*
X0176250Y0032500D02*
X0176250Y0034500D01*
X0197250Y0034500D01*
X0197250Y0032500D01*
X0180836Y0030500D02*
X0180838Y0030575D01*
X0180844Y0030649D01*
X0180854Y0030723D01*
X0180867Y0030796D01*
X0180885Y0030869D01*
X0180906Y0030940D01*
X0180931Y0031011D01*
X0180960Y0031080D01*
X0180993Y0031147D01*
X0181029Y0031212D01*
X0181068Y0031276D01*
X0181110Y0031337D01*
X0181156Y0031396D01*
X0181205Y0031453D01*
X0181257Y0031506D01*
X0181311Y0031557D01*
X0181368Y0031606D01*
X0181428Y0031650D01*
X0181490Y0031692D01*
X0181554Y0031731D01*
X0181620Y0031766D01*
X0181687Y0031797D01*
X0181757Y0031825D01*
X0181827Y0031849D01*
X0181899Y0031870D01*
X0181972Y0031886D01*
X0182045Y0031899D01*
X0182120Y0031908D01*
X0182194Y0031913D01*
X0182269Y0031914D01*
X0182343Y0031911D01*
X0182418Y0031904D01*
X0182491Y0031893D01*
X0182565Y0031879D01*
X0182637Y0031860D01*
X0182708Y0031838D01*
X0182778Y0031812D01*
X0182847Y0031782D01*
X0182913Y0031749D01*
X0182978Y0031712D01*
X0183041Y0031672D01*
X0183102Y0031628D01*
X0183160Y0031582D01*
X0183216Y0031532D01*
X0183269Y0031480D01*
X0183320Y0031425D01*
X0183367Y0031367D01*
X0183411Y0031307D01*
X0183452Y0031244D01*
X0183490Y0031180D01*
X0183524Y0031114D01*
X0183555Y0031045D01*
X0183582Y0030976D01*
X0183605Y0030905D01*
X0183624Y0030833D01*
X0183640Y0030760D01*
X0183652Y0030686D01*
X0183660Y0030612D01*
X0183664Y0030537D01*
X0183664Y0030463D01*
X0183660Y0030388D01*
X0183652Y0030314D01*
X0183640Y0030240D01*
X0183624Y0030167D01*
X0183605Y0030095D01*
X0183582Y0030024D01*
X0183555Y0029955D01*
X0183524Y0029886D01*
X0183490Y0029820D01*
X0183452Y0029756D01*
X0183411Y0029693D01*
X0183367Y0029633D01*
X0183320Y0029575D01*
X0183269Y0029520D01*
X0183216Y0029468D01*
X0183160Y0029418D01*
X0183102Y0029372D01*
X0183041Y0029328D01*
X0182978Y0029288D01*
X0182913Y0029251D01*
X0182847Y0029218D01*
X0182778Y0029188D01*
X0182708Y0029162D01*
X0182637Y0029140D01*
X0182565Y0029121D01*
X0182491Y0029107D01*
X0182418Y0029096D01*
X0182343Y0029089D01*
X0182269Y0029086D01*
X0182194Y0029087D01*
X0182120Y0029092D01*
X0182045Y0029101D01*
X0181972Y0029114D01*
X0181899Y0029130D01*
X0181827Y0029151D01*
X0181757Y0029175D01*
X0181687Y0029203D01*
X0181620Y0029234D01*
X0181554Y0029269D01*
X0181490Y0029308D01*
X0181428Y0029350D01*
X0181368Y0029394D01*
X0181311Y0029443D01*
X0181257Y0029494D01*
X0181205Y0029547D01*
X0181156Y0029604D01*
X0181110Y0029663D01*
X0181068Y0029724D01*
X0181029Y0029788D01*
X0180993Y0029853D01*
X0180960Y0029920D01*
X0180931Y0029989D01*
X0180906Y0030060D01*
X0180885Y0030131D01*
X0180867Y0030204D01*
X0180854Y0030277D01*
X0180844Y0030351D01*
X0180838Y0030425D01*
X0180836Y0030500D01*
X0176250Y0013500D02*
X0176250Y0011500D01*
X0197250Y0011500D01*
X0197250Y0013500D01*
X0126000Y0009250D02*
X0124750Y0008000D01*
X0109750Y0008000D01*
X0108500Y0009250D01*
D14*
X0083250Y0009398D02*
X0080114Y0009398D01*
X0083250Y0009398D01*
X0083250Y0007830D02*
X0080114Y0010966D01*
X0083250Y0007830D01*
X0081682Y0007830D02*
X0081682Y0010966D01*
X0081682Y0007830D01*
X0080114Y0007830D02*
X0083250Y0010966D01*
X0080114Y0007830D01*
D15*
X0201000Y0010500D02*
X0201000Y0028000D01*
X0241000Y0028000D01*
X0241000Y0010500D01*
X0201000Y0010500D01*
X0201000Y0028000D02*
X0201000Y0035500D01*
X0241000Y0035500D01*
X0241000Y0028000D01*
D16*
X0140144Y0033000D03*
X0012000Y0027856D03*
M02*
