G75*
%MOIN*%
%OFA0B0*%
%FSLAX25Y25*%
%IPPOS*%
%LPD*%
%AMOC8*
5,1,8,0,0,1.08239X$1,22.5*
%
%ADD10R,0.03950X0.05524*%
%ADD11R,0.03556X0.06312*%
%ADD12R,0.02769X0.04737*%
%ADD13C,0.06700*%
%ADD14R,0.06700X0.06700*%
%ADD15R,0.08300X0.25800*%
%ADD16R,0.08800X0.03800*%
%ADD17R,0.18800X0.18800*%
%ADD18R,0.05524X0.03950*%
%ADD19R,0.06900X0.02900*%
%ADD20R,0.07000X0.02800*%
%ADD21C,0.06737*%
%ADD22R,0.05524X0.05524*%
%ADD23C,0.03400*%
%ADD24C,0.06800*%
%ADD25C,0.05400*%
D10*
X0085207Y0032750D03*
X0092293Y0032750D03*
X0155457Y0033050D03*
X0162543Y0033050D03*
D11*
X0100250Y0026250D03*
X0100250Y0013258D03*
D12*
X0093872Y0014343D03*
X0086392Y0014343D03*
X0086392Y0024579D03*
X0090132Y0024579D03*
X0093872Y0024579D03*
D13*
X0042250Y0025500D03*
X0032250Y0025500D03*
X0022250Y0025500D03*
X0032250Y0015500D03*
X0042250Y0015500D03*
D14*
X0022250Y0015500D03*
D15*
X0107750Y0023000D03*
X0126750Y0023000D03*
D16*
X0146750Y0022000D03*
X0146750Y0017000D03*
X0146750Y0012000D03*
X0146750Y0027000D03*
D17*
X0162750Y0019500D03*
D18*
X0012000Y0012207D03*
X0012000Y0019293D03*
X0137250Y0019957D03*
X0137250Y0027043D03*
D19*
X0080100Y0028500D03*
X0080100Y0023500D03*
X0080100Y0018500D03*
X0080100Y0013500D03*
X0050900Y0013500D03*
X0050900Y0018500D03*
X0050900Y0023500D03*
X0050900Y0028500D03*
D20*
X0176250Y0030500D03*
X0197250Y0030500D03*
X0197250Y0025500D03*
X0176250Y0025500D03*
X0176250Y0020500D03*
X0197250Y0020500D03*
X0197250Y0015500D03*
X0176250Y0015500D03*
D21*
X0206000Y0020031D02*
X0206000Y0025969D01*
X0216000Y0025969D02*
X0216000Y0020031D01*
X0226000Y0020031D02*
X0226000Y0025969D01*
X0236000Y0025969D02*
X0236000Y0020031D01*
D22*
X0143884Y0033000D03*
X0135616Y0033000D03*
X0012000Y0032384D03*
X0012000Y0024116D03*
D23*
X0027250Y0020750D03*
X0038000Y0019750D03*
X0057250Y0020750D03*
X0065750Y0019500D03*
X0074250Y0017000D03*
X0068250Y0016500D03*
X0086043Y0019707D03*
X0091750Y0019250D03*
X0097500Y0018750D03*
X0101250Y0020500D03*
X0100250Y0016000D03*
X0125500Y0019500D03*
X0146750Y0023750D03*
X0132750Y0024250D03*
X0125500Y0026750D03*
X0137500Y0027000D03*
X0144000Y0027000D03*
X0149500Y0027000D03*
X0166250Y0030750D03*
X0167500Y0034250D03*
X0181500Y0034250D03*
X0192250Y0030500D03*
X0219000Y0033250D03*
X0197000Y0025500D03*
X0176250Y0025500D03*
X0176250Y0020500D03*
X0181250Y0018000D03*
X0189500Y0019000D03*
X0134750Y0032000D03*
X0088750Y0029000D03*
X0074750Y0030500D03*
X0063250Y0029750D03*
X0051000Y0028500D03*
X0065500Y0033500D03*
X0078750Y0034250D03*
X0016750Y0034250D03*
X0005250Y0032500D03*
X0073250Y0022500D03*
X0059250Y0012750D03*
X0037250Y0012250D03*
X0012250Y0012250D03*
D24*
X0005750Y0023000D03*
X0248000Y0023000D03*
D25*
X0148750Y0033000D03*
X0136000Y0013000D03*
M02*
