G75*
%MOIN*%
%OFA0B0*%
%FSLAX25Y25*%
%IPPOS*%
%LPD*%
%AMOC8*
5,1,8,0,0,1.08239X$1,22.5*
%
%ADD10C,0.00000*%
%ADD11R,0.03150X0.04724*%
%ADD12R,0.02756X0.05512*%
%ADD13R,0.01969X0.03937*%
%ADD14C,0.05900*%
%ADD15R,0.05900X0.05900*%
%ADD16R,0.07500X0.25000*%
%ADD17R,0.08000X0.03000*%
%ADD18R,0.18000X0.18000*%
%ADD19R,0.04724X0.03150*%
%ADD20R,0.06100X0.02100*%
%ADD21R,0.06200X0.02000*%
%ADD22C,0.05937*%
%ADD23R,0.04724X0.04724*%
%ADD24C,0.02600*%
%ADD25C,0.01000*%
%ADD26C,0.05000*%
%ADD27C,0.06000*%
%ADD28C,0.04600*%
D10*
X0001500Y0009500D02*
X0001500Y0036500D01*
X0256500Y0036500D01*
X0256500Y0009500D01*
X0001500Y0009500D01*
D11*
X0085207Y0032750D03*
X0092293Y0032750D03*
X0155457Y0033050D03*
X0162543Y0033050D03*
D12*
X0100250Y0026250D03*
X0100250Y0013258D03*
D13*
X0093872Y0014343D03*
X0086392Y0014343D03*
X0086392Y0024579D03*
X0090132Y0024579D03*
X0093872Y0024579D03*
D14*
X0042250Y0025500D03*
X0032250Y0025500D03*
X0022250Y0025500D03*
X0032250Y0015500D03*
X0042250Y0015500D03*
D15*
X0022250Y0015500D03*
D16*
X0107750Y0023000D03*
X0126750Y0023000D03*
D17*
X0146750Y0022000D03*
X0146750Y0017000D03*
X0146750Y0012000D03*
X0146750Y0027000D03*
D18*
X0162750Y0019500D03*
D19*
X0137250Y0019957D03*
X0137250Y0027043D03*
X0012000Y0019293D03*
X0012000Y0012207D03*
D20*
X0050900Y0013500D03*
X0050900Y0018500D03*
X0050900Y0023500D03*
X0050900Y0028500D03*
X0080100Y0028500D03*
X0080100Y0023500D03*
X0080100Y0018500D03*
X0080100Y0013500D03*
D21*
X0176250Y0015500D03*
X0197250Y0015500D03*
X0197250Y0020500D03*
X0176250Y0020500D03*
X0176250Y0025500D03*
X0197250Y0025500D03*
X0197250Y0030500D03*
X0176250Y0030500D03*
D22*
X0206000Y0025969D02*
X0206000Y0020031D01*
X0216000Y0020031D02*
X0216000Y0025969D01*
X0226000Y0025969D02*
X0226000Y0020031D01*
X0236000Y0020031D02*
X0236000Y0025969D01*
D23*
X0143884Y0033000D03*
X0135616Y0033000D03*
X0012000Y0032384D03*
X0012000Y0024116D03*
D24*
X0027250Y0020750D03*
X0038000Y0019750D03*
X0057250Y0020750D03*
X0065750Y0019500D03*
X0074250Y0017000D03*
X0068250Y0016500D03*
X0086043Y0019707D03*
X0091750Y0019250D03*
X0097500Y0018750D03*
X0101250Y0020500D03*
X0100250Y0016000D03*
X0125500Y0019500D03*
X0146750Y0023750D03*
X0132750Y0024250D03*
X0125500Y0026750D03*
X0137500Y0027000D03*
X0144000Y0027000D03*
X0149500Y0027000D03*
X0166250Y0030750D03*
X0167500Y0034250D03*
X0181500Y0034250D03*
X0192250Y0030500D03*
X0219000Y0033250D03*
X0197000Y0025500D03*
X0176250Y0025500D03*
X0176250Y0020500D03*
X0181250Y0018000D03*
X0189500Y0019000D03*
X0134750Y0032000D03*
X0088750Y0029000D03*
X0074750Y0030500D03*
X0063250Y0029750D03*
X0051000Y0028500D03*
X0065500Y0033500D03*
X0078750Y0034250D03*
X0016750Y0034250D03*
X0005250Y0032500D03*
X0073250Y0022500D03*
X0059250Y0012750D03*
X0037250Y0012250D03*
X0012250Y0012250D03*
D25*
X0012287Y0012494D02*
X0012287Y0011919D01*
X0012287Y0010800D01*
X0011713Y0010800D01*
X0011713Y0011919D01*
X0012287Y0011919D01*
X0015862Y0011919D01*
X0015862Y0010800D01*
X0097572Y0010800D01*
X0097572Y0016552D01*
X0097730Y0016710D01*
X0098046Y0017473D01*
X0098777Y0018204D01*
X0099549Y0018524D01*
X0099373Y0018700D01*
X0099254Y0018700D01*
X0098254Y0019700D01*
X0097246Y0019700D01*
X0096300Y0018754D01*
X0096300Y0014225D01*
X0096156Y0014081D01*
X0096156Y0011836D01*
X0095395Y0011074D01*
X0092349Y0011074D01*
X0091588Y0011836D01*
X0091588Y0012543D01*
X0088676Y0012543D01*
X0088676Y0011836D01*
X0087914Y0011074D01*
X0084869Y0011074D01*
X0084241Y0011702D01*
X0083688Y0011150D01*
X0076512Y0011150D01*
X0075962Y0011700D01*
X0072754Y0011700D01*
X0070504Y0013950D01*
X0069450Y0015004D01*
X0069450Y0017254D01*
X0069004Y0017700D01*
X0067627Y0017700D01*
X0067223Y0017296D01*
X0066267Y0016900D01*
X0065233Y0016900D01*
X0064277Y0017296D01*
X0063546Y0018027D01*
X0063150Y0018983D01*
X0063150Y0019104D01*
X0056800Y0012754D01*
X0055746Y0011700D01*
X0055038Y0011700D01*
X0054488Y0011150D01*
X0047312Y0011150D01*
X0046762Y0011700D01*
X0045004Y0011700D01*
X0044732Y0011972D01*
X0044657Y0011897D01*
X0043095Y0011250D01*
X0041405Y0011250D01*
X0039843Y0011897D01*
X0038647Y0013093D01*
X0038000Y0014655D01*
X0038000Y0016345D01*
X0038333Y0017150D01*
X0037483Y0017150D01*
X0036527Y0017546D01*
X0035796Y0018277D01*
X0035438Y0019142D01*
X0035028Y0018732D01*
X0035853Y0017907D01*
X0036500Y0016345D01*
X0036500Y0014655D01*
X0035853Y0013093D01*
X0034657Y0011897D01*
X0033095Y0011250D01*
X0031405Y0011250D01*
X0029843Y0011897D01*
X0028647Y0013093D01*
X0028000Y0014655D01*
X0028000Y0016345D01*
X0028647Y0017907D01*
X0029843Y0019103D01*
X0030636Y0019432D01*
X0031504Y0020300D01*
X0031504Y0020300D01*
X0032454Y0021250D01*
X0031405Y0021250D01*
X0029843Y0021897D01*
X0028647Y0023093D01*
X0028000Y0024655D01*
X0028000Y0026345D01*
X0028647Y0027907D01*
X0029843Y0029103D01*
X0031405Y0029750D01*
X0033095Y0029750D01*
X0034657Y0029103D01*
X0035482Y0028278D01*
X0036504Y0029300D01*
X0037154Y0029950D01*
X0020996Y0029950D01*
X0020496Y0029450D01*
X0015629Y0029450D01*
X0014901Y0028722D01*
X0009099Y0028722D01*
X0008338Y0029483D01*
X0008338Y0035200D01*
X0002800Y0035200D01*
X0002800Y0010800D01*
X0008138Y0010800D01*
X0008138Y0011919D01*
X0011713Y0011919D01*
X0011713Y0012494D01*
X0011713Y0015281D01*
X0009440Y0015281D01*
X0009059Y0015179D01*
X0008717Y0014982D01*
X0008438Y0014703D01*
X0008240Y0014360D01*
X0008138Y0013979D01*
X0008138Y0012494D01*
X0011713Y0012494D01*
X0012287Y0012494D01*
X0012287Y0015281D01*
X0014560Y0015281D01*
X0014941Y0015179D01*
X0015283Y0014982D01*
X0015562Y0014703D01*
X0015760Y0014360D01*
X0015862Y0013979D01*
X0015862Y0012494D01*
X0012287Y0012494D01*
X0012287Y0012496D02*
X0011713Y0012496D01*
X0008138Y0012496D02*
X0002800Y0012496D01*
X0002800Y0013494D02*
X0008138Y0013494D01*
X0011713Y0013494D02*
X0012287Y0013494D01*
X0012287Y0014493D02*
X0011713Y0014493D01*
X0008316Y0014493D02*
X0002800Y0014493D01*
X0002800Y0015491D02*
X0021775Y0015491D01*
X0021775Y0015025D02*
X0017800Y0015025D01*
X0017800Y0012353D01*
X0017902Y0011971D01*
X0018100Y0011629D01*
X0018379Y0011350D01*
X0018721Y0011152D01*
X0019103Y0011050D01*
X0021775Y0011050D01*
X0021775Y0015025D01*
X0022725Y0015025D01*
X0022725Y0015975D01*
X0021775Y0015975D01*
X0021775Y0019950D01*
X0019103Y0019950D01*
X0018721Y0019848D01*
X0018379Y0019650D01*
X0018100Y0019371D01*
X0017902Y0019029D01*
X0017800Y0018647D01*
X0017800Y0015975D01*
X0021775Y0015975D01*
X0021775Y0015025D01*
X0021775Y0014493D02*
X0022725Y0014493D01*
X0022725Y0015025D02*
X0022725Y0011050D01*
X0025397Y0011050D01*
X0025779Y0011152D01*
X0026121Y0011350D01*
X0026400Y0011629D01*
X0026598Y0011971D01*
X0026700Y0012353D01*
X0026700Y0015025D01*
X0022725Y0015025D01*
X0022725Y0015491D02*
X0028000Y0015491D01*
X0026700Y0015975D02*
X0026700Y0018647D01*
X0026598Y0019029D01*
X0026400Y0019371D01*
X0026121Y0019650D01*
X0025779Y0019848D01*
X0025397Y0019950D01*
X0022725Y0019950D01*
X0022725Y0015975D01*
X0026700Y0015975D01*
X0026700Y0016490D02*
X0028060Y0016490D01*
X0028473Y0017488D02*
X0026700Y0017488D01*
X0026700Y0018487D02*
X0029226Y0018487D01*
X0032250Y0018500D02*
X0032250Y0015500D01*
X0036500Y0015491D02*
X0038000Y0015491D01*
X0038067Y0014493D02*
X0036433Y0014493D01*
X0036019Y0013494D02*
X0038481Y0013494D01*
X0039244Y0012496D02*
X0035256Y0012496D01*
X0033692Y0011497D02*
X0040808Y0011497D01*
X0043692Y0011497D02*
X0046964Y0011497D01*
X0054835Y0011497D02*
X0076164Y0011497D01*
X0071959Y0012496D02*
X0056541Y0012496D01*
X0057540Y0013494D02*
X0070960Y0013494D01*
X0071250Y0015750D02*
X0073500Y0013500D01*
X0080100Y0013500D01*
X0086392Y0014343D02*
X0093872Y0014343D01*
X0094500Y0014970D01*
X0094500Y0019500D01*
X0096500Y0021500D01*
X0099000Y0021500D01*
X0100000Y0020500D01*
X0101250Y0020500D01*
X0098469Y0019485D02*
X0097031Y0019485D01*
X0096300Y0018487D02*
X0099459Y0018487D01*
X0098061Y0017488D02*
X0096300Y0017488D01*
X0096300Y0016490D02*
X0097572Y0016490D01*
X0100250Y0016008D02*
X0100250Y0016000D01*
X0100250Y0013258D01*
X0097572Y0013494D02*
X0096156Y0013494D01*
X0096156Y0012496D02*
X0097572Y0012496D01*
X0097572Y0011497D02*
X0095818Y0011497D01*
X0091926Y0011497D02*
X0088337Y0011497D01*
X0088676Y0012496D02*
X0091588Y0012496D01*
X0084446Y0011497D02*
X0084035Y0011497D01*
X0086392Y0014343D02*
X0086392Y0016608D01*
X0084500Y0018500D01*
X0086043Y0020043D01*
X0086043Y0019707D01*
X0086500Y0023000D02*
X0090250Y0019250D01*
X0091750Y0019250D01*
X0091250Y0019250D01*
X0084500Y0018500D02*
X0080100Y0018500D01*
X0075750Y0018487D02*
X0073050Y0018487D01*
X0073050Y0018746D02*
X0071550Y0020246D01*
X0070496Y0021300D01*
X0067627Y0021300D01*
X0067223Y0021704D01*
X0066267Y0022100D01*
X0066146Y0022100D01*
X0068246Y0024200D01*
X0071273Y0024200D01*
X0071046Y0023973D01*
X0070650Y0023017D01*
X0070650Y0021983D01*
X0071046Y0021027D01*
X0071777Y0020296D01*
X0072733Y0019900D01*
X0073767Y0019900D01*
X0074723Y0020296D01*
X0075454Y0021027D01*
X0075733Y0021700D01*
X0075962Y0021700D01*
X0076512Y0021150D01*
X0083688Y0021150D01*
X0084359Y0021820D01*
X0084419Y0021760D01*
X0083839Y0021179D01*
X0083698Y0020840D01*
X0083688Y0020850D01*
X0076512Y0020850D01*
X0075750Y0020088D01*
X0075750Y0016912D01*
X0076512Y0016150D01*
X0083688Y0016150D01*
X0083996Y0016458D01*
X0084107Y0016347D01*
X0084107Y0015431D01*
X0083688Y0015850D01*
X0076512Y0015850D01*
X0075962Y0015300D01*
X0074246Y0015300D01*
X0073050Y0016496D01*
X0073050Y0018746D01*
X0072310Y0019485D02*
X0075750Y0019485D01*
X0076145Y0020484D02*
X0074911Y0020484D01*
X0071589Y0020484D02*
X0071312Y0020484D01*
X0069750Y0019500D02*
X0065750Y0019500D01*
X0063356Y0018487D02*
X0062532Y0018487D01*
X0061534Y0017488D02*
X0064085Y0017488D01*
X0067415Y0017488D02*
X0069216Y0017488D01*
X0069750Y0019500D02*
X0071250Y0018000D01*
X0071250Y0015750D01*
X0069450Y0015491D02*
X0059537Y0015491D01*
X0058538Y0014493D02*
X0069962Y0014493D01*
X0074055Y0015491D02*
X0076153Y0015491D01*
X0076172Y0016490D02*
X0073056Y0016490D01*
X0073050Y0017488D02*
X0075750Y0017488D01*
X0069450Y0016490D02*
X0060535Y0016490D01*
X0057250Y0020750D02*
X0055000Y0018500D01*
X0050900Y0018500D01*
X0046750Y0018500D01*
X0045500Y0019750D01*
X0038000Y0019750D01*
X0031688Y0020484D02*
X0015662Y0020484D01*
X0015662Y0019485D02*
X0018214Y0019485D01*
X0021775Y0019485D02*
X0022725Y0019485D01*
X0022725Y0018487D02*
X0021775Y0018487D01*
X0021775Y0017488D02*
X0022725Y0017488D01*
X0022725Y0016490D02*
X0021775Y0016490D01*
X0017800Y0016490D02*
X0014972Y0016490D01*
X0014901Y0016419D02*
X0015662Y0017180D01*
X0015662Y0027017D01*
X0014901Y0027778D01*
X0009099Y0027778D01*
X0008338Y0027017D01*
X0008338Y0021215D01*
X0008338Y0017180D01*
X0009099Y0016419D01*
X0014901Y0016419D01*
X0009028Y0016490D02*
X0002800Y0016490D01*
X0002800Y0017488D02*
X0008338Y0017488D01*
X0008338Y0018487D02*
X0002800Y0018487D01*
X0002800Y0019485D02*
X0008338Y0019485D01*
X0012000Y0019293D02*
X0012000Y0024116D01*
X0008338Y0024478D02*
X0002800Y0024478D01*
X0002800Y0025476D02*
X0008338Y0025476D01*
X0008338Y0026475D02*
X0002800Y0026475D01*
X0002800Y0027473D02*
X0008794Y0027473D01*
X0002800Y0028472D02*
X0019211Y0028472D01*
X0018647Y0027907D02*
X0018000Y0026345D01*
X0018000Y0024655D01*
X0018647Y0023093D01*
X0019843Y0021897D01*
X0021405Y0021250D01*
X0023095Y0021250D01*
X0024657Y0021897D01*
X0025853Y0023093D01*
X0026500Y0024655D01*
X0026500Y0026345D01*
X0025853Y0027907D01*
X0024657Y0029103D01*
X0023095Y0029750D01*
X0021405Y0029750D01*
X0019843Y0029103D01*
X0018647Y0027907D01*
X0018467Y0027473D02*
X0015206Y0027473D01*
X0015662Y0026475D02*
X0018054Y0026475D01*
X0018000Y0025476D02*
X0015662Y0025476D01*
X0015662Y0024478D02*
X0018073Y0024478D01*
X0018487Y0023479D02*
X0015662Y0023479D01*
X0015662Y0022481D02*
X0019259Y0022481D01*
X0020844Y0021482D02*
X0015662Y0021482D01*
X0008338Y0021482D02*
X0002800Y0021482D01*
X0002800Y0022481D02*
X0008338Y0022481D01*
X0008338Y0023479D02*
X0002800Y0023479D01*
X0002800Y0020484D02*
X0008338Y0020484D01*
X0015662Y0018487D02*
X0017800Y0018487D01*
X0017800Y0017488D02*
X0015662Y0017488D01*
X0026286Y0019485D02*
X0030690Y0019485D01*
X0032250Y0018500D02*
X0037250Y0023500D01*
X0037250Y0027500D01*
X0039500Y0029750D01*
X0046500Y0029750D01*
X0047750Y0028500D01*
X0050900Y0028500D01*
X0051000Y0028500D01*
X0051500Y0028000D01*
X0061250Y0031750D02*
X0063250Y0029750D01*
X0065850Y0029646D02*
X0065850Y0030267D01*
X0065454Y0031223D01*
X0064723Y0031954D01*
X0063767Y0032350D01*
X0063196Y0032350D01*
X0061996Y0033550D01*
X0019504Y0033550D01*
X0019004Y0033050D01*
X0015662Y0033050D01*
X0015662Y0035200D01*
X0071404Y0035200D01*
X0065850Y0029646D01*
X0065766Y0030469D02*
X0066673Y0030469D01*
X0067672Y0031467D02*
X0065210Y0031467D01*
X0061250Y0031750D02*
X0020250Y0031750D01*
X0019750Y0031250D01*
X0013134Y0031250D01*
X0012000Y0032384D01*
X0012366Y0032384D01*
X0008338Y0032466D02*
X0002800Y0032466D01*
X0002800Y0033464D02*
X0008338Y0033464D01*
X0008338Y0034463D02*
X0002800Y0034463D01*
X0015662Y0034463D02*
X0070667Y0034463D01*
X0073750Y0035000D02*
X0078000Y0035000D01*
X0078750Y0034250D01*
X0081171Y0035200D02*
X0081350Y0034767D01*
X0081350Y0033733D01*
X0080954Y0032777D01*
X0080223Y0032046D01*
X0079267Y0031650D01*
X0078233Y0031650D01*
X0077277Y0032046D01*
X0076546Y0032777D01*
X0076371Y0033200D01*
X0074496Y0033200D01*
X0069096Y0027800D01*
X0075550Y0027800D01*
X0075550Y0028475D01*
X0080075Y0028475D01*
X0080075Y0028525D01*
X0080075Y0031050D01*
X0076853Y0031050D01*
X0076471Y0030948D01*
X0076129Y0030750D01*
X0075850Y0030471D01*
X0075652Y0030129D01*
X0075550Y0029747D01*
X0075550Y0028525D01*
X0080075Y0028525D01*
X0080125Y0028525D01*
X0080125Y0031050D01*
X0082332Y0031050D01*
X0082332Y0035200D01*
X0081171Y0035200D01*
X0081350Y0034463D02*
X0082332Y0034463D01*
X0082332Y0033464D02*
X0081239Y0033464D01*
X0080643Y0032466D02*
X0082332Y0032466D01*
X0085207Y0032750D02*
X0085207Y0025764D01*
X0085707Y0026000D01*
X0067500Y0026000D01*
X0055000Y0013500D01*
X0050900Y0013500D01*
X0045750Y0013500D01*
X0043750Y0015500D01*
X0042250Y0015500D01*
X0038060Y0016490D02*
X0036440Y0016490D01*
X0036667Y0017488D02*
X0036027Y0017488D01*
X0035709Y0018487D02*
X0035274Y0018487D01*
X0030844Y0021482D02*
X0023656Y0021482D01*
X0025241Y0022481D02*
X0029259Y0022481D01*
X0028487Y0023479D02*
X0026013Y0023479D01*
X0026427Y0024478D02*
X0028073Y0024478D01*
X0028000Y0025476D02*
X0026500Y0025476D01*
X0026446Y0026475D02*
X0028054Y0026475D01*
X0028467Y0027473D02*
X0026033Y0027473D01*
X0025289Y0028472D02*
X0029211Y0028472D01*
X0030729Y0029470D02*
X0023771Y0029470D01*
X0020729Y0029470D02*
X0020516Y0029470D01*
X0008351Y0029470D02*
X0002800Y0029470D01*
X0002800Y0030469D02*
X0008338Y0030469D01*
X0008338Y0031467D02*
X0002800Y0031467D01*
X0015662Y0033464D02*
X0019419Y0033464D01*
X0033771Y0029470D02*
X0036675Y0029470D01*
X0035676Y0028472D02*
X0035289Y0028472D01*
X0042250Y0025500D02*
X0044500Y0025500D01*
X0046500Y0023500D01*
X0050900Y0023500D01*
X0062250Y0023500D01*
X0073750Y0035000D01*
X0069669Y0033464D02*
X0062081Y0033464D01*
X0063080Y0032466D02*
X0068670Y0032466D01*
X0073761Y0032466D02*
X0076857Y0032466D01*
X0072763Y0031467D02*
X0082332Y0031467D01*
X0080125Y0030469D02*
X0080075Y0030469D01*
X0080075Y0029470D02*
X0080125Y0029470D01*
X0075848Y0030469D02*
X0071764Y0030469D01*
X0070766Y0029470D02*
X0075550Y0029470D01*
X0075550Y0028472D02*
X0069767Y0028472D01*
X0085207Y0025764D02*
X0086392Y0024579D01*
X0086500Y0024470D01*
X0086500Y0023000D01*
X0080100Y0023500D02*
X0074250Y0023500D01*
X0073250Y0022500D01*
X0070650Y0022481D02*
X0066526Y0022481D01*
X0067445Y0021482D02*
X0070857Y0021482D01*
X0075643Y0021482D02*
X0076179Y0021482D01*
X0084021Y0021482D02*
X0084142Y0021482D01*
X0070841Y0023479D02*
X0067525Y0023479D01*
X0085470Y0025500D02*
X0086392Y0024579D01*
X0090132Y0024579D02*
X0090132Y0028047D01*
X0090132Y0024579D01*
X0090132Y0024579D01*
X0090132Y0025476D02*
X0090132Y0025476D01*
X0090132Y0026475D02*
X0090132Y0026475D01*
X0090132Y0027473D02*
X0090132Y0027473D01*
X0090132Y0028047D02*
X0088950Y0028047D01*
X0088569Y0027945D01*
X0088227Y0027748D01*
X0088120Y0027641D01*
X0087914Y0027847D01*
X0087007Y0027847D01*
X0087007Y0029088D01*
X0087320Y0029088D01*
X0088081Y0029849D01*
X0088081Y0035200D01*
X0089219Y0035200D01*
X0089218Y0033037D01*
X0092006Y0033037D01*
X0092006Y0032463D01*
X0089219Y0032463D01*
X0089219Y0030190D01*
X0089321Y0029809D01*
X0089518Y0029467D01*
X0089797Y0029187D01*
X0090140Y0028990D01*
X0090521Y0028888D01*
X0092006Y0028888D01*
X0092006Y0032463D01*
X0092581Y0032463D01*
X0092581Y0033037D01*
X0095368Y0033037D01*
X0095368Y0035200D01*
X0102700Y0035200D01*
X0102700Y0029772D01*
X0102166Y0030306D01*
X0098334Y0030306D01*
X0097572Y0029544D01*
X0097572Y0028050D01*
X0094798Y0028050D01*
X0094595Y0027847D01*
X0092349Y0027847D01*
X0092143Y0027641D01*
X0092037Y0027748D01*
X0091695Y0027945D01*
X0091314Y0028047D01*
X0090132Y0028047D01*
X0087007Y0028472D02*
X0097572Y0028472D01*
X0095068Y0029467D02*
X0094789Y0029187D01*
X0094447Y0028990D01*
X0094066Y0028888D01*
X0092581Y0028888D01*
X0092581Y0032463D01*
X0095368Y0032463D01*
X0095368Y0030190D01*
X0095266Y0029809D01*
X0095068Y0029467D01*
X0095070Y0029470D02*
X0097572Y0029470D01*
X0095368Y0030469D02*
X0102700Y0030469D01*
X0102700Y0031467D02*
X0095368Y0031467D01*
X0092581Y0031467D02*
X0092006Y0031467D01*
X0089219Y0031467D02*
X0088081Y0031467D01*
X0088081Y0030469D02*
X0089219Y0030469D01*
X0092006Y0030469D02*
X0092581Y0030469D01*
X0092581Y0029470D02*
X0092006Y0029470D01*
X0089516Y0029470D02*
X0087702Y0029470D01*
X0088081Y0032466D02*
X0092006Y0032466D01*
X0092581Y0032466D02*
X0102700Y0032466D01*
X0102700Y0033464D02*
X0095368Y0033464D01*
X0095368Y0034463D02*
X0102700Y0034463D01*
X0089219Y0034463D02*
X0088081Y0034463D01*
X0088081Y0033464D02*
X0089219Y0033464D01*
X0125500Y0026750D02*
X0125750Y0024000D01*
X0126750Y0023000D01*
X0124750Y0021000D01*
X0125500Y0019500D01*
X0131800Y0019485D02*
X0133588Y0019485D01*
X0133588Y0018487D02*
X0131800Y0018487D01*
X0133588Y0017843D02*
X0134349Y0017082D01*
X0135873Y0017082D01*
X0136154Y0016800D01*
X0131800Y0016800D01*
X0131800Y0035200D01*
X0131954Y0035200D01*
X0131954Y0030099D01*
X0132715Y0029338D01*
X0133769Y0029338D01*
X0133588Y0029157D01*
X0133588Y0024930D01*
X0134349Y0024169D01*
X0140151Y0024169D01*
X0140912Y0024930D01*
X0140912Y0029157D01*
X0140151Y0029918D01*
X0139097Y0029918D01*
X0139278Y0030099D01*
X0139278Y0035200D01*
X0140222Y0035200D01*
X0140222Y0034089D01*
X0140084Y0033756D01*
X0140084Y0032244D01*
X0140222Y0031911D01*
X0140222Y0030099D01*
X0140983Y0029338D01*
X0141502Y0029338D01*
X0141352Y0029079D01*
X0141250Y0028697D01*
X0141250Y0027250D01*
X0146500Y0027250D01*
X0146500Y0026750D01*
X0147000Y0026750D01*
X0147000Y0027250D01*
X0152250Y0027250D01*
X0152250Y0028697D01*
X0152185Y0028941D01*
X0152450Y0028676D01*
X0152450Y0010800D01*
X0152050Y0010800D01*
X0152050Y0014038D01*
X0151730Y0014359D01*
X0151950Y0014579D01*
X0152148Y0014921D01*
X0152250Y0015303D01*
X0152250Y0016750D01*
X0147000Y0016750D01*
X0147000Y0017250D01*
X0146500Y0017250D01*
X0146500Y0020000D01*
X0146500Y0021750D01*
X0147000Y0021750D01*
X0147000Y0022250D01*
X0152250Y0022250D01*
X0152250Y0023697D01*
X0152148Y0024079D01*
X0151950Y0024421D01*
X0151871Y0024500D01*
X0151950Y0024579D01*
X0152148Y0024921D01*
X0152250Y0025303D01*
X0152250Y0026750D01*
X0147000Y0026750D01*
X0147000Y0022250D01*
X0146500Y0022250D01*
X0146500Y0025000D01*
X0146500Y0026750D01*
X0141250Y0026750D01*
X0141250Y0025303D01*
X0141352Y0024921D01*
X0141550Y0024579D01*
X0141629Y0024500D01*
X0141550Y0024421D01*
X0141352Y0024079D01*
X0141250Y0023697D01*
X0141250Y0022250D01*
X0146500Y0022250D01*
X0146500Y0021750D01*
X0141250Y0021750D01*
X0141250Y0020303D01*
X0141352Y0019921D01*
X0141550Y0019579D01*
X0141629Y0019500D01*
X0141550Y0019421D01*
X0141352Y0019079D01*
X0141250Y0018697D01*
X0141250Y0017250D01*
X0146500Y0017250D01*
X0146500Y0016750D01*
X0141296Y0016750D01*
X0140557Y0017488D01*
X0140912Y0017843D01*
X0140912Y0022070D01*
X0140151Y0022831D01*
X0134349Y0022831D01*
X0133588Y0022070D01*
X0133588Y0017843D01*
X0133943Y0017488D02*
X0131800Y0017488D01*
X0137250Y0018250D02*
X0137250Y0019957D01*
X0140912Y0019485D02*
X0141614Y0019485D01*
X0141250Y0018487D02*
X0140912Y0018487D01*
X0137250Y0018250D02*
X0143250Y0012250D01*
X0146500Y0012250D01*
X0146750Y0012000D01*
X0152050Y0012496D02*
X0152450Y0012496D01*
X0152450Y0013494D02*
X0152050Y0013494D01*
X0151864Y0014493D02*
X0152450Y0014493D01*
X0152450Y0015491D02*
X0152250Y0015491D01*
X0152250Y0016490D02*
X0152450Y0016490D01*
X0152250Y0017250D02*
X0152250Y0018697D01*
X0152148Y0019079D01*
X0151950Y0019421D01*
X0151871Y0019500D01*
X0151950Y0019579D01*
X0152148Y0019921D01*
X0152250Y0020303D01*
X0152250Y0021750D01*
X0147000Y0021750D01*
X0147000Y0017250D01*
X0152250Y0017250D01*
X0152250Y0017488D02*
X0152450Y0017488D01*
X0152450Y0018487D02*
X0152250Y0018487D01*
X0152450Y0019485D02*
X0151886Y0019485D01*
X0152250Y0020484D02*
X0152450Y0020484D01*
X0152450Y0021482D02*
X0152250Y0021482D01*
X0152250Y0022481D02*
X0152450Y0022481D01*
X0152450Y0023479D02*
X0152250Y0023479D01*
X0152450Y0024478D02*
X0151894Y0024478D01*
X0152250Y0025476D02*
X0152450Y0025476D01*
X0152450Y0026475D02*
X0152250Y0026475D01*
X0152250Y0027473D02*
X0152450Y0027473D01*
X0152450Y0028472D02*
X0152250Y0028472D01*
X0147000Y0026475D02*
X0146500Y0026475D01*
X0146500Y0025476D02*
X0147000Y0025476D01*
X0147000Y0024478D02*
X0146500Y0024478D01*
X0146500Y0023479D02*
X0147000Y0023479D01*
X0147000Y0022481D02*
X0146500Y0022481D01*
X0146500Y0021482D02*
X0147000Y0021482D01*
X0141250Y0021482D02*
X0140912Y0021482D01*
X0141250Y0022481D02*
X0140502Y0022481D01*
X0141250Y0023479D02*
X0131800Y0023479D01*
X0131800Y0022481D02*
X0133998Y0022481D01*
X0133588Y0021482D02*
X0131800Y0021482D01*
X0131800Y0020484D02*
X0133588Y0020484D01*
X0140912Y0020484D02*
X0141250Y0020484D01*
X0146500Y0020484D02*
X0147000Y0020484D01*
X0147000Y0019485D02*
X0146500Y0019485D01*
X0146500Y0018487D02*
X0147000Y0018487D01*
X0147000Y0017488D02*
X0146500Y0017488D01*
X0141250Y0017488D02*
X0140557Y0017488D01*
X0127750Y0015000D02*
X0126750Y0023000D01*
X0131800Y0024478D02*
X0134040Y0024478D01*
X0133588Y0025476D02*
X0131800Y0025476D01*
X0131800Y0026475D02*
X0133588Y0026475D01*
X0137250Y0027043D02*
X0137793Y0027000D01*
X0137500Y0027000D01*
X0140912Y0027473D02*
X0141250Y0027473D01*
X0141250Y0028472D02*
X0140912Y0028472D01*
X0140851Y0029470D02*
X0140599Y0029470D01*
X0140222Y0030469D02*
X0139278Y0030469D01*
X0139278Y0031467D02*
X0140222Y0031467D01*
X0135250Y0033000D02*
X0134750Y0032000D01*
X0131954Y0032466D02*
X0131800Y0032466D01*
X0135250Y0033000D02*
X0135616Y0033000D01*
X0131954Y0033464D02*
X0131800Y0033464D01*
X0131800Y0034463D02*
X0131954Y0034463D01*
X0139278Y0034463D02*
X0140222Y0034463D01*
X0140084Y0033464D02*
X0139278Y0033464D01*
X0139278Y0032466D02*
X0140084Y0032466D01*
X0131954Y0031467D02*
X0131800Y0031467D01*
X0131800Y0030469D02*
X0131954Y0030469D01*
X0131800Y0029470D02*
X0132583Y0029470D01*
X0131800Y0028472D02*
X0133588Y0028472D01*
X0133588Y0027473D02*
X0131800Y0027473D01*
X0140912Y0026475D02*
X0141250Y0026475D01*
X0141250Y0025476D02*
X0140912Y0025476D01*
X0140460Y0024478D02*
X0141606Y0024478D01*
X0173050Y0027800D02*
X0173050Y0028200D01*
X0179888Y0028200D01*
X0180650Y0028962D01*
X0180650Y0032038D01*
X0179888Y0032800D01*
X0172612Y0032800D01*
X0172362Y0032550D01*
X0168127Y0032550D01*
X0167723Y0032954D01*
X0166767Y0033350D01*
X0165733Y0033350D01*
X0164777Y0032954D01*
X0164586Y0032763D01*
X0162831Y0032763D01*
X0162831Y0033337D01*
X0165618Y0033337D01*
X0165618Y0035200D01*
X0182500Y0035200D01*
X0182500Y0010800D01*
X0173050Y0010800D01*
X0173050Y0013000D01*
X0176250Y0013000D01*
X0179547Y0013000D01*
X0179929Y0013102D01*
X0180271Y0013300D01*
X0180550Y0013579D01*
X0180748Y0013921D01*
X0180850Y0014303D01*
X0180850Y0015500D01*
X0180850Y0016697D01*
X0180748Y0017079D01*
X0180550Y0017421D01*
X0180271Y0017700D01*
X0179929Y0017898D01*
X0179547Y0018000D01*
X0177009Y0018000D01*
X0177491Y0018200D01*
X0179888Y0018200D01*
X0180650Y0018962D01*
X0180650Y0022038D01*
X0179888Y0022800D01*
X0177491Y0022800D01*
X0177009Y0023000D01*
X0177491Y0023200D01*
X0179888Y0023200D01*
X0180650Y0023962D01*
X0180650Y0027038D01*
X0179888Y0027800D01*
X0177491Y0027800D01*
X0176767Y0028100D01*
X0175733Y0028100D01*
X0175009Y0027800D01*
X0173050Y0027800D01*
X0180160Y0028472D02*
X0182500Y0028472D01*
X0182500Y0029470D02*
X0180650Y0029470D01*
X0180650Y0030469D02*
X0182500Y0030469D01*
X0182500Y0031467D02*
X0180650Y0031467D01*
X0176500Y0030750D02*
X0176250Y0030500D01*
X0176500Y0030750D02*
X0166250Y0030750D01*
X0159469Y0032405D02*
X0158331Y0033543D01*
X0158331Y0035200D01*
X0159469Y0035200D01*
X0159468Y0033337D01*
X0162256Y0033337D01*
X0162256Y0032763D01*
X0159469Y0032763D01*
X0159469Y0032405D01*
X0159469Y0032466D02*
X0159408Y0032466D01*
X0155457Y0031957D02*
X0155457Y0033050D01*
X0158410Y0033464D02*
X0159469Y0033464D01*
X0159469Y0034463D02*
X0158331Y0034463D01*
X0165618Y0034463D02*
X0182500Y0034463D01*
X0182500Y0033464D02*
X0165618Y0033464D01*
X0155457Y0031957D02*
X0155000Y0031500D01*
X0180223Y0032466D02*
X0182500Y0032466D01*
X0192250Y0030500D02*
X0197250Y0030500D01*
X0199500Y0030500D01*
X0206000Y0023000D01*
X0216250Y0033250D01*
X0219000Y0033250D01*
X0182500Y0027473D02*
X0180215Y0027473D01*
X0180650Y0026475D02*
X0182500Y0026475D01*
X0182500Y0025476D02*
X0180650Y0025476D01*
X0180650Y0024478D02*
X0182500Y0024478D01*
X0182500Y0023479D02*
X0180168Y0023479D01*
X0180208Y0022481D02*
X0182500Y0022481D01*
X0182500Y0021482D02*
X0180650Y0021482D01*
X0180650Y0020484D02*
X0182500Y0020484D01*
X0182500Y0019485D02*
X0180650Y0019485D01*
X0180175Y0018487D02*
X0182500Y0018487D01*
X0182500Y0017488D02*
X0180483Y0017488D01*
X0180850Y0016490D02*
X0182500Y0016490D01*
X0182500Y0015491D02*
X0180850Y0015491D01*
X0180850Y0015500D02*
X0176250Y0015500D01*
X0180850Y0015500D01*
X0180850Y0014493D02*
X0182500Y0014493D01*
X0182500Y0013494D02*
X0180465Y0013494D01*
X0176250Y0013494D02*
X0176250Y0013494D01*
X0176250Y0013000D02*
X0176250Y0015500D01*
X0176250Y0015500D01*
X0176250Y0015500D01*
X0176250Y0013000D01*
X0173050Y0012496D02*
X0182500Y0012496D01*
X0182500Y0011497D02*
X0173050Y0011497D01*
X0176250Y0014493D02*
X0176250Y0014493D01*
X0176250Y0015491D02*
X0176250Y0015491D01*
X0189500Y0019000D02*
X0193000Y0015500D01*
X0197250Y0015500D01*
X0199750Y0013500D01*
X0231250Y0013500D01*
X0236000Y0018750D01*
X0236000Y0023000D01*
X0226000Y0023000D02*
X0226000Y0017750D01*
X0223750Y0015500D01*
X0204500Y0015500D01*
X0199500Y0020500D01*
X0197250Y0020500D01*
X0197250Y0025500D02*
X0197000Y0025500D01*
X0127750Y0015000D02*
X0127250Y0015000D01*
X0152050Y0011497D02*
X0152450Y0011497D01*
X0097572Y0014493D02*
X0096300Y0014493D01*
X0093872Y0014343D02*
X0093780Y0014250D01*
X0096300Y0015491D02*
X0097572Y0015491D01*
X0084107Y0015491D02*
X0084047Y0015491D01*
X0100250Y0026250D02*
X0103500Y0023000D01*
X0107750Y0023000D01*
X0095543Y0026250D02*
X0093872Y0024579D01*
X0095543Y0026250D02*
X0100250Y0026250D01*
X0028481Y0013494D02*
X0026700Y0013494D01*
X0026700Y0012496D02*
X0029244Y0012496D01*
X0030808Y0011497D02*
X0026268Y0011497D01*
X0022725Y0011497D02*
X0021775Y0011497D01*
X0018232Y0011497D02*
X0015862Y0011497D01*
X0015862Y0012496D02*
X0017800Y0012496D01*
X0017800Y0013494D02*
X0015862Y0013494D01*
X0015684Y0014493D02*
X0017800Y0014493D01*
X0021775Y0013494D02*
X0022725Y0013494D01*
X0022725Y0012496D02*
X0021775Y0012496D01*
X0026700Y0014493D02*
X0028067Y0014493D01*
X0012287Y0011497D02*
X0011713Y0011497D01*
X0008138Y0011497D02*
X0002800Y0011497D01*
D26*
X0127250Y0015000D02*
X0129250Y0013000D01*
X0136000Y0013000D01*
X0162250Y0020000D02*
X0162750Y0019500D01*
X0162250Y0020000D02*
X0162250Y0024250D01*
X0155000Y0031500D01*
X0153500Y0033000D01*
X0148750Y0033000D01*
X0143884Y0033000D01*
D27*
X0248000Y0023000D03*
X0005750Y0023000D03*
D28*
X0136000Y0013000D03*
X0148750Y0033000D03*
M02*
