G75*
%MOIN*%
%OFA0B0*%
%FSLAX25Y25*%
%IPPOS*%
%LPD*%
%AMOC8*
5,1,8,0,0,1.08239X$1,22.5*
%
%ADD10R,0.03150X0.04724*%
%ADD11R,0.02756X0.05512*%
%ADD12R,0.01969X0.03937*%
%ADD13R,0.07500X0.25000*%
%ADD14R,0.08000X0.03000*%
%ADD15R,0.18000X0.18000*%
%ADD16R,0.04724X0.03150*%
%ADD17R,0.06100X0.02100*%
%ADD18R,0.06200X0.02000*%
%ADD19R,0.04724X0.04724*%
D10*
X0085207Y0032750D03*
X0092293Y0032750D03*
X0155457Y0033050D03*
X0162543Y0033050D03*
D11*
X0100250Y0026250D03*
X0100250Y0013258D03*
D12*
X0093872Y0014343D03*
X0086392Y0014343D03*
X0086392Y0024579D03*
X0090132Y0024579D03*
X0093872Y0024579D03*
D13*
X0107750Y0023000D03*
X0126750Y0023000D03*
D14*
X0146750Y0022000D03*
X0146750Y0017000D03*
X0146750Y0012000D03*
X0146750Y0027000D03*
D15*
X0162750Y0019500D03*
D16*
X0012000Y0012207D03*
X0012000Y0019293D03*
X0137250Y0019957D03*
X0137250Y0027043D03*
D17*
X0080100Y0028500D03*
X0080100Y0023500D03*
X0080100Y0018500D03*
X0080100Y0013500D03*
X0050900Y0013500D03*
X0050900Y0018500D03*
X0050900Y0023500D03*
X0050900Y0028500D03*
D18*
X0176250Y0030500D03*
X0197250Y0030500D03*
X0197250Y0025500D03*
X0176250Y0025500D03*
X0176250Y0020500D03*
X0197250Y0020500D03*
X0197250Y0015500D03*
X0176250Y0015500D03*
D19*
X0143884Y0033000D03*
X0135616Y0033000D03*
X0012000Y0032384D03*
X0012000Y0024116D03*
M02*
