G75*
%MOIN*%
%OFA0B0*%
%FSLAX25Y25*%
%IPPOS*%
%LPD*%
%AMOC8*
5,1,8,0,0,1.08239X$1,22.5*
%
%ADD10C,0.00039*%
%ADD11C,0.03962*%
%ADD12C,0.07087*%
%ADD13C,0.09843*%
%ADD14C,0.04921*%
D10*
X0001020Y0001020D02*
X0369130Y0001020D01*
X0369130Y0369130D01*
X0001020Y0369130D01*
X0001020Y0001020D01*
X0004957Y0004957D02*
X0004957Y0064996D01*
X0010862Y0064996D01*
X0010862Y0068933D02*
X0004957Y0068933D01*
X0004957Y0183106D01*
X0010862Y0183106D01*
X0010862Y0187043D02*
X0004957Y0187043D01*
X0004957Y0301217D01*
X0010862Y0301217D01*
X0010862Y0305154D02*
X0004957Y0305154D01*
X0004957Y0365193D01*
X0064996Y0365193D01*
X0064996Y0359287D01*
X0068933Y0359287D02*
X0068933Y0365193D01*
X0183106Y0365193D01*
X0183106Y0359287D01*
X0187043Y0359287D02*
X0187043Y0365193D01*
X0301217Y0365193D01*
X0301217Y0359287D01*
X0305154Y0359287D02*
X0305154Y0365193D01*
X0365193Y0365193D01*
X0365193Y0305154D01*
X0359287Y0305154D01*
X0359287Y0301217D02*
X0365193Y0301217D01*
X0365193Y0187043D01*
X0359287Y0187043D01*
X0359287Y0183106D02*
X0365193Y0183106D01*
X0365193Y0068933D01*
X0359287Y0068933D01*
X0359287Y0064996D02*
X0365193Y0064996D01*
X0365193Y0004957D01*
X0305154Y0004957D01*
X0305154Y0010862D01*
X0301217Y0010862D02*
X0301217Y0004957D01*
X0187043Y0004957D01*
X0187043Y0010862D01*
X0183106Y0010862D02*
X0183106Y0004957D01*
X0068933Y0004957D01*
X0068933Y0010862D01*
X0064996Y0010862D02*
X0064996Y0004957D01*
X0004957Y0004957D01*
X0025134Y0055154D02*
X0025134Y0078776D01*
X0025133Y0078776D02*
X0025135Y0078874D01*
X0025141Y0078972D01*
X0025150Y0079069D01*
X0025164Y0079166D01*
X0025181Y0079262D01*
X0025203Y0079358D01*
X0025228Y0079452D01*
X0025256Y0079546D01*
X0025289Y0079638D01*
X0025325Y0079729D01*
X0025365Y0079819D01*
X0025408Y0079906D01*
X0025455Y0079992D01*
X0025505Y0080076D01*
X0025558Y0080158D01*
X0025615Y0080238D01*
X0025674Y0080316D01*
X0025737Y0080391D01*
X0025803Y0080464D01*
X0025871Y0080533D01*
X0025942Y0080601D01*
X0026016Y0080665D01*
X0026093Y0080726D01*
X0026171Y0080784D01*
X0026252Y0080839D01*
X0026335Y0080891D01*
X0026420Y0080939D01*
X0026507Y0080984D01*
X0026596Y0081026D01*
X0026686Y0081063D01*
X0026778Y0081098D01*
X0026871Y0081128D01*
X0026965Y0081155D01*
X0027060Y0081178D01*
X0027156Y0081198D01*
X0027253Y0081213D01*
X0027350Y0081225D01*
X0027447Y0081233D01*
X0027545Y0081237D01*
X0027643Y0081237D01*
X0027741Y0081233D01*
X0027838Y0081225D01*
X0027935Y0081213D01*
X0028032Y0081198D01*
X0028128Y0081178D01*
X0028223Y0081155D01*
X0028317Y0081128D01*
X0028410Y0081098D01*
X0028502Y0081063D01*
X0028592Y0081026D01*
X0028681Y0080984D01*
X0028768Y0080939D01*
X0028853Y0080891D01*
X0028936Y0080839D01*
X0029017Y0080784D01*
X0029095Y0080726D01*
X0029172Y0080665D01*
X0029246Y0080601D01*
X0029317Y0080533D01*
X0029385Y0080464D01*
X0029451Y0080391D01*
X0029514Y0080316D01*
X0029573Y0080238D01*
X0029630Y0080158D01*
X0029683Y0080076D01*
X0029733Y0079992D01*
X0029780Y0079906D01*
X0029823Y0079819D01*
X0029863Y0079729D01*
X0029899Y0079638D01*
X0029932Y0079546D01*
X0029960Y0079452D01*
X0029985Y0079358D01*
X0030007Y0079262D01*
X0030024Y0079166D01*
X0030038Y0079069D01*
X0030047Y0078972D01*
X0030053Y0078874D01*
X0030055Y0078776D01*
X0030055Y0055154D01*
X0030053Y0055056D01*
X0030047Y0054958D01*
X0030038Y0054861D01*
X0030024Y0054764D01*
X0030007Y0054668D01*
X0029985Y0054572D01*
X0029960Y0054478D01*
X0029932Y0054384D01*
X0029899Y0054292D01*
X0029863Y0054201D01*
X0029823Y0054111D01*
X0029780Y0054024D01*
X0029733Y0053938D01*
X0029683Y0053854D01*
X0029630Y0053772D01*
X0029573Y0053692D01*
X0029514Y0053614D01*
X0029451Y0053539D01*
X0029385Y0053466D01*
X0029317Y0053397D01*
X0029246Y0053329D01*
X0029172Y0053265D01*
X0029095Y0053204D01*
X0029017Y0053146D01*
X0028936Y0053091D01*
X0028853Y0053039D01*
X0028768Y0052991D01*
X0028681Y0052946D01*
X0028592Y0052904D01*
X0028502Y0052867D01*
X0028410Y0052832D01*
X0028317Y0052802D01*
X0028223Y0052775D01*
X0028128Y0052752D01*
X0028032Y0052732D01*
X0027935Y0052717D01*
X0027838Y0052705D01*
X0027741Y0052697D01*
X0027643Y0052693D01*
X0027545Y0052693D01*
X0027447Y0052697D01*
X0027350Y0052705D01*
X0027253Y0052717D01*
X0027156Y0052732D01*
X0027060Y0052752D01*
X0026965Y0052775D01*
X0026871Y0052802D01*
X0026778Y0052832D01*
X0026686Y0052867D01*
X0026596Y0052904D01*
X0026507Y0052946D01*
X0026420Y0052991D01*
X0026335Y0053039D01*
X0026252Y0053091D01*
X0026171Y0053146D01*
X0026093Y0053204D01*
X0026016Y0053265D01*
X0025942Y0053329D01*
X0025871Y0053397D01*
X0025803Y0053466D01*
X0025737Y0053539D01*
X0025674Y0053614D01*
X0025615Y0053692D01*
X0025558Y0053772D01*
X0025505Y0053854D01*
X0025455Y0053938D01*
X0025408Y0054024D01*
X0025365Y0054111D01*
X0025325Y0054201D01*
X0025289Y0054292D01*
X0025256Y0054384D01*
X0025228Y0054478D01*
X0025203Y0054572D01*
X0025181Y0054668D01*
X0025164Y0054764D01*
X0025150Y0054861D01*
X0025141Y0054958D01*
X0025135Y0055056D01*
X0025133Y0055154D01*
X0027594Y0055154D02*
X0027594Y0078776D01*
X0068934Y0010863D02*
X0070291Y0010927D01*
X0071646Y0011023D01*
X0072998Y0011153D01*
X0074347Y0011316D01*
X0075692Y0011511D01*
X0077032Y0011738D01*
X0078365Y0011998D01*
X0079692Y0012290D01*
X0081012Y0012614D01*
X0082323Y0012970D01*
X0083625Y0013357D01*
X0084918Y0013776D01*
X0086200Y0014226D01*
X0087471Y0014707D01*
X0088729Y0015219D01*
X0089975Y0015761D01*
X0091208Y0016332D01*
X0092426Y0016934D01*
X0093629Y0017565D01*
X0094817Y0018225D01*
X0095989Y0018913D01*
X0097143Y0019629D01*
X0098280Y0020374D01*
X0099398Y0021145D01*
X0100498Y0021944D01*
X0101577Y0022768D01*
X0102637Y0023619D01*
X0103675Y0024495D01*
X0104693Y0025396D01*
X0105688Y0026321D01*
X0106660Y0027270D01*
X0107609Y0028242D01*
X0108534Y0029237D01*
X0109435Y0030255D01*
X0110311Y0031293D01*
X0111162Y0032353D01*
X0111986Y0033432D01*
X0112785Y0034532D01*
X0113556Y0035650D01*
X0114301Y0036787D01*
X0115017Y0037941D01*
X0115705Y0039113D01*
X0116365Y0040301D01*
X0116996Y0041504D01*
X0117598Y0042722D01*
X0118169Y0043955D01*
X0118711Y0045201D01*
X0119223Y0046459D01*
X0119704Y0047730D01*
X0120154Y0049012D01*
X0120573Y0050305D01*
X0120960Y0051607D01*
X0121316Y0052918D01*
X0121640Y0054238D01*
X0121932Y0055565D01*
X0122192Y0056898D01*
X0122419Y0058238D01*
X0122614Y0059583D01*
X0122777Y0060932D01*
X0122907Y0062284D01*
X0123003Y0063639D01*
X0123067Y0064996D01*
X0128972Y0064996D01*
X0128972Y0068933D02*
X0123067Y0068933D01*
X0108795Y0078776D02*
X0108795Y0055154D01*
X0108796Y0055154D02*
X0108794Y0055056D01*
X0108788Y0054958D01*
X0108779Y0054861D01*
X0108765Y0054764D01*
X0108748Y0054668D01*
X0108726Y0054572D01*
X0108701Y0054478D01*
X0108673Y0054384D01*
X0108640Y0054292D01*
X0108604Y0054201D01*
X0108564Y0054111D01*
X0108521Y0054024D01*
X0108474Y0053938D01*
X0108424Y0053854D01*
X0108371Y0053772D01*
X0108314Y0053692D01*
X0108255Y0053614D01*
X0108192Y0053539D01*
X0108126Y0053466D01*
X0108058Y0053397D01*
X0107987Y0053329D01*
X0107913Y0053265D01*
X0107836Y0053204D01*
X0107758Y0053146D01*
X0107677Y0053091D01*
X0107594Y0053039D01*
X0107509Y0052991D01*
X0107422Y0052946D01*
X0107333Y0052904D01*
X0107243Y0052867D01*
X0107151Y0052832D01*
X0107058Y0052802D01*
X0106964Y0052775D01*
X0106869Y0052752D01*
X0106773Y0052732D01*
X0106676Y0052717D01*
X0106579Y0052705D01*
X0106482Y0052697D01*
X0106384Y0052693D01*
X0106286Y0052693D01*
X0106188Y0052697D01*
X0106091Y0052705D01*
X0105994Y0052717D01*
X0105897Y0052732D01*
X0105801Y0052752D01*
X0105706Y0052775D01*
X0105612Y0052802D01*
X0105519Y0052832D01*
X0105427Y0052867D01*
X0105337Y0052904D01*
X0105248Y0052946D01*
X0105161Y0052991D01*
X0105076Y0053039D01*
X0104993Y0053091D01*
X0104912Y0053146D01*
X0104834Y0053204D01*
X0104757Y0053265D01*
X0104683Y0053329D01*
X0104612Y0053397D01*
X0104544Y0053466D01*
X0104478Y0053539D01*
X0104415Y0053614D01*
X0104356Y0053692D01*
X0104299Y0053772D01*
X0104246Y0053854D01*
X0104196Y0053938D01*
X0104149Y0054024D01*
X0104106Y0054111D01*
X0104066Y0054201D01*
X0104030Y0054292D01*
X0103997Y0054384D01*
X0103969Y0054478D01*
X0103944Y0054572D01*
X0103922Y0054668D01*
X0103905Y0054764D01*
X0103891Y0054861D01*
X0103882Y0054958D01*
X0103876Y0055056D01*
X0103874Y0055154D01*
X0103874Y0078776D01*
X0103876Y0078874D01*
X0103882Y0078972D01*
X0103891Y0079069D01*
X0103905Y0079166D01*
X0103922Y0079262D01*
X0103944Y0079358D01*
X0103969Y0079452D01*
X0103997Y0079546D01*
X0104030Y0079638D01*
X0104066Y0079729D01*
X0104106Y0079819D01*
X0104149Y0079906D01*
X0104196Y0079992D01*
X0104246Y0080076D01*
X0104299Y0080158D01*
X0104356Y0080238D01*
X0104415Y0080316D01*
X0104478Y0080391D01*
X0104544Y0080464D01*
X0104612Y0080533D01*
X0104683Y0080601D01*
X0104757Y0080665D01*
X0104834Y0080726D01*
X0104912Y0080784D01*
X0104993Y0080839D01*
X0105076Y0080891D01*
X0105161Y0080939D01*
X0105248Y0080984D01*
X0105337Y0081026D01*
X0105427Y0081063D01*
X0105519Y0081098D01*
X0105612Y0081128D01*
X0105706Y0081155D01*
X0105801Y0081178D01*
X0105897Y0081198D01*
X0105994Y0081213D01*
X0106091Y0081225D01*
X0106188Y0081233D01*
X0106286Y0081237D01*
X0106384Y0081237D01*
X0106482Y0081233D01*
X0106579Y0081225D01*
X0106676Y0081213D01*
X0106773Y0081198D01*
X0106869Y0081178D01*
X0106964Y0081155D01*
X0107058Y0081128D01*
X0107151Y0081098D01*
X0107243Y0081063D01*
X0107333Y0081026D01*
X0107422Y0080984D01*
X0107509Y0080939D01*
X0107594Y0080891D01*
X0107677Y0080839D01*
X0107758Y0080784D01*
X0107836Y0080726D01*
X0107913Y0080665D01*
X0107987Y0080601D01*
X0108058Y0080533D01*
X0108126Y0080464D01*
X0108192Y0080391D01*
X0108255Y0080316D01*
X0108314Y0080238D01*
X0108371Y0080158D01*
X0108424Y0080076D01*
X0108474Y0079992D01*
X0108521Y0079906D01*
X0108564Y0079819D01*
X0108604Y0079729D01*
X0108640Y0079638D01*
X0108673Y0079546D01*
X0108701Y0079452D01*
X0108726Y0079358D01*
X0108748Y0079262D01*
X0108765Y0079166D01*
X0108779Y0079069D01*
X0108788Y0078972D01*
X0108794Y0078874D01*
X0108796Y0078776D01*
X0106335Y0078776D02*
X0106335Y0055154D01*
X0143244Y0055154D02*
X0143244Y0078776D01*
X0143246Y0078874D01*
X0143252Y0078972D01*
X0143261Y0079069D01*
X0143275Y0079166D01*
X0143292Y0079262D01*
X0143314Y0079358D01*
X0143339Y0079452D01*
X0143367Y0079546D01*
X0143400Y0079638D01*
X0143436Y0079729D01*
X0143476Y0079819D01*
X0143519Y0079906D01*
X0143566Y0079992D01*
X0143616Y0080076D01*
X0143669Y0080158D01*
X0143726Y0080238D01*
X0143785Y0080316D01*
X0143848Y0080391D01*
X0143914Y0080464D01*
X0143982Y0080533D01*
X0144053Y0080601D01*
X0144127Y0080665D01*
X0144204Y0080726D01*
X0144282Y0080784D01*
X0144363Y0080839D01*
X0144446Y0080891D01*
X0144531Y0080939D01*
X0144618Y0080984D01*
X0144707Y0081026D01*
X0144797Y0081063D01*
X0144889Y0081098D01*
X0144982Y0081128D01*
X0145076Y0081155D01*
X0145171Y0081178D01*
X0145267Y0081198D01*
X0145364Y0081213D01*
X0145461Y0081225D01*
X0145558Y0081233D01*
X0145656Y0081237D01*
X0145754Y0081237D01*
X0145852Y0081233D01*
X0145949Y0081225D01*
X0146046Y0081213D01*
X0146143Y0081198D01*
X0146239Y0081178D01*
X0146334Y0081155D01*
X0146428Y0081128D01*
X0146521Y0081098D01*
X0146613Y0081063D01*
X0146703Y0081026D01*
X0146792Y0080984D01*
X0146879Y0080939D01*
X0146964Y0080891D01*
X0147047Y0080839D01*
X0147128Y0080784D01*
X0147206Y0080726D01*
X0147283Y0080665D01*
X0147357Y0080601D01*
X0147428Y0080533D01*
X0147496Y0080464D01*
X0147562Y0080391D01*
X0147625Y0080316D01*
X0147684Y0080238D01*
X0147741Y0080158D01*
X0147794Y0080076D01*
X0147844Y0079992D01*
X0147891Y0079906D01*
X0147934Y0079819D01*
X0147974Y0079729D01*
X0148010Y0079638D01*
X0148043Y0079546D01*
X0148071Y0079452D01*
X0148096Y0079358D01*
X0148118Y0079262D01*
X0148135Y0079166D01*
X0148149Y0079069D01*
X0148158Y0078972D01*
X0148164Y0078874D01*
X0148166Y0078776D01*
X0148165Y0078776D02*
X0148165Y0055154D01*
X0148166Y0055154D02*
X0148164Y0055056D01*
X0148158Y0054958D01*
X0148149Y0054861D01*
X0148135Y0054764D01*
X0148118Y0054668D01*
X0148096Y0054572D01*
X0148071Y0054478D01*
X0148043Y0054384D01*
X0148010Y0054292D01*
X0147974Y0054201D01*
X0147934Y0054111D01*
X0147891Y0054024D01*
X0147844Y0053938D01*
X0147794Y0053854D01*
X0147741Y0053772D01*
X0147684Y0053692D01*
X0147625Y0053614D01*
X0147562Y0053539D01*
X0147496Y0053466D01*
X0147428Y0053397D01*
X0147357Y0053329D01*
X0147283Y0053265D01*
X0147206Y0053204D01*
X0147128Y0053146D01*
X0147047Y0053091D01*
X0146964Y0053039D01*
X0146879Y0052991D01*
X0146792Y0052946D01*
X0146703Y0052904D01*
X0146613Y0052867D01*
X0146521Y0052832D01*
X0146428Y0052802D01*
X0146334Y0052775D01*
X0146239Y0052752D01*
X0146143Y0052732D01*
X0146046Y0052717D01*
X0145949Y0052705D01*
X0145852Y0052697D01*
X0145754Y0052693D01*
X0145656Y0052693D01*
X0145558Y0052697D01*
X0145461Y0052705D01*
X0145364Y0052717D01*
X0145267Y0052732D01*
X0145171Y0052752D01*
X0145076Y0052775D01*
X0144982Y0052802D01*
X0144889Y0052832D01*
X0144797Y0052867D01*
X0144707Y0052904D01*
X0144618Y0052946D01*
X0144531Y0052991D01*
X0144446Y0053039D01*
X0144363Y0053091D01*
X0144282Y0053146D01*
X0144204Y0053204D01*
X0144127Y0053265D01*
X0144053Y0053329D01*
X0143982Y0053397D01*
X0143914Y0053466D01*
X0143848Y0053539D01*
X0143785Y0053614D01*
X0143726Y0053692D01*
X0143669Y0053772D01*
X0143616Y0053854D01*
X0143566Y0053938D01*
X0143519Y0054024D01*
X0143476Y0054111D01*
X0143436Y0054201D01*
X0143400Y0054292D01*
X0143367Y0054384D01*
X0143339Y0054478D01*
X0143314Y0054572D01*
X0143292Y0054668D01*
X0143275Y0054764D01*
X0143261Y0054861D01*
X0143252Y0054958D01*
X0143246Y0055056D01*
X0143244Y0055154D01*
X0145705Y0055154D02*
X0145705Y0078776D01*
X0187044Y0010863D02*
X0188401Y0010927D01*
X0189756Y0011023D01*
X0191108Y0011153D01*
X0192457Y0011316D01*
X0193802Y0011511D01*
X0195142Y0011738D01*
X0196475Y0011998D01*
X0197802Y0012290D01*
X0199122Y0012614D01*
X0200433Y0012970D01*
X0201735Y0013357D01*
X0203028Y0013776D01*
X0204310Y0014226D01*
X0205581Y0014707D01*
X0206839Y0015219D01*
X0208085Y0015761D01*
X0209318Y0016332D01*
X0210536Y0016934D01*
X0211739Y0017565D01*
X0212927Y0018225D01*
X0214099Y0018913D01*
X0215253Y0019629D01*
X0216390Y0020374D01*
X0217508Y0021145D01*
X0218608Y0021944D01*
X0219687Y0022768D01*
X0220747Y0023619D01*
X0221785Y0024495D01*
X0222803Y0025396D01*
X0223798Y0026321D01*
X0224770Y0027270D01*
X0225719Y0028242D01*
X0226644Y0029237D01*
X0227545Y0030255D01*
X0228421Y0031293D01*
X0229272Y0032353D01*
X0230096Y0033432D01*
X0230895Y0034532D01*
X0231666Y0035650D01*
X0232411Y0036787D01*
X0233127Y0037941D01*
X0233815Y0039113D01*
X0234475Y0040301D01*
X0235106Y0041504D01*
X0235708Y0042722D01*
X0236279Y0043955D01*
X0236821Y0045201D01*
X0237333Y0046459D01*
X0237814Y0047730D01*
X0238264Y0049012D01*
X0238683Y0050305D01*
X0239070Y0051607D01*
X0239426Y0052918D01*
X0239750Y0054238D01*
X0240042Y0055565D01*
X0240302Y0056898D01*
X0240529Y0058238D01*
X0240724Y0059583D01*
X0240887Y0060932D01*
X0241017Y0062284D01*
X0241113Y0063639D01*
X0241177Y0064996D01*
X0247083Y0064996D01*
X0247083Y0068933D02*
X0241177Y0068933D01*
X0226906Y0078776D02*
X0226906Y0055154D01*
X0226904Y0055056D01*
X0226898Y0054958D01*
X0226889Y0054861D01*
X0226875Y0054764D01*
X0226858Y0054668D01*
X0226836Y0054572D01*
X0226811Y0054478D01*
X0226783Y0054384D01*
X0226750Y0054292D01*
X0226714Y0054201D01*
X0226674Y0054111D01*
X0226631Y0054024D01*
X0226584Y0053938D01*
X0226534Y0053854D01*
X0226481Y0053772D01*
X0226424Y0053692D01*
X0226365Y0053614D01*
X0226302Y0053539D01*
X0226236Y0053466D01*
X0226168Y0053397D01*
X0226097Y0053329D01*
X0226023Y0053265D01*
X0225946Y0053204D01*
X0225868Y0053146D01*
X0225787Y0053091D01*
X0225704Y0053039D01*
X0225619Y0052991D01*
X0225532Y0052946D01*
X0225443Y0052904D01*
X0225353Y0052867D01*
X0225261Y0052832D01*
X0225168Y0052802D01*
X0225074Y0052775D01*
X0224979Y0052752D01*
X0224883Y0052732D01*
X0224786Y0052717D01*
X0224689Y0052705D01*
X0224592Y0052697D01*
X0224494Y0052693D01*
X0224396Y0052693D01*
X0224298Y0052697D01*
X0224201Y0052705D01*
X0224104Y0052717D01*
X0224007Y0052732D01*
X0223911Y0052752D01*
X0223816Y0052775D01*
X0223722Y0052802D01*
X0223629Y0052832D01*
X0223537Y0052867D01*
X0223447Y0052904D01*
X0223358Y0052946D01*
X0223271Y0052991D01*
X0223186Y0053039D01*
X0223103Y0053091D01*
X0223022Y0053146D01*
X0222944Y0053204D01*
X0222867Y0053265D01*
X0222793Y0053329D01*
X0222722Y0053397D01*
X0222654Y0053466D01*
X0222588Y0053539D01*
X0222525Y0053614D01*
X0222466Y0053692D01*
X0222409Y0053772D01*
X0222356Y0053854D01*
X0222306Y0053938D01*
X0222259Y0054024D01*
X0222216Y0054111D01*
X0222176Y0054201D01*
X0222140Y0054292D01*
X0222107Y0054384D01*
X0222079Y0054478D01*
X0222054Y0054572D01*
X0222032Y0054668D01*
X0222015Y0054764D01*
X0222001Y0054861D01*
X0221992Y0054958D01*
X0221986Y0055056D01*
X0221984Y0055154D01*
X0221984Y0078776D01*
X0221986Y0078874D01*
X0221992Y0078972D01*
X0222001Y0079069D01*
X0222015Y0079166D01*
X0222032Y0079262D01*
X0222054Y0079358D01*
X0222079Y0079452D01*
X0222107Y0079546D01*
X0222140Y0079638D01*
X0222176Y0079729D01*
X0222216Y0079819D01*
X0222259Y0079906D01*
X0222306Y0079992D01*
X0222356Y0080076D01*
X0222409Y0080158D01*
X0222466Y0080238D01*
X0222525Y0080316D01*
X0222588Y0080391D01*
X0222654Y0080464D01*
X0222722Y0080533D01*
X0222793Y0080601D01*
X0222867Y0080665D01*
X0222944Y0080726D01*
X0223022Y0080784D01*
X0223103Y0080839D01*
X0223186Y0080891D01*
X0223271Y0080939D01*
X0223358Y0080984D01*
X0223447Y0081026D01*
X0223537Y0081063D01*
X0223629Y0081098D01*
X0223722Y0081128D01*
X0223816Y0081155D01*
X0223911Y0081178D01*
X0224007Y0081198D01*
X0224104Y0081213D01*
X0224201Y0081225D01*
X0224298Y0081233D01*
X0224396Y0081237D01*
X0224494Y0081237D01*
X0224592Y0081233D01*
X0224689Y0081225D01*
X0224786Y0081213D01*
X0224883Y0081198D01*
X0224979Y0081178D01*
X0225074Y0081155D01*
X0225168Y0081128D01*
X0225261Y0081098D01*
X0225353Y0081063D01*
X0225443Y0081026D01*
X0225532Y0080984D01*
X0225619Y0080939D01*
X0225704Y0080891D01*
X0225787Y0080839D01*
X0225868Y0080784D01*
X0225946Y0080726D01*
X0226023Y0080665D01*
X0226097Y0080601D01*
X0226168Y0080533D01*
X0226236Y0080464D01*
X0226302Y0080391D01*
X0226365Y0080316D01*
X0226424Y0080238D01*
X0226481Y0080158D01*
X0226534Y0080076D01*
X0226584Y0079992D01*
X0226631Y0079906D01*
X0226674Y0079819D01*
X0226714Y0079729D01*
X0226750Y0079638D01*
X0226783Y0079546D01*
X0226811Y0079452D01*
X0226836Y0079358D01*
X0226858Y0079262D01*
X0226875Y0079166D01*
X0226889Y0079069D01*
X0226898Y0078972D01*
X0226904Y0078874D01*
X0226906Y0078776D01*
X0224445Y0078776D02*
X0224445Y0055154D01*
X0261354Y0055154D02*
X0261354Y0078776D01*
X0261356Y0078874D01*
X0261362Y0078972D01*
X0261371Y0079069D01*
X0261385Y0079166D01*
X0261402Y0079262D01*
X0261424Y0079358D01*
X0261449Y0079452D01*
X0261477Y0079546D01*
X0261510Y0079638D01*
X0261546Y0079729D01*
X0261586Y0079819D01*
X0261629Y0079906D01*
X0261676Y0079992D01*
X0261726Y0080076D01*
X0261779Y0080158D01*
X0261836Y0080238D01*
X0261895Y0080316D01*
X0261958Y0080391D01*
X0262024Y0080464D01*
X0262092Y0080533D01*
X0262163Y0080601D01*
X0262237Y0080665D01*
X0262314Y0080726D01*
X0262392Y0080784D01*
X0262473Y0080839D01*
X0262556Y0080891D01*
X0262641Y0080939D01*
X0262728Y0080984D01*
X0262817Y0081026D01*
X0262907Y0081063D01*
X0262999Y0081098D01*
X0263092Y0081128D01*
X0263186Y0081155D01*
X0263281Y0081178D01*
X0263377Y0081198D01*
X0263474Y0081213D01*
X0263571Y0081225D01*
X0263668Y0081233D01*
X0263766Y0081237D01*
X0263864Y0081237D01*
X0263962Y0081233D01*
X0264059Y0081225D01*
X0264156Y0081213D01*
X0264253Y0081198D01*
X0264349Y0081178D01*
X0264444Y0081155D01*
X0264538Y0081128D01*
X0264631Y0081098D01*
X0264723Y0081063D01*
X0264813Y0081026D01*
X0264902Y0080984D01*
X0264989Y0080939D01*
X0265074Y0080891D01*
X0265157Y0080839D01*
X0265238Y0080784D01*
X0265316Y0080726D01*
X0265393Y0080665D01*
X0265467Y0080601D01*
X0265538Y0080533D01*
X0265606Y0080464D01*
X0265672Y0080391D01*
X0265735Y0080316D01*
X0265794Y0080238D01*
X0265851Y0080158D01*
X0265904Y0080076D01*
X0265954Y0079992D01*
X0266001Y0079906D01*
X0266044Y0079819D01*
X0266084Y0079729D01*
X0266120Y0079638D01*
X0266153Y0079546D01*
X0266181Y0079452D01*
X0266206Y0079358D01*
X0266228Y0079262D01*
X0266245Y0079166D01*
X0266259Y0079069D01*
X0266268Y0078972D01*
X0266274Y0078874D01*
X0266276Y0078776D01*
X0266276Y0055154D01*
X0266274Y0055056D01*
X0266268Y0054958D01*
X0266259Y0054861D01*
X0266245Y0054764D01*
X0266228Y0054668D01*
X0266206Y0054572D01*
X0266181Y0054478D01*
X0266153Y0054384D01*
X0266120Y0054292D01*
X0266084Y0054201D01*
X0266044Y0054111D01*
X0266001Y0054024D01*
X0265954Y0053938D01*
X0265904Y0053854D01*
X0265851Y0053772D01*
X0265794Y0053692D01*
X0265735Y0053614D01*
X0265672Y0053539D01*
X0265606Y0053466D01*
X0265538Y0053397D01*
X0265467Y0053329D01*
X0265393Y0053265D01*
X0265316Y0053204D01*
X0265238Y0053146D01*
X0265157Y0053091D01*
X0265074Y0053039D01*
X0264989Y0052991D01*
X0264902Y0052946D01*
X0264813Y0052904D01*
X0264723Y0052867D01*
X0264631Y0052832D01*
X0264538Y0052802D01*
X0264444Y0052775D01*
X0264349Y0052752D01*
X0264253Y0052732D01*
X0264156Y0052717D01*
X0264059Y0052705D01*
X0263962Y0052697D01*
X0263864Y0052693D01*
X0263766Y0052693D01*
X0263668Y0052697D01*
X0263571Y0052705D01*
X0263474Y0052717D01*
X0263377Y0052732D01*
X0263281Y0052752D01*
X0263186Y0052775D01*
X0263092Y0052802D01*
X0262999Y0052832D01*
X0262907Y0052867D01*
X0262817Y0052904D01*
X0262728Y0052946D01*
X0262641Y0052991D01*
X0262556Y0053039D01*
X0262473Y0053091D01*
X0262392Y0053146D01*
X0262314Y0053204D01*
X0262237Y0053265D01*
X0262163Y0053329D01*
X0262092Y0053397D01*
X0262024Y0053466D01*
X0261958Y0053539D01*
X0261895Y0053614D01*
X0261836Y0053692D01*
X0261779Y0053772D01*
X0261726Y0053854D01*
X0261676Y0053938D01*
X0261629Y0054024D01*
X0261586Y0054111D01*
X0261546Y0054201D01*
X0261510Y0054292D01*
X0261477Y0054384D01*
X0261449Y0054478D01*
X0261424Y0054572D01*
X0261402Y0054668D01*
X0261385Y0054764D01*
X0261371Y0054861D01*
X0261362Y0054958D01*
X0261356Y0055056D01*
X0261354Y0055154D01*
X0263815Y0055154D02*
X0263815Y0078776D01*
X0305154Y0010863D02*
X0306511Y0010927D01*
X0307866Y0011023D01*
X0309218Y0011153D01*
X0310567Y0011316D01*
X0311912Y0011511D01*
X0313252Y0011738D01*
X0314585Y0011998D01*
X0315912Y0012290D01*
X0317232Y0012614D01*
X0318543Y0012970D01*
X0319845Y0013357D01*
X0321138Y0013776D01*
X0322420Y0014226D01*
X0323691Y0014707D01*
X0324949Y0015219D01*
X0326195Y0015761D01*
X0327428Y0016332D01*
X0328646Y0016934D01*
X0329849Y0017565D01*
X0331037Y0018225D01*
X0332209Y0018913D01*
X0333363Y0019629D01*
X0334500Y0020374D01*
X0335618Y0021145D01*
X0336718Y0021944D01*
X0337797Y0022768D01*
X0338857Y0023619D01*
X0339895Y0024495D01*
X0340913Y0025396D01*
X0341908Y0026321D01*
X0342880Y0027270D01*
X0343829Y0028242D01*
X0344754Y0029237D01*
X0345655Y0030255D01*
X0346531Y0031293D01*
X0347382Y0032353D01*
X0348206Y0033432D01*
X0349005Y0034532D01*
X0349776Y0035650D01*
X0350521Y0036787D01*
X0351237Y0037941D01*
X0351925Y0039113D01*
X0352585Y0040301D01*
X0353216Y0041504D01*
X0353818Y0042722D01*
X0354389Y0043955D01*
X0354931Y0045201D01*
X0355443Y0046459D01*
X0355924Y0047730D01*
X0356374Y0049012D01*
X0356793Y0050305D01*
X0357180Y0051607D01*
X0357536Y0052918D01*
X0357860Y0054238D01*
X0358152Y0055565D01*
X0358412Y0056898D01*
X0358639Y0058238D01*
X0358834Y0059583D01*
X0358997Y0060932D01*
X0359127Y0062284D01*
X0359223Y0063639D01*
X0359287Y0064996D01*
X0345016Y0055154D02*
X0345016Y0078776D01*
X0345014Y0078874D01*
X0345008Y0078972D01*
X0344999Y0079069D01*
X0344985Y0079166D01*
X0344968Y0079262D01*
X0344946Y0079358D01*
X0344921Y0079452D01*
X0344893Y0079546D01*
X0344860Y0079638D01*
X0344824Y0079729D01*
X0344784Y0079819D01*
X0344741Y0079906D01*
X0344694Y0079992D01*
X0344644Y0080076D01*
X0344591Y0080158D01*
X0344534Y0080238D01*
X0344475Y0080316D01*
X0344412Y0080391D01*
X0344346Y0080464D01*
X0344278Y0080533D01*
X0344207Y0080601D01*
X0344133Y0080665D01*
X0344056Y0080726D01*
X0343978Y0080784D01*
X0343897Y0080839D01*
X0343814Y0080891D01*
X0343729Y0080939D01*
X0343642Y0080984D01*
X0343553Y0081026D01*
X0343463Y0081063D01*
X0343371Y0081098D01*
X0343278Y0081128D01*
X0343184Y0081155D01*
X0343089Y0081178D01*
X0342993Y0081198D01*
X0342896Y0081213D01*
X0342799Y0081225D01*
X0342702Y0081233D01*
X0342604Y0081237D01*
X0342506Y0081237D01*
X0342408Y0081233D01*
X0342311Y0081225D01*
X0342214Y0081213D01*
X0342117Y0081198D01*
X0342021Y0081178D01*
X0341926Y0081155D01*
X0341832Y0081128D01*
X0341739Y0081098D01*
X0341647Y0081063D01*
X0341557Y0081026D01*
X0341468Y0080984D01*
X0341381Y0080939D01*
X0341296Y0080891D01*
X0341213Y0080839D01*
X0341132Y0080784D01*
X0341054Y0080726D01*
X0340977Y0080665D01*
X0340903Y0080601D01*
X0340832Y0080533D01*
X0340764Y0080464D01*
X0340698Y0080391D01*
X0340635Y0080316D01*
X0340576Y0080238D01*
X0340519Y0080158D01*
X0340466Y0080076D01*
X0340416Y0079992D01*
X0340369Y0079906D01*
X0340326Y0079819D01*
X0340286Y0079729D01*
X0340250Y0079638D01*
X0340217Y0079546D01*
X0340189Y0079452D01*
X0340164Y0079358D01*
X0340142Y0079262D01*
X0340125Y0079166D01*
X0340111Y0079069D01*
X0340102Y0078972D01*
X0340096Y0078874D01*
X0340094Y0078776D01*
X0340094Y0055154D01*
X0340096Y0055056D01*
X0340102Y0054958D01*
X0340111Y0054861D01*
X0340125Y0054764D01*
X0340142Y0054668D01*
X0340164Y0054572D01*
X0340189Y0054478D01*
X0340217Y0054384D01*
X0340250Y0054292D01*
X0340286Y0054201D01*
X0340326Y0054111D01*
X0340369Y0054024D01*
X0340416Y0053938D01*
X0340466Y0053854D01*
X0340519Y0053772D01*
X0340576Y0053692D01*
X0340635Y0053614D01*
X0340698Y0053539D01*
X0340764Y0053466D01*
X0340832Y0053397D01*
X0340903Y0053329D01*
X0340977Y0053265D01*
X0341054Y0053204D01*
X0341132Y0053146D01*
X0341213Y0053091D01*
X0341296Y0053039D01*
X0341381Y0052991D01*
X0341468Y0052946D01*
X0341557Y0052904D01*
X0341647Y0052867D01*
X0341739Y0052832D01*
X0341832Y0052802D01*
X0341926Y0052775D01*
X0342021Y0052752D01*
X0342117Y0052732D01*
X0342214Y0052717D01*
X0342311Y0052705D01*
X0342408Y0052697D01*
X0342506Y0052693D01*
X0342604Y0052693D01*
X0342702Y0052697D01*
X0342799Y0052705D01*
X0342896Y0052717D01*
X0342993Y0052732D01*
X0343089Y0052752D01*
X0343184Y0052775D01*
X0343278Y0052802D01*
X0343371Y0052832D01*
X0343463Y0052867D01*
X0343553Y0052904D01*
X0343642Y0052946D01*
X0343729Y0052991D01*
X0343814Y0053039D01*
X0343897Y0053091D01*
X0343978Y0053146D01*
X0344056Y0053204D01*
X0344133Y0053265D01*
X0344207Y0053329D01*
X0344278Y0053397D01*
X0344346Y0053466D01*
X0344412Y0053539D01*
X0344475Y0053614D01*
X0344534Y0053692D01*
X0344591Y0053772D01*
X0344644Y0053854D01*
X0344694Y0053938D01*
X0344741Y0054024D01*
X0344784Y0054111D01*
X0344824Y0054201D01*
X0344860Y0054292D01*
X0344893Y0054384D01*
X0344921Y0054478D01*
X0344946Y0054572D01*
X0344968Y0054668D01*
X0344985Y0054764D01*
X0344999Y0054861D01*
X0345008Y0054958D01*
X0345014Y0055056D01*
X0345016Y0055154D01*
X0342555Y0055154D02*
X0342555Y0078776D01*
X0301216Y0010863D02*
X0299859Y0010927D01*
X0298504Y0011023D01*
X0297152Y0011153D01*
X0295803Y0011316D01*
X0294458Y0011511D01*
X0293118Y0011738D01*
X0291785Y0011998D01*
X0290458Y0012290D01*
X0289138Y0012614D01*
X0287827Y0012970D01*
X0286525Y0013357D01*
X0285232Y0013776D01*
X0283950Y0014226D01*
X0282679Y0014707D01*
X0281421Y0015219D01*
X0280175Y0015761D01*
X0278942Y0016332D01*
X0277724Y0016934D01*
X0276521Y0017565D01*
X0275333Y0018225D01*
X0274161Y0018913D01*
X0273007Y0019629D01*
X0271870Y0020374D01*
X0270752Y0021145D01*
X0269652Y0021944D01*
X0268573Y0022768D01*
X0267513Y0023619D01*
X0266475Y0024495D01*
X0265457Y0025396D01*
X0264462Y0026321D01*
X0263490Y0027270D01*
X0262541Y0028242D01*
X0261616Y0029237D01*
X0260715Y0030255D01*
X0259839Y0031293D01*
X0258988Y0032353D01*
X0258164Y0033432D01*
X0257365Y0034532D01*
X0256594Y0035650D01*
X0255849Y0036787D01*
X0255133Y0037941D01*
X0254445Y0039113D01*
X0253785Y0040301D01*
X0253154Y0041504D01*
X0252552Y0042722D01*
X0251981Y0043955D01*
X0251439Y0045201D01*
X0250927Y0046459D01*
X0250446Y0047730D01*
X0249996Y0049012D01*
X0249577Y0050305D01*
X0249190Y0051607D01*
X0248834Y0052918D01*
X0248510Y0054238D01*
X0248218Y0055565D01*
X0247958Y0056898D01*
X0247731Y0058238D01*
X0247536Y0059583D01*
X0247373Y0060932D01*
X0247243Y0062284D01*
X0247147Y0063639D01*
X0247083Y0064996D01*
X0305154Y0123067D02*
X0306511Y0123003D01*
X0307866Y0122907D01*
X0309218Y0122777D01*
X0310567Y0122614D01*
X0311912Y0122419D01*
X0313252Y0122192D01*
X0314585Y0121932D01*
X0315912Y0121640D01*
X0317232Y0121316D01*
X0318543Y0120960D01*
X0319845Y0120573D01*
X0321138Y0120154D01*
X0322420Y0119704D01*
X0323691Y0119223D01*
X0324949Y0118711D01*
X0326195Y0118169D01*
X0327428Y0117598D01*
X0328646Y0116996D01*
X0329849Y0116365D01*
X0331037Y0115705D01*
X0332209Y0115017D01*
X0333363Y0114301D01*
X0334500Y0113556D01*
X0335618Y0112785D01*
X0336718Y0111986D01*
X0337797Y0111162D01*
X0338857Y0110311D01*
X0339895Y0109435D01*
X0340913Y0108534D01*
X0341908Y0107609D01*
X0342880Y0106660D01*
X0343829Y0105688D01*
X0344754Y0104693D01*
X0345655Y0103675D01*
X0346531Y0102637D01*
X0347382Y0101577D01*
X0348206Y0100498D01*
X0349005Y0099398D01*
X0349776Y0098280D01*
X0350521Y0097143D01*
X0351237Y0095989D01*
X0351925Y0094817D01*
X0352585Y0093629D01*
X0353216Y0092426D01*
X0353818Y0091208D01*
X0354389Y0089975D01*
X0354931Y0088729D01*
X0355443Y0087471D01*
X0355924Y0086200D01*
X0356374Y0084918D01*
X0356793Y0083625D01*
X0357180Y0082323D01*
X0357536Y0081012D01*
X0357860Y0079692D01*
X0358152Y0078365D01*
X0358412Y0077032D01*
X0358639Y0075692D01*
X0358834Y0074347D01*
X0358997Y0072998D01*
X0359127Y0071646D01*
X0359223Y0070291D01*
X0359287Y0068934D01*
X0305154Y0123067D02*
X0305154Y0128972D01*
X0301217Y0128972D02*
X0301217Y0123067D01*
X0266276Y0173264D02*
X0266276Y0196886D01*
X0266274Y0196984D01*
X0266268Y0197082D01*
X0266259Y0197179D01*
X0266245Y0197276D01*
X0266228Y0197372D01*
X0266206Y0197468D01*
X0266181Y0197562D01*
X0266153Y0197656D01*
X0266120Y0197748D01*
X0266084Y0197839D01*
X0266044Y0197929D01*
X0266001Y0198016D01*
X0265954Y0198102D01*
X0265904Y0198186D01*
X0265851Y0198268D01*
X0265794Y0198348D01*
X0265735Y0198426D01*
X0265672Y0198501D01*
X0265606Y0198574D01*
X0265538Y0198643D01*
X0265467Y0198711D01*
X0265393Y0198775D01*
X0265316Y0198836D01*
X0265238Y0198894D01*
X0265157Y0198949D01*
X0265074Y0199001D01*
X0264989Y0199049D01*
X0264902Y0199094D01*
X0264813Y0199136D01*
X0264723Y0199173D01*
X0264631Y0199208D01*
X0264538Y0199238D01*
X0264444Y0199265D01*
X0264349Y0199288D01*
X0264253Y0199308D01*
X0264156Y0199323D01*
X0264059Y0199335D01*
X0263962Y0199343D01*
X0263864Y0199347D01*
X0263766Y0199347D01*
X0263668Y0199343D01*
X0263571Y0199335D01*
X0263474Y0199323D01*
X0263377Y0199308D01*
X0263281Y0199288D01*
X0263186Y0199265D01*
X0263092Y0199238D01*
X0262999Y0199208D01*
X0262907Y0199173D01*
X0262817Y0199136D01*
X0262728Y0199094D01*
X0262641Y0199049D01*
X0262556Y0199001D01*
X0262473Y0198949D01*
X0262392Y0198894D01*
X0262314Y0198836D01*
X0262237Y0198775D01*
X0262163Y0198711D01*
X0262092Y0198643D01*
X0262024Y0198574D01*
X0261958Y0198501D01*
X0261895Y0198426D01*
X0261836Y0198348D01*
X0261779Y0198268D01*
X0261726Y0198186D01*
X0261676Y0198102D01*
X0261629Y0198016D01*
X0261586Y0197929D01*
X0261546Y0197839D01*
X0261510Y0197748D01*
X0261477Y0197656D01*
X0261449Y0197562D01*
X0261424Y0197468D01*
X0261402Y0197372D01*
X0261385Y0197276D01*
X0261371Y0197179D01*
X0261362Y0197082D01*
X0261356Y0196984D01*
X0261354Y0196886D01*
X0261354Y0173264D01*
X0261356Y0173166D01*
X0261362Y0173068D01*
X0261371Y0172971D01*
X0261385Y0172874D01*
X0261402Y0172778D01*
X0261424Y0172682D01*
X0261449Y0172588D01*
X0261477Y0172494D01*
X0261510Y0172402D01*
X0261546Y0172311D01*
X0261586Y0172221D01*
X0261629Y0172134D01*
X0261676Y0172048D01*
X0261726Y0171964D01*
X0261779Y0171882D01*
X0261836Y0171802D01*
X0261895Y0171724D01*
X0261958Y0171649D01*
X0262024Y0171576D01*
X0262092Y0171507D01*
X0262163Y0171439D01*
X0262237Y0171375D01*
X0262314Y0171314D01*
X0262392Y0171256D01*
X0262473Y0171201D01*
X0262556Y0171149D01*
X0262641Y0171101D01*
X0262728Y0171056D01*
X0262817Y0171014D01*
X0262907Y0170977D01*
X0262999Y0170942D01*
X0263092Y0170912D01*
X0263186Y0170885D01*
X0263281Y0170862D01*
X0263377Y0170842D01*
X0263474Y0170827D01*
X0263571Y0170815D01*
X0263668Y0170807D01*
X0263766Y0170803D01*
X0263864Y0170803D01*
X0263962Y0170807D01*
X0264059Y0170815D01*
X0264156Y0170827D01*
X0264253Y0170842D01*
X0264349Y0170862D01*
X0264444Y0170885D01*
X0264538Y0170912D01*
X0264631Y0170942D01*
X0264723Y0170977D01*
X0264813Y0171014D01*
X0264902Y0171056D01*
X0264989Y0171101D01*
X0265074Y0171149D01*
X0265157Y0171201D01*
X0265238Y0171256D01*
X0265316Y0171314D01*
X0265393Y0171375D01*
X0265467Y0171439D01*
X0265538Y0171507D01*
X0265606Y0171576D01*
X0265672Y0171649D01*
X0265735Y0171724D01*
X0265794Y0171802D01*
X0265851Y0171882D01*
X0265904Y0171964D01*
X0265954Y0172048D01*
X0266001Y0172134D01*
X0266044Y0172221D01*
X0266084Y0172311D01*
X0266120Y0172402D01*
X0266153Y0172494D01*
X0266181Y0172588D01*
X0266206Y0172682D01*
X0266228Y0172778D01*
X0266245Y0172874D01*
X0266259Y0172971D01*
X0266268Y0173068D01*
X0266274Y0173166D01*
X0266276Y0173264D01*
X0263815Y0173264D02*
X0263815Y0196886D01*
X0247083Y0187043D02*
X0241177Y0187043D01*
X0241177Y0183106D02*
X0247083Y0183106D01*
X0226906Y0173264D02*
X0226906Y0196886D01*
X0226904Y0196984D01*
X0226898Y0197082D01*
X0226889Y0197179D01*
X0226875Y0197276D01*
X0226858Y0197372D01*
X0226836Y0197468D01*
X0226811Y0197562D01*
X0226783Y0197656D01*
X0226750Y0197748D01*
X0226714Y0197839D01*
X0226674Y0197929D01*
X0226631Y0198016D01*
X0226584Y0198102D01*
X0226534Y0198186D01*
X0226481Y0198268D01*
X0226424Y0198348D01*
X0226365Y0198426D01*
X0226302Y0198501D01*
X0226236Y0198574D01*
X0226168Y0198643D01*
X0226097Y0198711D01*
X0226023Y0198775D01*
X0225946Y0198836D01*
X0225868Y0198894D01*
X0225787Y0198949D01*
X0225704Y0199001D01*
X0225619Y0199049D01*
X0225532Y0199094D01*
X0225443Y0199136D01*
X0225353Y0199173D01*
X0225261Y0199208D01*
X0225168Y0199238D01*
X0225074Y0199265D01*
X0224979Y0199288D01*
X0224883Y0199308D01*
X0224786Y0199323D01*
X0224689Y0199335D01*
X0224592Y0199343D01*
X0224494Y0199347D01*
X0224396Y0199347D01*
X0224298Y0199343D01*
X0224201Y0199335D01*
X0224104Y0199323D01*
X0224007Y0199308D01*
X0223911Y0199288D01*
X0223816Y0199265D01*
X0223722Y0199238D01*
X0223629Y0199208D01*
X0223537Y0199173D01*
X0223447Y0199136D01*
X0223358Y0199094D01*
X0223271Y0199049D01*
X0223186Y0199001D01*
X0223103Y0198949D01*
X0223022Y0198894D01*
X0222944Y0198836D01*
X0222867Y0198775D01*
X0222793Y0198711D01*
X0222722Y0198643D01*
X0222654Y0198574D01*
X0222588Y0198501D01*
X0222525Y0198426D01*
X0222466Y0198348D01*
X0222409Y0198268D01*
X0222356Y0198186D01*
X0222306Y0198102D01*
X0222259Y0198016D01*
X0222216Y0197929D01*
X0222176Y0197839D01*
X0222140Y0197748D01*
X0222107Y0197656D01*
X0222079Y0197562D01*
X0222054Y0197468D01*
X0222032Y0197372D01*
X0222015Y0197276D01*
X0222001Y0197179D01*
X0221992Y0197082D01*
X0221986Y0196984D01*
X0221984Y0196886D01*
X0221984Y0173264D01*
X0221986Y0173166D01*
X0221992Y0173068D01*
X0222001Y0172971D01*
X0222015Y0172874D01*
X0222032Y0172778D01*
X0222054Y0172682D01*
X0222079Y0172588D01*
X0222107Y0172494D01*
X0222140Y0172402D01*
X0222176Y0172311D01*
X0222216Y0172221D01*
X0222259Y0172134D01*
X0222306Y0172048D01*
X0222356Y0171964D01*
X0222409Y0171882D01*
X0222466Y0171802D01*
X0222525Y0171724D01*
X0222588Y0171649D01*
X0222654Y0171576D01*
X0222722Y0171507D01*
X0222793Y0171439D01*
X0222867Y0171375D01*
X0222944Y0171314D01*
X0223022Y0171256D01*
X0223103Y0171201D01*
X0223186Y0171149D01*
X0223271Y0171101D01*
X0223358Y0171056D01*
X0223447Y0171014D01*
X0223537Y0170977D01*
X0223629Y0170942D01*
X0223722Y0170912D01*
X0223816Y0170885D01*
X0223911Y0170862D01*
X0224007Y0170842D01*
X0224104Y0170827D01*
X0224201Y0170815D01*
X0224298Y0170807D01*
X0224396Y0170803D01*
X0224494Y0170803D01*
X0224592Y0170807D01*
X0224689Y0170815D01*
X0224786Y0170827D01*
X0224883Y0170842D01*
X0224979Y0170862D01*
X0225074Y0170885D01*
X0225168Y0170912D01*
X0225261Y0170942D01*
X0225353Y0170977D01*
X0225443Y0171014D01*
X0225532Y0171056D01*
X0225619Y0171101D01*
X0225704Y0171149D01*
X0225787Y0171201D01*
X0225868Y0171256D01*
X0225946Y0171314D01*
X0226023Y0171375D01*
X0226097Y0171439D01*
X0226168Y0171507D01*
X0226236Y0171576D01*
X0226302Y0171649D01*
X0226365Y0171724D01*
X0226424Y0171802D01*
X0226481Y0171882D01*
X0226534Y0171964D01*
X0226584Y0172048D01*
X0226631Y0172134D01*
X0226674Y0172221D01*
X0226714Y0172311D01*
X0226750Y0172402D01*
X0226783Y0172494D01*
X0226811Y0172588D01*
X0226836Y0172682D01*
X0226858Y0172778D01*
X0226875Y0172874D01*
X0226889Y0172971D01*
X0226898Y0173068D01*
X0226904Y0173166D01*
X0226906Y0173264D01*
X0224445Y0173264D02*
X0224445Y0196886D01*
X0183106Y0128973D02*
X0181749Y0129037D01*
X0180394Y0129133D01*
X0179042Y0129263D01*
X0177693Y0129426D01*
X0176348Y0129621D01*
X0175008Y0129848D01*
X0173675Y0130108D01*
X0172348Y0130400D01*
X0171028Y0130724D01*
X0169717Y0131080D01*
X0168415Y0131467D01*
X0167122Y0131886D01*
X0165840Y0132336D01*
X0164569Y0132817D01*
X0163311Y0133329D01*
X0162065Y0133871D01*
X0160832Y0134442D01*
X0159614Y0135044D01*
X0158411Y0135675D01*
X0157223Y0136335D01*
X0156051Y0137023D01*
X0154897Y0137739D01*
X0153760Y0138484D01*
X0152642Y0139255D01*
X0151542Y0140054D01*
X0150463Y0140878D01*
X0149403Y0141729D01*
X0148365Y0142605D01*
X0147347Y0143506D01*
X0146352Y0144431D01*
X0145380Y0145380D01*
X0144431Y0146352D01*
X0143506Y0147347D01*
X0142605Y0148365D01*
X0141729Y0149403D01*
X0140878Y0150463D01*
X0140054Y0151542D01*
X0139255Y0152642D01*
X0138484Y0153760D01*
X0137739Y0154897D01*
X0137023Y0156051D01*
X0136335Y0157223D01*
X0135675Y0158411D01*
X0135044Y0159614D01*
X0134442Y0160832D01*
X0133871Y0162065D01*
X0133329Y0163311D01*
X0132817Y0164569D01*
X0132336Y0165840D01*
X0131886Y0167122D01*
X0131467Y0168415D01*
X0131080Y0169717D01*
X0130724Y0171028D01*
X0130400Y0172348D01*
X0130108Y0173675D01*
X0129848Y0175008D01*
X0129621Y0176348D01*
X0129426Y0177693D01*
X0129263Y0179042D01*
X0129133Y0180394D01*
X0129037Y0181749D01*
X0128973Y0183106D01*
X0128972Y0183106D02*
X0123067Y0183106D01*
X0123067Y0187043D02*
X0128972Y0187043D01*
X0143244Y0196886D02*
X0143244Y0173264D01*
X0143246Y0173166D01*
X0143252Y0173068D01*
X0143261Y0172971D01*
X0143275Y0172874D01*
X0143292Y0172778D01*
X0143314Y0172682D01*
X0143339Y0172588D01*
X0143367Y0172494D01*
X0143400Y0172402D01*
X0143436Y0172311D01*
X0143476Y0172221D01*
X0143519Y0172134D01*
X0143566Y0172048D01*
X0143616Y0171964D01*
X0143669Y0171882D01*
X0143726Y0171802D01*
X0143785Y0171724D01*
X0143848Y0171649D01*
X0143914Y0171576D01*
X0143982Y0171507D01*
X0144053Y0171439D01*
X0144127Y0171375D01*
X0144204Y0171314D01*
X0144282Y0171256D01*
X0144363Y0171201D01*
X0144446Y0171149D01*
X0144531Y0171101D01*
X0144618Y0171056D01*
X0144707Y0171014D01*
X0144797Y0170977D01*
X0144889Y0170942D01*
X0144982Y0170912D01*
X0145076Y0170885D01*
X0145171Y0170862D01*
X0145267Y0170842D01*
X0145364Y0170827D01*
X0145461Y0170815D01*
X0145558Y0170807D01*
X0145656Y0170803D01*
X0145754Y0170803D01*
X0145852Y0170807D01*
X0145949Y0170815D01*
X0146046Y0170827D01*
X0146143Y0170842D01*
X0146239Y0170862D01*
X0146334Y0170885D01*
X0146428Y0170912D01*
X0146521Y0170942D01*
X0146613Y0170977D01*
X0146703Y0171014D01*
X0146792Y0171056D01*
X0146879Y0171101D01*
X0146964Y0171149D01*
X0147047Y0171201D01*
X0147128Y0171256D01*
X0147206Y0171314D01*
X0147283Y0171375D01*
X0147357Y0171439D01*
X0147428Y0171507D01*
X0147496Y0171576D01*
X0147562Y0171649D01*
X0147625Y0171724D01*
X0147684Y0171802D01*
X0147741Y0171882D01*
X0147794Y0171964D01*
X0147844Y0172048D01*
X0147891Y0172134D01*
X0147934Y0172221D01*
X0147974Y0172311D01*
X0148010Y0172402D01*
X0148043Y0172494D01*
X0148071Y0172588D01*
X0148096Y0172682D01*
X0148118Y0172778D01*
X0148135Y0172874D01*
X0148149Y0172971D01*
X0148158Y0173068D01*
X0148164Y0173166D01*
X0148166Y0173264D01*
X0148165Y0173264D02*
X0148165Y0196886D01*
X0148166Y0196886D02*
X0148164Y0196984D01*
X0148158Y0197082D01*
X0148149Y0197179D01*
X0148135Y0197276D01*
X0148118Y0197372D01*
X0148096Y0197468D01*
X0148071Y0197562D01*
X0148043Y0197656D01*
X0148010Y0197748D01*
X0147974Y0197839D01*
X0147934Y0197929D01*
X0147891Y0198016D01*
X0147844Y0198102D01*
X0147794Y0198186D01*
X0147741Y0198268D01*
X0147684Y0198348D01*
X0147625Y0198426D01*
X0147562Y0198501D01*
X0147496Y0198574D01*
X0147428Y0198643D01*
X0147357Y0198711D01*
X0147283Y0198775D01*
X0147206Y0198836D01*
X0147128Y0198894D01*
X0147047Y0198949D01*
X0146964Y0199001D01*
X0146879Y0199049D01*
X0146792Y0199094D01*
X0146703Y0199136D01*
X0146613Y0199173D01*
X0146521Y0199208D01*
X0146428Y0199238D01*
X0146334Y0199265D01*
X0146239Y0199288D01*
X0146143Y0199308D01*
X0146046Y0199323D01*
X0145949Y0199335D01*
X0145852Y0199343D01*
X0145754Y0199347D01*
X0145656Y0199347D01*
X0145558Y0199343D01*
X0145461Y0199335D01*
X0145364Y0199323D01*
X0145267Y0199308D01*
X0145171Y0199288D01*
X0145076Y0199265D01*
X0144982Y0199238D01*
X0144889Y0199208D01*
X0144797Y0199173D01*
X0144707Y0199136D01*
X0144618Y0199094D01*
X0144531Y0199049D01*
X0144446Y0199001D01*
X0144363Y0198949D01*
X0144282Y0198894D01*
X0144204Y0198836D01*
X0144127Y0198775D01*
X0144053Y0198711D01*
X0143982Y0198643D01*
X0143914Y0198574D01*
X0143848Y0198501D01*
X0143785Y0198426D01*
X0143726Y0198348D01*
X0143669Y0198268D01*
X0143616Y0198186D01*
X0143566Y0198102D01*
X0143519Y0198016D01*
X0143476Y0197929D01*
X0143436Y0197839D01*
X0143400Y0197748D01*
X0143367Y0197656D01*
X0143339Y0197562D01*
X0143314Y0197468D01*
X0143292Y0197372D01*
X0143275Y0197276D01*
X0143261Y0197179D01*
X0143252Y0197082D01*
X0143246Y0196984D01*
X0143244Y0196886D01*
X0145705Y0196886D02*
X0145705Y0173264D01*
X0108795Y0173264D02*
X0108795Y0196886D01*
X0108796Y0196886D02*
X0108794Y0196984D01*
X0108788Y0197082D01*
X0108779Y0197179D01*
X0108765Y0197276D01*
X0108748Y0197372D01*
X0108726Y0197468D01*
X0108701Y0197562D01*
X0108673Y0197656D01*
X0108640Y0197748D01*
X0108604Y0197839D01*
X0108564Y0197929D01*
X0108521Y0198016D01*
X0108474Y0198102D01*
X0108424Y0198186D01*
X0108371Y0198268D01*
X0108314Y0198348D01*
X0108255Y0198426D01*
X0108192Y0198501D01*
X0108126Y0198574D01*
X0108058Y0198643D01*
X0107987Y0198711D01*
X0107913Y0198775D01*
X0107836Y0198836D01*
X0107758Y0198894D01*
X0107677Y0198949D01*
X0107594Y0199001D01*
X0107509Y0199049D01*
X0107422Y0199094D01*
X0107333Y0199136D01*
X0107243Y0199173D01*
X0107151Y0199208D01*
X0107058Y0199238D01*
X0106964Y0199265D01*
X0106869Y0199288D01*
X0106773Y0199308D01*
X0106676Y0199323D01*
X0106579Y0199335D01*
X0106482Y0199343D01*
X0106384Y0199347D01*
X0106286Y0199347D01*
X0106188Y0199343D01*
X0106091Y0199335D01*
X0105994Y0199323D01*
X0105897Y0199308D01*
X0105801Y0199288D01*
X0105706Y0199265D01*
X0105612Y0199238D01*
X0105519Y0199208D01*
X0105427Y0199173D01*
X0105337Y0199136D01*
X0105248Y0199094D01*
X0105161Y0199049D01*
X0105076Y0199001D01*
X0104993Y0198949D01*
X0104912Y0198894D01*
X0104834Y0198836D01*
X0104757Y0198775D01*
X0104683Y0198711D01*
X0104612Y0198643D01*
X0104544Y0198574D01*
X0104478Y0198501D01*
X0104415Y0198426D01*
X0104356Y0198348D01*
X0104299Y0198268D01*
X0104246Y0198186D01*
X0104196Y0198102D01*
X0104149Y0198016D01*
X0104106Y0197929D01*
X0104066Y0197839D01*
X0104030Y0197748D01*
X0103997Y0197656D01*
X0103969Y0197562D01*
X0103944Y0197468D01*
X0103922Y0197372D01*
X0103905Y0197276D01*
X0103891Y0197179D01*
X0103882Y0197082D01*
X0103876Y0196984D01*
X0103874Y0196886D01*
X0103874Y0173264D01*
X0103876Y0173166D01*
X0103882Y0173068D01*
X0103891Y0172971D01*
X0103905Y0172874D01*
X0103922Y0172778D01*
X0103944Y0172682D01*
X0103969Y0172588D01*
X0103997Y0172494D01*
X0104030Y0172402D01*
X0104066Y0172311D01*
X0104106Y0172221D01*
X0104149Y0172134D01*
X0104196Y0172048D01*
X0104246Y0171964D01*
X0104299Y0171882D01*
X0104356Y0171802D01*
X0104415Y0171724D01*
X0104478Y0171649D01*
X0104544Y0171576D01*
X0104612Y0171507D01*
X0104683Y0171439D01*
X0104757Y0171375D01*
X0104834Y0171314D01*
X0104912Y0171256D01*
X0104993Y0171201D01*
X0105076Y0171149D01*
X0105161Y0171101D01*
X0105248Y0171056D01*
X0105337Y0171014D01*
X0105427Y0170977D01*
X0105519Y0170942D01*
X0105612Y0170912D01*
X0105706Y0170885D01*
X0105801Y0170862D01*
X0105897Y0170842D01*
X0105994Y0170827D01*
X0106091Y0170815D01*
X0106188Y0170807D01*
X0106286Y0170803D01*
X0106384Y0170803D01*
X0106482Y0170807D01*
X0106579Y0170815D01*
X0106676Y0170827D01*
X0106773Y0170842D01*
X0106869Y0170862D01*
X0106964Y0170885D01*
X0107058Y0170912D01*
X0107151Y0170942D01*
X0107243Y0170977D01*
X0107333Y0171014D01*
X0107422Y0171056D01*
X0107509Y0171101D01*
X0107594Y0171149D01*
X0107677Y0171201D01*
X0107758Y0171256D01*
X0107836Y0171314D01*
X0107913Y0171375D01*
X0107987Y0171439D01*
X0108058Y0171507D01*
X0108126Y0171576D01*
X0108192Y0171649D01*
X0108255Y0171724D01*
X0108314Y0171802D01*
X0108371Y0171882D01*
X0108424Y0171964D01*
X0108474Y0172048D01*
X0108521Y0172134D01*
X0108564Y0172221D01*
X0108604Y0172311D01*
X0108640Y0172402D01*
X0108673Y0172494D01*
X0108701Y0172588D01*
X0108726Y0172682D01*
X0108748Y0172778D01*
X0108765Y0172874D01*
X0108779Y0172971D01*
X0108788Y0173068D01*
X0108794Y0173166D01*
X0108796Y0173264D01*
X0106335Y0173264D02*
X0106335Y0196886D01*
X0064996Y0128973D02*
X0063639Y0129037D01*
X0062284Y0129133D01*
X0060932Y0129263D01*
X0059583Y0129426D01*
X0058238Y0129621D01*
X0056898Y0129848D01*
X0055565Y0130108D01*
X0054238Y0130400D01*
X0052918Y0130724D01*
X0051607Y0131080D01*
X0050305Y0131467D01*
X0049012Y0131886D01*
X0047730Y0132336D01*
X0046459Y0132817D01*
X0045201Y0133329D01*
X0043955Y0133871D01*
X0042722Y0134442D01*
X0041504Y0135044D01*
X0040301Y0135675D01*
X0039113Y0136335D01*
X0037941Y0137023D01*
X0036787Y0137739D01*
X0035650Y0138484D01*
X0034532Y0139255D01*
X0033432Y0140054D01*
X0032353Y0140878D01*
X0031293Y0141729D01*
X0030255Y0142605D01*
X0029237Y0143506D01*
X0028242Y0144431D01*
X0027270Y0145380D01*
X0026321Y0146352D01*
X0025396Y0147347D01*
X0024495Y0148365D01*
X0023619Y0149403D01*
X0022768Y0150463D01*
X0021944Y0151542D01*
X0021145Y0152642D01*
X0020374Y0153760D01*
X0019629Y0154897D01*
X0018913Y0156051D01*
X0018225Y0157223D01*
X0017565Y0158411D01*
X0016934Y0159614D01*
X0016332Y0160832D01*
X0015761Y0162065D01*
X0015219Y0163311D01*
X0014707Y0164569D01*
X0014226Y0165840D01*
X0013776Y0167122D01*
X0013357Y0168415D01*
X0012970Y0169717D01*
X0012614Y0171028D01*
X0012290Y0172348D01*
X0011998Y0173675D01*
X0011738Y0175008D01*
X0011511Y0176348D01*
X0011316Y0177693D01*
X0011153Y0179042D01*
X0011023Y0180394D01*
X0010927Y0181749D01*
X0010863Y0183106D01*
X0025134Y0173264D02*
X0025134Y0196886D01*
X0025133Y0196886D02*
X0025135Y0196984D01*
X0025141Y0197082D01*
X0025150Y0197179D01*
X0025164Y0197276D01*
X0025181Y0197372D01*
X0025203Y0197468D01*
X0025228Y0197562D01*
X0025256Y0197656D01*
X0025289Y0197748D01*
X0025325Y0197839D01*
X0025365Y0197929D01*
X0025408Y0198016D01*
X0025455Y0198102D01*
X0025505Y0198186D01*
X0025558Y0198268D01*
X0025615Y0198348D01*
X0025674Y0198426D01*
X0025737Y0198501D01*
X0025803Y0198574D01*
X0025871Y0198643D01*
X0025942Y0198711D01*
X0026016Y0198775D01*
X0026093Y0198836D01*
X0026171Y0198894D01*
X0026252Y0198949D01*
X0026335Y0199001D01*
X0026420Y0199049D01*
X0026507Y0199094D01*
X0026596Y0199136D01*
X0026686Y0199173D01*
X0026778Y0199208D01*
X0026871Y0199238D01*
X0026965Y0199265D01*
X0027060Y0199288D01*
X0027156Y0199308D01*
X0027253Y0199323D01*
X0027350Y0199335D01*
X0027447Y0199343D01*
X0027545Y0199347D01*
X0027643Y0199347D01*
X0027741Y0199343D01*
X0027838Y0199335D01*
X0027935Y0199323D01*
X0028032Y0199308D01*
X0028128Y0199288D01*
X0028223Y0199265D01*
X0028317Y0199238D01*
X0028410Y0199208D01*
X0028502Y0199173D01*
X0028592Y0199136D01*
X0028681Y0199094D01*
X0028768Y0199049D01*
X0028853Y0199001D01*
X0028936Y0198949D01*
X0029017Y0198894D01*
X0029095Y0198836D01*
X0029172Y0198775D01*
X0029246Y0198711D01*
X0029317Y0198643D01*
X0029385Y0198574D01*
X0029451Y0198501D01*
X0029514Y0198426D01*
X0029573Y0198348D01*
X0029630Y0198268D01*
X0029683Y0198186D01*
X0029733Y0198102D01*
X0029780Y0198016D01*
X0029823Y0197929D01*
X0029863Y0197839D01*
X0029899Y0197748D01*
X0029932Y0197656D01*
X0029960Y0197562D01*
X0029985Y0197468D01*
X0030007Y0197372D01*
X0030024Y0197276D01*
X0030038Y0197179D01*
X0030047Y0197082D01*
X0030053Y0196984D01*
X0030055Y0196886D01*
X0030055Y0173264D01*
X0030053Y0173166D01*
X0030047Y0173068D01*
X0030038Y0172971D01*
X0030024Y0172874D01*
X0030007Y0172778D01*
X0029985Y0172682D01*
X0029960Y0172588D01*
X0029932Y0172494D01*
X0029899Y0172402D01*
X0029863Y0172311D01*
X0029823Y0172221D01*
X0029780Y0172134D01*
X0029733Y0172048D01*
X0029683Y0171964D01*
X0029630Y0171882D01*
X0029573Y0171802D01*
X0029514Y0171724D01*
X0029451Y0171649D01*
X0029385Y0171576D01*
X0029317Y0171507D01*
X0029246Y0171439D01*
X0029172Y0171375D01*
X0029095Y0171314D01*
X0029017Y0171256D01*
X0028936Y0171201D01*
X0028853Y0171149D01*
X0028768Y0171101D01*
X0028681Y0171056D01*
X0028592Y0171014D01*
X0028502Y0170977D01*
X0028410Y0170942D01*
X0028317Y0170912D01*
X0028223Y0170885D01*
X0028128Y0170862D01*
X0028032Y0170842D01*
X0027935Y0170827D01*
X0027838Y0170815D01*
X0027741Y0170807D01*
X0027643Y0170803D01*
X0027545Y0170803D01*
X0027447Y0170807D01*
X0027350Y0170815D01*
X0027253Y0170827D01*
X0027156Y0170842D01*
X0027060Y0170862D01*
X0026965Y0170885D01*
X0026871Y0170912D01*
X0026778Y0170942D01*
X0026686Y0170977D01*
X0026596Y0171014D01*
X0026507Y0171056D01*
X0026420Y0171101D01*
X0026335Y0171149D01*
X0026252Y0171201D01*
X0026171Y0171256D01*
X0026093Y0171314D01*
X0026016Y0171375D01*
X0025942Y0171439D01*
X0025871Y0171507D01*
X0025803Y0171576D01*
X0025737Y0171649D01*
X0025674Y0171724D01*
X0025615Y0171802D01*
X0025558Y0171882D01*
X0025505Y0171964D01*
X0025455Y0172048D01*
X0025408Y0172134D01*
X0025365Y0172221D01*
X0025325Y0172311D01*
X0025289Y0172402D01*
X0025256Y0172494D01*
X0025228Y0172588D01*
X0025203Y0172682D01*
X0025181Y0172778D01*
X0025164Y0172874D01*
X0025150Y0172971D01*
X0025141Y0173068D01*
X0025135Y0173166D01*
X0025133Y0173264D01*
X0027594Y0173264D02*
X0027594Y0196886D01*
X0068934Y0128973D02*
X0070291Y0129037D01*
X0071646Y0129133D01*
X0072998Y0129263D01*
X0074347Y0129426D01*
X0075692Y0129621D01*
X0077032Y0129848D01*
X0078365Y0130108D01*
X0079692Y0130400D01*
X0081012Y0130724D01*
X0082323Y0131080D01*
X0083625Y0131467D01*
X0084918Y0131886D01*
X0086200Y0132336D01*
X0087471Y0132817D01*
X0088729Y0133329D01*
X0089975Y0133871D01*
X0091208Y0134442D01*
X0092426Y0135044D01*
X0093629Y0135675D01*
X0094817Y0136335D01*
X0095989Y0137023D01*
X0097143Y0137739D01*
X0098280Y0138484D01*
X0099398Y0139255D01*
X0100498Y0140054D01*
X0101577Y0140878D01*
X0102637Y0141729D01*
X0103675Y0142605D01*
X0104693Y0143506D01*
X0105688Y0144431D01*
X0106660Y0145380D01*
X0107609Y0146352D01*
X0108534Y0147347D01*
X0109435Y0148365D01*
X0110311Y0149403D01*
X0111162Y0150463D01*
X0111986Y0151542D01*
X0112785Y0152642D01*
X0113556Y0153760D01*
X0114301Y0154897D01*
X0115017Y0156051D01*
X0115705Y0157223D01*
X0116365Y0158411D01*
X0116996Y0159614D01*
X0117598Y0160832D01*
X0118169Y0162065D01*
X0118711Y0163311D01*
X0119223Y0164569D01*
X0119704Y0165840D01*
X0120154Y0167122D01*
X0120573Y0168415D01*
X0120960Y0169717D01*
X0121316Y0171028D01*
X0121640Y0172348D01*
X0121932Y0173675D01*
X0122192Y0175008D01*
X0122419Y0176348D01*
X0122614Y0177693D01*
X0122777Y0179042D01*
X0122907Y0180394D01*
X0123003Y0181749D01*
X0123067Y0183106D01*
X0064996Y0128973D02*
X0063639Y0129037D01*
X0062284Y0129133D01*
X0060932Y0129263D01*
X0059583Y0129426D01*
X0058238Y0129621D01*
X0056898Y0129848D01*
X0055565Y0130108D01*
X0054238Y0130400D01*
X0052918Y0130724D01*
X0051607Y0131080D01*
X0050305Y0131467D01*
X0049012Y0131886D01*
X0047730Y0132336D01*
X0046459Y0132817D01*
X0045201Y0133329D01*
X0043955Y0133871D01*
X0042722Y0134442D01*
X0041504Y0135044D01*
X0040301Y0135675D01*
X0039113Y0136335D01*
X0037941Y0137023D01*
X0036787Y0137739D01*
X0035650Y0138484D01*
X0034532Y0139255D01*
X0033432Y0140054D01*
X0032353Y0140878D01*
X0031293Y0141729D01*
X0030255Y0142605D01*
X0029237Y0143506D01*
X0028242Y0144431D01*
X0027270Y0145380D01*
X0026321Y0146352D01*
X0025396Y0147347D01*
X0024495Y0148365D01*
X0023619Y0149403D01*
X0022768Y0150463D01*
X0021944Y0151542D01*
X0021145Y0152642D01*
X0020374Y0153760D01*
X0019629Y0154897D01*
X0018913Y0156051D01*
X0018225Y0157223D01*
X0017565Y0158411D01*
X0016934Y0159614D01*
X0016332Y0160832D01*
X0015761Y0162065D01*
X0015219Y0163311D01*
X0014707Y0164569D01*
X0014226Y0165840D01*
X0013776Y0167122D01*
X0013357Y0168415D01*
X0012970Y0169717D01*
X0012614Y0171028D01*
X0012290Y0172348D01*
X0011998Y0173675D01*
X0011738Y0175008D01*
X0011511Y0176348D01*
X0011316Y0177693D01*
X0011153Y0179042D01*
X0011023Y0180394D01*
X0010927Y0181749D01*
X0010863Y0183106D01*
X0064996Y0128972D02*
X0064996Y0123067D01*
X0068933Y0123067D02*
X0068933Y0128972D01*
X0123067Y0187044D02*
X0123003Y0188401D01*
X0122907Y0189756D01*
X0122777Y0191108D01*
X0122614Y0192457D01*
X0122419Y0193802D01*
X0122192Y0195142D01*
X0121932Y0196475D01*
X0121640Y0197802D01*
X0121316Y0199122D01*
X0120960Y0200433D01*
X0120573Y0201735D01*
X0120154Y0203028D01*
X0119704Y0204310D01*
X0119223Y0205581D01*
X0118711Y0206839D01*
X0118169Y0208085D01*
X0117598Y0209318D01*
X0116996Y0210536D01*
X0116365Y0211739D01*
X0115705Y0212927D01*
X0115017Y0214099D01*
X0114301Y0215253D01*
X0113556Y0216390D01*
X0112785Y0217508D01*
X0111986Y0218608D01*
X0111162Y0219687D01*
X0110311Y0220747D01*
X0109435Y0221785D01*
X0108534Y0222803D01*
X0107609Y0223798D01*
X0106660Y0224770D01*
X0105688Y0225719D01*
X0104693Y0226644D01*
X0103675Y0227545D01*
X0102637Y0228421D01*
X0101577Y0229272D01*
X0100498Y0230096D01*
X0099398Y0230895D01*
X0098280Y0231666D01*
X0097143Y0232411D01*
X0095989Y0233127D01*
X0094817Y0233815D01*
X0093629Y0234475D01*
X0092426Y0235106D01*
X0091208Y0235708D01*
X0089975Y0236279D01*
X0088729Y0236821D01*
X0087471Y0237333D01*
X0086200Y0237814D01*
X0084918Y0238264D01*
X0083625Y0238683D01*
X0082323Y0239070D01*
X0081012Y0239426D01*
X0079692Y0239750D01*
X0078365Y0240042D01*
X0077032Y0240302D01*
X0075692Y0240529D01*
X0074347Y0240724D01*
X0072998Y0240887D01*
X0071646Y0241017D01*
X0070291Y0241113D01*
X0068934Y0241177D01*
X0068933Y0241177D02*
X0068933Y0247083D01*
X0064996Y0247083D02*
X0064996Y0241177D01*
X0030055Y0291374D02*
X0030055Y0314996D01*
X0030053Y0315094D01*
X0030047Y0315192D01*
X0030038Y0315289D01*
X0030024Y0315386D01*
X0030007Y0315482D01*
X0029985Y0315578D01*
X0029960Y0315672D01*
X0029932Y0315766D01*
X0029899Y0315858D01*
X0029863Y0315949D01*
X0029823Y0316039D01*
X0029780Y0316126D01*
X0029733Y0316212D01*
X0029683Y0316296D01*
X0029630Y0316378D01*
X0029573Y0316458D01*
X0029514Y0316536D01*
X0029451Y0316611D01*
X0029385Y0316684D01*
X0029317Y0316753D01*
X0029246Y0316821D01*
X0029172Y0316885D01*
X0029095Y0316946D01*
X0029017Y0317004D01*
X0028936Y0317059D01*
X0028853Y0317111D01*
X0028768Y0317159D01*
X0028681Y0317204D01*
X0028592Y0317246D01*
X0028502Y0317283D01*
X0028410Y0317318D01*
X0028317Y0317348D01*
X0028223Y0317375D01*
X0028128Y0317398D01*
X0028032Y0317418D01*
X0027935Y0317433D01*
X0027838Y0317445D01*
X0027741Y0317453D01*
X0027643Y0317457D01*
X0027545Y0317457D01*
X0027447Y0317453D01*
X0027350Y0317445D01*
X0027253Y0317433D01*
X0027156Y0317418D01*
X0027060Y0317398D01*
X0026965Y0317375D01*
X0026871Y0317348D01*
X0026778Y0317318D01*
X0026686Y0317283D01*
X0026596Y0317246D01*
X0026507Y0317204D01*
X0026420Y0317159D01*
X0026335Y0317111D01*
X0026252Y0317059D01*
X0026171Y0317004D01*
X0026093Y0316946D01*
X0026016Y0316885D01*
X0025942Y0316821D01*
X0025871Y0316753D01*
X0025803Y0316684D01*
X0025737Y0316611D01*
X0025674Y0316536D01*
X0025615Y0316458D01*
X0025558Y0316378D01*
X0025505Y0316296D01*
X0025455Y0316212D01*
X0025408Y0316126D01*
X0025365Y0316039D01*
X0025325Y0315949D01*
X0025289Y0315858D01*
X0025256Y0315766D01*
X0025228Y0315672D01*
X0025203Y0315578D01*
X0025181Y0315482D01*
X0025164Y0315386D01*
X0025150Y0315289D01*
X0025141Y0315192D01*
X0025135Y0315094D01*
X0025133Y0314996D01*
X0025134Y0314996D02*
X0025134Y0291374D01*
X0025133Y0291374D02*
X0025135Y0291276D01*
X0025141Y0291178D01*
X0025150Y0291081D01*
X0025164Y0290984D01*
X0025181Y0290888D01*
X0025203Y0290792D01*
X0025228Y0290698D01*
X0025256Y0290604D01*
X0025289Y0290512D01*
X0025325Y0290421D01*
X0025365Y0290331D01*
X0025408Y0290244D01*
X0025455Y0290158D01*
X0025505Y0290074D01*
X0025558Y0289992D01*
X0025615Y0289912D01*
X0025674Y0289834D01*
X0025737Y0289759D01*
X0025803Y0289686D01*
X0025871Y0289617D01*
X0025942Y0289549D01*
X0026016Y0289485D01*
X0026093Y0289424D01*
X0026171Y0289366D01*
X0026252Y0289311D01*
X0026335Y0289259D01*
X0026420Y0289211D01*
X0026507Y0289166D01*
X0026596Y0289124D01*
X0026686Y0289087D01*
X0026778Y0289052D01*
X0026871Y0289022D01*
X0026965Y0288995D01*
X0027060Y0288972D01*
X0027156Y0288952D01*
X0027253Y0288937D01*
X0027350Y0288925D01*
X0027447Y0288917D01*
X0027545Y0288913D01*
X0027643Y0288913D01*
X0027741Y0288917D01*
X0027838Y0288925D01*
X0027935Y0288937D01*
X0028032Y0288952D01*
X0028128Y0288972D01*
X0028223Y0288995D01*
X0028317Y0289022D01*
X0028410Y0289052D01*
X0028502Y0289087D01*
X0028592Y0289124D01*
X0028681Y0289166D01*
X0028768Y0289211D01*
X0028853Y0289259D01*
X0028936Y0289311D01*
X0029017Y0289366D01*
X0029095Y0289424D01*
X0029172Y0289485D01*
X0029246Y0289549D01*
X0029317Y0289617D01*
X0029385Y0289686D01*
X0029451Y0289759D01*
X0029514Y0289834D01*
X0029573Y0289912D01*
X0029630Y0289992D01*
X0029683Y0290074D01*
X0029733Y0290158D01*
X0029780Y0290244D01*
X0029823Y0290331D01*
X0029863Y0290421D01*
X0029899Y0290512D01*
X0029932Y0290604D01*
X0029960Y0290698D01*
X0029985Y0290792D01*
X0030007Y0290888D01*
X0030024Y0290984D01*
X0030038Y0291081D01*
X0030047Y0291178D01*
X0030053Y0291276D01*
X0030055Y0291374D01*
X0027594Y0291374D02*
X0027594Y0314996D01*
X0010863Y0301216D02*
X0010927Y0299859D01*
X0011023Y0298504D01*
X0011153Y0297152D01*
X0011316Y0295803D01*
X0011511Y0294458D01*
X0011738Y0293118D01*
X0011998Y0291785D01*
X0012290Y0290458D01*
X0012614Y0289138D01*
X0012970Y0287827D01*
X0013357Y0286525D01*
X0013776Y0285232D01*
X0014226Y0283950D01*
X0014707Y0282679D01*
X0015219Y0281421D01*
X0015761Y0280175D01*
X0016332Y0278942D01*
X0016934Y0277724D01*
X0017565Y0276521D01*
X0018225Y0275333D01*
X0018913Y0274161D01*
X0019629Y0273007D01*
X0020374Y0271870D01*
X0021145Y0270752D01*
X0021944Y0269652D01*
X0022768Y0268573D01*
X0023619Y0267513D01*
X0024495Y0266475D01*
X0025396Y0265457D01*
X0026321Y0264462D01*
X0027270Y0263490D01*
X0028242Y0262541D01*
X0029237Y0261616D01*
X0030255Y0260715D01*
X0031293Y0259839D01*
X0032353Y0258988D01*
X0033432Y0258164D01*
X0034532Y0257365D01*
X0035650Y0256594D01*
X0036787Y0255849D01*
X0037941Y0255133D01*
X0039113Y0254445D01*
X0040301Y0253785D01*
X0041504Y0253154D01*
X0042722Y0252552D01*
X0043955Y0251981D01*
X0045201Y0251439D01*
X0046459Y0250927D01*
X0047730Y0250446D01*
X0049012Y0249996D01*
X0050305Y0249577D01*
X0051607Y0249190D01*
X0052918Y0248834D01*
X0054238Y0248510D01*
X0055565Y0248218D01*
X0056898Y0247958D01*
X0058238Y0247731D01*
X0059583Y0247536D01*
X0060932Y0247373D01*
X0062284Y0247243D01*
X0063639Y0247147D01*
X0064996Y0247083D01*
X0103874Y0291374D02*
X0103874Y0314996D01*
X0103876Y0315094D01*
X0103882Y0315192D01*
X0103891Y0315289D01*
X0103905Y0315386D01*
X0103922Y0315482D01*
X0103944Y0315578D01*
X0103969Y0315672D01*
X0103997Y0315766D01*
X0104030Y0315858D01*
X0104066Y0315949D01*
X0104106Y0316039D01*
X0104149Y0316126D01*
X0104196Y0316212D01*
X0104246Y0316296D01*
X0104299Y0316378D01*
X0104356Y0316458D01*
X0104415Y0316536D01*
X0104478Y0316611D01*
X0104544Y0316684D01*
X0104612Y0316753D01*
X0104683Y0316821D01*
X0104757Y0316885D01*
X0104834Y0316946D01*
X0104912Y0317004D01*
X0104993Y0317059D01*
X0105076Y0317111D01*
X0105161Y0317159D01*
X0105248Y0317204D01*
X0105337Y0317246D01*
X0105427Y0317283D01*
X0105519Y0317318D01*
X0105612Y0317348D01*
X0105706Y0317375D01*
X0105801Y0317398D01*
X0105897Y0317418D01*
X0105994Y0317433D01*
X0106091Y0317445D01*
X0106188Y0317453D01*
X0106286Y0317457D01*
X0106384Y0317457D01*
X0106482Y0317453D01*
X0106579Y0317445D01*
X0106676Y0317433D01*
X0106773Y0317418D01*
X0106869Y0317398D01*
X0106964Y0317375D01*
X0107058Y0317348D01*
X0107151Y0317318D01*
X0107243Y0317283D01*
X0107333Y0317246D01*
X0107422Y0317204D01*
X0107509Y0317159D01*
X0107594Y0317111D01*
X0107677Y0317059D01*
X0107758Y0317004D01*
X0107836Y0316946D01*
X0107913Y0316885D01*
X0107987Y0316821D01*
X0108058Y0316753D01*
X0108126Y0316684D01*
X0108192Y0316611D01*
X0108255Y0316536D01*
X0108314Y0316458D01*
X0108371Y0316378D01*
X0108424Y0316296D01*
X0108474Y0316212D01*
X0108521Y0316126D01*
X0108564Y0316039D01*
X0108604Y0315949D01*
X0108640Y0315858D01*
X0108673Y0315766D01*
X0108701Y0315672D01*
X0108726Y0315578D01*
X0108748Y0315482D01*
X0108765Y0315386D01*
X0108779Y0315289D01*
X0108788Y0315192D01*
X0108794Y0315094D01*
X0108796Y0314996D01*
X0108795Y0314996D02*
X0108795Y0291374D01*
X0108796Y0291374D02*
X0108794Y0291276D01*
X0108788Y0291178D01*
X0108779Y0291081D01*
X0108765Y0290984D01*
X0108748Y0290888D01*
X0108726Y0290792D01*
X0108701Y0290698D01*
X0108673Y0290604D01*
X0108640Y0290512D01*
X0108604Y0290421D01*
X0108564Y0290331D01*
X0108521Y0290244D01*
X0108474Y0290158D01*
X0108424Y0290074D01*
X0108371Y0289992D01*
X0108314Y0289912D01*
X0108255Y0289834D01*
X0108192Y0289759D01*
X0108126Y0289686D01*
X0108058Y0289617D01*
X0107987Y0289549D01*
X0107913Y0289485D01*
X0107836Y0289424D01*
X0107758Y0289366D01*
X0107677Y0289311D01*
X0107594Y0289259D01*
X0107509Y0289211D01*
X0107422Y0289166D01*
X0107333Y0289124D01*
X0107243Y0289087D01*
X0107151Y0289052D01*
X0107058Y0289022D01*
X0106964Y0288995D01*
X0106869Y0288972D01*
X0106773Y0288952D01*
X0106676Y0288937D01*
X0106579Y0288925D01*
X0106482Y0288917D01*
X0106384Y0288913D01*
X0106286Y0288913D01*
X0106188Y0288917D01*
X0106091Y0288925D01*
X0105994Y0288937D01*
X0105897Y0288952D01*
X0105801Y0288972D01*
X0105706Y0288995D01*
X0105612Y0289022D01*
X0105519Y0289052D01*
X0105427Y0289087D01*
X0105337Y0289124D01*
X0105248Y0289166D01*
X0105161Y0289211D01*
X0105076Y0289259D01*
X0104993Y0289311D01*
X0104912Y0289366D01*
X0104834Y0289424D01*
X0104757Y0289485D01*
X0104683Y0289549D01*
X0104612Y0289617D01*
X0104544Y0289686D01*
X0104478Y0289759D01*
X0104415Y0289834D01*
X0104356Y0289912D01*
X0104299Y0289992D01*
X0104246Y0290074D01*
X0104196Y0290158D01*
X0104149Y0290244D01*
X0104106Y0290331D01*
X0104066Y0290421D01*
X0104030Y0290512D01*
X0103997Y0290604D01*
X0103969Y0290698D01*
X0103944Y0290792D01*
X0103922Y0290888D01*
X0103905Y0290984D01*
X0103891Y0291081D01*
X0103882Y0291178D01*
X0103876Y0291276D01*
X0103874Y0291374D01*
X0106335Y0291374D02*
X0106335Y0314996D01*
X0123067Y0305154D02*
X0128972Y0305154D01*
X0128972Y0301217D02*
X0123067Y0301217D01*
X0143244Y0291374D02*
X0143244Y0314996D01*
X0143246Y0315094D01*
X0143252Y0315192D01*
X0143261Y0315289D01*
X0143275Y0315386D01*
X0143292Y0315482D01*
X0143314Y0315578D01*
X0143339Y0315672D01*
X0143367Y0315766D01*
X0143400Y0315858D01*
X0143436Y0315949D01*
X0143476Y0316039D01*
X0143519Y0316126D01*
X0143566Y0316212D01*
X0143616Y0316296D01*
X0143669Y0316378D01*
X0143726Y0316458D01*
X0143785Y0316536D01*
X0143848Y0316611D01*
X0143914Y0316684D01*
X0143982Y0316753D01*
X0144053Y0316821D01*
X0144127Y0316885D01*
X0144204Y0316946D01*
X0144282Y0317004D01*
X0144363Y0317059D01*
X0144446Y0317111D01*
X0144531Y0317159D01*
X0144618Y0317204D01*
X0144707Y0317246D01*
X0144797Y0317283D01*
X0144889Y0317318D01*
X0144982Y0317348D01*
X0145076Y0317375D01*
X0145171Y0317398D01*
X0145267Y0317418D01*
X0145364Y0317433D01*
X0145461Y0317445D01*
X0145558Y0317453D01*
X0145656Y0317457D01*
X0145754Y0317457D01*
X0145852Y0317453D01*
X0145949Y0317445D01*
X0146046Y0317433D01*
X0146143Y0317418D01*
X0146239Y0317398D01*
X0146334Y0317375D01*
X0146428Y0317348D01*
X0146521Y0317318D01*
X0146613Y0317283D01*
X0146703Y0317246D01*
X0146792Y0317204D01*
X0146879Y0317159D01*
X0146964Y0317111D01*
X0147047Y0317059D01*
X0147128Y0317004D01*
X0147206Y0316946D01*
X0147283Y0316885D01*
X0147357Y0316821D01*
X0147428Y0316753D01*
X0147496Y0316684D01*
X0147562Y0316611D01*
X0147625Y0316536D01*
X0147684Y0316458D01*
X0147741Y0316378D01*
X0147794Y0316296D01*
X0147844Y0316212D01*
X0147891Y0316126D01*
X0147934Y0316039D01*
X0147974Y0315949D01*
X0148010Y0315858D01*
X0148043Y0315766D01*
X0148071Y0315672D01*
X0148096Y0315578D01*
X0148118Y0315482D01*
X0148135Y0315386D01*
X0148149Y0315289D01*
X0148158Y0315192D01*
X0148164Y0315094D01*
X0148166Y0314996D01*
X0148165Y0314996D02*
X0148165Y0291374D01*
X0148166Y0291374D02*
X0148164Y0291276D01*
X0148158Y0291178D01*
X0148149Y0291081D01*
X0148135Y0290984D01*
X0148118Y0290888D01*
X0148096Y0290792D01*
X0148071Y0290698D01*
X0148043Y0290604D01*
X0148010Y0290512D01*
X0147974Y0290421D01*
X0147934Y0290331D01*
X0147891Y0290244D01*
X0147844Y0290158D01*
X0147794Y0290074D01*
X0147741Y0289992D01*
X0147684Y0289912D01*
X0147625Y0289834D01*
X0147562Y0289759D01*
X0147496Y0289686D01*
X0147428Y0289617D01*
X0147357Y0289549D01*
X0147283Y0289485D01*
X0147206Y0289424D01*
X0147128Y0289366D01*
X0147047Y0289311D01*
X0146964Y0289259D01*
X0146879Y0289211D01*
X0146792Y0289166D01*
X0146703Y0289124D01*
X0146613Y0289087D01*
X0146521Y0289052D01*
X0146428Y0289022D01*
X0146334Y0288995D01*
X0146239Y0288972D01*
X0146143Y0288952D01*
X0146046Y0288937D01*
X0145949Y0288925D01*
X0145852Y0288917D01*
X0145754Y0288913D01*
X0145656Y0288913D01*
X0145558Y0288917D01*
X0145461Y0288925D01*
X0145364Y0288937D01*
X0145267Y0288952D01*
X0145171Y0288972D01*
X0145076Y0288995D01*
X0144982Y0289022D01*
X0144889Y0289052D01*
X0144797Y0289087D01*
X0144707Y0289124D01*
X0144618Y0289166D01*
X0144531Y0289211D01*
X0144446Y0289259D01*
X0144363Y0289311D01*
X0144282Y0289366D01*
X0144204Y0289424D01*
X0144127Y0289485D01*
X0144053Y0289549D01*
X0143982Y0289617D01*
X0143914Y0289686D01*
X0143848Y0289759D01*
X0143785Y0289834D01*
X0143726Y0289912D01*
X0143669Y0289992D01*
X0143616Y0290074D01*
X0143566Y0290158D01*
X0143519Y0290244D01*
X0143476Y0290331D01*
X0143436Y0290421D01*
X0143400Y0290512D01*
X0143367Y0290604D01*
X0143339Y0290698D01*
X0143314Y0290792D01*
X0143292Y0290888D01*
X0143275Y0290984D01*
X0143261Y0291081D01*
X0143252Y0291178D01*
X0143246Y0291276D01*
X0143244Y0291374D01*
X0145705Y0291374D02*
X0145705Y0314996D01*
X0187044Y0247083D02*
X0188401Y0247147D01*
X0189756Y0247243D01*
X0191108Y0247373D01*
X0192457Y0247536D01*
X0193802Y0247731D01*
X0195142Y0247958D01*
X0196475Y0248218D01*
X0197802Y0248510D01*
X0199122Y0248834D01*
X0200433Y0249190D01*
X0201735Y0249577D01*
X0203028Y0249996D01*
X0204310Y0250446D01*
X0205581Y0250927D01*
X0206839Y0251439D01*
X0208085Y0251981D01*
X0209318Y0252552D01*
X0210536Y0253154D01*
X0211739Y0253785D01*
X0212927Y0254445D01*
X0214099Y0255133D01*
X0215253Y0255849D01*
X0216390Y0256594D01*
X0217508Y0257365D01*
X0218608Y0258164D01*
X0219687Y0258988D01*
X0220747Y0259839D01*
X0221785Y0260715D01*
X0222803Y0261616D01*
X0223798Y0262541D01*
X0224770Y0263490D01*
X0225719Y0264462D01*
X0226644Y0265457D01*
X0227545Y0266475D01*
X0228421Y0267513D01*
X0229272Y0268573D01*
X0230096Y0269652D01*
X0230895Y0270752D01*
X0231666Y0271870D01*
X0232411Y0273007D01*
X0233127Y0274161D01*
X0233815Y0275333D01*
X0234475Y0276521D01*
X0235106Y0277724D01*
X0235708Y0278942D01*
X0236279Y0280175D01*
X0236821Y0281421D01*
X0237333Y0282679D01*
X0237814Y0283950D01*
X0238264Y0285232D01*
X0238683Y0286525D01*
X0239070Y0287827D01*
X0239426Y0289138D01*
X0239750Y0290458D01*
X0240042Y0291785D01*
X0240302Y0293118D01*
X0240529Y0294458D01*
X0240724Y0295803D01*
X0240887Y0297152D01*
X0241017Y0298504D01*
X0241113Y0299859D01*
X0241177Y0301216D01*
X0241177Y0301217D02*
X0247083Y0301217D01*
X0247083Y0305154D02*
X0241177Y0305154D01*
X0226906Y0314996D02*
X0226906Y0291374D01*
X0226904Y0291276D01*
X0226898Y0291178D01*
X0226889Y0291081D01*
X0226875Y0290984D01*
X0226858Y0290888D01*
X0226836Y0290792D01*
X0226811Y0290698D01*
X0226783Y0290604D01*
X0226750Y0290512D01*
X0226714Y0290421D01*
X0226674Y0290331D01*
X0226631Y0290244D01*
X0226584Y0290158D01*
X0226534Y0290074D01*
X0226481Y0289992D01*
X0226424Y0289912D01*
X0226365Y0289834D01*
X0226302Y0289759D01*
X0226236Y0289686D01*
X0226168Y0289617D01*
X0226097Y0289549D01*
X0226023Y0289485D01*
X0225946Y0289424D01*
X0225868Y0289366D01*
X0225787Y0289311D01*
X0225704Y0289259D01*
X0225619Y0289211D01*
X0225532Y0289166D01*
X0225443Y0289124D01*
X0225353Y0289087D01*
X0225261Y0289052D01*
X0225168Y0289022D01*
X0225074Y0288995D01*
X0224979Y0288972D01*
X0224883Y0288952D01*
X0224786Y0288937D01*
X0224689Y0288925D01*
X0224592Y0288917D01*
X0224494Y0288913D01*
X0224396Y0288913D01*
X0224298Y0288917D01*
X0224201Y0288925D01*
X0224104Y0288937D01*
X0224007Y0288952D01*
X0223911Y0288972D01*
X0223816Y0288995D01*
X0223722Y0289022D01*
X0223629Y0289052D01*
X0223537Y0289087D01*
X0223447Y0289124D01*
X0223358Y0289166D01*
X0223271Y0289211D01*
X0223186Y0289259D01*
X0223103Y0289311D01*
X0223022Y0289366D01*
X0222944Y0289424D01*
X0222867Y0289485D01*
X0222793Y0289549D01*
X0222722Y0289617D01*
X0222654Y0289686D01*
X0222588Y0289759D01*
X0222525Y0289834D01*
X0222466Y0289912D01*
X0222409Y0289992D01*
X0222356Y0290074D01*
X0222306Y0290158D01*
X0222259Y0290244D01*
X0222216Y0290331D01*
X0222176Y0290421D01*
X0222140Y0290512D01*
X0222107Y0290604D01*
X0222079Y0290698D01*
X0222054Y0290792D01*
X0222032Y0290888D01*
X0222015Y0290984D01*
X0222001Y0291081D01*
X0221992Y0291178D01*
X0221986Y0291276D01*
X0221984Y0291374D01*
X0221984Y0314996D01*
X0221986Y0315094D01*
X0221992Y0315192D01*
X0222001Y0315289D01*
X0222015Y0315386D01*
X0222032Y0315482D01*
X0222054Y0315578D01*
X0222079Y0315672D01*
X0222107Y0315766D01*
X0222140Y0315858D01*
X0222176Y0315949D01*
X0222216Y0316039D01*
X0222259Y0316126D01*
X0222306Y0316212D01*
X0222356Y0316296D01*
X0222409Y0316378D01*
X0222466Y0316458D01*
X0222525Y0316536D01*
X0222588Y0316611D01*
X0222654Y0316684D01*
X0222722Y0316753D01*
X0222793Y0316821D01*
X0222867Y0316885D01*
X0222944Y0316946D01*
X0223022Y0317004D01*
X0223103Y0317059D01*
X0223186Y0317111D01*
X0223271Y0317159D01*
X0223358Y0317204D01*
X0223447Y0317246D01*
X0223537Y0317283D01*
X0223629Y0317318D01*
X0223722Y0317348D01*
X0223816Y0317375D01*
X0223911Y0317398D01*
X0224007Y0317418D01*
X0224104Y0317433D01*
X0224201Y0317445D01*
X0224298Y0317453D01*
X0224396Y0317457D01*
X0224494Y0317457D01*
X0224592Y0317453D01*
X0224689Y0317445D01*
X0224786Y0317433D01*
X0224883Y0317418D01*
X0224979Y0317398D01*
X0225074Y0317375D01*
X0225168Y0317348D01*
X0225261Y0317318D01*
X0225353Y0317283D01*
X0225443Y0317246D01*
X0225532Y0317204D01*
X0225619Y0317159D01*
X0225704Y0317111D01*
X0225787Y0317059D01*
X0225868Y0317004D01*
X0225946Y0316946D01*
X0226023Y0316885D01*
X0226097Y0316821D01*
X0226168Y0316753D01*
X0226236Y0316684D01*
X0226302Y0316611D01*
X0226365Y0316536D01*
X0226424Y0316458D01*
X0226481Y0316378D01*
X0226534Y0316296D01*
X0226584Y0316212D01*
X0226631Y0316126D01*
X0226674Y0316039D01*
X0226714Y0315949D01*
X0226750Y0315858D01*
X0226783Y0315766D01*
X0226811Y0315672D01*
X0226836Y0315578D01*
X0226858Y0315482D01*
X0226875Y0315386D01*
X0226889Y0315289D01*
X0226898Y0315192D01*
X0226904Y0315094D01*
X0226906Y0314996D01*
X0224445Y0314996D02*
X0224445Y0291374D01*
X0261354Y0291374D02*
X0261354Y0314996D01*
X0261356Y0315094D01*
X0261362Y0315192D01*
X0261371Y0315289D01*
X0261385Y0315386D01*
X0261402Y0315482D01*
X0261424Y0315578D01*
X0261449Y0315672D01*
X0261477Y0315766D01*
X0261510Y0315858D01*
X0261546Y0315949D01*
X0261586Y0316039D01*
X0261629Y0316126D01*
X0261676Y0316212D01*
X0261726Y0316296D01*
X0261779Y0316378D01*
X0261836Y0316458D01*
X0261895Y0316536D01*
X0261958Y0316611D01*
X0262024Y0316684D01*
X0262092Y0316753D01*
X0262163Y0316821D01*
X0262237Y0316885D01*
X0262314Y0316946D01*
X0262392Y0317004D01*
X0262473Y0317059D01*
X0262556Y0317111D01*
X0262641Y0317159D01*
X0262728Y0317204D01*
X0262817Y0317246D01*
X0262907Y0317283D01*
X0262999Y0317318D01*
X0263092Y0317348D01*
X0263186Y0317375D01*
X0263281Y0317398D01*
X0263377Y0317418D01*
X0263474Y0317433D01*
X0263571Y0317445D01*
X0263668Y0317453D01*
X0263766Y0317457D01*
X0263864Y0317457D01*
X0263962Y0317453D01*
X0264059Y0317445D01*
X0264156Y0317433D01*
X0264253Y0317418D01*
X0264349Y0317398D01*
X0264444Y0317375D01*
X0264538Y0317348D01*
X0264631Y0317318D01*
X0264723Y0317283D01*
X0264813Y0317246D01*
X0264902Y0317204D01*
X0264989Y0317159D01*
X0265074Y0317111D01*
X0265157Y0317059D01*
X0265238Y0317004D01*
X0265316Y0316946D01*
X0265393Y0316885D01*
X0265467Y0316821D01*
X0265538Y0316753D01*
X0265606Y0316684D01*
X0265672Y0316611D01*
X0265735Y0316536D01*
X0265794Y0316458D01*
X0265851Y0316378D01*
X0265904Y0316296D01*
X0265954Y0316212D01*
X0266001Y0316126D01*
X0266044Y0316039D01*
X0266084Y0315949D01*
X0266120Y0315858D01*
X0266153Y0315766D01*
X0266181Y0315672D01*
X0266206Y0315578D01*
X0266228Y0315482D01*
X0266245Y0315386D01*
X0266259Y0315289D01*
X0266268Y0315192D01*
X0266274Y0315094D01*
X0266276Y0314996D01*
X0266276Y0291374D01*
X0266274Y0291276D01*
X0266268Y0291178D01*
X0266259Y0291081D01*
X0266245Y0290984D01*
X0266228Y0290888D01*
X0266206Y0290792D01*
X0266181Y0290698D01*
X0266153Y0290604D01*
X0266120Y0290512D01*
X0266084Y0290421D01*
X0266044Y0290331D01*
X0266001Y0290244D01*
X0265954Y0290158D01*
X0265904Y0290074D01*
X0265851Y0289992D01*
X0265794Y0289912D01*
X0265735Y0289834D01*
X0265672Y0289759D01*
X0265606Y0289686D01*
X0265538Y0289617D01*
X0265467Y0289549D01*
X0265393Y0289485D01*
X0265316Y0289424D01*
X0265238Y0289366D01*
X0265157Y0289311D01*
X0265074Y0289259D01*
X0264989Y0289211D01*
X0264902Y0289166D01*
X0264813Y0289124D01*
X0264723Y0289087D01*
X0264631Y0289052D01*
X0264538Y0289022D01*
X0264444Y0288995D01*
X0264349Y0288972D01*
X0264253Y0288952D01*
X0264156Y0288937D01*
X0264059Y0288925D01*
X0263962Y0288917D01*
X0263864Y0288913D01*
X0263766Y0288913D01*
X0263668Y0288917D01*
X0263571Y0288925D01*
X0263474Y0288937D01*
X0263377Y0288952D01*
X0263281Y0288972D01*
X0263186Y0288995D01*
X0263092Y0289022D01*
X0262999Y0289052D01*
X0262907Y0289087D01*
X0262817Y0289124D01*
X0262728Y0289166D01*
X0262641Y0289211D01*
X0262556Y0289259D01*
X0262473Y0289311D01*
X0262392Y0289366D01*
X0262314Y0289424D01*
X0262237Y0289485D01*
X0262163Y0289549D01*
X0262092Y0289617D01*
X0262024Y0289686D01*
X0261958Y0289759D01*
X0261895Y0289834D01*
X0261836Y0289912D01*
X0261779Y0289992D01*
X0261726Y0290074D01*
X0261676Y0290158D01*
X0261629Y0290244D01*
X0261586Y0290331D01*
X0261546Y0290421D01*
X0261510Y0290512D01*
X0261477Y0290604D01*
X0261449Y0290698D01*
X0261424Y0290792D01*
X0261402Y0290888D01*
X0261385Y0290984D01*
X0261371Y0291081D01*
X0261362Y0291178D01*
X0261356Y0291276D01*
X0261354Y0291374D01*
X0263815Y0291374D02*
X0263815Y0314996D01*
X0305154Y0247083D02*
X0306511Y0247147D01*
X0307866Y0247243D01*
X0309218Y0247373D01*
X0310567Y0247536D01*
X0311912Y0247731D01*
X0313252Y0247958D01*
X0314585Y0248218D01*
X0315912Y0248510D01*
X0317232Y0248834D01*
X0318543Y0249190D01*
X0319845Y0249577D01*
X0321138Y0249996D01*
X0322420Y0250446D01*
X0323691Y0250927D01*
X0324949Y0251439D01*
X0326195Y0251981D01*
X0327428Y0252552D01*
X0328646Y0253154D01*
X0329849Y0253785D01*
X0331037Y0254445D01*
X0332209Y0255133D01*
X0333363Y0255849D01*
X0334500Y0256594D01*
X0335618Y0257365D01*
X0336718Y0258164D01*
X0337797Y0258988D01*
X0338857Y0259839D01*
X0339895Y0260715D01*
X0340913Y0261616D01*
X0341908Y0262541D01*
X0342880Y0263490D01*
X0343829Y0264462D01*
X0344754Y0265457D01*
X0345655Y0266475D01*
X0346531Y0267513D01*
X0347382Y0268573D01*
X0348206Y0269652D01*
X0349005Y0270752D01*
X0349776Y0271870D01*
X0350521Y0273007D01*
X0351237Y0274161D01*
X0351925Y0275333D01*
X0352585Y0276521D01*
X0353216Y0277724D01*
X0353818Y0278942D01*
X0354389Y0280175D01*
X0354931Y0281421D01*
X0355443Y0282679D01*
X0355924Y0283950D01*
X0356374Y0285232D01*
X0356793Y0286525D01*
X0357180Y0287827D01*
X0357536Y0289138D01*
X0357860Y0290458D01*
X0358152Y0291785D01*
X0358412Y0293118D01*
X0358639Y0294458D01*
X0358834Y0295803D01*
X0358997Y0297152D01*
X0359127Y0298504D01*
X0359223Y0299859D01*
X0359287Y0301216D01*
X0345016Y0291374D02*
X0345016Y0314996D01*
X0345014Y0315094D01*
X0345008Y0315192D01*
X0344999Y0315289D01*
X0344985Y0315386D01*
X0344968Y0315482D01*
X0344946Y0315578D01*
X0344921Y0315672D01*
X0344893Y0315766D01*
X0344860Y0315858D01*
X0344824Y0315949D01*
X0344784Y0316039D01*
X0344741Y0316126D01*
X0344694Y0316212D01*
X0344644Y0316296D01*
X0344591Y0316378D01*
X0344534Y0316458D01*
X0344475Y0316536D01*
X0344412Y0316611D01*
X0344346Y0316684D01*
X0344278Y0316753D01*
X0344207Y0316821D01*
X0344133Y0316885D01*
X0344056Y0316946D01*
X0343978Y0317004D01*
X0343897Y0317059D01*
X0343814Y0317111D01*
X0343729Y0317159D01*
X0343642Y0317204D01*
X0343553Y0317246D01*
X0343463Y0317283D01*
X0343371Y0317318D01*
X0343278Y0317348D01*
X0343184Y0317375D01*
X0343089Y0317398D01*
X0342993Y0317418D01*
X0342896Y0317433D01*
X0342799Y0317445D01*
X0342702Y0317453D01*
X0342604Y0317457D01*
X0342506Y0317457D01*
X0342408Y0317453D01*
X0342311Y0317445D01*
X0342214Y0317433D01*
X0342117Y0317418D01*
X0342021Y0317398D01*
X0341926Y0317375D01*
X0341832Y0317348D01*
X0341739Y0317318D01*
X0341647Y0317283D01*
X0341557Y0317246D01*
X0341468Y0317204D01*
X0341381Y0317159D01*
X0341296Y0317111D01*
X0341213Y0317059D01*
X0341132Y0317004D01*
X0341054Y0316946D01*
X0340977Y0316885D01*
X0340903Y0316821D01*
X0340832Y0316753D01*
X0340764Y0316684D01*
X0340698Y0316611D01*
X0340635Y0316536D01*
X0340576Y0316458D01*
X0340519Y0316378D01*
X0340466Y0316296D01*
X0340416Y0316212D01*
X0340369Y0316126D01*
X0340326Y0316039D01*
X0340286Y0315949D01*
X0340250Y0315858D01*
X0340217Y0315766D01*
X0340189Y0315672D01*
X0340164Y0315578D01*
X0340142Y0315482D01*
X0340125Y0315386D01*
X0340111Y0315289D01*
X0340102Y0315192D01*
X0340096Y0315094D01*
X0340094Y0314996D01*
X0340094Y0291374D01*
X0340096Y0291276D01*
X0340102Y0291178D01*
X0340111Y0291081D01*
X0340125Y0290984D01*
X0340142Y0290888D01*
X0340164Y0290792D01*
X0340189Y0290698D01*
X0340217Y0290604D01*
X0340250Y0290512D01*
X0340286Y0290421D01*
X0340326Y0290331D01*
X0340369Y0290244D01*
X0340416Y0290158D01*
X0340466Y0290074D01*
X0340519Y0289992D01*
X0340576Y0289912D01*
X0340635Y0289834D01*
X0340698Y0289759D01*
X0340764Y0289686D01*
X0340832Y0289617D01*
X0340903Y0289549D01*
X0340977Y0289485D01*
X0341054Y0289424D01*
X0341132Y0289366D01*
X0341213Y0289311D01*
X0341296Y0289259D01*
X0341381Y0289211D01*
X0341468Y0289166D01*
X0341557Y0289124D01*
X0341647Y0289087D01*
X0341739Y0289052D01*
X0341832Y0289022D01*
X0341926Y0288995D01*
X0342021Y0288972D01*
X0342117Y0288952D01*
X0342214Y0288937D01*
X0342311Y0288925D01*
X0342408Y0288917D01*
X0342506Y0288913D01*
X0342604Y0288913D01*
X0342702Y0288917D01*
X0342799Y0288925D01*
X0342896Y0288937D01*
X0342993Y0288952D01*
X0343089Y0288972D01*
X0343184Y0288995D01*
X0343278Y0289022D01*
X0343371Y0289052D01*
X0343463Y0289087D01*
X0343553Y0289124D01*
X0343642Y0289166D01*
X0343729Y0289211D01*
X0343814Y0289259D01*
X0343897Y0289311D01*
X0343978Y0289366D01*
X0344056Y0289424D01*
X0344133Y0289485D01*
X0344207Y0289549D01*
X0344278Y0289617D01*
X0344346Y0289686D01*
X0344412Y0289759D01*
X0344475Y0289834D01*
X0344534Y0289912D01*
X0344591Y0289992D01*
X0344644Y0290074D01*
X0344694Y0290158D01*
X0344741Y0290244D01*
X0344784Y0290331D01*
X0344824Y0290421D01*
X0344860Y0290512D01*
X0344893Y0290604D01*
X0344921Y0290698D01*
X0344946Y0290792D01*
X0344968Y0290888D01*
X0344985Y0290984D01*
X0344999Y0291081D01*
X0345008Y0291178D01*
X0345014Y0291276D01*
X0345016Y0291374D01*
X0342555Y0291374D02*
X0342555Y0314996D01*
X0301216Y0247083D02*
X0299859Y0247147D01*
X0298504Y0247243D01*
X0297152Y0247373D01*
X0295803Y0247536D01*
X0294458Y0247731D01*
X0293118Y0247958D01*
X0291785Y0248218D01*
X0290458Y0248510D01*
X0289138Y0248834D01*
X0287827Y0249190D01*
X0286525Y0249577D01*
X0285232Y0249996D01*
X0283950Y0250446D01*
X0282679Y0250927D01*
X0281421Y0251439D01*
X0280175Y0251981D01*
X0278942Y0252552D01*
X0277724Y0253154D01*
X0276521Y0253785D01*
X0275333Y0254445D01*
X0274161Y0255133D01*
X0273007Y0255849D01*
X0271870Y0256594D01*
X0270752Y0257365D01*
X0269652Y0258164D01*
X0268573Y0258988D01*
X0267513Y0259839D01*
X0266475Y0260715D01*
X0265457Y0261616D01*
X0264462Y0262541D01*
X0263490Y0263490D01*
X0262541Y0264462D01*
X0261616Y0265457D01*
X0260715Y0266475D01*
X0259839Y0267513D01*
X0258988Y0268573D01*
X0258164Y0269652D01*
X0257365Y0270752D01*
X0256594Y0271870D01*
X0255849Y0273007D01*
X0255133Y0274161D01*
X0254445Y0275333D01*
X0253785Y0276521D01*
X0253154Y0277724D01*
X0252552Y0278942D01*
X0251981Y0280175D01*
X0251439Y0281421D01*
X0250927Y0282679D01*
X0250446Y0283950D01*
X0249996Y0285232D01*
X0249577Y0286525D01*
X0249190Y0287827D01*
X0248834Y0289138D01*
X0248510Y0290458D01*
X0248218Y0291785D01*
X0247958Y0293118D01*
X0247731Y0294458D01*
X0247536Y0295803D01*
X0247373Y0297152D01*
X0247243Y0298504D01*
X0247147Y0299859D01*
X0247083Y0301216D01*
X0305154Y0359287D02*
X0306511Y0359223D01*
X0307866Y0359127D01*
X0309218Y0358997D01*
X0310567Y0358834D01*
X0311912Y0358639D01*
X0313252Y0358412D01*
X0314585Y0358152D01*
X0315912Y0357860D01*
X0317232Y0357536D01*
X0318543Y0357180D01*
X0319845Y0356793D01*
X0321138Y0356374D01*
X0322420Y0355924D01*
X0323691Y0355443D01*
X0324949Y0354931D01*
X0326195Y0354389D01*
X0327428Y0353818D01*
X0328646Y0353216D01*
X0329849Y0352585D01*
X0331037Y0351925D01*
X0332209Y0351237D01*
X0333363Y0350521D01*
X0334500Y0349776D01*
X0335618Y0349005D01*
X0336718Y0348206D01*
X0337797Y0347382D01*
X0338857Y0346531D01*
X0339895Y0345655D01*
X0340913Y0344754D01*
X0341908Y0343829D01*
X0342880Y0342880D01*
X0343829Y0341908D01*
X0344754Y0340913D01*
X0345655Y0339895D01*
X0346531Y0338857D01*
X0347382Y0337797D01*
X0348206Y0336718D01*
X0349005Y0335618D01*
X0349776Y0334500D01*
X0350521Y0333363D01*
X0351237Y0332209D01*
X0351925Y0331037D01*
X0352585Y0329849D01*
X0353216Y0328646D01*
X0353818Y0327428D01*
X0354389Y0326195D01*
X0354931Y0324949D01*
X0355443Y0323691D01*
X0355924Y0322420D01*
X0356374Y0321138D01*
X0356793Y0319845D01*
X0357180Y0318543D01*
X0357536Y0317232D01*
X0357860Y0315912D01*
X0358152Y0314585D01*
X0358412Y0313252D01*
X0358639Y0311912D01*
X0358834Y0310567D01*
X0358997Y0309218D01*
X0359127Y0307866D01*
X0359223Y0306511D01*
X0359287Y0305154D01*
X0301216Y0247083D02*
X0299859Y0247147D01*
X0298504Y0247243D01*
X0297152Y0247373D01*
X0295803Y0247536D01*
X0294458Y0247731D01*
X0293118Y0247958D01*
X0291785Y0248218D01*
X0290458Y0248510D01*
X0289138Y0248834D01*
X0287827Y0249190D01*
X0286525Y0249577D01*
X0285232Y0249996D01*
X0283950Y0250446D01*
X0282679Y0250927D01*
X0281421Y0251439D01*
X0280175Y0251981D01*
X0278942Y0252552D01*
X0277724Y0253154D01*
X0276521Y0253785D01*
X0275333Y0254445D01*
X0274161Y0255133D01*
X0273007Y0255849D01*
X0271870Y0256594D01*
X0270752Y0257365D01*
X0269652Y0258164D01*
X0268573Y0258988D01*
X0267513Y0259839D01*
X0266475Y0260715D01*
X0265457Y0261616D01*
X0264462Y0262541D01*
X0263490Y0263490D01*
X0262541Y0264462D01*
X0261616Y0265457D01*
X0260715Y0266475D01*
X0259839Y0267513D01*
X0258988Y0268573D01*
X0258164Y0269652D01*
X0257365Y0270752D01*
X0256594Y0271870D01*
X0255849Y0273007D01*
X0255133Y0274161D01*
X0254445Y0275333D01*
X0253785Y0276521D01*
X0253154Y0277724D01*
X0252552Y0278942D01*
X0251981Y0280175D01*
X0251439Y0281421D01*
X0250927Y0282679D01*
X0250446Y0283950D01*
X0249996Y0285232D01*
X0249577Y0286525D01*
X0249190Y0287827D01*
X0248834Y0289138D01*
X0248510Y0290458D01*
X0248218Y0291785D01*
X0247958Y0293118D01*
X0247731Y0294458D01*
X0247536Y0295803D01*
X0247373Y0297152D01*
X0247243Y0298504D01*
X0247147Y0299859D01*
X0247083Y0301216D01*
X0247083Y0305154D02*
X0247147Y0306511D01*
X0247243Y0307866D01*
X0247373Y0309218D01*
X0247536Y0310567D01*
X0247731Y0311912D01*
X0247958Y0313252D01*
X0248218Y0314585D01*
X0248510Y0315912D01*
X0248834Y0317232D01*
X0249190Y0318543D01*
X0249577Y0319845D01*
X0249996Y0321138D01*
X0250446Y0322420D01*
X0250927Y0323691D01*
X0251439Y0324949D01*
X0251981Y0326195D01*
X0252552Y0327428D01*
X0253154Y0328646D01*
X0253785Y0329849D01*
X0254445Y0331037D01*
X0255133Y0332209D01*
X0255849Y0333363D01*
X0256594Y0334500D01*
X0257365Y0335618D01*
X0258164Y0336718D01*
X0258988Y0337797D01*
X0259839Y0338857D01*
X0260715Y0339895D01*
X0261616Y0340913D01*
X0262541Y0341908D01*
X0263490Y0342880D01*
X0264462Y0343829D01*
X0265457Y0344754D01*
X0266475Y0345655D01*
X0267513Y0346531D01*
X0268573Y0347382D01*
X0269652Y0348206D01*
X0270752Y0349005D01*
X0271870Y0349776D01*
X0273007Y0350521D01*
X0274161Y0351237D01*
X0275333Y0351925D01*
X0276521Y0352585D01*
X0277724Y0353216D01*
X0278942Y0353818D01*
X0280175Y0354389D01*
X0281421Y0354931D01*
X0282679Y0355443D01*
X0283950Y0355924D01*
X0285232Y0356374D01*
X0286525Y0356793D01*
X0287827Y0357180D01*
X0289138Y0357536D01*
X0290458Y0357860D01*
X0291785Y0358152D01*
X0293118Y0358412D01*
X0294458Y0358639D01*
X0295803Y0358834D01*
X0297152Y0358997D01*
X0298504Y0359127D01*
X0299859Y0359223D01*
X0301216Y0359287D01*
X0271689Y0303185D02*
X0271698Y0303958D01*
X0271727Y0304730D01*
X0271774Y0305502D01*
X0271841Y0306272D01*
X0271926Y0307040D01*
X0272030Y0307806D01*
X0272153Y0308570D01*
X0272294Y0309330D01*
X0272454Y0310086D01*
X0272633Y0310838D01*
X0272830Y0311585D01*
X0273045Y0312328D01*
X0273279Y0313065D01*
X0273530Y0313796D01*
X0273799Y0314520D01*
X0274086Y0315238D01*
X0274391Y0315948D01*
X0274713Y0316651D01*
X0275052Y0317346D01*
X0275408Y0318032D01*
X0275781Y0318709D01*
X0276170Y0319377D01*
X0276575Y0320035D01*
X0276997Y0320683D01*
X0277434Y0321321D01*
X0277887Y0321947D01*
X0278355Y0322562D01*
X0278838Y0323166D01*
X0279336Y0323757D01*
X0279848Y0324336D01*
X0280374Y0324903D01*
X0280914Y0325456D01*
X0281467Y0325996D01*
X0282034Y0326522D01*
X0282613Y0327034D01*
X0283204Y0327532D01*
X0283808Y0328015D01*
X0284423Y0328483D01*
X0285049Y0328936D01*
X0285687Y0329373D01*
X0286335Y0329795D01*
X0286993Y0330200D01*
X0287661Y0330589D01*
X0288338Y0330962D01*
X0289024Y0331318D01*
X0289719Y0331657D01*
X0290422Y0331979D01*
X0291132Y0332284D01*
X0291850Y0332571D01*
X0292574Y0332840D01*
X0293305Y0333091D01*
X0294042Y0333325D01*
X0294785Y0333540D01*
X0295532Y0333737D01*
X0296284Y0333916D01*
X0297040Y0334076D01*
X0297800Y0334217D01*
X0298564Y0334340D01*
X0299330Y0334444D01*
X0300098Y0334529D01*
X0300868Y0334596D01*
X0301640Y0334643D01*
X0302412Y0334672D01*
X0303185Y0334681D01*
X0303958Y0334672D01*
X0304730Y0334643D01*
X0305502Y0334596D01*
X0306272Y0334529D01*
X0307040Y0334444D01*
X0307806Y0334340D01*
X0308570Y0334217D01*
X0309330Y0334076D01*
X0310086Y0333916D01*
X0310838Y0333737D01*
X0311585Y0333540D01*
X0312328Y0333325D01*
X0313065Y0333091D01*
X0313796Y0332840D01*
X0314520Y0332571D01*
X0315238Y0332284D01*
X0315948Y0331979D01*
X0316651Y0331657D01*
X0317346Y0331318D01*
X0318032Y0330962D01*
X0318709Y0330589D01*
X0319377Y0330200D01*
X0320035Y0329795D01*
X0320683Y0329373D01*
X0321321Y0328936D01*
X0321947Y0328483D01*
X0322562Y0328015D01*
X0323166Y0327532D01*
X0323757Y0327034D01*
X0324336Y0326522D01*
X0324903Y0325996D01*
X0325456Y0325456D01*
X0325996Y0324903D01*
X0326522Y0324336D01*
X0327034Y0323757D01*
X0327532Y0323166D01*
X0328015Y0322562D01*
X0328483Y0321947D01*
X0328936Y0321321D01*
X0329373Y0320683D01*
X0329795Y0320035D01*
X0330200Y0319377D01*
X0330589Y0318709D01*
X0330962Y0318032D01*
X0331318Y0317346D01*
X0331657Y0316651D01*
X0331979Y0315948D01*
X0332284Y0315238D01*
X0332571Y0314520D01*
X0332840Y0313796D01*
X0333091Y0313065D01*
X0333325Y0312328D01*
X0333540Y0311585D01*
X0333737Y0310838D01*
X0333916Y0310086D01*
X0334076Y0309330D01*
X0334217Y0308570D01*
X0334340Y0307806D01*
X0334444Y0307040D01*
X0334529Y0306272D01*
X0334596Y0305502D01*
X0334643Y0304730D01*
X0334672Y0303958D01*
X0334681Y0303185D01*
X0334672Y0302412D01*
X0334643Y0301640D01*
X0334596Y0300868D01*
X0334529Y0300098D01*
X0334444Y0299330D01*
X0334340Y0298564D01*
X0334217Y0297800D01*
X0334076Y0297040D01*
X0333916Y0296284D01*
X0333737Y0295532D01*
X0333540Y0294785D01*
X0333325Y0294042D01*
X0333091Y0293305D01*
X0332840Y0292574D01*
X0332571Y0291850D01*
X0332284Y0291132D01*
X0331979Y0290422D01*
X0331657Y0289719D01*
X0331318Y0289024D01*
X0330962Y0288338D01*
X0330589Y0287661D01*
X0330200Y0286993D01*
X0329795Y0286335D01*
X0329373Y0285687D01*
X0328936Y0285049D01*
X0328483Y0284423D01*
X0328015Y0283808D01*
X0327532Y0283204D01*
X0327034Y0282613D01*
X0326522Y0282034D01*
X0325996Y0281467D01*
X0325456Y0280914D01*
X0324903Y0280374D01*
X0324336Y0279848D01*
X0323757Y0279336D01*
X0323166Y0278838D01*
X0322562Y0278355D01*
X0321947Y0277887D01*
X0321321Y0277434D01*
X0320683Y0276997D01*
X0320035Y0276575D01*
X0319377Y0276170D01*
X0318709Y0275781D01*
X0318032Y0275408D01*
X0317346Y0275052D01*
X0316651Y0274713D01*
X0315948Y0274391D01*
X0315238Y0274086D01*
X0314520Y0273799D01*
X0313796Y0273530D01*
X0313065Y0273279D01*
X0312328Y0273045D01*
X0311585Y0272830D01*
X0310838Y0272633D01*
X0310086Y0272454D01*
X0309330Y0272294D01*
X0308570Y0272153D01*
X0307806Y0272030D01*
X0307040Y0271926D01*
X0306272Y0271841D01*
X0305502Y0271774D01*
X0304730Y0271727D01*
X0303958Y0271698D01*
X0303185Y0271689D01*
X0302412Y0271698D01*
X0301640Y0271727D01*
X0300868Y0271774D01*
X0300098Y0271841D01*
X0299330Y0271926D01*
X0298564Y0272030D01*
X0297800Y0272153D01*
X0297040Y0272294D01*
X0296284Y0272454D01*
X0295532Y0272633D01*
X0294785Y0272830D01*
X0294042Y0273045D01*
X0293305Y0273279D01*
X0292574Y0273530D01*
X0291850Y0273799D01*
X0291132Y0274086D01*
X0290422Y0274391D01*
X0289719Y0274713D01*
X0289024Y0275052D01*
X0288338Y0275408D01*
X0287661Y0275781D01*
X0286993Y0276170D01*
X0286335Y0276575D01*
X0285687Y0276997D01*
X0285049Y0277434D01*
X0284423Y0277887D01*
X0283808Y0278355D01*
X0283204Y0278838D01*
X0282613Y0279336D01*
X0282034Y0279848D01*
X0281467Y0280374D01*
X0280914Y0280914D01*
X0280374Y0281467D01*
X0279848Y0282034D01*
X0279336Y0282613D01*
X0278838Y0283204D01*
X0278355Y0283808D01*
X0277887Y0284423D01*
X0277434Y0285049D01*
X0276997Y0285687D01*
X0276575Y0286335D01*
X0276170Y0286993D01*
X0275781Y0287661D01*
X0275408Y0288338D01*
X0275052Y0289024D01*
X0274713Y0289719D01*
X0274391Y0290422D01*
X0274086Y0291132D01*
X0273799Y0291850D01*
X0273530Y0292574D01*
X0273279Y0293305D01*
X0273045Y0294042D01*
X0272830Y0294785D01*
X0272633Y0295532D01*
X0272454Y0296284D01*
X0272294Y0297040D01*
X0272153Y0297800D01*
X0272030Y0298564D01*
X0271926Y0299330D01*
X0271841Y0300098D01*
X0271774Y0300868D01*
X0271727Y0301640D01*
X0271698Y0302412D01*
X0271689Y0303185D01*
X0301217Y0247083D02*
X0301217Y0241177D01*
X0305154Y0241177D02*
X0305154Y0247083D01*
X0340094Y0196886D02*
X0340094Y0173264D01*
X0340096Y0173166D01*
X0340102Y0173068D01*
X0340111Y0172971D01*
X0340125Y0172874D01*
X0340142Y0172778D01*
X0340164Y0172682D01*
X0340189Y0172588D01*
X0340217Y0172494D01*
X0340250Y0172402D01*
X0340286Y0172311D01*
X0340326Y0172221D01*
X0340369Y0172134D01*
X0340416Y0172048D01*
X0340466Y0171964D01*
X0340519Y0171882D01*
X0340576Y0171802D01*
X0340635Y0171724D01*
X0340698Y0171649D01*
X0340764Y0171576D01*
X0340832Y0171507D01*
X0340903Y0171439D01*
X0340977Y0171375D01*
X0341054Y0171314D01*
X0341132Y0171256D01*
X0341213Y0171201D01*
X0341296Y0171149D01*
X0341381Y0171101D01*
X0341468Y0171056D01*
X0341557Y0171014D01*
X0341647Y0170977D01*
X0341739Y0170942D01*
X0341832Y0170912D01*
X0341926Y0170885D01*
X0342021Y0170862D01*
X0342117Y0170842D01*
X0342214Y0170827D01*
X0342311Y0170815D01*
X0342408Y0170807D01*
X0342506Y0170803D01*
X0342604Y0170803D01*
X0342702Y0170807D01*
X0342799Y0170815D01*
X0342896Y0170827D01*
X0342993Y0170842D01*
X0343089Y0170862D01*
X0343184Y0170885D01*
X0343278Y0170912D01*
X0343371Y0170942D01*
X0343463Y0170977D01*
X0343553Y0171014D01*
X0343642Y0171056D01*
X0343729Y0171101D01*
X0343814Y0171149D01*
X0343897Y0171201D01*
X0343978Y0171256D01*
X0344056Y0171314D01*
X0344133Y0171375D01*
X0344207Y0171439D01*
X0344278Y0171507D01*
X0344346Y0171576D01*
X0344412Y0171649D01*
X0344475Y0171724D01*
X0344534Y0171802D01*
X0344591Y0171882D01*
X0344644Y0171964D01*
X0344694Y0172048D01*
X0344741Y0172134D01*
X0344784Y0172221D01*
X0344824Y0172311D01*
X0344860Y0172402D01*
X0344893Y0172494D01*
X0344921Y0172588D01*
X0344946Y0172682D01*
X0344968Y0172778D01*
X0344985Y0172874D01*
X0344999Y0172971D01*
X0345008Y0173068D01*
X0345014Y0173166D01*
X0345016Y0173264D01*
X0345016Y0196886D01*
X0345014Y0196984D01*
X0345008Y0197082D01*
X0344999Y0197179D01*
X0344985Y0197276D01*
X0344968Y0197372D01*
X0344946Y0197468D01*
X0344921Y0197562D01*
X0344893Y0197656D01*
X0344860Y0197748D01*
X0344824Y0197839D01*
X0344784Y0197929D01*
X0344741Y0198016D01*
X0344694Y0198102D01*
X0344644Y0198186D01*
X0344591Y0198268D01*
X0344534Y0198348D01*
X0344475Y0198426D01*
X0344412Y0198501D01*
X0344346Y0198574D01*
X0344278Y0198643D01*
X0344207Y0198711D01*
X0344133Y0198775D01*
X0344056Y0198836D01*
X0343978Y0198894D01*
X0343897Y0198949D01*
X0343814Y0199001D01*
X0343729Y0199049D01*
X0343642Y0199094D01*
X0343553Y0199136D01*
X0343463Y0199173D01*
X0343371Y0199208D01*
X0343278Y0199238D01*
X0343184Y0199265D01*
X0343089Y0199288D01*
X0342993Y0199308D01*
X0342896Y0199323D01*
X0342799Y0199335D01*
X0342702Y0199343D01*
X0342604Y0199347D01*
X0342506Y0199347D01*
X0342408Y0199343D01*
X0342311Y0199335D01*
X0342214Y0199323D01*
X0342117Y0199308D01*
X0342021Y0199288D01*
X0341926Y0199265D01*
X0341832Y0199238D01*
X0341739Y0199208D01*
X0341647Y0199173D01*
X0341557Y0199136D01*
X0341468Y0199094D01*
X0341381Y0199049D01*
X0341296Y0199001D01*
X0341213Y0198949D01*
X0341132Y0198894D01*
X0341054Y0198836D01*
X0340977Y0198775D01*
X0340903Y0198711D01*
X0340832Y0198643D01*
X0340764Y0198574D01*
X0340698Y0198501D01*
X0340635Y0198426D01*
X0340576Y0198348D01*
X0340519Y0198268D01*
X0340466Y0198186D01*
X0340416Y0198102D01*
X0340369Y0198016D01*
X0340326Y0197929D01*
X0340286Y0197839D01*
X0340250Y0197748D01*
X0340217Y0197656D01*
X0340189Y0197562D01*
X0340164Y0197468D01*
X0340142Y0197372D01*
X0340125Y0197276D01*
X0340111Y0197179D01*
X0340102Y0197082D01*
X0340096Y0196984D01*
X0340094Y0196886D01*
X0342555Y0196886D02*
X0342555Y0173264D01*
X0301216Y0128973D02*
X0299859Y0129037D01*
X0298504Y0129133D01*
X0297152Y0129263D01*
X0295803Y0129426D01*
X0294458Y0129621D01*
X0293118Y0129848D01*
X0291785Y0130108D01*
X0290458Y0130400D01*
X0289138Y0130724D01*
X0287827Y0131080D01*
X0286525Y0131467D01*
X0285232Y0131886D01*
X0283950Y0132336D01*
X0282679Y0132817D01*
X0281421Y0133329D01*
X0280175Y0133871D01*
X0278942Y0134442D01*
X0277724Y0135044D01*
X0276521Y0135675D01*
X0275333Y0136335D01*
X0274161Y0137023D01*
X0273007Y0137739D01*
X0271870Y0138484D01*
X0270752Y0139255D01*
X0269652Y0140054D01*
X0268573Y0140878D01*
X0267513Y0141729D01*
X0266475Y0142605D01*
X0265457Y0143506D01*
X0264462Y0144431D01*
X0263490Y0145380D01*
X0262541Y0146352D01*
X0261616Y0147347D01*
X0260715Y0148365D01*
X0259839Y0149403D01*
X0258988Y0150463D01*
X0258164Y0151542D01*
X0257365Y0152642D01*
X0256594Y0153760D01*
X0255849Y0154897D01*
X0255133Y0156051D01*
X0254445Y0157223D01*
X0253785Y0158411D01*
X0253154Y0159614D01*
X0252552Y0160832D01*
X0251981Y0162065D01*
X0251439Y0163311D01*
X0250927Y0164569D01*
X0250446Y0165840D01*
X0249996Y0167122D01*
X0249577Y0168415D01*
X0249190Y0169717D01*
X0248834Y0171028D01*
X0248510Y0172348D01*
X0248218Y0173675D01*
X0247958Y0175008D01*
X0247731Y0176348D01*
X0247536Y0177693D01*
X0247373Y0179042D01*
X0247243Y0180394D01*
X0247147Y0181749D01*
X0247083Y0183106D01*
X0305154Y0241177D02*
X0306511Y0241113D01*
X0307866Y0241017D01*
X0309218Y0240887D01*
X0310567Y0240724D01*
X0311912Y0240529D01*
X0313252Y0240302D01*
X0314585Y0240042D01*
X0315912Y0239750D01*
X0317232Y0239426D01*
X0318543Y0239070D01*
X0319845Y0238683D01*
X0321138Y0238264D01*
X0322420Y0237814D01*
X0323691Y0237333D01*
X0324949Y0236821D01*
X0326195Y0236279D01*
X0327428Y0235708D01*
X0328646Y0235106D01*
X0329849Y0234475D01*
X0331037Y0233815D01*
X0332209Y0233127D01*
X0333363Y0232411D01*
X0334500Y0231666D01*
X0335618Y0230895D01*
X0336718Y0230096D01*
X0337797Y0229272D01*
X0338857Y0228421D01*
X0339895Y0227545D01*
X0340913Y0226644D01*
X0341908Y0225719D01*
X0342880Y0224770D01*
X0343829Y0223798D01*
X0344754Y0222803D01*
X0345655Y0221785D01*
X0346531Y0220747D01*
X0347382Y0219687D01*
X0348206Y0218608D01*
X0349005Y0217508D01*
X0349776Y0216390D01*
X0350521Y0215253D01*
X0351237Y0214099D01*
X0351925Y0212927D01*
X0352585Y0211739D01*
X0353216Y0210536D01*
X0353818Y0209318D01*
X0354389Y0208085D01*
X0354931Y0206839D01*
X0355443Y0205581D01*
X0355924Y0204310D01*
X0356374Y0203028D01*
X0356793Y0201735D01*
X0357180Y0200433D01*
X0357536Y0199122D01*
X0357860Y0197802D01*
X0358152Y0196475D01*
X0358412Y0195142D01*
X0358639Y0193802D01*
X0358834Y0192457D01*
X0358997Y0191108D01*
X0359127Y0189756D01*
X0359223Y0188401D01*
X0359287Y0187044D01*
X0301216Y0128973D02*
X0299859Y0129037D01*
X0298504Y0129133D01*
X0297152Y0129263D01*
X0295803Y0129426D01*
X0294458Y0129621D01*
X0293118Y0129848D01*
X0291785Y0130108D01*
X0290458Y0130400D01*
X0289138Y0130724D01*
X0287827Y0131080D01*
X0286525Y0131467D01*
X0285232Y0131886D01*
X0283950Y0132336D01*
X0282679Y0132817D01*
X0281421Y0133329D01*
X0280175Y0133871D01*
X0278942Y0134442D01*
X0277724Y0135044D01*
X0276521Y0135675D01*
X0275333Y0136335D01*
X0274161Y0137023D01*
X0273007Y0137739D01*
X0271870Y0138484D01*
X0270752Y0139255D01*
X0269652Y0140054D01*
X0268573Y0140878D01*
X0267513Y0141729D01*
X0266475Y0142605D01*
X0265457Y0143506D01*
X0264462Y0144431D01*
X0263490Y0145380D01*
X0262541Y0146352D01*
X0261616Y0147347D01*
X0260715Y0148365D01*
X0259839Y0149403D01*
X0258988Y0150463D01*
X0258164Y0151542D01*
X0257365Y0152642D01*
X0256594Y0153760D01*
X0255849Y0154897D01*
X0255133Y0156051D01*
X0254445Y0157223D01*
X0253785Y0158411D01*
X0253154Y0159614D01*
X0252552Y0160832D01*
X0251981Y0162065D01*
X0251439Y0163311D01*
X0250927Y0164569D01*
X0250446Y0165840D01*
X0249996Y0167122D01*
X0249577Y0168415D01*
X0249190Y0169717D01*
X0248834Y0171028D01*
X0248510Y0172348D01*
X0248218Y0173675D01*
X0247958Y0175008D01*
X0247731Y0176348D01*
X0247536Y0177693D01*
X0247373Y0179042D01*
X0247243Y0180394D01*
X0247147Y0181749D01*
X0247083Y0183106D01*
X0305154Y0128973D02*
X0306511Y0129037D01*
X0307866Y0129133D01*
X0309218Y0129263D01*
X0310567Y0129426D01*
X0311912Y0129621D01*
X0313252Y0129848D01*
X0314585Y0130108D01*
X0315912Y0130400D01*
X0317232Y0130724D01*
X0318543Y0131080D01*
X0319845Y0131467D01*
X0321138Y0131886D01*
X0322420Y0132336D01*
X0323691Y0132817D01*
X0324949Y0133329D01*
X0326195Y0133871D01*
X0327428Y0134442D01*
X0328646Y0135044D01*
X0329849Y0135675D01*
X0331037Y0136335D01*
X0332209Y0137023D01*
X0333363Y0137739D01*
X0334500Y0138484D01*
X0335618Y0139255D01*
X0336718Y0140054D01*
X0337797Y0140878D01*
X0338857Y0141729D01*
X0339895Y0142605D01*
X0340913Y0143506D01*
X0341908Y0144431D01*
X0342880Y0145380D01*
X0343829Y0146352D01*
X0344754Y0147347D01*
X0345655Y0148365D01*
X0346531Y0149403D01*
X0347382Y0150463D01*
X0348206Y0151542D01*
X0349005Y0152642D01*
X0349776Y0153760D01*
X0350521Y0154897D01*
X0351237Y0156051D01*
X0351925Y0157223D01*
X0352585Y0158411D01*
X0353216Y0159614D01*
X0353818Y0160832D01*
X0354389Y0162065D01*
X0354931Y0163311D01*
X0355443Y0164569D01*
X0355924Y0165840D01*
X0356374Y0167122D01*
X0356793Y0168415D01*
X0357180Y0169717D01*
X0357536Y0171028D01*
X0357860Y0172348D01*
X0358152Y0173675D01*
X0358412Y0175008D01*
X0358639Y0176348D01*
X0358834Y0177693D01*
X0358997Y0179042D01*
X0359127Y0180394D01*
X0359223Y0181749D01*
X0359287Y0183106D01*
X0301216Y0241177D02*
X0299859Y0241113D01*
X0298504Y0241017D01*
X0297152Y0240887D01*
X0295803Y0240724D01*
X0294458Y0240529D01*
X0293118Y0240302D01*
X0291785Y0240042D01*
X0290458Y0239750D01*
X0289138Y0239426D01*
X0287827Y0239070D01*
X0286525Y0238683D01*
X0285232Y0238264D01*
X0283950Y0237814D01*
X0282679Y0237333D01*
X0281421Y0236821D01*
X0280175Y0236279D01*
X0278942Y0235708D01*
X0277724Y0235106D01*
X0276521Y0234475D01*
X0275333Y0233815D01*
X0274161Y0233127D01*
X0273007Y0232411D01*
X0271870Y0231666D01*
X0270752Y0230895D01*
X0269652Y0230096D01*
X0268573Y0229272D01*
X0267513Y0228421D01*
X0266475Y0227545D01*
X0265457Y0226644D01*
X0264462Y0225719D01*
X0263490Y0224770D01*
X0262541Y0223798D01*
X0261616Y0222803D01*
X0260715Y0221785D01*
X0259839Y0220747D01*
X0258988Y0219687D01*
X0258164Y0218608D01*
X0257365Y0217508D01*
X0256594Y0216390D01*
X0255849Y0215253D01*
X0255133Y0214099D01*
X0254445Y0212927D01*
X0253785Y0211739D01*
X0253154Y0210536D01*
X0252552Y0209318D01*
X0251981Y0208085D01*
X0251439Y0206839D01*
X0250927Y0205581D01*
X0250446Y0204310D01*
X0249996Y0203028D01*
X0249577Y0201735D01*
X0249190Y0200433D01*
X0248834Y0199122D01*
X0248510Y0197802D01*
X0248218Y0196475D01*
X0247958Y0195142D01*
X0247731Y0193802D01*
X0247536Y0192457D01*
X0247373Y0191108D01*
X0247243Y0189756D01*
X0247147Y0188401D01*
X0247083Y0187044D01*
X0271689Y0185075D02*
X0271698Y0185848D01*
X0271727Y0186620D01*
X0271774Y0187392D01*
X0271841Y0188162D01*
X0271926Y0188930D01*
X0272030Y0189696D01*
X0272153Y0190460D01*
X0272294Y0191220D01*
X0272454Y0191976D01*
X0272633Y0192728D01*
X0272830Y0193475D01*
X0273045Y0194218D01*
X0273279Y0194955D01*
X0273530Y0195686D01*
X0273799Y0196410D01*
X0274086Y0197128D01*
X0274391Y0197838D01*
X0274713Y0198541D01*
X0275052Y0199236D01*
X0275408Y0199922D01*
X0275781Y0200599D01*
X0276170Y0201267D01*
X0276575Y0201925D01*
X0276997Y0202573D01*
X0277434Y0203211D01*
X0277887Y0203837D01*
X0278355Y0204452D01*
X0278838Y0205056D01*
X0279336Y0205647D01*
X0279848Y0206226D01*
X0280374Y0206793D01*
X0280914Y0207346D01*
X0281467Y0207886D01*
X0282034Y0208412D01*
X0282613Y0208924D01*
X0283204Y0209422D01*
X0283808Y0209905D01*
X0284423Y0210373D01*
X0285049Y0210826D01*
X0285687Y0211263D01*
X0286335Y0211685D01*
X0286993Y0212090D01*
X0287661Y0212479D01*
X0288338Y0212852D01*
X0289024Y0213208D01*
X0289719Y0213547D01*
X0290422Y0213869D01*
X0291132Y0214174D01*
X0291850Y0214461D01*
X0292574Y0214730D01*
X0293305Y0214981D01*
X0294042Y0215215D01*
X0294785Y0215430D01*
X0295532Y0215627D01*
X0296284Y0215806D01*
X0297040Y0215966D01*
X0297800Y0216107D01*
X0298564Y0216230D01*
X0299330Y0216334D01*
X0300098Y0216419D01*
X0300868Y0216486D01*
X0301640Y0216533D01*
X0302412Y0216562D01*
X0303185Y0216571D01*
X0303958Y0216562D01*
X0304730Y0216533D01*
X0305502Y0216486D01*
X0306272Y0216419D01*
X0307040Y0216334D01*
X0307806Y0216230D01*
X0308570Y0216107D01*
X0309330Y0215966D01*
X0310086Y0215806D01*
X0310838Y0215627D01*
X0311585Y0215430D01*
X0312328Y0215215D01*
X0313065Y0214981D01*
X0313796Y0214730D01*
X0314520Y0214461D01*
X0315238Y0214174D01*
X0315948Y0213869D01*
X0316651Y0213547D01*
X0317346Y0213208D01*
X0318032Y0212852D01*
X0318709Y0212479D01*
X0319377Y0212090D01*
X0320035Y0211685D01*
X0320683Y0211263D01*
X0321321Y0210826D01*
X0321947Y0210373D01*
X0322562Y0209905D01*
X0323166Y0209422D01*
X0323757Y0208924D01*
X0324336Y0208412D01*
X0324903Y0207886D01*
X0325456Y0207346D01*
X0325996Y0206793D01*
X0326522Y0206226D01*
X0327034Y0205647D01*
X0327532Y0205056D01*
X0328015Y0204452D01*
X0328483Y0203837D01*
X0328936Y0203211D01*
X0329373Y0202573D01*
X0329795Y0201925D01*
X0330200Y0201267D01*
X0330589Y0200599D01*
X0330962Y0199922D01*
X0331318Y0199236D01*
X0331657Y0198541D01*
X0331979Y0197838D01*
X0332284Y0197128D01*
X0332571Y0196410D01*
X0332840Y0195686D01*
X0333091Y0194955D01*
X0333325Y0194218D01*
X0333540Y0193475D01*
X0333737Y0192728D01*
X0333916Y0191976D01*
X0334076Y0191220D01*
X0334217Y0190460D01*
X0334340Y0189696D01*
X0334444Y0188930D01*
X0334529Y0188162D01*
X0334596Y0187392D01*
X0334643Y0186620D01*
X0334672Y0185848D01*
X0334681Y0185075D01*
X0334672Y0184302D01*
X0334643Y0183530D01*
X0334596Y0182758D01*
X0334529Y0181988D01*
X0334444Y0181220D01*
X0334340Y0180454D01*
X0334217Y0179690D01*
X0334076Y0178930D01*
X0333916Y0178174D01*
X0333737Y0177422D01*
X0333540Y0176675D01*
X0333325Y0175932D01*
X0333091Y0175195D01*
X0332840Y0174464D01*
X0332571Y0173740D01*
X0332284Y0173022D01*
X0331979Y0172312D01*
X0331657Y0171609D01*
X0331318Y0170914D01*
X0330962Y0170228D01*
X0330589Y0169551D01*
X0330200Y0168883D01*
X0329795Y0168225D01*
X0329373Y0167577D01*
X0328936Y0166939D01*
X0328483Y0166313D01*
X0328015Y0165698D01*
X0327532Y0165094D01*
X0327034Y0164503D01*
X0326522Y0163924D01*
X0325996Y0163357D01*
X0325456Y0162804D01*
X0324903Y0162264D01*
X0324336Y0161738D01*
X0323757Y0161226D01*
X0323166Y0160728D01*
X0322562Y0160245D01*
X0321947Y0159777D01*
X0321321Y0159324D01*
X0320683Y0158887D01*
X0320035Y0158465D01*
X0319377Y0158060D01*
X0318709Y0157671D01*
X0318032Y0157298D01*
X0317346Y0156942D01*
X0316651Y0156603D01*
X0315948Y0156281D01*
X0315238Y0155976D01*
X0314520Y0155689D01*
X0313796Y0155420D01*
X0313065Y0155169D01*
X0312328Y0154935D01*
X0311585Y0154720D01*
X0310838Y0154523D01*
X0310086Y0154344D01*
X0309330Y0154184D01*
X0308570Y0154043D01*
X0307806Y0153920D01*
X0307040Y0153816D01*
X0306272Y0153731D01*
X0305502Y0153664D01*
X0304730Y0153617D01*
X0303958Y0153588D01*
X0303185Y0153579D01*
X0302412Y0153588D01*
X0301640Y0153617D01*
X0300868Y0153664D01*
X0300098Y0153731D01*
X0299330Y0153816D01*
X0298564Y0153920D01*
X0297800Y0154043D01*
X0297040Y0154184D01*
X0296284Y0154344D01*
X0295532Y0154523D01*
X0294785Y0154720D01*
X0294042Y0154935D01*
X0293305Y0155169D01*
X0292574Y0155420D01*
X0291850Y0155689D01*
X0291132Y0155976D01*
X0290422Y0156281D01*
X0289719Y0156603D01*
X0289024Y0156942D01*
X0288338Y0157298D01*
X0287661Y0157671D01*
X0286993Y0158060D01*
X0286335Y0158465D01*
X0285687Y0158887D01*
X0285049Y0159324D01*
X0284423Y0159777D01*
X0283808Y0160245D01*
X0283204Y0160728D01*
X0282613Y0161226D01*
X0282034Y0161738D01*
X0281467Y0162264D01*
X0280914Y0162804D01*
X0280374Y0163357D01*
X0279848Y0163924D01*
X0279336Y0164503D01*
X0278838Y0165094D01*
X0278355Y0165698D01*
X0277887Y0166313D01*
X0277434Y0166939D01*
X0276997Y0167577D01*
X0276575Y0168225D01*
X0276170Y0168883D01*
X0275781Y0169551D01*
X0275408Y0170228D01*
X0275052Y0170914D01*
X0274713Y0171609D01*
X0274391Y0172312D01*
X0274086Y0173022D01*
X0273799Y0173740D01*
X0273530Y0174464D01*
X0273279Y0175195D01*
X0273045Y0175932D01*
X0272830Y0176675D01*
X0272633Y0177422D01*
X0272454Y0178174D01*
X0272294Y0178930D01*
X0272153Y0179690D01*
X0272030Y0180454D01*
X0271926Y0181220D01*
X0271841Y0181988D01*
X0271774Y0182758D01*
X0271727Y0183530D01*
X0271698Y0184302D01*
X0271689Y0185075D01*
X0183106Y0128973D02*
X0181749Y0129037D01*
X0180394Y0129133D01*
X0179042Y0129263D01*
X0177693Y0129426D01*
X0176348Y0129621D01*
X0175008Y0129848D01*
X0173675Y0130108D01*
X0172348Y0130400D01*
X0171028Y0130724D01*
X0169717Y0131080D01*
X0168415Y0131467D01*
X0167122Y0131886D01*
X0165840Y0132336D01*
X0164569Y0132817D01*
X0163311Y0133329D01*
X0162065Y0133871D01*
X0160832Y0134442D01*
X0159614Y0135044D01*
X0158411Y0135675D01*
X0157223Y0136335D01*
X0156051Y0137023D01*
X0154897Y0137739D01*
X0153760Y0138484D01*
X0152642Y0139255D01*
X0151542Y0140054D01*
X0150463Y0140878D01*
X0149403Y0141729D01*
X0148365Y0142605D01*
X0147347Y0143506D01*
X0146352Y0144431D01*
X0145380Y0145380D01*
X0144431Y0146352D01*
X0143506Y0147347D01*
X0142605Y0148365D01*
X0141729Y0149403D01*
X0140878Y0150463D01*
X0140054Y0151542D01*
X0139255Y0152642D01*
X0138484Y0153760D01*
X0137739Y0154897D01*
X0137023Y0156051D01*
X0136335Y0157223D01*
X0135675Y0158411D01*
X0135044Y0159614D01*
X0134442Y0160832D01*
X0133871Y0162065D01*
X0133329Y0163311D01*
X0132817Y0164569D01*
X0132336Y0165840D01*
X0131886Y0167122D01*
X0131467Y0168415D01*
X0131080Y0169717D01*
X0130724Y0171028D01*
X0130400Y0172348D01*
X0130108Y0173675D01*
X0129848Y0175008D01*
X0129621Y0176348D01*
X0129426Y0177693D01*
X0129263Y0179042D01*
X0129133Y0180394D01*
X0129037Y0181749D01*
X0128973Y0183106D01*
X0183106Y0128972D02*
X0183106Y0123067D01*
X0187043Y0123067D02*
X0187043Y0128972D01*
X0241177Y0187044D02*
X0241113Y0188401D01*
X0241017Y0189756D01*
X0240887Y0191108D01*
X0240724Y0192457D01*
X0240529Y0193802D01*
X0240302Y0195142D01*
X0240042Y0196475D01*
X0239750Y0197802D01*
X0239426Y0199122D01*
X0239070Y0200433D01*
X0238683Y0201735D01*
X0238264Y0203028D01*
X0237814Y0204310D01*
X0237333Y0205581D01*
X0236821Y0206839D01*
X0236279Y0208085D01*
X0235708Y0209318D01*
X0235106Y0210536D01*
X0234475Y0211739D01*
X0233815Y0212927D01*
X0233127Y0214099D01*
X0232411Y0215253D01*
X0231666Y0216390D01*
X0230895Y0217508D01*
X0230096Y0218608D01*
X0229272Y0219687D01*
X0228421Y0220747D01*
X0227545Y0221785D01*
X0226644Y0222803D01*
X0225719Y0223798D01*
X0224770Y0224770D01*
X0223798Y0225719D01*
X0222803Y0226644D01*
X0221785Y0227545D01*
X0220747Y0228421D01*
X0219687Y0229272D01*
X0218608Y0230096D01*
X0217508Y0230895D01*
X0216390Y0231666D01*
X0215253Y0232411D01*
X0214099Y0233127D01*
X0212927Y0233815D01*
X0211739Y0234475D01*
X0210536Y0235106D01*
X0209318Y0235708D01*
X0208085Y0236279D01*
X0206839Y0236821D01*
X0205581Y0237333D01*
X0204310Y0237814D01*
X0203028Y0238264D01*
X0201735Y0238683D01*
X0200433Y0239070D01*
X0199122Y0239426D01*
X0197802Y0239750D01*
X0196475Y0240042D01*
X0195142Y0240302D01*
X0193802Y0240529D01*
X0192457Y0240724D01*
X0191108Y0240887D01*
X0189756Y0241017D01*
X0188401Y0241113D01*
X0187044Y0241177D01*
X0187043Y0241177D02*
X0187043Y0247083D01*
X0183106Y0247083D02*
X0183106Y0241177D01*
X0241177Y0183106D02*
X0241113Y0181749D01*
X0241017Y0180394D01*
X0240887Y0179042D01*
X0240724Y0177693D01*
X0240529Y0176348D01*
X0240302Y0175008D01*
X0240042Y0173675D01*
X0239750Y0172348D01*
X0239426Y0171028D01*
X0239070Y0169717D01*
X0238683Y0168415D01*
X0238264Y0167122D01*
X0237814Y0165840D01*
X0237333Y0164569D01*
X0236821Y0163311D01*
X0236279Y0162065D01*
X0235708Y0160832D01*
X0235106Y0159614D01*
X0234475Y0158411D01*
X0233815Y0157223D01*
X0233127Y0156051D01*
X0232411Y0154897D01*
X0231666Y0153760D01*
X0230895Y0152642D01*
X0230096Y0151542D01*
X0229272Y0150463D01*
X0228421Y0149403D01*
X0227545Y0148365D01*
X0226644Y0147347D01*
X0225719Y0146352D01*
X0224770Y0145380D01*
X0223798Y0144431D01*
X0222803Y0143506D01*
X0221785Y0142605D01*
X0220747Y0141729D01*
X0219687Y0140878D01*
X0218608Y0140054D01*
X0217508Y0139255D01*
X0216390Y0138484D01*
X0215253Y0137739D01*
X0214099Y0137023D01*
X0212927Y0136335D01*
X0211739Y0135675D01*
X0210536Y0135044D01*
X0209318Y0134442D01*
X0208085Y0133871D01*
X0206839Y0133329D01*
X0205581Y0132817D01*
X0204310Y0132336D01*
X0203028Y0131886D01*
X0201735Y0131467D01*
X0200433Y0131080D01*
X0199122Y0130724D01*
X0197802Y0130400D01*
X0196475Y0130108D01*
X0195142Y0129848D01*
X0193802Y0129621D01*
X0192457Y0129426D01*
X0191108Y0129263D01*
X0189756Y0129133D01*
X0188401Y0129037D01*
X0187044Y0128973D01*
X0128973Y0187044D02*
X0129037Y0188401D01*
X0129133Y0189756D01*
X0129263Y0191108D01*
X0129426Y0192457D01*
X0129621Y0193802D01*
X0129848Y0195142D01*
X0130108Y0196475D01*
X0130400Y0197802D01*
X0130724Y0199122D01*
X0131080Y0200433D01*
X0131467Y0201735D01*
X0131886Y0203028D01*
X0132336Y0204310D01*
X0132817Y0205581D01*
X0133329Y0206839D01*
X0133871Y0208085D01*
X0134442Y0209318D01*
X0135044Y0210536D01*
X0135675Y0211739D01*
X0136335Y0212927D01*
X0137023Y0214099D01*
X0137739Y0215253D01*
X0138484Y0216390D01*
X0139255Y0217508D01*
X0140054Y0218608D01*
X0140878Y0219687D01*
X0141729Y0220747D01*
X0142605Y0221785D01*
X0143506Y0222803D01*
X0144431Y0223798D01*
X0145380Y0224770D01*
X0146352Y0225719D01*
X0147347Y0226644D01*
X0148365Y0227545D01*
X0149403Y0228421D01*
X0150463Y0229272D01*
X0151542Y0230096D01*
X0152642Y0230895D01*
X0153760Y0231666D01*
X0154897Y0232411D01*
X0156051Y0233127D01*
X0157223Y0233815D01*
X0158411Y0234475D01*
X0159614Y0235106D01*
X0160832Y0235708D01*
X0162065Y0236279D01*
X0163311Y0236821D01*
X0164569Y0237333D01*
X0165840Y0237814D01*
X0167122Y0238264D01*
X0168415Y0238683D01*
X0169717Y0239070D01*
X0171028Y0239426D01*
X0172348Y0239750D01*
X0173675Y0240042D01*
X0175008Y0240302D01*
X0176348Y0240529D01*
X0177693Y0240724D01*
X0179042Y0240887D01*
X0180394Y0241017D01*
X0181749Y0241113D01*
X0183106Y0241177D01*
X0153579Y0185075D02*
X0153588Y0185848D01*
X0153617Y0186620D01*
X0153664Y0187392D01*
X0153731Y0188162D01*
X0153816Y0188930D01*
X0153920Y0189696D01*
X0154043Y0190460D01*
X0154184Y0191220D01*
X0154344Y0191976D01*
X0154523Y0192728D01*
X0154720Y0193475D01*
X0154935Y0194218D01*
X0155169Y0194955D01*
X0155420Y0195686D01*
X0155689Y0196410D01*
X0155976Y0197128D01*
X0156281Y0197838D01*
X0156603Y0198541D01*
X0156942Y0199236D01*
X0157298Y0199922D01*
X0157671Y0200599D01*
X0158060Y0201267D01*
X0158465Y0201925D01*
X0158887Y0202573D01*
X0159324Y0203211D01*
X0159777Y0203837D01*
X0160245Y0204452D01*
X0160728Y0205056D01*
X0161226Y0205647D01*
X0161738Y0206226D01*
X0162264Y0206793D01*
X0162804Y0207346D01*
X0163357Y0207886D01*
X0163924Y0208412D01*
X0164503Y0208924D01*
X0165094Y0209422D01*
X0165698Y0209905D01*
X0166313Y0210373D01*
X0166939Y0210826D01*
X0167577Y0211263D01*
X0168225Y0211685D01*
X0168883Y0212090D01*
X0169551Y0212479D01*
X0170228Y0212852D01*
X0170914Y0213208D01*
X0171609Y0213547D01*
X0172312Y0213869D01*
X0173022Y0214174D01*
X0173740Y0214461D01*
X0174464Y0214730D01*
X0175195Y0214981D01*
X0175932Y0215215D01*
X0176675Y0215430D01*
X0177422Y0215627D01*
X0178174Y0215806D01*
X0178930Y0215966D01*
X0179690Y0216107D01*
X0180454Y0216230D01*
X0181220Y0216334D01*
X0181988Y0216419D01*
X0182758Y0216486D01*
X0183530Y0216533D01*
X0184302Y0216562D01*
X0185075Y0216571D01*
X0185848Y0216562D01*
X0186620Y0216533D01*
X0187392Y0216486D01*
X0188162Y0216419D01*
X0188930Y0216334D01*
X0189696Y0216230D01*
X0190460Y0216107D01*
X0191220Y0215966D01*
X0191976Y0215806D01*
X0192728Y0215627D01*
X0193475Y0215430D01*
X0194218Y0215215D01*
X0194955Y0214981D01*
X0195686Y0214730D01*
X0196410Y0214461D01*
X0197128Y0214174D01*
X0197838Y0213869D01*
X0198541Y0213547D01*
X0199236Y0213208D01*
X0199922Y0212852D01*
X0200599Y0212479D01*
X0201267Y0212090D01*
X0201925Y0211685D01*
X0202573Y0211263D01*
X0203211Y0210826D01*
X0203837Y0210373D01*
X0204452Y0209905D01*
X0205056Y0209422D01*
X0205647Y0208924D01*
X0206226Y0208412D01*
X0206793Y0207886D01*
X0207346Y0207346D01*
X0207886Y0206793D01*
X0208412Y0206226D01*
X0208924Y0205647D01*
X0209422Y0205056D01*
X0209905Y0204452D01*
X0210373Y0203837D01*
X0210826Y0203211D01*
X0211263Y0202573D01*
X0211685Y0201925D01*
X0212090Y0201267D01*
X0212479Y0200599D01*
X0212852Y0199922D01*
X0213208Y0199236D01*
X0213547Y0198541D01*
X0213869Y0197838D01*
X0214174Y0197128D01*
X0214461Y0196410D01*
X0214730Y0195686D01*
X0214981Y0194955D01*
X0215215Y0194218D01*
X0215430Y0193475D01*
X0215627Y0192728D01*
X0215806Y0191976D01*
X0215966Y0191220D01*
X0216107Y0190460D01*
X0216230Y0189696D01*
X0216334Y0188930D01*
X0216419Y0188162D01*
X0216486Y0187392D01*
X0216533Y0186620D01*
X0216562Y0185848D01*
X0216571Y0185075D01*
X0216562Y0184302D01*
X0216533Y0183530D01*
X0216486Y0182758D01*
X0216419Y0181988D01*
X0216334Y0181220D01*
X0216230Y0180454D01*
X0216107Y0179690D01*
X0215966Y0178930D01*
X0215806Y0178174D01*
X0215627Y0177422D01*
X0215430Y0176675D01*
X0215215Y0175932D01*
X0214981Y0175195D01*
X0214730Y0174464D01*
X0214461Y0173740D01*
X0214174Y0173022D01*
X0213869Y0172312D01*
X0213547Y0171609D01*
X0213208Y0170914D01*
X0212852Y0170228D01*
X0212479Y0169551D01*
X0212090Y0168883D01*
X0211685Y0168225D01*
X0211263Y0167577D01*
X0210826Y0166939D01*
X0210373Y0166313D01*
X0209905Y0165698D01*
X0209422Y0165094D01*
X0208924Y0164503D01*
X0208412Y0163924D01*
X0207886Y0163357D01*
X0207346Y0162804D01*
X0206793Y0162264D01*
X0206226Y0161738D01*
X0205647Y0161226D01*
X0205056Y0160728D01*
X0204452Y0160245D01*
X0203837Y0159777D01*
X0203211Y0159324D01*
X0202573Y0158887D01*
X0201925Y0158465D01*
X0201267Y0158060D01*
X0200599Y0157671D01*
X0199922Y0157298D01*
X0199236Y0156942D01*
X0198541Y0156603D01*
X0197838Y0156281D01*
X0197128Y0155976D01*
X0196410Y0155689D01*
X0195686Y0155420D01*
X0194955Y0155169D01*
X0194218Y0154935D01*
X0193475Y0154720D01*
X0192728Y0154523D01*
X0191976Y0154344D01*
X0191220Y0154184D01*
X0190460Y0154043D01*
X0189696Y0153920D01*
X0188930Y0153816D01*
X0188162Y0153731D01*
X0187392Y0153664D01*
X0186620Y0153617D01*
X0185848Y0153588D01*
X0185075Y0153579D01*
X0184302Y0153588D01*
X0183530Y0153617D01*
X0182758Y0153664D01*
X0181988Y0153731D01*
X0181220Y0153816D01*
X0180454Y0153920D01*
X0179690Y0154043D01*
X0178930Y0154184D01*
X0178174Y0154344D01*
X0177422Y0154523D01*
X0176675Y0154720D01*
X0175932Y0154935D01*
X0175195Y0155169D01*
X0174464Y0155420D01*
X0173740Y0155689D01*
X0173022Y0155976D01*
X0172312Y0156281D01*
X0171609Y0156603D01*
X0170914Y0156942D01*
X0170228Y0157298D01*
X0169551Y0157671D01*
X0168883Y0158060D01*
X0168225Y0158465D01*
X0167577Y0158887D01*
X0166939Y0159324D01*
X0166313Y0159777D01*
X0165698Y0160245D01*
X0165094Y0160728D01*
X0164503Y0161226D01*
X0163924Y0161738D01*
X0163357Y0162264D01*
X0162804Y0162804D01*
X0162264Y0163357D01*
X0161738Y0163924D01*
X0161226Y0164503D01*
X0160728Y0165094D01*
X0160245Y0165698D01*
X0159777Y0166313D01*
X0159324Y0166939D01*
X0158887Y0167577D01*
X0158465Y0168225D01*
X0158060Y0168883D01*
X0157671Y0169551D01*
X0157298Y0170228D01*
X0156942Y0170914D01*
X0156603Y0171609D01*
X0156281Y0172312D01*
X0155976Y0173022D01*
X0155689Y0173740D01*
X0155420Y0174464D01*
X0155169Y0175195D01*
X0154935Y0175932D01*
X0154720Y0176675D01*
X0154523Y0177422D01*
X0154344Y0178174D01*
X0154184Y0178930D01*
X0154043Y0179690D01*
X0153920Y0180454D01*
X0153816Y0181220D01*
X0153731Y0181988D01*
X0153664Y0182758D01*
X0153617Y0183530D01*
X0153588Y0184302D01*
X0153579Y0185075D01*
X0064996Y0241177D02*
X0063639Y0241113D01*
X0062284Y0241017D01*
X0060932Y0240887D01*
X0059583Y0240724D01*
X0058238Y0240529D01*
X0056898Y0240302D01*
X0055565Y0240042D01*
X0054238Y0239750D01*
X0052918Y0239426D01*
X0051607Y0239070D01*
X0050305Y0238683D01*
X0049012Y0238264D01*
X0047730Y0237814D01*
X0046459Y0237333D01*
X0045201Y0236821D01*
X0043955Y0236279D01*
X0042722Y0235708D01*
X0041504Y0235106D01*
X0040301Y0234475D01*
X0039113Y0233815D01*
X0037941Y0233127D01*
X0036787Y0232411D01*
X0035650Y0231666D01*
X0034532Y0230895D01*
X0033432Y0230096D01*
X0032353Y0229272D01*
X0031293Y0228421D01*
X0030255Y0227545D01*
X0029237Y0226644D01*
X0028242Y0225719D01*
X0027270Y0224770D01*
X0026321Y0223798D01*
X0025396Y0222803D01*
X0024495Y0221785D01*
X0023619Y0220747D01*
X0022768Y0219687D01*
X0021944Y0218608D01*
X0021145Y0217508D01*
X0020374Y0216390D01*
X0019629Y0215253D01*
X0018913Y0214099D01*
X0018225Y0212927D01*
X0017565Y0211739D01*
X0016934Y0210536D01*
X0016332Y0209318D01*
X0015761Y0208085D01*
X0015219Y0206839D01*
X0014707Y0205581D01*
X0014226Y0204310D01*
X0013776Y0203028D01*
X0013357Y0201735D01*
X0012970Y0200433D01*
X0012614Y0199122D01*
X0012290Y0197802D01*
X0011998Y0196475D01*
X0011738Y0195142D01*
X0011511Y0193802D01*
X0011316Y0192457D01*
X0011153Y0191108D01*
X0011023Y0189756D01*
X0010927Y0188401D01*
X0010863Y0187044D01*
X0035469Y0185075D02*
X0035478Y0185848D01*
X0035507Y0186620D01*
X0035554Y0187392D01*
X0035621Y0188162D01*
X0035706Y0188930D01*
X0035810Y0189696D01*
X0035933Y0190460D01*
X0036074Y0191220D01*
X0036234Y0191976D01*
X0036413Y0192728D01*
X0036610Y0193475D01*
X0036825Y0194218D01*
X0037059Y0194955D01*
X0037310Y0195686D01*
X0037579Y0196410D01*
X0037866Y0197128D01*
X0038171Y0197838D01*
X0038493Y0198541D01*
X0038832Y0199236D01*
X0039188Y0199922D01*
X0039561Y0200599D01*
X0039950Y0201267D01*
X0040355Y0201925D01*
X0040777Y0202573D01*
X0041214Y0203211D01*
X0041667Y0203837D01*
X0042135Y0204452D01*
X0042618Y0205056D01*
X0043116Y0205647D01*
X0043628Y0206226D01*
X0044154Y0206793D01*
X0044694Y0207346D01*
X0045247Y0207886D01*
X0045814Y0208412D01*
X0046393Y0208924D01*
X0046984Y0209422D01*
X0047588Y0209905D01*
X0048203Y0210373D01*
X0048829Y0210826D01*
X0049467Y0211263D01*
X0050115Y0211685D01*
X0050773Y0212090D01*
X0051441Y0212479D01*
X0052118Y0212852D01*
X0052804Y0213208D01*
X0053499Y0213547D01*
X0054202Y0213869D01*
X0054912Y0214174D01*
X0055630Y0214461D01*
X0056354Y0214730D01*
X0057085Y0214981D01*
X0057822Y0215215D01*
X0058565Y0215430D01*
X0059312Y0215627D01*
X0060064Y0215806D01*
X0060820Y0215966D01*
X0061580Y0216107D01*
X0062344Y0216230D01*
X0063110Y0216334D01*
X0063878Y0216419D01*
X0064648Y0216486D01*
X0065420Y0216533D01*
X0066192Y0216562D01*
X0066965Y0216571D01*
X0067738Y0216562D01*
X0068510Y0216533D01*
X0069282Y0216486D01*
X0070052Y0216419D01*
X0070820Y0216334D01*
X0071586Y0216230D01*
X0072350Y0216107D01*
X0073110Y0215966D01*
X0073866Y0215806D01*
X0074618Y0215627D01*
X0075365Y0215430D01*
X0076108Y0215215D01*
X0076845Y0214981D01*
X0077576Y0214730D01*
X0078300Y0214461D01*
X0079018Y0214174D01*
X0079728Y0213869D01*
X0080431Y0213547D01*
X0081126Y0213208D01*
X0081812Y0212852D01*
X0082489Y0212479D01*
X0083157Y0212090D01*
X0083815Y0211685D01*
X0084463Y0211263D01*
X0085101Y0210826D01*
X0085727Y0210373D01*
X0086342Y0209905D01*
X0086946Y0209422D01*
X0087537Y0208924D01*
X0088116Y0208412D01*
X0088683Y0207886D01*
X0089236Y0207346D01*
X0089776Y0206793D01*
X0090302Y0206226D01*
X0090814Y0205647D01*
X0091312Y0205056D01*
X0091795Y0204452D01*
X0092263Y0203837D01*
X0092716Y0203211D01*
X0093153Y0202573D01*
X0093575Y0201925D01*
X0093980Y0201267D01*
X0094369Y0200599D01*
X0094742Y0199922D01*
X0095098Y0199236D01*
X0095437Y0198541D01*
X0095759Y0197838D01*
X0096064Y0197128D01*
X0096351Y0196410D01*
X0096620Y0195686D01*
X0096871Y0194955D01*
X0097105Y0194218D01*
X0097320Y0193475D01*
X0097517Y0192728D01*
X0097696Y0191976D01*
X0097856Y0191220D01*
X0097997Y0190460D01*
X0098120Y0189696D01*
X0098224Y0188930D01*
X0098309Y0188162D01*
X0098376Y0187392D01*
X0098423Y0186620D01*
X0098452Y0185848D01*
X0098461Y0185075D01*
X0098452Y0184302D01*
X0098423Y0183530D01*
X0098376Y0182758D01*
X0098309Y0181988D01*
X0098224Y0181220D01*
X0098120Y0180454D01*
X0097997Y0179690D01*
X0097856Y0178930D01*
X0097696Y0178174D01*
X0097517Y0177422D01*
X0097320Y0176675D01*
X0097105Y0175932D01*
X0096871Y0175195D01*
X0096620Y0174464D01*
X0096351Y0173740D01*
X0096064Y0173022D01*
X0095759Y0172312D01*
X0095437Y0171609D01*
X0095098Y0170914D01*
X0094742Y0170228D01*
X0094369Y0169551D01*
X0093980Y0168883D01*
X0093575Y0168225D01*
X0093153Y0167577D01*
X0092716Y0166939D01*
X0092263Y0166313D01*
X0091795Y0165698D01*
X0091312Y0165094D01*
X0090814Y0164503D01*
X0090302Y0163924D01*
X0089776Y0163357D01*
X0089236Y0162804D01*
X0088683Y0162264D01*
X0088116Y0161738D01*
X0087537Y0161226D01*
X0086946Y0160728D01*
X0086342Y0160245D01*
X0085727Y0159777D01*
X0085101Y0159324D01*
X0084463Y0158887D01*
X0083815Y0158465D01*
X0083157Y0158060D01*
X0082489Y0157671D01*
X0081812Y0157298D01*
X0081126Y0156942D01*
X0080431Y0156603D01*
X0079728Y0156281D01*
X0079018Y0155976D01*
X0078300Y0155689D01*
X0077576Y0155420D01*
X0076845Y0155169D01*
X0076108Y0154935D01*
X0075365Y0154720D01*
X0074618Y0154523D01*
X0073866Y0154344D01*
X0073110Y0154184D01*
X0072350Y0154043D01*
X0071586Y0153920D01*
X0070820Y0153816D01*
X0070052Y0153731D01*
X0069282Y0153664D01*
X0068510Y0153617D01*
X0067738Y0153588D01*
X0066965Y0153579D01*
X0066192Y0153588D01*
X0065420Y0153617D01*
X0064648Y0153664D01*
X0063878Y0153731D01*
X0063110Y0153816D01*
X0062344Y0153920D01*
X0061580Y0154043D01*
X0060820Y0154184D01*
X0060064Y0154344D01*
X0059312Y0154523D01*
X0058565Y0154720D01*
X0057822Y0154935D01*
X0057085Y0155169D01*
X0056354Y0155420D01*
X0055630Y0155689D01*
X0054912Y0155976D01*
X0054202Y0156281D01*
X0053499Y0156603D01*
X0052804Y0156942D01*
X0052118Y0157298D01*
X0051441Y0157671D01*
X0050773Y0158060D01*
X0050115Y0158465D01*
X0049467Y0158887D01*
X0048829Y0159324D01*
X0048203Y0159777D01*
X0047588Y0160245D01*
X0046984Y0160728D01*
X0046393Y0161226D01*
X0045814Y0161738D01*
X0045247Y0162264D01*
X0044694Y0162804D01*
X0044154Y0163357D01*
X0043628Y0163924D01*
X0043116Y0164503D01*
X0042618Y0165094D01*
X0042135Y0165698D01*
X0041667Y0166313D01*
X0041214Y0166939D01*
X0040777Y0167577D01*
X0040355Y0168225D01*
X0039950Y0168883D01*
X0039561Y0169551D01*
X0039188Y0170228D01*
X0038832Y0170914D01*
X0038493Y0171609D01*
X0038171Y0172312D01*
X0037866Y0173022D01*
X0037579Y0173740D01*
X0037310Y0174464D01*
X0037059Y0175195D01*
X0036825Y0175932D01*
X0036610Y0176675D01*
X0036413Y0177422D01*
X0036234Y0178174D01*
X0036074Y0178930D01*
X0035933Y0179690D01*
X0035810Y0180454D01*
X0035706Y0181220D01*
X0035621Y0181988D01*
X0035554Y0182758D01*
X0035507Y0183530D01*
X0035478Y0184302D01*
X0035469Y0185075D01*
X0123067Y0305154D02*
X0123003Y0306511D01*
X0122907Y0307866D01*
X0122777Y0309218D01*
X0122614Y0310567D01*
X0122419Y0311912D01*
X0122192Y0313252D01*
X0121932Y0314585D01*
X0121640Y0315912D01*
X0121316Y0317232D01*
X0120960Y0318543D01*
X0120573Y0319845D01*
X0120154Y0321138D01*
X0119704Y0322420D01*
X0119223Y0323691D01*
X0118711Y0324949D01*
X0118169Y0326195D01*
X0117598Y0327428D01*
X0116996Y0328646D01*
X0116365Y0329849D01*
X0115705Y0331037D01*
X0115017Y0332209D01*
X0114301Y0333363D01*
X0113556Y0334500D01*
X0112785Y0335618D01*
X0111986Y0336718D01*
X0111162Y0337797D01*
X0110311Y0338857D01*
X0109435Y0339895D01*
X0108534Y0340913D01*
X0107609Y0341908D01*
X0106660Y0342880D01*
X0105688Y0343829D01*
X0104693Y0344754D01*
X0103675Y0345655D01*
X0102637Y0346531D01*
X0101577Y0347382D01*
X0100498Y0348206D01*
X0099398Y0349005D01*
X0098280Y0349776D01*
X0097143Y0350521D01*
X0095989Y0351237D01*
X0094817Y0351925D01*
X0093629Y0352585D01*
X0092426Y0353216D01*
X0091208Y0353818D01*
X0089975Y0354389D01*
X0088729Y0354931D01*
X0087471Y0355443D01*
X0086200Y0355924D01*
X0084918Y0356374D01*
X0083625Y0356793D01*
X0082323Y0357180D01*
X0081012Y0357536D01*
X0079692Y0357860D01*
X0078365Y0358152D01*
X0077032Y0358412D01*
X0075692Y0358639D01*
X0074347Y0358834D01*
X0072998Y0358997D01*
X0071646Y0359127D01*
X0070291Y0359223D01*
X0068934Y0359287D01*
X0010863Y0301216D02*
X0010927Y0299859D01*
X0011023Y0298504D01*
X0011153Y0297152D01*
X0011316Y0295803D01*
X0011511Y0294458D01*
X0011738Y0293118D01*
X0011998Y0291785D01*
X0012290Y0290458D01*
X0012614Y0289138D01*
X0012970Y0287827D01*
X0013357Y0286525D01*
X0013776Y0285232D01*
X0014226Y0283950D01*
X0014707Y0282679D01*
X0015219Y0281421D01*
X0015761Y0280175D01*
X0016332Y0278942D01*
X0016934Y0277724D01*
X0017565Y0276521D01*
X0018225Y0275333D01*
X0018913Y0274161D01*
X0019629Y0273007D01*
X0020374Y0271870D01*
X0021145Y0270752D01*
X0021944Y0269652D01*
X0022768Y0268573D01*
X0023619Y0267513D01*
X0024495Y0266475D01*
X0025396Y0265457D01*
X0026321Y0264462D01*
X0027270Y0263490D01*
X0028242Y0262541D01*
X0029237Y0261616D01*
X0030255Y0260715D01*
X0031293Y0259839D01*
X0032353Y0258988D01*
X0033432Y0258164D01*
X0034532Y0257365D01*
X0035650Y0256594D01*
X0036787Y0255849D01*
X0037941Y0255133D01*
X0039113Y0254445D01*
X0040301Y0253785D01*
X0041504Y0253154D01*
X0042722Y0252552D01*
X0043955Y0251981D01*
X0045201Y0251439D01*
X0046459Y0250927D01*
X0047730Y0250446D01*
X0049012Y0249996D01*
X0050305Y0249577D01*
X0051607Y0249190D01*
X0052918Y0248834D01*
X0054238Y0248510D01*
X0055565Y0248218D01*
X0056898Y0247958D01*
X0058238Y0247731D01*
X0059583Y0247536D01*
X0060932Y0247373D01*
X0062284Y0247243D01*
X0063639Y0247147D01*
X0064996Y0247083D01*
X0010863Y0305154D02*
X0010927Y0306511D01*
X0011023Y0307866D01*
X0011153Y0309218D01*
X0011316Y0310567D01*
X0011511Y0311912D01*
X0011738Y0313252D01*
X0011998Y0314585D01*
X0012290Y0315912D01*
X0012614Y0317232D01*
X0012970Y0318543D01*
X0013357Y0319845D01*
X0013776Y0321138D01*
X0014226Y0322420D01*
X0014707Y0323691D01*
X0015219Y0324949D01*
X0015761Y0326195D01*
X0016332Y0327428D01*
X0016934Y0328646D01*
X0017565Y0329849D01*
X0018225Y0331037D01*
X0018913Y0332209D01*
X0019629Y0333363D01*
X0020374Y0334500D01*
X0021145Y0335618D01*
X0021944Y0336718D01*
X0022768Y0337797D01*
X0023619Y0338857D01*
X0024495Y0339895D01*
X0025396Y0340913D01*
X0026321Y0341908D01*
X0027270Y0342880D01*
X0028242Y0343829D01*
X0029237Y0344754D01*
X0030255Y0345655D01*
X0031293Y0346531D01*
X0032353Y0347382D01*
X0033432Y0348206D01*
X0034532Y0349005D01*
X0035650Y0349776D01*
X0036787Y0350521D01*
X0037941Y0351237D01*
X0039113Y0351925D01*
X0040301Y0352585D01*
X0041504Y0353216D01*
X0042722Y0353818D01*
X0043955Y0354389D01*
X0045201Y0354931D01*
X0046459Y0355443D01*
X0047730Y0355924D01*
X0049012Y0356374D01*
X0050305Y0356793D01*
X0051607Y0357180D01*
X0052918Y0357536D01*
X0054238Y0357860D01*
X0055565Y0358152D01*
X0056898Y0358412D01*
X0058238Y0358639D01*
X0059583Y0358834D01*
X0060932Y0358997D01*
X0062284Y0359127D01*
X0063639Y0359223D01*
X0064996Y0359287D01*
X0123067Y0301216D02*
X0123003Y0299859D01*
X0122907Y0298504D01*
X0122777Y0297152D01*
X0122614Y0295803D01*
X0122419Y0294458D01*
X0122192Y0293118D01*
X0121932Y0291785D01*
X0121640Y0290458D01*
X0121316Y0289138D01*
X0120960Y0287827D01*
X0120573Y0286525D01*
X0120154Y0285232D01*
X0119704Y0283950D01*
X0119223Y0282679D01*
X0118711Y0281421D01*
X0118169Y0280175D01*
X0117598Y0278942D01*
X0116996Y0277724D01*
X0116365Y0276521D01*
X0115705Y0275333D01*
X0115017Y0274161D01*
X0114301Y0273007D01*
X0113556Y0271870D01*
X0112785Y0270752D01*
X0111986Y0269652D01*
X0111162Y0268573D01*
X0110311Y0267513D01*
X0109435Y0266475D01*
X0108534Y0265457D01*
X0107609Y0264462D01*
X0106660Y0263490D01*
X0105688Y0262541D01*
X0104693Y0261616D01*
X0103675Y0260715D01*
X0102637Y0259839D01*
X0101577Y0258988D01*
X0100498Y0258164D01*
X0099398Y0257365D01*
X0098280Y0256594D01*
X0097143Y0255849D01*
X0095989Y0255133D01*
X0094817Y0254445D01*
X0093629Y0253785D01*
X0092426Y0253154D01*
X0091208Y0252552D01*
X0089975Y0251981D01*
X0088729Y0251439D01*
X0087471Y0250927D01*
X0086200Y0250446D01*
X0084918Y0249996D01*
X0083625Y0249577D01*
X0082323Y0249190D01*
X0081012Y0248834D01*
X0079692Y0248510D01*
X0078365Y0248218D01*
X0077032Y0247958D01*
X0075692Y0247731D01*
X0074347Y0247536D01*
X0072998Y0247373D01*
X0071646Y0247243D01*
X0070291Y0247147D01*
X0068934Y0247083D01*
X0035469Y0303185D02*
X0035478Y0303958D01*
X0035507Y0304730D01*
X0035554Y0305502D01*
X0035621Y0306272D01*
X0035706Y0307040D01*
X0035810Y0307806D01*
X0035933Y0308570D01*
X0036074Y0309330D01*
X0036234Y0310086D01*
X0036413Y0310838D01*
X0036610Y0311585D01*
X0036825Y0312328D01*
X0037059Y0313065D01*
X0037310Y0313796D01*
X0037579Y0314520D01*
X0037866Y0315238D01*
X0038171Y0315948D01*
X0038493Y0316651D01*
X0038832Y0317346D01*
X0039188Y0318032D01*
X0039561Y0318709D01*
X0039950Y0319377D01*
X0040355Y0320035D01*
X0040777Y0320683D01*
X0041214Y0321321D01*
X0041667Y0321947D01*
X0042135Y0322562D01*
X0042618Y0323166D01*
X0043116Y0323757D01*
X0043628Y0324336D01*
X0044154Y0324903D01*
X0044694Y0325456D01*
X0045247Y0325996D01*
X0045814Y0326522D01*
X0046393Y0327034D01*
X0046984Y0327532D01*
X0047588Y0328015D01*
X0048203Y0328483D01*
X0048829Y0328936D01*
X0049467Y0329373D01*
X0050115Y0329795D01*
X0050773Y0330200D01*
X0051441Y0330589D01*
X0052118Y0330962D01*
X0052804Y0331318D01*
X0053499Y0331657D01*
X0054202Y0331979D01*
X0054912Y0332284D01*
X0055630Y0332571D01*
X0056354Y0332840D01*
X0057085Y0333091D01*
X0057822Y0333325D01*
X0058565Y0333540D01*
X0059312Y0333737D01*
X0060064Y0333916D01*
X0060820Y0334076D01*
X0061580Y0334217D01*
X0062344Y0334340D01*
X0063110Y0334444D01*
X0063878Y0334529D01*
X0064648Y0334596D01*
X0065420Y0334643D01*
X0066192Y0334672D01*
X0066965Y0334681D01*
X0067738Y0334672D01*
X0068510Y0334643D01*
X0069282Y0334596D01*
X0070052Y0334529D01*
X0070820Y0334444D01*
X0071586Y0334340D01*
X0072350Y0334217D01*
X0073110Y0334076D01*
X0073866Y0333916D01*
X0074618Y0333737D01*
X0075365Y0333540D01*
X0076108Y0333325D01*
X0076845Y0333091D01*
X0077576Y0332840D01*
X0078300Y0332571D01*
X0079018Y0332284D01*
X0079728Y0331979D01*
X0080431Y0331657D01*
X0081126Y0331318D01*
X0081812Y0330962D01*
X0082489Y0330589D01*
X0083157Y0330200D01*
X0083815Y0329795D01*
X0084463Y0329373D01*
X0085101Y0328936D01*
X0085727Y0328483D01*
X0086342Y0328015D01*
X0086946Y0327532D01*
X0087537Y0327034D01*
X0088116Y0326522D01*
X0088683Y0325996D01*
X0089236Y0325456D01*
X0089776Y0324903D01*
X0090302Y0324336D01*
X0090814Y0323757D01*
X0091312Y0323166D01*
X0091795Y0322562D01*
X0092263Y0321947D01*
X0092716Y0321321D01*
X0093153Y0320683D01*
X0093575Y0320035D01*
X0093980Y0319377D01*
X0094369Y0318709D01*
X0094742Y0318032D01*
X0095098Y0317346D01*
X0095437Y0316651D01*
X0095759Y0315948D01*
X0096064Y0315238D01*
X0096351Y0314520D01*
X0096620Y0313796D01*
X0096871Y0313065D01*
X0097105Y0312328D01*
X0097320Y0311585D01*
X0097517Y0310838D01*
X0097696Y0310086D01*
X0097856Y0309330D01*
X0097997Y0308570D01*
X0098120Y0307806D01*
X0098224Y0307040D01*
X0098309Y0306272D01*
X0098376Y0305502D01*
X0098423Y0304730D01*
X0098452Y0303958D01*
X0098461Y0303185D01*
X0098452Y0302412D01*
X0098423Y0301640D01*
X0098376Y0300868D01*
X0098309Y0300098D01*
X0098224Y0299330D01*
X0098120Y0298564D01*
X0097997Y0297800D01*
X0097856Y0297040D01*
X0097696Y0296284D01*
X0097517Y0295532D01*
X0097320Y0294785D01*
X0097105Y0294042D01*
X0096871Y0293305D01*
X0096620Y0292574D01*
X0096351Y0291850D01*
X0096064Y0291132D01*
X0095759Y0290422D01*
X0095437Y0289719D01*
X0095098Y0289024D01*
X0094742Y0288338D01*
X0094369Y0287661D01*
X0093980Y0286993D01*
X0093575Y0286335D01*
X0093153Y0285687D01*
X0092716Y0285049D01*
X0092263Y0284423D01*
X0091795Y0283808D01*
X0091312Y0283204D01*
X0090814Y0282613D01*
X0090302Y0282034D01*
X0089776Y0281467D01*
X0089236Y0280914D01*
X0088683Y0280374D01*
X0088116Y0279848D01*
X0087537Y0279336D01*
X0086946Y0278838D01*
X0086342Y0278355D01*
X0085727Y0277887D01*
X0085101Y0277434D01*
X0084463Y0276997D01*
X0083815Y0276575D01*
X0083157Y0276170D01*
X0082489Y0275781D01*
X0081812Y0275408D01*
X0081126Y0275052D01*
X0080431Y0274713D01*
X0079728Y0274391D01*
X0079018Y0274086D01*
X0078300Y0273799D01*
X0077576Y0273530D01*
X0076845Y0273279D01*
X0076108Y0273045D01*
X0075365Y0272830D01*
X0074618Y0272633D01*
X0073866Y0272454D01*
X0073110Y0272294D01*
X0072350Y0272153D01*
X0071586Y0272030D01*
X0070820Y0271926D01*
X0070052Y0271841D01*
X0069282Y0271774D01*
X0068510Y0271727D01*
X0067738Y0271698D01*
X0066965Y0271689D01*
X0066192Y0271698D01*
X0065420Y0271727D01*
X0064648Y0271774D01*
X0063878Y0271841D01*
X0063110Y0271926D01*
X0062344Y0272030D01*
X0061580Y0272153D01*
X0060820Y0272294D01*
X0060064Y0272454D01*
X0059312Y0272633D01*
X0058565Y0272830D01*
X0057822Y0273045D01*
X0057085Y0273279D01*
X0056354Y0273530D01*
X0055630Y0273799D01*
X0054912Y0274086D01*
X0054202Y0274391D01*
X0053499Y0274713D01*
X0052804Y0275052D01*
X0052118Y0275408D01*
X0051441Y0275781D01*
X0050773Y0276170D01*
X0050115Y0276575D01*
X0049467Y0276997D01*
X0048829Y0277434D01*
X0048203Y0277887D01*
X0047588Y0278355D01*
X0046984Y0278838D01*
X0046393Y0279336D01*
X0045814Y0279848D01*
X0045247Y0280374D01*
X0044694Y0280914D01*
X0044154Y0281467D01*
X0043628Y0282034D01*
X0043116Y0282613D01*
X0042618Y0283204D01*
X0042135Y0283808D01*
X0041667Y0284423D01*
X0041214Y0285049D01*
X0040777Y0285687D01*
X0040355Y0286335D01*
X0039950Y0286993D01*
X0039561Y0287661D01*
X0039188Y0288338D01*
X0038832Y0289024D01*
X0038493Y0289719D01*
X0038171Y0290422D01*
X0037866Y0291132D01*
X0037579Y0291850D01*
X0037310Y0292574D01*
X0037059Y0293305D01*
X0036825Y0294042D01*
X0036610Y0294785D01*
X0036413Y0295532D01*
X0036234Y0296284D01*
X0036074Y0297040D01*
X0035933Y0297800D01*
X0035810Y0298564D01*
X0035706Y0299330D01*
X0035621Y0300098D01*
X0035554Y0300868D01*
X0035507Y0301640D01*
X0035478Y0302412D01*
X0035469Y0303185D01*
X0187044Y0359287D02*
X0188401Y0359223D01*
X0189756Y0359127D01*
X0191108Y0358997D01*
X0192457Y0358834D01*
X0193802Y0358639D01*
X0195142Y0358412D01*
X0196475Y0358152D01*
X0197802Y0357860D01*
X0199122Y0357536D01*
X0200433Y0357180D01*
X0201735Y0356793D01*
X0203028Y0356374D01*
X0204310Y0355924D01*
X0205581Y0355443D01*
X0206839Y0354931D01*
X0208085Y0354389D01*
X0209318Y0353818D01*
X0210536Y0353216D01*
X0211739Y0352585D01*
X0212927Y0351925D01*
X0214099Y0351237D01*
X0215253Y0350521D01*
X0216390Y0349776D01*
X0217508Y0349005D01*
X0218608Y0348206D01*
X0219687Y0347382D01*
X0220747Y0346531D01*
X0221785Y0345655D01*
X0222803Y0344754D01*
X0223798Y0343829D01*
X0224770Y0342880D01*
X0225719Y0341908D01*
X0226644Y0340913D01*
X0227545Y0339895D01*
X0228421Y0338857D01*
X0229272Y0337797D01*
X0230096Y0336718D01*
X0230895Y0335618D01*
X0231666Y0334500D01*
X0232411Y0333363D01*
X0233127Y0332209D01*
X0233815Y0331037D01*
X0234475Y0329849D01*
X0235106Y0328646D01*
X0235708Y0327428D01*
X0236279Y0326195D01*
X0236821Y0324949D01*
X0237333Y0323691D01*
X0237814Y0322420D01*
X0238264Y0321138D01*
X0238683Y0319845D01*
X0239070Y0318543D01*
X0239426Y0317232D01*
X0239750Y0315912D01*
X0240042Y0314585D01*
X0240302Y0313252D01*
X0240529Y0311912D01*
X0240724Y0310567D01*
X0240887Y0309218D01*
X0241017Y0307866D01*
X0241113Y0306511D01*
X0241177Y0305154D01*
X0183106Y0247083D02*
X0181749Y0247147D01*
X0180394Y0247243D01*
X0179042Y0247373D01*
X0177693Y0247536D01*
X0176348Y0247731D01*
X0175008Y0247958D01*
X0173675Y0248218D01*
X0172348Y0248510D01*
X0171028Y0248834D01*
X0169717Y0249190D01*
X0168415Y0249577D01*
X0167122Y0249996D01*
X0165840Y0250446D01*
X0164569Y0250927D01*
X0163311Y0251439D01*
X0162065Y0251981D01*
X0160832Y0252552D01*
X0159614Y0253154D01*
X0158411Y0253785D01*
X0157223Y0254445D01*
X0156051Y0255133D01*
X0154897Y0255849D01*
X0153760Y0256594D01*
X0152642Y0257365D01*
X0151542Y0258164D01*
X0150463Y0258988D01*
X0149403Y0259839D01*
X0148365Y0260715D01*
X0147347Y0261616D01*
X0146352Y0262541D01*
X0145380Y0263490D01*
X0144431Y0264462D01*
X0143506Y0265457D01*
X0142605Y0266475D01*
X0141729Y0267513D01*
X0140878Y0268573D01*
X0140054Y0269652D01*
X0139255Y0270752D01*
X0138484Y0271870D01*
X0137739Y0273007D01*
X0137023Y0274161D01*
X0136335Y0275333D01*
X0135675Y0276521D01*
X0135044Y0277724D01*
X0134442Y0278942D01*
X0133871Y0280175D01*
X0133329Y0281421D01*
X0132817Y0282679D01*
X0132336Y0283950D01*
X0131886Y0285232D01*
X0131467Y0286525D01*
X0131080Y0287827D01*
X0130724Y0289138D01*
X0130400Y0290458D01*
X0130108Y0291785D01*
X0129848Y0293118D01*
X0129621Y0294458D01*
X0129426Y0295803D01*
X0129263Y0297152D01*
X0129133Y0298504D01*
X0129037Y0299859D01*
X0128973Y0301216D01*
X0129037Y0299859D01*
X0129133Y0298504D01*
X0129263Y0297152D01*
X0129426Y0295803D01*
X0129621Y0294458D01*
X0129848Y0293118D01*
X0130108Y0291785D01*
X0130400Y0290458D01*
X0130724Y0289138D01*
X0131080Y0287827D01*
X0131467Y0286525D01*
X0131886Y0285232D01*
X0132336Y0283950D01*
X0132817Y0282679D01*
X0133329Y0281421D01*
X0133871Y0280175D01*
X0134442Y0278942D01*
X0135044Y0277724D01*
X0135675Y0276521D01*
X0136335Y0275333D01*
X0137023Y0274161D01*
X0137739Y0273007D01*
X0138484Y0271870D01*
X0139255Y0270752D01*
X0140054Y0269652D01*
X0140878Y0268573D01*
X0141729Y0267513D01*
X0142605Y0266475D01*
X0143506Y0265457D01*
X0144431Y0264462D01*
X0145380Y0263490D01*
X0146352Y0262541D01*
X0147347Y0261616D01*
X0148365Y0260715D01*
X0149403Y0259839D01*
X0150463Y0258988D01*
X0151542Y0258164D01*
X0152642Y0257365D01*
X0153760Y0256594D01*
X0154897Y0255849D01*
X0156051Y0255133D01*
X0157223Y0254445D01*
X0158411Y0253785D01*
X0159614Y0253154D01*
X0160832Y0252552D01*
X0162065Y0251981D01*
X0163311Y0251439D01*
X0164569Y0250927D01*
X0165840Y0250446D01*
X0167122Y0249996D01*
X0168415Y0249577D01*
X0169717Y0249190D01*
X0171028Y0248834D01*
X0172348Y0248510D01*
X0173675Y0248218D01*
X0175008Y0247958D01*
X0176348Y0247731D01*
X0177693Y0247536D01*
X0179042Y0247373D01*
X0180394Y0247243D01*
X0181749Y0247147D01*
X0183106Y0247083D01*
X0128973Y0305154D02*
X0129037Y0306511D01*
X0129133Y0307866D01*
X0129263Y0309218D01*
X0129426Y0310567D01*
X0129621Y0311912D01*
X0129848Y0313252D01*
X0130108Y0314585D01*
X0130400Y0315912D01*
X0130724Y0317232D01*
X0131080Y0318543D01*
X0131467Y0319845D01*
X0131886Y0321138D01*
X0132336Y0322420D01*
X0132817Y0323691D01*
X0133329Y0324949D01*
X0133871Y0326195D01*
X0134442Y0327428D01*
X0135044Y0328646D01*
X0135675Y0329849D01*
X0136335Y0331037D01*
X0137023Y0332209D01*
X0137739Y0333363D01*
X0138484Y0334500D01*
X0139255Y0335618D01*
X0140054Y0336718D01*
X0140878Y0337797D01*
X0141729Y0338857D01*
X0142605Y0339895D01*
X0143506Y0340913D01*
X0144431Y0341908D01*
X0145380Y0342880D01*
X0146352Y0343829D01*
X0147347Y0344754D01*
X0148365Y0345655D01*
X0149403Y0346531D01*
X0150463Y0347382D01*
X0151542Y0348206D01*
X0152642Y0349005D01*
X0153760Y0349776D01*
X0154897Y0350521D01*
X0156051Y0351237D01*
X0157223Y0351925D01*
X0158411Y0352585D01*
X0159614Y0353216D01*
X0160832Y0353818D01*
X0162065Y0354389D01*
X0163311Y0354931D01*
X0164569Y0355443D01*
X0165840Y0355924D01*
X0167122Y0356374D01*
X0168415Y0356793D01*
X0169717Y0357180D01*
X0171028Y0357536D01*
X0172348Y0357860D01*
X0173675Y0358152D01*
X0175008Y0358412D01*
X0176348Y0358639D01*
X0177693Y0358834D01*
X0179042Y0358997D01*
X0180394Y0359127D01*
X0181749Y0359223D01*
X0183106Y0359287D01*
X0153579Y0303185D02*
X0153588Y0303958D01*
X0153617Y0304730D01*
X0153664Y0305502D01*
X0153731Y0306272D01*
X0153816Y0307040D01*
X0153920Y0307806D01*
X0154043Y0308570D01*
X0154184Y0309330D01*
X0154344Y0310086D01*
X0154523Y0310838D01*
X0154720Y0311585D01*
X0154935Y0312328D01*
X0155169Y0313065D01*
X0155420Y0313796D01*
X0155689Y0314520D01*
X0155976Y0315238D01*
X0156281Y0315948D01*
X0156603Y0316651D01*
X0156942Y0317346D01*
X0157298Y0318032D01*
X0157671Y0318709D01*
X0158060Y0319377D01*
X0158465Y0320035D01*
X0158887Y0320683D01*
X0159324Y0321321D01*
X0159777Y0321947D01*
X0160245Y0322562D01*
X0160728Y0323166D01*
X0161226Y0323757D01*
X0161738Y0324336D01*
X0162264Y0324903D01*
X0162804Y0325456D01*
X0163357Y0325996D01*
X0163924Y0326522D01*
X0164503Y0327034D01*
X0165094Y0327532D01*
X0165698Y0328015D01*
X0166313Y0328483D01*
X0166939Y0328936D01*
X0167577Y0329373D01*
X0168225Y0329795D01*
X0168883Y0330200D01*
X0169551Y0330589D01*
X0170228Y0330962D01*
X0170914Y0331318D01*
X0171609Y0331657D01*
X0172312Y0331979D01*
X0173022Y0332284D01*
X0173740Y0332571D01*
X0174464Y0332840D01*
X0175195Y0333091D01*
X0175932Y0333325D01*
X0176675Y0333540D01*
X0177422Y0333737D01*
X0178174Y0333916D01*
X0178930Y0334076D01*
X0179690Y0334217D01*
X0180454Y0334340D01*
X0181220Y0334444D01*
X0181988Y0334529D01*
X0182758Y0334596D01*
X0183530Y0334643D01*
X0184302Y0334672D01*
X0185075Y0334681D01*
X0185848Y0334672D01*
X0186620Y0334643D01*
X0187392Y0334596D01*
X0188162Y0334529D01*
X0188930Y0334444D01*
X0189696Y0334340D01*
X0190460Y0334217D01*
X0191220Y0334076D01*
X0191976Y0333916D01*
X0192728Y0333737D01*
X0193475Y0333540D01*
X0194218Y0333325D01*
X0194955Y0333091D01*
X0195686Y0332840D01*
X0196410Y0332571D01*
X0197128Y0332284D01*
X0197838Y0331979D01*
X0198541Y0331657D01*
X0199236Y0331318D01*
X0199922Y0330962D01*
X0200599Y0330589D01*
X0201267Y0330200D01*
X0201925Y0329795D01*
X0202573Y0329373D01*
X0203211Y0328936D01*
X0203837Y0328483D01*
X0204452Y0328015D01*
X0205056Y0327532D01*
X0205647Y0327034D01*
X0206226Y0326522D01*
X0206793Y0325996D01*
X0207346Y0325456D01*
X0207886Y0324903D01*
X0208412Y0324336D01*
X0208924Y0323757D01*
X0209422Y0323166D01*
X0209905Y0322562D01*
X0210373Y0321947D01*
X0210826Y0321321D01*
X0211263Y0320683D01*
X0211685Y0320035D01*
X0212090Y0319377D01*
X0212479Y0318709D01*
X0212852Y0318032D01*
X0213208Y0317346D01*
X0213547Y0316651D01*
X0213869Y0315948D01*
X0214174Y0315238D01*
X0214461Y0314520D01*
X0214730Y0313796D01*
X0214981Y0313065D01*
X0215215Y0312328D01*
X0215430Y0311585D01*
X0215627Y0310838D01*
X0215806Y0310086D01*
X0215966Y0309330D01*
X0216107Y0308570D01*
X0216230Y0307806D01*
X0216334Y0307040D01*
X0216419Y0306272D01*
X0216486Y0305502D01*
X0216533Y0304730D01*
X0216562Y0303958D01*
X0216571Y0303185D01*
X0216562Y0302412D01*
X0216533Y0301640D01*
X0216486Y0300868D01*
X0216419Y0300098D01*
X0216334Y0299330D01*
X0216230Y0298564D01*
X0216107Y0297800D01*
X0215966Y0297040D01*
X0215806Y0296284D01*
X0215627Y0295532D01*
X0215430Y0294785D01*
X0215215Y0294042D01*
X0214981Y0293305D01*
X0214730Y0292574D01*
X0214461Y0291850D01*
X0214174Y0291132D01*
X0213869Y0290422D01*
X0213547Y0289719D01*
X0213208Y0289024D01*
X0212852Y0288338D01*
X0212479Y0287661D01*
X0212090Y0286993D01*
X0211685Y0286335D01*
X0211263Y0285687D01*
X0210826Y0285049D01*
X0210373Y0284423D01*
X0209905Y0283808D01*
X0209422Y0283204D01*
X0208924Y0282613D01*
X0208412Y0282034D01*
X0207886Y0281467D01*
X0207346Y0280914D01*
X0206793Y0280374D01*
X0206226Y0279848D01*
X0205647Y0279336D01*
X0205056Y0278838D01*
X0204452Y0278355D01*
X0203837Y0277887D01*
X0203211Y0277434D01*
X0202573Y0276997D01*
X0201925Y0276575D01*
X0201267Y0276170D01*
X0200599Y0275781D01*
X0199922Y0275408D01*
X0199236Y0275052D01*
X0198541Y0274713D01*
X0197838Y0274391D01*
X0197128Y0274086D01*
X0196410Y0273799D01*
X0195686Y0273530D01*
X0194955Y0273279D01*
X0194218Y0273045D01*
X0193475Y0272830D01*
X0192728Y0272633D01*
X0191976Y0272454D01*
X0191220Y0272294D01*
X0190460Y0272153D01*
X0189696Y0272030D01*
X0188930Y0271926D01*
X0188162Y0271841D01*
X0187392Y0271774D01*
X0186620Y0271727D01*
X0185848Y0271698D01*
X0185075Y0271689D01*
X0184302Y0271698D01*
X0183530Y0271727D01*
X0182758Y0271774D01*
X0181988Y0271841D01*
X0181220Y0271926D01*
X0180454Y0272030D01*
X0179690Y0272153D01*
X0178930Y0272294D01*
X0178174Y0272454D01*
X0177422Y0272633D01*
X0176675Y0272830D01*
X0175932Y0273045D01*
X0175195Y0273279D01*
X0174464Y0273530D01*
X0173740Y0273799D01*
X0173022Y0274086D01*
X0172312Y0274391D01*
X0171609Y0274713D01*
X0170914Y0275052D01*
X0170228Y0275408D01*
X0169551Y0275781D01*
X0168883Y0276170D01*
X0168225Y0276575D01*
X0167577Y0276997D01*
X0166939Y0277434D01*
X0166313Y0277887D01*
X0165698Y0278355D01*
X0165094Y0278838D01*
X0164503Y0279336D01*
X0163924Y0279848D01*
X0163357Y0280374D01*
X0162804Y0280914D01*
X0162264Y0281467D01*
X0161738Y0282034D01*
X0161226Y0282613D01*
X0160728Y0283204D01*
X0160245Y0283808D01*
X0159777Y0284423D01*
X0159324Y0285049D01*
X0158887Y0285687D01*
X0158465Y0286335D01*
X0158060Y0286993D01*
X0157671Y0287661D01*
X0157298Y0288338D01*
X0156942Y0289024D01*
X0156603Y0289719D01*
X0156281Y0290422D01*
X0155976Y0291132D01*
X0155689Y0291850D01*
X0155420Y0292574D01*
X0155169Y0293305D01*
X0154935Y0294042D01*
X0154720Y0294785D01*
X0154523Y0295532D01*
X0154344Y0296284D01*
X0154184Y0297040D01*
X0154043Y0297800D01*
X0153920Y0298564D01*
X0153816Y0299330D01*
X0153731Y0300098D01*
X0153664Y0300868D01*
X0153617Y0301640D01*
X0153588Y0302412D01*
X0153579Y0303185D01*
X0128973Y0064996D02*
X0129037Y0063639D01*
X0129133Y0062284D01*
X0129263Y0060932D01*
X0129426Y0059583D01*
X0129621Y0058238D01*
X0129848Y0056898D01*
X0130108Y0055565D01*
X0130400Y0054238D01*
X0130724Y0052918D01*
X0131080Y0051607D01*
X0131467Y0050305D01*
X0131886Y0049012D01*
X0132336Y0047730D01*
X0132817Y0046459D01*
X0133329Y0045201D01*
X0133871Y0043955D01*
X0134442Y0042722D01*
X0135044Y0041504D01*
X0135675Y0040301D01*
X0136335Y0039113D01*
X0137023Y0037941D01*
X0137739Y0036787D01*
X0138484Y0035650D01*
X0139255Y0034532D01*
X0140054Y0033432D01*
X0140878Y0032353D01*
X0141729Y0031293D01*
X0142605Y0030255D01*
X0143506Y0029237D01*
X0144431Y0028242D01*
X0145380Y0027270D01*
X0146352Y0026321D01*
X0147347Y0025396D01*
X0148365Y0024495D01*
X0149403Y0023619D01*
X0150463Y0022768D01*
X0151542Y0021944D01*
X0152642Y0021145D01*
X0153760Y0020374D01*
X0154897Y0019629D01*
X0156051Y0018913D01*
X0157223Y0018225D01*
X0158411Y0017565D01*
X0159614Y0016934D01*
X0160832Y0016332D01*
X0162065Y0015761D01*
X0163311Y0015219D01*
X0164569Y0014707D01*
X0165840Y0014226D01*
X0167122Y0013776D01*
X0168415Y0013357D01*
X0169717Y0012970D01*
X0171028Y0012614D01*
X0172348Y0012290D01*
X0173675Y0011998D01*
X0175008Y0011738D01*
X0176348Y0011511D01*
X0177693Y0011316D01*
X0179042Y0011153D01*
X0180394Y0011023D01*
X0181749Y0010927D01*
X0183106Y0010863D01*
X0241177Y0068934D02*
X0241113Y0070291D01*
X0241017Y0071646D01*
X0240887Y0072998D01*
X0240724Y0074347D01*
X0240529Y0075692D01*
X0240302Y0077032D01*
X0240042Y0078365D01*
X0239750Y0079692D01*
X0239426Y0081012D01*
X0239070Y0082323D01*
X0238683Y0083625D01*
X0238264Y0084918D01*
X0237814Y0086200D01*
X0237333Y0087471D01*
X0236821Y0088729D01*
X0236279Y0089975D01*
X0235708Y0091208D01*
X0235106Y0092426D01*
X0234475Y0093629D01*
X0233815Y0094817D01*
X0233127Y0095989D01*
X0232411Y0097143D01*
X0231666Y0098280D01*
X0230895Y0099398D01*
X0230096Y0100498D01*
X0229272Y0101577D01*
X0228421Y0102637D01*
X0227545Y0103675D01*
X0226644Y0104693D01*
X0225719Y0105688D01*
X0224770Y0106660D01*
X0223798Y0107609D01*
X0222803Y0108534D01*
X0221785Y0109435D01*
X0220747Y0110311D01*
X0219687Y0111162D01*
X0218608Y0111986D01*
X0217508Y0112785D01*
X0216390Y0113556D01*
X0215253Y0114301D01*
X0214099Y0115017D01*
X0212927Y0115705D01*
X0211739Y0116365D01*
X0210536Y0116996D01*
X0209318Y0117598D01*
X0208085Y0118169D01*
X0206839Y0118711D01*
X0205581Y0119223D01*
X0204310Y0119704D01*
X0203028Y0120154D01*
X0201735Y0120573D01*
X0200433Y0120960D01*
X0199122Y0121316D01*
X0197802Y0121640D01*
X0196475Y0121932D01*
X0195142Y0122192D01*
X0193802Y0122419D01*
X0192457Y0122614D01*
X0191108Y0122777D01*
X0189756Y0122907D01*
X0188401Y0123003D01*
X0187044Y0123067D01*
X0128973Y0064996D02*
X0129037Y0063639D01*
X0129133Y0062284D01*
X0129263Y0060932D01*
X0129426Y0059583D01*
X0129621Y0058238D01*
X0129848Y0056898D01*
X0130108Y0055565D01*
X0130400Y0054238D01*
X0130724Y0052918D01*
X0131080Y0051607D01*
X0131467Y0050305D01*
X0131886Y0049012D01*
X0132336Y0047730D01*
X0132817Y0046459D01*
X0133329Y0045201D01*
X0133871Y0043955D01*
X0134442Y0042722D01*
X0135044Y0041504D01*
X0135675Y0040301D01*
X0136335Y0039113D01*
X0137023Y0037941D01*
X0137739Y0036787D01*
X0138484Y0035650D01*
X0139255Y0034532D01*
X0140054Y0033432D01*
X0140878Y0032353D01*
X0141729Y0031293D01*
X0142605Y0030255D01*
X0143506Y0029237D01*
X0144431Y0028242D01*
X0145380Y0027270D01*
X0146352Y0026321D01*
X0147347Y0025396D01*
X0148365Y0024495D01*
X0149403Y0023619D01*
X0150463Y0022768D01*
X0151542Y0021944D01*
X0152642Y0021145D01*
X0153760Y0020374D01*
X0154897Y0019629D01*
X0156051Y0018913D01*
X0157223Y0018225D01*
X0158411Y0017565D01*
X0159614Y0016934D01*
X0160832Y0016332D01*
X0162065Y0015761D01*
X0163311Y0015219D01*
X0164569Y0014707D01*
X0165840Y0014226D01*
X0167122Y0013776D01*
X0168415Y0013357D01*
X0169717Y0012970D01*
X0171028Y0012614D01*
X0172348Y0012290D01*
X0173675Y0011998D01*
X0175008Y0011738D01*
X0176348Y0011511D01*
X0177693Y0011316D01*
X0179042Y0011153D01*
X0180394Y0011023D01*
X0181749Y0010927D01*
X0183106Y0010863D01*
X0128973Y0068934D02*
X0129037Y0070291D01*
X0129133Y0071646D01*
X0129263Y0072998D01*
X0129426Y0074347D01*
X0129621Y0075692D01*
X0129848Y0077032D01*
X0130108Y0078365D01*
X0130400Y0079692D01*
X0130724Y0081012D01*
X0131080Y0082323D01*
X0131467Y0083625D01*
X0131886Y0084918D01*
X0132336Y0086200D01*
X0132817Y0087471D01*
X0133329Y0088729D01*
X0133871Y0089975D01*
X0134442Y0091208D01*
X0135044Y0092426D01*
X0135675Y0093629D01*
X0136335Y0094817D01*
X0137023Y0095989D01*
X0137739Y0097143D01*
X0138484Y0098280D01*
X0139255Y0099398D01*
X0140054Y0100498D01*
X0140878Y0101577D01*
X0141729Y0102637D01*
X0142605Y0103675D01*
X0143506Y0104693D01*
X0144431Y0105688D01*
X0145380Y0106660D01*
X0146352Y0107609D01*
X0147347Y0108534D01*
X0148365Y0109435D01*
X0149403Y0110311D01*
X0150463Y0111162D01*
X0151542Y0111986D01*
X0152642Y0112785D01*
X0153760Y0113556D01*
X0154897Y0114301D01*
X0156051Y0115017D01*
X0157223Y0115705D01*
X0158411Y0116365D01*
X0159614Y0116996D01*
X0160832Y0117598D01*
X0162065Y0118169D01*
X0163311Y0118711D01*
X0164569Y0119223D01*
X0165840Y0119704D01*
X0167122Y0120154D01*
X0168415Y0120573D01*
X0169717Y0120960D01*
X0171028Y0121316D01*
X0172348Y0121640D01*
X0173675Y0121932D01*
X0175008Y0122192D01*
X0176348Y0122419D01*
X0177693Y0122614D01*
X0179042Y0122777D01*
X0180394Y0122907D01*
X0181749Y0123003D01*
X0183106Y0123067D01*
X0153579Y0066965D02*
X0153588Y0067738D01*
X0153617Y0068510D01*
X0153664Y0069282D01*
X0153731Y0070052D01*
X0153816Y0070820D01*
X0153920Y0071586D01*
X0154043Y0072350D01*
X0154184Y0073110D01*
X0154344Y0073866D01*
X0154523Y0074618D01*
X0154720Y0075365D01*
X0154935Y0076108D01*
X0155169Y0076845D01*
X0155420Y0077576D01*
X0155689Y0078300D01*
X0155976Y0079018D01*
X0156281Y0079728D01*
X0156603Y0080431D01*
X0156942Y0081126D01*
X0157298Y0081812D01*
X0157671Y0082489D01*
X0158060Y0083157D01*
X0158465Y0083815D01*
X0158887Y0084463D01*
X0159324Y0085101D01*
X0159777Y0085727D01*
X0160245Y0086342D01*
X0160728Y0086946D01*
X0161226Y0087537D01*
X0161738Y0088116D01*
X0162264Y0088683D01*
X0162804Y0089236D01*
X0163357Y0089776D01*
X0163924Y0090302D01*
X0164503Y0090814D01*
X0165094Y0091312D01*
X0165698Y0091795D01*
X0166313Y0092263D01*
X0166939Y0092716D01*
X0167577Y0093153D01*
X0168225Y0093575D01*
X0168883Y0093980D01*
X0169551Y0094369D01*
X0170228Y0094742D01*
X0170914Y0095098D01*
X0171609Y0095437D01*
X0172312Y0095759D01*
X0173022Y0096064D01*
X0173740Y0096351D01*
X0174464Y0096620D01*
X0175195Y0096871D01*
X0175932Y0097105D01*
X0176675Y0097320D01*
X0177422Y0097517D01*
X0178174Y0097696D01*
X0178930Y0097856D01*
X0179690Y0097997D01*
X0180454Y0098120D01*
X0181220Y0098224D01*
X0181988Y0098309D01*
X0182758Y0098376D01*
X0183530Y0098423D01*
X0184302Y0098452D01*
X0185075Y0098461D01*
X0185848Y0098452D01*
X0186620Y0098423D01*
X0187392Y0098376D01*
X0188162Y0098309D01*
X0188930Y0098224D01*
X0189696Y0098120D01*
X0190460Y0097997D01*
X0191220Y0097856D01*
X0191976Y0097696D01*
X0192728Y0097517D01*
X0193475Y0097320D01*
X0194218Y0097105D01*
X0194955Y0096871D01*
X0195686Y0096620D01*
X0196410Y0096351D01*
X0197128Y0096064D01*
X0197838Y0095759D01*
X0198541Y0095437D01*
X0199236Y0095098D01*
X0199922Y0094742D01*
X0200599Y0094369D01*
X0201267Y0093980D01*
X0201925Y0093575D01*
X0202573Y0093153D01*
X0203211Y0092716D01*
X0203837Y0092263D01*
X0204452Y0091795D01*
X0205056Y0091312D01*
X0205647Y0090814D01*
X0206226Y0090302D01*
X0206793Y0089776D01*
X0207346Y0089236D01*
X0207886Y0088683D01*
X0208412Y0088116D01*
X0208924Y0087537D01*
X0209422Y0086946D01*
X0209905Y0086342D01*
X0210373Y0085727D01*
X0210826Y0085101D01*
X0211263Y0084463D01*
X0211685Y0083815D01*
X0212090Y0083157D01*
X0212479Y0082489D01*
X0212852Y0081812D01*
X0213208Y0081126D01*
X0213547Y0080431D01*
X0213869Y0079728D01*
X0214174Y0079018D01*
X0214461Y0078300D01*
X0214730Y0077576D01*
X0214981Y0076845D01*
X0215215Y0076108D01*
X0215430Y0075365D01*
X0215627Y0074618D01*
X0215806Y0073866D01*
X0215966Y0073110D01*
X0216107Y0072350D01*
X0216230Y0071586D01*
X0216334Y0070820D01*
X0216419Y0070052D01*
X0216486Y0069282D01*
X0216533Y0068510D01*
X0216562Y0067738D01*
X0216571Y0066965D01*
X0216562Y0066192D01*
X0216533Y0065420D01*
X0216486Y0064648D01*
X0216419Y0063878D01*
X0216334Y0063110D01*
X0216230Y0062344D01*
X0216107Y0061580D01*
X0215966Y0060820D01*
X0215806Y0060064D01*
X0215627Y0059312D01*
X0215430Y0058565D01*
X0215215Y0057822D01*
X0214981Y0057085D01*
X0214730Y0056354D01*
X0214461Y0055630D01*
X0214174Y0054912D01*
X0213869Y0054202D01*
X0213547Y0053499D01*
X0213208Y0052804D01*
X0212852Y0052118D01*
X0212479Y0051441D01*
X0212090Y0050773D01*
X0211685Y0050115D01*
X0211263Y0049467D01*
X0210826Y0048829D01*
X0210373Y0048203D01*
X0209905Y0047588D01*
X0209422Y0046984D01*
X0208924Y0046393D01*
X0208412Y0045814D01*
X0207886Y0045247D01*
X0207346Y0044694D01*
X0206793Y0044154D01*
X0206226Y0043628D01*
X0205647Y0043116D01*
X0205056Y0042618D01*
X0204452Y0042135D01*
X0203837Y0041667D01*
X0203211Y0041214D01*
X0202573Y0040777D01*
X0201925Y0040355D01*
X0201267Y0039950D01*
X0200599Y0039561D01*
X0199922Y0039188D01*
X0199236Y0038832D01*
X0198541Y0038493D01*
X0197838Y0038171D01*
X0197128Y0037866D01*
X0196410Y0037579D01*
X0195686Y0037310D01*
X0194955Y0037059D01*
X0194218Y0036825D01*
X0193475Y0036610D01*
X0192728Y0036413D01*
X0191976Y0036234D01*
X0191220Y0036074D01*
X0190460Y0035933D01*
X0189696Y0035810D01*
X0188930Y0035706D01*
X0188162Y0035621D01*
X0187392Y0035554D01*
X0186620Y0035507D01*
X0185848Y0035478D01*
X0185075Y0035469D01*
X0184302Y0035478D01*
X0183530Y0035507D01*
X0182758Y0035554D01*
X0181988Y0035621D01*
X0181220Y0035706D01*
X0180454Y0035810D01*
X0179690Y0035933D01*
X0178930Y0036074D01*
X0178174Y0036234D01*
X0177422Y0036413D01*
X0176675Y0036610D01*
X0175932Y0036825D01*
X0175195Y0037059D01*
X0174464Y0037310D01*
X0173740Y0037579D01*
X0173022Y0037866D01*
X0172312Y0038171D01*
X0171609Y0038493D01*
X0170914Y0038832D01*
X0170228Y0039188D01*
X0169551Y0039561D01*
X0168883Y0039950D01*
X0168225Y0040355D01*
X0167577Y0040777D01*
X0166939Y0041214D01*
X0166313Y0041667D01*
X0165698Y0042135D01*
X0165094Y0042618D01*
X0164503Y0043116D01*
X0163924Y0043628D01*
X0163357Y0044154D01*
X0162804Y0044694D01*
X0162264Y0045247D01*
X0161738Y0045814D01*
X0161226Y0046393D01*
X0160728Y0046984D01*
X0160245Y0047588D01*
X0159777Y0048203D01*
X0159324Y0048829D01*
X0158887Y0049467D01*
X0158465Y0050115D01*
X0158060Y0050773D01*
X0157671Y0051441D01*
X0157298Y0052118D01*
X0156942Y0052804D01*
X0156603Y0053499D01*
X0156281Y0054202D01*
X0155976Y0054912D01*
X0155689Y0055630D01*
X0155420Y0056354D01*
X0155169Y0057085D01*
X0154935Y0057822D01*
X0154720Y0058565D01*
X0154523Y0059312D01*
X0154344Y0060064D01*
X0154184Y0060820D01*
X0154043Y0061580D01*
X0153920Y0062344D01*
X0153816Y0063110D01*
X0153731Y0063878D01*
X0153664Y0064648D01*
X0153617Y0065420D01*
X0153588Y0066192D01*
X0153579Y0066965D01*
X0064996Y0010863D02*
X0063639Y0010927D01*
X0062284Y0011023D01*
X0060932Y0011153D01*
X0059583Y0011316D01*
X0058238Y0011511D01*
X0056898Y0011738D01*
X0055565Y0011998D01*
X0054238Y0012290D01*
X0052918Y0012614D01*
X0051607Y0012970D01*
X0050305Y0013357D01*
X0049012Y0013776D01*
X0047730Y0014226D01*
X0046459Y0014707D01*
X0045201Y0015219D01*
X0043955Y0015761D01*
X0042722Y0016332D01*
X0041504Y0016934D01*
X0040301Y0017565D01*
X0039113Y0018225D01*
X0037941Y0018913D01*
X0036787Y0019629D01*
X0035650Y0020374D01*
X0034532Y0021145D01*
X0033432Y0021944D01*
X0032353Y0022768D01*
X0031293Y0023619D01*
X0030255Y0024495D01*
X0029237Y0025396D01*
X0028242Y0026321D01*
X0027270Y0027270D01*
X0026321Y0028242D01*
X0025396Y0029237D01*
X0024495Y0030255D01*
X0023619Y0031293D01*
X0022768Y0032353D01*
X0021944Y0033432D01*
X0021145Y0034532D01*
X0020374Y0035650D01*
X0019629Y0036787D01*
X0018913Y0037941D01*
X0018225Y0039113D01*
X0017565Y0040301D01*
X0016934Y0041504D01*
X0016332Y0042722D01*
X0015761Y0043955D01*
X0015219Y0045201D01*
X0014707Y0046459D01*
X0014226Y0047730D01*
X0013776Y0049012D01*
X0013357Y0050305D01*
X0012970Y0051607D01*
X0012614Y0052918D01*
X0012290Y0054238D01*
X0011998Y0055565D01*
X0011738Y0056898D01*
X0011511Y0058238D01*
X0011316Y0059583D01*
X0011153Y0060932D01*
X0011023Y0062284D01*
X0010927Y0063639D01*
X0010863Y0064996D01*
X0068934Y0123067D02*
X0070291Y0123003D01*
X0071646Y0122907D01*
X0072998Y0122777D01*
X0074347Y0122614D01*
X0075692Y0122419D01*
X0077032Y0122192D01*
X0078365Y0121932D01*
X0079692Y0121640D01*
X0081012Y0121316D01*
X0082323Y0120960D01*
X0083625Y0120573D01*
X0084918Y0120154D01*
X0086200Y0119704D01*
X0087471Y0119223D01*
X0088729Y0118711D01*
X0089975Y0118169D01*
X0091208Y0117598D01*
X0092426Y0116996D01*
X0093629Y0116365D01*
X0094817Y0115705D01*
X0095989Y0115017D01*
X0097143Y0114301D01*
X0098280Y0113556D01*
X0099398Y0112785D01*
X0100498Y0111986D01*
X0101577Y0111162D01*
X0102637Y0110311D01*
X0103675Y0109435D01*
X0104693Y0108534D01*
X0105688Y0107609D01*
X0106660Y0106660D01*
X0107609Y0105688D01*
X0108534Y0104693D01*
X0109435Y0103675D01*
X0110311Y0102637D01*
X0111162Y0101577D01*
X0111986Y0100498D01*
X0112785Y0099398D01*
X0113556Y0098280D01*
X0114301Y0097143D01*
X0115017Y0095989D01*
X0115705Y0094817D01*
X0116365Y0093629D01*
X0116996Y0092426D01*
X0117598Y0091208D01*
X0118169Y0089975D01*
X0118711Y0088729D01*
X0119223Y0087471D01*
X0119704Y0086200D01*
X0120154Y0084918D01*
X0120573Y0083625D01*
X0120960Y0082323D01*
X0121316Y0081012D01*
X0121640Y0079692D01*
X0121932Y0078365D01*
X0122192Y0077032D01*
X0122419Y0075692D01*
X0122614Y0074347D01*
X0122777Y0072998D01*
X0122907Y0071646D01*
X0123003Y0070291D01*
X0123067Y0068934D01*
X0064996Y0010863D02*
X0063639Y0010927D01*
X0062284Y0011023D01*
X0060932Y0011153D01*
X0059583Y0011316D01*
X0058238Y0011511D01*
X0056898Y0011738D01*
X0055565Y0011998D01*
X0054238Y0012290D01*
X0052918Y0012614D01*
X0051607Y0012970D01*
X0050305Y0013357D01*
X0049012Y0013776D01*
X0047730Y0014226D01*
X0046459Y0014707D01*
X0045201Y0015219D01*
X0043955Y0015761D01*
X0042722Y0016332D01*
X0041504Y0016934D01*
X0040301Y0017565D01*
X0039113Y0018225D01*
X0037941Y0018913D01*
X0036787Y0019629D01*
X0035650Y0020374D01*
X0034532Y0021145D01*
X0033432Y0021944D01*
X0032353Y0022768D01*
X0031293Y0023619D01*
X0030255Y0024495D01*
X0029237Y0025396D01*
X0028242Y0026321D01*
X0027270Y0027270D01*
X0026321Y0028242D01*
X0025396Y0029237D01*
X0024495Y0030255D01*
X0023619Y0031293D01*
X0022768Y0032353D01*
X0021944Y0033432D01*
X0021145Y0034532D01*
X0020374Y0035650D01*
X0019629Y0036787D01*
X0018913Y0037941D01*
X0018225Y0039113D01*
X0017565Y0040301D01*
X0016934Y0041504D01*
X0016332Y0042722D01*
X0015761Y0043955D01*
X0015219Y0045201D01*
X0014707Y0046459D01*
X0014226Y0047730D01*
X0013776Y0049012D01*
X0013357Y0050305D01*
X0012970Y0051607D01*
X0012614Y0052918D01*
X0012290Y0054238D01*
X0011998Y0055565D01*
X0011738Y0056898D01*
X0011511Y0058238D01*
X0011316Y0059583D01*
X0011153Y0060932D01*
X0011023Y0062284D01*
X0010927Y0063639D01*
X0010863Y0064996D01*
X0010863Y0068934D02*
X0010927Y0070291D01*
X0011023Y0071646D01*
X0011153Y0072998D01*
X0011316Y0074347D01*
X0011511Y0075692D01*
X0011738Y0077032D01*
X0011998Y0078365D01*
X0012290Y0079692D01*
X0012614Y0081012D01*
X0012970Y0082323D01*
X0013357Y0083625D01*
X0013776Y0084918D01*
X0014226Y0086200D01*
X0014707Y0087471D01*
X0015219Y0088729D01*
X0015761Y0089975D01*
X0016332Y0091208D01*
X0016934Y0092426D01*
X0017565Y0093629D01*
X0018225Y0094817D01*
X0018913Y0095989D01*
X0019629Y0097143D01*
X0020374Y0098280D01*
X0021145Y0099398D01*
X0021944Y0100498D01*
X0022768Y0101577D01*
X0023619Y0102637D01*
X0024495Y0103675D01*
X0025396Y0104693D01*
X0026321Y0105688D01*
X0027270Y0106660D01*
X0028242Y0107609D01*
X0029237Y0108534D01*
X0030255Y0109435D01*
X0031293Y0110311D01*
X0032353Y0111162D01*
X0033432Y0111986D01*
X0034532Y0112785D01*
X0035650Y0113556D01*
X0036787Y0114301D01*
X0037941Y0115017D01*
X0039113Y0115705D01*
X0040301Y0116365D01*
X0041504Y0116996D01*
X0042722Y0117598D01*
X0043955Y0118169D01*
X0045201Y0118711D01*
X0046459Y0119223D01*
X0047730Y0119704D01*
X0049012Y0120154D01*
X0050305Y0120573D01*
X0051607Y0120960D01*
X0052918Y0121316D01*
X0054238Y0121640D01*
X0055565Y0121932D01*
X0056898Y0122192D01*
X0058238Y0122419D01*
X0059583Y0122614D01*
X0060932Y0122777D01*
X0062284Y0122907D01*
X0063639Y0123003D01*
X0064996Y0123067D01*
X0035469Y0066965D02*
X0035478Y0067738D01*
X0035507Y0068510D01*
X0035554Y0069282D01*
X0035621Y0070052D01*
X0035706Y0070820D01*
X0035810Y0071586D01*
X0035933Y0072350D01*
X0036074Y0073110D01*
X0036234Y0073866D01*
X0036413Y0074618D01*
X0036610Y0075365D01*
X0036825Y0076108D01*
X0037059Y0076845D01*
X0037310Y0077576D01*
X0037579Y0078300D01*
X0037866Y0079018D01*
X0038171Y0079728D01*
X0038493Y0080431D01*
X0038832Y0081126D01*
X0039188Y0081812D01*
X0039561Y0082489D01*
X0039950Y0083157D01*
X0040355Y0083815D01*
X0040777Y0084463D01*
X0041214Y0085101D01*
X0041667Y0085727D01*
X0042135Y0086342D01*
X0042618Y0086946D01*
X0043116Y0087537D01*
X0043628Y0088116D01*
X0044154Y0088683D01*
X0044694Y0089236D01*
X0045247Y0089776D01*
X0045814Y0090302D01*
X0046393Y0090814D01*
X0046984Y0091312D01*
X0047588Y0091795D01*
X0048203Y0092263D01*
X0048829Y0092716D01*
X0049467Y0093153D01*
X0050115Y0093575D01*
X0050773Y0093980D01*
X0051441Y0094369D01*
X0052118Y0094742D01*
X0052804Y0095098D01*
X0053499Y0095437D01*
X0054202Y0095759D01*
X0054912Y0096064D01*
X0055630Y0096351D01*
X0056354Y0096620D01*
X0057085Y0096871D01*
X0057822Y0097105D01*
X0058565Y0097320D01*
X0059312Y0097517D01*
X0060064Y0097696D01*
X0060820Y0097856D01*
X0061580Y0097997D01*
X0062344Y0098120D01*
X0063110Y0098224D01*
X0063878Y0098309D01*
X0064648Y0098376D01*
X0065420Y0098423D01*
X0066192Y0098452D01*
X0066965Y0098461D01*
X0067738Y0098452D01*
X0068510Y0098423D01*
X0069282Y0098376D01*
X0070052Y0098309D01*
X0070820Y0098224D01*
X0071586Y0098120D01*
X0072350Y0097997D01*
X0073110Y0097856D01*
X0073866Y0097696D01*
X0074618Y0097517D01*
X0075365Y0097320D01*
X0076108Y0097105D01*
X0076845Y0096871D01*
X0077576Y0096620D01*
X0078300Y0096351D01*
X0079018Y0096064D01*
X0079728Y0095759D01*
X0080431Y0095437D01*
X0081126Y0095098D01*
X0081812Y0094742D01*
X0082489Y0094369D01*
X0083157Y0093980D01*
X0083815Y0093575D01*
X0084463Y0093153D01*
X0085101Y0092716D01*
X0085727Y0092263D01*
X0086342Y0091795D01*
X0086946Y0091312D01*
X0087537Y0090814D01*
X0088116Y0090302D01*
X0088683Y0089776D01*
X0089236Y0089236D01*
X0089776Y0088683D01*
X0090302Y0088116D01*
X0090814Y0087537D01*
X0091312Y0086946D01*
X0091795Y0086342D01*
X0092263Y0085727D01*
X0092716Y0085101D01*
X0093153Y0084463D01*
X0093575Y0083815D01*
X0093980Y0083157D01*
X0094369Y0082489D01*
X0094742Y0081812D01*
X0095098Y0081126D01*
X0095437Y0080431D01*
X0095759Y0079728D01*
X0096064Y0079018D01*
X0096351Y0078300D01*
X0096620Y0077576D01*
X0096871Y0076845D01*
X0097105Y0076108D01*
X0097320Y0075365D01*
X0097517Y0074618D01*
X0097696Y0073866D01*
X0097856Y0073110D01*
X0097997Y0072350D01*
X0098120Y0071586D01*
X0098224Y0070820D01*
X0098309Y0070052D01*
X0098376Y0069282D01*
X0098423Y0068510D01*
X0098452Y0067738D01*
X0098461Y0066965D01*
X0098452Y0066192D01*
X0098423Y0065420D01*
X0098376Y0064648D01*
X0098309Y0063878D01*
X0098224Y0063110D01*
X0098120Y0062344D01*
X0097997Y0061580D01*
X0097856Y0060820D01*
X0097696Y0060064D01*
X0097517Y0059312D01*
X0097320Y0058565D01*
X0097105Y0057822D01*
X0096871Y0057085D01*
X0096620Y0056354D01*
X0096351Y0055630D01*
X0096064Y0054912D01*
X0095759Y0054202D01*
X0095437Y0053499D01*
X0095098Y0052804D01*
X0094742Y0052118D01*
X0094369Y0051441D01*
X0093980Y0050773D01*
X0093575Y0050115D01*
X0093153Y0049467D01*
X0092716Y0048829D01*
X0092263Y0048203D01*
X0091795Y0047588D01*
X0091312Y0046984D01*
X0090814Y0046393D01*
X0090302Y0045814D01*
X0089776Y0045247D01*
X0089236Y0044694D01*
X0088683Y0044154D01*
X0088116Y0043628D01*
X0087537Y0043116D01*
X0086946Y0042618D01*
X0086342Y0042135D01*
X0085727Y0041667D01*
X0085101Y0041214D01*
X0084463Y0040777D01*
X0083815Y0040355D01*
X0083157Y0039950D01*
X0082489Y0039561D01*
X0081812Y0039188D01*
X0081126Y0038832D01*
X0080431Y0038493D01*
X0079728Y0038171D01*
X0079018Y0037866D01*
X0078300Y0037579D01*
X0077576Y0037310D01*
X0076845Y0037059D01*
X0076108Y0036825D01*
X0075365Y0036610D01*
X0074618Y0036413D01*
X0073866Y0036234D01*
X0073110Y0036074D01*
X0072350Y0035933D01*
X0071586Y0035810D01*
X0070820Y0035706D01*
X0070052Y0035621D01*
X0069282Y0035554D01*
X0068510Y0035507D01*
X0067738Y0035478D01*
X0066965Y0035469D01*
X0066192Y0035478D01*
X0065420Y0035507D01*
X0064648Y0035554D01*
X0063878Y0035621D01*
X0063110Y0035706D01*
X0062344Y0035810D01*
X0061580Y0035933D01*
X0060820Y0036074D01*
X0060064Y0036234D01*
X0059312Y0036413D01*
X0058565Y0036610D01*
X0057822Y0036825D01*
X0057085Y0037059D01*
X0056354Y0037310D01*
X0055630Y0037579D01*
X0054912Y0037866D01*
X0054202Y0038171D01*
X0053499Y0038493D01*
X0052804Y0038832D01*
X0052118Y0039188D01*
X0051441Y0039561D01*
X0050773Y0039950D01*
X0050115Y0040355D01*
X0049467Y0040777D01*
X0048829Y0041214D01*
X0048203Y0041667D01*
X0047588Y0042135D01*
X0046984Y0042618D01*
X0046393Y0043116D01*
X0045814Y0043628D01*
X0045247Y0044154D01*
X0044694Y0044694D01*
X0044154Y0045247D01*
X0043628Y0045814D01*
X0043116Y0046393D01*
X0042618Y0046984D01*
X0042135Y0047588D01*
X0041667Y0048203D01*
X0041214Y0048829D01*
X0040777Y0049467D01*
X0040355Y0050115D01*
X0039950Y0050773D01*
X0039561Y0051441D01*
X0039188Y0052118D01*
X0038832Y0052804D01*
X0038493Y0053499D01*
X0038171Y0054202D01*
X0037866Y0054912D01*
X0037579Y0055630D01*
X0037310Y0056354D01*
X0037059Y0057085D01*
X0036825Y0057822D01*
X0036610Y0058565D01*
X0036413Y0059312D01*
X0036234Y0060064D01*
X0036074Y0060820D01*
X0035933Y0061580D01*
X0035810Y0062344D01*
X0035706Y0063110D01*
X0035621Y0063878D01*
X0035554Y0064648D01*
X0035507Y0065420D01*
X0035478Y0066192D01*
X0035469Y0066965D01*
X0247083Y0064996D02*
X0247147Y0063639D01*
X0247243Y0062284D01*
X0247373Y0060932D01*
X0247536Y0059583D01*
X0247731Y0058238D01*
X0247958Y0056898D01*
X0248218Y0055565D01*
X0248510Y0054238D01*
X0248834Y0052918D01*
X0249190Y0051607D01*
X0249577Y0050305D01*
X0249996Y0049012D01*
X0250446Y0047730D01*
X0250927Y0046459D01*
X0251439Y0045201D01*
X0251981Y0043955D01*
X0252552Y0042722D01*
X0253154Y0041504D01*
X0253785Y0040301D01*
X0254445Y0039113D01*
X0255133Y0037941D01*
X0255849Y0036787D01*
X0256594Y0035650D01*
X0257365Y0034532D01*
X0258164Y0033432D01*
X0258988Y0032353D01*
X0259839Y0031293D01*
X0260715Y0030255D01*
X0261616Y0029237D01*
X0262541Y0028242D01*
X0263490Y0027270D01*
X0264462Y0026321D01*
X0265457Y0025396D01*
X0266475Y0024495D01*
X0267513Y0023619D01*
X0268573Y0022768D01*
X0269652Y0021944D01*
X0270752Y0021145D01*
X0271870Y0020374D01*
X0273007Y0019629D01*
X0274161Y0018913D01*
X0275333Y0018225D01*
X0276521Y0017565D01*
X0277724Y0016934D01*
X0278942Y0016332D01*
X0280175Y0015761D01*
X0281421Y0015219D01*
X0282679Y0014707D01*
X0283950Y0014226D01*
X0285232Y0013776D01*
X0286525Y0013357D01*
X0287827Y0012970D01*
X0289138Y0012614D01*
X0290458Y0012290D01*
X0291785Y0011998D01*
X0293118Y0011738D01*
X0294458Y0011511D01*
X0295803Y0011316D01*
X0297152Y0011153D01*
X0298504Y0011023D01*
X0299859Y0010927D01*
X0301216Y0010863D01*
X0247083Y0068934D02*
X0247147Y0070291D01*
X0247243Y0071646D01*
X0247373Y0072998D01*
X0247536Y0074347D01*
X0247731Y0075692D01*
X0247958Y0077032D01*
X0248218Y0078365D01*
X0248510Y0079692D01*
X0248834Y0081012D01*
X0249190Y0082323D01*
X0249577Y0083625D01*
X0249996Y0084918D01*
X0250446Y0086200D01*
X0250927Y0087471D01*
X0251439Y0088729D01*
X0251981Y0089975D01*
X0252552Y0091208D01*
X0253154Y0092426D01*
X0253785Y0093629D01*
X0254445Y0094817D01*
X0255133Y0095989D01*
X0255849Y0097143D01*
X0256594Y0098280D01*
X0257365Y0099398D01*
X0258164Y0100498D01*
X0258988Y0101577D01*
X0259839Y0102637D01*
X0260715Y0103675D01*
X0261616Y0104693D01*
X0262541Y0105688D01*
X0263490Y0106660D01*
X0264462Y0107609D01*
X0265457Y0108534D01*
X0266475Y0109435D01*
X0267513Y0110311D01*
X0268573Y0111162D01*
X0269652Y0111986D01*
X0270752Y0112785D01*
X0271870Y0113556D01*
X0273007Y0114301D01*
X0274161Y0115017D01*
X0275333Y0115705D01*
X0276521Y0116365D01*
X0277724Y0116996D01*
X0278942Y0117598D01*
X0280175Y0118169D01*
X0281421Y0118711D01*
X0282679Y0119223D01*
X0283950Y0119704D01*
X0285232Y0120154D01*
X0286525Y0120573D01*
X0287827Y0120960D01*
X0289138Y0121316D01*
X0290458Y0121640D01*
X0291785Y0121932D01*
X0293118Y0122192D01*
X0294458Y0122419D01*
X0295803Y0122614D01*
X0297152Y0122777D01*
X0298504Y0122907D01*
X0299859Y0123003D01*
X0301216Y0123067D01*
X0271689Y0066965D02*
X0271698Y0067738D01*
X0271727Y0068510D01*
X0271774Y0069282D01*
X0271841Y0070052D01*
X0271926Y0070820D01*
X0272030Y0071586D01*
X0272153Y0072350D01*
X0272294Y0073110D01*
X0272454Y0073866D01*
X0272633Y0074618D01*
X0272830Y0075365D01*
X0273045Y0076108D01*
X0273279Y0076845D01*
X0273530Y0077576D01*
X0273799Y0078300D01*
X0274086Y0079018D01*
X0274391Y0079728D01*
X0274713Y0080431D01*
X0275052Y0081126D01*
X0275408Y0081812D01*
X0275781Y0082489D01*
X0276170Y0083157D01*
X0276575Y0083815D01*
X0276997Y0084463D01*
X0277434Y0085101D01*
X0277887Y0085727D01*
X0278355Y0086342D01*
X0278838Y0086946D01*
X0279336Y0087537D01*
X0279848Y0088116D01*
X0280374Y0088683D01*
X0280914Y0089236D01*
X0281467Y0089776D01*
X0282034Y0090302D01*
X0282613Y0090814D01*
X0283204Y0091312D01*
X0283808Y0091795D01*
X0284423Y0092263D01*
X0285049Y0092716D01*
X0285687Y0093153D01*
X0286335Y0093575D01*
X0286993Y0093980D01*
X0287661Y0094369D01*
X0288338Y0094742D01*
X0289024Y0095098D01*
X0289719Y0095437D01*
X0290422Y0095759D01*
X0291132Y0096064D01*
X0291850Y0096351D01*
X0292574Y0096620D01*
X0293305Y0096871D01*
X0294042Y0097105D01*
X0294785Y0097320D01*
X0295532Y0097517D01*
X0296284Y0097696D01*
X0297040Y0097856D01*
X0297800Y0097997D01*
X0298564Y0098120D01*
X0299330Y0098224D01*
X0300098Y0098309D01*
X0300868Y0098376D01*
X0301640Y0098423D01*
X0302412Y0098452D01*
X0303185Y0098461D01*
X0303958Y0098452D01*
X0304730Y0098423D01*
X0305502Y0098376D01*
X0306272Y0098309D01*
X0307040Y0098224D01*
X0307806Y0098120D01*
X0308570Y0097997D01*
X0309330Y0097856D01*
X0310086Y0097696D01*
X0310838Y0097517D01*
X0311585Y0097320D01*
X0312328Y0097105D01*
X0313065Y0096871D01*
X0313796Y0096620D01*
X0314520Y0096351D01*
X0315238Y0096064D01*
X0315948Y0095759D01*
X0316651Y0095437D01*
X0317346Y0095098D01*
X0318032Y0094742D01*
X0318709Y0094369D01*
X0319377Y0093980D01*
X0320035Y0093575D01*
X0320683Y0093153D01*
X0321321Y0092716D01*
X0321947Y0092263D01*
X0322562Y0091795D01*
X0323166Y0091312D01*
X0323757Y0090814D01*
X0324336Y0090302D01*
X0324903Y0089776D01*
X0325456Y0089236D01*
X0325996Y0088683D01*
X0326522Y0088116D01*
X0327034Y0087537D01*
X0327532Y0086946D01*
X0328015Y0086342D01*
X0328483Y0085727D01*
X0328936Y0085101D01*
X0329373Y0084463D01*
X0329795Y0083815D01*
X0330200Y0083157D01*
X0330589Y0082489D01*
X0330962Y0081812D01*
X0331318Y0081126D01*
X0331657Y0080431D01*
X0331979Y0079728D01*
X0332284Y0079018D01*
X0332571Y0078300D01*
X0332840Y0077576D01*
X0333091Y0076845D01*
X0333325Y0076108D01*
X0333540Y0075365D01*
X0333737Y0074618D01*
X0333916Y0073866D01*
X0334076Y0073110D01*
X0334217Y0072350D01*
X0334340Y0071586D01*
X0334444Y0070820D01*
X0334529Y0070052D01*
X0334596Y0069282D01*
X0334643Y0068510D01*
X0334672Y0067738D01*
X0334681Y0066965D01*
X0334672Y0066192D01*
X0334643Y0065420D01*
X0334596Y0064648D01*
X0334529Y0063878D01*
X0334444Y0063110D01*
X0334340Y0062344D01*
X0334217Y0061580D01*
X0334076Y0060820D01*
X0333916Y0060064D01*
X0333737Y0059312D01*
X0333540Y0058565D01*
X0333325Y0057822D01*
X0333091Y0057085D01*
X0332840Y0056354D01*
X0332571Y0055630D01*
X0332284Y0054912D01*
X0331979Y0054202D01*
X0331657Y0053499D01*
X0331318Y0052804D01*
X0330962Y0052118D01*
X0330589Y0051441D01*
X0330200Y0050773D01*
X0329795Y0050115D01*
X0329373Y0049467D01*
X0328936Y0048829D01*
X0328483Y0048203D01*
X0328015Y0047588D01*
X0327532Y0046984D01*
X0327034Y0046393D01*
X0326522Y0045814D01*
X0325996Y0045247D01*
X0325456Y0044694D01*
X0324903Y0044154D01*
X0324336Y0043628D01*
X0323757Y0043116D01*
X0323166Y0042618D01*
X0322562Y0042135D01*
X0321947Y0041667D01*
X0321321Y0041214D01*
X0320683Y0040777D01*
X0320035Y0040355D01*
X0319377Y0039950D01*
X0318709Y0039561D01*
X0318032Y0039188D01*
X0317346Y0038832D01*
X0316651Y0038493D01*
X0315948Y0038171D01*
X0315238Y0037866D01*
X0314520Y0037579D01*
X0313796Y0037310D01*
X0313065Y0037059D01*
X0312328Y0036825D01*
X0311585Y0036610D01*
X0310838Y0036413D01*
X0310086Y0036234D01*
X0309330Y0036074D01*
X0308570Y0035933D01*
X0307806Y0035810D01*
X0307040Y0035706D01*
X0306272Y0035621D01*
X0305502Y0035554D01*
X0304730Y0035507D01*
X0303958Y0035478D01*
X0303185Y0035469D01*
X0302412Y0035478D01*
X0301640Y0035507D01*
X0300868Y0035554D01*
X0300098Y0035621D01*
X0299330Y0035706D01*
X0298564Y0035810D01*
X0297800Y0035933D01*
X0297040Y0036074D01*
X0296284Y0036234D01*
X0295532Y0036413D01*
X0294785Y0036610D01*
X0294042Y0036825D01*
X0293305Y0037059D01*
X0292574Y0037310D01*
X0291850Y0037579D01*
X0291132Y0037866D01*
X0290422Y0038171D01*
X0289719Y0038493D01*
X0289024Y0038832D01*
X0288338Y0039188D01*
X0287661Y0039561D01*
X0286993Y0039950D01*
X0286335Y0040355D01*
X0285687Y0040777D01*
X0285049Y0041214D01*
X0284423Y0041667D01*
X0283808Y0042135D01*
X0283204Y0042618D01*
X0282613Y0043116D01*
X0282034Y0043628D01*
X0281467Y0044154D01*
X0280914Y0044694D01*
X0280374Y0045247D01*
X0279848Y0045814D01*
X0279336Y0046393D01*
X0278838Y0046984D01*
X0278355Y0047588D01*
X0277887Y0048203D01*
X0277434Y0048829D01*
X0276997Y0049467D01*
X0276575Y0050115D01*
X0276170Y0050773D01*
X0275781Y0051441D01*
X0275408Y0052118D01*
X0275052Y0052804D01*
X0274713Y0053499D01*
X0274391Y0054202D01*
X0274086Y0054912D01*
X0273799Y0055630D01*
X0273530Y0056354D01*
X0273279Y0057085D01*
X0273045Y0057822D01*
X0272830Y0058565D01*
X0272633Y0059312D01*
X0272454Y0060064D01*
X0272294Y0060820D01*
X0272153Y0061580D01*
X0272030Y0062344D01*
X0271926Y0063110D01*
X0271841Y0063878D01*
X0271774Y0064648D01*
X0271727Y0065420D01*
X0271698Y0066192D01*
X0271689Y0066965D01*
D11*
X0248559Y0066965D03*
X0248067Y0066965D03*
X0247575Y0066965D03*
X0247083Y0066965D03*
X0241177Y0066965D03*
X0240685Y0066965D03*
X0240193Y0066965D03*
X0239701Y0066965D03*
X0223461Y0105350D03*
X0223953Y0105843D03*
X0224445Y0106335D03*
X0224937Y0106827D03*
X0185075Y0121591D03*
X0185075Y0122083D03*
X0185075Y0122575D03*
X0185075Y0123067D03*
X0185075Y0128972D03*
X0185075Y0129465D03*
X0185075Y0129957D03*
X0185075Y0130449D03*
X0223461Y0146689D03*
X0223953Y0146197D03*
X0224445Y0145705D03*
X0224937Y0145213D03*
X0263323Y0145213D03*
X0263815Y0145705D03*
X0264307Y0146197D03*
X0264799Y0146689D03*
X0303185Y0130449D03*
X0303185Y0129957D03*
X0303185Y0129465D03*
X0303185Y0128972D03*
X0303185Y0123067D03*
X0303185Y0122575D03*
X0303185Y0122083D03*
X0303185Y0121591D03*
X0264799Y0105350D03*
X0264307Y0105843D03*
X0263815Y0106335D03*
X0263323Y0106827D03*
X0341571Y0105350D03*
X0342063Y0105843D03*
X0342555Y0106335D03*
X0343047Y0106827D03*
X0357811Y0066965D03*
X0358303Y0066965D03*
X0358795Y0066965D03*
X0359287Y0066965D03*
X0341571Y0028579D03*
X0342063Y0028087D03*
X0342555Y0027594D03*
X0343047Y0027102D03*
X0303185Y0012339D03*
X0303185Y0011846D03*
X0303185Y0011354D03*
X0303185Y0010862D03*
X0264799Y0028579D03*
X0264307Y0028087D03*
X0263815Y0027594D03*
X0263323Y0027102D03*
X0224937Y0027102D03*
X0224445Y0027594D03*
X0223953Y0028087D03*
X0223461Y0028579D03*
X0185075Y0012339D03*
X0185075Y0011846D03*
X0185075Y0011354D03*
X0185075Y0010862D03*
X0146689Y0028579D03*
X0146197Y0028087D03*
X0145705Y0027594D03*
X0145213Y0027102D03*
X0106827Y0027102D03*
X0106335Y0027594D03*
X0105843Y0028087D03*
X0105350Y0028579D03*
X0066965Y0012339D03*
X0066965Y0011846D03*
X0066965Y0011354D03*
X0066965Y0010862D03*
X0028579Y0028579D03*
X0028087Y0028087D03*
X0027594Y0027594D03*
X0027102Y0027102D03*
X0012339Y0066965D03*
X0011846Y0066965D03*
X0011354Y0066965D03*
X0010862Y0066965D03*
X0028579Y0105350D03*
X0028087Y0105843D03*
X0027594Y0106335D03*
X0027102Y0106827D03*
X0027102Y0145213D03*
X0027594Y0145705D03*
X0028087Y0146197D03*
X0028579Y0146689D03*
X0066965Y0130449D03*
X0066965Y0129957D03*
X0066965Y0129465D03*
X0066965Y0128972D03*
X0066965Y0123067D03*
X0066965Y0122575D03*
X0066965Y0122083D03*
X0066965Y0121591D03*
X0105350Y0105350D03*
X0105843Y0105843D03*
X0106335Y0106335D03*
X0106827Y0106827D03*
X0121591Y0066965D03*
X0122083Y0066965D03*
X0122575Y0066965D03*
X0123067Y0066965D03*
X0128972Y0066965D03*
X0129465Y0066965D03*
X0129957Y0066965D03*
X0130449Y0066965D03*
X0146689Y0105350D03*
X0146197Y0105843D03*
X0145705Y0106335D03*
X0145213Y0106827D03*
X0145213Y0145213D03*
X0145705Y0145705D03*
X0146197Y0146197D03*
X0146689Y0146689D03*
X0106827Y0145213D03*
X0106335Y0145705D03*
X0105843Y0146197D03*
X0105350Y0146689D03*
X0121591Y0185075D03*
X0122083Y0185075D03*
X0122575Y0185075D03*
X0123067Y0185075D03*
X0128972Y0185075D03*
X0129465Y0185075D03*
X0129957Y0185075D03*
X0130449Y0185075D03*
X0146689Y0223461D03*
X0146197Y0223953D03*
X0145705Y0224445D03*
X0145213Y0224937D03*
X0145213Y0263323D03*
X0145705Y0263815D03*
X0146197Y0264307D03*
X0146689Y0264799D03*
X0130449Y0303185D03*
X0129957Y0303185D03*
X0129465Y0303185D03*
X0128972Y0303185D03*
X0123067Y0303185D03*
X0122575Y0303185D03*
X0122083Y0303185D03*
X0121591Y0303185D03*
X0105350Y0264799D03*
X0105843Y0264307D03*
X0106335Y0263815D03*
X0106827Y0263323D03*
X0066965Y0248559D03*
X0066965Y0248067D03*
X0066965Y0247575D03*
X0066965Y0247083D03*
X0066965Y0241177D03*
X0066965Y0240685D03*
X0066965Y0240193D03*
X0066965Y0239701D03*
X0105350Y0223461D03*
X0105843Y0223953D03*
X0106335Y0224445D03*
X0106827Y0224937D03*
X0028579Y0223461D03*
X0028087Y0223953D03*
X0027594Y0224445D03*
X0027102Y0224937D03*
X0012339Y0185075D03*
X0011846Y0185075D03*
X0011354Y0185075D03*
X0010862Y0185075D03*
X0027102Y0263323D03*
X0027594Y0263815D03*
X0028087Y0264307D03*
X0028579Y0264799D03*
X0012339Y0303185D03*
X0011846Y0303185D03*
X0011354Y0303185D03*
X0010862Y0303185D03*
X0028579Y0341571D03*
X0028087Y0342063D03*
X0027594Y0342555D03*
X0027102Y0343047D03*
X0066965Y0357811D03*
X0066965Y0358303D03*
X0066965Y0358795D03*
X0066965Y0359287D03*
X0105350Y0341571D03*
X0105843Y0342063D03*
X0106335Y0342555D03*
X0106827Y0343047D03*
X0145213Y0343047D03*
X0145705Y0342555D03*
X0146197Y0342063D03*
X0146689Y0341571D03*
X0185075Y0357811D03*
X0185075Y0358303D03*
X0185075Y0358795D03*
X0185075Y0359287D03*
X0223461Y0341571D03*
X0223953Y0342063D03*
X0224445Y0342555D03*
X0224937Y0343047D03*
X0263323Y0343047D03*
X0263815Y0342555D03*
X0264307Y0342063D03*
X0264799Y0341571D03*
X0303185Y0357811D03*
X0303185Y0358303D03*
X0303185Y0358795D03*
X0303185Y0359287D03*
X0341571Y0341571D03*
X0342063Y0342063D03*
X0342555Y0342555D03*
X0343047Y0343047D03*
X0357811Y0303185D03*
X0358303Y0303185D03*
X0358795Y0303185D03*
X0359287Y0303185D03*
X0341571Y0264799D03*
X0342063Y0264307D03*
X0342555Y0263815D03*
X0343047Y0263323D03*
X0343047Y0224937D03*
X0342555Y0224445D03*
X0342063Y0223953D03*
X0341571Y0223461D03*
X0357811Y0185075D03*
X0358303Y0185075D03*
X0358795Y0185075D03*
X0359287Y0185075D03*
X0341571Y0146689D03*
X0342063Y0146197D03*
X0342555Y0145705D03*
X0343047Y0145213D03*
X0264799Y0223461D03*
X0264307Y0223953D03*
X0263815Y0224445D03*
X0263323Y0224937D03*
X0303185Y0239701D03*
X0303185Y0240193D03*
X0303185Y0240685D03*
X0303185Y0241177D03*
X0303185Y0247083D03*
X0303185Y0247575D03*
X0303185Y0248067D03*
X0303185Y0248559D03*
X0264799Y0264799D03*
X0264307Y0264307D03*
X0263815Y0263815D03*
X0263323Y0263323D03*
X0248559Y0303185D03*
X0248067Y0303185D03*
X0247575Y0303185D03*
X0247083Y0303185D03*
X0241177Y0303185D03*
X0240685Y0303185D03*
X0240193Y0303185D03*
X0239701Y0303185D03*
X0223461Y0264799D03*
X0223953Y0264307D03*
X0224445Y0263815D03*
X0224937Y0263323D03*
X0185075Y0248559D03*
X0185075Y0248067D03*
X0185075Y0247575D03*
X0185075Y0247083D03*
X0185075Y0241177D03*
X0185075Y0240685D03*
X0185075Y0240193D03*
X0185075Y0239701D03*
X0223461Y0223461D03*
X0223953Y0223953D03*
X0224445Y0224445D03*
X0224937Y0224937D03*
X0239701Y0185075D03*
X0240193Y0185075D03*
X0240685Y0185075D03*
X0241177Y0185075D03*
X0247083Y0185075D03*
X0247575Y0185075D03*
X0248067Y0185075D03*
X0248559Y0185075D03*
D12*
X0263815Y0185075D03*
X0263815Y0186059D03*
X0263815Y0187043D03*
X0263815Y0188028D03*
X0263815Y0189012D03*
X0263815Y0189996D03*
X0263815Y0190980D03*
X0263815Y0191965D03*
X0263815Y0192949D03*
X0263815Y0193933D03*
X0263815Y0194917D03*
X0263815Y0195902D03*
X0263815Y0196886D03*
X0263815Y0184091D03*
X0263815Y0183106D03*
X0263815Y0182122D03*
X0263815Y0181138D03*
X0263815Y0180154D03*
X0263815Y0179169D03*
X0263815Y0178185D03*
X0263815Y0177201D03*
X0263815Y0176217D03*
X0263815Y0175232D03*
X0263815Y0174248D03*
X0263815Y0173264D03*
X0224445Y0173264D03*
X0224445Y0174248D03*
X0224445Y0175232D03*
X0224445Y0176217D03*
X0224445Y0177201D03*
X0224445Y0178185D03*
X0224445Y0179169D03*
X0224445Y0180154D03*
X0224445Y0181138D03*
X0224445Y0182122D03*
X0224445Y0183106D03*
X0224445Y0184091D03*
X0224445Y0185075D03*
X0224445Y0186059D03*
X0224445Y0187043D03*
X0224445Y0188028D03*
X0224445Y0189012D03*
X0224445Y0189996D03*
X0224445Y0190980D03*
X0224445Y0191965D03*
X0224445Y0192949D03*
X0224445Y0193933D03*
X0224445Y0194917D03*
X0224445Y0195902D03*
X0224445Y0196886D03*
X0145705Y0196886D03*
X0145705Y0195902D03*
X0145705Y0194917D03*
X0145705Y0193933D03*
X0145705Y0192949D03*
X0145705Y0191965D03*
X0145705Y0190980D03*
X0145705Y0189996D03*
X0145705Y0189012D03*
X0145705Y0188028D03*
X0145705Y0187043D03*
X0145705Y0186059D03*
X0145705Y0185075D03*
X0145705Y0184091D03*
X0145705Y0183106D03*
X0145705Y0182122D03*
X0145705Y0181138D03*
X0145705Y0180154D03*
X0145705Y0179169D03*
X0145705Y0178185D03*
X0145705Y0177201D03*
X0145705Y0176217D03*
X0145705Y0175232D03*
X0145705Y0174248D03*
X0145705Y0173264D03*
X0106335Y0173264D03*
X0106335Y0174248D03*
X0106335Y0175232D03*
X0106335Y0176217D03*
X0106335Y0177201D03*
X0106335Y0178185D03*
X0106335Y0179169D03*
X0106335Y0180154D03*
X0106335Y0181138D03*
X0106335Y0182122D03*
X0106335Y0183106D03*
X0106335Y0184091D03*
X0106335Y0185075D03*
X0106335Y0186059D03*
X0106335Y0187043D03*
X0106335Y0188028D03*
X0106335Y0189012D03*
X0106335Y0189996D03*
X0106335Y0190980D03*
X0106335Y0191965D03*
X0106335Y0192949D03*
X0106335Y0193933D03*
X0106335Y0194917D03*
X0106335Y0195902D03*
X0106335Y0196886D03*
X0027594Y0196886D03*
X0027594Y0195902D03*
X0027594Y0194917D03*
X0027594Y0193933D03*
X0027594Y0192949D03*
X0027594Y0191965D03*
X0027594Y0190980D03*
X0027594Y0189996D03*
X0027594Y0189012D03*
X0027594Y0188028D03*
X0027594Y0187043D03*
X0027594Y0186059D03*
X0027594Y0185075D03*
X0027594Y0184091D03*
X0027594Y0183106D03*
X0027594Y0182122D03*
X0027594Y0181138D03*
X0027594Y0180154D03*
X0027594Y0179169D03*
X0027594Y0178185D03*
X0027594Y0177201D03*
X0027594Y0176217D03*
X0027594Y0175232D03*
X0027594Y0174248D03*
X0027594Y0173264D03*
X0027594Y0078776D03*
X0027594Y0077791D03*
X0027594Y0076807D03*
X0027594Y0075823D03*
X0027594Y0074839D03*
X0027594Y0073854D03*
X0027594Y0072870D03*
X0027594Y0071886D03*
X0027594Y0070902D03*
X0027594Y0069917D03*
X0027594Y0068933D03*
X0027594Y0067949D03*
X0027594Y0066965D03*
X0027594Y0065980D03*
X0027594Y0064996D03*
X0027594Y0064012D03*
X0027594Y0063028D03*
X0027594Y0062043D03*
X0027594Y0061059D03*
X0027594Y0060075D03*
X0027594Y0059091D03*
X0027594Y0058106D03*
X0027594Y0057122D03*
X0027594Y0056138D03*
X0027594Y0055154D03*
X0106335Y0055154D03*
X0106335Y0056138D03*
X0106335Y0057122D03*
X0106335Y0058106D03*
X0106335Y0059091D03*
X0106335Y0060075D03*
X0106335Y0061059D03*
X0106335Y0062043D03*
X0106335Y0063028D03*
X0106335Y0064012D03*
X0106335Y0064996D03*
X0106335Y0065980D03*
X0106335Y0066965D03*
X0106335Y0067949D03*
X0106335Y0068933D03*
X0106335Y0069917D03*
X0106335Y0070902D03*
X0106335Y0071886D03*
X0106335Y0072870D03*
X0106335Y0073854D03*
X0106335Y0074839D03*
X0106335Y0075823D03*
X0106335Y0076807D03*
X0106335Y0077791D03*
X0106335Y0078776D03*
X0145705Y0078776D03*
X0145705Y0077791D03*
X0145705Y0076807D03*
X0145705Y0075823D03*
X0145705Y0074839D03*
X0145705Y0073854D03*
X0145705Y0072870D03*
X0145705Y0071886D03*
X0145705Y0070902D03*
X0145705Y0069917D03*
X0145705Y0068933D03*
X0145705Y0067949D03*
X0145705Y0066965D03*
X0145705Y0065980D03*
X0145705Y0064996D03*
X0145705Y0064012D03*
X0145705Y0063028D03*
X0145705Y0062043D03*
X0145705Y0061059D03*
X0145705Y0060075D03*
X0145705Y0059091D03*
X0145705Y0058106D03*
X0145705Y0057122D03*
X0145705Y0056138D03*
X0145705Y0055154D03*
X0224445Y0055154D03*
X0224445Y0056138D03*
X0224445Y0057122D03*
X0224445Y0058106D03*
X0224445Y0059091D03*
X0224445Y0060075D03*
X0224445Y0061059D03*
X0224445Y0062043D03*
X0224445Y0063028D03*
X0224445Y0064012D03*
X0224445Y0064996D03*
X0224445Y0065980D03*
X0224445Y0066965D03*
X0224445Y0067949D03*
X0224445Y0068933D03*
X0224445Y0069917D03*
X0224445Y0070902D03*
X0224445Y0071886D03*
X0224445Y0072870D03*
X0224445Y0073854D03*
X0224445Y0074839D03*
X0224445Y0075823D03*
X0224445Y0076807D03*
X0224445Y0077791D03*
X0224445Y0078776D03*
X0263815Y0078776D03*
X0263815Y0077791D03*
X0263815Y0076807D03*
X0263815Y0075823D03*
X0263815Y0074839D03*
X0263815Y0073854D03*
X0263815Y0072870D03*
X0263815Y0071886D03*
X0263815Y0070902D03*
X0263815Y0069917D03*
X0263815Y0068933D03*
X0263815Y0067949D03*
X0263815Y0066965D03*
X0263815Y0065980D03*
X0263815Y0064996D03*
X0263815Y0064012D03*
X0263815Y0063028D03*
X0263815Y0062043D03*
X0263815Y0061059D03*
X0263815Y0060075D03*
X0263815Y0059091D03*
X0263815Y0058106D03*
X0263815Y0057122D03*
X0263815Y0056138D03*
X0263815Y0055154D03*
X0342555Y0055154D03*
X0342555Y0056138D03*
X0342555Y0057122D03*
X0342555Y0058106D03*
X0342555Y0059091D03*
X0342555Y0060075D03*
X0342555Y0061059D03*
X0342555Y0062043D03*
X0342555Y0063028D03*
X0342555Y0064012D03*
X0342555Y0064996D03*
X0342555Y0065980D03*
X0342555Y0066965D03*
X0342555Y0067949D03*
X0342555Y0068933D03*
X0342555Y0069917D03*
X0342555Y0070902D03*
X0342555Y0071886D03*
X0342555Y0072870D03*
X0342555Y0073854D03*
X0342555Y0074839D03*
X0342555Y0075823D03*
X0342555Y0076807D03*
X0342555Y0077791D03*
X0342555Y0078776D03*
X0342555Y0173264D03*
X0342555Y0174248D03*
X0342555Y0175232D03*
X0342555Y0176217D03*
X0342555Y0177201D03*
X0342555Y0178185D03*
X0342555Y0179169D03*
X0342555Y0180154D03*
X0342555Y0181138D03*
X0342555Y0182122D03*
X0342555Y0183106D03*
X0342555Y0184091D03*
X0342555Y0185075D03*
X0342555Y0186059D03*
X0342555Y0187043D03*
X0342555Y0188028D03*
X0342555Y0189012D03*
X0342555Y0189996D03*
X0342555Y0190980D03*
X0342555Y0191965D03*
X0342555Y0192949D03*
X0342555Y0193933D03*
X0342555Y0194917D03*
X0342555Y0195902D03*
X0342555Y0196886D03*
X0342555Y0291374D03*
X0342555Y0292358D03*
X0342555Y0293343D03*
X0342555Y0294327D03*
X0342555Y0295311D03*
X0342555Y0296295D03*
X0342555Y0297280D03*
X0342555Y0298264D03*
X0342555Y0299248D03*
X0342555Y0300232D03*
X0342555Y0301217D03*
X0342555Y0302201D03*
X0342555Y0303185D03*
X0342555Y0304169D03*
X0342555Y0305154D03*
X0342555Y0306138D03*
X0342555Y0307122D03*
X0342555Y0308106D03*
X0342555Y0309091D03*
X0342555Y0310075D03*
X0342555Y0311059D03*
X0342555Y0312043D03*
X0342555Y0313028D03*
X0342555Y0314012D03*
X0342555Y0314996D03*
X0263815Y0314996D03*
X0263815Y0314012D03*
X0263815Y0313028D03*
X0263815Y0312043D03*
X0263815Y0311059D03*
X0263815Y0310075D03*
X0263815Y0309091D03*
X0263815Y0308106D03*
X0263815Y0307122D03*
X0263815Y0306138D03*
X0263815Y0305154D03*
X0263815Y0304169D03*
X0263815Y0303185D03*
X0263815Y0302201D03*
X0263815Y0301217D03*
X0263815Y0300232D03*
X0263815Y0299248D03*
X0263815Y0298264D03*
X0263815Y0297280D03*
X0263815Y0296295D03*
X0263815Y0295311D03*
X0263815Y0294327D03*
X0263815Y0293343D03*
X0263815Y0292358D03*
X0263815Y0291374D03*
X0224445Y0291374D03*
X0224445Y0292358D03*
X0224445Y0293343D03*
X0224445Y0294327D03*
X0224445Y0295311D03*
X0224445Y0296295D03*
X0224445Y0297280D03*
X0224445Y0298264D03*
X0224445Y0299248D03*
X0224445Y0300232D03*
X0224445Y0301217D03*
X0224445Y0302201D03*
X0224445Y0303185D03*
X0224445Y0304169D03*
X0224445Y0305154D03*
X0224445Y0306138D03*
X0224445Y0307122D03*
X0224445Y0308106D03*
X0224445Y0309091D03*
X0224445Y0310075D03*
X0224445Y0311059D03*
X0224445Y0312043D03*
X0224445Y0313028D03*
X0224445Y0314012D03*
X0224445Y0314996D03*
X0145705Y0314996D03*
X0145705Y0314012D03*
X0145705Y0313028D03*
X0145705Y0312043D03*
X0145705Y0311059D03*
X0145705Y0310075D03*
X0145705Y0309091D03*
X0145705Y0308106D03*
X0145705Y0307122D03*
X0145705Y0306138D03*
X0145705Y0305154D03*
X0145705Y0304169D03*
X0145705Y0303185D03*
X0145705Y0302201D03*
X0145705Y0301217D03*
X0145705Y0300232D03*
X0145705Y0299248D03*
X0145705Y0298264D03*
X0145705Y0297280D03*
X0145705Y0296295D03*
X0145705Y0295311D03*
X0145705Y0294327D03*
X0145705Y0293343D03*
X0145705Y0292358D03*
X0145705Y0291374D03*
X0106335Y0291374D03*
X0106335Y0292358D03*
X0106335Y0293343D03*
X0106335Y0294327D03*
X0106335Y0295311D03*
X0106335Y0296295D03*
X0106335Y0297280D03*
X0106335Y0298264D03*
X0106335Y0299248D03*
X0106335Y0300232D03*
X0106335Y0301217D03*
X0106335Y0302201D03*
X0106335Y0303185D03*
X0106335Y0304169D03*
X0106335Y0305154D03*
X0106335Y0306138D03*
X0106335Y0307122D03*
X0106335Y0308106D03*
X0106335Y0309091D03*
X0106335Y0310075D03*
X0106335Y0311059D03*
X0106335Y0312043D03*
X0106335Y0313028D03*
X0106335Y0314012D03*
X0106335Y0314996D03*
X0027594Y0314996D03*
X0027594Y0314012D03*
X0027594Y0313028D03*
X0027594Y0312043D03*
X0027594Y0311059D03*
X0027594Y0310075D03*
X0027594Y0309091D03*
X0027594Y0308106D03*
X0027594Y0307122D03*
X0027594Y0306138D03*
X0027594Y0305154D03*
X0027594Y0304169D03*
X0027594Y0303185D03*
X0027594Y0302201D03*
X0027594Y0301217D03*
X0027594Y0300232D03*
X0027594Y0299248D03*
X0027594Y0298264D03*
X0027594Y0297280D03*
X0027594Y0296295D03*
X0027594Y0295311D03*
X0027594Y0294327D03*
X0027594Y0293343D03*
X0027594Y0292358D03*
X0027594Y0291374D03*
D13*
X0027594Y0303185D01*
X0027594Y0314996D01*
X0106335Y0314996D02*
X0106335Y0291374D01*
X0145705Y0291374D02*
X0145705Y0303185D01*
X0145705Y0314996D01*
X0224445Y0314996D02*
X0224445Y0291374D01*
X0263815Y0291374D02*
X0263815Y0303185D01*
X0263815Y0314996D01*
X0342555Y0314996D02*
X0342555Y0291374D01*
X0342555Y0196886D02*
X0342555Y0173264D01*
X0263815Y0173264D02*
X0263815Y0185075D01*
X0263815Y0196886D01*
X0224445Y0196886D02*
X0224445Y0173264D01*
X0145705Y0173264D02*
X0145705Y0185075D01*
X0145705Y0196886D01*
X0106335Y0196886D02*
X0106335Y0173264D01*
X0027594Y0173264D02*
X0027594Y0185075D01*
X0027594Y0196886D01*
X0027594Y0078776D02*
X0027594Y0066965D01*
X0027594Y0055154D01*
X0106335Y0055154D02*
X0106335Y0078776D01*
X0145705Y0078776D02*
X0145705Y0066965D01*
X0145705Y0055154D01*
X0224445Y0055154D02*
X0224445Y0078776D01*
X0263815Y0078776D02*
X0263815Y0066965D01*
X0263815Y0055154D01*
X0342555Y0055154D02*
X0342555Y0078776D01*
D14*
X0263815Y0066965D02*
X0247083Y0066965D01*
X0145705Y0066965D02*
X0128972Y0066965D01*
X0027594Y0066965D02*
X0010862Y0066965D01*
X0010862Y0185075D02*
X0027594Y0185075D01*
X0128972Y0185075D02*
X0145705Y0185075D01*
X0247083Y0185075D02*
X0263815Y0185075D01*
X0263815Y0303185D02*
X0247083Y0303185D01*
X0145705Y0303185D02*
X0128972Y0303185D01*
X0027594Y0303185D02*
X0010862Y0303185D01*
M02*
