G75*
%MOIN*%
%OFA0B0*%
%FSLAX25Y25*%
%IPPOS*%
%LPD*%
%AMOC8*
5,1,8,0,0,1.08239X$1,22.5*
%
%ADD10C,0.01700*%
%ADD11C,0.01300*%
%ADD12C,0.00800*%
%ADD13C,0.00900*%
D10*
X0026259Y0160118D02*
X0031802Y0160118D01*
X0026259Y0160118D02*
X0026259Y0180071D01*
X0031802Y0180071D01*
X0031802Y0180072D02*
X0031950Y0180070D01*
X0032097Y0180064D01*
X0032244Y0180054D01*
X0032391Y0180041D01*
X0032538Y0180023D01*
X0032684Y0180001D01*
X0032829Y0179976D01*
X0032974Y0179947D01*
X0033118Y0179914D01*
X0033260Y0179877D01*
X0033402Y0179836D01*
X0033543Y0179792D01*
X0033682Y0179743D01*
X0033821Y0179691D01*
X0033957Y0179636D01*
X0034092Y0179577D01*
X0034226Y0179514D01*
X0034358Y0179448D01*
X0034488Y0179378D01*
X0034616Y0179305D01*
X0034742Y0179228D01*
X0034866Y0179148D01*
X0034988Y0179065D01*
X0035108Y0178978D01*
X0035225Y0178889D01*
X0035340Y0178796D01*
X0035452Y0178700D01*
X0035562Y0178602D01*
X0035669Y0178500D01*
X0035773Y0178396D01*
X0035875Y0178289D01*
X0035973Y0178179D01*
X0036069Y0178067D01*
X0036162Y0177952D01*
X0036251Y0177835D01*
X0036338Y0177715D01*
X0036421Y0177593D01*
X0036501Y0177469D01*
X0036578Y0177343D01*
X0036651Y0177215D01*
X0036721Y0177085D01*
X0036787Y0176953D01*
X0036850Y0176819D01*
X0036909Y0176684D01*
X0036964Y0176548D01*
X0037016Y0176409D01*
X0037065Y0176270D01*
X0037109Y0176129D01*
X0037150Y0175987D01*
X0037187Y0175845D01*
X0037220Y0175701D01*
X0037249Y0175556D01*
X0037274Y0175411D01*
X0037296Y0175265D01*
X0037314Y0175118D01*
X0037327Y0174971D01*
X0037337Y0174824D01*
X0037343Y0174677D01*
X0037345Y0174529D01*
X0037345Y0165660D01*
X0037343Y0165512D01*
X0037337Y0165365D01*
X0037327Y0165218D01*
X0037314Y0165071D01*
X0037296Y0164924D01*
X0037274Y0164778D01*
X0037249Y0164633D01*
X0037220Y0164488D01*
X0037187Y0164344D01*
X0037150Y0164202D01*
X0037109Y0164060D01*
X0037065Y0163919D01*
X0037016Y0163780D01*
X0036964Y0163641D01*
X0036909Y0163505D01*
X0036850Y0163370D01*
X0036787Y0163236D01*
X0036721Y0163104D01*
X0036651Y0162974D01*
X0036578Y0162846D01*
X0036501Y0162720D01*
X0036421Y0162596D01*
X0036338Y0162474D01*
X0036251Y0162354D01*
X0036162Y0162237D01*
X0036069Y0162122D01*
X0035973Y0162010D01*
X0035875Y0161900D01*
X0035773Y0161793D01*
X0035669Y0161689D01*
X0035562Y0161587D01*
X0035452Y0161489D01*
X0035340Y0161393D01*
X0035225Y0161300D01*
X0035108Y0161211D01*
X0034988Y0161124D01*
X0034866Y0161041D01*
X0034742Y0160961D01*
X0034616Y0160884D01*
X0034488Y0160811D01*
X0034358Y0160741D01*
X0034226Y0160675D01*
X0034092Y0160612D01*
X0033957Y0160553D01*
X0033821Y0160498D01*
X0033682Y0160446D01*
X0033543Y0160397D01*
X0033402Y0160353D01*
X0033260Y0160312D01*
X0033118Y0160275D01*
X0032974Y0160242D01*
X0032829Y0160213D01*
X0032684Y0160188D01*
X0032538Y0160166D01*
X0032391Y0160148D01*
X0032244Y0160135D01*
X0032097Y0160125D01*
X0031950Y0160119D01*
X0031802Y0160117D01*
X0046961Y0160118D02*
X0051950Y0160118D01*
X0051950Y0170094D01*
X0051950Y0167877D02*
X0046961Y0167877D01*
X0051950Y0170094D02*
X0051948Y0170208D01*
X0051942Y0170321D01*
X0051933Y0170434D01*
X0051919Y0170547D01*
X0051902Y0170659D01*
X0051880Y0170771D01*
X0051855Y0170881D01*
X0051827Y0170991D01*
X0051794Y0171100D01*
X0051758Y0171208D01*
X0051718Y0171314D01*
X0051675Y0171419D01*
X0051628Y0171522D01*
X0051577Y0171624D01*
X0051523Y0171724D01*
X0051466Y0171822D01*
X0051405Y0171918D01*
X0051341Y0172012D01*
X0051274Y0172104D01*
X0051204Y0172193D01*
X0051131Y0172280D01*
X0051055Y0172364D01*
X0050976Y0172446D01*
X0050894Y0172525D01*
X0050810Y0172601D01*
X0050723Y0172674D01*
X0050634Y0172744D01*
X0050542Y0172811D01*
X0050448Y0172875D01*
X0050352Y0172936D01*
X0050254Y0172993D01*
X0050154Y0173047D01*
X0050052Y0173098D01*
X0049949Y0173145D01*
X0049844Y0173188D01*
X0049738Y0173228D01*
X0049630Y0173264D01*
X0049521Y0173297D01*
X0049411Y0173325D01*
X0049301Y0173350D01*
X0049189Y0173372D01*
X0049077Y0173389D01*
X0048964Y0173403D01*
X0048851Y0173412D01*
X0048738Y0173418D01*
X0048624Y0173420D01*
X0044190Y0173420D01*
X0058224Y0173420D02*
X0063767Y0173420D01*
X0063881Y0173418D01*
X0063994Y0173412D01*
X0064107Y0173403D01*
X0064220Y0173389D01*
X0064332Y0173372D01*
X0064444Y0173350D01*
X0064554Y0173325D01*
X0064664Y0173297D01*
X0064773Y0173264D01*
X0064881Y0173228D01*
X0064987Y0173188D01*
X0065092Y0173145D01*
X0065195Y0173098D01*
X0065297Y0173047D01*
X0065397Y0172993D01*
X0065495Y0172936D01*
X0065591Y0172875D01*
X0065685Y0172811D01*
X0065777Y0172744D01*
X0065866Y0172674D01*
X0065953Y0172601D01*
X0066037Y0172525D01*
X0066119Y0172446D01*
X0066198Y0172364D01*
X0066274Y0172280D01*
X0066347Y0172193D01*
X0066417Y0172104D01*
X0066484Y0172012D01*
X0066548Y0171918D01*
X0066609Y0171822D01*
X0066666Y0171724D01*
X0066720Y0171624D01*
X0066771Y0171522D01*
X0066818Y0171419D01*
X0066861Y0171314D01*
X0066901Y0171208D01*
X0066937Y0171100D01*
X0066970Y0170991D01*
X0066998Y0170881D01*
X0067023Y0170771D01*
X0067045Y0170659D01*
X0067062Y0170547D01*
X0067076Y0170434D01*
X0067085Y0170321D01*
X0067091Y0170208D01*
X0067093Y0170094D01*
X0067092Y0170094D02*
X0067092Y0160118D01*
X0073485Y0160118D02*
X0073485Y0173420D01*
X0074039Y0178963D02*
X0072931Y0178963D01*
X0072931Y0180071D01*
X0074039Y0180071D01*
X0074039Y0178963D01*
X0079427Y0178963D02*
X0079427Y0180071D01*
X0080535Y0180071D01*
X0080535Y0178963D01*
X0079427Y0178963D01*
X0079981Y0173420D02*
X0079981Y0160118D01*
X0086426Y0163443D02*
X0086426Y0180071D01*
X0108672Y0180071D02*
X0115323Y0160118D01*
X0119937Y0160118D02*
X0119937Y0173420D01*
X0125479Y0173420D01*
X0125593Y0173418D01*
X0125706Y0173412D01*
X0125819Y0173403D01*
X0125932Y0173389D01*
X0126044Y0173372D01*
X0126156Y0173350D01*
X0126266Y0173325D01*
X0126376Y0173297D01*
X0126485Y0173264D01*
X0126593Y0173228D01*
X0126699Y0173188D01*
X0126804Y0173145D01*
X0126907Y0173098D01*
X0127009Y0173047D01*
X0127109Y0172993D01*
X0127207Y0172936D01*
X0127303Y0172875D01*
X0127397Y0172811D01*
X0127489Y0172744D01*
X0127578Y0172674D01*
X0127665Y0172601D01*
X0127749Y0172525D01*
X0127831Y0172446D01*
X0127910Y0172364D01*
X0127986Y0172280D01*
X0128059Y0172193D01*
X0128129Y0172104D01*
X0128196Y0172012D01*
X0128260Y0171918D01*
X0128321Y0171822D01*
X0128378Y0171724D01*
X0128432Y0171624D01*
X0128483Y0171522D01*
X0128530Y0171419D01*
X0128573Y0171314D01*
X0128613Y0171208D01*
X0128649Y0171100D01*
X0128682Y0170991D01*
X0128710Y0170881D01*
X0128735Y0170771D01*
X0128757Y0170659D01*
X0128774Y0170547D01*
X0128788Y0170434D01*
X0128797Y0170321D01*
X0128803Y0170208D01*
X0128805Y0170094D01*
X0128805Y0160118D01*
X0134568Y0163443D02*
X0134568Y0170094D01*
X0134567Y0170094D02*
X0134569Y0170208D01*
X0134575Y0170321D01*
X0134584Y0170434D01*
X0134598Y0170547D01*
X0134615Y0170659D01*
X0134637Y0170771D01*
X0134662Y0170881D01*
X0134690Y0170991D01*
X0134723Y0171100D01*
X0134759Y0171208D01*
X0134799Y0171314D01*
X0134842Y0171419D01*
X0134889Y0171522D01*
X0134940Y0171624D01*
X0134994Y0171724D01*
X0135051Y0171822D01*
X0135112Y0171918D01*
X0135176Y0172012D01*
X0135243Y0172104D01*
X0135313Y0172193D01*
X0135386Y0172280D01*
X0135462Y0172364D01*
X0135541Y0172446D01*
X0135623Y0172525D01*
X0135707Y0172601D01*
X0135794Y0172674D01*
X0135883Y0172744D01*
X0135975Y0172811D01*
X0136069Y0172875D01*
X0136165Y0172936D01*
X0136263Y0172993D01*
X0136363Y0173047D01*
X0136465Y0173098D01*
X0136568Y0173145D01*
X0136673Y0173188D01*
X0136779Y0173228D01*
X0136887Y0173264D01*
X0136996Y0173297D01*
X0137106Y0173325D01*
X0137216Y0173350D01*
X0137328Y0173372D01*
X0137440Y0173389D01*
X0137553Y0173403D01*
X0137666Y0173412D01*
X0137779Y0173418D01*
X0137893Y0173420D01*
X0143436Y0173420D01*
X0149690Y0173420D02*
X0156341Y0173420D01*
X0156341Y0171203D01*
X0160537Y0168986D02*
X0160537Y0163443D01*
X0160539Y0163329D01*
X0160545Y0163216D01*
X0160554Y0163103D01*
X0160568Y0162990D01*
X0160585Y0162878D01*
X0160607Y0162766D01*
X0160632Y0162656D01*
X0160660Y0162546D01*
X0160693Y0162437D01*
X0160729Y0162329D01*
X0160769Y0162223D01*
X0160812Y0162118D01*
X0160859Y0162015D01*
X0160910Y0161913D01*
X0160964Y0161813D01*
X0161021Y0161715D01*
X0161082Y0161619D01*
X0161146Y0161525D01*
X0161213Y0161433D01*
X0161283Y0161344D01*
X0161356Y0161257D01*
X0161432Y0161173D01*
X0161511Y0161091D01*
X0161593Y0161012D01*
X0161677Y0160936D01*
X0161764Y0160863D01*
X0161853Y0160793D01*
X0161945Y0160726D01*
X0162039Y0160662D01*
X0162135Y0160601D01*
X0162233Y0160544D01*
X0162333Y0160490D01*
X0162435Y0160439D01*
X0162538Y0160392D01*
X0162643Y0160349D01*
X0162749Y0160309D01*
X0162857Y0160273D01*
X0162966Y0160240D01*
X0163076Y0160212D01*
X0163186Y0160187D01*
X0163298Y0160165D01*
X0163410Y0160148D01*
X0163523Y0160134D01*
X0163636Y0160125D01*
X0163749Y0160119D01*
X0163863Y0160117D01*
X0163863Y0160118D02*
X0169405Y0160118D01*
X0174612Y0163443D02*
X0174612Y0168986D01*
X0174612Y0166769D02*
X0183480Y0166769D01*
X0183480Y0168986D01*
X0183478Y0169117D01*
X0183472Y0169249D01*
X0183462Y0169380D01*
X0183449Y0169510D01*
X0183431Y0169641D01*
X0183410Y0169770D01*
X0183385Y0169899D01*
X0183356Y0170027D01*
X0183323Y0170155D01*
X0183287Y0170281D01*
X0183246Y0170406D01*
X0183203Y0170530D01*
X0183155Y0170652D01*
X0183104Y0170773D01*
X0183049Y0170893D01*
X0182991Y0171011D01*
X0182929Y0171127D01*
X0182864Y0171241D01*
X0182795Y0171353D01*
X0182724Y0171463D01*
X0182649Y0171571D01*
X0182570Y0171677D01*
X0182489Y0171780D01*
X0182405Y0171881D01*
X0182318Y0171979D01*
X0182227Y0172075D01*
X0182135Y0172167D01*
X0182039Y0172258D01*
X0181941Y0172345D01*
X0181840Y0172429D01*
X0181737Y0172510D01*
X0181631Y0172589D01*
X0181523Y0172664D01*
X0181413Y0172735D01*
X0181301Y0172804D01*
X0181187Y0172869D01*
X0181071Y0172931D01*
X0180953Y0172989D01*
X0180833Y0173044D01*
X0180712Y0173095D01*
X0180590Y0173143D01*
X0180466Y0173186D01*
X0180341Y0173227D01*
X0180215Y0173263D01*
X0180087Y0173296D01*
X0179959Y0173325D01*
X0179830Y0173350D01*
X0179701Y0173371D01*
X0179570Y0173389D01*
X0179440Y0173402D01*
X0179309Y0173412D01*
X0179177Y0173418D01*
X0179046Y0173420D01*
X0178915Y0173418D01*
X0178783Y0173412D01*
X0178652Y0173402D01*
X0178522Y0173389D01*
X0178391Y0173371D01*
X0178262Y0173350D01*
X0178133Y0173325D01*
X0178005Y0173296D01*
X0177877Y0173263D01*
X0177751Y0173227D01*
X0177626Y0173186D01*
X0177502Y0173143D01*
X0177380Y0173095D01*
X0177259Y0173044D01*
X0177139Y0172989D01*
X0177021Y0172931D01*
X0176905Y0172869D01*
X0176791Y0172804D01*
X0176679Y0172735D01*
X0176569Y0172664D01*
X0176461Y0172589D01*
X0176355Y0172510D01*
X0176252Y0172429D01*
X0176151Y0172345D01*
X0176053Y0172258D01*
X0175957Y0172167D01*
X0175865Y0172075D01*
X0175774Y0171979D01*
X0175687Y0171881D01*
X0175603Y0171780D01*
X0175522Y0171677D01*
X0175443Y0171571D01*
X0175368Y0171463D01*
X0175297Y0171353D01*
X0175228Y0171241D01*
X0175163Y0171127D01*
X0175101Y0171011D01*
X0175043Y0170893D01*
X0174988Y0170773D01*
X0174937Y0170652D01*
X0174889Y0170530D01*
X0174846Y0170406D01*
X0174805Y0170281D01*
X0174769Y0170155D01*
X0174736Y0170027D01*
X0174707Y0169899D01*
X0174682Y0169770D01*
X0174661Y0169641D01*
X0174643Y0169510D01*
X0174630Y0169380D01*
X0174620Y0169249D01*
X0174614Y0169117D01*
X0174612Y0168986D01*
X0169405Y0168986D02*
X0169405Y0166769D01*
X0160537Y0166769D01*
X0160537Y0168986D02*
X0160539Y0169117D01*
X0160545Y0169249D01*
X0160555Y0169380D01*
X0160568Y0169510D01*
X0160586Y0169641D01*
X0160607Y0169770D01*
X0160632Y0169899D01*
X0160661Y0170027D01*
X0160694Y0170155D01*
X0160730Y0170281D01*
X0160771Y0170406D01*
X0160814Y0170530D01*
X0160862Y0170652D01*
X0160913Y0170773D01*
X0160968Y0170893D01*
X0161026Y0171011D01*
X0161088Y0171127D01*
X0161153Y0171241D01*
X0161222Y0171353D01*
X0161293Y0171463D01*
X0161368Y0171571D01*
X0161447Y0171677D01*
X0161528Y0171780D01*
X0161612Y0171881D01*
X0161699Y0171979D01*
X0161790Y0172075D01*
X0161882Y0172167D01*
X0161978Y0172258D01*
X0162076Y0172345D01*
X0162177Y0172429D01*
X0162280Y0172510D01*
X0162386Y0172589D01*
X0162494Y0172664D01*
X0162604Y0172735D01*
X0162716Y0172804D01*
X0162830Y0172869D01*
X0162946Y0172931D01*
X0163064Y0172989D01*
X0163184Y0173044D01*
X0163305Y0173095D01*
X0163427Y0173143D01*
X0163551Y0173186D01*
X0163676Y0173227D01*
X0163802Y0173263D01*
X0163930Y0173296D01*
X0164058Y0173325D01*
X0164187Y0173350D01*
X0164316Y0173371D01*
X0164447Y0173389D01*
X0164577Y0173402D01*
X0164708Y0173412D01*
X0164840Y0173418D01*
X0164971Y0173420D01*
X0165102Y0173418D01*
X0165234Y0173412D01*
X0165365Y0173402D01*
X0165495Y0173389D01*
X0165626Y0173371D01*
X0165755Y0173350D01*
X0165884Y0173325D01*
X0166012Y0173296D01*
X0166140Y0173263D01*
X0166266Y0173227D01*
X0166391Y0173186D01*
X0166515Y0173143D01*
X0166637Y0173095D01*
X0166758Y0173044D01*
X0166878Y0172989D01*
X0166996Y0172931D01*
X0167112Y0172869D01*
X0167226Y0172804D01*
X0167338Y0172735D01*
X0167448Y0172664D01*
X0167556Y0172589D01*
X0167662Y0172510D01*
X0167765Y0172429D01*
X0167866Y0172345D01*
X0167964Y0172258D01*
X0168060Y0172167D01*
X0168152Y0172075D01*
X0168243Y0171979D01*
X0168330Y0171881D01*
X0168414Y0171780D01*
X0168495Y0171677D01*
X0168574Y0171571D01*
X0168649Y0171463D01*
X0168720Y0171353D01*
X0168789Y0171241D01*
X0168854Y0171127D01*
X0168916Y0171011D01*
X0168974Y0170893D01*
X0169029Y0170773D01*
X0169080Y0170652D01*
X0169128Y0170530D01*
X0169171Y0170406D01*
X0169212Y0170281D01*
X0169248Y0170155D01*
X0169281Y0170027D01*
X0169310Y0169899D01*
X0169335Y0169770D01*
X0169356Y0169641D01*
X0169374Y0169510D01*
X0169387Y0169380D01*
X0169397Y0169249D01*
X0169403Y0169117D01*
X0169405Y0168986D01*
X0174612Y0163443D02*
X0174614Y0163329D01*
X0174620Y0163216D01*
X0174629Y0163103D01*
X0174643Y0162990D01*
X0174660Y0162878D01*
X0174682Y0162766D01*
X0174707Y0162656D01*
X0174735Y0162546D01*
X0174768Y0162437D01*
X0174804Y0162329D01*
X0174844Y0162223D01*
X0174887Y0162118D01*
X0174934Y0162015D01*
X0174985Y0161913D01*
X0175039Y0161813D01*
X0175096Y0161715D01*
X0175157Y0161619D01*
X0175221Y0161525D01*
X0175288Y0161433D01*
X0175358Y0161344D01*
X0175431Y0161257D01*
X0175507Y0161173D01*
X0175586Y0161091D01*
X0175668Y0161012D01*
X0175752Y0160936D01*
X0175839Y0160863D01*
X0175928Y0160793D01*
X0176020Y0160726D01*
X0176114Y0160662D01*
X0176210Y0160601D01*
X0176308Y0160544D01*
X0176408Y0160490D01*
X0176510Y0160439D01*
X0176613Y0160392D01*
X0176718Y0160349D01*
X0176824Y0160309D01*
X0176932Y0160273D01*
X0177041Y0160240D01*
X0177151Y0160212D01*
X0177261Y0160187D01*
X0177373Y0160165D01*
X0177485Y0160148D01*
X0177598Y0160134D01*
X0177711Y0160125D01*
X0177824Y0160119D01*
X0177938Y0160117D01*
X0177938Y0160118D02*
X0183480Y0160118D01*
X0192580Y0160118D02*
X0197014Y0173420D01*
X0188145Y0173420D02*
X0192580Y0160118D01*
X0149690Y0160118D02*
X0149690Y0173420D01*
X0143436Y0180071D02*
X0143436Y0160118D01*
X0137893Y0160118D01*
X0137893Y0160117D02*
X0137779Y0160119D01*
X0137666Y0160125D01*
X0137553Y0160134D01*
X0137440Y0160148D01*
X0137328Y0160165D01*
X0137216Y0160187D01*
X0137106Y0160212D01*
X0136996Y0160240D01*
X0136887Y0160273D01*
X0136779Y0160309D01*
X0136673Y0160349D01*
X0136568Y0160392D01*
X0136465Y0160439D01*
X0136363Y0160490D01*
X0136263Y0160544D01*
X0136165Y0160601D01*
X0136069Y0160662D01*
X0135975Y0160726D01*
X0135883Y0160793D01*
X0135794Y0160863D01*
X0135707Y0160936D01*
X0135623Y0161012D01*
X0135541Y0161091D01*
X0135462Y0161173D01*
X0135386Y0161257D01*
X0135313Y0161344D01*
X0135243Y0161433D01*
X0135176Y0161525D01*
X0135112Y0161619D01*
X0135051Y0161715D01*
X0134994Y0161813D01*
X0134940Y0161913D01*
X0134889Y0162015D01*
X0134842Y0162118D01*
X0134799Y0162223D01*
X0134759Y0162329D01*
X0134723Y0162437D01*
X0134690Y0162546D01*
X0134662Y0162656D01*
X0134637Y0162766D01*
X0134615Y0162878D01*
X0134598Y0162990D01*
X0134584Y0163103D01*
X0134575Y0163216D01*
X0134569Y0163329D01*
X0134567Y0163443D01*
X0113661Y0165106D02*
X0103684Y0165106D01*
X0102021Y0160118D02*
X0108672Y0180071D01*
X0089751Y0160117D02*
X0089637Y0160119D01*
X0089524Y0160125D01*
X0089411Y0160134D01*
X0089298Y0160148D01*
X0089186Y0160165D01*
X0089074Y0160187D01*
X0088964Y0160212D01*
X0088854Y0160240D01*
X0088745Y0160273D01*
X0088637Y0160309D01*
X0088531Y0160349D01*
X0088426Y0160392D01*
X0088323Y0160439D01*
X0088221Y0160490D01*
X0088121Y0160544D01*
X0088023Y0160601D01*
X0087927Y0160662D01*
X0087833Y0160726D01*
X0087741Y0160793D01*
X0087652Y0160863D01*
X0087565Y0160936D01*
X0087481Y0161012D01*
X0087399Y0161091D01*
X0087320Y0161173D01*
X0087244Y0161257D01*
X0087171Y0161344D01*
X0087101Y0161433D01*
X0087034Y0161525D01*
X0086970Y0161619D01*
X0086909Y0161715D01*
X0086852Y0161813D01*
X0086798Y0161913D01*
X0086747Y0162015D01*
X0086700Y0162118D01*
X0086657Y0162223D01*
X0086617Y0162329D01*
X0086581Y0162437D01*
X0086548Y0162546D01*
X0086520Y0162656D01*
X0086495Y0162766D01*
X0086473Y0162878D01*
X0086456Y0162990D01*
X0086442Y0163103D01*
X0086433Y0163216D01*
X0086427Y0163329D01*
X0086425Y0163443D01*
X0058224Y0160118D02*
X0058224Y0173420D01*
X0046961Y0167878D02*
X0046838Y0167876D01*
X0046715Y0167870D01*
X0046592Y0167860D01*
X0046470Y0167847D01*
X0046348Y0167829D01*
X0046227Y0167808D01*
X0046106Y0167783D01*
X0045987Y0167754D01*
X0045868Y0167721D01*
X0045750Y0167684D01*
X0045634Y0167644D01*
X0045519Y0167600D01*
X0045405Y0167553D01*
X0045293Y0167501D01*
X0045183Y0167447D01*
X0045075Y0167389D01*
X0044968Y0167327D01*
X0044863Y0167262D01*
X0044761Y0167194D01*
X0044661Y0167122D01*
X0044563Y0167048D01*
X0044467Y0166970D01*
X0044374Y0166890D01*
X0044283Y0166806D01*
X0044196Y0166720D01*
X0044111Y0166631D01*
X0044029Y0166539D01*
X0043950Y0166445D01*
X0043873Y0166348D01*
X0043800Y0166249D01*
X0043731Y0166147D01*
X0043664Y0166044D01*
X0043601Y0165938D01*
X0043541Y0165830D01*
X0043485Y0165721D01*
X0043432Y0165610D01*
X0043382Y0165497D01*
X0043337Y0165383D01*
X0043294Y0165267D01*
X0043256Y0165150D01*
X0043221Y0165032D01*
X0043190Y0164913D01*
X0043163Y0164793D01*
X0043140Y0164672D01*
X0043120Y0164550D01*
X0043105Y0164428D01*
X0043093Y0164305D01*
X0043085Y0164183D01*
X0043081Y0164060D01*
X0043081Y0163936D01*
X0043085Y0163813D01*
X0043093Y0163691D01*
X0043105Y0163568D01*
X0043120Y0163446D01*
X0043140Y0163324D01*
X0043163Y0163203D01*
X0043190Y0163083D01*
X0043221Y0162964D01*
X0043256Y0162846D01*
X0043294Y0162729D01*
X0043337Y0162613D01*
X0043382Y0162499D01*
X0043432Y0162386D01*
X0043485Y0162275D01*
X0043541Y0162166D01*
X0043601Y0162058D01*
X0043664Y0161952D01*
X0043731Y0161849D01*
X0043800Y0161747D01*
X0043873Y0161648D01*
X0043950Y0161551D01*
X0044029Y0161457D01*
X0044111Y0161365D01*
X0044196Y0161276D01*
X0044283Y0161190D01*
X0044374Y0161106D01*
X0044467Y0161026D01*
X0044563Y0160948D01*
X0044661Y0160874D01*
X0044761Y0160802D01*
X0044863Y0160734D01*
X0044968Y0160669D01*
X0045075Y0160607D01*
X0045183Y0160549D01*
X0045293Y0160495D01*
X0045405Y0160443D01*
X0045519Y0160396D01*
X0045634Y0160352D01*
X0045750Y0160312D01*
X0045868Y0160275D01*
X0045987Y0160242D01*
X0046106Y0160213D01*
X0046227Y0160188D01*
X0046348Y0160167D01*
X0046470Y0160149D01*
X0046592Y0160136D01*
X0046715Y0160126D01*
X0046838Y0160120D01*
X0046961Y0160118D01*
D11*
X0050453Y0150390D02*
X0055532Y0150390D01*
X0055532Y0148697D01*
X0058748Y0147850D02*
X0058748Y0142772D01*
X0058750Y0142672D01*
X0058756Y0142573D01*
X0058766Y0142474D01*
X0058779Y0142375D01*
X0058797Y0142277D01*
X0058818Y0142179D01*
X0058843Y0142083D01*
X0058872Y0141987D01*
X0058905Y0141893D01*
X0058941Y0141800D01*
X0058981Y0141709D01*
X0059025Y0141619D01*
X0059072Y0141531D01*
X0059122Y0141445D01*
X0059176Y0141361D01*
X0059233Y0141280D01*
X0059293Y0141200D01*
X0059356Y0141123D01*
X0059423Y0141049D01*
X0059492Y0140977D01*
X0059564Y0140908D01*
X0059638Y0140841D01*
X0059715Y0140778D01*
X0059795Y0140718D01*
X0059876Y0140661D01*
X0059960Y0140607D01*
X0060046Y0140557D01*
X0060134Y0140510D01*
X0060224Y0140466D01*
X0060315Y0140426D01*
X0060408Y0140390D01*
X0060502Y0140357D01*
X0060598Y0140328D01*
X0060694Y0140303D01*
X0060792Y0140282D01*
X0060890Y0140264D01*
X0060989Y0140251D01*
X0061088Y0140241D01*
X0061187Y0140235D01*
X0061287Y0140233D01*
X0065519Y0140233D01*
X0065519Y0155468D01*
X0065519Y0150390D02*
X0061287Y0150390D01*
X0061287Y0150389D02*
X0061187Y0150387D01*
X0061088Y0150381D01*
X0060989Y0150371D01*
X0060890Y0150358D01*
X0060792Y0150340D01*
X0060694Y0150319D01*
X0060598Y0150294D01*
X0060502Y0150265D01*
X0060408Y0150232D01*
X0060315Y0150196D01*
X0060224Y0150156D01*
X0060134Y0150112D01*
X0060046Y0150065D01*
X0059960Y0150015D01*
X0059876Y0149961D01*
X0059795Y0149904D01*
X0059715Y0149844D01*
X0059638Y0149781D01*
X0059564Y0149714D01*
X0059492Y0149645D01*
X0059423Y0149573D01*
X0059356Y0149499D01*
X0059293Y0149422D01*
X0059233Y0149342D01*
X0059176Y0149261D01*
X0059122Y0149177D01*
X0059072Y0149091D01*
X0059025Y0149003D01*
X0058981Y0148913D01*
X0058941Y0148822D01*
X0058905Y0148729D01*
X0058872Y0148635D01*
X0058843Y0148539D01*
X0058818Y0148443D01*
X0058797Y0148345D01*
X0058779Y0148247D01*
X0058766Y0148148D01*
X0058756Y0148049D01*
X0058750Y0147950D01*
X0058748Y0147850D01*
X0050453Y0150390D02*
X0050453Y0140233D01*
X0045677Y0140233D02*
X0045677Y0147850D01*
X0045677Y0146158D02*
X0041868Y0146158D01*
X0045676Y0147850D02*
X0045674Y0147950D01*
X0045668Y0148049D01*
X0045658Y0148148D01*
X0045645Y0148247D01*
X0045627Y0148345D01*
X0045606Y0148443D01*
X0045581Y0148539D01*
X0045552Y0148635D01*
X0045519Y0148729D01*
X0045483Y0148822D01*
X0045443Y0148913D01*
X0045399Y0149003D01*
X0045352Y0149091D01*
X0045302Y0149177D01*
X0045248Y0149261D01*
X0045191Y0149342D01*
X0045131Y0149422D01*
X0045068Y0149499D01*
X0045001Y0149573D01*
X0044932Y0149645D01*
X0044860Y0149714D01*
X0044786Y0149781D01*
X0044709Y0149844D01*
X0044629Y0149904D01*
X0044548Y0149961D01*
X0044464Y0150015D01*
X0044378Y0150065D01*
X0044290Y0150112D01*
X0044200Y0150156D01*
X0044109Y0150196D01*
X0044016Y0150232D01*
X0043922Y0150265D01*
X0043826Y0150294D01*
X0043730Y0150319D01*
X0043632Y0150340D01*
X0043534Y0150358D01*
X0043435Y0150371D01*
X0043336Y0150381D01*
X0043237Y0150387D01*
X0043137Y0150389D01*
X0043137Y0150390D02*
X0039752Y0150390D01*
X0034524Y0148697D02*
X0026059Y0148697D01*
X0026059Y0155468D02*
X0026059Y0140233D01*
X0034524Y0140233D02*
X0034524Y0155468D01*
X0041868Y0146157D02*
X0041760Y0146155D01*
X0041652Y0146149D01*
X0041544Y0146139D01*
X0041437Y0146125D01*
X0041330Y0146108D01*
X0041224Y0146086D01*
X0041119Y0146061D01*
X0041015Y0146031D01*
X0040912Y0145998D01*
X0040810Y0145962D01*
X0040710Y0145921D01*
X0040611Y0145877D01*
X0040514Y0145829D01*
X0040418Y0145778D01*
X0040325Y0145723D01*
X0040234Y0145665D01*
X0040145Y0145604D01*
X0040058Y0145539D01*
X0039973Y0145472D01*
X0039891Y0145401D01*
X0039812Y0145327D01*
X0039736Y0145251D01*
X0039662Y0145172D01*
X0039591Y0145090D01*
X0039524Y0145005D01*
X0039459Y0144918D01*
X0039398Y0144829D01*
X0039340Y0144738D01*
X0039285Y0144645D01*
X0039234Y0144549D01*
X0039186Y0144452D01*
X0039142Y0144353D01*
X0039101Y0144253D01*
X0039065Y0144151D01*
X0039032Y0144048D01*
X0039002Y0143944D01*
X0038977Y0143839D01*
X0038955Y0143733D01*
X0038938Y0143626D01*
X0038924Y0143519D01*
X0038914Y0143411D01*
X0038908Y0143303D01*
X0038906Y0143195D01*
X0038908Y0143087D01*
X0038914Y0142979D01*
X0038924Y0142871D01*
X0038938Y0142764D01*
X0038955Y0142657D01*
X0038977Y0142551D01*
X0039002Y0142446D01*
X0039032Y0142342D01*
X0039065Y0142239D01*
X0039101Y0142137D01*
X0039142Y0142037D01*
X0039186Y0141938D01*
X0039234Y0141841D01*
X0039285Y0141745D01*
X0039340Y0141652D01*
X0039398Y0141561D01*
X0039459Y0141472D01*
X0039524Y0141385D01*
X0039591Y0141300D01*
X0039662Y0141218D01*
X0039736Y0141139D01*
X0039812Y0141063D01*
X0039891Y0140989D01*
X0039973Y0140918D01*
X0040058Y0140851D01*
X0040145Y0140786D01*
X0040234Y0140725D01*
X0040325Y0140667D01*
X0040418Y0140612D01*
X0040514Y0140561D01*
X0040611Y0140513D01*
X0040710Y0140469D01*
X0040810Y0140428D01*
X0040912Y0140392D01*
X0041015Y0140359D01*
X0041119Y0140329D01*
X0041224Y0140304D01*
X0041330Y0140282D01*
X0041437Y0140265D01*
X0041544Y0140251D01*
X0041652Y0140241D01*
X0041760Y0140235D01*
X0041868Y0140233D01*
X0045677Y0140233D01*
X0069445Y0150390D02*
X0071985Y0140233D01*
X0074524Y0147004D01*
X0077063Y0140233D01*
X0079602Y0150390D01*
X0083984Y0150390D02*
X0087370Y0150390D01*
X0087370Y0150389D02*
X0087470Y0150387D01*
X0087569Y0150381D01*
X0087668Y0150371D01*
X0087767Y0150358D01*
X0087865Y0150340D01*
X0087963Y0150319D01*
X0088059Y0150294D01*
X0088155Y0150265D01*
X0088249Y0150232D01*
X0088342Y0150196D01*
X0088433Y0150156D01*
X0088523Y0150112D01*
X0088611Y0150065D01*
X0088697Y0150015D01*
X0088781Y0149961D01*
X0088862Y0149904D01*
X0088942Y0149844D01*
X0089019Y0149781D01*
X0089093Y0149714D01*
X0089165Y0149645D01*
X0089234Y0149573D01*
X0089301Y0149499D01*
X0089364Y0149422D01*
X0089424Y0149342D01*
X0089481Y0149261D01*
X0089535Y0149177D01*
X0089585Y0149091D01*
X0089632Y0149003D01*
X0089676Y0148913D01*
X0089716Y0148822D01*
X0089752Y0148729D01*
X0089785Y0148635D01*
X0089814Y0148539D01*
X0089839Y0148443D01*
X0089860Y0148345D01*
X0089878Y0148247D01*
X0089891Y0148148D01*
X0089901Y0148049D01*
X0089907Y0147950D01*
X0089909Y0147850D01*
X0089909Y0140233D01*
X0086100Y0140233D01*
X0085992Y0140235D01*
X0085884Y0140241D01*
X0085776Y0140251D01*
X0085669Y0140265D01*
X0085562Y0140282D01*
X0085456Y0140304D01*
X0085351Y0140329D01*
X0085247Y0140359D01*
X0085144Y0140392D01*
X0085042Y0140428D01*
X0084942Y0140469D01*
X0084843Y0140513D01*
X0084746Y0140561D01*
X0084650Y0140612D01*
X0084557Y0140667D01*
X0084466Y0140725D01*
X0084377Y0140786D01*
X0084290Y0140851D01*
X0084205Y0140918D01*
X0084123Y0140989D01*
X0084044Y0141063D01*
X0083968Y0141139D01*
X0083894Y0141218D01*
X0083823Y0141300D01*
X0083756Y0141385D01*
X0083691Y0141472D01*
X0083630Y0141561D01*
X0083572Y0141652D01*
X0083517Y0141745D01*
X0083466Y0141841D01*
X0083418Y0141938D01*
X0083374Y0142037D01*
X0083333Y0142137D01*
X0083297Y0142239D01*
X0083264Y0142342D01*
X0083234Y0142446D01*
X0083209Y0142551D01*
X0083187Y0142657D01*
X0083170Y0142764D01*
X0083156Y0142871D01*
X0083146Y0142979D01*
X0083140Y0143087D01*
X0083138Y0143195D01*
X0083140Y0143303D01*
X0083146Y0143411D01*
X0083156Y0143519D01*
X0083170Y0143626D01*
X0083187Y0143733D01*
X0083209Y0143839D01*
X0083234Y0143944D01*
X0083264Y0144048D01*
X0083297Y0144151D01*
X0083333Y0144253D01*
X0083374Y0144353D01*
X0083418Y0144452D01*
X0083466Y0144549D01*
X0083517Y0144645D01*
X0083572Y0144738D01*
X0083630Y0144829D01*
X0083691Y0144918D01*
X0083756Y0145005D01*
X0083823Y0145090D01*
X0083894Y0145172D01*
X0083968Y0145251D01*
X0084044Y0145327D01*
X0084123Y0145401D01*
X0084205Y0145472D01*
X0084290Y0145539D01*
X0084377Y0145604D01*
X0084466Y0145665D01*
X0084557Y0145723D01*
X0084650Y0145778D01*
X0084746Y0145829D01*
X0084843Y0145877D01*
X0084942Y0145921D01*
X0085042Y0145962D01*
X0085144Y0145998D01*
X0085247Y0146031D01*
X0085351Y0146061D01*
X0085456Y0146086D01*
X0085562Y0146108D01*
X0085669Y0146125D01*
X0085776Y0146139D01*
X0085884Y0146149D01*
X0085992Y0146155D01*
X0086100Y0146157D01*
X0086100Y0146158D02*
X0089909Y0146158D01*
X0094685Y0150390D02*
X0099764Y0150390D01*
X0099764Y0148697D01*
X0102969Y0147004D02*
X0102969Y0142772D01*
X0102971Y0142672D01*
X0102977Y0142573D01*
X0102987Y0142474D01*
X0103000Y0142375D01*
X0103018Y0142277D01*
X0103039Y0142179D01*
X0103064Y0142083D01*
X0103093Y0141987D01*
X0103126Y0141893D01*
X0103162Y0141800D01*
X0103202Y0141709D01*
X0103246Y0141619D01*
X0103293Y0141531D01*
X0103343Y0141445D01*
X0103397Y0141361D01*
X0103454Y0141280D01*
X0103514Y0141200D01*
X0103577Y0141123D01*
X0103644Y0141049D01*
X0103713Y0140977D01*
X0103785Y0140908D01*
X0103859Y0140841D01*
X0103936Y0140778D01*
X0104016Y0140718D01*
X0104097Y0140661D01*
X0104181Y0140607D01*
X0104267Y0140557D01*
X0104355Y0140510D01*
X0104445Y0140466D01*
X0104536Y0140426D01*
X0104629Y0140390D01*
X0104723Y0140357D01*
X0104819Y0140328D01*
X0104915Y0140303D01*
X0105013Y0140282D01*
X0105111Y0140264D01*
X0105210Y0140251D01*
X0105309Y0140241D01*
X0105408Y0140235D01*
X0105508Y0140233D01*
X0109740Y0140233D01*
X0109740Y0145311D02*
X0102969Y0145311D01*
X0102968Y0147004D02*
X0102970Y0147120D01*
X0102976Y0147235D01*
X0102986Y0147350D01*
X0103000Y0147465D01*
X0103017Y0147579D01*
X0103039Y0147693D01*
X0103064Y0147806D01*
X0103094Y0147918D01*
X0103127Y0148028D01*
X0103164Y0148138D01*
X0103204Y0148246D01*
X0103248Y0148353D01*
X0103296Y0148458D01*
X0103348Y0148562D01*
X0103403Y0148664D01*
X0103461Y0148763D01*
X0103523Y0148861D01*
X0103588Y0148957D01*
X0103656Y0149050D01*
X0103727Y0149141D01*
X0103802Y0149229D01*
X0103879Y0149315D01*
X0103960Y0149398D01*
X0104043Y0149479D01*
X0104129Y0149556D01*
X0104217Y0149631D01*
X0104308Y0149702D01*
X0104401Y0149770D01*
X0104497Y0149835D01*
X0104595Y0149897D01*
X0104694Y0149955D01*
X0104796Y0150010D01*
X0104900Y0150062D01*
X0105005Y0150110D01*
X0105112Y0150154D01*
X0105220Y0150194D01*
X0105330Y0150231D01*
X0105440Y0150264D01*
X0105552Y0150294D01*
X0105665Y0150319D01*
X0105779Y0150341D01*
X0105893Y0150358D01*
X0106008Y0150372D01*
X0106123Y0150382D01*
X0106238Y0150388D01*
X0106354Y0150390D01*
X0106470Y0150388D01*
X0106585Y0150382D01*
X0106700Y0150372D01*
X0106815Y0150358D01*
X0106929Y0150341D01*
X0107043Y0150319D01*
X0107156Y0150294D01*
X0107268Y0150264D01*
X0107378Y0150231D01*
X0107488Y0150194D01*
X0107596Y0150154D01*
X0107703Y0150110D01*
X0107808Y0150062D01*
X0107912Y0150010D01*
X0108014Y0149955D01*
X0108113Y0149897D01*
X0108211Y0149835D01*
X0108307Y0149770D01*
X0108400Y0149702D01*
X0108491Y0149631D01*
X0108579Y0149556D01*
X0108665Y0149479D01*
X0108748Y0149398D01*
X0108829Y0149315D01*
X0108906Y0149229D01*
X0108981Y0149141D01*
X0109052Y0149050D01*
X0109120Y0148957D01*
X0109185Y0148861D01*
X0109247Y0148763D01*
X0109305Y0148664D01*
X0109360Y0148562D01*
X0109412Y0148458D01*
X0109460Y0148353D01*
X0109504Y0148246D01*
X0109544Y0148138D01*
X0109581Y0148028D01*
X0109614Y0147918D01*
X0109644Y0147806D01*
X0109669Y0147693D01*
X0109691Y0147579D01*
X0109708Y0147465D01*
X0109722Y0147350D01*
X0109732Y0147235D01*
X0109738Y0147120D01*
X0109740Y0147004D01*
X0109740Y0145311D01*
X0120718Y0148697D02*
X0125797Y0148697D01*
X0131492Y0150390D02*
X0135724Y0150390D01*
X0135724Y0150389D02*
X0135824Y0150387D01*
X0135923Y0150381D01*
X0136022Y0150371D01*
X0136121Y0150358D01*
X0136219Y0150340D01*
X0136317Y0150319D01*
X0136413Y0150294D01*
X0136509Y0150265D01*
X0136603Y0150232D01*
X0136696Y0150196D01*
X0136787Y0150156D01*
X0136877Y0150112D01*
X0136965Y0150065D01*
X0137051Y0150015D01*
X0137135Y0149961D01*
X0137216Y0149904D01*
X0137296Y0149844D01*
X0137373Y0149781D01*
X0137447Y0149714D01*
X0137519Y0149645D01*
X0137588Y0149573D01*
X0137655Y0149499D01*
X0137718Y0149422D01*
X0137778Y0149342D01*
X0137835Y0149261D01*
X0137889Y0149177D01*
X0137939Y0149091D01*
X0137986Y0149003D01*
X0138030Y0148913D01*
X0138070Y0148822D01*
X0138106Y0148729D01*
X0138139Y0148635D01*
X0138168Y0148539D01*
X0138193Y0148443D01*
X0138214Y0148345D01*
X0138232Y0148247D01*
X0138245Y0148148D01*
X0138255Y0148049D01*
X0138261Y0147950D01*
X0138263Y0147850D01*
X0138264Y0147850D02*
X0138264Y0140233D01*
X0142665Y0142772D02*
X0142665Y0147850D01*
X0142667Y0147950D01*
X0142673Y0148049D01*
X0142683Y0148148D01*
X0142696Y0148247D01*
X0142714Y0148345D01*
X0142735Y0148443D01*
X0142760Y0148539D01*
X0142789Y0148635D01*
X0142822Y0148729D01*
X0142858Y0148822D01*
X0142898Y0148913D01*
X0142942Y0149003D01*
X0142989Y0149091D01*
X0143039Y0149177D01*
X0143093Y0149261D01*
X0143150Y0149342D01*
X0143210Y0149422D01*
X0143273Y0149499D01*
X0143340Y0149573D01*
X0143409Y0149645D01*
X0143481Y0149714D01*
X0143555Y0149781D01*
X0143632Y0149844D01*
X0143712Y0149904D01*
X0143793Y0149961D01*
X0143877Y0150015D01*
X0143963Y0150065D01*
X0144051Y0150112D01*
X0144141Y0150156D01*
X0144232Y0150196D01*
X0144325Y0150232D01*
X0144419Y0150265D01*
X0144515Y0150294D01*
X0144611Y0150319D01*
X0144709Y0150340D01*
X0144807Y0150358D01*
X0144906Y0150371D01*
X0145005Y0150381D01*
X0145104Y0150387D01*
X0145204Y0150389D01*
X0145204Y0150390D02*
X0149436Y0150390D01*
X0149436Y0137693D01*
X0149434Y0137593D01*
X0149428Y0137494D01*
X0149418Y0137395D01*
X0149405Y0137296D01*
X0149387Y0137198D01*
X0149366Y0137100D01*
X0149341Y0137004D01*
X0149312Y0136908D01*
X0149279Y0136814D01*
X0149243Y0136721D01*
X0149203Y0136630D01*
X0149159Y0136540D01*
X0149112Y0136452D01*
X0149062Y0136366D01*
X0149008Y0136282D01*
X0148951Y0136201D01*
X0148891Y0136121D01*
X0148828Y0136044D01*
X0148761Y0135970D01*
X0148692Y0135898D01*
X0148620Y0135829D01*
X0148546Y0135762D01*
X0148469Y0135699D01*
X0148389Y0135639D01*
X0148308Y0135582D01*
X0148224Y0135528D01*
X0148138Y0135478D01*
X0148050Y0135431D01*
X0147960Y0135387D01*
X0147869Y0135347D01*
X0147776Y0135311D01*
X0147682Y0135278D01*
X0147586Y0135249D01*
X0147490Y0135224D01*
X0147392Y0135203D01*
X0147294Y0135185D01*
X0147195Y0135172D01*
X0147096Y0135162D01*
X0146997Y0135156D01*
X0146897Y0135154D01*
X0143511Y0135154D01*
X0145204Y0140233D02*
X0149436Y0140233D01*
X0154307Y0140233D02*
X0154307Y0150390D01*
X0159189Y0150390D02*
X0163421Y0150390D01*
X0163421Y0150389D02*
X0163521Y0150387D01*
X0163620Y0150381D01*
X0163719Y0150371D01*
X0163818Y0150358D01*
X0163916Y0150340D01*
X0164014Y0150319D01*
X0164110Y0150294D01*
X0164206Y0150265D01*
X0164300Y0150232D01*
X0164393Y0150196D01*
X0164484Y0150156D01*
X0164574Y0150112D01*
X0164662Y0150065D01*
X0164748Y0150015D01*
X0164832Y0149961D01*
X0164913Y0149904D01*
X0164993Y0149844D01*
X0165070Y0149781D01*
X0165144Y0149714D01*
X0165216Y0149645D01*
X0165285Y0149573D01*
X0165352Y0149499D01*
X0165415Y0149422D01*
X0165475Y0149342D01*
X0165532Y0149261D01*
X0165586Y0149177D01*
X0165636Y0149091D01*
X0165683Y0149003D01*
X0165727Y0148913D01*
X0165767Y0148822D01*
X0165803Y0148729D01*
X0165836Y0148635D01*
X0165865Y0148539D01*
X0165890Y0148443D01*
X0165911Y0148345D01*
X0165929Y0148247D01*
X0165942Y0148148D01*
X0165952Y0148049D01*
X0165958Y0147950D01*
X0165960Y0147850D01*
X0165961Y0147850D02*
X0165961Y0140233D01*
X0170351Y0142772D02*
X0170351Y0147004D01*
X0170351Y0145311D02*
X0177122Y0145311D01*
X0177122Y0147004D01*
X0177120Y0147120D01*
X0177114Y0147235D01*
X0177104Y0147350D01*
X0177090Y0147465D01*
X0177073Y0147579D01*
X0177051Y0147693D01*
X0177026Y0147806D01*
X0176996Y0147918D01*
X0176963Y0148028D01*
X0176926Y0148138D01*
X0176886Y0148246D01*
X0176842Y0148353D01*
X0176794Y0148458D01*
X0176742Y0148562D01*
X0176687Y0148664D01*
X0176629Y0148763D01*
X0176567Y0148861D01*
X0176502Y0148957D01*
X0176434Y0149050D01*
X0176363Y0149141D01*
X0176288Y0149229D01*
X0176211Y0149315D01*
X0176130Y0149398D01*
X0176047Y0149479D01*
X0175961Y0149556D01*
X0175873Y0149631D01*
X0175782Y0149702D01*
X0175689Y0149770D01*
X0175593Y0149835D01*
X0175495Y0149897D01*
X0175396Y0149955D01*
X0175294Y0150010D01*
X0175190Y0150062D01*
X0175085Y0150110D01*
X0174978Y0150154D01*
X0174870Y0150194D01*
X0174760Y0150231D01*
X0174650Y0150264D01*
X0174538Y0150294D01*
X0174425Y0150319D01*
X0174311Y0150341D01*
X0174197Y0150358D01*
X0174082Y0150372D01*
X0173967Y0150382D01*
X0173852Y0150388D01*
X0173736Y0150390D01*
X0173620Y0150388D01*
X0173505Y0150382D01*
X0173390Y0150372D01*
X0173275Y0150358D01*
X0173161Y0150341D01*
X0173047Y0150319D01*
X0172934Y0150294D01*
X0172822Y0150264D01*
X0172712Y0150231D01*
X0172602Y0150194D01*
X0172494Y0150154D01*
X0172387Y0150110D01*
X0172282Y0150062D01*
X0172178Y0150010D01*
X0172076Y0149955D01*
X0171977Y0149897D01*
X0171879Y0149835D01*
X0171783Y0149770D01*
X0171690Y0149702D01*
X0171599Y0149631D01*
X0171511Y0149556D01*
X0171425Y0149479D01*
X0171342Y0149398D01*
X0171261Y0149315D01*
X0171184Y0149229D01*
X0171109Y0149141D01*
X0171038Y0149050D01*
X0170970Y0148957D01*
X0170905Y0148861D01*
X0170843Y0148763D01*
X0170785Y0148664D01*
X0170730Y0148562D01*
X0170678Y0148458D01*
X0170630Y0148353D01*
X0170586Y0148246D01*
X0170546Y0148138D01*
X0170509Y0148028D01*
X0170476Y0147918D01*
X0170446Y0147806D01*
X0170421Y0147693D01*
X0170399Y0147579D01*
X0170382Y0147465D01*
X0170368Y0147350D01*
X0170358Y0147235D01*
X0170352Y0147120D01*
X0170350Y0147004D01*
X0170351Y0142772D02*
X0170353Y0142672D01*
X0170359Y0142573D01*
X0170369Y0142474D01*
X0170382Y0142375D01*
X0170400Y0142277D01*
X0170421Y0142179D01*
X0170446Y0142083D01*
X0170475Y0141987D01*
X0170508Y0141893D01*
X0170544Y0141800D01*
X0170584Y0141709D01*
X0170628Y0141619D01*
X0170675Y0141531D01*
X0170725Y0141445D01*
X0170779Y0141361D01*
X0170836Y0141280D01*
X0170896Y0141200D01*
X0170959Y0141123D01*
X0171026Y0141049D01*
X0171095Y0140977D01*
X0171167Y0140908D01*
X0171241Y0140841D01*
X0171318Y0140778D01*
X0171398Y0140718D01*
X0171479Y0140661D01*
X0171563Y0140607D01*
X0171649Y0140557D01*
X0171737Y0140510D01*
X0171827Y0140466D01*
X0171918Y0140426D01*
X0172011Y0140390D01*
X0172105Y0140357D01*
X0172201Y0140328D01*
X0172297Y0140303D01*
X0172395Y0140282D01*
X0172493Y0140264D01*
X0172592Y0140251D01*
X0172691Y0140241D01*
X0172790Y0140235D01*
X0172890Y0140233D01*
X0177122Y0140233D01*
X0181099Y0142772D02*
X0181099Y0147004D01*
X0181099Y0145311D02*
X0187870Y0145311D01*
X0187870Y0147004D01*
X0187868Y0147120D01*
X0187862Y0147235D01*
X0187852Y0147350D01*
X0187838Y0147465D01*
X0187821Y0147579D01*
X0187799Y0147693D01*
X0187774Y0147806D01*
X0187744Y0147918D01*
X0187711Y0148028D01*
X0187674Y0148138D01*
X0187634Y0148246D01*
X0187590Y0148353D01*
X0187542Y0148458D01*
X0187490Y0148562D01*
X0187435Y0148664D01*
X0187377Y0148763D01*
X0187315Y0148861D01*
X0187250Y0148957D01*
X0187182Y0149050D01*
X0187111Y0149141D01*
X0187036Y0149229D01*
X0186959Y0149315D01*
X0186878Y0149398D01*
X0186795Y0149479D01*
X0186709Y0149556D01*
X0186621Y0149631D01*
X0186530Y0149702D01*
X0186437Y0149770D01*
X0186341Y0149835D01*
X0186243Y0149897D01*
X0186144Y0149955D01*
X0186042Y0150010D01*
X0185938Y0150062D01*
X0185833Y0150110D01*
X0185726Y0150154D01*
X0185618Y0150194D01*
X0185508Y0150231D01*
X0185398Y0150264D01*
X0185286Y0150294D01*
X0185173Y0150319D01*
X0185059Y0150341D01*
X0184945Y0150358D01*
X0184830Y0150372D01*
X0184715Y0150382D01*
X0184600Y0150388D01*
X0184484Y0150390D01*
X0184368Y0150388D01*
X0184253Y0150382D01*
X0184138Y0150372D01*
X0184023Y0150358D01*
X0183909Y0150341D01*
X0183795Y0150319D01*
X0183682Y0150294D01*
X0183570Y0150264D01*
X0183460Y0150231D01*
X0183350Y0150194D01*
X0183242Y0150154D01*
X0183135Y0150110D01*
X0183030Y0150062D01*
X0182926Y0150010D01*
X0182824Y0149955D01*
X0182725Y0149897D01*
X0182627Y0149835D01*
X0182531Y0149770D01*
X0182438Y0149702D01*
X0182347Y0149631D01*
X0182259Y0149556D01*
X0182173Y0149479D01*
X0182090Y0149398D01*
X0182009Y0149315D01*
X0181932Y0149229D01*
X0181857Y0149141D01*
X0181786Y0149050D01*
X0181718Y0148957D01*
X0181653Y0148861D01*
X0181591Y0148763D01*
X0181533Y0148664D01*
X0181478Y0148562D01*
X0181426Y0148458D01*
X0181378Y0148353D01*
X0181334Y0148246D01*
X0181294Y0148138D01*
X0181257Y0148028D01*
X0181224Y0147918D01*
X0181194Y0147806D01*
X0181169Y0147693D01*
X0181147Y0147579D01*
X0181130Y0147465D01*
X0181116Y0147350D01*
X0181106Y0147235D01*
X0181100Y0147120D01*
X0181098Y0147004D01*
X0181099Y0142772D02*
X0181101Y0142672D01*
X0181107Y0142573D01*
X0181117Y0142474D01*
X0181130Y0142375D01*
X0181148Y0142277D01*
X0181169Y0142179D01*
X0181194Y0142083D01*
X0181223Y0141987D01*
X0181256Y0141893D01*
X0181292Y0141800D01*
X0181332Y0141709D01*
X0181376Y0141619D01*
X0181423Y0141531D01*
X0181473Y0141445D01*
X0181527Y0141361D01*
X0181584Y0141280D01*
X0181644Y0141200D01*
X0181707Y0141123D01*
X0181774Y0141049D01*
X0181843Y0140977D01*
X0181915Y0140908D01*
X0181989Y0140841D01*
X0182066Y0140778D01*
X0182146Y0140718D01*
X0182227Y0140661D01*
X0182311Y0140607D01*
X0182397Y0140557D01*
X0182485Y0140510D01*
X0182575Y0140466D01*
X0182666Y0140426D01*
X0182759Y0140390D01*
X0182853Y0140357D01*
X0182949Y0140328D01*
X0183045Y0140303D01*
X0183143Y0140282D01*
X0183241Y0140264D01*
X0183340Y0140251D01*
X0183439Y0140241D01*
X0183538Y0140235D01*
X0183638Y0140233D01*
X0187870Y0140233D01*
X0192244Y0140233D02*
X0192244Y0150390D01*
X0197323Y0150390D01*
X0197323Y0148697D01*
X0159189Y0150390D02*
X0159189Y0140233D01*
X0145204Y0140233D02*
X0145104Y0140235D01*
X0145005Y0140241D01*
X0144906Y0140251D01*
X0144807Y0140264D01*
X0144709Y0140282D01*
X0144611Y0140303D01*
X0144515Y0140328D01*
X0144419Y0140357D01*
X0144325Y0140390D01*
X0144232Y0140426D01*
X0144141Y0140466D01*
X0144051Y0140510D01*
X0143963Y0140557D01*
X0143877Y0140607D01*
X0143793Y0140661D01*
X0143712Y0140718D01*
X0143632Y0140778D01*
X0143555Y0140841D01*
X0143481Y0140908D01*
X0143409Y0140977D01*
X0143340Y0141049D01*
X0143273Y0141123D01*
X0143210Y0141200D01*
X0143150Y0141280D01*
X0143093Y0141361D01*
X0143039Y0141445D01*
X0142989Y0141531D01*
X0142942Y0141619D01*
X0142898Y0141709D01*
X0142858Y0141800D01*
X0142822Y0141893D01*
X0142789Y0141987D01*
X0142760Y0142083D01*
X0142735Y0142179D01*
X0142714Y0142277D01*
X0142696Y0142375D01*
X0142683Y0142474D01*
X0142673Y0142573D01*
X0142667Y0142672D01*
X0142665Y0142772D01*
X0131492Y0140233D02*
X0131492Y0150390D01*
X0127489Y0155468D02*
X0120718Y0155468D01*
X0120718Y0140233D01*
X0127489Y0140233D01*
X0153884Y0154622D02*
X0154730Y0154622D01*
X0154730Y0155468D01*
X0153884Y0155468D01*
X0153884Y0154622D01*
X0094685Y0150390D02*
X0094685Y0140233D01*
D12*
X0056147Y0070066D02*
X0055151Y0070066D01*
X0056147Y0070066D02*
X0059135Y0079029D01*
X0062352Y0079029D02*
X0064344Y0079029D01*
X0064420Y0079027D01*
X0064495Y0079021D01*
X0064570Y0079012D01*
X0064645Y0078998D01*
X0064718Y0078981D01*
X0064791Y0078960D01*
X0064863Y0078936D01*
X0064933Y0078908D01*
X0065002Y0078876D01*
X0065069Y0078841D01*
X0065134Y0078803D01*
X0065197Y0078761D01*
X0065258Y0078716D01*
X0065317Y0078669D01*
X0065373Y0078618D01*
X0065427Y0078564D01*
X0065478Y0078508D01*
X0065525Y0078449D01*
X0065570Y0078388D01*
X0065612Y0078325D01*
X0065650Y0078260D01*
X0065685Y0078193D01*
X0065717Y0078124D01*
X0065745Y0078054D01*
X0065769Y0077982D01*
X0065790Y0077909D01*
X0065807Y0077836D01*
X0065821Y0077761D01*
X0065830Y0077686D01*
X0065836Y0077611D01*
X0065838Y0077535D01*
X0065838Y0073054D01*
X0063597Y0073054D01*
X0063597Y0073053D02*
X0063515Y0073055D01*
X0063434Y0073061D01*
X0063353Y0073070D01*
X0063272Y0073084D01*
X0063192Y0073101D01*
X0063113Y0073122D01*
X0063035Y0073146D01*
X0062958Y0073174D01*
X0062883Y0073206D01*
X0062809Y0073241D01*
X0062737Y0073280D01*
X0062667Y0073322D01*
X0062599Y0073367D01*
X0062533Y0073415D01*
X0062470Y0073467D01*
X0062409Y0073521D01*
X0062350Y0073578D01*
X0062294Y0073638D01*
X0062242Y0073700D01*
X0062192Y0073765D01*
X0062145Y0073832D01*
X0062101Y0073901D01*
X0062061Y0073972D01*
X0062024Y0074045D01*
X0061991Y0074120D01*
X0061961Y0074196D01*
X0061934Y0074273D01*
X0061912Y0074351D01*
X0061893Y0074431D01*
X0061877Y0074511D01*
X0061866Y0074592D01*
X0061858Y0074674D01*
X0061854Y0074755D01*
X0061854Y0074837D01*
X0061858Y0074918D01*
X0061866Y0075000D01*
X0061877Y0075081D01*
X0061893Y0075161D01*
X0061912Y0075241D01*
X0061934Y0075319D01*
X0061961Y0075396D01*
X0061991Y0075472D01*
X0062024Y0075547D01*
X0062061Y0075620D01*
X0062101Y0075691D01*
X0062145Y0075760D01*
X0062192Y0075827D01*
X0062242Y0075892D01*
X0062294Y0075954D01*
X0062350Y0076014D01*
X0062409Y0076071D01*
X0062470Y0076125D01*
X0062533Y0076177D01*
X0062599Y0076225D01*
X0062667Y0076270D01*
X0062737Y0076312D01*
X0062809Y0076351D01*
X0062883Y0076386D01*
X0062958Y0076418D01*
X0063035Y0076446D01*
X0063113Y0076470D01*
X0063192Y0076491D01*
X0063272Y0076508D01*
X0063353Y0076522D01*
X0063434Y0076531D01*
X0063515Y0076537D01*
X0063597Y0076539D01*
X0065838Y0076539D01*
X0069408Y0079029D02*
X0069408Y0073054D01*
X0073392Y0073054D02*
X0073392Y0077535D01*
X0073390Y0077611D01*
X0073384Y0077686D01*
X0073375Y0077761D01*
X0073361Y0077836D01*
X0073344Y0077909D01*
X0073323Y0077982D01*
X0073299Y0078054D01*
X0073271Y0078124D01*
X0073239Y0078193D01*
X0073204Y0078260D01*
X0073166Y0078325D01*
X0073124Y0078388D01*
X0073079Y0078449D01*
X0073032Y0078508D01*
X0072981Y0078564D01*
X0072927Y0078618D01*
X0072871Y0078669D01*
X0072812Y0078716D01*
X0072751Y0078761D01*
X0072688Y0078803D01*
X0072623Y0078841D01*
X0072556Y0078876D01*
X0072487Y0078908D01*
X0072417Y0078936D01*
X0072345Y0078960D01*
X0072272Y0078981D01*
X0072199Y0078998D01*
X0072124Y0079012D01*
X0072049Y0079021D01*
X0071974Y0079027D01*
X0071898Y0079029D01*
X0069408Y0079029D01*
X0076649Y0077535D02*
X0076649Y0074548D01*
X0076651Y0074472D01*
X0076657Y0074397D01*
X0076666Y0074322D01*
X0076680Y0074247D01*
X0076697Y0074174D01*
X0076718Y0074101D01*
X0076742Y0074029D01*
X0076770Y0073959D01*
X0076802Y0073890D01*
X0076837Y0073823D01*
X0076875Y0073758D01*
X0076917Y0073695D01*
X0076962Y0073634D01*
X0077009Y0073575D01*
X0077060Y0073519D01*
X0077114Y0073465D01*
X0077170Y0073414D01*
X0077229Y0073367D01*
X0077290Y0073322D01*
X0077353Y0073280D01*
X0077418Y0073242D01*
X0077485Y0073207D01*
X0077554Y0073175D01*
X0077624Y0073147D01*
X0077696Y0073123D01*
X0077769Y0073102D01*
X0077842Y0073085D01*
X0077917Y0073071D01*
X0077992Y0073062D01*
X0078067Y0073056D01*
X0078143Y0073054D01*
X0080633Y0073054D01*
X0080633Y0082017D01*
X0080633Y0079029D02*
X0078143Y0079029D01*
X0078067Y0079027D01*
X0077992Y0079021D01*
X0077917Y0079012D01*
X0077842Y0078998D01*
X0077769Y0078981D01*
X0077696Y0078960D01*
X0077624Y0078936D01*
X0077554Y0078908D01*
X0077485Y0078876D01*
X0077418Y0078841D01*
X0077353Y0078803D01*
X0077290Y0078761D01*
X0077229Y0078716D01*
X0077170Y0078669D01*
X0077114Y0078618D01*
X0077060Y0078564D01*
X0077009Y0078508D01*
X0076962Y0078449D01*
X0076917Y0078388D01*
X0076875Y0078325D01*
X0076837Y0078260D01*
X0076802Y0078193D01*
X0076770Y0078124D01*
X0076742Y0078054D01*
X0076718Y0077982D01*
X0076697Y0077909D01*
X0076680Y0077836D01*
X0076666Y0077761D01*
X0076657Y0077686D01*
X0076651Y0077611D01*
X0076649Y0077535D01*
X0084229Y0079029D02*
X0084229Y0073054D01*
X0089582Y0074548D02*
X0089582Y0077037D01*
X0089582Y0076041D02*
X0093566Y0076041D01*
X0093566Y0077037D01*
X0093564Y0077125D01*
X0093558Y0077213D01*
X0093548Y0077301D01*
X0093535Y0077388D01*
X0093517Y0077474D01*
X0093496Y0077560D01*
X0093471Y0077644D01*
X0093442Y0077727D01*
X0093410Y0077809D01*
X0093374Y0077890D01*
X0093335Y0077969D01*
X0093292Y0078046D01*
X0093245Y0078121D01*
X0093196Y0078194D01*
X0093143Y0078264D01*
X0093087Y0078332D01*
X0093029Y0078398D01*
X0092967Y0078461D01*
X0092903Y0078521D01*
X0092836Y0078579D01*
X0092766Y0078633D01*
X0092694Y0078684D01*
X0092620Y0078732D01*
X0092544Y0078777D01*
X0092467Y0078818D01*
X0092387Y0078856D01*
X0092306Y0078890D01*
X0092223Y0078920D01*
X0092139Y0078947D01*
X0092054Y0078970D01*
X0091968Y0078990D01*
X0091881Y0079005D01*
X0091794Y0079017D01*
X0091706Y0079025D01*
X0091618Y0079029D01*
X0091530Y0079029D01*
X0091442Y0079025D01*
X0091354Y0079017D01*
X0091267Y0079005D01*
X0091180Y0078990D01*
X0091094Y0078970D01*
X0091009Y0078947D01*
X0090925Y0078920D01*
X0090842Y0078890D01*
X0090761Y0078856D01*
X0090681Y0078818D01*
X0090604Y0078777D01*
X0090528Y0078732D01*
X0090454Y0078684D01*
X0090382Y0078633D01*
X0090312Y0078579D01*
X0090245Y0078521D01*
X0090181Y0078461D01*
X0090119Y0078398D01*
X0090061Y0078332D01*
X0090005Y0078264D01*
X0089952Y0078194D01*
X0089903Y0078121D01*
X0089856Y0078046D01*
X0089813Y0077969D01*
X0089774Y0077890D01*
X0089738Y0077809D01*
X0089706Y0077727D01*
X0089677Y0077644D01*
X0089652Y0077560D01*
X0089631Y0077474D01*
X0089613Y0077388D01*
X0089600Y0077301D01*
X0089590Y0077213D01*
X0089584Y0077125D01*
X0089582Y0077037D01*
X0087217Y0078033D02*
X0087217Y0079029D01*
X0084229Y0079029D01*
X0089582Y0074548D02*
X0089584Y0074472D01*
X0089590Y0074397D01*
X0089599Y0074322D01*
X0089613Y0074247D01*
X0089630Y0074174D01*
X0089651Y0074101D01*
X0089675Y0074029D01*
X0089703Y0073959D01*
X0089735Y0073890D01*
X0089770Y0073823D01*
X0089808Y0073758D01*
X0089850Y0073695D01*
X0089895Y0073634D01*
X0089942Y0073575D01*
X0089993Y0073519D01*
X0090047Y0073465D01*
X0090103Y0073414D01*
X0090162Y0073367D01*
X0090223Y0073322D01*
X0090286Y0073280D01*
X0090351Y0073242D01*
X0090418Y0073207D01*
X0090487Y0073175D01*
X0090557Y0073147D01*
X0090629Y0073123D01*
X0090702Y0073102D01*
X0090775Y0073085D01*
X0090850Y0073071D01*
X0090925Y0073062D01*
X0091000Y0073056D01*
X0091076Y0073054D01*
X0093566Y0073054D01*
X0096576Y0074548D02*
X0096576Y0077037D01*
X0096576Y0076041D02*
X0100560Y0076041D01*
X0100560Y0077037D01*
X0100558Y0077125D01*
X0100552Y0077213D01*
X0100542Y0077301D01*
X0100529Y0077388D01*
X0100511Y0077474D01*
X0100490Y0077560D01*
X0100465Y0077644D01*
X0100436Y0077727D01*
X0100404Y0077809D01*
X0100368Y0077890D01*
X0100329Y0077969D01*
X0100286Y0078046D01*
X0100239Y0078121D01*
X0100190Y0078194D01*
X0100137Y0078264D01*
X0100081Y0078332D01*
X0100023Y0078398D01*
X0099961Y0078461D01*
X0099897Y0078521D01*
X0099830Y0078579D01*
X0099760Y0078633D01*
X0099688Y0078684D01*
X0099614Y0078732D01*
X0099538Y0078777D01*
X0099461Y0078818D01*
X0099381Y0078856D01*
X0099300Y0078890D01*
X0099217Y0078920D01*
X0099133Y0078947D01*
X0099048Y0078970D01*
X0098962Y0078990D01*
X0098875Y0079005D01*
X0098788Y0079017D01*
X0098700Y0079025D01*
X0098612Y0079029D01*
X0098524Y0079029D01*
X0098436Y0079025D01*
X0098348Y0079017D01*
X0098261Y0079005D01*
X0098174Y0078990D01*
X0098088Y0078970D01*
X0098003Y0078947D01*
X0097919Y0078920D01*
X0097836Y0078890D01*
X0097755Y0078856D01*
X0097675Y0078818D01*
X0097598Y0078777D01*
X0097522Y0078732D01*
X0097448Y0078684D01*
X0097376Y0078633D01*
X0097306Y0078579D01*
X0097239Y0078521D01*
X0097175Y0078461D01*
X0097113Y0078398D01*
X0097055Y0078332D01*
X0096999Y0078264D01*
X0096946Y0078194D01*
X0096897Y0078121D01*
X0096850Y0078046D01*
X0096807Y0077969D01*
X0096768Y0077890D01*
X0096732Y0077809D01*
X0096700Y0077727D01*
X0096671Y0077644D01*
X0096646Y0077560D01*
X0096625Y0077474D01*
X0096607Y0077388D01*
X0096594Y0077301D01*
X0096584Y0077213D01*
X0096578Y0077125D01*
X0096576Y0077037D01*
X0096576Y0074548D02*
X0096578Y0074472D01*
X0096584Y0074397D01*
X0096593Y0074322D01*
X0096607Y0074247D01*
X0096624Y0074174D01*
X0096645Y0074101D01*
X0096669Y0074029D01*
X0096697Y0073959D01*
X0096729Y0073890D01*
X0096764Y0073823D01*
X0096802Y0073758D01*
X0096844Y0073695D01*
X0096889Y0073634D01*
X0096936Y0073575D01*
X0096987Y0073519D01*
X0097041Y0073465D01*
X0097097Y0073414D01*
X0097156Y0073367D01*
X0097217Y0073322D01*
X0097280Y0073280D01*
X0097345Y0073242D01*
X0097412Y0073207D01*
X0097481Y0073175D01*
X0097551Y0073147D01*
X0097623Y0073123D01*
X0097696Y0073102D01*
X0097769Y0073085D01*
X0097844Y0073071D01*
X0097919Y0073062D01*
X0097994Y0073056D01*
X0098070Y0073054D01*
X0100560Y0073054D01*
X0105293Y0073054D02*
X0107284Y0079029D01*
X0103301Y0079029D02*
X0105293Y0073054D01*
X0109885Y0073054D02*
X0110383Y0073054D01*
X0110383Y0073552D01*
X0109885Y0073552D01*
X0109885Y0073054D01*
X0113259Y0074548D02*
X0113259Y0077535D01*
X0113261Y0077611D01*
X0113267Y0077686D01*
X0113276Y0077761D01*
X0113290Y0077836D01*
X0113307Y0077909D01*
X0113328Y0077982D01*
X0113352Y0078054D01*
X0113380Y0078124D01*
X0113412Y0078193D01*
X0113447Y0078260D01*
X0113485Y0078325D01*
X0113527Y0078388D01*
X0113572Y0078449D01*
X0113619Y0078508D01*
X0113670Y0078564D01*
X0113724Y0078618D01*
X0113780Y0078669D01*
X0113839Y0078716D01*
X0113900Y0078761D01*
X0113963Y0078803D01*
X0114028Y0078841D01*
X0114095Y0078876D01*
X0114164Y0078908D01*
X0114234Y0078936D01*
X0114306Y0078960D01*
X0114379Y0078981D01*
X0114452Y0078998D01*
X0114527Y0079012D01*
X0114602Y0079021D01*
X0114677Y0079027D01*
X0114753Y0079029D01*
X0116745Y0079029D01*
X0119440Y0077037D02*
X0119440Y0075045D01*
X0119442Y0074957D01*
X0119448Y0074869D01*
X0119458Y0074781D01*
X0119471Y0074694D01*
X0119489Y0074608D01*
X0119510Y0074522D01*
X0119535Y0074438D01*
X0119564Y0074355D01*
X0119596Y0074273D01*
X0119632Y0074192D01*
X0119671Y0074113D01*
X0119714Y0074036D01*
X0119761Y0073961D01*
X0119810Y0073888D01*
X0119863Y0073818D01*
X0119919Y0073750D01*
X0119977Y0073684D01*
X0120039Y0073621D01*
X0120103Y0073561D01*
X0120170Y0073503D01*
X0120240Y0073449D01*
X0120312Y0073398D01*
X0120386Y0073350D01*
X0120462Y0073305D01*
X0120539Y0073264D01*
X0120619Y0073226D01*
X0120700Y0073192D01*
X0120783Y0073162D01*
X0120867Y0073135D01*
X0120952Y0073112D01*
X0121038Y0073092D01*
X0121125Y0073077D01*
X0121212Y0073065D01*
X0121300Y0073057D01*
X0121388Y0073053D01*
X0121476Y0073053D01*
X0121564Y0073057D01*
X0121652Y0073065D01*
X0121739Y0073077D01*
X0121826Y0073092D01*
X0121912Y0073112D01*
X0121997Y0073135D01*
X0122081Y0073162D01*
X0122164Y0073192D01*
X0122245Y0073226D01*
X0122325Y0073264D01*
X0122402Y0073305D01*
X0122478Y0073350D01*
X0122552Y0073398D01*
X0122624Y0073449D01*
X0122694Y0073503D01*
X0122761Y0073561D01*
X0122825Y0073621D01*
X0122887Y0073684D01*
X0122945Y0073750D01*
X0123001Y0073818D01*
X0123054Y0073888D01*
X0123103Y0073961D01*
X0123150Y0074036D01*
X0123193Y0074113D01*
X0123232Y0074192D01*
X0123268Y0074273D01*
X0123300Y0074355D01*
X0123329Y0074438D01*
X0123354Y0074522D01*
X0123375Y0074608D01*
X0123393Y0074694D01*
X0123406Y0074781D01*
X0123416Y0074869D01*
X0123422Y0074957D01*
X0123424Y0075045D01*
X0123424Y0077037D01*
X0123422Y0077125D01*
X0123416Y0077213D01*
X0123406Y0077301D01*
X0123393Y0077388D01*
X0123375Y0077474D01*
X0123354Y0077560D01*
X0123329Y0077644D01*
X0123300Y0077727D01*
X0123268Y0077809D01*
X0123232Y0077890D01*
X0123193Y0077969D01*
X0123150Y0078046D01*
X0123103Y0078121D01*
X0123054Y0078194D01*
X0123001Y0078264D01*
X0122945Y0078332D01*
X0122887Y0078398D01*
X0122825Y0078461D01*
X0122761Y0078521D01*
X0122694Y0078579D01*
X0122624Y0078633D01*
X0122552Y0078684D01*
X0122478Y0078732D01*
X0122402Y0078777D01*
X0122325Y0078818D01*
X0122245Y0078856D01*
X0122164Y0078890D01*
X0122081Y0078920D01*
X0121997Y0078947D01*
X0121912Y0078970D01*
X0121826Y0078990D01*
X0121739Y0079005D01*
X0121652Y0079017D01*
X0121564Y0079025D01*
X0121476Y0079029D01*
X0121388Y0079029D01*
X0121300Y0079025D01*
X0121212Y0079017D01*
X0121125Y0079005D01*
X0121038Y0078990D01*
X0120952Y0078970D01*
X0120867Y0078947D01*
X0120783Y0078920D01*
X0120700Y0078890D01*
X0120619Y0078856D01*
X0120539Y0078818D01*
X0120462Y0078777D01*
X0120386Y0078732D01*
X0120312Y0078684D01*
X0120240Y0078633D01*
X0120170Y0078579D01*
X0120103Y0078521D01*
X0120039Y0078461D01*
X0119977Y0078398D01*
X0119919Y0078332D01*
X0119863Y0078264D01*
X0119810Y0078194D01*
X0119761Y0078121D01*
X0119714Y0078046D01*
X0119671Y0077969D01*
X0119632Y0077890D01*
X0119596Y0077809D01*
X0119564Y0077727D01*
X0119535Y0077644D01*
X0119510Y0077560D01*
X0119489Y0077474D01*
X0119471Y0077388D01*
X0119458Y0077301D01*
X0119448Y0077213D01*
X0119442Y0077125D01*
X0119440Y0077037D01*
X0116745Y0073054D02*
X0114753Y0073054D01*
X0114677Y0073056D01*
X0114602Y0073062D01*
X0114527Y0073071D01*
X0114452Y0073085D01*
X0114379Y0073102D01*
X0114306Y0073123D01*
X0114234Y0073147D01*
X0114164Y0073175D01*
X0114095Y0073207D01*
X0114028Y0073242D01*
X0113963Y0073280D01*
X0113900Y0073322D01*
X0113839Y0073367D01*
X0113780Y0073414D01*
X0113724Y0073465D01*
X0113670Y0073519D01*
X0113619Y0073575D01*
X0113572Y0073634D01*
X0113527Y0073695D01*
X0113485Y0073758D01*
X0113447Y0073823D01*
X0113412Y0073890D01*
X0113380Y0073959D01*
X0113352Y0074029D01*
X0113328Y0074101D01*
X0113307Y0074174D01*
X0113290Y0074247D01*
X0113276Y0074322D01*
X0113267Y0074397D01*
X0113261Y0074472D01*
X0113259Y0074548D01*
X0126783Y0073054D02*
X0126783Y0079029D01*
X0131265Y0079029D01*
X0131341Y0079027D01*
X0131416Y0079021D01*
X0131491Y0079012D01*
X0131566Y0078998D01*
X0131639Y0078981D01*
X0131712Y0078960D01*
X0131784Y0078936D01*
X0131854Y0078908D01*
X0131923Y0078876D01*
X0131990Y0078841D01*
X0132055Y0078803D01*
X0132118Y0078761D01*
X0132179Y0078716D01*
X0132238Y0078669D01*
X0132294Y0078618D01*
X0132348Y0078564D01*
X0132399Y0078508D01*
X0132446Y0078449D01*
X0132491Y0078388D01*
X0132533Y0078325D01*
X0132571Y0078260D01*
X0132606Y0078193D01*
X0132638Y0078124D01*
X0132666Y0078054D01*
X0132690Y0077982D01*
X0132711Y0077909D01*
X0132728Y0077836D01*
X0132742Y0077761D01*
X0132751Y0077686D01*
X0132757Y0077611D01*
X0132759Y0077535D01*
X0132759Y0073054D01*
X0129771Y0073054D02*
X0129771Y0079029D01*
X0057143Y0073054D02*
X0055151Y0079029D01*
X0052141Y0077535D02*
X0052141Y0073054D01*
X0048157Y0073054D02*
X0048157Y0079029D01*
X0050647Y0079029D01*
X0050723Y0079027D01*
X0050798Y0079021D01*
X0050873Y0079012D01*
X0050948Y0078998D01*
X0051021Y0078981D01*
X0051094Y0078960D01*
X0051166Y0078936D01*
X0051236Y0078908D01*
X0051305Y0078876D01*
X0051372Y0078841D01*
X0051437Y0078803D01*
X0051500Y0078761D01*
X0051561Y0078716D01*
X0051620Y0078669D01*
X0051676Y0078618D01*
X0051730Y0078564D01*
X0051781Y0078508D01*
X0051828Y0078449D01*
X0051873Y0078388D01*
X0051915Y0078325D01*
X0051953Y0078260D01*
X0051988Y0078193D01*
X0052020Y0078124D01*
X0052048Y0078054D01*
X0052072Y0077982D01*
X0052093Y0077909D01*
X0052110Y0077836D01*
X0052124Y0077761D01*
X0052133Y0077686D01*
X0052139Y0077611D01*
X0052141Y0077535D01*
X0044610Y0077535D02*
X0044610Y0073054D01*
X0040626Y0073054D02*
X0040626Y0079029D01*
X0043116Y0079029D01*
X0043192Y0079027D01*
X0043267Y0079021D01*
X0043342Y0079012D01*
X0043417Y0078998D01*
X0043490Y0078981D01*
X0043563Y0078960D01*
X0043635Y0078936D01*
X0043705Y0078908D01*
X0043774Y0078876D01*
X0043841Y0078841D01*
X0043906Y0078803D01*
X0043969Y0078761D01*
X0044030Y0078716D01*
X0044089Y0078669D01*
X0044145Y0078618D01*
X0044199Y0078564D01*
X0044250Y0078508D01*
X0044297Y0078449D01*
X0044342Y0078388D01*
X0044384Y0078325D01*
X0044422Y0078260D01*
X0044457Y0078193D01*
X0044489Y0078124D01*
X0044517Y0078054D01*
X0044541Y0077982D01*
X0044562Y0077909D01*
X0044579Y0077836D01*
X0044593Y0077761D01*
X0044602Y0077686D01*
X0044608Y0077611D01*
X0044610Y0077535D01*
X0037056Y0077535D02*
X0037056Y0073054D01*
X0034815Y0073054D01*
X0034815Y0073053D02*
X0034733Y0073055D01*
X0034652Y0073061D01*
X0034571Y0073070D01*
X0034490Y0073084D01*
X0034410Y0073101D01*
X0034331Y0073122D01*
X0034253Y0073146D01*
X0034176Y0073174D01*
X0034101Y0073206D01*
X0034027Y0073241D01*
X0033955Y0073280D01*
X0033885Y0073322D01*
X0033817Y0073367D01*
X0033751Y0073415D01*
X0033688Y0073467D01*
X0033627Y0073521D01*
X0033568Y0073578D01*
X0033512Y0073638D01*
X0033460Y0073700D01*
X0033410Y0073765D01*
X0033363Y0073832D01*
X0033319Y0073901D01*
X0033279Y0073972D01*
X0033242Y0074045D01*
X0033209Y0074120D01*
X0033179Y0074196D01*
X0033152Y0074273D01*
X0033130Y0074351D01*
X0033111Y0074431D01*
X0033095Y0074511D01*
X0033084Y0074592D01*
X0033076Y0074674D01*
X0033072Y0074755D01*
X0033072Y0074837D01*
X0033076Y0074918D01*
X0033084Y0075000D01*
X0033095Y0075081D01*
X0033111Y0075161D01*
X0033130Y0075241D01*
X0033152Y0075319D01*
X0033179Y0075396D01*
X0033209Y0075472D01*
X0033242Y0075547D01*
X0033279Y0075620D01*
X0033319Y0075691D01*
X0033363Y0075760D01*
X0033410Y0075827D01*
X0033460Y0075892D01*
X0033512Y0075954D01*
X0033568Y0076014D01*
X0033627Y0076071D01*
X0033688Y0076125D01*
X0033751Y0076177D01*
X0033817Y0076225D01*
X0033885Y0076270D01*
X0033955Y0076312D01*
X0034027Y0076351D01*
X0034101Y0076386D01*
X0034176Y0076418D01*
X0034253Y0076446D01*
X0034331Y0076470D01*
X0034410Y0076491D01*
X0034490Y0076508D01*
X0034571Y0076522D01*
X0034652Y0076531D01*
X0034733Y0076537D01*
X0034815Y0076539D01*
X0037056Y0076539D01*
X0037056Y0077535D02*
X0037054Y0077611D01*
X0037048Y0077686D01*
X0037039Y0077761D01*
X0037025Y0077836D01*
X0037008Y0077909D01*
X0036987Y0077982D01*
X0036963Y0078054D01*
X0036935Y0078124D01*
X0036903Y0078193D01*
X0036868Y0078260D01*
X0036830Y0078325D01*
X0036788Y0078388D01*
X0036743Y0078449D01*
X0036696Y0078508D01*
X0036645Y0078564D01*
X0036591Y0078618D01*
X0036535Y0078669D01*
X0036476Y0078716D01*
X0036415Y0078761D01*
X0036352Y0078803D01*
X0036287Y0078841D01*
X0036220Y0078876D01*
X0036151Y0078908D01*
X0036081Y0078936D01*
X0036009Y0078960D01*
X0035936Y0078981D01*
X0035863Y0078998D01*
X0035788Y0079012D01*
X0035713Y0079021D01*
X0035638Y0079027D01*
X0035562Y0079029D01*
X0033570Y0079029D01*
X0029793Y0079029D02*
X0027303Y0079029D01*
X0027227Y0079027D01*
X0027152Y0079021D01*
X0027077Y0079012D01*
X0027002Y0078998D01*
X0026929Y0078981D01*
X0026856Y0078960D01*
X0026784Y0078936D01*
X0026714Y0078908D01*
X0026645Y0078876D01*
X0026578Y0078841D01*
X0026513Y0078803D01*
X0026450Y0078761D01*
X0026389Y0078716D01*
X0026330Y0078669D01*
X0026274Y0078618D01*
X0026220Y0078564D01*
X0026169Y0078508D01*
X0026122Y0078449D01*
X0026077Y0078388D01*
X0026035Y0078325D01*
X0025997Y0078260D01*
X0025962Y0078193D01*
X0025930Y0078124D01*
X0025902Y0078054D01*
X0025878Y0077982D01*
X0025857Y0077909D01*
X0025840Y0077836D01*
X0025826Y0077761D01*
X0025817Y0077686D01*
X0025811Y0077611D01*
X0025809Y0077535D01*
X0025809Y0074548D01*
X0025811Y0074472D01*
X0025817Y0074397D01*
X0025826Y0074322D01*
X0025840Y0074247D01*
X0025857Y0074174D01*
X0025878Y0074101D01*
X0025902Y0074029D01*
X0025930Y0073959D01*
X0025962Y0073890D01*
X0025997Y0073823D01*
X0026035Y0073758D01*
X0026077Y0073695D01*
X0026122Y0073634D01*
X0026169Y0073575D01*
X0026220Y0073519D01*
X0026274Y0073465D01*
X0026330Y0073414D01*
X0026389Y0073367D01*
X0026450Y0073322D01*
X0026513Y0073280D01*
X0026578Y0073242D01*
X0026645Y0073207D01*
X0026714Y0073175D01*
X0026784Y0073147D01*
X0026856Y0073123D01*
X0026929Y0073102D01*
X0027002Y0073085D01*
X0027077Y0073071D01*
X0027152Y0073062D01*
X0027227Y0073056D01*
X0027303Y0073054D01*
X0029793Y0073054D01*
X0029793Y0082017D01*
D13*
X0034845Y0096726D02*
X0038298Y0096726D01*
X0038393Y0096728D01*
X0038488Y0096734D01*
X0038583Y0096744D01*
X0038677Y0096757D01*
X0038770Y0096775D01*
X0038863Y0096796D01*
X0038955Y0096822D01*
X0039045Y0096851D01*
X0039135Y0096883D01*
X0039223Y0096920D01*
X0039309Y0096960D01*
X0039394Y0097003D01*
X0039476Y0097050D01*
X0039557Y0097101D01*
X0039636Y0097155D01*
X0039712Y0097211D01*
X0039786Y0097271D01*
X0039857Y0097334D01*
X0039926Y0097400D01*
X0039992Y0097469D01*
X0040055Y0097540D01*
X0040115Y0097614D01*
X0040171Y0097690D01*
X0040225Y0097769D01*
X0040276Y0097850D01*
X0040323Y0097932D01*
X0040366Y0098017D01*
X0040406Y0098103D01*
X0040443Y0098191D01*
X0040475Y0098281D01*
X0040504Y0098371D01*
X0040530Y0098463D01*
X0040551Y0098556D01*
X0040569Y0098649D01*
X0040582Y0098743D01*
X0040592Y0098838D01*
X0040598Y0098933D01*
X0040600Y0099028D01*
X0040600Y0100179D01*
X0048722Y0098165D02*
X0048809Y0098349D01*
X0048892Y0098536D01*
X0048970Y0098724D01*
X0049043Y0098914D01*
X0049113Y0099106D01*
X0049177Y0099299D01*
X0049237Y0099494D01*
X0049292Y0099690D01*
X0049343Y0099887D01*
X0049389Y0100086D01*
X0049430Y0100285D01*
X0049466Y0100486D01*
X0049498Y0100687D01*
X0049524Y0100889D01*
X0049546Y0101092D01*
X0049563Y0101295D01*
X0049575Y0101499D01*
X0049583Y0101702D01*
X0049585Y0101906D01*
X0043830Y0101906D02*
X0043832Y0102110D01*
X0043840Y0102313D01*
X0043852Y0102517D01*
X0043869Y0102720D01*
X0043891Y0102923D01*
X0043917Y0103125D01*
X0043949Y0103326D01*
X0043985Y0103527D01*
X0044026Y0103726D01*
X0044072Y0103925D01*
X0044123Y0104122D01*
X0044178Y0104318D01*
X0044238Y0104513D01*
X0044302Y0104706D01*
X0044372Y0104898D01*
X0044445Y0105088D01*
X0044523Y0105276D01*
X0044606Y0105463D01*
X0044693Y0105647D01*
X0046708Y0107086D02*
X0046799Y0107084D01*
X0046890Y0107078D01*
X0046981Y0107068D01*
X0047071Y0107055D01*
X0047160Y0107037D01*
X0047249Y0107016D01*
X0047336Y0106991D01*
X0047423Y0106962D01*
X0047508Y0106930D01*
X0047592Y0106894D01*
X0047674Y0106855D01*
X0047754Y0106811D01*
X0047832Y0106765D01*
X0047909Y0106715D01*
X0047983Y0106662D01*
X0048055Y0106606D01*
X0048124Y0106547D01*
X0048191Y0106485D01*
X0048255Y0106420D01*
X0048316Y0106353D01*
X0048374Y0106283D01*
X0048429Y0106210D01*
X0048482Y0106136D01*
X0048530Y0106059D01*
X0048576Y0105980D01*
X0048618Y0105899D01*
X0048656Y0105816D01*
X0048691Y0105732D01*
X0048723Y0105647D01*
X0049010Y0104783D02*
X0044406Y0099028D01*
X0044693Y0098164D02*
X0044725Y0098079D01*
X0044760Y0097995D01*
X0044798Y0097912D01*
X0044840Y0097831D01*
X0044886Y0097752D01*
X0044934Y0097675D01*
X0044987Y0097601D01*
X0045042Y0097528D01*
X0045100Y0097458D01*
X0045161Y0097391D01*
X0045225Y0097326D01*
X0045292Y0097264D01*
X0045361Y0097205D01*
X0045433Y0097149D01*
X0045507Y0097096D01*
X0045584Y0097046D01*
X0045662Y0097000D01*
X0045742Y0096956D01*
X0045824Y0096917D01*
X0045908Y0096881D01*
X0045993Y0096849D01*
X0046080Y0096820D01*
X0046167Y0096795D01*
X0046256Y0096774D01*
X0046345Y0096756D01*
X0046435Y0096743D01*
X0046526Y0096733D01*
X0046617Y0096727D01*
X0046708Y0096725D01*
X0046799Y0096727D01*
X0046890Y0096733D01*
X0046981Y0096743D01*
X0047071Y0096756D01*
X0047160Y0096774D01*
X0047249Y0096795D01*
X0047336Y0096820D01*
X0047423Y0096849D01*
X0047508Y0096881D01*
X0047592Y0096917D01*
X0047674Y0096956D01*
X0047754Y0097000D01*
X0047832Y0097046D01*
X0047909Y0097096D01*
X0047983Y0097149D01*
X0048055Y0097205D01*
X0048124Y0097264D01*
X0048191Y0097326D01*
X0048255Y0097391D01*
X0048316Y0097458D01*
X0048374Y0097528D01*
X0048429Y0097601D01*
X0048482Y0097675D01*
X0048530Y0097752D01*
X0048576Y0097831D01*
X0048618Y0097912D01*
X0048656Y0097995D01*
X0048691Y0098079D01*
X0048723Y0098164D01*
X0052839Y0100754D02*
X0059745Y0100754D01*
X0062999Y0105934D02*
X0062999Y0107085D01*
X0068754Y0107085D01*
X0065877Y0096726D01*
X0072560Y0099028D02*
X0077164Y0104783D01*
X0076877Y0105647D02*
X0076845Y0105732D01*
X0076810Y0105816D01*
X0076772Y0105899D01*
X0076730Y0105980D01*
X0076684Y0106059D01*
X0076636Y0106136D01*
X0076583Y0106210D01*
X0076528Y0106283D01*
X0076470Y0106353D01*
X0076409Y0106420D01*
X0076345Y0106485D01*
X0076278Y0106547D01*
X0076209Y0106606D01*
X0076137Y0106662D01*
X0076063Y0106715D01*
X0075986Y0106765D01*
X0075908Y0106811D01*
X0075828Y0106855D01*
X0075746Y0106894D01*
X0075662Y0106930D01*
X0075577Y0106962D01*
X0075490Y0106991D01*
X0075403Y0107016D01*
X0075314Y0107037D01*
X0075225Y0107055D01*
X0075135Y0107068D01*
X0075044Y0107078D01*
X0074953Y0107084D01*
X0074862Y0107086D01*
X0074771Y0107084D01*
X0074680Y0107078D01*
X0074589Y0107068D01*
X0074499Y0107055D01*
X0074410Y0107037D01*
X0074321Y0107016D01*
X0074234Y0106991D01*
X0074147Y0106962D01*
X0074062Y0106930D01*
X0073978Y0106894D01*
X0073896Y0106855D01*
X0073816Y0106811D01*
X0073738Y0106765D01*
X0073661Y0106715D01*
X0073587Y0106662D01*
X0073515Y0106606D01*
X0073446Y0106547D01*
X0073379Y0106485D01*
X0073315Y0106420D01*
X0073254Y0106353D01*
X0073196Y0106283D01*
X0073141Y0106210D01*
X0073088Y0106136D01*
X0073040Y0106059D01*
X0072994Y0105980D01*
X0072952Y0105899D01*
X0072914Y0105816D01*
X0072879Y0105732D01*
X0072847Y0105647D01*
X0076876Y0105647D02*
X0076963Y0105463D01*
X0077046Y0105276D01*
X0077124Y0105088D01*
X0077197Y0104898D01*
X0077267Y0104707D01*
X0077331Y0104513D01*
X0077391Y0104318D01*
X0077446Y0104122D01*
X0077497Y0103925D01*
X0077543Y0103726D01*
X0077584Y0103527D01*
X0077620Y0103326D01*
X0077652Y0103125D01*
X0077678Y0102923D01*
X0077700Y0102720D01*
X0077717Y0102517D01*
X0077729Y0102313D01*
X0077737Y0102110D01*
X0077739Y0101906D01*
X0071984Y0101906D02*
X0071986Y0102110D01*
X0071994Y0102313D01*
X0072006Y0102517D01*
X0072023Y0102720D01*
X0072045Y0102923D01*
X0072071Y0103125D01*
X0072103Y0103326D01*
X0072139Y0103527D01*
X0072180Y0103726D01*
X0072226Y0103925D01*
X0072277Y0104122D01*
X0072332Y0104318D01*
X0072392Y0104513D01*
X0072456Y0104706D01*
X0072526Y0104898D01*
X0072599Y0105088D01*
X0072677Y0105276D01*
X0072760Y0105463D01*
X0072847Y0105647D01*
X0077739Y0101906D02*
X0077737Y0101702D01*
X0077729Y0101499D01*
X0077717Y0101295D01*
X0077700Y0101092D01*
X0077678Y0100889D01*
X0077652Y0100687D01*
X0077620Y0100486D01*
X0077584Y0100285D01*
X0077543Y0100086D01*
X0077497Y0099887D01*
X0077446Y0099690D01*
X0077391Y0099494D01*
X0077331Y0099299D01*
X0077267Y0099106D01*
X0077197Y0098914D01*
X0077124Y0098724D01*
X0077046Y0098536D01*
X0076963Y0098349D01*
X0076876Y0098165D01*
X0076877Y0098164D02*
X0076845Y0098079D01*
X0076810Y0097995D01*
X0076772Y0097912D01*
X0076730Y0097831D01*
X0076684Y0097752D01*
X0076636Y0097675D01*
X0076583Y0097601D01*
X0076528Y0097528D01*
X0076470Y0097458D01*
X0076409Y0097391D01*
X0076345Y0097326D01*
X0076278Y0097264D01*
X0076209Y0097205D01*
X0076137Y0097149D01*
X0076063Y0097096D01*
X0075986Y0097046D01*
X0075908Y0097000D01*
X0075828Y0096956D01*
X0075746Y0096917D01*
X0075662Y0096881D01*
X0075577Y0096849D01*
X0075490Y0096820D01*
X0075403Y0096795D01*
X0075314Y0096774D01*
X0075225Y0096756D01*
X0075135Y0096743D01*
X0075044Y0096733D01*
X0074953Y0096727D01*
X0074862Y0096725D01*
X0074771Y0096727D01*
X0074680Y0096733D01*
X0074589Y0096743D01*
X0074499Y0096756D01*
X0074410Y0096774D01*
X0074321Y0096795D01*
X0074234Y0096820D01*
X0074147Y0096849D01*
X0074062Y0096881D01*
X0073978Y0096917D01*
X0073896Y0096956D01*
X0073816Y0097000D01*
X0073738Y0097046D01*
X0073661Y0097096D01*
X0073587Y0097149D01*
X0073515Y0097205D01*
X0073446Y0097264D01*
X0073379Y0097326D01*
X0073315Y0097391D01*
X0073254Y0097458D01*
X0073196Y0097528D01*
X0073141Y0097601D01*
X0073088Y0097675D01*
X0073040Y0097752D01*
X0072994Y0097831D01*
X0072952Y0097912D01*
X0072914Y0097995D01*
X0072879Y0098079D01*
X0072847Y0098164D01*
X0080970Y0099028D02*
X0086725Y0099028D01*
X0084998Y0101330D02*
X0084998Y0096726D01*
X0080970Y0099028D02*
X0083272Y0107085D01*
X0084793Y0112474D02*
X0087670Y0112474D01*
X0087670Y0122833D01*
X0087670Y0119380D02*
X0084793Y0119380D01*
X0084793Y0119381D02*
X0084711Y0119379D01*
X0084629Y0119373D01*
X0084547Y0119363D01*
X0084466Y0119350D01*
X0084386Y0119332D01*
X0084306Y0119311D01*
X0084228Y0119286D01*
X0084151Y0119257D01*
X0084076Y0119225D01*
X0084002Y0119189D01*
X0083930Y0119150D01*
X0083859Y0119107D01*
X0083791Y0119061D01*
X0083725Y0119012D01*
X0083662Y0118959D01*
X0083601Y0118904D01*
X0083543Y0118846D01*
X0083488Y0118785D01*
X0083435Y0118722D01*
X0083386Y0118656D01*
X0083340Y0118588D01*
X0083297Y0118518D01*
X0083258Y0118445D01*
X0083222Y0118371D01*
X0083190Y0118296D01*
X0083161Y0118219D01*
X0083136Y0118141D01*
X0083115Y0118061D01*
X0083097Y0117981D01*
X0083084Y0117900D01*
X0083074Y0117818D01*
X0083068Y0117736D01*
X0083066Y0117654D01*
X0083066Y0114200D01*
X0083068Y0114118D01*
X0083074Y0114036D01*
X0083084Y0113954D01*
X0083097Y0113873D01*
X0083115Y0113793D01*
X0083136Y0113713D01*
X0083161Y0113635D01*
X0083190Y0113558D01*
X0083222Y0113483D01*
X0083258Y0113409D01*
X0083297Y0113337D01*
X0083340Y0113266D01*
X0083386Y0113198D01*
X0083435Y0113132D01*
X0083488Y0113069D01*
X0083543Y0113008D01*
X0083601Y0112950D01*
X0083662Y0112895D01*
X0083725Y0112842D01*
X0083791Y0112793D01*
X0083859Y0112747D01*
X0083930Y0112704D01*
X0084002Y0112665D01*
X0084076Y0112629D01*
X0084151Y0112597D01*
X0084228Y0112568D01*
X0084306Y0112543D01*
X0084386Y0112522D01*
X0084466Y0112504D01*
X0084547Y0112491D01*
X0084629Y0112481D01*
X0084711Y0112475D01*
X0084793Y0112473D01*
X0079978Y0112474D02*
X0079978Y0113049D01*
X0079403Y0113049D01*
X0079403Y0112474D01*
X0079978Y0112474D01*
X0074299Y0112474D02*
X0076602Y0119380D01*
X0071997Y0119380D02*
X0074299Y0112474D01*
X0069114Y0112474D02*
X0066236Y0112474D01*
X0066236Y0112473D02*
X0066154Y0112475D01*
X0066072Y0112481D01*
X0065990Y0112491D01*
X0065909Y0112504D01*
X0065829Y0112522D01*
X0065749Y0112543D01*
X0065671Y0112568D01*
X0065594Y0112597D01*
X0065519Y0112629D01*
X0065445Y0112665D01*
X0065373Y0112704D01*
X0065302Y0112747D01*
X0065234Y0112793D01*
X0065168Y0112842D01*
X0065105Y0112895D01*
X0065044Y0112950D01*
X0064986Y0113008D01*
X0064931Y0113069D01*
X0064878Y0113132D01*
X0064829Y0113198D01*
X0064783Y0113266D01*
X0064740Y0113337D01*
X0064701Y0113409D01*
X0064665Y0113483D01*
X0064633Y0113558D01*
X0064604Y0113635D01*
X0064579Y0113713D01*
X0064558Y0113793D01*
X0064540Y0113873D01*
X0064527Y0113954D01*
X0064517Y0114036D01*
X0064511Y0114118D01*
X0064509Y0114200D01*
X0064509Y0117078D01*
X0064509Y0115927D02*
X0069114Y0115927D01*
X0069114Y0117078D01*
X0069112Y0117173D01*
X0069106Y0117268D01*
X0069096Y0117363D01*
X0069083Y0117457D01*
X0069065Y0117550D01*
X0069044Y0117643D01*
X0069018Y0117735D01*
X0068989Y0117825D01*
X0068957Y0117915D01*
X0068920Y0118003D01*
X0068880Y0118089D01*
X0068837Y0118174D01*
X0068790Y0118256D01*
X0068739Y0118337D01*
X0068685Y0118416D01*
X0068629Y0118492D01*
X0068569Y0118566D01*
X0068506Y0118637D01*
X0068440Y0118706D01*
X0068371Y0118772D01*
X0068300Y0118835D01*
X0068226Y0118895D01*
X0068150Y0118951D01*
X0068071Y0119005D01*
X0067990Y0119056D01*
X0067908Y0119103D01*
X0067823Y0119146D01*
X0067737Y0119186D01*
X0067649Y0119223D01*
X0067559Y0119255D01*
X0067469Y0119284D01*
X0067377Y0119310D01*
X0067284Y0119331D01*
X0067191Y0119349D01*
X0067097Y0119362D01*
X0067002Y0119372D01*
X0066907Y0119378D01*
X0066812Y0119380D01*
X0066717Y0119378D01*
X0066622Y0119372D01*
X0066527Y0119362D01*
X0066433Y0119349D01*
X0066340Y0119331D01*
X0066247Y0119310D01*
X0066155Y0119284D01*
X0066065Y0119255D01*
X0065975Y0119223D01*
X0065887Y0119186D01*
X0065801Y0119146D01*
X0065716Y0119103D01*
X0065634Y0119056D01*
X0065553Y0119005D01*
X0065474Y0118951D01*
X0065398Y0118895D01*
X0065324Y0118835D01*
X0065253Y0118772D01*
X0065184Y0118706D01*
X0065118Y0118637D01*
X0065055Y0118566D01*
X0064995Y0118492D01*
X0064939Y0118416D01*
X0064885Y0118337D01*
X0064834Y0118256D01*
X0064787Y0118174D01*
X0064744Y0118089D01*
X0064704Y0118003D01*
X0064667Y0117915D01*
X0064635Y0117825D01*
X0064606Y0117735D01*
X0064580Y0117643D01*
X0064559Y0117550D01*
X0064541Y0117457D01*
X0064528Y0117363D01*
X0064518Y0117268D01*
X0064512Y0117173D01*
X0064510Y0117078D01*
X0061326Y0117078D02*
X0061326Y0115927D01*
X0056722Y0115927D01*
X0056722Y0117078D02*
X0056722Y0114200D01*
X0056724Y0114118D01*
X0056730Y0114036D01*
X0056740Y0113954D01*
X0056753Y0113873D01*
X0056771Y0113793D01*
X0056792Y0113713D01*
X0056817Y0113635D01*
X0056846Y0113558D01*
X0056878Y0113483D01*
X0056914Y0113409D01*
X0056953Y0113337D01*
X0056996Y0113266D01*
X0057042Y0113198D01*
X0057091Y0113132D01*
X0057144Y0113069D01*
X0057199Y0113008D01*
X0057257Y0112950D01*
X0057318Y0112895D01*
X0057381Y0112842D01*
X0057447Y0112793D01*
X0057515Y0112747D01*
X0057586Y0112704D01*
X0057658Y0112665D01*
X0057732Y0112629D01*
X0057807Y0112597D01*
X0057884Y0112568D01*
X0057962Y0112543D01*
X0058042Y0112522D01*
X0058122Y0112504D01*
X0058203Y0112491D01*
X0058285Y0112481D01*
X0058367Y0112475D01*
X0058449Y0112473D01*
X0058449Y0112474D02*
X0061326Y0112474D01*
X0061326Y0117078D02*
X0061324Y0117173D01*
X0061318Y0117268D01*
X0061308Y0117363D01*
X0061295Y0117457D01*
X0061277Y0117550D01*
X0061256Y0117643D01*
X0061230Y0117735D01*
X0061201Y0117825D01*
X0061169Y0117915D01*
X0061132Y0118003D01*
X0061092Y0118089D01*
X0061049Y0118174D01*
X0061002Y0118256D01*
X0060951Y0118337D01*
X0060897Y0118416D01*
X0060841Y0118492D01*
X0060781Y0118566D01*
X0060718Y0118637D01*
X0060652Y0118706D01*
X0060583Y0118772D01*
X0060512Y0118835D01*
X0060438Y0118895D01*
X0060362Y0118951D01*
X0060283Y0119005D01*
X0060202Y0119056D01*
X0060120Y0119103D01*
X0060035Y0119146D01*
X0059949Y0119186D01*
X0059861Y0119223D01*
X0059771Y0119255D01*
X0059681Y0119284D01*
X0059589Y0119310D01*
X0059496Y0119331D01*
X0059403Y0119349D01*
X0059309Y0119362D01*
X0059214Y0119372D01*
X0059119Y0119378D01*
X0059024Y0119380D01*
X0058929Y0119378D01*
X0058834Y0119372D01*
X0058739Y0119362D01*
X0058645Y0119349D01*
X0058552Y0119331D01*
X0058459Y0119310D01*
X0058367Y0119284D01*
X0058277Y0119255D01*
X0058187Y0119223D01*
X0058099Y0119186D01*
X0058013Y0119146D01*
X0057928Y0119103D01*
X0057846Y0119056D01*
X0057765Y0119005D01*
X0057686Y0118951D01*
X0057610Y0118895D01*
X0057536Y0118835D01*
X0057465Y0118772D01*
X0057396Y0118706D01*
X0057330Y0118637D01*
X0057267Y0118566D01*
X0057207Y0118492D01*
X0057151Y0118416D01*
X0057097Y0118337D01*
X0057046Y0118256D01*
X0056999Y0118174D01*
X0056956Y0118089D01*
X0056916Y0118003D01*
X0056879Y0117915D01*
X0056847Y0117825D01*
X0056818Y0117735D01*
X0056792Y0117643D01*
X0056771Y0117550D01*
X0056753Y0117457D01*
X0056740Y0117363D01*
X0056730Y0117268D01*
X0056724Y0117173D01*
X0056722Y0117078D01*
X0054202Y0118229D02*
X0054202Y0119380D01*
X0050749Y0119380D01*
X0050749Y0112474D01*
X0046937Y0112474D02*
X0044059Y0112474D01*
X0044059Y0112473D02*
X0043977Y0112475D01*
X0043895Y0112481D01*
X0043813Y0112491D01*
X0043732Y0112504D01*
X0043652Y0112522D01*
X0043572Y0112543D01*
X0043494Y0112568D01*
X0043417Y0112597D01*
X0043342Y0112629D01*
X0043268Y0112665D01*
X0043196Y0112704D01*
X0043125Y0112747D01*
X0043057Y0112793D01*
X0042991Y0112842D01*
X0042928Y0112895D01*
X0042867Y0112950D01*
X0042809Y0113008D01*
X0042754Y0113069D01*
X0042701Y0113132D01*
X0042652Y0113198D01*
X0042606Y0113266D01*
X0042563Y0113337D01*
X0042524Y0113409D01*
X0042488Y0113483D01*
X0042456Y0113558D01*
X0042427Y0113635D01*
X0042402Y0113713D01*
X0042381Y0113793D01*
X0042363Y0113873D01*
X0042350Y0113954D01*
X0042340Y0114036D01*
X0042334Y0114118D01*
X0042332Y0114200D01*
X0042333Y0114200D02*
X0042333Y0117654D01*
X0042332Y0117654D02*
X0042334Y0117736D01*
X0042340Y0117818D01*
X0042350Y0117900D01*
X0042363Y0117981D01*
X0042381Y0118061D01*
X0042402Y0118141D01*
X0042427Y0118219D01*
X0042456Y0118296D01*
X0042488Y0118371D01*
X0042524Y0118445D01*
X0042563Y0118518D01*
X0042606Y0118588D01*
X0042652Y0118656D01*
X0042701Y0118722D01*
X0042754Y0118785D01*
X0042809Y0118846D01*
X0042867Y0118904D01*
X0042928Y0118959D01*
X0042991Y0119012D01*
X0043057Y0119061D01*
X0043125Y0119107D01*
X0043196Y0119150D01*
X0043268Y0119189D01*
X0043342Y0119225D01*
X0043417Y0119257D01*
X0043494Y0119286D01*
X0043572Y0119311D01*
X0043652Y0119332D01*
X0043732Y0119350D01*
X0043813Y0119363D01*
X0043895Y0119373D01*
X0043977Y0119379D01*
X0044059Y0119381D01*
X0044059Y0119380D02*
X0046937Y0119380D01*
X0046937Y0122833D02*
X0046937Y0112474D01*
X0038863Y0112474D02*
X0038863Y0117654D01*
X0038861Y0117736D01*
X0038855Y0117818D01*
X0038845Y0117900D01*
X0038832Y0117981D01*
X0038814Y0118061D01*
X0038793Y0118141D01*
X0038768Y0118219D01*
X0038739Y0118296D01*
X0038707Y0118371D01*
X0038671Y0118445D01*
X0038632Y0118518D01*
X0038589Y0118588D01*
X0038543Y0118656D01*
X0038494Y0118722D01*
X0038441Y0118785D01*
X0038386Y0118846D01*
X0038328Y0118904D01*
X0038267Y0118959D01*
X0038204Y0119012D01*
X0038138Y0119061D01*
X0038070Y0119107D01*
X0038000Y0119150D01*
X0037927Y0119189D01*
X0037853Y0119225D01*
X0037778Y0119257D01*
X0037701Y0119286D01*
X0037623Y0119311D01*
X0037543Y0119332D01*
X0037463Y0119350D01*
X0037382Y0119363D01*
X0037300Y0119373D01*
X0037218Y0119379D01*
X0037136Y0119381D01*
X0037136Y0119380D02*
X0034259Y0119380D01*
X0034259Y0112474D01*
X0030464Y0112474D02*
X0030464Y0117654D01*
X0030464Y0116502D02*
X0027874Y0116502D01*
X0030464Y0117654D02*
X0030462Y0117736D01*
X0030456Y0117818D01*
X0030446Y0117900D01*
X0030433Y0117981D01*
X0030415Y0118061D01*
X0030394Y0118141D01*
X0030369Y0118219D01*
X0030340Y0118296D01*
X0030308Y0118371D01*
X0030272Y0118445D01*
X0030233Y0118518D01*
X0030190Y0118588D01*
X0030144Y0118656D01*
X0030095Y0118722D01*
X0030042Y0118785D01*
X0029987Y0118846D01*
X0029929Y0118904D01*
X0029868Y0118959D01*
X0029805Y0119012D01*
X0029739Y0119061D01*
X0029671Y0119107D01*
X0029601Y0119150D01*
X0029528Y0119189D01*
X0029454Y0119225D01*
X0029379Y0119257D01*
X0029302Y0119286D01*
X0029224Y0119311D01*
X0029144Y0119332D01*
X0029064Y0119350D01*
X0028983Y0119363D01*
X0028901Y0119373D01*
X0028819Y0119379D01*
X0028737Y0119381D01*
X0028737Y0119380D02*
X0026435Y0119380D01*
X0027874Y0116502D02*
X0027786Y0116500D01*
X0027698Y0116494D01*
X0027611Y0116485D01*
X0027524Y0116471D01*
X0027438Y0116454D01*
X0027353Y0116433D01*
X0027268Y0116409D01*
X0027185Y0116381D01*
X0027103Y0116349D01*
X0027023Y0116313D01*
X0026944Y0116274D01*
X0026867Y0116232D01*
X0026792Y0116187D01*
X0026719Y0116138D01*
X0026648Y0116086D01*
X0026579Y0116031D01*
X0026513Y0115973D01*
X0026450Y0115912D01*
X0026389Y0115849D01*
X0026331Y0115783D01*
X0026276Y0115714D01*
X0026224Y0115643D01*
X0026175Y0115570D01*
X0026130Y0115495D01*
X0026088Y0115418D01*
X0026049Y0115339D01*
X0026013Y0115259D01*
X0025981Y0115177D01*
X0025953Y0115094D01*
X0025929Y0115009D01*
X0025908Y0114924D01*
X0025891Y0114838D01*
X0025877Y0114751D01*
X0025868Y0114664D01*
X0025862Y0114576D01*
X0025860Y0114488D01*
X0025862Y0114400D01*
X0025868Y0114312D01*
X0025877Y0114225D01*
X0025891Y0114138D01*
X0025908Y0114052D01*
X0025929Y0113967D01*
X0025953Y0113882D01*
X0025981Y0113799D01*
X0026013Y0113717D01*
X0026049Y0113637D01*
X0026088Y0113558D01*
X0026130Y0113481D01*
X0026175Y0113406D01*
X0026224Y0113333D01*
X0026276Y0113262D01*
X0026331Y0113193D01*
X0026389Y0113127D01*
X0026450Y0113064D01*
X0026513Y0113003D01*
X0026579Y0112945D01*
X0026648Y0112890D01*
X0026719Y0112838D01*
X0026792Y0112789D01*
X0026867Y0112744D01*
X0026944Y0112702D01*
X0027023Y0112663D01*
X0027103Y0112627D01*
X0027185Y0112595D01*
X0027268Y0112567D01*
X0027353Y0112543D01*
X0027438Y0112522D01*
X0027524Y0112505D01*
X0027611Y0112491D01*
X0027698Y0112482D01*
X0027786Y0112476D01*
X0027874Y0112474D01*
X0030464Y0112474D01*
X0034845Y0107085D02*
X0040600Y0107085D01*
X0034845Y0107085D02*
X0034845Y0102481D01*
X0038298Y0102481D01*
X0038393Y0102479D01*
X0038488Y0102473D01*
X0038583Y0102463D01*
X0038677Y0102450D01*
X0038770Y0102432D01*
X0038863Y0102411D01*
X0038955Y0102385D01*
X0039045Y0102356D01*
X0039135Y0102324D01*
X0039223Y0102287D01*
X0039309Y0102247D01*
X0039394Y0102204D01*
X0039476Y0102157D01*
X0039557Y0102106D01*
X0039636Y0102052D01*
X0039712Y0101996D01*
X0039786Y0101936D01*
X0039857Y0101873D01*
X0039926Y0101807D01*
X0039992Y0101738D01*
X0040055Y0101667D01*
X0040115Y0101593D01*
X0040171Y0101517D01*
X0040225Y0101438D01*
X0040276Y0101357D01*
X0040323Y0101275D01*
X0040366Y0101190D01*
X0040406Y0101104D01*
X0040443Y0101016D01*
X0040475Y0100926D01*
X0040504Y0100836D01*
X0040530Y0100744D01*
X0040551Y0100651D01*
X0040569Y0100558D01*
X0040582Y0100464D01*
X0040592Y0100369D01*
X0040598Y0100274D01*
X0040600Y0100179D01*
X0049585Y0101906D02*
X0049583Y0102110D01*
X0049575Y0102313D01*
X0049563Y0102517D01*
X0049546Y0102720D01*
X0049524Y0102923D01*
X0049498Y0103125D01*
X0049466Y0103326D01*
X0049430Y0103527D01*
X0049389Y0103726D01*
X0049343Y0103925D01*
X0049292Y0104122D01*
X0049237Y0104318D01*
X0049177Y0104513D01*
X0049113Y0104707D01*
X0049043Y0104898D01*
X0048970Y0105088D01*
X0048892Y0105276D01*
X0048809Y0105463D01*
X0048722Y0105647D01*
X0046708Y0107086D02*
X0046617Y0107084D01*
X0046526Y0107078D01*
X0046435Y0107068D01*
X0046345Y0107055D01*
X0046256Y0107037D01*
X0046167Y0107016D01*
X0046080Y0106991D01*
X0045993Y0106962D01*
X0045908Y0106930D01*
X0045824Y0106894D01*
X0045742Y0106855D01*
X0045662Y0106811D01*
X0045584Y0106765D01*
X0045507Y0106715D01*
X0045433Y0106662D01*
X0045361Y0106606D01*
X0045292Y0106547D01*
X0045225Y0106485D01*
X0045161Y0106420D01*
X0045100Y0106353D01*
X0045042Y0106283D01*
X0044987Y0106210D01*
X0044934Y0106136D01*
X0044886Y0106059D01*
X0044840Y0105980D01*
X0044798Y0105899D01*
X0044760Y0105816D01*
X0044725Y0105732D01*
X0044693Y0105647D01*
X0043831Y0101906D02*
X0043833Y0101702D01*
X0043841Y0101499D01*
X0043853Y0101295D01*
X0043870Y0101092D01*
X0043892Y0100889D01*
X0043918Y0100687D01*
X0043950Y0100486D01*
X0043986Y0100285D01*
X0044027Y0100086D01*
X0044073Y0099887D01*
X0044124Y0099690D01*
X0044179Y0099494D01*
X0044239Y0099299D01*
X0044303Y0099106D01*
X0044373Y0098914D01*
X0044446Y0098724D01*
X0044524Y0098536D01*
X0044607Y0098349D01*
X0044694Y0098165D01*
X0031615Y0099603D02*
X0031615Y0100179D01*
X0031613Y0100274D01*
X0031607Y0100369D01*
X0031597Y0100464D01*
X0031584Y0100558D01*
X0031566Y0100651D01*
X0031545Y0100744D01*
X0031519Y0100836D01*
X0031490Y0100926D01*
X0031458Y0101016D01*
X0031421Y0101104D01*
X0031381Y0101190D01*
X0031338Y0101275D01*
X0031291Y0101357D01*
X0031240Y0101438D01*
X0031186Y0101517D01*
X0031130Y0101593D01*
X0031070Y0101667D01*
X0031007Y0101738D01*
X0030941Y0101807D01*
X0030872Y0101873D01*
X0030801Y0101936D01*
X0030727Y0101996D01*
X0030651Y0102052D01*
X0030572Y0102106D01*
X0030491Y0102157D01*
X0030409Y0102204D01*
X0030324Y0102247D01*
X0030238Y0102287D01*
X0030150Y0102324D01*
X0030060Y0102356D01*
X0029970Y0102385D01*
X0029878Y0102411D01*
X0029785Y0102432D01*
X0029692Y0102450D01*
X0029598Y0102463D01*
X0029503Y0102473D01*
X0029408Y0102479D01*
X0029313Y0102481D01*
X0025859Y0102481D01*
X0025859Y0099603D01*
X0025861Y0099497D01*
X0025867Y0099390D01*
X0025877Y0099285D01*
X0025890Y0099179D01*
X0025908Y0099074D01*
X0025929Y0098970D01*
X0025955Y0098867D01*
X0025984Y0098764D01*
X0026017Y0098663D01*
X0026053Y0098563D01*
X0026094Y0098465D01*
X0026137Y0098368D01*
X0026185Y0098273D01*
X0026236Y0098179D01*
X0026290Y0098088D01*
X0026348Y0097999D01*
X0026409Y0097911D01*
X0026473Y0097826D01*
X0026540Y0097744D01*
X0026610Y0097664D01*
X0026683Y0097587D01*
X0026759Y0097512D01*
X0026838Y0097441D01*
X0026919Y0097372D01*
X0027003Y0097306D01*
X0027089Y0097244D01*
X0027177Y0097184D01*
X0027267Y0097128D01*
X0027360Y0097076D01*
X0027454Y0097027D01*
X0027550Y0096981D01*
X0027648Y0096939D01*
X0027747Y0096901D01*
X0027848Y0096866D01*
X0027949Y0096835D01*
X0028052Y0096808D01*
X0028156Y0096784D01*
X0028261Y0096765D01*
X0028366Y0096749D01*
X0028471Y0096737D01*
X0028578Y0096729D01*
X0028684Y0096725D01*
X0028790Y0096725D01*
X0028896Y0096729D01*
X0029003Y0096737D01*
X0029108Y0096749D01*
X0029213Y0096765D01*
X0029318Y0096784D01*
X0029422Y0096808D01*
X0029525Y0096835D01*
X0029626Y0096866D01*
X0029727Y0096901D01*
X0029826Y0096939D01*
X0029924Y0096981D01*
X0030020Y0097027D01*
X0030114Y0097076D01*
X0030207Y0097128D01*
X0030297Y0097184D01*
X0030385Y0097244D01*
X0030471Y0097306D01*
X0030555Y0097372D01*
X0030636Y0097441D01*
X0030715Y0097512D01*
X0030791Y0097587D01*
X0030864Y0097664D01*
X0030934Y0097744D01*
X0031001Y0097826D01*
X0031065Y0097911D01*
X0031126Y0097999D01*
X0031184Y0098088D01*
X0031238Y0098179D01*
X0031289Y0098273D01*
X0031337Y0098368D01*
X0031380Y0098465D01*
X0031421Y0098563D01*
X0031457Y0098663D01*
X0031490Y0098764D01*
X0031519Y0098867D01*
X0031545Y0098970D01*
X0031566Y0099074D01*
X0031584Y0099179D01*
X0031597Y0099285D01*
X0031607Y0099390D01*
X0031613Y0099497D01*
X0031615Y0099603D01*
X0025860Y0102481D02*
X0025862Y0102615D01*
X0025868Y0102749D01*
X0025878Y0102882D01*
X0025891Y0103015D01*
X0025909Y0103148D01*
X0025930Y0103280D01*
X0025955Y0103412D01*
X0025984Y0103543D01*
X0026017Y0103673D01*
X0026053Y0103801D01*
X0026094Y0103929D01*
X0026138Y0104056D01*
X0026185Y0104181D01*
X0026237Y0104305D01*
X0026291Y0104427D01*
X0026350Y0104547D01*
X0026412Y0104666D01*
X0026477Y0104783D01*
X0026545Y0104898D01*
X0026617Y0105011D01*
X0026693Y0105122D01*
X0026771Y0105230D01*
X0026853Y0105337D01*
X0026937Y0105440D01*
X0027025Y0105542D01*
X0027115Y0105640D01*
X0027208Y0105737D01*
X0027305Y0105830D01*
X0027403Y0105920D01*
X0027505Y0106008D01*
X0027608Y0106092D01*
X0027715Y0106174D01*
X0027823Y0106252D01*
X0027934Y0106328D01*
X0028047Y0106400D01*
X0028162Y0106468D01*
X0028279Y0106533D01*
X0028398Y0106595D01*
X0028518Y0106654D01*
X0028640Y0106708D01*
X0028764Y0106760D01*
X0028889Y0106807D01*
X0029016Y0106851D01*
X0029144Y0106892D01*
X0029272Y0106928D01*
X0029402Y0106961D01*
X0029533Y0106990D01*
X0029665Y0107015D01*
X0029797Y0107036D01*
X0029929Y0107054D01*
X0030063Y0107067D01*
X0030196Y0107077D01*
X0030330Y0107083D01*
X0030464Y0107085D01*
X0071985Y0101906D02*
X0071987Y0101702D01*
X0071995Y0101499D01*
X0072007Y0101295D01*
X0072024Y0101092D01*
X0072046Y0100889D01*
X0072072Y0100687D01*
X0072104Y0100486D01*
X0072140Y0100285D01*
X0072181Y0100086D01*
X0072227Y0099887D01*
X0072278Y0099690D01*
X0072333Y0099494D01*
X0072393Y0099299D01*
X0072457Y0099106D01*
X0072527Y0098914D01*
X0072600Y0098724D01*
X0072678Y0098536D01*
X0072761Y0098349D01*
X0072848Y0098165D01*
X0089978Y0100754D02*
X0096885Y0100754D01*
X0100138Y0103632D02*
X0100138Y0104208D01*
X0100138Y0103632D02*
X0100140Y0103537D01*
X0100146Y0103442D01*
X0100156Y0103347D01*
X0100169Y0103253D01*
X0100187Y0103160D01*
X0100208Y0103067D01*
X0100234Y0102975D01*
X0100263Y0102885D01*
X0100295Y0102795D01*
X0100332Y0102707D01*
X0100372Y0102621D01*
X0100415Y0102536D01*
X0100462Y0102454D01*
X0100513Y0102373D01*
X0100567Y0102294D01*
X0100623Y0102218D01*
X0100683Y0102144D01*
X0100746Y0102073D01*
X0100812Y0102004D01*
X0100881Y0101938D01*
X0100952Y0101875D01*
X0101026Y0101815D01*
X0101102Y0101759D01*
X0101181Y0101705D01*
X0101262Y0101654D01*
X0101344Y0101607D01*
X0101429Y0101564D01*
X0101515Y0101524D01*
X0101603Y0101487D01*
X0101693Y0101455D01*
X0101783Y0101426D01*
X0101875Y0101400D01*
X0101968Y0101379D01*
X0102061Y0101361D01*
X0102155Y0101348D01*
X0102250Y0101338D01*
X0102345Y0101332D01*
X0102440Y0101330D01*
X0105894Y0101330D01*
X0105894Y0104208D01*
X0105892Y0104314D01*
X0105886Y0104421D01*
X0105876Y0104526D01*
X0105863Y0104632D01*
X0105845Y0104737D01*
X0105824Y0104841D01*
X0105798Y0104944D01*
X0105769Y0105047D01*
X0105736Y0105148D01*
X0105700Y0105248D01*
X0105659Y0105346D01*
X0105616Y0105443D01*
X0105568Y0105538D01*
X0105517Y0105632D01*
X0105463Y0105723D01*
X0105405Y0105812D01*
X0105344Y0105900D01*
X0105280Y0105985D01*
X0105213Y0106067D01*
X0105143Y0106147D01*
X0105070Y0106224D01*
X0104994Y0106299D01*
X0104915Y0106370D01*
X0104834Y0106439D01*
X0104750Y0106505D01*
X0104664Y0106567D01*
X0104576Y0106627D01*
X0104486Y0106683D01*
X0104393Y0106735D01*
X0104299Y0106784D01*
X0104203Y0106830D01*
X0104105Y0106872D01*
X0104006Y0106910D01*
X0103905Y0106945D01*
X0103804Y0106976D01*
X0103701Y0107003D01*
X0103597Y0107027D01*
X0103492Y0107046D01*
X0103387Y0107062D01*
X0103282Y0107074D01*
X0103175Y0107082D01*
X0103069Y0107086D01*
X0102963Y0107086D01*
X0102857Y0107082D01*
X0102750Y0107074D01*
X0102645Y0107062D01*
X0102540Y0107046D01*
X0102435Y0107027D01*
X0102331Y0107003D01*
X0102228Y0106976D01*
X0102127Y0106945D01*
X0102026Y0106910D01*
X0101927Y0106872D01*
X0101829Y0106830D01*
X0101733Y0106784D01*
X0101639Y0106735D01*
X0101546Y0106683D01*
X0101456Y0106627D01*
X0101368Y0106567D01*
X0101282Y0106505D01*
X0101198Y0106439D01*
X0101117Y0106370D01*
X0101038Y0106299D01*
X0100962Y0106224D01*
X0100889Y0106147D01*
X0100819Y0106067D01*
X0100752Y0105985D01*
X0100688Y0105900D01*
X0100627Y0105812D01*
X0100569Y0105723D01*
X0100515Y0105632D01*
X0100464Y0105538D01*
X0100416Y0105443D01*
X0100373Y0105346D01*
X0100332Y0105248D01*
X0100296Y0105148D01*
X0100263Y0105047D01*
X0100234Y0104944D01*
X0100208Y0104841D01*
X0100187Y0104737D01*
X0100169Y0104632D01*
X0100156Y0104526D01*
X0100146Y0104421D01*
X0100140Y0104314D01*
X0100138Y0104208D01*
X0105893Y0101330D02*
X0105891Y0101196D01*
X0105885Y0101062D01*
X0105875Y0100929D01*
X0105862Y0100796D01*
X0105844Y0100663D01*
X0105823Y0100531D01*
X0105798Y0100399D01*
X0105769Y0100268D01*
X0105736Y0100138D01*
X0105700Y0100010D01*
X0105659Y0099882D01*
X0105615Y0099755D01*
X0105568Y0099630D01*
X0105516Y0099506D01*
X0105462Y0099384D01*
X0105403Y0099264D01*
X0105341Y0099145D01*
X0105276Y0099028D01*
X0105208Y0098913D01*
X0105136Y0098800D01*
X0105060Y0098689D01*
X0104982Y0098581D01*
X0104900Y0098474D01*
X0104816Y0098371D01*
X0104728Y0098269D01*
X0104638Y0098171D01*
X0104545Y0098074D01*
X0104448Y0097981D01*
X0104350Y0097891D01*
X0104248Y0097803D01*
X0104145Y0097719D01*
X0104038Y0097637D01*
X0103930Y0097559D01*
X0103819Y0097483D01*
X0103706Y0097411D01*
X0103591Y0097343D01*
X0103474Y0097278D01*
X0103355Y0097216D01*
X0103235Y0097157D01*
X0103113Y0097103D01*
X0102989Y0097051D01*
X0102864Y0097004D01*
X0102737Y0096960D01*
X0102609Y0096919D01*
X0102481Y0096883D01*
X0102351Y0096850D01*
X0102220Y0096821D01*
X0102088Y0096796D01*
X0101956Y0096775D01*
X0101823Y0096757D01*
X0101690Y0096744D01*
X0101557Y0096734D01*
X0101423Y0096728D01*
X0101289Y0096726D01*
X0109124Y0099603D02*
X0109124Y0102481D01*
X0112577Y0102481D01*
X0109124Y0102481D02*
X0109126Y0102615D01*
X0109132Y0102749D01*
X0109142Y0102882D01*
X0109155Y0103015D01*
X0109173Y0103148D01*
X0109194Y0103280D01*
X0109219Y0103412D01*
X0109248Y0103543D01*
X0109281Y0103673D01*
X0109317Y0103801D01*
X0109358Y0103929D01*
X0109402Y0104056D01*
X0109449Y0104181D01*
X0109501Y0104305D01*
X0109555Y0104427D01*
X0109614Y0104547D01*
X0109676Y0104666D01*
X0109741Y0104783D01*
X0109809Y0104898D01*
X0109881Y0105011D01*
X0109957Y0105122D01*
X0110035Y0105230D01*
X0110117Y0105337D01*
X0110201Y0105440D01*
X0110289Y0105542D01*
X0110379Y0105640D01*
X0110472Y0105737D01*
X0110569Y0105830D01*
X0110667Y0105920D01*
X0110769Y0106008D01*
X0110872Y0106092D01*
X0110979Y0106174D01*
X0111087Y0106252D01*
X0111198Y0106328D01*
X0111311Y0106400D01*
X0111426Y0106468D01*
X0111543Y0106533D01*
X0111662Y0106595D01*
X0111782Y0106654D01*
X0111904Y0106708D01*
X0112028Y0106760D01*
X0112153Y0106807D01*
X0112280Y0106851D01*
X0112408Y0106892D01*
X0112536Y0106928D01*
X0112666Y0106961D01*
X0112797Y0106990D01*
X0112929Y0107015D01*
X0113061Y0107036D01*
X0113193Y0107054D01*
X0113327Y0107067D01*
X0113460Y0107077D01*
X0113594Y0107083D01*
X0113728Y0107085D01*
X0115726Y0109020D02*
X0116877Y0109020D01*
X0120330Y0119380D01*
X0123607Y0119956D02*
X0123607Y0115064D01*
X0126485Y0115927D02*
X0126485Y0119380D01*
X0126484Y0119380D02*
X0126486Y0119462D01*
X0126492Y0119544D01*
X0126502Y0119626D01*
X0126515Y0119707D01*
X0126533Y0119787D01*
X0126554Y0119867D01*
X0126579Y0119945D01*
X0126608Y0120022D01*
X0126640Y0120097D01*
X0126676Y0120171D01*
X0126715Y0120244D01*
X0126758Y0120314D01*
X0126804Y0120382D01*
X0126853Y0120448D01*
X0126906Y0120511D01*
X0126961Y0120572D01*
X0127019Y0120630D01*
X0127080Y0120685D01*
X0127143Y0120738D01*
X0127209Y0120787D01*
X0127277Y0120833D01*
X0127348Y0120876D01*
X0127420Y0120915D01*
X0127494Y0120951D01*
X0127569Y0120983D01*
X0127646Y0121012D01*
X0127724Y0121037D01*
X0127804Y0121058D01*
X0127884Y0121076D01*
X0127965Y0121089D01*
X0128047Y0121099D01*
X0128129Y0121105D01*
X0128211Y0121107D01*
X0129938Y0121107D01*
X0129938Y0115639D01*
X0129940Y0115564D01*
X0129946Y0115489D01*
X0129956Y0115414D01*
X0129969Y0115340D01*
X0129987Y0115267D01*
X0130008Y0115194D01*
X0130034Y0115123D01*
X0130062Y0115054D01*
X0130095Y0114986D01*
X0130131Y0114920D01*
X0130170Y0114855D01*
X0130213Y0114793D01*
X0130259Y0114733D01*
X0130308Y0114676D01*
X0130359Y0114621D01*
X0130414Y0114570D01*
X0130471Y0114521D01*
X0130531Y0114475D01*
X0130593Y0114432D01*
X0130658Y0114393D01*
X0130724Y0114357D01*
X0130792Y0114324D01*
X0130861Y0114296D01*
X0130932Y0114270D01*
X0131005Y0114249D01*
X0131078Y0114231D01*
X0131152Y0114218D01*
X0131227Y0114208D01*
X0131302Y0114202D01*
X0131377Y0114200D01*
X0131452Y0114202D01*
X0131527Y0114208D01*
X0131602Y0114218D01*
X0131676Y0114231D01*
X0131749Y0114249D01*
X0131822Y0114270D01*
X0131893Y0114296D01*
X0131962Y0114324D01*
X0132030Y0114357D01*
X0132097Y0114393D01*
X0132161Y0114432D01*
X0132223Y0114475D01*
X0132283Y0114521D01*
X0132340Y0114570D01*
X0132395Y0114621D01*
X0132446Y0114676D01*
X0132495Y0114733D01*
X0132541Y0114793D01*
X0132584Y0114855D01*
X0132623Y0114920D01*
X0132659Y0114986D01*
X0132692Y0115054D01*
X0132720Y0115123D01*
X0132746Y0115194D01*
X0132767Y0115267D01*
X0132785Y0115340D01*
X0132798Y0115414D01*
X0132808Y0115489D01*
X0132814Y0115564D01*
X0132816Y0115639D01*
X0132816Y0119956D01*
X0136379Y0117654D02*
X0136379Y0114200D01*
X0136381Y0114118D01*
X0136387Y0114036D01*
X0136397Y0113954D01*
X0136410Y0113873D01*
X0136428Y0113793D01*
X0136449Y0113713D01*
X0136474Y0113635D01*
X0136503Y0113558D01*
X0136535Y0113483D01*
X0136571Y0113409D01*
X0136610Y0113337D01*
X0136653Y0113266D01*
X0136699Y0113198D01*
X0136748Y0113132D01*
X0136801Y0113069D01*
X0136856Y0113008D01*
X0136914Y0112950D01*
X0136975Y0112895D01*
X0137038Y0112842D01*
X0137104Y0112793D01*
X0137172Y0112747D01*
X0137243Y0112704D01*
X0137315Y0112665D01*
X0137389Y0112629D01*
X0137464Y0112597D01*
X0137541Y0112568D01*
X0137619Y0112543D01*
X0137699Y0112522D01*
X0137779Y0112504D01*
X0137860Y0112491D01*
X0137942Y0112481D01*
X0138024Y0112475D01*
X0138106Y0112473D01*
X0138106Y0112474D02*
X0140983Y0112474D01*
X0140983Y0110747D02*
X0140983Y0119380D01*
X0138106Y0119380D01*
X0138106Y0119381D02*
X0138024Y0119379D01*
X0137942Y0119373D01*
X0137860Y0119363D01*
X0137779Y0119350D01*
X0137699Y0119332D01*
X0137619Y0119311D01*
X0137541Y0119286D01*
X0137464Y0119257D01*
X0137389Y0119225D01*
X0137315Y0119189D01*
X0137243Y0119150D01*
X0137172Y0119107D01*
X0137104Y0119061D01*
X0137038Y0119012D01*
X0136975Y0118959D01*
X0136914Y0118904D01*
X0136856Y0118846D01*
X0136801Y0118785D01*
X0136748Y0118722D01*
X0136699Y0118656D01*
X0136653Y0118588D01*
X0136610Y0118518D01*
X0136571Y0118445D01*
X0136535Y0118371D01*
X0136503Y0118296D01*
X0136474Y0118219D01*
X0136449Y0118141D01*
X0136428Y0118061D01*
X0136410Y0117981D01*
X0136397Y0117900D01*
X0136387Y0117818D01*
X0136381Y0117736D01*
X0136379Y0117654D01*
X0129938Y0115927D02*
X0129936Y0115845D01*
X0129930Y0115763D01*
X0129920Y0115681D01*
X0129907Y0115600D01*
X0129889Y0115520D01*
X0129868Y0115440D01*
X0129843Y0115362D01*
X0129814Y0115285D01*
X0129782Y0115210D01*
X0129746Y0115136D01*
X0129707Y0115064D01*
X0129664Y0114993D01*
X0129618Y0114925D01*
X0129569Y0114859D01*
X0129516Y0114796D01*
X0129461Y0114735D01*
X0129403Y0114677D01*
X0129342Y0114622D01*
X0129279Y0114569D01*
X0129213Y0114520D01*
X0129145Y0114474D01*
X0129075Y0114431D01*
X0129002Y0114392D01*
X0128928Y0114356D01*
X0128853Y0114324D01*
X0128776Y0114295D01*
X0128698Y0114270D01*
X0128618Y0114249D01*
X0128538Y0114231D01*
X0128457Y0114218D01*
X0128375Y0114208D01*
X0128293Y0114202D01*
X0128211Y0114200D01*
X0128129Y0114202D01*
X0128047Y0114208D01*
X0127965Y0114218D01*
X0127884Y0114231D01*
X0127804Y0114249D01*
X0127724Y0114270D01*
X0127646Y0114295D01*
X0127569Y0114324D01*
X0127494Y0114356D01*
X0127420Y0114392D01*
X0127348Y0114431D01*
X0127277Y0114474D01*
X0127209Y0114520D01*
X0127143Y0114569D01*
X0127080Y0114622D01*
X0127019Y0114677D01*
X0126961Y0114735D01*
X0126906Y0114796D01*
X0126853Y0114859D01*
X0126804Y0114925D01*
X0126758Y0114993D01*
X0126715Y0115064D01*
X0126676Y0115136D01*
X0126640Y0115210D01*
X0126608Y0115285D01*
X0126579Y0115362D01*
X0126554Y0115440D01*
X0126533Y0115520D01*
X0126515Y0115600D01*
X0126502Y0115681D01*
X0126492Y0115763D01*
X0126486Y0115845D01*
X0126484Y0115927D01*
X0123607Y0115064D02*
X0123609Y0114934D01*
X0123615Y0114804D01*
X0123625Y0114675D01*
X0123638Y0114545D01*
X0123656Y0114417D01*
X0123677Y0114288D01*
X0123702Y0114161D01*
X0123731Y0114034D01*
X0123764Y0113908D01*
X0123801Y0113784D01*
X0123841Y0113660D01*
X0123885Y0113538D01*
X0123933Y0113417D01*
X0123984Y0113298D01*
X0124039Y0113180D01*
X0124097Y0113064D01*
X0124159Y0112949D01*
X0124224Y0112837D01*
X0124293Y0112726D01*
X0124365Y0112618D01*
X0124440Y0112512D01*
X0124518Y0112408D01*
X0124599Y0112307D01*
X0124683Y0112208D01*
X0124771Y0112112D01*
X0124861Y0112018D01*
X0124954Y0111927D01*
X0125049Y0111839D01*
X0125147Y0111754D01*
X0125248Y0111672D01*
X0125351Y0111592D01*
X0125457Y0111516D01*
X0125564Y0111444D01*
X0125674Y0111374D01*
X0125786Y0111308D01*
X0125900Y0111245D01*
X0126015Y0111186D01*
X0126133Y0111130D01*
X0126252Y0111077D01*
X0126372Y0111029D01*
X0126494Y0110984D01*
X0126617Y0110942D01*
X0126742Y0110905D01*
X0126867Y0110871D01*
X0126993Y0110840D01*
X0127121Y0110814D01*
X0127249Y0110792D01*
X0127377Y0110773D01*
X0127506Y0110758D01*
X0127636Y0110747D01*
X0127094Y0107085D02*
X0132850Y0107085D01*
X0129972Y0096726D01*
X0120987Y0096726D02*
X0123864Y0107085D01*
X0118109Y0107085D01*
X0118109Y0105934D01*
X0114879Y0100179D02*
X0114879Y0099603D01*
X0114879Y0100179D02*
X0114877Y0100274D01*
X0114871Y0100369D01*
X0114861Y0100464D01*
X0114848Y0100558D01*
X0114830Y0100651D01*
X0114809Y0100744D01*
X0114783Y0100836D01*
X0114754Y0100926D01*
X0114722Y0101016D01*
X0114685Y0101104D01*
X0114645Y0101190D01*
X0114602Y0101275D01*
X0114555Y0101357D01*
X0114504Y0101438D01*
X0114450Y0101517D01*
X0114394Y0101593D01*
X0114334Y0101667D01*
X0114271Y0101738D01*
X0114205Y0101807D01*
X0114136Y0101873D01*
X0114065Y0101936D01*
X0113991Y0101996D01*
X0113915Y0102052D01*
X0113836Y0102106D01*
X0113755Y0102157D01*
X0113673Y0102204D01*
X0113588Y0102247D01*
X0113502Y0102287D01*
X0113414Y0102324D01*
X0113324Y0102356D01*
X0113234Y0102385D01*
X0113142Y0102411D01*
X0113049Y0102432D01*
X0112956Y0102450D01*
X0112862Y0102463D01*
X0112767Y0102473D01*
X0112672Y0102479D01*
X0112577Y0102481D01*
X0114879Y0099603D02*
X0114877Y0099497D01*
X0114871Y0099390D01*
X0114861Y0099285D01*
X0114848Y0099179D01*
X0114830Y0099074D01*
X0114809Y0098970D01*
X0114783Y0098867D01*
X0114754Y0098764D01*
X0114721Y0098663D01*
X0114685Y0098563D01*
X0114644Y0098465D01*
X0114601Y0098368D01*
X0114553Y0098273D01*
X0114502Y0098179D01*
X0114448Y0098088D01*
X0114390Y0097999D01*
X0114329Y0097911D01*
X0114265Y0097826D01*
X0114198Y0097744D01*
X0114128Y0097664D01*
X0114055Y0097587D01*
X0113979Y0097512D01*
X0113900Y0097441D01*
X0113819Y0097372D01*
X0113735Y0097306D01*
X0113649Y0097244D01*
X0113561Y0097184D01*
X0113471Y0097128D01*
X0113378Y0097076D01*
X0113284Y0097027D01*
X0113188Y0096981D01*
X0113090Y0096939D01*
X0112991Y0096901D01*
X0112890Y0096866D01*
X0112789Y0096835D01*
X0112686Y0096808D01*
X0112582Y0096784D01*
X0112477Y0096765D01*
X0112372Y0096749D01*
X0112267Y0096737D01*
X0112160Y0096729D01*
X0112054Y0096725D01*
X0111948Y0096725D01*
X0111842Y0096729D01*
X0111735Y0096737D01*
X0111630Y0096749D01*
X0111525Y0096765D01*
X0111420Y0096784D01*
X0111316Y0096808D01*
X0111213Y0096835D01*
X0111112Y0096866D01*
X0111011Y0096901D01*
X0110912Y0096939D01*
X0110814Y0096981D01*
X0110718Y0097027D01*
X0110624Y0097076D01*
X0110531Y0097128D01*
X0110441Y0097184D01*
X0110353Y0097244D01*
X0110267Y0097306D01*
X0110183Y0097372D01*
X0110102Y0097441D01*
X0110023Y0097512D01*
X0109947Y0097587D01*
X0109874Y0097664D01*
X0109804Y0097744D01*
X0109737Y0097826D01*
X0109673Y0097911D01*
X0109612Y0097999D01*
X0109554Y0098088D01*
X0109500Y0098179D01*
X0109449Y0098273D01*
X0109401Y0098368D01*
X0109358Y0098465D01*
X0109317Y0098563D01*
X0109281Y0098663D01*
X0109248Y0098764D01*
X0109219Y0098867D01*
X0109193Y0098970D01*
X0109172Y0099074D01*
X0109154Y0099179D01*
X0109141Y0099285D01*
X0109131Y0099390D01*
X0109125Y0099497D01*
X0109123Y0099603D01*
X0127094Y0105934D02*
X0127094Y0107085D01*
X0118028Y0112474D02*
X0115726Y0119380D01*
X0112543Y0117654D02*
X0112543Y0112474D01*
X0107938Y0112474D02*
X0107938Y0119380D01*
X0110816Y0119380D01*
X0110816Y0119381D02*
X0110898Y0119379D01*
X0110980Y0119373D01*
X0111062Y0119363D01*
X0111143Y0119350D01*
X0111223Y0119332D01*
X0111303Y0119311D01*
X0111381Y0119286D01*
X0111458Y0119257D01*
X0111533Y0119225D01*
X0111607Y0119189D01*
X0111680Y0119150D01*
X0111750Y0119107D01*
X0111818Y0119061D01*
X0111884Y0119012D01*
X0111947Y0118959D01*
X0112008Y0118904D01*
X0112066Y0118846D01*
X0112121Y0118785D01*
X0112174Y0118722D01*
X0112223Y0118656D01*
X0112269Y0118588D01*
X0112312Y0118518D01*
X0112351Y0118445D01*
X0112387Y0118371D01*
X0112419Y0118296D01*
X0112448Y0118219D01*
X0112473Y0118141D01*
X0112494Y0118061D01*
X0112512Y0117981D01*
X0112525Y0117900D01*
X0112535Y0117818D01*
X0112541Y0117736D01*
X0112543Y0117654D01*
X0104157Y0117654D02*
X0104157Y0112474D01*
X0099552Y0112474D02*
X0099552Y0119380D01*
X0102430Y0119380D01*
X0102430Y0119381D02*
X0102512Y0119379D01*
X0102594Y0119373D01*
X0102676Y0119363D01*
X0102757Y0119350D01*
X0102837Y0119332D01*
X0102917Y0119311D01*
X0102995Y0119286D01*
X0103072Y0119257D01*
X0103147Y0119225D01*
X0103221Y0119189D01*
X0103294Y0119150D01*
X0103364Y0119107D01*
X0103432Y0119061D01*
X0103498Y0119012D01*
X0103561Y0118959D01*
X0103622Y0118904D01*
X0103680Y0118846D01*
X0103735Y0118785D01*
X0103788Y0118722D01*
X0103837Y0118656D01*
X0103883Y0118588D01*
X0103926Y0118518D01*
X0103965Y0118445D01*
X0104001Y0118371D01*
X0104033Y0118296D01*
X0104062Y0118219D01*
X0104087Y0118141D01*
X0104108Y0118061D01*
X0104126Y0117981D01*
X0104139Y0117900D01*
X0104149Y0117818D01*
X0104155Y0117736D01*
X0104157Y0117654D01*
X0095757Y0117654D02*
X0095757Y0112474D01*
X0093167Y0112474D01*
X0093079Y0112476D01*
X0092991Y0112482D01*
X0092904Y0112491D01*
X0092817Y0112505D01*
X0092731Y0112522D01*
X0092646Y0112543D01*
X0092561Y0112567D01*
X0092478Y0112595D01*
X0092396Y0112627D01*
X0092316Y0112663D01*
X0092237Y0112702D01*
X0092160Y0112744D01*
X0092085Y0112789D01*
X0092012Y0112838D01*
X0091941Y0112890D01*
X0091872Y0112945D01*
X0091806Y0113003D01*
X0091743Y0113064D01*
X0091682Y0113127D01*
X0091624Y0113193D01*
X0091569Y0113262D01*
X0091517Y0113333D01*
X0091468Y0113406D01*
X0091423Y0113481D01*
X0091381Y0113558D01*
X0091342Y0113637D01*
X0091306Y0113717D01*
X0091274Y0113799D01*
X0091246Y0113882D01*
X0091222Y0113967D01*
X0091201Y0114052D01*
X0091184Y0114138D01*
X0091170Y0114225D01*
X0091161Y0114312D01*
X0091155Y0114400D01*
X0091153Y0114488D01*
X0091155Y0114576D01*
X0091161Y0114664D01*
X0091170Y0114751D01*
X0091184Y0114838D01*
X0091201Y0114924D01*
X0091222Y0115009D01*
X0091246Y0115094D01*
X0091274Y0115177D01*
X0091306Y0115259D01*
X0091342Y0115339D01*
X0091381Y0115418D01*
X0091423Y0115495D01*
X0091468Y0115570D01*
X0091517Y0115643D01*
X0091569Y0115714D01*
X0091624Y0115783D01*
X0091682Y0115849D01*
X0091743Y0115912D01*
X0091806Y0115973D01*
X0091872Y0116031D01*
X0091941Y0116086D01*
X0092012Y0116138D01*
X0092085Y0116187D01*
X0092160Y0116232D01*
X0092237Y0116274D01*
X0092316Y0116313D01*
X0092396Y0116349D01*
X0092478Y0116381D01*
X0092561Y0116409D01*
X0092646Y0116433D01*
X0092731Y0116454D01*
X0092817Y0116471D01*
X0092904Y0116485D01*
X0092991Y0116494D01*
X0093079Y0116500D01*
X0093167Y0116502D01*
X0095757Y0116502D01*
X0095758Y0117654D02*
X0095756Y0117736D01*
X0095750Y0117818D01*
X0095740Y0117900D01*
X0095727Y0117981D01*
X0095709Y0118061D01*
X0095688Y0118141D01*
X0095663Y0118219D01*
X0095634Y0118296D01*
X0095602Y0118371D01*
X0095566Y0118445D01*
X0095527Y0118518D01*
X0095484Y0118588D01*
X0095438Y0118656D01*
X0095389Y0118722D01*
X0095336Y0118785D01*
X0095281Y0118846D01*
X0095223Y0118904D01*
X0095162Y0118959D01*
X0095099Y0119012D01*
X0095033Y0119061D01*
X0094965Y0119107D01*
X0094895Y0119150D01*
X0094822Y0119189D01*
X0094748Y0119225D01*
X0094673Y0119257D01*
X0094596Y0119286D01*
X0094518Y0119311D01*
X0094438Y0119332D01*
X0094358Y0119350D01*
X0094277Y0119363D01*
X0094195Y0119373D01*
X0094113Y0119379D01*
X0094031Y0119381D01*
X0094031Y0119380D02*
X0091728Y0119380D01*
X0123607Y0119956D02*
X0123609Y0120090D01*
X0123615Y0120224D01*
X0123625Y0120357D01*
X0123638Y0120490D01*
X0123656Y0120623D01*
X0123677Y0120755D01*
X0123702Y0120887D01*
X0123731Y0121018D01*
X0123764Y0121148D01*
X0123800Y0121276D01*
X0123841Y0121404D01*
X0123885Y0121531D01*
X0123932Y0121656D01*
X0123984Y0121780D01*
X0124038Y0121902D01*
X0124097Y0122022D01*
X0124159Y0122141D01*
X0124224Y0122258D01*
X0124292Y0122373D01*
X0124364Y0122486D01*
X0124440Y0122597D01*
X0124518Y0122705D01*
X0124600Y0122812D01*
X0124684Y0122915D01*
X0124772Y0123017D01*
X0124862Y0123115D01*
X0124955Y0123212D01*
X0125052Y0123305D01*
X0125150Y0123395D01*
X0125252Y0123483D01*
X0125355Y0123567D01*
X0125462Y0123649D01*
X0125570Y0123727D01*
X0125681Y0123803D01*
X0125794Y0123875D01*
X0125909Y0123943D01*
X0126026Y0124008D01*
X0126145Y0124070D01*
X0126265Y0124129D01*
X0126387Y0124183D01*
X0126511Y0124235D01*
X0126636Y0124282D01*
X0126763Y0124326D01*
X0126891Y0124367D01*
X0127019Y0124403D01*
X0127149Y0124436D01*
X0127280Y0124465D01*
X0127412Y0124490D01*
X0127544Y0124511D01*
X0127677Y0124529D01*
X0127810Y0124542D01*
X0127943Y0124552D01*
X0128077Y0124558D01*
X0128211Y0124560D01*
X0128345Y0124558D01*
X0128479Y0124552D01*
X0128612Y0124542D01*
X0128745Y0124529D01*
X0128878Y0124511D01*
X0129010Y0124490D01*
X0129142Y0124465D01*
X0129273Y0124436D01*
X0129403Y0124403D01*
X0129531Y0124367D01*
X0129659Y0124326D01*
X0129786Y0124282D01*
X0129911Y0124235D01*
X0130035Y0124183D01*
X0130157Y0124129D01*
X0130277Y0124070D01*
X0130396Y0124008D01*
X0130513Y0123943D01*
X0130628Y0123875D01*
X0130741Y0123803D01*
X0130852Y0123727D01*
X0130960Y0123649D01*
X0131067Y0123567D01*
X0131170Y0123483D01*
X0131272Y0123395D01*
X0131370Y0123305D01*
X0131467Y0123212D01*
X0131560Y0123115D01*
X0131650Y0123017D01*
X0131738Y0122915D01*
X0131822Y0122812D01*
X0131904Y0122705D01*
X0131982Y0122597D01*
X0132058Y0122486D01*
X0132130Y0122373D01*
X0132198Y0122258D01*
X0132263Y0122141D01*
X0132325Y0122022D01*
X0132384Y0121902D01*
X0132438Y0121780D01*
X0132490Y0121656D01*
X0132537Y0121531D01*
X0132581Y0121404D01*
X0132622Y0121276D01*
X0132658Y0121148D01*
X0132691Y0121018D01*
X0132720Y0120887D01*
X0132745Y0120755D01*
X0132766Y0120623D01*
X0132784Y0120490D01*
X0132797Y0120357D01*
X0132807Y0120224D01*
X0132813Y0120090D01*
X0132815Y0119956D01*
X0144825Y0119380D02*
X0150005Y0119380D01*
X0148279Y0119380D02*
X0148279Y0112474D01*
X0151732Y0112474D02*
X0151732Y0117654D01*
X0151730Y0117736D01*
X0151724Y0117818D01*
X0151714Y0117900D01*
X0151701Y0117981D01*
X0151683Y0118061D01*
X0151662Y0118141D01*
X0151637Y0118219D01*
X0151608Y0118296D01*
X0151576Y0118371D01*
X0151540Y0118445D01*
X0151501Y0118518D01*
X0151458Y0118588D01*
X0151412Y0118656D01*
X0151363Y0118722D01*
X0151310Y0118785D01*
X0151255Y0118846D01*
X0151197Y0118904D01*
X0151136Y0118959D01*
X0151073Y0119012D01*
X0151007Y0119061D01*
X0150939Y0119107D01*
X0150869Y0119150D01*
X0150796Y0119189D01*
X0150722Y0119225D01*
X0150647Y0119257D01*
X0150570Y0119286D01*
X0150492Y0119311D01*
X0150412Y0119332D01*
X0150332Y0119350D01*
X0150251Y0119363D01*
X0150169Y0119373D01*
X0150087Y0119379D01*
X0150005Y0119381D01*
X0144825Y0119380D02*
X0144825Y0112474D01*
X0140984Y0110747D02*
X0140982Y0110665D01*
X0140976Y0110583D01*
X0140966Y0110501D01*
X0140953Y0110420D01*
X0140935Y0110340D01*
X0140914Y0110260D01*
X0140889Y0110182D01*
X0140860Y0110105D01*
X0140828Y0110030D01*
X0140792Y0109956D01*
X0140753Y0109884D01*
X0140710Y0109813D01*
X0140664Y0109745D01*
X0140615Y0109679D01*
X0140562Y0109616D01*
X0140507Y0109555D01*
X0140449Y0109497D01*
X0140388Y0109442D01*
X0140325Y0109389D01*
X0140259Y0109340D01*
X0140191Y0109294D01*
X0140121Y0109251D01*
X0140048Y0109212D01*
X0139974Y0109176D01*
X0139899Y0109144D01*
X0139822Y0109115D01*
X0139744Y0109090D01*
X0139664Y0109069D01*
X0139584Y0109051D01*
X0139503Y0109038D01*
X0139421Y0109028D01*
X0139339Y0109022D01*
X0139257Y0109020D01*
X0136955Y0109020D01*
X0157263Y0112474D02*
X0159853Y0112474D01*
X0159853Y0117654D01*
X0159853Y0116502D02*
X0157263Y0116502D01*
X0159853Y0117654D02*
X0159851Y0117736D01*
X0159845Y0117818D01*
X0159835Y0117900D01*
X0159822Y0117981D01*
X0159804Y0118061D01*
X0159783Y0118141D01*
X0159758Y0118219D01*
X0159729Y0118296D01*
X0159697Y0118371D01*
X0159661Y0118445D01*
X0159622Y0118518D01*
X0159579Y0118588D01*
X0159533Y0118656D01*
X0159484Y0118722D01*
X0159431Y0118785D01*
X0159376Y0118846D01*
X0159318Y0118904D01*
X0159257Y0118959D01*
X0159194Y0119012D01*
X0159128Y0119061D01*
X0159060Y0119107D01*
X0158990Y0119150D01*
X0158917Y0119189D01*
X0158843Y0119225D01*
X0158768Y0119257D01*
X0158691Y0119286D01*
X0158613Y0119311D01*
X0158533Y0119332D01*
X0158453Y0119350D01*
X0158372Y0119363D01*
X0158290Y0119373D01*
X0158208Y0119379D01*
X0158126Y0119381D01*
X0158126Y0119380D02*
X0155824Y0119380D01*
X0163554Y0119380D02*
X0163554Y0112474D01*
X0167194Y0114200D02*
X0167194Y0122833D01*
X0163841Y0122833D02*
X0163841Y0122258D01*
X0163266Y0122258D01*
X0163266Y0122833D01*
X0163841Y0122833D01*
X0175332Y0117654D02*
X0175332Y0114200D01*
X0175334Y0114118D01*
X0175340Y0114036D01*
X0175350Y0113954D01*
X0175363Y0113873D01*
X0175381Y0113793D01*
X0175402Y0113713D01*
X0175427Y0113635D01*
X0175456Y0113558D01*
X0175488Y0113483D01*
X0175524Y0113409D01*
X0175563Y0113337D01*
X0175606Y0113266D01*
X0175652Y0113198D01*
X0175701Y0113132D01*
X0175754Y0113069D01*
X0175809Y0113008D01*
X0175867Y0112950D01*
X0175928Y0112895D01*
X0175991Y0112842D01*
X0176057Y0112793D01*
X0176125Y0112747D01*
X0176196Y0112704D01*
X0176268Y0112665D01*
X0176342Y0112629D01*
X0176417Y0112597D01*
X0176494Y0112568D01*
X0176572Y0112543D01*
X0176652Y0112522D01*
X0176732Y0112504D01*
X0176813Y0112491D01*
X0176895Y0112481D01*
X0176977Y0112475D01*
X0177059Y0112473D01*
X0177059Y0112474D02*
X0179361Y0112474D01*
X0182217Y0114776D02*
X0182217Y0117078D01*
X0182219Y0117173D01*
X0182225Y0117268D01*
X0182235Y0117363D01*
X0182248Y0117457D01*
X0182266Y0117550D01*
X0182287Y0117643D01*
X0182313Y0117735D01*
X0182342Y0117825D01*
X0182374Y0117915D01*
X0182411Y0118003D01*
X0182451Y0118089D01*
X0182494Y0118174D01*
X0182541Y0118256D01*
X0182592Y0118337D01*
X0182646Y0118416D01*
X0182702Y0118492D01*
X0182762Y0118566D01*
X0182825Y0118637D01*
X0182891Y0118706D01*
X0182960Y0118772D01*
X0183031Y0118835D01*
X0183105Y0118895D01*
X0183181Y0118951D01*
X0183260Y0119005D01*
X0183341Y0119056D01*
X0183423Y0119103D01*
X0183508Y0119146D01*
X0183594Y0119186D01*
X0183682Y0119223D01*
X0183772Y0119255D01*
X0183862Y0119284D01*
X0183954Y0119310D01*
X0184047Y0119331D01*
X0184140Y0119349D01*
X0184234Y0119362D01*
X0184329Y0119372D01*
X0184424Y0119378D01*
X0184519Y0119380D01*
X0184614Y0119378D01*
X0184709Y0119372D01*
X0184804Y0119362D01*
X0184898Y0119349D01*
X0184991Y0119331D01*
X0185084Y0119310D01*
X0185176Y0119284D01*
X0185266Y0119255D01*
X0185356Y0119223D01*
X0185444Y0119186D01*
X0185530Y0119146D01*
X0185615Y0119103D01*
X0185697Y0119056D01*
X0185778Y0119005D01*
X0185857Y0118951D01*
X0185933Y0118895D01*
X0186007Y0118835D01*
X0186078Y0118772D01*
X0186147Y0118706D01*
X0186213Y0118637D01*
X0186276Y0118566D01*
X0186336Y0118492D01*
X0186392Y0118416D01*
X0186446Y0118337D01*
X0186497Y0118256D01*
X0186544Y0118174D01*
X0186587Y0118089D01*
X0186627Y0118003D01*
X0186664Y0117915D01*
X0186696Y0117825D01*
X0186725Y0117735D01*
X0186751Y0117643D01*
X0186772Y0117550D01*
X0186790Y0117457D01*
X0186803Y0117363D01*
X0186813Y0117268D01*
X0186819Y0117173D01*
X0186821Y0117078D01*
X0186822Y0117078D02*
X0186822Y0114776D01*
X0186821Y0114776D02*
X0186819Y0114681D01*
X0186813Y0114586D01*
X0186803Y0114491D01*
X0186790Y0114397D01*
X0186772Y0114304D01*
X0186751Y0114211D01*
X0186725Y0114119D01*
X0186696Y0114029D01*
X0186664Y0113939D01*
X0186627Y0113851D01*
X0186587Y0113765D01*
X0186544Y0113680D01*
X0186497Y0113598D01*
X0186446Y0113517D01*
X0186392Y0113438D01*
X0186336Y0113362D01*
X0186276Y0113288D01*
X0186213Y0113217D01*
X0186147Y0113148D01*
X0186078Y0113082D01*
X0186007Y0113019D01*
X0185933Y0112959D01*
X0185857Y0112903D01*
X0185778Y0112849D01*
X0185697Y0112798D01*
X0185615Y0112751D01*
X0185530Y0112708D01*
X0185444Y0112668D01*
X0185356Y0112631D01*
X0185266Y0112599D01*
X0185176Y0112570D01*
X0185084Y0112544D01*
X0184991Y0112523D01*
X0184898Y0112505D01*
X0184804Y0112492D01*
X0184709Y0112482D01*
X0184614Y0112476D01*
X0184519Y0112474D01*
X0184424Y0112476D01*
X0184329Y0112482D01*
X0184234Y0112492D01*
X0184140Y0112505D01*
X0184047Y0112523D01*
X0183954Y0112544D01*
X0183862Y0112570D01*
X0183772Y0112599D01*
X0183682Y0112631D01*
X0183594Y0112668D01*
X0183508Y0112708D01*
X0183423Y0112751D01*
X0183341Y0112798D01*
X0183260Y0112849D01*
X0183181Y0112903D01*
X0183105Y0112959D01*
X0183031Y0113019D01*
X0182960Y0113082D01*
X0182891Y0113148D01*
X0182825Y0113217D01*
X0182762Y0113288D01*
X0182702Y0113362D01*
X0182646Y0113438D01*
X0182592Y0113517D01*
X0182541Y0113598D01*
X0182494Y0113680D01*
X0182451Y0113765D01*
X0182411Y0113851D01*
X0182374Y0113939D01*
X0182342Y0114029D01*
X0182313Y0114119D01*
X0182287Y0114211D01*
X0182266Y0114304D01*
X0182248Y0114397D01*
X0182235Y0114491D01*
X0182225Y0114586D01*
X0182219Y0114681D01*
X0182217Y0114776D01*
X0177059Y0119381D02*
X0176977Y0119379D01*
X0176895Y0119373D01*
X0176813Y0119363D01*
X0176732Y0119350D01*
X0176652Y0119332D01*
X0176572Y0119311D01*
X0176494Y0119286D01*
X0176417Y0119257D01*
X0176342Y0119225D01*
X0176268Y0119189D01*
X0176196Y0119150D01*
X0176125Y0119107D01*
X0176057Y0119061D01*
X0175991Y0119012D01*
X0175928Y0118959D01*
X0175867Y0118904D01*
X0175809Y0118846D01*
X0175754Y0118785D01*
X0175701Y0118722D01*
X0175652Y0118656D01*
X0175606Y0118588D01*
X0175563Y0118518D01*
X0175524Y0118445D01*
X0175488Y0118371D01*
X0175456Y0118296D01*
X0175427Y0118219D01*
X0175402Y0118141D01*
X0175381Y0118061D01*
X0175363Y0117981D01*
X0175350Y0117900D01*
X0175340Y0117818D01*
X0175334Y0117736D01*
X0175332Y0117654D01*
X0177059Y0119380D02*
X0179361Y0119380D01*
X0172228Y0113049D02*
X0172228Y0112474D01*
X0171652Y0112474D01*
X0171652Y0113049D01*
X0172228Y0113049D01*
X0168921Y0112473D02*
X0168839Y0112475D01*
X0168757Y0112481D01*
X0168675Y0112491D01*
X0168594Y0112504D01*
X0168514Y0112522D01*
X0168434Y0112543D01*
X0168356Y0112568D01*
X0168279Y0112597D01*
X0168204Y0112629D01*
X0168130Y0112665D01*
X0168058Y0112704D01*
X0167987Y0112747D01*
X0167919Y0112793D01*
X0167853Y0112842D01*
X0167790Y0112895D01*
X0167729Y0112950D01*
X0167671Y0113008D01*
X0167616Y0113069D01*
X0167563Y0113132D01*
X0167514Y0113198D01*
X0167468Y0113266D01*
X0167425Y0113337D01*
X0167386Y0113409D01*
X0167350Y0113483D01*
X0167318Y0113558D01*
X0167289Y0113635D01*
X0167264Y0113713D01*
X0167243Y0113793D01*
X0167225Y0113873D01*
X0167212Y0113954D01*
X0167202Y0114036D01*
X0167196Y0114118D01*
X0167194Y0114200D01*
X0157263Y0112474D02*
X0157175Y0112476D01*
X0157087Y0112482D01*
X0157000Y0112491D01*
X0156913Y0112505D01*
X0156827Y0112522D01*
X0156742Y0112543D01*
X0156657Y0112567D01*
X0156574Y0112595D01*
X0156492Y0112627D01*
X0156412Y0112663D01*
X0156333Y0112702D01*
X0156256Y0112744D01*
X0156181Y0112789D01*
X0156108Y0112838D01*
X0156037Y0112890D01*
X0155968Y0112945D01*
X0155902Y0113003D01*
X0155839Y0113064D01*
X0155778Y0113127D01*
X0155720Y0113193D01*
X0155665Y0113262D01*
X0155613Y0113333D01*
X0155564Y0113406D01*
X0155519Y0113481D01*
X0155477Y0113558D01*
X0155438Y0113637D01*
X0155402Y0113717D01*
X0155370Y0113799D01*
X0155342Y0113882D01*
X0155318Y0113967D01*
X0155297Y0114052D01*
X0155280Y0114138D01*
X0155266Y0114225D01*
X0155257Y0114312D01*
X0155251Y0114400D01*
X0155249Y0114488D01*
X0155251Y0114576D01*
X0155257Y0114664D01*
X0155266Y0114751D01*
X0155280Y0114838D01*
X0155297Y0114924D01*
X0155318Y0115009D01*
X0155342Y0115094D01*
X0155370Y0115177D01*
X0155402Y0115259D01*
X0155438Y0115339D01*
X0155477Y0115418D01*
X0155519Y0115495D01*
X0155564Y0115570D01*
X0155613Y0115643D01*
X0155665Y0115714D01*
X0155720Y0115783D01*
X0155778Y0115849D01*
X0155839Y0115912D01*
X0155902Y0115973D01*
X0155968Y0116031D01*
X0156037Y0116086D01*
X0156108Y0116138D01*
X0156181Y0116187D01*
X0156256Y0116232D01*
X0156333Y0116274D01*
X0156412Y0116313D01*
X0156492Y0116349D01*
X0156574Y0116381D01*
X0156657Y0116409D01*
X0156742Y0116433D01*
X0156827Y0116454D01*
X0156913Y0116471D01*
X0157000Y0116485D01*
X0157087Y0116494D01*
X0157175Y0116500D01*
X0157263Y0116502D01*
X0190351Y0119380D02*
X0190351Y0112474D01*
X0193804Y0112474D02*
X0193804Y0119380D01*
X0195531Y0119380D02*
X0190351Y0119380D01*
X0195531Y0119381D02*
X0195613Y0119379D01*
X0195695Y0119373D01*
X0195777Y0119363D01*
X0195858Y0119350D01*
X0195938Y0119332D01*
X0196018Y0119311D01*
X0196096Y0119286D01*
X0196173Y0119257D01*
X0196248Y0119225D01*
X0196322Y0119189D01*
X0196395Y0119150D01*
X0196465Y0119107D01*
X0196533Y0119061D01*
X0196599Y0119012D01*
X0196662Y0118959D01*
X0196723Y0118904D01*
X0196781Y0118846D01*
X0196836Y0118785D01*
X0196889Y0118722D01*
X0196938Y0118656D01*
X0196984Y0118588D01*
X0197027Y0118518D01*
X0197066Y0118445D01*
X0197102Y0118371D01*
X0197134Y0118296D01*
X0197163Y0118219D01*
X0197188Y0118141D01*
X0197209Y0118061D01*
X0197227Y0117981D01*
X0197240Y0117900D01*
X0197250Y0117818D01*
X0197256Y0117736D01*
X0197258Y0117654D01*
X0197258Y0112474D01*
M02*
