%
M48
M72
T01C0.00000
T02C0.01969
T03C0.03937
T04C0.05906
T05C0.07874
%
T01
X45094Y25409
X64780Y25409
X84465Y25409
X84465Y45094
X104150Y45094
X104150Y64780
X123835Y64780
X84465Y64780
X64780Y45094
X143520Y104150
X163205Y104150
X202575Y143520
X202575Y163205
X222260Y163205
X222260Y182890
X241945Y182890
X202575Y182890
T02
X241945Y163205
X261630Y163205
X281315Y163205
X281315Y182890
X301000Y182890
X261630Y182890
X261630Y143520
X241945Y143520
X222260Y143520
X222260Y123835
X241945Y123835
X222260Y104150
X202575Y104150
X182890Y104150
X202575Y123835
X202575Y84465
X182890Y84465
X163205Y84465
X143520Y84465
X143520Y64780
X163205Y64780
X182890Y64780
X163205Y45094
X143520Y45094
X123835Y45094
X123835Y25409
X104150Y25409
X143520Y25409
T03
X163205Y25409
X182890Y25409
X202575Y25409
X202575Y45094
X222260Y45094
X222260Y64780
X241945Y64780
X241945Y84465
X222260Y84465
X202575Y64780
X182890Y45094
X261630Y84465
X261630Y104150
X281315Y104150
X281315Y123835
X301000Y123835
X301000Y143520
X281315Y143520
X261630Y123835
X241945Y104150
X320685Y143520
X320685Y163205
X301000Y163205
X320685Y182890
T04
X320685Y123835
X320685Y104150
X301000Y104150
X301000Y84465
X281315Y84465
X281315Y64780
X301000Y64780
X320685Y84465
X261630Y64780
X261630Y45094
X281315Y45094
X261630Y25409
X241945Y25409
X222260Y25409
X241945Y45094
T05
X281315Y25409
X301000Y25409
X320685Y25409
X320685Y45094
X301000Y45094
X320685Y64780
M30
