G75*
%MOIN*%
%OFA0B0*%
%FSLAX25Y25*%
%IPPOS*%
%LPD*%
%AMOC8*
5,1,8,0,0,1.08239X$1,22.5*
%
%ADD10C,0.11811*%
%ADD11C,0.08858*%
%ADD12C,0.05906*%
%ADD13C,0.03569*%
%ADD14C,0.01600*%
%ADD15C,0.01575*%
D10*
X0281315Y0025409D03*
X0301000Y0025409D03*
X0320685Y0025409D03*
X0320685Y0045094D03*
X0301000Y0045094D03*
X0320685Y0064780D03*
D11*
X0301000Y0064780D03*
X0281315Y0064780D03*
X0261630Y0064780D03*
X0281315Y0084465D03*
X0301000Y0084465D03*
X0320685Y0084465D03*
X0320685Y0104150D03*
X0301000Y0104150D03*
X0320685Y0123835D03*
X0281315Y0045094D03*
X0261630Y0045094D03*
X0241945Y0045094D03*
X0241945Y0025409D03*
X0222260Y0025409D03*
X0261630Y0025409D03*
D12*
X0222260Y0045094D03*
X0202575Y0045094D03*
X0182890Y0045094D03*
X0182890Y0025409D03*
X0163205Y0025409D03*
X0202575Y0025409D03*
X0202575Y0064780D03*
X0222260Y0064780D03*
X0241945Y0064780D03*
X0241945Y0084465D03*
X0222260Y0084465D03*
X0241945Y0104150D03*
X0261630Y0104150D03*
X0281315Y0104150D03*
X0281315Y0123835D03*
X0301000Y0123835D03*
X0301000Y0143520D03*
X0281315Y0143520D03*
X0261630Y0123835D03*
X0320685Y0143520D03*
X0320685Y0163205D03*
X0301000Y0163205D03*
X0320685Y0182890D03*
X0261630Y0084465D03*
D13*
X0222260Y0104150D03*
X0202575Y0104150D03*
X0182890Y0104150D03*
X0202575Y0123835D03*
X0222260Y0123835D03*
X0241945Y0123835D03*
X0241945Y0143520D03*
X0222260Y0143520D03*
X0241945Y0163205D03*
X0261630Y0163205D03*
X0281315Y0163205D03*
X0281315Y0182890D03*
X0301000Y0182890D03*
X0261630Y0182890D03*
X0261630Y0143520D03*
X0202575Y0084465D03*
X0182890Y0084465D03*
X0163205Y0084465D03*
X0143520Y0084465D03*
X0143520Y0064780D03*
X0163205Y0064780D03*
X0182890Y0064780D03*
X0163205Y0045094D03*
X0143520Y0045094D03*
X0123835Y0045094D03*
X0123835Y0025409D03*
X0104150Y0025409D03*
X0143520Y0025409D03*
D14*
X0104150Y0045094D03*
X0084465Y0045094D03*
X0064780Y0045094D03*
X0064780Y0025409D03*
X0045094Y0025409D03*
X0084465Y0025409D03*
X0084465Y0064780D03*
X0104150Y0064780D03*
X0123835Y0064780D03*
X0143520Y0104150D03*
X0163205Y0104150D03*
X0202575Y0143520D03*
X0202575Y0163205D03*
X0222260Y0163205D03*
X0222260Y0182890D03*
X0241945Y0182890D03*
X0202575Y0182890D03*
D15*
X0020496Y0011366D02*
X0017494Y0012812D01*
X0014889Y0014889D01*
X0012812Y0017494D01*
X0011366Y0020496D01*
X0010625Y0023744D01*
X0010531Y0025409D01*
X0010531Y0182890D01*
X0010625Y0184556D01*
X0011366Y0187804D01*
X0012812Y0190805D01*
X0014889Y0193410D01*
X0017494Y0195487D01*
X0020496Y0196933D01*
X0023744Y0197674D01*
X0025409Y0197768D01*
X0320685Y0197768D01*
X0322351Y0197674D01*
X0325599Y0196933D01*
X0328601Y0195487D01*
X0331205Y0193410D01*
X0333283Y0190805D01*
X0334728Y0187804D01*
X0335469Y0184556D01*
X0335563Y0182890D01*
X0335563Y0025409D01*
X0335469Y0023744D01*
X0334728Y0020496D01*
X0333283Y0017494D01*
X0331205Y0014889D01*
X0328601Y0012812D01*
X0325599Y0011366D01*
X0322351Y0010625D01*
X0320685Y0010531D01*
X0025409Y0010531D01*
X0023744Y0010625D01*
X0020496Y0011366D01*
X0019143Y0012018D02*
X0326951Y0012018D01*
X0329577Y0013591D02*
X0016517Y0013591D01*
X0014670Y0015164D02*
X0331425Y0015164D01*
X0332679Y0016738D02*
X0013415Y0016738D01*
X0012812Y0017494D02*
X0012812Y0017494D01*
X0012418Y0018311D02*
X0279395Y0018311D01*
X0279864Y0018117D02*
X0282766Y0018117D01*
X0285446Y0019227D01*
X0287498Y0021278D01*
X0288608Y0023959D01*
X0288608Y0026860D01*
X0287498Y0029541D01*
X0285446Y0031592D01*
X0282766Y0032702D01*
X0279864Y0032702D01*
X0277184Y0031592D01*
X0275132Y0029541D01*
X0274022Y0026860D01*
X0274022Y0023959D01*
X0275132Y0021278D01*
X0277184Y0019227D01*
X0279864Y0018117D01*
X0283235Y0018311D02*
X0299080Y0018311D01*
X0299549Y0018117D02*
X0302451Y0018117D01*
X0305131Y0019227D01*
X0307183Y0021278D01*
X0308293Y0023959D01*
X0308293Y0026860D01*
X0307183Y0029541D01*
X0305131Y0031592D01*
X0302451Y0032702D01*
X0299549Y0032702D01*
X0296869Y0031592D01*
X0294817Y0029541D01*
X0293707Y0026860D01*
X0293707Y0023959D01*
X0294817Y0021278D01*
X0296869Y0019227D01*
X0299549Y0018117D01*
X0302920Y0018311D02*
X0318765Y0018311D01*
X0319234Y0018117D02*
X0322136Y0018117D01*
X0324816Y0019227D01*
X0326868Y0021278D01*
X0327978Y0023959D01*
X0327978Y0026860D01*
X0326868Y0029541D01*
X0324816Y0031592D01*
X0322136Y0032702D01*
X0319234Y0032702D01*
X0316554Y0031592D01*
X0314502Y0029541D01*
X0313392Y0026860D01*
X0313392Y0023959D01*
X0314502Y0021278D01*
X0316554Y0019227D01*
X0319234Y0018117D01*
X0322605Y0018311D02*
X0333676Y0018311D01*
X0334434Y0019884D02*
X0325474Y0019884D01*
X0326942Y0021458D02*
X0334948Y0021458D01*
X0335307Y0023031D02*
X0327594Y0023031D01*
X0327978Y0024604D02*
X0335518Y0024604D01*
X0335563Y0026177D02*
X0327978Y0026177D01*
X0327609Y0027751D02*
X0335563Y0027751D01*
X0335563Y0029324D02*
X0326957Y0029324D01*
X0325511Y0030897D02*
X0335563Y0030897D01*
X0335563Y0032471D02*
X0322695Y0032471D01*
X0318675Y0032471D02*
X0303010Y0032471D01*
X0305826Y0030897D02*
X0315859Y0030897D01*
X0314413Y0029324D02*
X0307272Y0029324D01*
X0307924Y0027751D02*
X0313761Y0027751D01*
X0313392Y0026177D02*
X0308293Y0026177D01*
X0308293Y0024604D02*
X0313392Y0024604D01*
X0313776Y0023031D02*
X0307909Y0023031D01*
X0307257Y0021458D02*
X0314428Y0021458D01*
X0315896Y0019884D02*
X0305789Y0019884D01*
X0296211Y0019884D02*
X0286103Y0019884D01*
X0287572Y0021458D02*
X0294743Y0021458D01*
X0294091Y0023031D02*
X0288223Y0023031D01*
X0288608Y0024604D02*
X0293707Y0024604D01*
X0293707Y0026177D02*
X0288608Y0026177D01*
X0288239Y0027751D02*
X0294076Y0027751D01*
X0294728Y0029324D02*
X0287587Y0029324D01*
X0286141Y0030897D02*
X0296174Y0030897D01*
X0298990Y0032471D02*
X0283325Y0032471D01*
X0279305Y0032471D02*
X0010531Y0032471D01*
X0010531Y0034044D02*
X0335563Y0034044D01*
X0335563Y0035617D02*
X0010531Y0035617D01*
X0010531Y0037191D02*
X0335563Y0037191D01*
X0335563Y0038764D02*
X0324459Y0038764D01*
X0324816Y0038912D02*
X0326868Y0040963D01*
X0327978Y0043644D01*
X0327978Y0046545D01*
X0326868Y0049226D01*
X0324816Y0051277D01*
X0322136Y0052387D01*
X0319234Y0052387D01*
X0316554Y0051277D01*
X0314502Y0049226D01*
X0313392Y0046545D01*
X0313392Y0043644D01*
X0314502Y0040963D01*
X0316554Y0038912D01*
X0319234Y0037802D01*
X0322136Y0037802D01*
X0324816Y0038912D01*
X0326242Y0040337D02*
X0335563Y0040337D01*
X0335563Y0041911D02*
X0327260Y0041911D01*
X0327912Y0043484D02*
X0335563Y0043484D01*
X0335563Y0045057D02*
X0327978Y0045057D01*
X0327943Y0046631D02*
X0335563Y0046631D01*
X0335563Y0048204D02*
X0327291Y0048204D01*
X0326316Y0049777D02*
X0335563Y0049777D01*
X0335563Y0051351D02*
X0324639Y0051351D01*
X0316731Y0051351D02*
X0304954Y0051351D01*
X0305131Y0051277D02*
X0302451Y0052387D01*
X0299549Y0052387D01*
X0296869Y0051277D01*
X0294817Y0049226D01*
X0293707Y0046545D01*
X0293707Y0043644D01*
X0294817Y0040963D01*
X0296869Y0038912D01*
X0299549Y0037802D01*
X0302451Y0037802D01*
X0305131Y0038912D01*
X0307183Y0040963D01*
X0308293Y0043644D01*
X0308293Y0046545D01*
X0307183Y0049226D01*
X0305131Y0051277D01*
X0306631Y0049777D02*
X0315054Y0049777D01*
X0314079Y0048204D02*
X0307606Y0048204D01*
X0308258Y0046631D02*
X0313428Y0046631D01*
X0313392Y0045057D02*
X0308293Y0045057D01*
X0308227Y0043484D02*
X0313458Y0043484D01*
X0314110Y0041911D02*
X0307575Y0041911D01*
X0306557Y0040337D02*
X0315128Y0040337D01*
X0316911Y0038764D02*
X0304774Y0038764D01*
X0297226Y0038764D02*
X0010531Y0038764D01*
X0010531Y0040337D02*
X0238476Y0040337D01*
X0238650Y0040163D02*
X0240788Y0039278D01*
X0243102Y0039278D01*
X0245240Y0040163D01*
X0246876Y0041800D01*
X0247761Y0043937D01*
X0247761Y0046251D01*
X0246876Y0048389D01*
X0245240Y0050026D01*
X0243102Y0050911D01*
X0240788Y0050911D01*
X0238650Y0050026D01*
X0237014Y0048389D01*
X0236128Y0046251D01*
X0236128Y0043937D01*
X0237014Y0041800D01*
X0238650Y0040163D01*
X0236968Y0041911D02*
X0225214Y0041911D01*
X0224718Y0041415D02*
X0225939Y0042636D01*
X0226600Y0044231D01*
X0226600Y0045958D01*
X0225939Y0047553D01*
X0224718Y0048774D01*
X0223123Y0049435D01*
X0221397Y0049435D01*
X0219801Y0048774D01*
X0218580Y0047553D01*
X0217920Y0045958D01*
X0217920Y0044231D01*
X0218580Y0042636D01*
X0219801Y0041415D01*
X0221397Y0040754D01*
X0223123Y0040754D01*
X0224718Y0041415D01*
X0226290Y0043484D02*
X0236316Y0043484D01*
X0236128Y0045057D02*
X0226600Y0045057D01*
X0226321Y0046631D02*
X0236285Y0046631D01*
X0236937Y0048204D02*
X0225288Y0048204D01*
X0219231Y0048204D02*
X0205603Y0048204D01*
X0205033Y0048774D02*
X0203438Y0049435D01*
X0201711Y0049435D01*
X0200116Y0048774D01*
X0198895Y0047553D01*
X0198235Y0045958D01*
X0198235Y0044231D01*
X0198895Y0042636D01*
X0200116Y0041415D01*
X0201711Y0040754D01*
X0203438Y0040754D01*
X0205033Y0041415D01*
X0206254Y0042636D01*
X0206915Y0044231D01*
X0206915Y0045958D01*
X0206254Y0047553D01*
X0205033Y0048774D01*
X0206636Y0046631D02*
X0218198Y0046631D01*
X0217920Y0045057D02*
X0206915Y0045057D01*
X0206605Y0043484D02*
X0218229Y0043484D01*
X0219306Y0041911D02*
X0205529Y0041911D01*
X0199621Y0041911D02*
X0185844Y0041911D01*
X0185348Y0041415D02*
X0186569Y0042636D01*
X0187230Y0044231D01*
X0187230Y0045958D01*
X0186569Y0047553D01*
X0185348Y0048774D01*
X0183753Y0049435D01*
X0182026Y0049435D01*
X0180431Y0048774D01*
X0179210Y0047553D01*
X0178550Y0045958D01*
X0178550Y0044231D01*
X0179210Y0042636D01*
X0180431Y0041415D01*
X0182026Y0040754D01*
X0183753Y0040754D01*
X0185348Y0041415D01*
X0186920Y0043484D02*
X0198544Y0043484D01*
X0198235Y0045057D02*
X0187230Y0045057D01*
X0186951Y0046631D02*
X0198513Y0046631D01*
X0199546Y0048204D02*
X0185918Y0048204D01*
X0179861Y0048204D02*
X0163986Y0048204D01*
X0163836Y0048266D02*
X0162574Y0048266D01*
X0161408Y0047783D01*
X0160516Y0046891D01*
X0160033Y0045725D01*
X0160033Y0044464D01*
X0160516Y0043298D01*
X0161408Y0042406D01*
X0162574Y0041923D01*
X0163836Y0041923D01*
X0165001Y0042406D01*
X0165894Y0043298D01*
X0166376Y0044464D01*
X0166376Y0045725D01*
X0165894Y0046891D01*
X0165001Y0047783D01*
X0163836Y0048266D01*
X0162424Y0048204D02*
X0144301Y0048204D01*
X0144151Y0048266D02*
X0142889Y0048266D01*
X0141723Y0047783D01*
X0140831Y0046891D01*
X0140348Y0045725D01*
X0140348Y0044464D01*
X0140831Y0043298D01*
X0141723Y0042406D01*
X0142889Y0041923D01*
X0144151Y0041923D01*
X0145316Y0042406D01*
X0146208Y0043298D01*
X0146691Y0044464D01*
X0146691Y0045725D01*
X0146208Y0046891D01*
X0145316Y0047783D01*
X0144151Y0048266D01*
X0142739Y0048204D02*
X0124616Y0048204D01*
X0124466Y0048266D02*
X0125631Y0047783D01*
X0126523Y0046891D01*
X0127006Y0045725D01*
X0127006Y0044464D01*
X0126523Y0043298D01*
X0125631Y0042406D01*
X0124466Y0041923D01*
X0123204Y0041923D01*
X0122038Y0042406D01*
X0121146Y0043298D01*
X0120663Y0044464D01*
X0120663Y0045725D01*
X0121146Y0046891D01*
X0122038Y0047783D01*
X0123204Y0048266D01*
X0124466Y0048266D01*
X0123054Y0048204D02*
X0010531Y0048204D01*
X0010531Y0049777D02*
X0238402Y0049777D01*
X0245488Y0049777D02*
X0258087Y0049777D01*
X0258335Y0050026D02*
X0256699Y0048389D01*
X0255813Y0046251D01*
X0255813Y0043937D01*
X0256699Y0041800D01*
X0258335Y0040163D01*
X0260473Y0039278D01*
X0262787Y0039278D01*
X0264925Y0040163D01*
X0266561Y0041800D01*
X0267446Y0043937D01*
X0267446Y0046251D01*
X0266561Y0048389D01*
X0264925Y0050026D01*
X0262787Y0050911D01*
X0260473Y0050911D01*
X0258335Y0050026D01*
X0256622Y0048204D02*
X0246953Y0048204D01*
X0247604Y0046631D02*
X0255970Y0046631D01*
X0255813Y0045057D02*
X0247761Y0045057D01*
X0247574Y0043484D02*
X0256001Y0043484D01*
X0256653Y0041911D02*
X0246922Y0041911D01*
X0245414Y0040337D02*
X0258161Y0040337D01*
X0265099Y0040337D02*
X0277846Y0040337D01*
X0278020Y0040163D02*
X0280158Y0039278D01*
X0282472Y0039278D01*
X0284610Y0040163D01*
X0286246Y0041800D01*
X0287131Y0043937D01*
X0287131Y0046251D01*
X0286246Y0048389D01*
X0284610Y0050026D01*
X0282472Y0050911D01*
X0280158Y0050911D01*
X0278020Y0050026D01*
X0276384Y0048389D01*
X0275498Y0046251D01*
X0275498Y0043937D01*
X0276384Y0041800D01*
X0278020Y0040163D01*
X0276338Y0041911D02*
X0266607Y0041911D01*
X0267259Y0043484D02*
X0275686Y0043484D01*
X0275498Y0045057D02*
X0267446Y0045057D01*
X0267289Y0046631D02*
X0275655Y0046631D01*
X0276307Y0048204D02*
X0266638Y0048204D01*
X0265173Y0049777D02*
X0277772Y0049777D01*
X0284858Y0049777D02*
X0295369Y0049777D01*
X0294394Y0048204D02*
X0286323Y0048204D01*
X0286974Y0046631D02*
X0293742Y0046631D01*
X0293707Y0045057D02*
X0287131Y0045057D01*
X0286944Y0043484D02*
X0293773Y0043484D01*
X0294425Y0041911D02*
X0286292Y0041911D01*
X0284784Y0040337D02*
X0295443Y0040337D01*
X0297046Y0051351D02*
X0010531Y0051351D01*
X0010531Y0052924D02*
X0335563Y0052924D01*
X0335563Y0054497D02*
X0010531Y0054497D01*
X0010531Y0056070D02*
X0335563Y0056070D01*
X0335563Y0057644D02*
X0322515Y0057644D01*
X0322136Y0057487D02*
X0324816Y0058597D01*
X0326868Y0060648D01*
X0327978Y0063329D01*
X0327978Y0066230D01*
X0326868Y0068911D01*
X0324816Y0070962D01*
X0322136Y0072072D01*
X0319234Y0072072D01*
X0316554Y0070962D01*
X0314502Y0068911D01*
X0313392Y0066230D01*
X0313392Y0063329D01*
X0314502Y0060648D01*
X0316554Y0058597D01*
X0319234Y0057487D01*
X0322136Y0057487D01*
X0318855Y0057644D02*
X0010531Y0057644D01*
X0010531Y0059217D02*
X0259859Y0059217D01*
X0260473Y0058963D02*
X0262787Y0058963D01*
X0264925Y0059848D01*
X0266561Y0061485D01*
X0267446Y0063623D01*
X0267446Y0065937D01*
X0266561Y0068074D01*
X0264925Y0069711D01*
X0262787Y0070596D01*
X0260473Y0070596D01*
X0258335Y0069711D01*
X0256699Y0068074D01*
X0255813Y0065937D01*
X0255813Y0063623D01*
X0256699Y0061485D01*
X0258335Y0059848D01*
X0260473Y0058963D01*
X0263400Y0059217D02*
X0279544Y0059217D01*
X0280158Y0058963D02*
X0282472Y0058963D01*
X0284610Y0059848D01*
X0286246Y0061485D01*
X0287131Y0063623D01*
X0287131Y0065937D01*
X0286246Y0068074D01*
X0284610Y0069711D01*
X0282472Y0070596D01*
X0280158Y0070596D01*
X0278020Y0069711D01*
X0276384Y0068074D01*
X0275498Y0065937D01*
X0275498Y0063623D01*
X0276384Y0061485D01*
X0278020Y0059848D01*
X0280158Y0058963D01*
X0283085Y0059217D02*
X0299230Y0059217D01*
X0299843Y0058963D02*
X0302157Y0058963D01*
X0304295Y0059848D01*
X0305931Y0061485D01*
X0306817Y0063623D01*
X0306817Y0065937D01*
X0305931Y0068074D01*
X0304295Y0069711D01*
X0302157Y0070596D01*
X0299843Y0070596D01*
X0297705Y0069711D01*
X0296069Y0068074D01*
X0295183Y0065937D01*
X0295183Y0063623D01*
X0296069Y0061485D01*
X0297705Y0059848D01*
X0299843Y0058963D01*
X0302770Y0059217D02*
X0315934Y0059217D01*
X0314444Y0060790D02*
X0305237Y0060790D01*
X0306295Y0062364D02*
X0313792Y0062364D01*
X0313392Y0063937D02*
X0306817Y0063937D01*
X0306817Y0065510D02*
X0313392Y0065510D01*
X0313746Y0067084D02*
X0306341Y0067084D01*
X0305348Y0068657D02*
X0314397Y0068657D01*
X0315822Y0070230D02*
X0303040Y0070230D01*
X0298960Y0070230D02*
X0283355Y0070230D01*
X0285663Y0068657D02*
X0296652Y0068657D01*
X0295659Y0067084D02*
X0286656Y0067084D01*
X0287131Y0065510D02*
X0295183Y0065510D01*
X0295183Y0063937D02*
X0287131Y0063937D01*
X0286610Y0062364D02*
X0295705Y0062364D01*
X0296763Y0060790D02*
X0285552Y0060790D01*
X0277078Y0060790D02*
X0265867Y0060790D01*
X0266925Y0062364D02*
X0276020Y0062364D01*
X0275498Y0063937D02*
X0267446Y0063937D01*
X0267446Y0065510D02*
X0275498Y0065510D01*
X0275974Y0067084D02*
X0266971Y0067084D01*
X0265978Y0068657D02*
X0276967Y0068657D01*
X0279275Y0070230D02*
X0263670Y0070230D01*
X0259590Y0070230D02*
X0010531Y0070230D01*
X0010531Y0068657D02*
X0200594Y0068657D01*
X0200116Y0068459D02*
X0198895Y0067238D01*
X0198235Y0065643D01*
X0198235Y0063916D01*
X0198895Y0062321D01*
X0200116Y0061100D01*
X0201711Y0060439D01*
X0203438Y0060439D01*
X0205033Y0061100D01*
X0206254Y0062321D01*
X0206915Y0063916D01*
X0206915Y0065643D01*
X0206254Y0067238D01*
X0205033Y0068459D01*
X0203438Y0069120D01*
X0201711Y0069120D01*
X0200116Y0068459D01*
X0198831Y0067084D02*
X0185071Y0067084D01*
X0184686Y0067468D02*
X0183521Y0067951D01*
X0182259Y0067951D01*
X0181093Y0067468D01*
X0180201Y0066576D01*
X0179718Y0065410D01*
X0179718Y0064149D01*
X0180201Y0062983D01*
X0181093Y0062091D01*
X0182259Y0061608D01*
X0183521Y0061608D01*
X0184686Y0062091D01*
X0185579Y0062983D01*
X0186061Y0064149D01*
X0186061Y0065410D01*
X0185579Y0066576D01*
X0184686Y0067468D01*
X0186020Y0065510D02*
X0198235Y0065510D01*
X0198235Y0063937D02*
X0185974Y0063937D01*
X0184959Y0062364D02*
X0198878Y0062364D01*
X0200864Y0060790D02*
X0010531Y0060790D01*
X0010531Y0062364D02*
X0141450Y0062364D01*
X0141723Y0062091D02*
X0142889Y0061608D01*
X0144151Y0061608D01*
X0145316Y0062091D01*
X0146208Y0062983D01*
X0146691Y0064149D01*
X0146691Y0065410D01*
X0146208Y0066576D01*
X0145316Y0067468D01*
X0144151Y0067951D01*
X0142889Y0067951D01*
X0141723Y0067468D01*
X0140831Y0066576D01*
X0140348Y0065410D01*
X0140348Y0064149D01*
X0140831Y0062983D01*
X0141723Y0062091D01*
X0140436Y0063937D02*
X0126022Y0063937D01*
X0126022Y0063873D02*
X0124741Y0062592D01*
X0122929Y0062592D01*
X0121647Y0063873D01*
X0121647Y0065686D01*
X0122929Y0066967D01*
X0124741Y0066967D01*
X0126022Y0065686D01*
X0126022Y0063873D01*
X0126022Y0065510D02*
X0140389Y0065510D01*
X0141338Y0067084D02*
X0010531Y0067084D01*
X0010531Y0065510D02*
X0082277Y0065510D01*
X0082277Y0065686D02*
X0082277Y0063873D01*
X0083559Y0062592D01*
X0085371Y0062592D01*
X0086652Y0063873D01*
X0086652Y0065686D01*
X0085371Y0066967D01*
X0083559Y0066967D01*
X0082277Y0065686D01*
X0082277Y0063937D02*
X0010531Y0063937D01*
X0010531Y0071804D02*
X0318585Y0071804D01*
X0322785Y0071804D02*
X0335563Y0071804D01*
X0335563Y0073377D02*
X0010531Y0073377D01*
X0010531Y0074950D02*
X0335563Y0074950D01*
X0335563Y0076524D02*
X0010531Y0076524D01*
X0010531Y0078097D02*
X0335563Y0078097D01*
X0335563Y0079670D02*
X0324116Y0079670D01*
X0323980Y0079534D02*
X0325616Y0081170D01*
X0326502Y0083308D01*
X0326502Y0085622D01*
X0325616Y0087759D01*
X0323980Y0089396D01*
X0321842Y0090281D01*
X0319528Y0090281D01*
X0317390Y0089396D01*
X0315754Y0087759D01*
X0314869Y0085622D01*
X0314869Y0083308D01*
X0315754Y0081170D01*
X0317390Y0079534D01*
X0319528Y0078648D01*
X0321842Y0078648D01*
X0323980Y0079534D01*
X0325647Y0081244D02*
X0335563Y0081244D01*
X0335563Y0082817D02*
X0326298Y0082817D01*
X0326502Y0084390D02*
X0335563Y0084390D01*
X0335563Y0085963D02*
X0326360Y0085963D01*
X0325708Y0087537D02*
X0335563Y0087537D01*
X0335563Y0089110D02*
X0324265Y0089110D01*
X0317105Y0089110D02*
X0304580Y0089110D01*
X0304295Y0089396D02*
X0305931Y0087759D01*
X0306817Y0085622D01*
X0306817Y0083308D01*
X0305931Y0081170D01*
X0304295Y0079534D01*
X0302157Y0078648D01*
X0299843Y0078648D01*
X0297705Y0079534D01*
X0296069Y0081170D01*
X0295183Y0083308D01*
X0295183Y0085622D01*
X0296069Y0087759D01*
X0297705Y0089396D01*
X0299843Y0090281D01*
X0302157Y0090281D01*
X0304295Y0089396D01*
X0306023Y0087537D02*
X0315662Y0087537D01*
X0315010Y0085963D02*
X0306675Y0085963D01*
X0306817Y0084390D02*
X0314869Y0084390D01*
X0315072Y0082817D02*
X0306613Y0082817D01*
X0305962Y0081244D02*
X0315723Y0081244D01*
X0317254Y0079670D02*
X0304431Y0079670D01*
X0297569Y0079670D02*
X0284746Y0079670D01*
X0284610Y0079534D02*
X0286246Y0081170D01*
X0287131Y0083308D01*
X0287131Y0085622D01*
X0286246Y0087759D01*
X0284610Y0089396D01*
X0282472Y0090281D01*
X0280158Y0090281D01*
X0278020Y0089396D01*
X0276384Y0087759D01*
X0275498Y0085622D01*
X0275498Y0083308D01*
X0276384Y0081170D01*
X0278020Y0079534D01*
X0280158Y0078648D01*
X0282472Y0078648D01*
X0284610Y0079534D01*
X0286277Y0081244D02*
X0296038Y0081244D01*
X0295387Y0082817D02*
X0286928Y0082817D01*
X0287131Y0084390D02*
X0295183Y0084390D01*
X0295325Y0085963D02*
X0286990Y0085963D01*
X0286338Y0087537D02*
X0295977Y0087537D01*
X0297420Y0089110D02*
X0284895Y0089110D01*
X0277735Y0089110D02*
X0010531Y0089110D01*
X0010531Y0087537D02*
X0142649Y0087537D01*
X0142889Y0087636D02*
X0141723Y0087153D01*
X0140831Y0086261D01*
X0140348Y0085095D01*
X0140348Y0083834D01*
X0140831Y0082668D01*
X0141723Y0081776D01*
X0142889Y0081293D01*
X0144151Y0081293D01*
X0145316Y0081776D01*
X0146208Y0082668D01*
X0146691Y0083834D01*
X0146691Y0085095D01*
X0146208Y0086261D01*
X0145316Y0087153D01*
X0144151Y0087636D01*
X0142889Y0087636D01*
X0144391Y0087537D02*
X0162334Y0087537D01*
X0162574Y0087636D02*
X0161408Y0087153D01*
X0160516Y0086261D01*
X0160033Y0085095D01*
X0160033Y0083834D01*
X0160516Y0082668D01*
X0161408Y0081776D01*
X0162574Y0081293D01*
X0163836Y0081293D01*
X0165001Y0081776D01*
X0165894Y0082668D01*
X0166376Y0083834D01*
X0166376Y0085095D01*
X0165894Y0086261D01*
X0165001Y0087153D01*
X0163836Y0087636D01*
X0162574Y0087636D01*
X0164076Y0087537D02*
X0182019Y0087537D01*
X0182259Y0087636D02*
X0181093Y0087153D01*
X0180201Y0086261D01*
X0179718Y0085095D01*
X0179718Y0083834D01*
X0180201Y0082668D01*
X0181093Y0081776D01*
X0182259Y0081293D01*
X0183521Y0081293D01*
X0184686Y0081776D01*
X0185579Y0082668D01*
X0186061Y0083834D01*
X0186061Y0085095D01*
X0185579Y0086261D01*
X0184686Y0087153D01*
X0183521Y0087636D01*
X0182259Y0087636D01*
X0183761Y0087537D02*
X0201704Y0087537D01*
X0201944Y0087636D02*
X0200778Y0087153D01*
X0199886Y0086261D01*
X0199403Y0085095D01*
X0199403Y0083834D01*
X0199886Y0082668D01*
X0200778Y0081776D01*
X0201944Y0081293D01*
X0203206Y0081293D01*
X0204371Y0081776D01*
X0205264Y0082668D01*
X0205746Y0083834D01*
X0205746Y0085095D01*
X0205264Y0086261D01*
X0204371Y0087153D01*
X0203206Y0087636D01*
X0201944Y0087636D01*
X0203446Y0087537D02*
X0219194Y0087537D01*
X0219801Y0088144D02*
X0218580Y0086923D01*
X0217920Y0085328D01*
X0217920Y0083601D01*
X0218580Y0082006D01*
X0219801Y0080785D01*
X0221397Y0080124D01*
X0223123Y0080124D01*
X0224718Y0080785D01*
X0225939Y0082006D01*
X0226600Y0083601D01*
X0226600Y0085328D01*
X0225939Y0086923D01*
X0224718Y0088144D01*
X0223123Y0088805D01*
X0221397Y0088805D01*
X0219801Y0088144D01*
X0218183Y0085963D02*
X0205387Y0085963D01*
X0205746Y0084390D02*
X0217920Y0084390D01*
X0218245Y0082817D02*
X0205325Y0082817D01*
X0199824Y0082817D02*
X0185640Y0082817D01*
X0186061Y0084390D02*
X0199403Y0084390D01*
X0199763Y0085963D02*
X0185702Y0085963D01*
X0180078Y0085963D02*
X0166017Y0085963D01*
X0166376Y0084390D02*
X0179718Y0084390D01*
X0180139Y0082817D02*
X0165955Y0082817D01*
X0160454Y0082817D02*
X0146270Y0082817D01*
X0146691Y0084390D02*
X0160033Y0084390D01*
X0160393Y0085963D02*
X0146332Y0085963D01*
X0140708Y0085963D02*
X0010531Y0085963D01*
X0010531Y0084390D02*
X0140348Y0084390D01*
X0140769Y0082817D02*
X0010531Y0082817D01*
X0010531Y0081244D02*
X0219343Y0081244D01*
X0225177Y0081244D02*
X0239028Y0081244D01*
X0239486Y0080785D02*
X0241082Y0080124D01*
X0242808Y0080124D01*
X0244403Y0080785D01*
X0245624Y0082006D01*
X0246285Y0083601D01*
X0246285Y0085328D01*
X0245624Y0086923D01*
X0244403Y0088144D01*
X0242808Y0088805D01*
X0241082Y0088805D01*
X0239486Y0088144D01*
X0238265Y0086923D01*
X0237605Y0085328D01*
X0237605Y0083601D01*
X0238265Y0082006D01*
X0239486Y0080785D01*
X0237930Y0082817D02*
X0226275Y0082817D01*
X0226600Y0084390D02*
X0237605Y0084390D01*
X0237868Y0085963D02*
X0226337Y0085963D01*
X0225326Y0087537D02*
X0238879Y0087537D01*
X0245011Y0087537D02*
X0258564Y0087537D01*
X0259171Y0088144D02*
X0257951Y0086923D01*
X0257290Y0085328D01*
X0257290Y0083601D01*
X0257951Y0082006D01*
X0259171Y0080785D01*
X0260767Y0080124D01*
X0262493Y0080124D01*
X0264088Y0080785D01*
X0265309Y0082006D01*
X0265970Y0083601D01*
X0265970Y0085328D01*
X0265309Y0086923D01*
X0264088Y0088144D01*
X0262493Y0088805D01*
X0260767Y0088805D01*
X0259171Y0088144D01*
X0257553Y0085963D02*
X0246022Y0085963D01*
X0246285Y0084390D02*
X0257290Y0084390D01*
X0257615Y0082817D02*
X0245960Y0082817D01*
X0244862Y0081244D02*
X0258713Y0081244D01*
X0264547Y0081244D02*
X0276353Y0081244D01*
X0275702Y0082817D02*
X0265645Y0082817D01*
X0265970Y0084390D02*
X0275498Y0084390D01*
X0275640Y0085963D02*
X0265707Y0085963D01*
X0264696Y0087537D02*
X0276292Y0087537D01*
X0277884Y0079670D02*
X0010531Y0079670D01*
X0010531Y0090683D02*
X0335563Y0090683D01*
X0335563Y0092257D02*
X0010531Y0092257D01*
X0010531Y0093830D02*
X0335563Y0093830D01*
X0335563Y0095403D02*
X0010531Y0095403D01*
X0010531Y0096977D02*
X0335563Y0096977D01*
X0335563Y0098550D02*
X0322366Y0098550D01*
X0321842Y0098333D02*
X0323980Y0099219D01*
X0325616Y0100855D01*
X0326502Y0102993D01*
X0326502Y0105307D01*
X0325616Y0107444D01*
X0323980Y0109081D01*
X0321842Y0109966D01*
X0319528Y0109966D01*
X0317390Y0109081D01*
X0315754Y0107444D01*
X0314869Y0105307D01*
X0314869Y0102993D01*
X0315754Y0100855D01*
X0317390Y0099219D01*
X0319528Y0098333D01*
X0321842Y0098333D01*
X0319004Y0098550D02*
X0302681Y0098550D01*
X0302157Y0098333D02*
X0304295Y0099219D01*
X0305931Y0100855D01*
X0306817Y0102993D01*
X0306817Y0105307D01*
X0305931Y0107444D01*
X0304295Y0109081D01*
X0302157Y0109966D01*
X0299843Y0109966D01*
X0297705Y0109081D01*
X0296069Y0107444D01*
X0295183Y0105307D01*
X0295183Y0102993D01*
X0296069Y0100855D01*
X0297705Y0099219D01*
X0299843Y0098333D01*
X0302157Y0098333D01*
X0299319Y0098550D02*
X0010531Y0098550D01*
X0010531Y0100123D02*
X0240324Y0100123D01*
X0241082Y0099809D02*
X0239486Y0100470D01*
X0238265Y0101691D01*
X0237605Y0103286D01*
X0237605Y0105013D01*
X0238265Y0106608D01*
X0239486Y0107829D01*
X0241082Y0108490D01*
X0242808Y0108490D01*
X0244403Y0107829D01*
X0245624Y0106608D01*
X0246285Y0105013D01*
X0246285Y0103286D01*
X0245624Y0101691D01*
X0244403Y0100470D01*
X0242808Y0099809D01*
X0241082Y0099809D01*
X0243566Y0100123D02*
X0260009Y0100123D01*
X0260767Y0099809D02*
X0262493Y0099809D01*
X0264088Y0100470D01*
X0265309Y0101691D01*
X0265970Y0103286D01*
X0265970Y0105013D01*
X0265309Y0106608D01*
X0264088Y0107829D01*
X0262493Y0108490D01*
X0260767Y0108490D01*
X0259171Y0107829D01*
X0257951Y0106608D01*
X0257290Y0105013D01*
X0257290Y0103286D01*
X0257951Y0101691D01*
X0259171Y0100470D01*
X0260767Y0099809D01*
X0263251Y0100123D02*
X0279694Y0100123D01*
X0280452Y0099809D02*
X0278856Y0100470D01*
X0277636Y0101691D01*
X0276975Y0103286D01*
X0276975Y0105013D01*
X0277636Y0106608D01*
X0278856Y0107829D01*
X0280452Y0108490D01*
X0282178Y0108490D01*
X0283773Y0107829D01*
X0284994Y0106608D01*
X0285655Y0105013D01*
X0285655Y0103286D01*
X0284994Y0101691D01*
X0283773Y0100470D01*
X0282178Y0099809D01*
X0280452Y0099809D01*
X0282936Y0100123D02*
X0296800Y0100123D01*
X0295720Y0101697D02*
X0284997Y0101697D01*
X0285648Y0103270D02*
X0295183Y0103270D01*
X0295183Y0104843D02*
X0285655Y0104843D01*
X0285074Y0106417D02*
X0295643Y0106417D01*
X0296614Y0107990D02*
X0283385Y0107990D01*
X0279245Y0107990D02*
X0263700Y0107990D01*
X0265389Y0106417D02*
X0277556Y0106417D01*
X0276975Y0104843D02*
X0265970Y0104843D01*
X0265963Y0103270D02*
X0276982Y0103270D01*
X0277633Y0101697D02*
X0265312Y0101697D01*
X0257948Y0101697D02*
X0245627Y0101697D01*
X0246278Y0103270D02*
X0257297Y0103270D01*
X0257290Y0104843D02*
X0246285Y0104843D01*
X0245704Y0106417D02*
X0257871Y0106417D01*
X0259560Y0107990D02*
X0244015Y0107990D01*
X0239875Y0107990D02*
X0010531Y0107990D01*
X0010531Y0109563D02*
X0298870Y0109563D01*
X0303130Y0109563D02*
X0318555Y0109563D01*
X0316299Y0107990D02*
X0305386Y0107990D01*
X0306357Y0106417D02*
X0315328Y0106417D01*
X0314869Y0104843D02*
X0306817Y0104843D01*
X0306817Y0103270D02*
X0314869Y0103270D01*
X0315405Y0101697D02*
X0306280Y0101697D01*
X0305199Y0100123D02*
X0316486Y0100123D01*
X0324885Y0100123D02*
X0335563Y0100123D01*
X0335563Y0101697D02*
X0325965Y0101697D01*
X0326502Y0103270D02*
X0335563Y0103270D01*
X0335563Y0104843D02*
X0326502Y0104843D01*
X0326042Y0106417D02*
X0335563Y0106417D01*
X0335563Y0107990D02*
X0325071Y0107990D01*
X0322815Y0109563D02*
X0335563Y0109563D01*
X0335563Y0111136D02*
X0010531Y0111136D01*
X0010531Y0112710D02*
X0335563Y0112710D01*
X0335563Y0114283D02*
X0010531Y0114283D01*
X0010531Y0115856D02*
X0335563Y0115856D01*
X0335563Y0117430D02*
X0010531Y0117430D01*
X0010531Y0119003D02*
X0317291Y0119003D01*
X0317390Y0118904D02*
X0319528Y0118018D01*
X0321842Y0118018D01*
X0323980Y0118904D01*
X0325616Y0120540D01*
X0326502Y0122678D01*
X0326502Y0124992D01*
X0325616Y0127129D01*
X0323980Y0128766D01*
X0321842Y0129651D01*
X0319528Y0129651D01*
X0317390Y0128766D01*
X0315754Y0127129D01*
X0314869Y0124992D01*
X0314869Y0122678D01*
X0315754Y0120540D01*
X0317390Y0118904D01*
X0315739Y0120576D02*
X0303880Y0120576D01*
X0303458Y0120155D02*
X0304679Y0121376D01*
X0305340Y0122971D01*
X0305340Y0124698D01*
X0304679Y0126293D01*
X0303458Y0127514D01*
X0301863Y0128175D01*
X0300137Y0128175D01*
X0298541Y0127514D01*
X0297321Y0126293D01*
X0296660Y0124698D01*
X0296660Y0122971D01*
X0297321Y0121376D01*
X0298541Y0120155D01*
X0300137Y0119494D01*
X0301863Y0119494D01*
X0303458Y0120155D01*
X0305000Y0122150D02*
X0315087Y0122150D01*
X0314869Y0123723D02*
X0305340Y0123723D01*
X0305092Y0125296D02*
X0314995Y0125296D01*
X0315646Y0126870D02*
X0304103Y0126870D01*
X0297897Y0126870D02*
X0284418Y0126870D01*
X0284994Y0126293D02*
X0283773Y0127514D01*
X0282178Y0128175D01*
X0280452Y0128175D01*
X0278856Y0127514D01*
X0277636Y0126293D01*
X0276975Y0124698D01*
X0276975Y0122971D01*
X0277636Y0121376D01*
X0278856Y0120155D01*
X0280452Y0119494D01*
X0282178Y0119494D01*
X0283773Y0120155D01*
X0284994Y0121376D01*
X0285655Y0122971D01*
X0285655Y0124698D01*
X0284994Y0126293D01*
X0285407Y0125296D02*
X0296908Y0125296D01*
X0296660Y0123723D02*
X0285655Y0123723D01*
X0285315Y0122150D02*
X0297000Y0122150D01*
X0298120Y0120576D02*
X0284195Y0120576D01*
X0278435Y0120576D02*
X0264510Y0120576D01*
X0264088Y0120155D02*
X0265309Y0121376D01*
X0265970Y0122971D01*
X0265970Y0124698D01*
X0265309Y0126293D01*
X0264088Y0127514D01*
X0262493Y0128175D01*
X0260767Y0128175D01*
X0259171Y0127514D01*
X0257951Y0126293D01*
X0257290Y0124698D01*
X0257290Y0122971D01*
X0257951Y0121376D01*
X0259171Y0120155D01*
X0260767Y0119494D01*
X0262493Y0119494D01*
X0264088Y0120155D01*
X0265630Y0122150D02*
X0277315Y0122150D01*
X0276975Y0123723D02*
X0265970Y0123723D01*
X0265722Y0125296D02*
X0277223Y0125296D01*
X0278212Y0126870D02*
X0264733Y0126870D01*
X0258527Y0126870D02*
X0242906Y0126870D01*
X0242576Y0127006D02*
X0241314Y0127006D01*
X0240148Y0126523D01*
X0239256Y0125631D01*
X0238773Y0124466D01*
X0238773Y0123204D01*
X0239256Y0122038D01*
X0240148Y0121146D01*
X0241314Y0120663D01*
X0242576Y0120663D01*
X0243741Y0121146D01*
X0244634Y0122038D01*
X0245117Y0123204D01*
X0245117Y0124466D01*
X0244634Y0125631D01*
X0243741Y0126523D01*
X0242576Y0127006D01*
X0240984Y0126870D02*
X0223221Y0126870D01*
X0222891Y0127006D02*
X0221629Y0127006D01*
X0220463Y0126523D01*
X0219571Y0125631D01*
X0219088Y0124466D01*
X0219088Y0123204D01*
X0219571Y0122038D01*
X0220463Y0121146D01*
X0221629Y0120663D01*
X0222891Y0120663D01*
X0224056Y0121146D01*
X0224949Y0122038D01*
X0225431Y0123204D01*
X0225431Y0124466D01*
X0224949Y0125631D01*
X0224056Y0126523D01*
X0222891Y0127006D01*
X0221299Y0126870D02*
X0203536Y0126870D01*
X0203206Y0127006D02*
X0201944Y0127006D01*
X0200778Y0126523D01*
X0199886Y0125631D01*
X0199403Y0124466D01*
X0199403Y0123204D01*
X0199886Y0122038D01*
X0200778Y0121146D01*
X0201944Y0120663D01*
X0203206Y0120663D01*
X0204371Y0121146D01*
X0205264Y0122038D01*
X0205746Y0123204D01*
X0205746Y0124466D01*
X0205264Y0125631D01*
X0204371Y0126523D01*
X0203206Y0127006D01*
X0201614Y0126870D02*
X0010531Y0126870D01*
X0010531Y0128443D02*
X0317068Y0128443D01*
X0324303Y0128443D02*
X0335563Y0128443D01*
X0335563Y0130016D02*
X0010531Y0130016D01*
X0010531Y0131590D02*
X0335563Y0131590D01*
X0335563Y0133163D02*
X0010531Y0133163D01*
X0010531Y0134736D02*
X0335563Y0134736D01*
X0335563Y0136310D02*
X0010531Y0136310D01*
X0010531Y0137883D02*
X0335563Y0137883D01*
X0335563Y0139456D02*
X0322216Y0139456D01*
X0321548Y0139180D02*
X0323144Y0139840D01*
X0324364Y0141061D01*
X0325025Y0142656D01*
X0325025Y0144383D01*
X0324364Y0145978D01*
X0323144Y0147199D01*
X0321548Y0147860D01*
X0319822Y0147860D01*
X0318227Y0147199D01*
X0317006Y0145978D01*
X0316345Y0144383D01*
X0316345Y0142656D01*
X0317006Y0141061D01*
X0318227Y0139840D01*
X0319822Y0139180D01*
X0321548Y0139180D01*
X0319154Y0139456D02*
X0302531Y0139456D01*
X0301863Y0139180D02*
X0303458Y0139840D01*
X0304679Y0141061D01*
X0305340Y0142656D01*
X0305340Y0144383D01*
X0304679Y0145978D01*
X0303458Y0147199D01*
X0301863Y0147860D01*
X0300137Y0147860D01*
X0298541Y0147199D01*
X0297321Y0145978D01*
X0296660Y0144383D01*
X0296660Y0142656D01*
X0297321Y0141061D01*
X0298541Y0139840D01*
X0300137Y0139180D01*
X0301863Y0139180D01*
X0299469Y0139456D02*
X0282846Y0139456D01*
X0282178Y0139180D02*
X0283773Y0139840D01*
X0284994Y0141061D01*
X0285655Y0142656D01*
X0285655Y0144383D01*
X0284994Y0145978D01*
X0283773Y0147199D01*
X0282178Y0147860D01*
X0280452Y0147860D01*
X0278856Y0147199D01*
X0277636Y0145978D01*
X0276975Y0144383D01*
X0276975Y0142656D01*
X0277636Y0141061D01*
X0278856Y0139840D01*
X0280452Y0139180D01*
X0282178Y0139180D01*
X0279784Y0139456D02*
X0010531Y0139456D01*
X0010531Y0141029D02*
X0220265Y0141029D01*
X0220463Y0140831D02*
X0221629Y0140348D01*
X0222891Y0140348D01*
X0224056Y0140831D01*
X0224949Y0141723D01*
X0225431Y0142889D01*
X0225431Y0144151D01*
X0224949Y0145316D01*
X0224056Y0146208D01*
X0222891Y0146691D01*
X0221629Y0146691D01*
X0220463Y0146208D01*
X0219571Y0145316D01*
X0219088Y0144151D01*
X0219088Y0142889D01*
X0219571Y0141723D01*
X0220463Y0140831D01*
X0219207Y0142603D02*
X0204751Y0142603D01*
X0204762Y0142614D02*
X0203481Y0141332D01*
X0201669Y0141332D01*
X0200387Y0142614D01*
X0200387Y0144426D01*
X0201669Y0145707D01*
X0203481Y0145707D01*
X0204762Y0144426D01*
X0204762Y0142614D01*
X0204762Y0144176D02*
X0219099Y0144176D01*
X0220004Y0145749D02*
X0010531Y0145749D01*
X0010531Y0144176D02*
X0200387Y0144176D01*
X0200398Y0142603D02*
X0010531Y0142603D01*
X0010531Y0147323D02*
X0279155Y0147323D01*
X0277541Y0145749D02*
X0263886Y0145749D01*
X0264319Y0145316D02*
X0263427Y0146208D01*
X0262261Y0146691D01*
X0260999Y0146691D01*
X0259833Y0146208D01*
X0258941Y0145316D01*
X0258458Y0144151D01*
X0258458Y0142889D01*
X0258941Y0141723D01*
X0259833Y0140831D01*
X0260999Y0140348D01*
X0262261Y0140348D01*
X0263427Y0140831D01*
X0264319Y0141723D01*
X0264802Y0142889D01*
X0264802Y0144151D01*
X0264319Y0145316D01*
X0264791Y0144176D02*
X0276975Y0144176D01*
X0276997Y0142603D02*
X0264683Y0142603D01*
X0263625Y0141029D02*
X0277667Y0141029D01*
X0284963Y0141029D02*
X0297352Y0141029D01*
X0296682Y0142603D02*
X0285633Y0142603D01*
X0285655Y0144176D02*
X0296660Y0144176D01*
X0297226Y0145749D02*
X0285089Y0145749D01*
X0283475Y0147323D02*
X0298840Y0147323D01*
X0303160Y0147323D02*
X0318525Y0147323D01*
X0316911Y0145749D02*
X0304774Y0145749D01*
X0305340Y0144176D02*
X0316345Y0144176D01*
X0316367Y0142603D02*
X0305318Y0142603D01*
X0304648Y0141029D02*
X0317037Y0141029D01*
X0324333Y0141029D02*
X0335563Y0141029D01*
X0335563Y0142603D02*
X0325003Y0142603D01*
X0325025Y0144176D02*
X0335563Y0144176D01*
X0335563Y0145749D02*
X0324459Y0145749D01*
X0322845Y0147323D02*
X0335563Y0147323D01*
X0335563Y0148896D02*
X0010531Y0148896D01*
X0010531Y0150469D02*
X0335563Y0150469D01*
X0335563Y0152043D02*
X0010531Y0152043D01*
X0010531Y0153616D02*
X0335563Y0153616D01*
X0335563Y0155189D02*
X0010531Y0155189D01*
X0010531Y0156763D02*
X0335563Y0156763D01*
X0335563Y0158336D02*
X0010531Y0158336D01*
X0010531Y0159909D02*
X0298158Y0159909D01*
X0298541Y0159525D02*
X0300137Y0158865D01*
X0301863Y0158865D01*
X0303458Y0159525D01*
X0304679Y0160746D01*
X0305340Y0162341D01*
X0305340Y0164068D01*
X0304679Y0165663D01*
X0303458Y0166884D01*
X0301863Y0167545D01*
X0300137Y0167545D01*
X0298541Y0166884D01*
X0297321Y0165663D01*
X0296660Y0164068D01*
X0296660Y0162341D01*
X0297321Y0160746D01*
X0298541Y0159525D01*
X0297016Y0161483D02*
X0284035Y0161483D01*
X0284004Y0161408D02*
X0284487Y0162574D01*
X0284487Y0163836D01*
X0284004Y0165001D01*
X0283112Y0165894D01*
X0281946Y0166376D01*
X0280684Y0166376D01*
X0279518Y0165894D01*
X0278626Y0165001D01*
X0278143Y0163836D01*
X0278143Y0162574D01*
X0278626Y0161408D01*
X0279518Y0160516D01*
X0280684Y0160033D01*
X0281946Y0160033D01*
X0283112Y0160516D01*
X0284004Y0161408D01*
X0284487Y0163056D02*
X0296660Y0163056D01*
X0296892Y0164629D02*
X0284158Y0164629D01*
X0282366Y0166202D02*
X0297860Y0166202D01*
X0304140Y0166202D02*
X0317545Y0166202D01*
X0317006Y0165663D02*
X0316345Y0164068D01*
X0316345Y0162341D01*
X0317006Y0160746D01*
X0318227Y0159525D01*
X0319822Y0158865D01*
X0321548Y0158865D01*
X0323144Y0159525D01*
X0324364Y0160746D01*
X0325025Y0162341D01*
X0325025Y0164068D01*
X0324364Y0165663D01*
X0323144Y0166884D01*
X0321548Y0167545D01*
X0319822Y0167545D01*
X0318227Y0166884D01*
X0317006Y0165663D01*
X0316577Y0164629D02*
X0305108Y0164629D01*
X0305340Y0163056D02*
X0316345Y0163056D01*
X0316701Y0161483D02*
X0304984Y0161483D01*
X0303842Y0159909D02*
X0317843Y0159909D01*
X0323527Y0159909D02*
X0335563Y0159909D01*
X0335563Y0161483D02*
X0324669Y0161483D01*
X0325025Y0163056D02*
X0335563Y0163056D01*
X0335563Y0164629D02*
X0324793Y0164629D01*
X0323825Y0166202D02*
X0335563Y0166202D01*
X0335563Y0167776D02*
X0010531Y0167776D01*
X0010531Y0169349D02*
X0335563Y0169349D01*
X0335563Y0170922D02*
X0010531Y0170922D01*
X0010531Y0172496D02*
X0335563Y0172496D01*
X0335563Y0174069D02*
X0010531Y0174069D01*
X0010531Y0175642D02*
X0335563Y0175642D01*
X0335563Y0177216D02*
X0010531Y0177216D01*
X0010531Y0178789D02*
X0319244Y0178789D01*
X0319822Y0178550D02*
X0321548Y0178550D01*
X0323144Y0179210D01*
X0324364Y0180431D01*
X0325025Y0182026D01*
X0325025Y0183753D01*
X0324364Y0185348D01*
X0323144Y0186569D01*
X0321548Y0187230D01*
X0319822Y0187230D01*
X0318227Y0186569D01*
X0317006Y0185348D01*
X0316345Y0183753D01*
X0316345Y0182026D01*
X0317006Y0180431D01*
X0318227Y0179210D01*
X0319822Y0178550D01*
X0322126Y0178789D02*
X0335563Y0178789D01*
X0335563Y0180362D02*
X0324295Y0180362D01*
X0324988Y0181936D02*
X0335563Y0181936D01*
X0335528Y0183509D02*
X0325025Y0183509D01*
X0324475Y0185082D02*
X0335349Y0185082D01*
X0334990Y0186656D02*
X0322935Y0186656D01*
X0318435Y0186656D02*
X0011104Y0186656D01*
X0010745Y0185082D02*
X0259337Y0185082D01*
X0258941Y0184686D02*
X0258458Y0183521D01*
X0258458Y0182259D01*
X0258941Y0181093D01*
X0259833Y0180201D01*
X0260999Y0179718D01*
X0262261Y0179718D01*
X0263427Y0180201D01*
X0264319Y0181093D01*
X0264802Y0182259D01*
X0264802Y0183521D01*
X0264319Y0184686D01*
X0263427Y0185579D01*
X0262261Y0186061D01*
X0260999Y0186061D01*
X0259833Y0185579D01*
X0258941Y0184686D01*
X0258458Y0183509D02*
X0244132Y0183509D01*
X0244132Y0183796D02*
X0242851Y0185077D01*
X0241039Y0185077D01*
X0239757Y0183796D01*
X0239757Y0181984D01*
X0241039Y0180702D01*
X0242851Y0180702D01*
X0244132Y0181984D01*
X0244132Y0183796D01*
X0244084Y0181936D02*
X0258592Y0181936D01*
X0259672Y0180362D02*
X0010531Y0180362D01*
X0010531Y0181936D02*
X0200435Y0181936D01*
X0200387Y0181984D02*
X0201669Y0180702D01*
X0203481Y0180702D01*
X0204762Y0181984D01*
X0204762Y0183796D01*
X0203481Y0185077D01*
X0201669Y0185077D01*
X0200387Y0183796D01*
X0200387Y0181984D01*
X0200387Y0183509D02*
X0010566Y0183509D01*
X0011571Y0188229D02*
X0334523Y0188229D01*
X0333766Y0189802D02*
X0012329Y0189802D01*
X0013267Y0191376D02*
X0332828Y0191376D01*
X0331573Y0192949D02*
X0014521Y0192949D01*
X0016284Y0194522D02*
X0329811Y0194522D01*
X0327338Y0196095D02*
X0018757Y0196095D01*
X0023720Y0197669D02*
X0322374Y0197669D01*
X0316895Y0185082D02*
X0303293Y0185082D01*
X0303689Y0184686D02*
X0302797Y0185579D01*
X0301631Y0186061D01*
X0300369Y0186061D01*
X0299203Y0185579D01*
X0298311Y0184686D01*
X0297828Y0183521D01*
X0297828Y0182259D01*
X0298311Y0181093D01*
X0299203Y0180201D01*
X0300369Y0179718D01*
X0301631Y0179718D01*
X0302797Y0180201D01*
X0303689Y0181093D01*
X0304172Y0182259D01*
X0304172Y0183521D01*
X0303689Y0184686D01*
X0304172Y0183509D02*
X0316345Y0183509D01*
X0316382Y0181936D02*
X0304038Y0181936D01*
X0302958Y0180362D02*
X0317075Y0180362D01*
X0299042Y0180362D02*
X0283273Y0180362D01*
X0283112Y0180201D02*
X0284004Y0181093D01*
X0284487Y0182259D01*
X0284487Y0183521D01*
X0284004Y0184686D01*
X0283112Y0185579D01*
X0281946Y0186061D01*
X0280684Y0186061D01*
X0279518Y0185579D01*
X0278626Y0184686D01*
X0278143Y0183521D01*
X0278143Y0182259D01*
X0278626Y0181093D01*
X0279518Y0180201D01*
X0280684Y0179718D01*
X0281946Y0179718D01*
X0283112Y0180201D01*
X0284353Y0181936D02*
X0297962Y0181936D01*
X0297828Y0183509D02*
X0284487Y0183509D01*
X0283608Y0185082D02*
X0298707Y0185082D01*
X0279022Y0185082D02*
X0263923Y0185082D01*
X0264802Y0183509D02*
X0278143Y0183509D01*
X0278277Y0181936D02*
X0264668Y0181936D01*
X0263588Y0180362D02*
X0279357Y0180362D01*
X0280264Y0166202D02*
X0262681Y0166202D01*
X0262261Y0166376D02*
X0260999Y0166376D01*
X0259833Y0165894D01*
X0258941Y0165001D01*
X0258458Y0163836D01*
X0258458Y0162574D01*
X0258941Y0161408D01*
X0259833Y0160516D01*
X0260999Y0160033D01*
X0262261Y0160033D01*
X0263427Y0160516D01*
X0264319Y0161408D01*
X0264802Y0162574D01*
X0264802Y0163836D01*
X0264319Y0165001D01*
X0263427Y0165894D01*
X0262261Y0166376D01*
X0260579Y0166202D02*
X0242996Y0166202D01*
X0242576Y0166376D02*
X0241314Y0166376D01*
X0240148Y0165894D01*
X0239256Y0165001D01*
X0238773Y0163836D01*
X0238773Y0162574D01*
X0239256Y0161408D01*
X0240148Y0160516D01*
X0241314Y0160033D01*
X0242576Y0160033D01*
X0243741Y0160516D01*
X0244634Y0161408D01*
X0245117Y0162574D01*
X0245117Y0163836D01*
X0244634Y0165001D01*
X0243741Y0165894D01*
X0242576Y0166376D01*
X0240894Y0166202D02*
X0010531Y0166202D01*
X0010531Y0164629D02*
X0200906Y0164629D01*
X0200387Y0164111D02*
X0201669Y0165392D01*
X0203481Y0165392D01*
X0204762Y0164111D01*
X0204762Y0162299D01*
X0203481Y0161017D01*
X0201669Y0161017D01*
X0200387Y0162299D01*
X0200387Y0164111D01*
X0200387Y0163056D02*
X0010531Y0163056D01*
X0010531Y0161483D02*
X0201203Y0161483D01*
X0203946Y0161483D02*
X0220889Y0161483D01*
X0221354Y0161017D02*
X0223166Y0161017D01*
X0224447Y0162299D01*
X0224447Y0164111D01*
X0223166Y0165392D01*
X0221354Y0165392D01*
X0220072Y0164111D01*
X0220072Y0162299D01*
X0221354Y0161017D01*
X0223631Y0161483D02*
X0239225Y0161483D01*
X0238773Y0163056D02*
X0224447Y0163056D01*
X0223929Y0164629D02*
X0239102Y0164629D01*
X0244788Y0164629D02*
X0258787Y0164629D01*
X0258458Y0163056D02*
X0245117Y0163056D01*
X0244664Y0161483D02*
X0258910Y0161483D01*
X0264350Y0161483D02*
X0278595Y0161483D01*
X0278143Y0163056D02*
X0264802Y0163056D01*
X0264473Y0164629D02*
X0278472Y0164629D01*
X0259374Y0145749D02*
X0244201Y0145749D01*
X0244634Y0145316D02*
X0243741Y0146208D01*
X0242576Y0146691D01*
X0241314Y0146691D01*
X0240148Y0146208D01*
X0239256Y0145316D01*
X0238773Y0144151D01*
X0238773Y0142889D01*
X0239256Y0141723D01*
X0240148Y0140831D01*
X0241314Y0140348D01*
X0242576Y0140348D01*
X0243741Y0140831D01*
X0244634Y0141723D01*
X0245117Y0142889D01*
X0245117Y0144151D01*
X0244634Y0145316D01*
X0245106Y0144176D02*
X0258469Y0144176D01*
X0258577Y0142603D02*
X0244998Y0142603D01*
X0243940Y0141029D02*
X0259635Y0141029D01*
X0239950Y0141029D02*
X0224255Y0141029D01*
X0225313Y0142603D02*
X0238892Y0142603D01*
X0238784Y0144176D02*
X0225421Y0144176D01*
X0224516Y0145749D02*
X0239689Y0145749D01*
X0239117Y0125296D02*
X0225087Y0125296D01*
X0225431Y0123723D02*
X0238773Y0123723D01*
X0239210Y0122150D02*
X0224995Y0122150D01*
X0219525Y0122150D02*
X0205310Y0122150D01*
X0205746Y0123723D02*
X0219088Y0123723D01*
X0219432Y0125296D02*
X0205402Y0125296D01*
X0199747Y0125296D02*
X0010531Y0125296D01*
X0010531Y0123723D02*
X0199403Y0123723D01*
X0199840Y0122150D02*
X0010531Y0122150D01*
X0010531Y0120576D02*
X0258750Y0120576D01*
X0257630Y0122150D02*
X0244680Y0122150D01*
X0245117Y0123723D02*
X0257290Y0123723D01*
X0257538Y0125296D02*
X0244772Y0125296D01*
X0238186Y0106417D02*
X0224478Y0106417D01*
X0224056Y0106838D02*
X0222891Y0107321D01*
X0221629Y0107321D01*
X0220463Y0106838D01*
X0219571Y0105946D01*
X0219088Y0104780D01*
X0219088Y0103519D01*
X0219571Y0102353D01*
X0220463Y0101461D01*
X0221629Y0100978D01*
X0222891Y0100978D01*
X0224056Y0101461D01*
X0224949Y0102353D01*
X0225431Y0103519D01*
X0225431Y0104780D01*
X0224949Y0105946D01*
X0224056Y0106838D01*
X0225405Y0104843D02*
X0237605Y0104843D01*
X0237612Y0103270D02*
X0225328Y0103270D01*
X0224292Y0101697D02*
X0238263Y0101697D01*
X0220227Y0101697D02*
X0204607Y0101697D01*
X0204371Y0101461D02*
X0205264Y0102353D01*
X0205746Y0103519D01*
X0205746Y0104780D01*
X0205264Y0105946D01*
X0204371Y0106838D01*
X0203206Y0107321D01*
X0201944Y0107321D01*
X0200778Y0106838D01*
X0199886Y0105946D01*
X0199403Y0104780D01*
X0199403Y0103519D01*
X0199886Y0102353D01*
X0200778Y0101461D01*
X0201944Y0100978D01*
X0203206Y0100978D01*
X0204371Y0101461D01*
X0205643Y0103270D02*
X0219191Y0103270D01*
X0219114Y0104843D02*
X0205720Y0104843D01*
X0204793Y0106417D02*
X0220041Y0106417D01*
X0200356Y0106417D02*
X0185108Y0106417D01*
X0184686Y0106838D02*
X0183521Y0107321D01*
X0182259Y0107321D01*
X0181093Y0106838D01*
X0180201Y0105946D01*
X0179718Y0104780D01*
X0179718Y0103519D01*
X0180201Y0102353D01*
X0181093Y0101461D01*
X0182259Y0100978D01*
X0183521Y0100978D01*
X0184686Y0101461D01*
X0185579Y0102353D01*
X0186061Y0103519D01*
X0186061Y0104780D01*
X0185579Y0105946D01*
X0184686Y0106838D01*
X0186035Y0104843D02*
X0199429Y0104843D01*
X0199506Y0103270D02*
X0185958Y0103270D01*
X0184922Y0101697D02*
X0200542Y0101697D01*
X0180857Y0101697D02*
X0010531Y0101697D01*
X0010531Y0103270D02*
X0141332Y0103270D01*
X0141332Y0103244D02*
X0142614Y0101962D01*
X0144426Y0101962D01*
X0145707Y0103244D01*
X0145707Y0105056D01*
X0144426Y0106337D01*
X0142614Y0106337D01*
X0141332Y0105056D01*
X0141332Y0103244D01*
X0141332Y0104843D02*
X0010531Y0104843D01*
X0010531Y0106417D02*
X0180671Y0106417D01*
X0179744Y0104843D02*
X0165392Y0104843D01*
X0165392Y0105056D02*
X0164111Y0106337D01*
X0162299Y0106337D01*
X0161017Y0105056D01*
X0161017Y0103244D01*
X0162299Y0101962D01*
X0164111Y0101962D01*
X0165392Y0103244D01*
X0165392Y0105056D01*
X0165392Y0103270D02*
X0179821Y0103270D01*
X0161017Y0103270D02*
X0145707Y0103270D01*
X0145707Y0104843D02*
X0161017Y0104843D01*
X0219801Y0068459D02*
X0221397Y0069120D01*
X0223123Y0069120D01*
X0224718Y0068459D01*
X0225939Y0067238D01*
X0226600Y0065643D01*
X0226600Y0063916D01*
X0225939Y0062321D01*
X0224718Y0061100D01*
X0223123Y0060439D01*
X0221397Y0060439D01*
X0219801Y0061100D01*
X0218580Y0062321D01*
X0217920Y0063916D01*
X0217920Y0065643D01*
X0218580Y0067238D01*
X0219801Y0068459D01*
X0220280Y0068657D02*
X0204555Y0068657D01*
X0206318Y0067084D02*
X0218517Y0067084D01*
X0217920Y0065510D02*
X0206915Y0065510D01*
X0206915Y0063937D02*
X0217920Y0063937D01*
X0218563Y0062364D02*
X0206272Y0062364D01*
X0204286Y0060790D02*
X0220549Y0060790D01*
X0223971Y0060790D02*
X0240234Y0060790D01*
X0239486Y0061100D02*
X0241082Y0060439D01*
X0242808Y0060439D01*
X0244403Y0061100D01*
X0245624Y0062321D01*
X0246285Y0063916D01*
X0246285Y0065643D01*
X0245624Y0067238D01*
X0244403Y0068459D01*
X0242808Y0069120D01*
X0241082Y0069120D01*
X0239486Y0068459D01*
X0238265Y0067238D01*
X0237605Y0065643D01*
X0237605Y0063916D01*
X0238265Y0062321D01*
X0239486Y0061100D01*
X0238248Y0062364D02*
X0225957Y0062364D01*
X0226600Y0063937D02*
X0237605Y0063937D01*
X0237605Y0065510D02*
X0226600Y0065510D01*
X0226003Y0067084D02*
X0238202Y0067084D01*
X0239965Y0068657D02*
X0224240Y0068657D01*
X0243925Y0068657D02*
X0257282Y0068657D01*
X0256289Y0067084D02*
X0245688Y0067084D01*
X0246285Y0065510D02*
X0255813Y0065510D01*
X0255813Y0063937D02*
X0246285Y0063937D01*
X0245642Y0062364D02*
X0256335Y0062364D01*
X0257393Y0060790D02*
X0243656Y0060790D01*
X0243102Y0031226D02*
X0240788Y0031226D01*
X0238650Y0030340D01*
X0237014Y0028704D01*
X0236128Y0026566D01*
X0236128Y0024252D01*
X0237014Y0022115D01*
X0238650Y0020478D01*
X0240788Y0019593D01*
X0243102Y0019593D01*
X0245240Y0020478D01*
X0246876Y0022115D01*
X0247761Y0024252D01*
X0247761Y0026566D01*
X0246876Y0028704D01*
X0245240Y0030340D01*
X0243102Y0031226D01*
X0243895Y0030897D02*
X0259680Y0030897D01*
X0260473Y0031226D02*
X0258335Y0030340D01*
X0256699Y0028704D01*
X0255813Y0026566D01*
X0255813Y0024252D01*
X0256699Y0022115D01*
X0258335Y0020478D01*
X0260473Y0019593D01*
X0262787Y0019593D01*
X0264925Y0020478D01*
X0266561Y0022115D01*
X0267446Y0024252D01*
X0267446Y0026566D01*
X0266561Y0028704D01*
X0264925Y0030340D01*
X0262787Y0031226D01*
X0260473Y0031226D01*
X0263580Y0030897D02*
X0276489Y0030897D01*
X0275043Y0029324D02*
X0265941Y0029324D01*
X0266956Y0027751D02*
X0274391Y0027751D01*
X0274022Y0026177D02*
X0267446Y0026177D01*
X0267446Y0024604D02*
X0274022Y0024604D01*
X0274406Y0023031D02*
X0266940Y0023031D01*
X0265904Y0021458D02*
X0275058Y0021458D01*
X0276526Y0019884D02*
X0263490Y0019884D01*
X0259770Y0019884D02*
X0243805Y0019884D01*
X0246219Y0021458D02*
X0257356Y0021458D01*
X0256319Y0023031D02*
X0247255Y0023031D01*
X0247761Y0024604D02*
X0255813Y0024604D01*
X0255813Y0026177D02*
X0247761Y0026177D01*
X0247271Y0027751D02*
X0256304Y0027751D01*
X0257319Y0029324D02*
X0246256Y0029324D01*
X0239995Y0030897D02*
X0224210Y0030897D01*
X0223417Y0031226D02*
X0221103Y0031226D01*
X0218965Y0030340D01*
X0217329Y0028704D01*
X0216443Y0026566D01*
X0216443Y0024252D01*
X0217329Y0022115D01*
X0218965Y0020478D01*
X0221103Y0019593D01*
X0223417Y0019593D01*
X0225555Y0020478D01*
X0227191Y0022115D01*
X0228076Y0024252D01*
X0228076Y0026566D01*
X0227191Y0028704D01*
X0225555Y0030340D01*
X0223417Y0031226D01*
X0220310Y0030897D02*
X0010531Y0030897D01*
X0010531Y0029324D02*
X0161314Y0029324D01*
X0160746Y0029089D02*
X0162341Y0029750D01*
X0164068Y0029750D01*
X0165663Y0029089D01*
X0166884Y0027868D01*
X0167545Y0026273D01*
X0167545Y0024546D01*
X0166884Y0022951D01*
X0165663Y0021730D01*
X0164068Y0021069D01*
X0162341Y0021069D01*
X0160746Y0021730D01*
X0159525Y0022951D01*
X0158865Y0024546D01*
X0158865Y0026273D01*
X0159525Y0027868D01*
X0160746Y0029089D01*
X0159477Y0027751D02*
X0145664Y0027751D01*
X0145316Y0028098D02*
X0146208Y0027206D01*
X0146691Y0026040D01*
X0146691Y0024779D01*
X0146208Y0023613D01*
X0145316Y0022721D01*
X0144151Y0022238D01*
X0142889Y0022238D01*
X0141723Y0022721D01*
X0140831Y0023613D01*
X0140348Y0024779D01*
X0140348Y0026040D01*
X0140831Y0027206D01*
X0141723Y0028098D01*
X0142889Y0028581D01*
X0144151Y0028581D01*
X0145316Y0028098D01*
X0146635Y0026177D02*
X0158865Y0026177D01*
X0158865Y0024604D02*
X0146619Y0024604D01*
X0145627Y0023031D02*
X0159492Y0023031D01*
X0161404Y0021458D02*
X0011147Y0021458D01*
X0010788Y0023031D02*
X0102043Y0023031D01*
X0102353Y0022721D02*
X0101461Y0023613D01*
X0100978Y0024779D01*
X0100978Y0026040D01*
X0101461Y0027206D01*
X0102353Y0028098D01*
X0103519Y0028581D01*
X0104780Y0028581D01*
X0105946Y0028098D01*
X0106838Y0027206D01*
X0107321Y0026040D01*
X0107321Y0024779D01*
X0106838Y0023613D01*
X0105946Y0022721D01*
X0104780Y0022238D01*
X0103519Y0022238D01*
X0102353Y0022721D01*
X0101050Y0024604D02*
X0086652Y0024604D01*
X0086652Y0024503D02*
X0085371Y0023222D01*
X0083559Y0023222D01*
X0082277Y0024503D01*
X0082277Y0026316D01*
X0083559Y0027597D01*
X0085371Y0027597D01*
X0086652Y0026316D01*
X0086652Y0024503D01*
X0086652Y0026177D02*
X0101035Y0026177D01*
X0102006Y0027751D02*
X0010531Y0027751D01*
X0010531Y0026177D02*
X0042907Y0026177D01*
X0042907Y0026316D02*
X0042907Y0024503D01*
X0044188Y0023222D01*
X0046001Y0023222D01*
X0047282Y0024503D01*
X0047282Y0026316D01*
X0046001Y0027597D01*
X0044188Y0027597D01*
X0042907Y0026316D01*
X0042907Y0024604D02*
X0010577Y0024604D01*
X0011661Y0019884D02*
X0220400Y0019884D01*
X0217986Y0021458D02*
X0204375Y0021458D01*
X0205033Y0021730D02*
X0206254Y0022951D01*
X0206915Y0024546D01*
X0206915Y0026273D01*
X0206254Y0027868D01*
X0205033Y0029089D01*
X0203438Y0029750D01*
X0201711Y0029750D01*
X0200116Y0029089D01*
X0198895Y0027868D01*
X0198235Y0026273D01*
X0198235Y0024546D01*
X0198895Y0022951D01*
X0200116Y0021730D01*
X0201711Y0021069D01*
X0203438Y0021069D01*
X0205033Y0021730D01*
X0206287Y0023031D02*
X0216949Y0023031D01*
X0216443Y0024604D02*
X0206915Y0024604D01*
X0206915Y0026177D02*
X0216443Y0026177D01*
X0216934Y0027751D02*
X0206303Y0027751D01*
X0204465Y0029324D02*
X0217949Y0029324D01*
X0226571Y0029324D02*
X0237634Y0029324D01*
X0236619Y0027751D02*
X0227586Y0027751D01*
X0228076Y0026177D02*
X0236128Y0026177D01*
X0236128Y0024604D02*
X0228076Y0024604D01*
X0227570Y0023031D02*
X0236634Y0023031D01*
X0237671Y0021458D02*
X0226534Y0021458D01*
X0224120Y0019884D02*
X0240085Y0019884D01*
X0200774Y0021458D02*
X0184690Y0021458D01*
X0185348Y0021730D02*
X0186569Y0022951D01*
X0187230Y0024546D01*
X0187230Y0026273D01*
X0186569Y0027868D01*
X0185348Y0029089D01*
X0183753Y0029750D01*
X0182026Y0029750D01*
X0180431Y0029089D01*
X0179210Y0027868D01*
X0178550Y0026273D01*
X0178550Y0024546D01*
X0179210Y0022951D01*
X0180431Y0021730D01*
X0182026Y0021069D01*
X0183753Y0021069D01*
X0185348Y0021730D01*
X0186602Y0023031D02*
X0198862Y0023031D01*
X0198235Y0024604D02*
X0187230Y0024604D01*
X0187230Y0026177D02*
X0198235Y0026177D01*
X0198847Y0027751D02*
X0186618Y0027751D01*
X0184780Y0029324D02*
X0200684Y0029324D01*
X0180999Y0029324D02*
X0165095Y0029324D01*
X0166933Y0027751D02*
X0179162Y0027751D01*
X0178550Y0026177D02*
X0167545Y0026177D01*
X0167545Y0024604D02*
X0178550Y0024604D01*
X0179177Y0023031D02*
X0166917Y0023031D01*
X0165005Y0021458D02*
X0181089Y0021458D01*
X0179936Y0041911D02*
X0010531Y0041911D01*
X0010531Y0043484D02*
X0063297Y0043484D01*
X0063873Y0042907D02*
X0065686Y0042907D01*
X0066967Y0044188D01*
X0066967Y0046001D01*
X0065686Y0047282D01*
X0063873Y0047282D01*
X0062592Y0046001D01*
X0062592Y0044188D01*
X0063873Y0042907D01*
X0066262Y0043484D02*
X0082982Y0043484D01*
X0083559Y0042907D02*
X0082277Y0044188D01*
X0082277Y0046001D01*
X0083559Y0047282D01*
X0085371Y0047282D01*
X0086652Y0046001D01*
X0086652Y0044188D01*
X0085371Y0042907D01*
X0083559Y0042907D01*
X0085948Y0043484D02*
X0102667Y0043484D01*
X0103244Y0042907D02*
X0105056Y0042907D01*
X0106337Y0044188D01*
X0106337Y0046001D01*
X0105056Y0047282D01*
X0103244Y0047282D01*
X0101962Y0046001D01*
X0101962Y0044188D01*
X0103244Y0042907D01*
X0105633Y0043484D02*
X0121069Y0043484D01*
X0120663Y0045057D02*
X0106337Y0045057D01*
X0105707Y0046631D02*
X0121038Y0046631D01*
X0126631Y0046631D02*
X0140723Y0046631D01*
X0140348Y0045057D02*
X0127006Y0045057D01*
X0126601Y0043484D02*
X0140754Y0043484D01*
X0146286Y0043484D02*
X0160439Y0043484D01*
X0160033Y0045057D02*
X0146691Y0045057D01*
X0146316Y0046631D02*
X0160408Y0046631D01*
X0166001Y0046631D02*
X0178828Y0046631D01*
X0178550Y0045057D02*
X0166376Y0045057D01*
X0165971Y0043484D02*
X0178859Y0043484D01*
X0180820Y0062364D02*
X0165274Y0062364D01*
X0165001Y0062091D02*
X0165894Y0062983D01*
X0166376Y0064149D01*
X0166376Y0065410D01*
X0165894Y0066576D01*
X0165001Y0067468D01*
X0163836Y0067951D01*
X0162574Y0067951D01*
X0161408Y0067468D01*
X0160516Y0066576D01*
X0160033Y0065410D01*
X0160033Y0064149D01*
X0160516Y0062983D01*
X0161408Y0062091D01*
X0162574Y0061608D01*
X0163836Y0061608D01*
X0165001Y0062091D01*
X0166289Y0063937D02*
X0179806Y0063937D01*
X0179760Y0065510D02*
X0166335Y0065510D01*
X0165386Y0067084D02*
X0180709Y0067084D01*
X0161023Y0067084D02*
X0145701Y0067084D01*
X0146650Y0065510D02*
X0160074Y0065510D01*
X0160121Y0063937D02*
X0146604Y0063937D01*
X0145589Y0062364D02*
X0161135Y0062364D01*
X0121647Y0063937D02*
X0106337Y0063937D01*
X0106337Y0063873D02*
X0105056Y0062592D01*
X0103244Y0062592D01*
X0101962Y0063873D01*
X0101962Y0065686D01*
X0103244Y0066967D01*
X0105056Y0066967D01*
X0106337Y0065686D01*
X0106337Y0063873D01*
X0106337Y0065510D02*
X0121647Y0065510D01*
X0101962Y0065510D02*
X0086652Y0065510D01*
X0086652Y0063937D02*
X0101962Y0063937D01*
X0102592Y0046631D02*
X0086022Y0046631D01*
X0086652Y0045057D02*
X0101962Y0045057D01*
X0082907Y0046631D02*
X0066337Y0046631D01*
X0066967Y0045057D02*
X0082277Y0045057D01*
X0063222Y0046631D02*
X0010531Y0046631D01*
X0010531Y0045057D02*
X0062592Y0045057D01*
X0063873Y0027597D02*
X0062592Y0026316D01*
X0062592Y0024503D01*
X0063873Y0023222D01*
X0065686Y0023222D01*
X0066967Y0024503D01*
X0066967Y0026316D01*
X0065686Y0027597D01*
X0063873Y0027597D01*
X0062592Y0026177D02*
X0047282Y0026177D01*
X0047282Y0024604D02*
X0062592Y0024604D01*
X0066967Y0024604D02*
X0082277Y0024604D01*
X0082277Y0026177D02*
X0066967Y0026177D01*
X0106294Y0027751D02*
X0121691Y0027751D01*
X0122038Y0028098D02*
X0121146Y0027206D01*
X0120663Y0026040D01*
X0120663Y0024779D01*
X0121146Y0023613D01*
X0122038Y0022721D01*
X0123204Y0022238D01*
X0124466Y0022238D01*
X0125631Y0022721D01*
X0126523Y0023613D01*
X0127006Y0024779D01*
X0127006Y0026040D01*
X0126523Y0027206D01*
X0125631Y0028098D01*
X0124466Y0028581D01*
X0123204Y0028581D01*
X0122038Y0028098D01*
X0120720Y0026177D02*
X0107264Y0026177D01*
X0107249Y0024604D02*
X0120735Y0024604D01*
X0121728Y0023031D02*
X0106256Y0023031D01*
X0125941Y0023031D02*
X0141413Y0023031D01*
X0140420Y0024604D02*
X0126934Y0024604D01*
X0126949Y0026177D02*
X0140405Y0026177D01*
X0141376Y0027751D02*
X0125979Y0027751D01*
X0324079Y0119003D02*
X0335563Y0119003D01*
X0335563Y0120576D02*
X0325631Y0120576D01*
X0326283Y0122150D02*
X0335563Y0122150D01*
X0335563Y0123723D02*
X0326502Y0123723D01*
X0326375Y0125296D02*
X0335563Y0125296D01*
X0335563Y0126870D02*
X0325724Y0126870D01*
X0325548Y0070230D02*
X0335563Y0070230D01*
X0335563Y0068657D02*
X0326973Y0068657D01*
X0327624Y0067084D02*
X0335563Y0067084D01*
X0335563Y0065510D02*
X0327978Y0065510D01*
X0327978Y0063937D02*
X0335563Y0063937D01*
X0335563Y0062364D02*
X0327578Y0062364D01*
X0326926Y0060790D02*
X0335563Y0060790D01*
X0335563Y0059217D02*
X0325436Y0059217D01*
X0220072Y0163056D02*
X0204762Y0163056D01*
X0204244Y0164629D02*
X0220591Y0164629D01*
X0221354Y0180702D02*
X0223166Y0180702D01*
X0224447Y0181984D01*
X0224447Y0183796D01*
X0223166Y0185077D01*
X0221354Y0185077D01*
X0220072Y0183796D01*
X0220072Y0181984D01*
X0221354Y0180702D01*
X0220120Y0181936D02*
X0204714Y0181936D01*
X0204762Y0183509D02*
X0220072Y0183509D01*
X0224447Y0183509D02*
X0239757Y0183509D01*
X0239806Y0181936D02*
X0224399Y0181936D01*
M02*
