G75*
%MOIN*%
%OFA0B0*%
%FSLAX25Y25*%
%IPPOS*%
%LPD*%
%AMOC8*
5,1,8,0,0,1.08239X$1,22.5*
%
%ADD10C,0.12611*%
%ADD11C,0.09658*%
%ADD12C,0.06706*%
%ADD13C,0.04369*%
%ADD14C,0.02400*%
D10*
X0281315Y0025409D03*
X0301000Y0025409D03*
X0320685Y0025409D03*
X0320685Y0045094D03*
X0301000Y0045094D03*
X0320685Y0064780D03*
D11*
X0301000Y0064780D03*
X0281315Y0064780D03*
X0261630Y0064780D03*
X0281315Y0084465D03*
X0301000Y0084465D03*
X0320685Y0084465D03*
X0320685Y0104150D03*
X0301000Y0104150D03*
X0320685Y0123835D03*
X0281315Y0045094D03*
X0261630Y0045094D03*
X0241945Y0045094D03*
X0241945Y0025409D03*
X0222260Y0025409D03*
X0261630Y0025409D03*
D12*
X0222260Y0045094D03*
X0202575Y0045094D03*
X0182890Y0045094D03*
X0182890Y0025409D03*
X0163205Y0025409D03*
X0202575Y0025409D03*
X0202575Y0064780D03*
X0222260Y0064780D03*
X0241945Y0064780D03*
X0241945Y0084465D03*
X0222260Y0084465D03*
X0241945Y0104150D03*
X0261630Y0104150D03*
X0281315Y0104150D03*
X0281315Y0123835D03*
X0301000Y0123835D03*
X0301000Y0143520D03*
X0281315Y0143520D03*
X0261630Y0123835D03*
X0320685Y0143520D03*
X0320685Y0163205D03*
X0301000Y0163205D03*
X0320685Y0182890D03*
X0261630Y0084465D03*
D13*
X0222260Y0104150D03*
X0202575Y0104150D03*
X0182890Y0104150D03*
X0202575Y0123835D03*
X0222260Y0123835D03*
X0241945Y0123835D03*
X0241945Y0143520D03*
X0222260Y0143520D03*
X0241945Y0163205D03*
X0261630Y0163205D03*
X0281315Y0163205D03*
X0281315Y0182890D03*
X0301000Y0182890D03*
X0261630Y0182890D03*
X0261630Y0143520D03*
X0202575Y0084465D03*
X0182890Y0084465D03*
X0163205Y0084465D03*
X0143520Y0084465D03*
X0143520Y0064780D03*
X0163205Y0064780D03*
X0182890Y0064780D03*
X0163205Y0045094D03*
X0143520Y0045094D03*
X0123835Y0045094D03*
X0123835Y0025409D03*
X0104150Y0025409D03*
X0143520Y0025409D03*
D14*
X0045094Y0025409D03*
X0064780Y0025409D03*
X0084465Y0025409D03*
X0084465Y0045094D03*
X0104150Y0045094D03*
X0104150Y0064780D03*
X0123835Y0064780D03*
X0084465Y0064780D03*
X0064780Y0045094D03*
X0143520Y0104150D03*
X0163205Y0104150D03*
X0202575Y0143520D03*
X0202575Y0163205D03*
X0222260Y0163205D03*
X0222260Y0182890D03*
X0241945Y0182890D03*
X0202575Y0182890D03*
M02*
