G75*
%MOIN*%
%OFA0B0*%
%FSLAX25Y25*%
%IPPOS*%
%LPD*%
%AMOC8*
5,1,8,0,0,1.08239X$1,22.5*
%
%ADD10R,0.04724X0.03150*%
%ADD11R,0.03150X0.04724*%
%ADD12R,0.05512X0.02756*%
%ADD13R,0.02000X0.06200*%
%ADD14R,0.05900X0.05900*%
%ADD15C,0.05900*%
%ADD16R,0.02100X0.04600*%
%ADD17C,0.02000*%
%ADD18C,0.01000*%
%ADD19C,0.02600*%
%ADD20C,0.02400*%
D10*
X0006383Y0015457D03*
X0006383Y0022543D03*
X0012383Y0022543D03*
X0012383Y0015457D03*
X0018383Y0015457D03*
X0018383Y0022543D03*
X0028383Y0028457D03*
X0028383Y0035543D03*
X0029383Y0041457D03*
X0029383Y0048543D03*
X0008383Y0060457D03*
X0008383Y0067543D03*
D11*
X0009840Y0027500D03*
X0016927Y0027500D03*
D12*
X0014883Y0062500D03*
X0027875Y0062500D03*
D13*
X0022383Y0055000D03*
X0017383Y0055000D03*
X0012383Y0055000D03*
X0007383Y0055000D03*
X0007383Y0034000D03*
X0012383Y0034000D03*
X0017383Y0034000D03*
X0022383Y0034000D03*
D14*
X0007883Y0006500D03*
D15*
X0017883Y0006500D03*
X0027883Y0006500D03*
X0037883Y0006500D03*
D16*
X0030583Y0014200D03*
X0026883Y0022800D03*
X0023183Y0014200D03*
D17*
X0016927Y0027500D02*
X0017383Y0029043D01*
X0017383Y0034000D01*
X0012383Y0034000D02*
X0012383Y0029543D01*
X0009840Y0027500D01*
X0005883Y0024000D02*
X0007340Y0022543D01*
X0006383Y0022543D01*
X0005883Y0024000D02*
X0005883Y0032500D01*
X0007383Y0034000D01*
X0007383Y0037500D01*
X0005383Y0039500D01*
X0022383Y0037000D02*
X0022383Y0034000D01*
X0022383Y0037000D02*
X0026840Y0041457D01*
X0029383Y0041457D01*
X0029383Y0048543D02*
X0028840Y0048543D01*
X0022383Y0055000D01*
X0027883Y0060008D01*
X0027875Y0062500D01*
D18*
X0004383Y0012382D02*
X0004383Y0010738D01*
X0004395Y0010750D01*
X0011372Y0010750D01*
X0012133Y0009988D01*
X0012133Y0003012D01*
X0012122Y0003000D01*
X0015130Y0003000D01*
X0014984Y0003106D01*
X0014489Y0003601D01*
X0014077Y0004168D01*
X0013759Y0004792D01*
X0013543Y0005458D01*
X0013453Y0006025D01*
X0017408Y0006025D01*
X0017408Y0006975D01*
X0013453Y0006975D01*
X0013543Y0007542D01*
X0013759Y0008208D01*
X0014077Y0008832D01*
X0014489Y0009399D01*
X0014984Y0009894D01*
X0015551Y0010306D01*
X0016175Y0010624D01*
X0016841Y0010840D01*
X0017408Y0010930D01*
X0017408Y0006975D01*
X0018358Y0006975D01*
X0018358Y0010930D01*
X0018925Y0010840D01*
X0019592Y0010624D01*
X0020216Y0010306D01*
X0020782Y0009894D01*
X0021278Y0009399D01*
X0021689Y0008832D01*
X0022007Y0008208D01*
X0022224Y0007542D01*
X0022314Y0006975D01*
X0018358Y0006975D01*
X0018358Y0006025D01*
X0022314Y0006025D01*
X0022224Y0005458D01*
X0022007Y0004792D01*
X0021689Y0004168D01*
X0021278Y0003601D01*
X0020782Y0003106D01*
X0020637Y0003000D01*
X0025373Y0003000D01*
X0024280Y0004093D01*
X0023633Y0005655D01*
X0023633Y0007345D01*
X0024280Y0008907D01*
X0025476Y0010103D01*
X0027038Y0010750D01*
X0028729Y0010750D01*
X0028783Y0010727D01*
X0028783Y0010812D01*
X0028233Y0011362D01*
X0028233Y0017038D01*
X0028995Y0017800D01*
X0031383Y0017800D01*
X0031383Y0025681D01*
X0031284Y0025582D01*
X0029233Y0025582D01*
X0029233Y0019962D01*
X0028472Y0019200D01*
X0025295Y0019200D01*
X0025028Y0019467D01*
X0024856Y0019296D01*
X0023901Y0018900D01*
X0022866Y0018900D01*
X0021911Y0019296D01*
X0021411Y0019795D01*
X0021284Y0019669D01*
X0015483Y0019669D01*
X0015383Y0019768D01*
X0015284Y0019669D01*
X0009483Y0019669D01*
X0009383Y0019768D01*
X0009284Y0019669D01*
X0004383Y0019669D01*
X0004383Y0018531D01*
X0006096Y0018531D01*
X0006096Y0015744D01*
X0006671Y0015744D01*
X0012096Y0015744D01*
X0012096Y0015169D01*
X0012671Y0015169D01*
X0012671Y0012382D01*
X0014943Y0012382D01*
X0015325Y0012484D01*
X0015383Y0012518D01*
X0015442Y0012484D01*
X0015824Y0012382D01*
X0018096Y0012382D01*
X0018096Y0015169D01*
X0018671Y0015169D01*
X0018671Y0012382D01*
X0020633Y0012382D01*
X0020633Y0011703D01*
X0020736Y0011321D01*
X0020933Y0010979D01*
X0021212Y0010700D01*
X0021554Y0010502D01*
X0021936Y0010400D01*
X0023158Y0010400D01*
X0023158Y0014175D01*
X0023208Y0014175D01*
X0023208Y0010400D01*
X0024431Y0010400D01*
X0024812Y0010502D01*
X0025154Y0010700D01*
X0025434Y0010979D01*
X0025631Y0011321D01*
X0025733Y0011703D01*
X0025733Y0014175D01*
X0023208Y0014175D01*
X0023208Y0014225D01*
X0023158Y0014225D01*
X0023158Y0018000D01*
X0021936Y0018000D01*
X0021906Y0017992D01*
X0021667Y0018232D01*
X0021325Y0018429D01*
X0020943Y0018531D01*
X0018671Y0018531D01*
X0018671Y0015744D01*
X0018096Y0015744D01*
X0018096Y0015169D01*
X0012671Y0015169D01*
X0012671Y0015744D01*
X0014521Y0015744D01*
X0018096Y0015744D01*
X0018096Y0018531D01*
X0015824Y0018531D01*
X0015442Y0018429D01*
X0015383Y0018395D01*
X0015325Y0018429D01*
X0014943Y0018531D01*
X0012671Y0018531D01*
X0012671Y0015744D01*
X0012096Y0015744D01*
X0012096Y0018531D01*
X0009824Y0018531D01*
X0009442Y0018429D01*
X0009383Y0018395D01*
X0009325Y0018429D01*
X0008943Y0018531D01*
X0006671Y0018531D01*
X0006671Y0015744D01*
X0006671Y0015169D01*
X0006671Y0012382D01*
X0008943Y0012382D01*
X0009325Y0012484D01*
X0009383Y0012518D01*
X0009442Y0012484D01*
X0009824Y0012382D01*
X0012096Y0012382D01*
X0012096Y0015169D01*
X0010246Y0015169D01*
X0006671Y0015169D01*
X0006096Y0015169D01*
X0006096Y0012382D01*
X0004383Y0012382D01*
X0004383Y0011485D02*
X0020692Y0011485D01*
X0019861Y0010487D02*
X0021613Y0010487D01*
X0021188Y0009488D02*
X0024861Y0009488D01*
X0024754Y0010487D02*
X0026402Y0010487D01*
X0025675Y0011485D02*
X0028233Y0011485D01*
X0028233Y0012484D02*
X0025733Y0012484D01*
X0025733Y0013482D02*
X0028233Y0013482D01*
X0028233Y0014481D02*
X0025733Y0014481D01*
X0025733Y0014225D02*
X0025733Y0016697D01*
X0025631Y0017079D01*
X0025434Y0017421D01*
X0025154Y0017700D01*
X0024812Y0017898D01*
X0024431Y0018000D01*
X0023208Y0018000D01*
X0023208Y0014225D01*
X0025733Y0014225D01*
X0025733Y0015479D02*
X0028233Y0015479D01*
X0028233Y0016478D02*
X0025733Y0016478D01*
X0025378Y0017476D02*
X0028671Y0017476D01*
X0028745Y0019473D02*
X0031383Y0019473D01*
X0031383Y0018475D02*
X0021155Y0018475D01*
X0021733Y0019473D02*
X0004383Y0019473D01*
X0006096Y0018475D02*
X0006671Y0018475D01*
X0006671Y0017476D02*
X0006096Y0017476D01*
X0006096Y0016478D02*
X0006671Y0016478D01*
X0006671Y0015479D02*
X0012096Y0015479D01*
X0012671Y0015479D02*
X0018096Y0015479D01*
X0018096Y0016478D02*
X0018671Y0016478D01*
X0018671Y0017476D02*
X0018096Y0017476D01*
X0018096Y0018475D02*
X0018671Y0018475D01*
X0018671Y0014481D02*
X0018096Y0014481D01*
X0018096Y0013482D02*
X0018671Y0013482D01*
X0018671Y0012484D02*
X0018096Y0012484D01*
X0018358Y0010487D02*
X0017408Y0010487D01*
X0017408Y0009488D02*
X0018358Y0009488D01*
X0018358Y0008490D02*
X0017408Y0008490D01*
X0017408Y0007491D02*
X0018358Y0007491D01*
X0018358Y0006493D02*
X0023633Y0006493D01*
X0023700Y0005494D02*
X0022229Y0005494D01*
X0021856Y0004496D02*
X0024113Y0004496D01*
X0024876Y0003497D02*
X0021174Y0003497D01*
X0022232Y0007491D02*
X0023694Y0007491D01*
X0024107Y0008490D02*
X0021864Y0008490D01*
X0023158Y0010487D02*
X0023208Y0010487D01*
X0023208Y0011485D02*
X0023158Y0011485D01*
X0023158Y0012484D02*
X0023208Y0012484D01*
X0023208Y0013482D02*
X0023158Y0013482D01*
X0023158Y0014481D02*
X0023208Y0014481D01*
X0023208Y0015479D02*
X0023158Y0015479D01*
X0023158Y0016478D02*
X0023208Y0016478D01*
X0023208Y0017476D02*
X0023158Y0017476D01*
X0026883Y0022800D02*
X0027383Y0027300D01*
X0028383Y0028457D01*
X0029340Y0029000D01*
X0021383Y0029000D01*
X0019883Y0030500D01*
X0019883Y0038500D01*
X0007383Y0051000D01*
X0007383Y0055000D01*
X0007383Y0059457D01*
X0008383Y0060457D01*
X0009683Y0057582D02*
X0009883Y0057582D01*
X0009883Y0055000D01*
X0009883Y0051703D01*
X0009986Y0051321D01*
X0010183Y0050979D01*
X0010462Y0050700D01*
X0010804Y0050502D01*
X0011186Y0050400D01*
X0012383Y0050400D01*
X0012383Y0055000D01*
X0012383Y0055000D01*
X0009883Y0055000D01*
X0012383Y0055000D01*
X0012383Y0059600D01*
X0012046Y0059600D01*
X0012046Y0059622D01*
X0014694Y0059622D01*
X0014694Y0062311D01*
X0015072Y0062311D01*
X0015072Y0059622D01*
X0017837Y0059622D01*
X0018083Y0059688D01*
X0018083Y0059400D01*
X0015845Y0059400D01*
X0015083Y0058638D01*
X0015083Y0055980D01*
X0014883Y0055497D01*
X0014883Y0046046D01*
X0009625Y0051304D01*
X0009683Y0051362D01*
X0009683Y0057582D01*
X0009683Y0057417D02*
X0009883Y0057417D01*
X0009883Y0056418D02*
X0009683Y0056418D01*
X0009683Y0055420D02*
X0009883Y0055420D01*
X0009883Y0054421D02*
X0009683Y0054421D01*
X0009683Y0053423D02*
X0009883Y0053423D01*
X0009883Y0052424D02*
X0009683Y0052424D01*
X0009683Y0051426D02*
X0009958Y0051426D01*
X0010502Y0050427D02*
X0011085Y0050427D01*
X0011500Y0049429D02*
X0014883Y0049429D01*
X0014883Y0048430D02*
X0012499Y0048430D01*
X0013497Y0047432D02*
X0014883Y0047432D01*
X0014883Y0046433D02*
X0014496Y0046433D01*
X0012400Y0043437D02*
X0004383Y0043437D01*
X0004383Y0042439D02*
X0013399Y0042439D01*
X0014397Y0041440D02*
X0007120Y0041440D01*
X0006856Y0041704D02*
X0005901Y0042100D01*
X0004866Y0042100D01*
X0004383Y0041900D01*
X0004383Y0069000D01*
X0004721Y0069000D01*
X0004721Y0065430D01*
X0005483Y0064669D01*
X0010852Y0064669D01*
X0010730Y0064457D01*
X0010627Y0064075D01*
X0010627Y0063331D01*
X0005483Y0063331D01*
X0004721Y0062570D01*
X0004721Y0058343D01*
X0005083Y0057981D01*
X0005083Y0051362D01*
X0005583Y0050862D01*
X0005583Y0050254D01*
X0006638Y0049200D01*
X0017438Y0038400D01*
X0015845Y0038400D01*
X0015083Y0037638D01*
X0015083Y0031162D01*
X0014883Y0031162D01*
X0014883Y0034000D01*
X0014883Y0037297D01*
X0014781Y0037679D01*
X0014584Y0038021D01*
X0014304Y0038300D01*
X0013962Y0038498D01*
X0013581Y0038600D01*
X0012383Y0038600D01*
X0011186Y0038600D01*
X0010804Y0038498D01*
X0010462Y0038300D01*
X0010183Y0038021D01*
X0009986Y0037679D01*
X0009883Y0037297D01*
X0009883Y0034000D01*
X0009883Y0030703D01*
X0009986Y0030321D01*
X0010127Y0030075D01*
X0010127Y0027787D01*
X0012915Y0027787D01*
X0012915Y0029400D01*
X0013581Y0029400D01*
X0013962Y0029502D01*
X0014052Y0029554D01*
X0014052Y0025418D01*
X0012915Y0025418D01*
X0012915Y0027213D01*
X0010127Y0027213D01*
X0010127Y0027787D01*
X0009553Y0027787D01*
X0009553Y0030231D01*
X0009683Y0030362D01*
X0009683Y0038453D01*
X0008336Y0039800D01*
X0007887Y0040248D01*
X0007587Y0040973D01*
X0006856Y0041704D01*
X0007807Y0040442D02*
X0015396Y0040442D01*
X0016394Y0039443D02*
X0008693Y0039443D01*
X0009683Y0038445D02*
X0010713Y0038445D01*
X0009923Y0037446D02*
X0009683Y0037446D01*
X0009683Y0036448D02*
X0009883Y0036448D01*
X0009883Y0035449D02*
X0009683Y0035449D01*
X0009683Y0034451D02*
X0009883Y0034451D01*
X0009883Y0034000D02*
X0012383Y0034000D01*
X0012383Y0034000D01*
X0009883Y0034000D01*
X0009883Y0033452D02*
X0009683Y0033452D01*
X0009683Y0032454D02*
X0009883Y0032454D01*
X0009883Y0031455D02*
X0009683Y0031455D01*
X0009683Y0030457D02*
X0009949Y0030457D01*
X0010127Y0029458D02*
X0009553Y0029458D01*
X0009553Y0028460D02*
X0010127Y0028460D01*
X0010127Y0027461D02*
X0014052Y0027461D01*
X0014052Y0026463D02*
X0012915Y0026463D01*
X0012915Y0025464D02*
X0014052Y0025464D01*
X0014052Y0028460D02*
X0012915Y0028460D01*
X0013798Y0029458D02*
X0014052Y0029458D01*
X0014883Y0031455D02*
X0015083Y0031455D01*
X0015083Y0032454D02*
X0014883Y0032454D01*
X0014883Y0033452D02*
X0015083Y0033452D01*
X0014883Y0034000D02*
X0012383Y0034000D01*
X0012383Y0038600D01*
X0012383Y0034000D01*
X0012383Y0034000D01*
X0014883Y0034000D01*
X0014883Y0034451D02*
X0015083Y0034451D01*
X0015083Y0035449D02*
X0014883Y0035449D01*
X0014883Y0036448D02*
X0015083Y0036448D01*
X0015083Y0037446D02*
X0014843Y0037446D01*
X0014054Y0038445D02*
X0017393Y0038445D01*
X0012383Y0038445D02*
X0012383Y0038445D01*
X0012383Y0037446D02*
X0012383Y0037446D01*
X0012383Y0036448D02*
X0012383Y0036448D01*
X0012383Y0035449D02*
X0012383Y0035449D01*
X0012383Y0034451D02*
X0012383Y0034451D01*
X0012383Y0034000D02*
X0012383Y0034000D01*
X0011402Y0044436D02*
X0004383Y0044436D01*
X0004383Y0045434D02*
X0010403Y0045434D01*
X0009405Y0046433D02*
X0004383Y0046433D01*
X0004383Y0047432D02*
X0008406Y0047432D01*
X0007408Y0048430D02*
X0004383Y0048430D01*
X0004383Y0049429D02*
X0006409Y0049429D01*
X0005583Y0050427D02*
X0004383Y0050427D01*
X0004383Y0051426D02*
X0005083Y0051426D01*
X0005083Y0052424D02*
X0004383Y0052424D01*
X0004383Y0053423D02*
X0005083Y0053423D01*
X0005083Y0054421D02*
X0004383Y0054421D01*
X0004383Y0055420D02*
X0005083Y0055420D01*
X0005083Y0056418D02*
X0004383Y0056418D01*
X0004383Y0057417D02*
X0005083Y0057417D01*
X0004721Y0058415D02*
X0004383Y0058415D01*
X0004383Y0059414D02*
X0004721Y0059414D01*
X0004721Y0060412D02*
X0004383Y0060412D01*
X0004383Y0061411D02*
X0004721Y0061411D01*
X0004721Y0062409D02*
X0004383Y0062409D01*
X0004383Y0063408D02*
X0010627Y0063408D01*
X0010716Y0064406D02*
X0004383Y0064406D01*
X0004383Y0065405D02*
X0004746Y0065405D01*
X0004721Y0066403D02*
X0004383Y0066403D01*
X0004383Y0067402D02*
X0004721Y0067402D01*
X0004721Y0068400D02*
X0004383Y0068400D01*
X0008383Y0067543D02*
X0009383Y0066500D01*
X0018383Y0066500D01*
X0019883Y0065000D01*
X0019883Y0058500D01*
X0017383Y0056000D01*
X0017383Y0055000D01*
X0014883Y0055000D02*
X0014883Y0058297D01*
X0014781Y0058679D01*
X0014584Y0059021D01*
X0014304Y0059300D01*
X0013962Y0059498D01*
X0013581Y0059600D01*
X0012383Y0059600D01*
X0012383Y0055000D01*
X0012383Y0055000D01*
X0012383Y0055000D01*
X0012383Y0050400D01*
X0013581Y0050400D01*
X0013962Y0050502D01*
X0014304Y0050700D01*
X0014584Y0050979D01*
X0014781Y0051321D01*
X0014883Y0051703D01*
X0014883Y0055000D01*
X0012383Y0055000D01*
X0012383Y0055000D01*
X0014883Y0055000D01*
X0014883Y0055420D02*
X0014883Y0055420D01*
X0014883Y0056418D02*
X0015083Y0056418D01*
X0015083Y0057417D02*
X0014883Y0057417D01*
X0014852Y0058415D02*
X0015083Y0058415D01*
X0014108Y0059414D02*
X0018083Y0059414D01*
X0015072Y0060412D02*
X0014694Y0060412D01*
X0014694Y0061411D02*
X0015072Y0061411D01*
X0015072Y0062689D02*
X0015072Y0064700D01*
X0014694Y0064700D01*
X0014694Y0062689D01*
X0015072Y0062689D01*
X0015072Y0063408D02*
X0014694Y0063408D01*
X0014694Y0064406D02*
X0015072Y0064406D01*
X0012383Y0059414D02*
X0012383Y0059414D01*
X0012383Y0058415D02*
X0012383Y0058415D01*
X0012383Y0057417D02*
X0012383Y0057417D01*
X0012383Y0056418D02*
X0012383Y0056418D01*
X0012383Y0055420D02*
X0012383Y0055420D01*
X0012383Y0054421D02*
X0012383Y0054421D01*
X0012383Y0053423D02*
X0012383Y0053423D01*
X0012383Y0052424D02*
X0012383Y0052424D01*
X0012383Y0051426D02*
X0012383Y0051426D01*
X0012383Y0050427D02*
X0012383Y0050427D01*
X0013682Y0050427D02*
X0014883Y0050427D01*
X0014883Y0051426D02*
X0014809Y0051426D01*
X0014883Y0052424D02*
X0014883Y0052424D01*
X0014883Y0053423D02*
X0014883Y0053423D01*
X0014883Y0054421D02*
X0014883Y0054421D01*
X0022383Y0055000D02*
X0025383Y0055000D01*
X0024683Y0035831D02*
X0028096Y0035831D01*
X0028096Y0035256D01*
X0024683Y0035256D01*
X0024683Y0035831D01*
X0024683Y0035449D02*
X0028096Y0035449D01*
X0028096Y0035256D02*
X0028671Y0035256D01*
X0028671Y0035831D01*
X0031383Y0035831D01*
X0031383Y0035256D01*
X0028671Y0035256D01*
X0028671Y0032469D01*
X0030943Y0032469D01*
X0031325Y0032571D01*
X0031383Y0032605D01*
X0031383Y0031232D01*
X0031284Y0031331D01*
X0025483Y0031331D01*
X0024951Y0030800D01*
X0024683Y0030800D01*
X0024683Y0033286D01*
X0024821Y0033047D01*
X0025100Y0032768D01*
X0025442Y0032571D01*
X0025824Y0032469D01*
X0028096Y0032468D01*
X0028096Y0035256D01*
X0028671Y0035449D02*
X0031383Y0035449D01*
X0031383Y0032454D02*
X0024683Y0032454D01*
X0024683Y0031455D02*
X0031383Y0031455D01*
X0028671Y0033452D02*
X0028096Y0033452D01*
X0028096Y0034451D02*
X0028671Y0034451D01*
X0029233Y0025464D02*
X0031383Y0025464D01*
X0031383Y0024466D02*
X0029233Y0024466D01*
X0029233Y0023467D02*
X0031383Y0023467D01*
X0031383Y0022469D02*
X0029233Y0022469D01*
X0029233Y0021470D02*
X0031383Y0021470D01*
X0031383Y0020472D02*
X0029233Y0020472D01*
X0030583Y0014200D02*
X0030583Y0010300D01*
X0034383Y0006500D01*
X0037883Y0006500D01*
X0017408Y0006493D02*
X0012133Y0006493D01*
X0012133Y0005494D02*
X0013537Y0005494D01*
X0013910Y0004496D02*
X0012133Y0004496D01*
X0012133Y0003497D02*
X0014593Y0003497D01*
X0013535Y0007491D02*
X0012133Y0007491D01*
X0012133Y0008490D02*
X0013903Y0008490D01*
X0014578Y0009488D02*
X0012133Y0009488D01*
X0011635Y0010487D02*
X0015906Y0010487D01*
X0015444Y0012484D02*
X0015323Y0012484D01*
X0012671Y0012484D02*
X0012096Y0012484D01*
X0012096Y0013482D02*
X0012671Y0013482D01*
X0012671Y0014481D02*
X0012096Y0014481D01*
X0012096Y0016478D02*
X0012671Y0016478D01*
X0012671Y0017476D02*
X0012096Y0017476D01*
X0012096Y0018475D02*
X0012671Y0018475D01*
X0015155Y0018475D02*
X0015612Y0018475D01*
X0009612Y0018475D02*
X0009155Y0018475D01*
X0006671Y0014481D02*
X0006096Y0014481D01*
X0006096Y0013482D02*
X0006671Y0013482D01*
X0006671Y0012484D02*
X0006096Y0012484D01*
X0009323Y0012484D02*
X0009444Y0012484D01*
D19*
X0006383Y0011800D03*
X0013883Y0018800D03*
X0023383Y0021500D03*
X0027683Y0017800D03*
X0028683Y0035500D03*
X0017383Y0045000D03*
X0011683Y0040500D03*
X0012483Y0034000D03*
X0005383Y0039500D03*
X0014883Y0062300D03*
X0025383Y0055000D03*
D20*
X0017383Y0055000D02*
X0017383Y0045000D01*
X0018383Y0022543D02*
X0012383Y0022543D01*
X0006383Y0022543D01*
X0018383Y0022543D02*
X0022340Y0022543D01*
X0023383Y0021500D01*
M02*
