G75*
%MOIN*%
%OFA0B0*%
%FSLAX25Y25*%
%IPPOS*%
%LPD*%
%AMOC8*
5,1,8,0,0,1.08239X$1,22.5*
%
%ADD10C,0.00000*%
%ADD11R,0.03937X0.11614*%
%ADD12R,0.05900X0.05900*%
%ADD13C,0.05900*%
%ADD14R,0.07500X0.25000*%
%ADD15C,0.02000*%
%ADD16C,0.02600*%
%ADD17C,0.01000*%
%ADD18C,0.02400*%
D10*
X0002883Y0001500D02*
X0002883Y0070500D01*
X0032883Y0070500D01*
X0032883Y0011500D01*
X0042883Y0011500D01*
X0042883Y0001500D01*
X0002883Y0001500D01*
D11*
X0017883Y0017551D03*
X0017883Y0036449D03*
D12*
X0007883Y0006500D03*
D13*
X0017883Y0006500D03*
X0027883Y0006500D03*
X0037883Y0006500D03*
D14*
X0027383Y0056500D03*
X0008383Y0056500D03*
D15*
X0007883Y0042500D01*
X0025383Y0055000D02*
X0027383Y0056500D01*
D16*
X0025383Y0055000D03*
X0017383Y0045000D03*
X0011683Y0040500D03*
X0012483Y0034000D03*
X0005383Y0039500D03*
X0013883Y0018800D03*
X0006383Y0011800D03*
X0023383Y0021500D03*
X0027683Y0017800D03*
X0028683Y0035500D03*
X0014883Y0062300D03*
D17*
X0013433Y0062409D02*
X0022333Y0062409D01*
X0022333Y0061411D02*
X0013433Y0061411D01*
X0013433Y0060412D02*
X0022333Y0060412D01*
X0022333Y0059414D02*
X0013433Y0059414D01*
X0013433Y0058415D02*
X0022333Y0058415D01*
X0022333Y0057417D02*
X0013433Y0057417D01*
X0013433Y0056418D02*
X0022333Y0056418D01*
X0022333Y0055420D02*
X0013433Y0055420D01*
X0013433Y0054421D02*
X0022333Y0054421D01*
X0022333Y0053423D02*
X0013433Y0053423D01*
X0013433Y0052424D02*
X0022333Y0052424D01*
X0022333Y0051426D02*
X0013433Y0051426D01*
X0013433Y0050427D02*
X0022333Y0050427D01*
X0022333Y0049429D02*
X0013433Y0049429D01*
X0013433Y0048430D02*
X0022333Y0048430D01*
X0022333Y0047432D02*
X0018307Y0047432D01*
X0017901Y0047600D02*
X0018856Y0047204D01*
X0019587Y0046473D01*
X0019687Y0046231D01*
X0019860Y0046059D01*
X0019936Y0046021D01*
X0020210Y0045709D01*
X0020503Y0045416D01*
X0020535Y0045337D01*
X0020592Y0045273D01*
X0020725Y0044880D01*
X0020883Y0044497D01*
X0020883Y0044412D01*
X0020911Y0044331D01*
X0020883Y0043917D01*
X0020883Y0043503D01*
X0020851Y0043424D01*
X0020830Y0043116D01*
X0021152Y0042794D01*
X0021152Y0035058D01*
X0021195Y0034952D01*
X0021383Y0034497D01*
X0021383Y0034491D01*
X0021386Y0034485D01*
X0021383Y0033995D01*
X0021383Y0033503D01*
X0021381Y0033497D01*
X0021381Y0033490D01*
X0021191Y0033039D01*
X0021152Y0032944D01*
X0021152Y0030103D01*
X0020390Y0029342D01*
X0017761Y0029342D01*
X0012883Y0024464D01*
X0012883Y0009003D01*
X0012503Y0008084D01*
X0012133Y0007714D01*
X0012133Y0003012D01*
X0012122Y0003000D01*
X0015130Y0003000D01*
X0014984Y0003106D01*
X0014489Y0003601D01*
X0014077Y0004168D01*
X0013759Y0004792D01*
X0013543Y0005458D01*
X0013453Y0006025D01*
X0017408Y0006025D01*
X0017408Y0006975D01*
X0013453Y0006975D01*
X0013543Y0007542D01*
X0013759Y0008208D01*
X0014077Y0008832D01*
X0014489Y0009399D01*
X0014984Y0009894D01*
X0015534Y0010293D01*
X0015336Y0010346D01*
X0014994Y0010544D01*
X0014715Y0010823D01*
X0014517Y0011165D01*
X0014415Y0011547D01*
X0014415Y0017067D01*
X0017399Y0017067D01*
X0017399Y0018035D01*
X0014415Y0018035D01*
X0014415Y0023556D01*
X0014517Y0023937D01*
X0014715Y0024279D01*
X0014994Y0024559D01*
X0015336Y0024756D01*
X0015717Y0024858D01*
X0017399Y0024858D01*
X0017399Y0018036D01*
X0018368Y0018036D01*
X0018368Y0024858D01*
X0020049Y0024858D01*
X0020431Y0024756D01*
X0020773Y0024559D01*
X0021052Y0024279D01*
X0021250Y0023937D01*
X0021352Y0023556D01*
X0021352Y0023145D01*
X0021911Y0023704D01*
X0022866Y0024100D01*
X0023901Y0024100D01*
X0024856Y0023704D01*
X0025587Y0022973D01*
X0025983Y0022017D01*
X0025983Y0020983D01*
X0025883Y0020741D01*
X0025883Y0012036D01*
X0027169Y0010750D01*
X0028729Y0010750D01*
X0030291Y0010103D01*
X0031486Y0008907D01*
X0032133Y0007345D01*
X0032133Y0005655D01*
X0031486Y0004093D01*
X0030394Y0003000D01*
X0035373Y0003000D01*
X0034280Y0004093D01*
X0033633Y0005655D01*
X0033633Y0007345D01*
X0034280Y0008907D01*
X0035373Y0010000D01*
X0032262Y0010000D01*
X0031383Y0010879D01*
X0031383Y0042700D01*
X0023095Y0042700D01*
X0022333Y0043462D01*
X0022333Y0069000D01*
X0013433Y0069000D01*
X0013433Y0043462D01*
X0012672Y0042700D01*
X0010421Y0042700D01*
X0010313Y0041730D01*
X0009833Y0040858D01*
X0007983Y0039378D01*
X0007983Y0038983D01*
X0007587Y0038027D01*
X0006856Y0037296D01*
X0005901Y0036900D01*
X0004866Y0036900D01*
X0004383Y0037100D01*
X0004383Y0010738D01*
X0004395Y0010750D01*
X0007883Y0010750D01*
X0007883Y0025997D01*
X0008264Y0026916D01*
X0014615Y0033267D01*
X0014615Y0042794D01*
X0015263Y0043443D01*
X0015179Y0043527D01*
X0014783Y0044483D01*
X0014783Y0045517D01*
X0015179Y0046473D01*
X0015911Y0047204D01*
X0016866Y0047600D01*
X0017901Y0047600D01*
X0016459Y0047432D02*
X0013433Y0047432D01*
X0013433Y0046433D02*
X0015163Y0046433D01*
X0014783Y0045434D02*
X0013433Y0045434D01*
X0013433Y0044436D02*
X0014803Y0044436D01*
X0015258Y0043437D02*
X0013409Y0043437D01*
X0014615Y0042439D02*
X0010392Y0042439D01*
X0010154Y0041440D02*
X0014615Y0041440D01*
X0014615Y0040442D02*
X0009313Y0040442D01*
X0008065Y0039443D02*
X0014615Y0039443D01*
X0014615Y0038445D02*
X0007761Y0038445D01*
X0007007Y0037446D02*
X0014615Y0037446D01*
X0014615Y0036448D02*
X0004383Y0036448D01*
X0004383Y0035449D02*
X0014615Y0035449D01*
X0014615Y0034451D02*
X0004383Y0034451D01*
X0004383Y0033452D02*
X0014615Y0033452D01*
X0013802Y0032454D02*
X0004383Y0032454D01*
X0004383Y0031455D02*
X0012803Y0031455D01*
X0011805Y0030457D02*
X0004383Y0030457D01*
X0004383Y0029458D02*
X0010806Y0029458D01*
X0009808Y0028460D02*
X0004383Y0028460D01*
X0004383Y0027461D02*
X0008809Y0027461D01*
X0008076Y0026463D02*
X0004383Y0026463D01*
X0004383Y0025464D02*
X0007883Y0025464D01*
X0007883Y0024466D02*
X0004383Y0024466D01*
X0004383Y0023467D02*
X0007883Y0023467D01*
X0007883Y0022469D02*
X0004383Y0022469D01*
X0004383Y0021470D02*
X0007883Y0021470D01*
X0007883Y0020472D02*
X0004383Y0020472D01*
X0004383Y0019473D02*
X0007883Y0019473D01*
X0007883Y0018475D02*
X0004383Y0018475D01*
X0004383Y0017476D02*
X0007883Y0017476D01*
X0007883Y0016478D02*
X0004383Y0016478D01*
X0004383Y0015479D02*
X0007883Y0015479D01*
X0007883Y0014481D02*
X0004383Y0014481D01*
X0004383Y0013482D02*
X0007883Y0013482D01*
X0007883Y0012484D02*
X0004383Y0012484D01*
X0004383Y0011485D02*
X0007883Y0011485D01*
X0012133Y0007491D02*
X0013535Y0007491D01*
X0013903Y0008490D02*
X0012671Y0008490D01*
X0012883Y0009488D02*
X0014578Y0009488D01*
X0015093Y0010487D02*
X0012883Y0010487D01*
X0012883Y0011485D02*
X0014431Y0011485D01*
X0014415Y0012484D02*
X0012883Y0012484D01*
X0012883Y0013482D02*
X0014415Y0013482D01*
X0014415Y0014481D02*
X0012883Y0014481D01*
X0012883Y0015479D02*
X0014415Y0015479D01*
X0014415Y0016478D02*
X0012883Y0016478D01*
X0012883Y0017476D02*
X0017399Y0017476D01*
X0017399Y0017067D02*
X0018368Y0017067D01*
X0018368Y0010929D01*
X0018358Y0010930D01*
X0018358Y0006975D01*
X0017408Y0006975D01*
X0017408Y0010930D01*
X0017399Y0010929D01*
X0017399Y0017067D01*
X0017399Y0016478D02*
X0018368Y0016478D01*
X0018368Y0015479D02*
X0017399Y0015479D01*
X0017399Y0014481D02*
X0018368Y0014481D01*
X0018368Y0013482D02*
X0017399Y0013482D01*
X0017399Y0012484D02*
X0018368Y0012484D01*
X0018368Y0011485D02*
X0017399Y0011485D01*
X0017408Y0010487D02*
X0018358Y0010487D01*
X0018358Y0009488D02*
X0017408Y0009488D01*
X0017408Y0008490D02*
X0018358Y0008490D01*
X0018358Y0007491D02*
X0017408Y0007491D01*
X0017408Y0006493D02*
X0012133Y0006493D01*
X0012133Y0005494D02*
X0013537Y0005494D01*
X0013910Y0004496D02*
X0012133Y0004496D01*
X0012133Y0003497D02*
X0014593Y0003497D01*
X0018358Y0006025D02*
X0018358Y0006975D01*
X0022314Y0006975D01*
X0022224Y0007542D01*
X0022007Y0008208D01*
X0021689Y0008832D01*
X0021278Y0009399D01*
X0020782Y0009894D01*
X0020233Y0010293D01*
X0020431Y0010346D01*
X0020773Y0010544D01*
X0020883Y0010654D01*
X0020883Y0010503D01*
X0021264Y0009584D01*
X0023633Y0007214D01*
X0023633Y0005655D01*
X0024280Y0004093D01*
X0025373Y0003000D01*
X0020637Y0003000D01*
X0020782Y0003106D01*
X0021278Y0003601D01*
X0021689Y0004168D01*
X0022007Y0004792D01*
X0022224Y0005458D01*
X0022314Y0006025D01*
X0018358Y0006025D01*
X0018358Y0006493D02*
X0023633Y0006493D01*
X0023700Y0005494D02*
X0022229Y0005494D01*
X0021856Y0004496D02*
X0024113Y0004496D01*
X0024876Y0003497D02*
X0021174Y0003497D01*
X0022232Y0007491D02*
X0023357Y0007491D01*
X0022358Y0008490D02*
X0021864Y0008490D01*
X0021360Y0009488D02*
X0021188Y0009488D01*
X0020890Y0010487D02*
X0020674Y0010487D01*
X0025883Y0012484D02*
X0031383Y0012484D01*
X0031383Y0013482D02*
X0025883Y0013482D01*
X0025883Y0014481D02*
X0031383Y0014481D01*
X0031383Y0015479D02*
X0025883Y0015479D01*
X0025883Y0016478D02*
X0031383Y0016478D01*
X0031383Y0017476D02*
X0025883Y0017476D01*
X0025883Y0018475D02*
X0031383Y0018475D01*
X0031383Y0019473D02*
X0025883Y0019473D01*
X0025883Y0020472D02*
X0031383Y0020472D01*
X0031383Y0021470D02*
X0025983Y0021470D01*
X0025796Y0022469D02*
X0031383Y0022469D01*
X0031383Y0023467D02*
X0025093Y0023467D01*
X0021674Y0023467D02*
X0021352Y0023467D01*
X0020866Y0024466D02*
X0031383Y0024466D01*
X0031383Y0025464D02*
X0013883Y0025464D01*
X0012885Y0024466D02*
X0014901Y0024466D01*
X0014415Y0023467D02*
X0012883Y0023467D01*
X0012883Y0022469D02*
X0014415Y0022469D01*
X0014415Y0021470D02*
X0012883Y0021470D01*
X0012883Y0020472D02*
X0014415Y0020472D01*
X0014415Y0019473D02*
X0012883Y0019473D01*
X0012883Y0018475D02*
X0014415Y0018475D01*
X0017399Y0018475D02*
X0018368Y0018475D01*
X0018368Y0019473D02*
X0017399Y0019473D01*
X0017399Y0020472D02*
X0018368Y0020472D01*
X0018368Y0021470D02*
X0017399Y0021470D01*
X0017399Y0022469D02*
X0018368Y0022469D01*
X0018368Y0023467D02*
X0017399Y0023467D01*
X0017399Y0024466D02*
X0018368Y0024466D01*
X0015880Y0027461D02*
X0031383Y0027461D01*
X0031383Y0026463D02*
X0014882Y0026463D01*
X0016879Y0028460D02*
X0031383Y0028460D01*
X0031383Y0029458D02*
X0020507Y0029458D01*
X0021152Y0030457D02*
X0031383Y0030457D01*
X0031383Y0031455D02*
X0021152Y0031455D01*
X0021152Y0032454D02*
X0031383Y0032454D01*
X0031383Y0033452D02*
X0021365Y0033452D01*
X0021386Y0034451D02*
X0031383Y0034451D01*
X0031383Y0035449D02*
X0021152Y0035449D01*
X0021152Y0036448D02*
X0031383Y0036448D01*
X0031383Y0037446D02*
X0021152Y0037446D01*
X0021152Y0038445D02*
X0031383Y0038445D01*
X0031383Y0039443D02*
X0021152Y0039443D01*
X0021152Y0040442D02*
X0031383Y0040442D01*
X0031383Y0041440D02*
X0021152Y0041440D01*
X0021152Y0042439D02*
X0031383Y0042439D01*
X0026383Y0055000D02*
X0025383Y0055000D01*
X0026383Y0055000D02*
X0027383Y0056500D01*
X0022333Y0063408D02*
X0013433Y0063408D01*
X0013433Y0064406D02*
X0022333Y0064406D01*
X0022333Y0065405D02*
X0013433Y0065405D01*
X0013433Y0066403D02*
X0022333Y0066403D01*
X0022333Y0067402D02*
X0013433Y0067402D01*
X0013433Y0068400D02*
X0022333Y0068400D01*
X0022333Y0046433D02*
X0019604Y0046433D01*
X0020484Y0045434D02*
X0022333Y0045434D01*
X0022333Y0044436D02*
X0020883Y0044436D01*
X0020856Y0043437D02*
X0022357Y0043437D01*
X0026434Y0011485D02*
X0031383Y0011485D01*
X0031775Y0010487D02*
X0029365Y0010487D01*
X0030906Y0009488D02*
X0034861Y0009488D01*
X0034107Y0008490D02*
X0031659Y0008490D01*
X0032073Y0007491D02*
X0033694Y0007491D01*
X0033633Y0006493D02*
X0032133Y0006493D01*
X0032067Y0005494D02*
X0033700Y0005494D01*
X0034113Y0004496D02*
X0031653Y0004496D01*
X0030891Y0003497D02*
X0034876Y0003497D01*
D18*
X0027883Y0006500D02*
X0023383Y0011000D01*
X0023383Y0021500D01*
X0018883Y0034000D02*
X0017883Y0036449D01*
X0018383Y0044000D01*
X0017383Y0045000D01*
X0018883Y0034000D02*
X0010383Y0025500D01*
X0010383Y0009500D01*
X0007883Y0007000D01*
X0007883Y0006500D01*
X0005383Y0039500D02*
X0005383Y0040500D01*
X0007883Y0042500D01*
M02*
