G75*
%MOIN*%
%OFA0B0*%
%FSLAX25Y25*%
%IPPOS*%
%LPD*%
%AMOC8*
5,1,8,0,0,1.08239X$1,22.5*
%
%ADD10C,0.00600*%
%ADD11C,0.02200*%
%ADD12C,0.00394*%
%ADD13C,0.00500*%
%ADD14C,0.00300*%
D10*
X0004021Y0017819D02*
X0004021Y0020181D01*
X0008746Y0020181D02*
X0008746Y0017819D01*
X0010021Y0017819D02*
X0010021Y0020181D01*
X0012202Y0025138D02*
X0014564Y0025138D01*
X0014564Y0029862D02*
X0012202Y0029862D01*
X0014746Y0020181D02*
X0014746Y0017819D01*
X0016021Y0017819D02*
X0016021Y0020181D01*
X0020746Y0020181D02*
X0020746Y0017819D01*
X0020983Y0017100D02*
X0020983Y0021300D01*
X0024483Y0021300D01*
X0025483Y0015700D02*
X0028283Y0015700D01*
X0029283Y0021300D02*
X0032783Y0021300D01*
X0032783Y0019700D01*
X0032783Y0017100D01*
X0031883Y0017701D02*
X0031841Y0017754D01*
X0031802Y0017810D01*
X0031766Y0017868D01*
X0031734Y0017928D01*
X0031705Y0017989D01*
X0031679Y0018052D01*
X0031657Y0018117D01*
X0031638Y0018182D01*
X0031623Y0018249D01*
X0031612Y0018316D01*
X0031605Y0018384D01*
X0031601Y0018452D01*
X0031602Y0018520D01*
X0031606Y0018588D01*
X0031614Y0018656D01*
X0031625Y0018723D01*
X0031641Y0018789D01*
X0031660Y0018855D01*
X0031682Y0018919D01*
X0031708Y0018982D01*
X0031738Y0019043D01*
X0031771Y0019103D01*
X0031808Y0019160D01*
X0031847Y0019216D01*
X0031890Y0019269D01*
X0031935Y0019320D01*
X0031983Y0019368D01*
X0032034Y0019413D01*
X0032087Y0019456D01*
X0032143Y0019495D01*
X0032200Y0019531D01*
X0032260Y0019564D01*
X0032321Y0019594D01*
X0032384Y0019620D01*
X0032449Y0019643D01*
X0032514Y0019662D01*
X0032580Y0019677D01*
X0032648Y0019689D01*
X0032715Y0019696D01*
X0032783Y0019700D01*
X0030746Y0030819D02*
X0030746Y0033181D01*
X0026021Y0033181D02*
X0026021Y0030819D01*
X0027021Y0043819D02*
X0027021Y0046181D01*
X0031746Y0046181D02*
X0031746Y0043819D01*
X0010746Y0062819D02*
X0010746Y0065181D01*
X0006021Y0065181D02*
X0006021Y0062819D01*
D11*
X0029263Y0045000D02*
X0029503Y0045000D01*
X0013383Y0027620D02*
X0013383Y0027380D01*
X0012503Y0019000D02*
X0012263Y0019000D01*
X0006503Y0019000D02*
X0006263Y0019000D01*
X0018263Y0019000D02*
X0018503Y0019000D01*
D12*
X0015671Y0058957D02*
X0024529Y0058957D01*
X0024529Y0066043D01*
X0027088Y0066043D01*
X0027088Y0064272D01*
X0024529Y0066043D02*
X0015671Y0066043D01*
X0015671Y0064272D01*
X0015671Y0060728D02*
X0015671Y0058957D01*
X0024529Y0058957D02*
X0027088Y0058957D01*
X0027088Y0060728D01*
D13*
X0026383Y0055000D02*
X0024383Y0055000D01*
X0026383Y0055000D02*
X0026383Y0034000D01*
X0024383Y0034000D01*
X0020969Y0040000D02*
X0020971Y0040075D01*
X0020977Y0040149D01*
X0020987Y0040223D01*
X0021000Y0040296D01*
X0021018Y0040369D01*
X0021039Y0040440D01*
X0021064Y0040511D01*
X0021093Y0040580D01*
X0021126Y0040647D01*
X0021162Y0040712D01*
X0021201Y0040776D01*
X0021243Y0040837D01*
X0021289Y0040896D01*
X0021338Y0040953D01*
X0021390Y0041006D01*
X0021444Y0041057D01*
X0021501Y0041106D01*
X0021561Y0041150D01*
X0021623Y0041192D01*
X0021687Y0041231D01*
X0021753Y0041266D01*
X0021820Y0041297D01*
X0021890Y0041325D01*
X0021960Y0041349D01*
X0022032Y0041370D01*
X0022105Y0041386D01*
X0022178Y0041399D01*
X0022253Y0041408D01*
X0022327Y0041413D01*
X0022402Y0041414D01*
X0022476Y0041411D01*
X0022551Y0041404D01*
X0022624Y0041393D01*
X0022698Y0041379D01*
X0022770Y0041360D01*
X0022841Y0041338D01*
X0022911Y0041312D01*
X0022980Y0041282D01*
X0023046Y0041249D01*
X0023111Y0041212D01*
X0023174Y0041172D01*
X0023235Y0041128D01*
X0023293Y0041082D01*
X0023349Y0041032D01*
X0023402Y0040980D01*
X0023453Y0040925D01*
X0023500Y0040867D01*
X0023544Y0040807D01*
X0023585Y0040744D01*
X0023623Y0040680D01*
X0023657Y0040614D01*
X0023688Y0040545D01*
X0023715Y0040476D01*
X0023738Y0040405D01*
X0023757Y0040333D01*
X0023773Y0040260D01*
X0023785Y0040186D01*
X0023793Y0040112D01*
X0023797Y0040037D01*
X0023797Y0039963D01*
X0023793Y0039888D01*
X0023785Y0039814D01*
X0023773Y0039740D01*
X0023757Y0039667D01*
X0023738Y0039595D01*
X0023715Y0039524D01*
X0023688Y0039455D01*
X0023657Y0039386D01*
X0023623Y0039320D01*
X0023585Y0039256D01*
X0023544Y0039193D01*
X0023500Y0039133D01*
X0023453Y0039075D01*
X0023402Y0039020D01*
X0023349Y0038968D01*
X0023293Y0038918D01*
X0023235Y0038872D01*
X0023174Y0038828D01*
X0023111Y0038788D01*
X0023046Y0038751D01*
X0022980Y0038718D01*
X0022911Y0038688D01*
X0022841Y0038662D01*
X0022770Y0038640D01*
X0022698Y0038621D01*
X0022624Y0038607D01*
X0022551Y0038596D01*
X0022476Y0038589D01*
X0022402Y0038586D01*
X0022327Y0038587D01*
X0022253Y0038592D01*
X0022178Y0038601D01*
X0022105Y0038614D01*
X0022032Y0038630D01*
X0021960Y0038651D01*
X0021890Y0038675D01*
X0021820Y0038703D01*
X0021753Y0038734D01*
X0021687Y0038769D01*
X0021623Y0038808D01*
X0021561Y0038850D01*
X0021501Y0038894D01*
X0021444Y0038943D01*
X0021390Y0038994D01*
X0021338Y0039047D01*
X0021289Y0039104D01*
X0021243Y0039163D01*
X0021201Y0039224D01*
X0021162Y0039288D01*
X0021126Y0039353D01*
X0021093Y0039420D01*
X0021064Y0039489D01*
X0021039Y0039560D01*
X0021018Y0039631D01*
X0021000Y0039704D01*
X0020987Y0039777D01*
X0020977Y0039851D01*
X0020971Y0039925D01*
X0020969Y0040000D01*
X0005383Y0034000D02*
X0003383Y0034000D01*
X0003383Y0055000D01*
X0005383Y0055000D01*
D14*
X0033117Y0014186D02*
X0036253Y0011050D01*
X0036253Y0012618D02*
X0033117Y0012618D01*
X0033117Y0011050D02*
X0036253Y0014186D01*
X0034685Y0014186D02*
X0034685Y0011050D01*
M02*
