%
M48
M72
T01C0.01600
T02C0.03900
%
T01
X10600Y17315
X8800Y27415
X18400Y36615
X24600Y38415
X39600Y38315
X42600Y42415
X43600Y47415
X52600Y47415
X60600Y51415
X72600Y49415
X79200Y49915
X70400Y39515
X60600Y42415
X55600Y27415
X46600Y23415
X54100Y19715
X34000Y10415
X32600Y15315
T02
X6600Y12415
X6600Y22415
X6600Y32415
X6600Y42415
X6600Y52415
M30
