G75*
%MOIN*%
%OFA0B0*%
%FSLAX25Y25*%
%IPPOS*%
%LPD*%
%AMOC8*
5,1,8,0,0,1.08239X$1,22.5*
%
%ADD10R,0.04000X0.05000*%
%ADD11R,0.05000X0.04000*%
%ADD12R,0.01969X0.03937*%
%ADD13R,0.05900X0.05900*%
%ADD14C,0.05900*%
%ADD15C,0.01600*%
%ADD16C,0.03200*%
%ADD17C,0.01200*%
%ADD18C,0.02400*%
%ADD19C,0.03200*%
D10*
X0018281Y0014415D03*
X0026880Y0014415D03*
X0049320Y0034415D03*
X0057919Y0034415D03*
X0057880Y0042415D03*
X0049281Y0042415D03*
X0055281Y0051415D03*
X0063880Y0051415D03*
X0066281Y0044415D03*
X0074880Y0044415D03*
X0032880Y0039415D03*
X0024281Y0039415D03*
D11*
X0016600Y0030694D03*
X0016600Y0022096D03*
D12*
X0024120Y0021415D03*
X0027860Y0021415D03*
X0031600Y0021415D03*
X0031600Y0031651D03*
X0027860Y0031651D03*
X0024120Y0031651D03*
D13*
X0006600Y0052415D03*
D14*
X0006600Y0012415D03*
X0006600Y0022415D03*
X0006600Y0032415D03*
X0006600Y0042415D03*
D15*
X0015300Y0036615D02*
X0018400Y0036615D01*
X0015300Y0036615D02*
X0012000Y0033315D01*
X0012000Y0027915D01*
X0013500Y0026415D01*
X0025100Y0026415D01*
X0027900Y0023615D01*
X0027900Y0021455D01*
X0027860Y0021415D01*
X0027860Y0015395D01*
X0026880Y0014415D01*
X0024120Y0021415D02*
X0017281Y0021415D01*
X0016600Y0022096D01*
X0016600Y0030694D02*
X0017557Y0031651D01*
X0024120Y0031651D01*
X0027860Y0031651D02*
X0027860Y0035836D01*
X0024281Y0039415D01*
X0031600Y0038135D02*
X0031600Y0031651D01*
X0031600Y0021415D01*
X0049281Y0034454D02*
X0049281Y0042415D01*
X0042600Y0042415D01*
X0032880Y0039415D02*
X0031600Y0038135D01*
X0049281Y0034454D02*
X0049320Y0034415D01*
X0057880Y0042415D02*
X0060600Y0042415D01*
X0055281Y0050096D02*
X0052600Y0047415D01*
X0055281Y0050096D02*
X0055281Y0051415D01*
X0072600Y0049415D02*
X0072600Y0046694D01*
X0074880Y0044415D01*
D16*
X0072600Y0049415D03*
X0079200Y0049915D03*
X0070400Y0039515D03*
X0060600Y0042415D03*
X0052600Y0047415D03*
X0060600Y0051415D03*
X0043600Y0047415D03*
X0042600Y0042415D03*
X0039600Y0038315D03*
X0024600Y0038415D03*
X0018400Y0036615D03*
X0008800Y0027415D03*
X0010600Y0017315D03*
X0032600Y0015315D03*
X0034000Y0010415D03*
X0054100Y0019715D03*
X0046600Y0023415D03*
X0055600Y0027415D03*
D17*
X0055708Y0030315D02*
X0057519Y0030315D01*
X0057519Y0034015D01*
X0054319Y0034015D01*
X0054319Y0031704D01*
X0054428Y0031297D01*
X0054639Y0030932D01*
X0054936Y0030634D01*
X0055301Y0030424D01*
X0055708Y0030315D01*
X0054404Y0031385D02*
X0052720Y0031385D01*
X0052720Y0031335D02*
X0052720Y0037495D01*
X0051900Y0038315D01*
X0051481Y0038315D01*
X0051481Y0038515D01*
X0051861Y0038515D01*
X0052681Y0039335D01*
X0052681Y0045495D01*
X0051861Y0046315D01*
X0046701Y0046315D01*
X0045881Y0045495D01*
X0045881Y0044615D01*
X0044643Y0044615D01*
X0044299Y0044958D01*
X0043197Y0045415D01*
X0042003Y0045415D01*
X0040901Y0044958D01*
X0040057Y0044114D01*
X0039600Y0043011D01*
X0039600Y0041818D01*
X0040057Y0040715D01*
X0040901Y0039871D01*
X0042003Y0039415D01*
X0043197Y0039415D01*
X0044299Y0039871D01*
X0044643Y0040215D01*
X0045881Y0040215D01*
X0045881Y0039335D01*
X0046701Y0038515D01*
X0047081Y0038515D01*
X0047081Y0038315D01*
X0046741Y0038315D01*
X0045920Y0037495D01*
X0045920Y0031335D01*
X0046741Y0030515D01*
X0051900Y0030515D01*
X0052720Y0031335D01*
X0052720Y0032583D02*
X0054319Y0032583D01*
X0054319Y0033782D02*
X0052720Y0033782D01*
X0052720Y0034980D02*
X0054319Y0034980D01*
X0054319Y0034815D02*
X0057519Y0034815D01*
X0057519Y0038515D01*
X0055708Y0038515D01*
X0055301Y0038406D01*
X0054936Y0038195D01*
X0054639Y0037897D01*
X0054428Y0037532D01*
X0054319Y0037125D01*
X0054319Y0034815D01*
X0054319Y0036179D02*
X0052720Y0036179D01*
X0052720Y0037377D02*
X0054386Y0037377D01*
X0055300Y0038515D02*
X0060459Y0038515D01*
X0061280Y0039335D01*
X0061280Y0039449D01*
X0062299Y0039871D01*
X0063143Y0040715D01*
X0063165Y0040768D01*
X0063299Y0040634D01*
X0063664Y0040424D01*
X0064070Y0040315D01*
X0065881Y0040315D01*
X0065881Y0044015D01*
X0063184Y0044015D01*
X0063143Y0044114D01*
X0062299Y0044958D01*
X0061280Y0045380D01*
X0061280Y0045495D01*
X0060459Y0046315D01*
X0055300Y0046315D01*
X0054480Y0045495D01*
X0054480Y0039335D01*
X0055300Y0038515D01*
X0055238Y0038576D02*
X0051922Y0038576D01*
X0052681Y0039774D02*
X0054480Y0039774D01*
X0054480Y0040973D02*
X0052681Y0040973D01*
X0052681Y0042172D02*
X0054480Y0042172D01*
X0054480Y0043370D02*
X0052681Y0043370D01*
X0052681Y0044569D02*
X0054480Y0044569D01*
X0054752Y0045767D02*
X0052409Y0045767D01*
X0052664Y0047424D02*
X0052299Y0047634D01*
X0052001Y0047932D01*
X0051790Y0048297D01*
X0051681Y0048704D01*
X0051681Y0051015D01*
X0054881Y0051015D01*
X0054881Y0051815D01*
X0051681Y0051815D01*
X0051681Y0052815D01*
X0011150Y0052815D01*
X0011150Y0052790D01*
X0006975Y0052790D01*
X0006975Y0052040D01*
X0011150Y0052040D01*
X0011150Y0049254D01*
X0011041Y0048847D01*
X0010830Y0048482D01*
X0010532Y0048184D01*
X0010168Y0047974D01*
X0009761Y0047865D01*
X0006975Y0047865D01*
X0006975Y0052040D01*
X0006225Y0052040D01*
X0006225Y0047865D01*
X0006200Y0047865D01*
X0006200Y0046765D01*
X0007465Y0046765D01*
X0009064Y0046102D01*
X0010288Y0044879D01*
X0010950Y0043280D01*
X0010950Y0041549D01*
X0010288Y0039951D01*
X0009064Y0038727D01*
X0007465Y0038065D01*
X0006200Y0038065D01*
X0006200Y0036765D01*
X0007273Y0036765D01*
X0018396Y0047887D01*
X0019127Y0048619D01*
X0020083Y0049015D01*
X0029117Y0049015D01*
X0030073Y0048619D01*
X0034352Y0044339D01*
X0035084Y0043608D01*
X0035205Y0043315D01*
X0035459Y0043315D01*
X0036280Y0042495D01*
X0036280Y0037412D01*
X0047334Y0026358D01*
X0048299Y0025958D01*
X0049143Y0025114D01*
X0049600Y0024011D01*
X0049600Y0022818D01*
X0049143Y0021715D01*
X0048299Y0020871D01*
X0047197Y0020415D01*
X0046003Y0020415D01*
X0044901Y0020871D01*
X0044057Y0021715D01*
X0043657Y0022681D01*
X0033984Y0032354D01*
X0033984Y0029102D01*
X0033800Y0028918D01*
X0033800Y0024147D01*
X0033984Y0023963D01*
X0033984Y0018866D01*
X0033164Y0018046D01*
X0030060Y0018046D01*
X0030060Y0017714D01*
X0030280Y0017495D01*
X0030280Y0012015D01*
X0031416Y0012015D01*
X0031457Y0012114D01*
X0032301Y0012958D01*
X0033403Y0013415D01*
X0049357Y0013415D01*
X0072600Y0036657D01*
X0072600Y0040515D01*
X0072300Y0040515D01*
X0071480Y0041335D01*
X0071480Y0044703D01*
X0070400Y0045783D01*
X0070400Y0047372D01*
X0070057Y0047715D01*
X0069600Y0048818D01*
X0069600Y0050011D01*
X0070057Y0051114D01*
X0070901Y0051958D01*
X0072003Y0052415D01*
X0073197Y0052415D01*
X0074299Y0051958D01*
X0075143Y0051114D01*
X0075600Y0050011D01*
X0075600Y0048818D01*
X0075392Y0048315D01*
X0077459Y0048315D01*
X0078280Y0047495D01*
X0078280Y0045065D01*
X0078600Y0044291D01*
X0078600Y0034818D01*
X0078143Y0033715D01*
X0077299Y0032871D01*
X0056443Y0012015D01*
X0087000Y0012015D01*
X0087000Y0052815D01*
X0067280Y0052815D01*
X0067280Y0048515D01*
X0068492Y0048515D01*
X0068899Y0048406D01*
X0069264Y0048195D01*
X0069561Y0047897D01*
X0069772Y0047532D01*
X0069881Y0047125D01*
X0069881Y0044815D01*
X0066681Y0044815D01*
X0066681Y0044015D01*
X0069881Y0044015D01*
X0069881Y0041704D01*
X0069772Y0041297D01*
X0069561Y0040932D01*
X0069264Y0040634D01*
X0068899Y0040424D01*
X0068492Y0040315D01*
X0066681Y0040315D01*
X0066681Y0044015D01*
X0065881Y0044015D01*
X0065881Y0044815D01*
X0062681Y0044815D01*
X0062681Y0047125D01*
X0062785Y0047515D01*
X0061300Y0047515D01*
X0060480Y0048335D01*
X0060480Y0048415D01*
X0060003Y0048415D01*
X0058901Y0048871D01*
X0058881Y0048891D01*
X0058881Y0048704D01*
X0058772Y0048297D01*
X0058561Y0047932D01*
X0058264Y0047634D01*
X0057899Y0047424D01*
X0057492Y0047315D01*
X0055681Y0047315D01*
X0055681Y0051015D01*
X0054881Y0051015D01*
X0054881Y0047315D01*
X0053070Y0047315D01*
X0052664Y0047424D01*
X0051867Y0048164D02*
X0030528Y0048164D01*
X0031726Y0046966D02*
X0062681Y0046966D01*
X0062681Y0045767D02*
X0061007Y0045767D01*
X0062689Y0044569D02*
X0065881Y0044569D01*
X0066681Y0044569D02*
X0071480Y0044569D01*
X0070416Y0045767D02*
X0069881Y0045767D01*
X0069881Y0046966D02*
X0070400Y0046966D01*
X0069871Y0048164D02*
X0069294Y0048164D01*
X0069600Y0049363D02*
X0067280Y0049363D01*
X0067280Y0050561D02*
X0069828Y0050561D01*
X0070702Y0051760D02*
X0067280Y0051760D01*
X0063880Y0051415D02*
X0060600Y0051415D01*
X0060650Y0048164D02*
X0058695Y0048164D01*
X0055681Y0048164D02*
X0054881Y0048164D01*
X0054881Y0049363D02*
X0055681Y0049363D01*
X0055681Y0050561D02*
X0054881Y0050561D01*
X0054881Y0051760D02*
X0011150Y0051760D01*
X0011150Y0050561D02*
X0051681Y0050561D01*
X0051681Y0049363D02*
X0011150Y0049363D01*
X0010497Y0048164D02*
X0018672Y0048164D01*
X0017474Y0046966D02*
X0006200Y0046966D01*
X0006225Y0048164D02*
X0006975Y0048164D01*
X0006975Y0049363D02*
X0006225Y0049363D01*
X0006225Y0050561D02*
X0006975Y0050561D01*
X0006975Y0051760D02*
X0006225Y0051760D01*
X0009399Y0045767D02*
X0016275Y0045767D01*
X0015077Y0044569D02*
X0010416Y0044569D01*
X0010913Y0043370D02*
X0013878Y0043370D01*
X0012680Y0042172D02*
X0010950Y0042172D01*
X0010711Y0040973D02*
X0011481Y0040973D01*
X0010283Y0039774D02*
X0010112Y0039774D01*
X0009084Y0038576D02*
X0008700Y0038576D01*
X0007886Y0037377D02*
X0006200Y0037377D01*
X0017246Y0039384D02*
X0021677Y0043815D01*
X0027523Y0043815D01*
X0029480Y0041858D01*
X0029480Y0039126D01*
X0029400Y0039046D01*
X0029400Y0035127D01*
X0029055Y0035219D01*
X0027860Y0035219D01*
X0027860Y0031651D01*
X0027860Y0031651D01*
X0027860Y0035219D01*
X0026665Y0035219D01*
X0026258Y0035110D01*
X0025893Y0034900D01*
X0025848Y0034855D01*
X0025684Y0035019D01*
X0022556Y0035019D01*
X0021735Y0034199D01*
X0021735Y0033851D01*
X0019923Y0033851D01*
X0019819Y0033955D01*
X0020099Y0034071D01*
X0020943Y0034915D01*
X0021258Y0035675D01*
X0021299Y0035634D01*
X0021664Y0035424D01*
X0022070Y0035315D01*
X0023881Y0035315D01*
X0023881Y0039015D01*
X0020681Y0039015D01*
X0020681Y0038576D01*
X0020099Y0039158D01*
X0018997Y0039615D01*
X0017803Y0039615D01*
X0017246Y0039384D01*
X0017637Y0039774D02*
X0023881Y0039774D01*
X0023881Y0039815D02*
X0023881Y0039015D01*
X0024681Y0039015D01*
X0024681Y0039815D01*
X0023881Y0039815D01*
X0023881Y0043515D01*
X0022070Y0043515D01*
X0021664Y0043406D01*
X0021299Y0043195D01*
X0021001Y0042897D01*
X0020790Y0042532D01*
X0020681Y0042125D01*
X0020681Y0039815D01*
X0023881Y0039815D01*
X0024681Y0039815D02*
X0024681Y0043515D01*
X0026492Y0043515D01*
X0026899Y0043406D01*
X0027264Y0043195D01*
X0027561Y0042897D01*
X0027772Y0042532D01*
X0027881Y0042125D01*
X0027881Y0039815D01*
X0024681Y0039815D01*
X0024681Y0039774D02*
X0029480Y0039774D01*
X0029480Y0040973D02*
X0027881Y0040973D01*
X0027869Y0042172D02*
X0029166Y0042172D01*
X0027968Y0043370D02*
X0026960Y0043370D01*
X0024681Y0043370D02*
X0023881Y0043370D01*
X0023881Y0042172D02*
X0024681Y0042172D01*
X0024681Y0040973D02*
X0023881Y0040973D01*
X0024681Y0039015D02*
X0027881Y0039015D01*
X0027881Y0036704D01*
X0027772Y0036297D01*
X0027561Y0035932D01*
X0027264Y0035634D01*
X0026899Y0035424D01*
X0026492Y0035315D01*
X0024681Y0035315D01*
X0024681Y0039015D01*
X0024681Y0038576D02*
X0023881Y0038576D01*
X0023881Y0037377D02*
X0024681Y0037377D01*
X0024681Y0036179D02*
X0023881Y0036179D01*
X0022517Y0034980D02*
X0020970Y0034980D01*
X0025723Y0034980D02*
X0026033Y0034980D01*
X0027860Y0034980D02*
X0027860Y0034980D01*
X0027860Y0033782D02*
X0027860Y0033782D01*
X0027860Y0032583D02*
X0027860Y0032583D01*
X0027860Y0031651D02*
X0027860Y0028082D01*
X0029055Y0028082D01*
X0029400Y0028175D01*
X0029400Y0025226D01*
X0027300Y0027326D01*
X0026499Y0028127D01*
X0026665Y0028082D01*
X0027860Y0028082D01*
X0027860Y0031651D01*
X0027860Y0031651D01*
X0027860Y0031385D02*
X0027860Y0031385D01*
X0027860Y0030186D02*
X0027860Y0030186D01*
X0027860Y0028988D02*
X0027860Y0028988D01*
X0026837Y0027789D02*
X0029400Y0027789D01*
X0029400Y0026591D02*
X0028035Y0026591D01*
X0029234Y0025392D02*
X0029400Y0025392D01*
X0033800Y0025392D02*
X0040945Y0025392D01*
X0039747Y0026591D02*
X0033800Y0026591D01*
X0033800Y0027789D02*
X0038548Y0027789D01*
X0037350Y0028988D02*
X0033870Y0028988D01*
X0033984Y0030186D02*
X0036151Y0030186D01*
X0034953Y0031385D02*
X0033984Y0031385D01*
X0038711Y0034980D02*
X0045920Y0034980D01*
X0045920Y0033782D02*
X0039910Y0033782D01*
X0041108Y0032583D02*
X0045920Y0032583D01*
X0045920Y0031385D02*
X0042307Y0031385D01*
X0043505Y0030186D02*
X0066129Y0030186D01*
X0064931Y0028988D02*
X0044704Y0028988D01*
X0045902Y0027789D02*
X0063732Y0027789D01*
X0062534Y0026591D02*
X0047101Y0026591D01*
X0048865Y0025392D02*
X0061335Y0025392D01*
X0060137Y0024194D02*
X0049524Y0024194D01*
X0049600Y0022995D02*
X0058938Y0022995D01*
X0057739Y0021797D02*
X0049177Y0021797D01*
X0047640Y0020598D02*
X0056541Y0020598D01*
X0055342Y0019400D02*
X0033984Y0019400D01*
X0033319Y0018201D02*
X0054144Y0018201D01*
X0052945Y0017003D02*
X0030280Y0017003D01*
X0030280Y0015804D02*
X0051747Y0015804D01*
X0050548Y0014606D02*
X0030280Y0014606D01*
X0030280Y0013407D02*
X0033385Y0013407D01*
X0031551Y0012209D02*
X0030280Y0012209D01*
X0023480Y0012209D02*
X0021881Y0012209D01*
X0021881Y0012015D02*
X0021881Y0014015D01*
X0018681Y0014015D01*
X0018681Y0014815D01*
X0017881Y0014815D01*
X0017881Y0018515D01*
X0016070Y0018515D01*
X0015664Y0018406D01*
X0015299Y0018195D01*
X0015001Y0017897D01*
X0014790Y0017532D01*
X0014681Y0017125D01*
X0014681Y0014815D01*
X0017881Y0014815D01*
X0017881Y0014015D01*
X0014681Y0014015D01*
X0014681Y0012015D01*
X0010950Y0012015D01*
X0010950Y0013280D01*
X0010288Y0014879D01*
X0009064Y0016102D01*
X0007465Y0016765D01*
X0006200Y0016765D01*
X0006200Y0018065D01*
X0007465Y0018065D01*
X0009064Y0018727D01*
X0010288Y0019951D01*
X0010950Y0021549D01*
X0010950Y0023280D01*
X0010288Y0024879D01*
X0009064Y0026102D01*
X0007465Y0026765D01*
X0006200Y0026765D01*
X0006200Y0028065D01*
X0007465Y0028065D01*
X0009064Y0028727D01*
X0009800Y0029463D01*
X0009800Y0027003D01*
X0011089Y0025715D01*
X0012589Y0024215D01*
X0012700Y0024215D01*
X0012700Y0019516D01*
X0013520Y0018696D01*
X0019680Y0018696D01*
X0020199Y0019215D01*
X0021735Y0019215D01*
X0021735Y0018866D01*
X0022556Y0018046D01*
X0024031Y0018046D01*
X0023480Y0017495D01*
X0023480Y0012015D01*
X0021881Y0012015D01*
X0021881Y0013407D02*
X0023480Y0013407D01*
X0023480Y0014606D02*
X0018681Y0014606D01*
X0018681Y0014815D02*
X0021881Y0014815D01*
X0021881Y0017125D01*
X0021772Y0017532D01*
X0021561Y0017897D01*
X0021264Y0018195D01*
X0020899Y0018406D01*
X0020492Y0018515D01*
X0018681Y0018515D01*
X0018681Y0014815D01*
X0017881Y0014606D02*
X0010401Y0014606D01*
X0010897Y0013407D02*
X0014681Y0013407D01*
X0014681Y0012209D02*
X0010950Y0012209D01*
X0009362Y0015804D02*
X0014681Y0015804D01*
X0014681Y0017003D02*
X0006200Y0017003D01*
X0007795Y0018201D02*
X0015310Y0018201D01*
X0012816Y0019400D02*
X0009737Y0019400D01*
X0010556Y0020598D02*
X0012700Y0020598D01*
X0012700Y0021797D02*
X0010950Y0021797D01*
X0010950Y0022995D02*
X0012700Y0022995D01*
X0012700Y0024194D02*
X0010571Y0024194D01*
X0009774Y0025392D02*
X0011411Y0025392D01*
X0010213Y0026591D02*
X0007885Y0026591D01*
X0006200Y0027789D02*
X0009800Y0027789D01*
X0009800Y0028988D02*
X0009325Y0028988D01*
X0017881Y0018201D02*
X0018681Y0018201D01*
X0018681Y0017003D02*
X0017881Y0017003D01*
X0017881Y0015804D02*
X0018681Y0015804D01*
X0021881Y0015804D02*
X0023480Y0015804D01*
X0023480Y0017003D02*
X0021881Y0017003D01*
X0022400Y0018201D02*
X0021253Y0018201D01*
X0033800Y0024194D02*
X0042144Y0024194D01*
X0043342Y0022995D02*
X0033984Y0022995D01*
X0033984Y0021797D02*
X0044023Y0021797D01*
X0045560Y0020598D02*
X0033984Y0020598D01*
X0056637Y0012209D02*
X0087000Y0012209D01*
X0087000Y0013407D02*
X0057835Y0013407D01*
X0059034Y0014606D02*
X0087000Y0014606D01*
X0087000Y0015804D02*
X0060232Y0015804D01*
X0061431Y0017003D02*
X0087000Y0017003D01*
X0087000Y0018201D02*
X0062629Y0018201D01*
X0063828Y0019400D02*
X0087000Y0019400D01*
X0087000Y0020598D02*
X0065026Y0020598D01*
X0066225Y0021797D02*
X0087000Y0021797D01*
X0087000Y0022995D02*
X0067423Y0022995D01*
X0068622Y0024194D02*
X0087000Y0024194D01*
X0087000Y0025392D02*
X0069820Y0025392D01*
X0071019Y0026591D02*
X0087000Y0026591D01*
X0087000Y0027789D02*
X0072217Y0027789D01*
X0073416Y0028988D02*
X0087000Y0028988D01*
X0087000Y0030186D02*
X0074614Y0030186D01*
X0075813Y0031385D02*
X0087000Y0031385D01*
X0087000Y0032583D02*
X0077011Y0032583D01*
X0078171Y0033782D02*
X0087000Y0033782D01*
X0087000Y0034980D02*
X0078600Y0034980D01*
X0078600Y0036179D02*
X0087000Y0036179D01*
X0087000Y0037377D02*
X0078600Y0037377D01*
X0078600Y0038576D02*
X0087000Y0038576D01*
X0087000Y0039774D02*
X0078600Y0039774D01*
X0078600Y0040973D02*
X0087000Y0040973D01*
X0087000Y0042172D02*
X0078600Y0042172D01*
X0078600Y0043370D02*
X0087000Y0043370D01*
X0087000Y0044569D02*
X0078485Y0044569D01*
X0078280Y0045767D02*
X0087000Y0045767D01*
X0087000Y0046966D02*
X0078280Y0046966D01*
X0077610Y0048164D02*
X0087000Y0048164D01*
X0087000Y0049363D02*
X0075600Y0049363D01*
X0075372Y0050561D02*
X0087000Y0050561D01*
X0087000Y0051760D02*
X0074498Y0051760D01*
X0071480Y0043370D02*
X0069881Y0043370D01*
X0069881Y0042172D02*
X0071480Y0042172D01*
X0071841Y0040973D02*
X0069585Y0040973D01*
X0066681Y0040973D02*
X0065881Y0040973D01*
X0065881Y0042172D02*
X0066681Y0042172D01*
X0066681Y0043370D02*
X0065881Y0043370D01*
X0062065Y0039774D02*
X0072600Y0039774D01*
X0072600Y0038576D02*
X0060521Y0038576D01*
X0060536Y0038406D02*
X0060130Y0038515D01*
X0058319Y0038515D01*
X0058319Y0034815D01*
X0057519Y0034815D01*
X0057519Y0034015D01*
X0058319Y0034015D01*
X0058319Y0034815D01*
X0061519Y0034815D01*
X0061519Y0037125D01*
X0061410Y0037532D01*
X0061199Y0037897D01*
X0060901Y0038195D01*
X0060536Y0038406D01*
X0061451Y0037377D02*
X0072600Y0037377D01*
X0072122Y0036179D02*
X0061519Y0036179D01*
X0061519Y0034980D02*
X0070923Y0034980D01*
X0069725Y0033782D02*
X0061519Y0033782D01*
X0061519Y0034015D02*
X0061519Y0031704D01*
X0061410Y0031297D01*
X0061199Y0030932D01*
X0060901Y0030634D01*
X0060536Y0030424D01*
X0060130Y0030315D01*
X0058319Y0030315D01*
X0058319Y0034015D01*
X0061519Y0034015D01*
X0061519Y0032583D02*
X0068526Y0032583D01*
X0067328Y0031385D02*
X0061433Y0031385D01*
X0058319Y0031385D02*
X0057519Y0031385D01*
X0057519Y0032583D02*
X0058319Y0032583D01*
X0058319Y0033782D02*
X0057519Y0033782D01*
X0057519Y0034980D02*
X0058319Y0034980D01*
X0058319Y0036179D02*
X0057519Y0036179D01*
X0057519Y0037377D02*
X0058319Y0037377D01*
X0046640Y0038576D02*
X0036280Y0038576D01*
X0036280Y0039774D02*
X0041135Y0039774D01*
X0039950Y0040973D02*
X0036280Y0040973D01*
X0036280Y0042172D02*
X0039600Y0042172D01*
X0039749Y0043370D02*
X0035182Y0043370D01*
X0034123Y0044569D02*
X0040511Y0044569D01*
X0046154Y0045767D02*
X0032925Y0045767D01*
X0029400Y0038576D02*
X0027881Y0038576D01*
X0027881Y0037377D02*
X0029400Y0037377D01*
X0029400Y0036179D02*
X0027704Y0036179D01*
X0020681Y0040973D02*
X0018835Y0040973D01*
X0020034Y0042172D02*
X0020693Y0042172D01*
X0021232Y0043370D02*
X0021602Y0043370D01*
X0036314Y0037377D02*
X0045920Y0037377D01*
X0045920Y0036179D02*
X0037513Y0036179D01*
X0044065Y0039774D02*
X0045881Y0039774D01*
D18*
X0032880Y0039415D02*
X0032880Y0037135D01*
X0046600Y0023415D01*
X0032880Y0039415D02*
X0032880Y0042135D01*
X0028600Y0046415D01*
X0020600Y0046415D01*
X0006600Y0032415D01*
D19*
X0034000Y0010415D02*
X0050600Y0010415D01*
X0075600Y0035415D01*
X0075600Y0043694D01*
X0074880Y0044415D01*
M02*
