G75*
%MOIN*%
%OFA0B0*%
%FSLAX25Y25*%
%IPPOS*%
%LPD*%
%AMOC8*
5,1,8,0,0,1.08239X$1,22.5*
%
%ADD10R,0.04800X0.05800*%
%ADD11R,0.05800X0.04800*%
%ADD12R,0.02769X0.04737*%
%ADD13R,0.06700X0.06700*%
%ADD14C,0.06700*%
%ADD15C,0.04000*%
D10*
X0018281Y0014415D03*
X0026880Y0014415D03*
X0049320Y0034415D03*
X0057919Y0034415D03*
X0057880Y0042415D03*
X0049281Y0042415D03*
X0055281Y0051415D03*
X0063880Y0051415D03*
X0066281Y0044415D03*
X0074880Y0044415D03*
X0032880Y0039415D03*
X0024281Y0039415D03*
D11*
X0016600Y0030694D03*
X0016600Y0022096D03*
D12*
X0024120Y0021415D03*
X0027860Y0021415D03*
X0031600Y0021415D03*
X0031600Y0031651D03*
X0027860Y0031651D03*
X0024120Y0031651D03*
D13*
X0006600Y0052415D03*
D14*
X0006600Y0012415D03*
X0006600Y0022415D03*
X0006600Y0032415D03*
X0006600Y0042415D03*
D15*
X0018400Y0036615D03*
X0024600Y0038415D03*
X0039600Y0038315D03*
X0042600Y0042415D03*
X0043600Y0047415D03*
X0052600Y0047415D03*
X0060600Y0051415D03*
X0072600Y0049415D03*
X0079200Y0049915D03*
X0070400Y0039515D03*
X0060600Y0042415D03*
X0055600Y0027415D03*
X0046600Y0023415D03*
X0054100Y0019715D03*
X0034000Y0010415D03*
X0032600Y0015315D03*
X0010600Y0017315D03*
X0008800Y0027415D03*
M02*
