G75*
%MOIN*%
%OFA0B0*%
%FSLAX25Y25*%
%IPPOS*%
%LPD*%
%AMOC8*
5,1,8,0,0,1.08239X$1,22.5*
%
%ADD10R,0.04724X0.03150*%
%ADD11R,0.03150X0.04724*%
%ADD12R,0.03268X0.02480*%
%ADD13R,0.05900X0.05900*%
%ADD14C,0.05900*%
%ADD15C,0.05937*%
%ADD16C,0.01000*%
%ADD17C,0.02600*%
%ADD18C,0.02400*%
%ADD19C,0.03200*%
D10*
X0048907Y0033490D03*
X0054657Y0033490D03*
X0054657Y0040577D03*
X0048907Y0040577D03*
X0045307Y0060490D03*
X0045307Y0067577D03*
X0035807Y0067577D03*
X0035807Y0060490D03*
X0021107Y0065540D03*
X0015107Y0065540D03*
X0015107Y0072627D03*
X0021107Y0072627D03*
X0054807Y0067577D03*
X0054807Y0060490D03*
X0064307Y0060490D03*
X0064307Y0067577D03*
X0071357Y0072540D03*
X0071357Y0079627D03*
D11*
X0070601Y0086033D03*
X0063514Y0086033D03*
X0064564Y0047583D03*
X0071651Y0047583D03*
X0025201Y0050383D03*
X0025201Y0044633D03*
X0018114Y0044633D03*
X0018114Y0050383D03*
D12*
X0025157Y0035561D03*
X0025157Y0026506D03*
D13*
X0008157Y0048633D03*
X0079657Y0039883D03*
D14*
X0008157Y0018633D03*
X0008157Y0028633D03*
X0008157Y0038633D03*
X0079657Y0029883D03*
X0079657Y0019883D03*
X0089657Y0019883D03*
X0089657Y0029883D03*
X0089657Y0039883D03*
D15*
X0084826Y0051333D02*
X0078889Y0051333D01*
X0078889Y0061333D02*
X0084826Y0061333D01*
X0084826Y0071333D02*
X0078889Y0071333D01*
X0078889Y0081333D02*
X0084826Y0081333D01*
X0055357Y0083615D02*
X0055357Y0089552D01*
X0045357Y0089552D02*
X0045357Y0083615D01*
D16*
X0041311Y0082231D02*
X0007357Y0082231D01*
X0007357Y0083229D02*
X0041089Y0083229D01*
X0041089Y0082766D02*
X0041739Y0081197D01*
X0042940Y0079996D01*
X0044508Y0079346D01*
X0046207Y0079346D01*
X0047775Y0079996D01*
X0048976Y0081197D01*
X0049626Y0082766D01*
X0049626Y0090401D01*
X0048976Y0091970D01*
X0047775Y0093170D01*
X0046207Y0093820D01*
X0044508Y0093820D01*
X0042940Y0093170D01*
X0041739Y0091970D01*
X0041089Y0090401D01*
X0041089Y0082766D01*
X0041724Y0081232D02*
X0007357Y0081232D01*
X0007357Y0080234D02*
X0042702Y0080234D01*
X0041089Y0084228D02*
X0007357Y0084228D01*
X0007716Y0085083D02*
X0010998Y0085083D01*
X0014031Y0086339D01*
X0016351Y0088660D01*
X0017607Y0091692D01*
X0017607Y0094974D01*
X0017459Y0095333D01*
X0081256Y0095333D01*
X0081107Y0094974D01*
X0081107Y0091692D01*
X0082363Y0088660D01*
X0084684Y0086339D01*
X0087716Y0085083D01*
X0090998Y0085083D01*
X0091357Y0085232D01*
X0091357Y0043779D01*
X0090503Y0044133D01*
X0088812Y0044133D01*
X0087250Y0043486D01*
X0086055Y0042291D01*
X0085407Y0040729D01*
X0085407Y0039038D01*
X0085659Y0038431D01*
X0084107Y0036879D01*
X0084107Y0039408D01*
X0080133Y0039408D01*
X0080133Y0040358D01*
X0084107Y0040358D01*
X0084107Y0043031D01*
X0084005Y0043412D01*
X0083808Y0043754D01*
X0083528Y0044034D01*
X0083186Y0044231D01*
X0082805Y0044333D01*
X0080132Y0044333D01*
X0080132Y0040358D01*
X0079182Y0040358D01*
X0079182Y0039408D01*
X0075207Y0039408D01*
X0075207Y0036736D01*
X0075310Y0036354D01*
X0075501Y0036023D01*
X0067612Y0028133D01*
X0063112Y0028133D01*
X0061612Y0026633D01*
X0058487Y0026633D01*
X0059080Y0026879D01*
X0059812Y0027611D01*
X0060207Y0028566D01*
X0060207Y0028832D01*
X0066250Y0034875D01*
X0067066Y0035691D01*
X0067507Y0036756D01*
X0067507Y0039882D01*
X0067757Y0040132D01*
X0067757Y0039566D01*
X0068153Y0038611D01*
X0068885Y0037879D01*
X0069840Y0037483D01*
X0070875Y0037483D01*
X0071830Y0037879D01*
X0072562Y0038611D01*
X0072957Y0039566D01*
X0072957Y0040138D01*
X0073451Y0040631D01*
X0073451Y0043921D01*
X0073764Y0043921D01*
X0074526Y0044683D01*
X0074526Y0050318D01*
X0074530Y0050287D01*
X0074748Y0049618D01*
X0075067Y0048991D01*
X0075481Y0048422D01*
X0075978Y0047925D01*
X0076547Y0047512D01*
X0077174Y0047192D01*
X0077843Y0046975D01*
X0078537Y0046865D01*
X0081373Y0046865D01*
X0081373Y0050849D01*
X0074441Y0050849D01*
X0074494Y0050515D01*
X0074040Y0050970D01*
X0074887Y0051818D01*
X0081373Y0051818D01*
X0081373Y0055802D01*
X0078872Y0055802D01*
X0080135Y0057065D01*
X0085675Y0057065D01*
X0087244Y0057715D01*
X0088445Y0058915D01*
X0089094Y0060484D01*
X0089094Y0062182D01*
X0088445Y0063751D01*
X0087244Y0064952D01*
X0085675Y0065602D01*
X0078040Y0065602D01*
X0076471Y0064952D01*
X0075270Y0063751D01*
X0074620Y0062182D01*
X0074620Y0060484D01*
X0075270Y0058915D01*
X0076082Y0058104D01*
X0075257Y0057279D01*
X0075257Y0057660D01*
X0074816Y0058726D01*
X0074000Y0059542D01*
X0072934Y0059983D01*
X0071781Y0059983D01*
X0070715Y0059542D01*
X0063899Y0052726D01*
X0063457Y0051660D01*
X0063457Y0051246D01*
X0062451Y0051246D01*
X0061689Y0050484D01*
X0061689Y0048221D01*
X0061664Y0048160D01*
X0061664Y0047006D01*
X0061689Y0046946D01*
X0061689Y0044683D01*
X0062451Y0043921D01*
X0063344Y0043921D01*
X0062149Y0042726D01*
X0061707Y0041660D01*
X0061707Y0040910D01*
X0061330Y0041287D01*
X0060375Y0041683D01*
X0059340Y0041683D01*
X0058520Y0041343D01*
X0058520Y0042349D01*
X0058417Y0042730D01*
X0058220Y0043072D01*
X0057941Y0043352D01*
X0057599Y0043549D01*
X0057217Y0043651D01*
X0054945Y0043651D01*
X0054945Y0040864D01*
X0054370Y0040864D01*
X0054370Y0040289D01*
X0050795Y0040289D01*
X0049195Y0040289D01*
X0049195Y0040864D01*
X0054370Y0040864D01*
X0054370Y0043651D01*
X0052098Y0043651D01*
X0051782Y0043567D01*
X0051467Y0043651D01*
X0049195Y0043651D01*
X0049195Y0040864D01*
X0048620Y0040864D01*
X0048620Y0040289D01*
X0045045Y0040289D01*
X0045045Y0038804D01*
X0045091Y0038633D01*
X0041853Y0038633D01*
X0039753Y0040733D01*
X0040125Y0040733D01*
X0041080Y0041129D01*
X0041812Y0041861D01*
X0042109Y0042579D01*
X0042340Y0042483D01*
X0043375Y0042483D01*
X0044330Y0042879D01*
X0045062Y0043611D01*
X0045457Y0044566D01*
X0045457Y0045601D01*
X0045062Y0046556D01*
X0044330Y0047287D01*
X0043375Y0047683D01*
X0042803Y0047683D01*
X0037607Y0052879D01*
X0037607Y0057615D01*
X0038708Y0057615D01*
X0039470Y0058377D01*
X0039470Y0062603D01*
X0038708Y0063365D01*
X0032907Y0063365D01*
X0032657Y0063115D01*
X0032657Y0064951D01*
X0032907Y0064702D01*
X0038708Y0064702D01*
X0039470Y0065463D01*
X0039470Y0069690D01*
X0038708Y0070451D01*
X0038174Y0070451D01*
X0038407Y0071016D01*
X0038407Y0072051D01*
X0038012Y0073006D01*
X0037484Y0073533D01*
X0043631Y0073533D01*
X0043103Y0073006D01*
X0042707Y0072051D01*
X0042707Y0071016D01*
X0042941Y0070451D01*
X0042407Y0070451D01*
X0041645Y0069690D01*
X0041645Y0065463D01*
X0042407Y0064702D01*
X0048208Y0064702D01*
X0048970Y0065463D01*
X0048970Y0069690D01*
X0048208Y0070451D01*
X0047674Y0070451D01*
X0047907Y0071016D01*
X0047907Y0072051D01*
X0047512Y0073006D01*
X0046984Y0073533D01*
X0053131Y0073533D01*
X0052653Y0073056D01*
X0052257Y0072101D01*
X0052257Y0071066D01*
X0052512Y0070451D01*
X0051907Y0070451D01*
X0051145Y0069690D01*
X0051145Y0065463D01*
X0051907Y0064702D01*
X0057708Y0064702D01*
X0058470Y0065463D01*
X0058470Y0069690D01*
X0057708Y0070451D01*
X0057203Y0070451D01*
X0057457Y0071066D01*
X0057457Y0072101D01*
X0057062Y0073056D01*
X0056584Y0073533D01*
X0062631Y0073533D01*
X0062103Y0073006D01*
X0061707Y0072051D01*
X0061707Y0071016D01*
X0061941Y0070451D01*
X0061407Y0070451D01*
X0060645Y0069690D01*
X0060645Y0065463D01*
X0061407Y0064702D01*
X0067208Y0064702D01*
X0067970Y0065463D01*
X0067970Y0069690D01*
X0067208Y0070451D01*
X0066674Y0070451D01*
X0066907Y0071016D01*
X0066907Y0071194D01*
X0067362Y0070740D01*
X0067695Y0070740D01*
X0067695Y0070427D01*
X0068457Y0069665D01*
X0074258Y0069665D01*
X0074754Y0070161D01*
X0075270Y0068915D01*
X0076471Y0067715D01*
X0078040Y0067065D01*
X0085675Y0067065D01*
X0087244Y0067715D01*
X0088445Y0068915D01*
X0089094Y0070484D01*
X0089094Y0072182D01*
X0088445Y0073751D01*
X0087244Y0074952D01*
X0085675Y0075602D01*
X0078040Y0075602D01*
X0076471Y0074952D01*
X0075859Y0074340D01*
X0075020Y0074340D01*
X0075020Y0074653D01*
X0074258Y0075415D01*
X0068457Y0075415D01*
X0068118Y0075076D01*
X0066060Y0077133D01*
X0033112Y0077133D01*
X0032057Y0076079D01*
X0029057Y0073079D01*
X0029057Y0052588D01*
X0037238Y0044407D01*
X0037230Y0044388D01*
X0036580Y0045037D01*
X0035625Y0045433D01*
X0034590Y0045433D01*
X0033635Y0045037D01*
X0032903Y0044306D01*
X0032507Y0043351D01*
X0032507Y0042316D01*
X0032903Y0041361D01*
X0033635Y0040629D01*
X0034590Y0040233D01*
X0035162Y0040233D01*
X0039307Y0036088D01*
X0040362Y0035033D01*
X0045245Y0035033D01*
X0045245Y0031533D01*
X0013603Y0031533D01*
X0019914Y0037844D01*
X0019914Y0040971D01*
X0020227Y0040971D01*
X0020989Y0041733D01*
X0020989Y0053284D01*
X0020227Y0054046D01*
X0016001Y0054046D01*
X0015239Y0053284D01*
X0015239Y0041733D01*
X0016001Y0040971D01*
X0016314Y0040971D01*
X0016314Y0039336D01*
X0009610Y0032632D01*
X0009003Y0032883D01*
X0007357Y0032883D01*
X0007357Y0034255D01*
X0007682Y0034203D01*
X0007682Y0038158D01*
X0008632Y0038158D01*
X0008632Y0034203D01*
X0009200Y0034293D01*
X0009866Y0034509D01*
X0010490Y0034827D01*
X0011056Y0035239D01*
X0011552Y0035734D01*
X0011963Y0036301D01*
X0012281Y0036925D01*
X0012498Y0037591D01*
X0012588Y0038158D01*
X0008633Y0038158D01*
X0008633Y0039108D01*
X0012588Y0039108D01*
X0012498Y0039675D01*
X0012281Y0040342D01*
X0011963Y0040966D01*
X0011552Y0041532D01*
X0011056Y0042028D01*
X0010490Y0042439D01*
X0009866Y0042757D01*
X0009200Y0042974D01*
X0008632Y0043064D01*
X0008632Y0039108D01*
X0007682Y0039108D01*
X0007682Y0043064D01*
X0007357Y0043012D01*
X0007357Y0044383D01*
X0011646Y0044383D01*
X0012407Y0045145D01*
X0012407Y0052122D01*
X0011646Y0052883D01*
X0007357Y0052883D01*
X0007357Y0085232D01*
X0007716Y0085083D01*
X0007372Y0085226D02*
X0007357Y0085226D01*
X0011343Y0085226D02*
X0041089Y0085226D01*
X0041089Y0086225D02*
X0013754Y0086225D01*
X0014915Y0087223D02*
X0041089Y0087223D01*
X0041089Y0088222D02*
X0015913Y0088222D01*
X0016583Y0089220D02*
X0041089Y0089220D01*
X0041089Y0090219D02*
X0016997Y0090219D01*
X0017411Y0091217D02*
X0041427Y0091217D01*
X0041985Y0092216D02*
X0017607Y0092216D01*
X0017607Y0093214D02*
X0043045Y0093214D01*
X0047670Y0093214D02*
X0052796Y0093214D01*
X0053015Y0093374D02*
X0052446Y0092960D01*
X0051949Y0092463D01*
X0051536Y0091894D01*
X0051216Y0091267D01*
X0050999Y0090598D01*
X0050889Y0089904D01*
X0050889Y0087068D01*
X0054873Y0087068D01*
X0054873Y0093999D01*
X0054311Y0093910D01*
X0053642Y0093693D01*
X0053015Y0093374D01*
X0051770Y0092216D02*
X0048730Y0092216D01*
X0049288Y0091217D02*
X0051200Y0091217D01*
X0050939Y0090219D02*
X0049626Y0090219D01*
X0049626Y0089220D02*
X0050889Y0089220D01*
X0050889Y0088222D02*
X0049626Y0088222D01*
X0049626Y0087223D02*
X0050889Y0087223D01*
X0050889Y0086099D02*
X0050889Y0083263D01*
X0050999Y0082568D01*
X0051216Y0081900D01*
X0051536Y0081273D01*
X0051949Y0080704D01*
X0052446Y0080206D01*
X0053015Y0079793D01*
X0053642Y0079474D01*
X0054311Y0079256D01*
X0054873Y0079167D01*
X0054873Y0086099D01*
X0050889Y0086099D01*
X0050889Y0085226D02*
X0049626Y0085226D01*
X0049626Y0084228D02*
X0050889Y0084228D01*
X0050894Y0083229D02*
X0049626Y0083229D01*
X0049404Y0082231D02*
X0051109Y0082231D01*
X0051565Y0081232D02*
X0048991Y0081232D01*
X0048013Y0080234D02*
X0052419Y0080234D01*
X0054445Y0079235D02*
X0007357Y0079235D01*
X0007357Y0078237D02*
X0067695Y0078237D01*
X0067695Y0077513D02*
X0068457Y0076752D01*
X0074258Y0076752D01*
X0075020Y0077513D01*
X0075020Y0077827D01*
X0076359Y0077827D01*
X0076471Y0077715D01*
X0078040Y0077065D01*
X0085675Y0077065D01*
X0087244Y0077715D01*
X0088445Y0078915D01*
X0089094Y0080484D01*
X0089094Y0082182D01*
X0088445Y0083751D01*
X0087244Y0084952D01*
X0085675Y0085602D01*
X0080135Y0085602D01*
X0077903Y0087833D01*
X0073476Y0087833D01*
X0073476Y0088934D01*
X0072714Y0089696D01*
X0068488Y0089696D01*
X0067726Y0088934D01*
X0067726Y0083133D01*
X0068407Y0082452D01*
X0067695Y0081740D01*
X0067695Y0077513D01*
X0067971Y0077238D02*
X0007357Y0077238D01*
X0007357Y0076240D02*
X0032218Y0076240D01*
X0031220Y0075241D02*
X0024551Y0075241D01*
X0024670Y0075122D02*
X0024391Y0075402D01*
X0024049Y0075599D01*
X0023667Y0075701D01*
X0021395Y0075701D01*
X0021395Y0072914D01*
X0024970Y0072914D01*
X0024970Y0074399D01*
X0024867Y0074780D01*
X0024670Y0075122D01*
X0024970Y0074243D02*
X0030221Y0074243D01*
X0029223Y0073244D02*
X0024970Y0073244D01*
X0024970Y0072339D02*
X0021395Y0072339D01*
X0021395Y0069552D01*
X0023667Y0069552D01*
X0024049Y0069654D01*
X0024391Y0069852D01*
X0024670Y0070131D01*
X0024867Y0070473D01*
X0024970Y0070854D01*
X0024970Y0072339D01*
X0024970Y0072245D02*
X0029057Y0072245D01*
X0029057Y0071247D02*
X0024970Y0071247D01*
X0024738Y0070248D02*
X0029057Y0070248D01*
X0029057Y0069250D02*
X0007357Y0069250D01*
X0007357Y0070248D02*
X0011477Y0070248D01*
X0011545Y0070131D02*
X0011824Y0069852D01*
X0012166Y0069654D01*
X0012548Y0069552D01*
X0014820Y0069552D01*
X0014820Y0072339D01*
X0015395Y0072339D01*
X0015395Y0069552D01*
X0017667Y0069552D01*
X0018049Y0069654D01*
X0018107Y0069688D01*
X0018166Y0069654D01*
X0018548Y0069552D01*
X0020820Y0069552D01*
X0020820Y0072339D01*
X0021395Y0072339D01*
X0021395Y0072914D01*
X0020820Y0072914D01*
X0020820Y0072339D01*
X0017245Y0072339D01*
X0015395Y0072339D01*
X0015395Y0072914D01*
X0020820Y0072914D01*
X0020820Y0075701D01*
X0018548Y0075701D01*
X0018166Y0075599D01*
X0018107Y0075565D01*
X0018049Y0075599D01*
X0017667Y0075701D01*
X0015395Y0075701D01*
X0015395Y0072914D01*
X0014820Y0072914D01*
X0014820Y0072339D01*
X0011245Y0072339D01*
X0011245Y0070854D01*
X0011348Y0070473D01*
X0011545Y0070131D01*
X0012207Y0068415D02*
X0011445Y0067653D01*
X0011445Y0063427D01*
X0012207Y0062665D01*
X0016599Y0062665D01*
X0016635Y0062629D01*
X0017590Y0062233D01*
X0018625Y0062233D01*
X0019580Y0062629D01*
X0019616Y0062665D01*
X0024008Y0062665D01*
X0024770Y0063427D01*
X0024770Y0067653D01*
X0024008Y0068415D01*
X0018207Y0068415D01*
X0018107Y0068315D01*
X0018008Y0068415D01*
X0012207Y0068415D01*
X0012043Y0068251D02*
X0007357Y0068251D01*
X0007357Y0067253D02*
X0011445Y0067253D01*
X0011445Y0066254D02*
X0007357Y0066254D01*
X0007357Y0065256D02*
X0011445Y0065256D01*
X0011445Y0064257D02*
X0007357Y0064257D01*
X0007357Y0063259D02*
X0011613Y0063259D01*
X0007357Y0062260D02*
X0017525Y0062260D01*
X0018690Y0062260D02*
X0029057Y0062260D01*
X0029057Y0061262D02*
X0007357Y0061262D01*
X0007357Y0060263D02*
X0029057Y0060263D01*
X0029057Y0059265D02*
X0007357Y0059265D01*
X0007357Y0058266D02*
X0029057Y0058266D01*
X0029057Y0057268D02*
X0007357Y0057268D01*
X0007357Y0056269D02*
X0029057Y0056269D01*
X0029057Y0055271D02*
X0007357Y0055271D01*
X0007357Y0054272D02*
X0029057Y0054272D01*
X0029057Y0053274D02*
X0028187Y0053274D01*
X0028173Y0053325D02*
X0027976Y0053667D01*
X0027697Y0053946D01*
X0027355Y0054143D01*
X0026973Y0054246D01*
X0025488Y0054246D01*
X0025488Y0050671D01*
X0024913Y0050671D01*
X0024913Y0050096D01*
X0022126Y0050096D01*
X0022126Y0047824D01*
X0022210Y0047508D01*
X0022126Y0047193D01*
X0022126Y0044921D01*
X0024913Y0044921D01*
X0024913Y0044346D01*
X0022126Y0044346D01*
X0022126Y0042074D01*
X0022228Y0041692D01*
X0022426Y0041350D01*
X0022705Y0041071D01*
X0023047Y0040873D01*
X0023428Y0040771D01*
X0024913Y0040771D01*
X0024913Y0044346D01*
X0025488Y0044346D01*
X0025488Y0040771D01*
X0026973Y0040771D01*
X0027355Y0040873D01*
X0027697Y0041071D01*
X0027976Y0041350D01*
X0028173Y0041692D01*
X0028276Y0042074D01*
X0028276Y0042988D01*
X0028307Y0042956D01*
X0028307Y0040338D01*
X0029362Y0039283D01*
X0032257Y0036388D01*
X0032257Y0035816D01*
X0032653Y0034861D01*
X0033385Y0034129D01*
X0034340Y0033733D01*
X0035375Y0033733D01*
X0036330Y0034129D01*
X0037062Y0034861D01*
X0037457Y0035816D01*
X0037457Y0036851D01*
X0037062Y0037806D01*
X0036330Y0038537D01*
X0035375Y0038933D01*
X0034803Y0038933D01*
X0031907Y0041829D01*
X0031907Y0042956D01*
X0032312Y0043361D01*
X0032707Y0044316D01*
X0032707Y0045351D01*
X0032312Y0046306D01*
X0031580Y0047037D01*
X0030625Y0047433D01*
X0029590Y0047433D01*
X0028635Y0047037D01*
X0028276Y0046678D01*
X0028276Y0047193D01*
X0028191Y0047508D01*
X0028276Y0047824D01*
X0028276Y0050096D01*
X0025488Y0050096D01*
X0025488Y0044921D01*
X0024913Y0044921D01*
X0024913Y0048496D01*
X0024913Y0050096D01*
X0025488Y0050096D01*
X0025488Y0050671D01*
X0028276Y0050671D01*
X0028276Y0052943D01*
X0028173Y0053325D01*
X0028276Y0052275D02*
X0029370Y0052275D01*
X0030368Y0051277D02*
X0028276Y0051277D01*
X0028276Y0049280D02*
X0032365Y0049280D01*
X0031367Y0050278D02*
X0025488Y0050278D01*
X0024913Y0050278D02*
X0020989Y0050278D01*
X0020989Y0049280D02*
X0022126Y0049280D01*
X0022126Y0048281D02*
X0020989Y0048281D01*
X0020989Y0047283D02*
X0022150Y0047283D01*
X0022126Y0046284D02*
X0020989Y0046284D01*
X0020989Y0045286D02*
X0022126Y0045286D01*
X0022126Y0044287D02*
X0020989Y0044287D01*
X0020989Y0043289D02*
X0022126Y0043289D01*
X0022126Y0042290D02*
X0020989Y0042290D01*
X0020548Y0041292D02*
X0022484Y0041292D01*
X0019914Y0040293D02*
X0028352Y0040293D01*
X0028307Y0041292D02*
X0027917Y0041292D01*
X0028276Y0042290D02*
X0028307Y0042290D01*
X0030107Y0041083D02*
X0030107Y0044833D01*
X0029227Y0047283D02*
X0028252Y0047283D01*
X0028276Y0048281D02*
X0033364Y0048281D01*
X0034363Y0047283D02*
X0030988Y0047283D01*
X0032321Y0046284D02*
X0035361Y0046284D01*
X0035981Y0045286D02*
X0036360Y0045286D01*
X0034234Y0045286D02*
X0032707Y0045286D01*
X0032695Y0044287D02*
X0032895Y0044287D01*
X0032507Y0043289D02*
X0032240Y0043289D01*
X0032518Y0042290D02*
X0031907Y0042290D01*
X0032445Y0041292D02*
X0032972Y0041292D01*
X0033443Y0040293D02*
X0034446Y0040293D01*
X0034442Y0039295D02*
X0036101Y0039295D01*
X0036572Y0038296D02*
X0037099Y0038296D01*
X0037272Y0037298D02*
X0038098Y0037298D01*
X0037457Y0036299D02*
X0039096Y0036299D01*
X0040095Y0035301D02*
X0037244Y0035301D01*
X0036503Y0034302D02*
X0045245Y0034302D01*
X0045245Y0033304D02*
X0027895Y0033304D01*
X0027992Y0033400D02*
X0028189Y0033742D01*
X0028291Y0034123D01*
X0028291Y0035441D01*
X0025278Y0035441D01*
X0025278Y0035681D01*
X0028291Y0035681D01*
X0028291Y0036999D01*
X0028189Y0037380D01*
X0027992Y0037722D01*
X0027712Y0038001D01*
X0027370Y0038199D01*
X0026989Y0038301D01*
X0025278Y0038301D01*
X0025278Y0035681D01*
X0025037Y0035681D01*
X0025037Y0035441D01*
X0022024Y0035441D01*
X0022024Y0034123D01*
X0022126Y0033742D01*
X0022323Y0033400D01*
X0022603Y0033120D01*
X0022945Y0032923D01*
X0023326Y0032821D01*
X0025037Y0032821D01*
X0025037Y0035441D01*
X0025278Y0035441D01*
X0025278Y0032821D01*
X0026989Y0032821D01*
X0027370Y0032923D01*
X0027712Y0033120D01*
X0027992Y0033400D01*
X0028291Y0034302D02*
X0033212Y0034302D01*
X0032471Y0035301D02*
X0028291Y0035301D01*
X0028291Y0036299D02*
X0032257Y0036299D01*
X0031348Y0037298D02*
X0028211Y0037298D01*
X0027007Y0038296D02*
X0030349Y0038296D01*
X0029362Y0039283D02*
X0029362Y0039283D01*
X0029351Y0039295D02*
X0019914Y0039295D01*
X0019914Y0038296D02*
X0023308Y0038296D01*
X0023326Y0038301D02*
X0022945Y0038199D01*
X0022603Y0038001D01*
X0022323Y0037722D01*
X0022126Y0037380D01*
X0022024Y0036999D01*
X0022024Y0035681D01*
X0025037Y0035681D01*
X0025037Y0038301D01*
X0023326Y0038301D01*
X0022104Y0037298D02*
X0019367Y0037298D01*
X0018369Y0036299D02*
X0022024Y0036299D01*
X0022024Y0035301D02*
X0017370Y0035301D01*
X0016372Y0034302D02*
X0022024Y0034302D01*
X0022419Y0033304D02*
X0015373Y0033304D01*
X0014375Y0032305D02*
X0045245Y0032305D01*
X0048907Y0033490D02*
X0054657Y0033490D01*
X0054657Y0032033D01*
X0057607Y0029083D01*
X0059514Y0027312D02*
X0062291Y0027312D01*
X0063857Y0026333D02*
X0062357Y0024833D01*
X0043107Y0024833D01*
X0042607Y0025333D01*
X0036607Y0025333D01*
X0036107Y0024833D01*
X0030257Y0024633D02*
X0030257Y0024233D01*
X0024657Y0018633D01*
X0008157Y0018633D01*
X0008157Y0028633D02*
X0018114Y0038590D01*
X0018114Y0044633D01*
X0015239Y0044287D02*
X0007357Y0044287D01*
X0007357Y0043289D02*
X0015239Y0043289D01*
X0015239Y0042290D02*
X0010695Y0042290D01*
X0011727Y0041292D02*
X0015680Y0041292D01*
X0016314Y0040293D02*
X0012297Y0040293D01*
X0012558Y0039295D02*
X0016273Y0039295D01*
X0015275Y0038296D02*
X0008633Y0038296D01*
X0008632Y0037298D02*
X0007682Y0037298D01*
X0007682Y0036299D02*
X0008632Y0036299D01*
X0008632Y0035301D02*
X0007682Y0035301D01*
X0007682Y0034302D02*
X0008632Y0034302D01*
X0009228Y0034302D02*
X0011281Y0034302D01*
X0011118Y0035301D02*
X0012279Y0035301D01*
X0011962Y0036299D02*
X0013278Y0036299D01*
X0012402Y0037298D02*
X0014276Y0037298D01*
X0010282Y0033304D02*
X0007357Y0033304D01*
X0007682Y0039295D02*
X0008632Y0039295D01*
X0008632Y0040293D02*
X0007682Y0040293D01*
X0007682Y0041292D02*
X0008632Y0041292D01*
X0008632Y0042290D02*
X0007682Y0042290D01*
X0012407Y0045286D02*
X0015239Y0045286D01*
X0015239Y0046284D02*
X0012407Y0046284D01*
X0012407Y0047283D02*
X0015239Y0047283D01*
X0015239Y0048281D02*
X0012407Y0048281D01*
X0012407Y0049280D02*
X0015239Y0049280D01*
X0015239Y0050278D02*
X0012407Y0050278D01*
X0012407Y0051277D02*
X0015239Y0051277D01*
X0015239Y0052275D02*
X0012254Y0052275D01*
X0015239Y0053274D02*
X0007357Y0053274D01*
X0020989Y0053274D02*
X0022215Y0053274D01*
X0022228Y0053325D02*
X0022126Y0052943D01*
X0022126Y0050671D01*
X0024913Y0050671D01*
X0024913Y0054246D01*
X0023428Y0054246D01*
X0023047Y0054143D01*
X0022705Y0053946D01*
X0022426Y0053667D01*
X0022228Y0053325D01*
X0022126Y0052275D02*
X0020989Y0052275D01*
X0020989Y0051277D02*
X0022126Y0051277D01*
X0024913Y0051277D02*
X0025488Y0051277D01*
X0025488Y0052275D02*
X0024913Y0052275D01*
X0024913Y0053274D02*
X0025488Y0053274D01*
X0025488Y0049280D02*
X0024913Y0049280D01*
X0024913Y0048281D02*
X0025488Y0048281D01*
X0025488Y0047283D02*
X0024913Y0047283D01*
X0024913Y0046284D02*
X0025488Y0046284D01*
X0025488Y0045286D02*
X0024913Y0045286D01*
X0024913Y0044287D02*
X0025488Y0044287D01*
X0025488Y0043289D02*
X0024913Y0043289D01*
X0024913Y0042290D02*
X0025488Y0042290D01*
X0025488Y0041292D02*
X0024913Y0041292D01*
X0026607Y0039083D02*
X0025157Y0037633D01*
X0025157Y0035561D01*
X0025037Y0035301D02*
X0025278Y0035301D01*
X0025278Y0036299D02*
X0025037Y0036299D01*
X0025037Y0037298D02*
X0025278Y0037298D01*
X0025278Y0038296D02*
X0025037Y0038296D01*
X0025037Y0034302D02*
X0025278Y0034302D01*
X0025278Y0033304D02*
X0025037Y0033304D01*
X0025369Y0028945D02*
X0025369Y0028517D01*
X0025157Y0028233D01*
X0025157Y0026506D01*
X0034857Y0036333D02*
X0030107Y0041083D01*
X0035107Y0042833D02*
X0041107Y0036833D01*
X0057607Y0036833D01*
X0059857Y0039083D01*
X0061320Y0041292D02*
X0061707Y0041292D01*
X0061968Y0042290D02*
X0058520Y0042290D01*
X0058004Y0043289D02*
X0062712Y0043289D01*
X0062085Y0044287D02*
X0045342Y0044287D01*
X0045966Y0043549D02*
X0045624Y0043352D01*
X0045345Y0043072D01*
X0045148Y0042730D01*
X0045045Y0042349D01*
X0045045Y0040864D01*
X0048620Y0040864D01*
X0048620Y0043651D01*
X0046348Y0043651D01*
X0045966Y0043549D01*
X0045561Y0043289D02*
X0044740Y0043289D01*
X0045045Y0042290D02*
X0041990Y0042290D01*
X0041243Y0041292D02*
X0045045Y0041292D01*
X0045045Y0039295D02*
X0041192Y0039295D01*
X0040193Y0040293D02*
X0048620Y0040293D01*
X0048907Y0040577D02*
X0054657Y0040577D01*
X0054370Y0040293D02*
X0049195Y0040293D01*
X0049195Y0041292D02*
X0048620Y0041292D01*
X0048620Y0042290D02*
X0049195Y0042290D01*
X0049195Y0043289D02*
X0048620Y0043289D01*
X0045457Y0045286D02*
X0061689Y0045286D01*
X0061689Y0046284D02*
X0059247Y0046284D01*
X0059125Y0046233D02*
X0060080Y0046629D01*
X0060812Y0047361D01*
X0061207Y0048316D01*
X0061207Y0049351D01*
X0060812Y0050306D01*
X0060407Y0050710D01*
X0060407Y0054044D01*
X0063978Y0057615D01*
X0067208Y0057615D01*
X0067970Y0058377D01*
X0067970Y0062603D01*
X0067208Y0063365D01*
X0061407Y0063365D01*
X0060645Y0062603D01*
X0060645Y0059373D01*
X0056807Y0055536D01*
X0056807Y0050710D01*
X0056457Y0050360D01*
X0056457Y0050388D01*
X0056607Y0050538D01*
X0056607Y0057615D01*
X0057708Y0057615D01*
X0058470Y0058377D01*
X0058470Y0062603D01*
X0057708Y0063365D01*
X0051907Y0063365D01*
X0051145Y0062603D01*
X0051145Y0058377D01*
X0051907Y0057615D01*
X0053007Y0057615D01*
X0053007Y0052795D01*
X0052385Y0052537D01*
X0051653Y0051806D01*
X0051257Y0050851D01*
X0051257Y0049816D01*
X0051653Y0048861D01*
X0052385Y0048129D01*
X0053340Y0047733D01*
X0054375Y0047733D01*
X0055330Y0048129D01*
X0056007Y0048806D01*
X0056007Y0048316D01*
X0056403Y0047361D01*
X0057135Y0046629D01*
X0058090Y0046233D01*
X0059125Y0046233D01*
X0057967Y0046284D02*
X0045174Y0046284D01*
X0044335Y0047283D02*
X0056481Y0047283D01*
X0056022Y0048281D02*
X0055482Y0048281D01*
X0053857Y0050333D02*
X0054807Y0051283D01*
X0054807Y0060490D01*
X0058470Y0060263D02*
X0060645Y0060263D01*
X0060645Y0061262D02*
X0058470Y0061262D01*
X0058470Y0062260D02*
X0060645Y0062260D01*
X0061301Y0063259D02*
X0057814Y0063259D01*
X0058262Y0065256D02*
X0060853Y0065256D01*
X0060645Y0066254D02*
X0058470Y0066254D01*
X0058470Y0067253D02*
X0060645Y0067253D01*
X0060645Y0068251D02*
X0058470Y0068251D01*
X0058470Y0069250D02*
X0060645Y0069250D01*
X0061204Y0070248D02*
X0057911Y0070248D01*
X0057457Y0071247D02*
X0061707Y0071247D01*
X0061788Y0072245D02*
X0057397Y0072245D01*
X0056874Y0073244D02*
X0062341Y0073244D01*
X0064307Y0071533D02*
X0064307Y0067577D01*
X0067970Y0067253D02*
X0077586Y0067253D01*
X0075934Y0068251D02*
X0067970Y0068251D01*
X0067970Y0069250D02*
X0075132Y0069250D01*
X0071357Y0072540D02*
X0068107Y0072540D01*
X0065314Y0075333D01*
X0033857Y0075333D01*
X0030857Y0072333D01*
X0030857Y0053333D01*
X0039607Y0044583D01*
X0039607Y0043333D01*
X0042857Y0045083D02*
X0035807Y0052133D01*
X0035807Y0060490D01*
X0037607Y0057268D02*
X0043507Y0057268D01*
X0043507Y0057615D02*
X0043507Y0053888D01*
X0044562Y0052833D01*
X0046007Y0051388D01*
X0046007Y0050816D01*
X0046403Y0049861D01*
X0047135Y0049129D01*
X0048090Y0048733D01*
X0049125Y0048733D01*
X0050080Y0049129D01*
X0050812Y0049861D01*
X0051207Y0050816D01*
X0051207Y0051851D01*
X0050812Y0052806D01*
X0050080Y0053537D01*
X0049125Y0053933D01*
X0048553Y0053933D01*
X0047107Y0055379D01*
X0047107Y0057615D01*
X0048208Y0057615D01*
X0048970Y0058377D01*
X0048970Y0062603D01*
X0048208Y0063365D01*
X0042407Y0063365D01*
X0041645Y0062603D01*
X0041645Y0058377D01*
X0042407Y0057615D01*
X0043507Y0057615D01*
X0043507Y0056269D02*
X0037607Y0056269D01*
X0037607Y0055271D02*
X0043507Y0055271D01*
X0043507Y0054272D02*
X0037607Y0054272D01*
X0037607Y0053274D02*
X0044121Y0053274D01*
X0045120Y0052275D02*
X0038211Y0052275D01*
X0039210Y0051277D02*
X0046007Y0051277D01*
X0046230Y0050278D02*
X0040208Y0050278D01*
X0041207Y0049280D02*
X0046984Y0049280D01*
X0048607Y0051333D02*
X0045307Y0054633D01*
X0045307Y0060490D01*
X0041645Y0060263D02*
X0039470Y0060263D01*
X0039470Y0059265D02*
X0041645Y0059265D01*
X0041756Y0058266D02*
X0039359Y0058266D01*
X0039470Y0061262D02*
X0041645Y0061262D01*
X0041645Y0062260D02*
X0039470Y0062260D01*
X0038814Y0063259D02*
X0042301Y0063259D01*
X0041853Y0065256D02*
X0039262Y0065256D01*
X0039470Y0066254D02*
X0041645Y0066254D01*
X0041645Y0067253D02*
X0039470Y0067253D01*
X0039470Y0068251D02*
X0041645Y0068251D01*
X0041645Y0069250D02*
X0039470Y0069250D01*
X0038911Y0070248D02*
X0042204Y0070248D01*
X0042707Y0071247D02*
X0038407Y0071247D01*
X0038327Y0072245D02*
X0042788Y0072245D01*
X0043341Y0073244D02*
X0037774Y0073244D01*
X0035807Y0071533D02*
X0035807Y0067577D01*
X0032657Y0064257D02*
X0075776Y0064257D01*
X0075066Y0063259D02*
X0067314Y0063259D01*
X0067970Y0062260D02*
X0074653Y0062260D01*
X0074620Y0061262D02*
X0067970Y0061262D01*
X0067970Y0060263D02*
X0074712Y0060263D01*
X0075126Y0059265D02*
X0074277Y0059265D01*
X0075006Y0058266D02*
X0075919Y0058266D01*
X0079339Y0056269D02*
X0091357Y0056269D01*
X0091357Y0055271D02*
X0086941Y0055271D01*
X0087168Y0055155D02*
X0086541Y0055474D01*
X0085872Y0055692D01*
X0085178Y0055802D01*
X0082342Y0055802D01*
X0082342Y0051818D01*
X0081373Y0051818D01*
X0081373Y0050849D01*
X0082342Y0050849D01*
X0082342Y0051818D01*
X0089273Y0051818D01*
X0089184Y0052380D01*
X0088967Y0053049D01*
X0088648Y0053675D01*
X0088234Y0054244D01*
X0087737Y0054742D01*
X0087168Y0055155D01*
X0088206Y0054272D02*
X0091357Y0054272D01*
X0091357Y0053274D02*
X0088852Y0053274D01*
X0089201Y0052275D02*
X0091357Y0052275D01*
X0091357Y0051277D02*
X0082342Y0051277D01*
X0082342Y0050849D02*
X0089273Y0050849D01*
X0089184Y0050287D01*
X0088967Y0049618D01*
X0088648Y0048991D01*
X0088234Y0048422D01*
X0087737Y0047925D01*
X0087168Y0047512D01*
X0086541Y0047192D01*
X0085872Y0046975D01*
X0085178Y0046865D01*
X0082342Y0046865D01*
X0082342Y0050849D01*
X0082342Y0050278D02*
X0081373Y0050278D01*
X0081373Y0049280D02*
X0082342Y0049280D01*
X0082342Y0048281D02*
X0081373Y0048281D01*
X0081373Y0047283D02*
X0082342Y0047283D01*
X0082977Y0044287D02*
X0091357Y0044287D01*
X0091357Y0045286D02*
X0074526Y0045286D01*
X0074526Y0046284D02*
X0091357Y0046284D01*
X0091357Y0047283D02*
X0086719Y0047283D01*
X0088093Y0048281D02*
X0091357Y0048281D01*
X0091357Y0049280D02*
X0088795Y0049280D01*
X0089182Y0050278D02*
X0091357Y0050278D01*
X0087052Y0043289D02*
X0084038Y0043289D01*
X0084107Y0042290D02*
X0086054Y0042290D01*
X0085641Y0041292D02*
X0084107Y0041292D01*
X0085407Y0040293D02*
X0080133Y0040293D01*
X0079182Y0040293D02*
X0073113Y0040293D01*
X0072845Y0039295D02*
X0075207Y0039295D01*
X0075207Y0038296D02*
X0072247Y0038296D01*
X0070357Y0040083D02*
X0071651Y0041377D01*
X0071651Y0047583D01*
X0071651Y0051127D01*
X0081857Y0061333D01*
X0086165Y0057268D02*
X0091357Y0057268D01*
X0091357Y0058266D02*
X0087796Y0058266D01*
X0088589Y0059265D02*
X0091357Y0059265D01*
X0091357Y0060263D02*
X0089003Y0060263D01*
X0089094Y0061262D02*
X0091357Y0061262D01*
X0091357Y0062260D02*
X0089062Y0062260D01*
X0088649Y0063259D02*
X0091357Y0063259D01*
X0091357Y0064257D02*
X0087938Y0064257D01*
X0086510Y0065256D02*
X0091357Y0065256D01*
X0091357Y0066254D02*
X0067970Y0066254D01*
X0067762Y0065256D02*
X0077205Y0065256D01*
X0081857Y0071333D02*
X0080401Y0072540D01*
X0071357Y0072540D01*
X0068283Y0075241D02*
X0067952Y0075241D01*
X0066954Y0076240D02*
X0091357Y0076240D01*
X0091357Y0077238D02*
X0086093Y0077238D01*
X0087766Y0078237D02*
X0091357Y0078237D01*
X0091357Y0079235D02*
X0088577Y0079235D01*
X0088991Y0080234D02*
X0091357Y0080234D01*
X0091357Y0081232D02*
X0089094Y0081232D01*
X0089075Y0082231D02*
X0091357Y0082231D01*
X0091357Y0083229D02*
X0088661Y0083229D01*
X0087968Y0084228D02*
X0091357Y0084228D01*
X0091343Y0085226D02*
X0091357Y0085226D01*
X0087372Y0085226D02*
X0086582Y0085226D01*
X0084961Y0086225D02*
X0079512Y0086225D01*
X0078513Y0087223D02*
X0083800Y0087223D01*
X0082802Y0088222D02*
X0073476Y0088222D01*
X0073189Y0089220D02*
X0082131Y0089220D01*
X0081718Y0090219D02*
X0059776Y0090219D01*
X0059826Y0089904D02*
X0059716Y0090598D01*
X0059499Y0091267D01*
X0059179Y0091894D01*
X0058766Y0092463D01*
X0058269Y0092960D01*
X0057699Y0093374D01*
X0057073Y0093693D01*
X0056404Y0093910D01*
X0055842Y0093999D01*
X0055842Y0087068D01*
X0054873Y0087068D01*
X0054873Y0086099D01*
X0055842Y0086099D01*
X0055842Y0087068D01*
X0059826Y0087068D01*
X0059826Y0089904D01*
X0059826Y0089220D02*
X0060683Y0089220D01*
X0060739Y0089317D02*
X0060542Y0088975D01*
X0060439Y0088593D01*
X0060439Y0086321D01*
X0063227Y0086321D01*
X0063227Y0089896D01*
X0061742Y0089896D01*
X0061360Y0089793D01*
X0061018Y0089596D01*
X0060739Y0089317D01*
X0060439Y0088222D02*
X0059826Y0088222D01*
X0059826Y0087223D02*
X0060439Y0087223D01*
X0059826Y0086099D02*
X0055842Y0086099D01*
X0055842Y0079167D01*
X0056404Y0079256D01*
X0057073Y0079474D01*
X0057699Y0079793D01*
X0058269Y0080206D01*
X0058766Y0080704D01*
X0059179Y0081273D01*
X0059499Y0081900D01*
X0059716Y0082568D01*
X0059826Y0083263D01*
X0059826Y0086099D01*
X0060439Y0085746D02*
X0060439Y0083474D01*
X0060542Y0083092D01*
X0060739Y0082750D01*
X0061018Y0082471D01*
X0061360Y0082273D01*
X0061742Y0082171D01*
X0063227Y0082171D01*
X0063227Y0085746D01*
X0063802Y0085746D01*
X0063802Y0086321D01*
X0066589Y0086321D01*
X0066589Y0088593D01*
X0066487Y0088975D01*
X0066289Y0089317D01*
X0066010Y0089596D01*
X0065668Y0089793D01*
X0065286Y0089896D01*
X0063802Y0089896D01*
X0063802Y0086321D01*
X0063227Y0086321D01*
X0063227Y0085746D01*
X0060439Y0085746D01*
X0060439Y0085226D02*
X0059826Y0085226D01*
X0059826Y0084228D02*
X0060439Y0084228D01*
X0060505Y0083229D02*
X0059821Y0083229D01*
X0059606Y0082231D02*
X0061520Y0082231D01*
X0063227Y0082231D02*
X0063802Y0082231D01*
X0063802Y0082171D02*
X0065286Y0082171D01*
X0065668Y0082273D01*
X0066010Y0082471D01*
X0066289Y0082750D01*
X0066487Y0083092D01*
X0066589Y0083474D01*
X0066589Y0085746D01*
X0063802Y0085746D01*
X0063802Y0082171D01*
X0063802Y0083229D02*
X0063227Y0083229D01*
X0063227Y0084228D02*
X0063802Y0084228D01*
X0063802Y0085226D02*
X0063227Y0085226D01*
X0063514Y0086033D02*
X0062964Y0086583D01*
X0055357Y0086583D01*
X0054873Y0086225D02*
X0049626Y0086225D01*
X0054873Y0087223D02*
X0055842Y0087223D01*
X0055842Y0086225D02*
X0063227Y0086225D01*
X0063802Y0086225D02*
X0067726Y0086225D01*
X0067726Y0087223D02*
X0066589Y0087223D01*
X0066589Y0088222D02*
X0067726Y0088222D01*
X0068012Y0089220D02*
X0066345Y0089220D01*
X0063802Y0089220D02*
X0063227Y0089220D01*
X0063227Y0088222D02*
X0063802Y0088222D01*
X0063802Y0087223D02*
X0063227Y0087223D01*
X0066589Y0085226D02*
X0067726Y0085226D01*
X0067726Y0084228D02*
X0066589Y0084228D01*
X0066523Y0083229D02*
X0067726Y0083229D01*
X0068186Y0082231D02*
X0065508Y0082231D01*
X0067695Y0081232D02*
X0059150Y0081232D01*
X0058296Y0080234D02*
X0067695Y0080234D01*
X0067695Y0079235D02*
X0056270Y0079235D01*
X0055842Y0079235D02*
X0054873Y0079235D01*
X0054873Y0080234D02*
X0055842Y0080234D01*
X0055842Y0081232D02*
X0054873Y0081232D01*
X0054873Y0082231D02*
X0055842Y0082231D01*
X0055842Y0083229D02*
X0054873Y0083229D01*
X0054873Y0084228D02*
X0055842Y0084228D01*
X0055842Y0085226D02*
X0054873Y0085226D01*
X0054873Y0088222D02*
X0055842Y0088222D01*
X0055842Y0089220D02*
X0054873Y0089220D01*
X0054873Y0090219D02*
X0055842Y0090219D01*
X0055842Y0091217D02*
X0054873Y0091217D01*
X0054873Y0092216D02*
X0055842Y0092216D01*
X0055842Y0093214D02*
X0054873Y0093214D01*
X0057919Y0093214D02*
X0081107Y0093214D01*
X0081107Y0092216D02*
X0058945Y0092216D01*
X0059515Y0091217D02*
X0081304Y0091217D01*
X0081107Y0094213D02*
X0017607Y0094213D01*
X0017509Y0095211D02*
X0081206Y0095211D01*
X0077157Y0086033D02*
X0081857Y0081333D01*
X0080401Y0079627D01*
X0071357Y0079627D01*
X0074744Y0077238D02*
X0077622Y0077238D01*
X0077169Y0075241D02*
X0074432Y0075241D01*
X0067874Y0070248D02*
X0067411Y0070248D01*
X0064307Y0060490D02*
X0058607Y0054790D01*
X0058607Y0048833D01*
X0060734Y0047283D02*
X0061664Y0047283D01*
X0061689Y0048281D02*
X0061193Y0048281D01*
X0061207Y0049280D02*
X0061689Y0049280D01*
X0061689Y0050278D02*
X0060823Y0050278D01*
X0060407Y0051277D02*
X0063457Y0051277D01*
X0063712Y0052275D02*
X0060407Y0052275D01*
X0060407Y0053274D02*
X0064447Y0053274D01*
X0065445Y0054272D02*
X0060635Y0054272D01*
X0061634Y0055271D02*
X0066444Y0055271D01*
X0067442Y0056269D02*
X0062632Y0056269D01*
X0063631Y0057268D02*
X0068441Y0057268D01*
X0067859Y0058266D02*
X0069439Y0058266D01*
X0070438Y0059265D02*
X0067970Y0059265D01*
X0060537Y0059265D02*
X0058470Y0059265D01*
X0058359Y0058266D02*
X0059538Y0058266D01*
X0058540Y0057268D02*
X0056607Y0057268D01*
X0056607Y0056269D02*
X0057541Y0056269D01*
X0056807Y0055271D02*
X0056607Y0055271D01*
X0056607Y0054272D02*
X0056807Y0054272D01*
X0056807Y0053274D02*
X0056607Y0053274D01*
X0056607Y0052275D02*
X0056807Y0052275D01*
X0056807Y0051277D02*
X0056607Y0051277D01*
X0053007Y0053274D02*
X0050344Y0053274D01*
X0051032Y0052275D02*
X0052122Y0052275D01*
X0051434Y0051277D02*
X0051207Y0051277D01*
X0051257Y0050278D02*
X0050985Y0050278D01*
X0051480Y0049280D02*
X0050231Y0049280D01*
X0052233Y0048281D02*
X0042205Y0048281D01*
X0048214Y0054272D02*
X0053007Y0054272D01*
X0053007Y0055271D02*
X0047216Y0055271D01*
X0047107Y0056269D02*
X0053007Y0056269D01*
X0053007Y0057268D02*
X0047107Y0057268D01*
X0048859Y0058266D02*
X0051256Y0058266D01*
X0051145Y0059265D02*
X0048970Y0059265D01*
X0048970Y0060263D02*
X0051145Y0060263D01*
X0051145Y0061262D02*
X0048970Y0061262D01*
X0048970Y0062260D02*
X0051145Y0062260D01*
X0051801Y0063259D02*
X0048314Y0063259D01*
X0048762Y0065256D02*
X0051353Y0065256D01*
X0051145Y0066254D02*
X0048970Y0066254D01*
X0048970Y0067253D02*
X0051145Y0067253D01*
X0051145Y0068251D02*
X0048970Y0068251D01*
X0048970Y0069250D02*
X0051145Y0069250D01*
X0051704Y0070248D02*
X0048411Y0070248D01*
X0047907Y0071247D02*
X0052257Y0071247D01*
X0052318Y0072245D02*
X0047827Y0072245D01*
X0047274Y0073244D02*
X0052841Y0073244D01*
X0054857Y0071583D02*
X0054857Y0067527D01*
X0054807Y0067577D01*
X0045307Y0067577D02*
X0045307Y0071533D01*
X0032801Y0063259D02*
X0032657Y0063259D01*
X0029057Y0063259D02*
X0024602Y0063259D01*
X0024770Y0064257D02*
X0029057Y0064257D01*
X0029057Y0065256D02*
X0024770Y0065256D01*
X0024770Y0066254D02*
X0029057Y0066254D01*
X0029057Y0067253D02*
X0024770Y0067253D01*
X0024172Y0068251D02*
X0029057Y0068251D01*
X0021395Y0070248D02*
X0020820Y0070248D01*
X0020820Y0071247D02*
X0021395Y0071247D01*
X0021395Y0072245D02*
X0020820Y0072245D01*
X0020820Y0073244D02*
X0021395Y0073244D01*
X0021395Y0074243D02*
X0020820Y0074243D01*
X0020820Y0075241D02*
X0021395Y0075241D01*
X0015395Y0075241D02*
X0014820Y0075241D01*
X0014820Y0075701D02*
X0012548Y0075701D01*
X0012166Y0075599D01*
X0011824Y0075402D01*
X0011545Y0075122D01*
X0011348Y0074780D01*
X0011245Y0074399D01*
X0011245Y0072914D01*
X0014820Y0072914D01*
X0014820Y0075701D01*
X0014820Y0074243D02*
X0015395Y0074243D01*
X0015395Y0073244D02*
X0014820Y0073244D01*
X0014820Y0072245D02*
X0015395Y0072245D01*
X0015395Y0071247D02*
X0014820Y0071247D01*
X0014820Y0070248D02*
X0015395Y0070248D01*
X0011245Y0071247D02*
X0007357Y0071247D01*
X0007357Y0072245D02*
X0011245Y0072245D01*
X0011245Y0073244D02*
X0007357Y0073244D01*
X0007357Y0074243D02*
X0011245Y0074243D01*
X0011664Y0075241D02*
X0007357Y0075241D01*
X0054370Y0043289D02*
X0054945Y0043289D01*
X0054945Y0042290D02*
X0054370Y0042290D01*
X0054370Y0041292D02*
X0054945Y0041292D01*
X0064357Y0047540D02*
X0064564Y0047583D01*
X0067507Y0039295D02*
X0067870Y0039295D01*
X0067507Y0038296D02*
X0068468Y0038296D01*
X0067507Y0037298D02*
X0075207Y0037298D01*
X0075342Y0036299D02*
X0067318Y0036299D01*
X0066676Y0035301D02*
X0074779Y0035301D01*
X0073781Y0034302D02*
X0065677Y0034302D01*
X0064679Y0033304D02*
X0072782Y0033304D01*
X0071784Y0032305D02*
X0063680Y0032305D01*
X0062682Y0031307D02*
X0070785Y0031307D01*
X0069787Y0030308D02*
X0061683Y0030308D01*
X0060685Y0029310D02*
X0068788Y0029310D01*
X0067790Y0028311D02*
X0060102Y0028311D01*
X0063857Y0026333D02*
X0068357Y0026333D01*
X0076857Y0034833D01*
X0084607Y0034833D01*
X0089657Y0039883D01*
X0085407Y0039295D02*
X0084107Y0039295D01*
X0084107Y0038296D02*
X0085525Y0038296D01*
X0084526Y0037298D02*
X0084107Y0037298D01*
X0080132Y0041292D02*
X0079182Y0041292D01*
X0079182Y0040358D02*
X0079182Y0044333D01*
X0076510Y0044333D01*
X0076128Y0044231D01*
X0075786Y0044034D01*
X0075507Y0043754D01*
X0075310Y0043412D01*
X0075207Y0043031D01*
X0075207Y0040358D01*
X0079182Y0040358D01*
X0079182Y0042290D02*
X0080132Y0042290D01*
X0080132Y0043289D02*
X0079182Y0043289D01*
X0079182Y0044287D02*
X0080132Y0044287D01*
X0076996Y0047283D02*
X0074526Y0047283D01*
X0074526Y0048281D02*
X0075622Y0048281D01*
X0074920Y0049280D02*
X0074526Y0049280D01*
X0074526Y0050278D02*
X0074533Y0050278D01*
X0074346Y0051277D02*
X0081373Y0051277D01*
X0081373Y0052275D02*
X0082342Y0052275D01*
X0082342Y0053274D02*
X0081373Y0053274D01*
X0081373Y0054272D02*
X0082342Y0054272D01*
X0082342Y0055271D02*
X0081373Y0055271D01*
X0076338Y0044287D02*
X0074130Y0044287D01*
X0073451Y0043289D02*
X0075277Y0043289D01*
X0075207Y0042290D02*
X0073451Y0042290D01*
X0073451Y0041292D02*
X0075207Y0041292D01*
X0079657Y0029883D02*
X0067607Y0017833D01*
X0046157Y0017833D01*
X0041357Y0022633D01*
X0057357Y0021333D02*
X0064357Y0021333D01*
X0066357Y0023333D01*
X0086129Y0067253D02*
X0091357Y0067253D01*
X0091357Y0068251D02*
X0087781Y0068251D01*
X0088583Y0069250D02*
X0091357Y0069250D01*
X0091357Y0070248D02*
X0088997Y0070248D01*
X0089094Y0071247D02*
X0091357Y0071247D01*
X0091357Y0072245D02*
X0089068Y0072245D01*
X0088655Y0073244D02*
X0091357Y0073244D01*
X0091357Y0074243D02*
X0087953Y0074243D01*
X0086546Y0075241D02*
X0091357Y0075241D01*
X0077157Y0086033D02*
X0070601Y0086033D01*
D17*
X0065357Y0079333D03*
X0059607Y0072333D03*
X0054857Y0071583D03*
X0050107Y0072333D03*
X0045307Y0071533D03*
X0040357Y0072333D03*
X0035807Y0071533D03*
X0040357Y0078833D03*
X0026857Y0089083D03*
X0018107Y0064833D03*
X0025357Y0058333D03*
X0030107Y0044833D03*
X0035107Y0042833D03*
X0039607Y0043333D03*
X0042857Y0045083D03*
X0043107Y0040583D03*
X0041357Y0033333D03*
X0042357Y0028633D03*
X0041357Y0022633D03*
X0036107Y0024833D03*
X0030257Y0024633D03*
X0025369Y0028517D03*
X0031607Y0033833D03*
X0034857Y0036333D03*
X0026607Y0039083D03*
X0040357Y0056583D03*
X0048607Y0051333D03*
X0049857Y0055583D03*
X0053857Y0050333D03*
X0058607Y0048833D03*
X0059857Y0043333D03*
X0059857Y0039083D03*
X0064857Y0030833D03*
X0057607Y0029083D03*
X0057357Y0021333D03*
X0066357Y0023333D03*
X0070357Y0040083D03*
X0072357Y0057083D03*
X0064307Y0071533D03*
X0076107Y0092583D03*
X0089107Y0076333D03*
X0009357Y0062833D03*
D18*
X0015107Y0065540D02*
X0017857Y0065290D01*
X0018107Y0064833D01*
X0021107Y0065540D02*
X0015107Y0065540D01*
X0018114Y0050383D02*
X0018114Y0044633D01*
X0025201Y0044633D02*
X0025201Y0040490D01*
X0026607Y0039083D01*
X0025201Y0044633D02*
X0025201Y0050383D01*
D19*
X0008157Y0028633D02*
X0042357Y0028633D01*
X0055907Y0028633D01*
X0064607Y0037333D01*
X0064607Y0041083D01*
X0066357Y0042833D01*
X0066357Y0047333D01*
X0066107Y0047583D01*
X0064564Y0047583D01*
X0066357Y0047333D02*
X0066357Y0051083D01*
X0072357Y0057083D01*
M02*
