%
M48
M72
T01C0.01181
T02C0.02362
T03C0.04724
%
T01
X9878Y65980
X9878Y67949
X65980Y124051
X67949Y124051
X67949Y127988
X65980Y127988
X9878Y184091
X9878Y186059
X65980Y242161
X67949Y242161
X67949Y246098
X65980Y246098
X9878Y302201
X9878Y304169
X65980Y360272
X67949Y360272
X124051Y304169
X124051Y302201
X127988Y302201
X127988Y304169
X184091Y360272
X186059Y360272
X242161Y304169
X242161Y302201
X246098Y302201
X246098Y304169
X302201Y360272
X304169Y360272
X360272Y304169
X360272Y302201
X304169Y246098
X302201Y246098
X302201Y242161
X304169Y242161
X360272Y186059
X360272Y184091
X304169Y127988
X302201Y127988
X302201Y124051
X304169Y124051
X360272Y67949
X360272Y65980
X304169Y9878
X302201Y9878
X246098Y65980
X246098Y67949
X242161Y67949
X242161Y65980
X186059Y9878
X184091Y9878
X127988Y65980
X127988Y67949
X124051Y67949
X124051Y65980
X67949Y9878
X65980Y9878
X184091Y124051
X186059Y124051
X186059Y127988
X184091Y127988
X240193Y127004
X240193Y125035
X244130Y125035
X244130Y127004
X246098Y184091
X246098Y186059
X242161Y186059
X242161Y184091
X186059Y242161
X184091Y242161
X184091Y246098
X186059Y246098
X127988Y186059
X127988Y184091
X124051Y184091
X124051Y186059
T02
X27102Y27102
X27594Y27594
X28087Y28087
X28579Y28579
X12339Y66965
X11846Y66965
X11354Y66965
X10862Y66965
X28579Y105350
X28087Y105843
X27594Y106335
X27102Y106827
X27102Y145213
X27594Y145705
X28087Y146197
X28579Y146689
X66965Y130449
X66965Y129957
X66965Y129465
X66965Y128972
X66965Y123067
X66965Y122575
X66965Y122083
X66965Y121591
X105350Y105350
X105843Y105843
X106335Y106335
X106827Y106827
X121591Y66965
X122083Y66965
X122575Y66965
X123067Y66965
X128972Y66965
X129465Y66965
X129957Y66965
X130449Y66965
X146689Y105350
X146197Y105843
X145705Y106335
X145213Y106827
X145213Y145213
X145705Y145705
X146197Y146197
X146689Y146689
X106827Y145213
X106335Y145705
X105843Y146197
X105350Y146689
X121591Y185075
X122083Y185075
X122575Y185075
X123067Y185075
X128972Y185075
X129465Y185075
X129957Y185075
X130449Y185075
X146689Y223461
X146197Y223953
X145705Y224445
X145213Y224937
X145213Y263323
X145705Y263815
X146197Y264307
X146689Y264799
X130449Y303185
X129957Y303185
X129465Y303185
X128972Y303185
X123067Y303185
X122575Y303185
X122083Y303185
X121591Y303185
X105350Y264799
X105843Y264307
X106335Y263815
X106827Y263323
X66965Y248559
X66965Y248067
X66965Y247575
X66965Y247083
X66965Y241177
X66965Y240685
X66965Y240193
X66965Y239701
X105350Y223461
X105843Y223953
X106335Y224445
X106827Y224937
X28579Y223461
X28087Y223953
X27594Y224445
X27102Y224937
X12339Y185075
X11846Y185075
X11354Y185075
X10862Y185075
X27102Y263323
X27594Y263815
X28087Y264307
X28579Y264799
X12339Y303185
X11846Y303185
X11354Y303185
X10862Y303185
X28579Y341571
X28087Y342063
X27594Y342555
X27102Y343047
X66965Y357811
X66965Y358303
X66965Y358795
X66965Y359287
X105350Y341571
X105843Y342063
X106335Y342555
X106827Y343047
X145213Y343047
X145705Y342555
X146197Y342063
X146689Y341571
X185075Y357811
X185075Y358303
X185075Y358795
X185075Y359287
X223461Y341571
X223953Y342063
X224445Y342555
X224937Y343047
X263323Y343047
X263815Y342555
X264307Y342063
X264799Y341571
X303185Y357811
X303185Y358303
X303185Y358795
X303185Y359287
X341571Y341571
X342063Y342063
X342555Y342555
X343047Y343047
X357811Y303185
X358303Y303185
X358795Y303185
X359287Y303185
X341571Y264799
X342063Y264307
X342555Y263815
X343047Y263323
X343047Y224937
X342555Y224445
X342063Y223953
X341571Y223461
X357811Y185075
X358303Y185075
X358795Y185075
X359287Y185075
X341571Y146689
X342063Y146197
X342555Y145705
X343047Y145213
X343047Y106827
X342555Y106335
X342063Y105843
X341571Y105350
X357811Y66965
X358303Y66965
X358795Y66965
X359287Y66965
X341571Y28579
X342063Y28087
X342555Y27594
X343047Y27102
X303185Y12339
X303185Y11846
X303185Y11354
X303185Y10862
X264799Y28579
X264307Y28087
X263815Y27594
X263323Y27102
X224937Y27102
X224445Y27594
X223953Y28087
X223461Y28579
X185075Y12339
X185075Y11846
X185075Y11354
X185075Y10862
X146689Y28579
X146197Y28087
X145705Y27594
X145213Y27102
X106827Y27102
X106335Y27594
X105843Y28087
X105350Y28579
X66965Y12339
X66965Y11846
X66965Y11354
X66965Y10862
X185075Y121591
X185075Y122083
X185075Y122575
X185075Y123067
X185075Y128972
X185075Y129465
X185075Y129957
X185075Y130449
X223461Y146689
X223953Y146197
X224445Y145705
X224937Y145213
X263323Y145213
X263815Y145705
X264307Y146197
X264799Y146689
X303185Y130449
X303185Y129957
X303185Y129465
X303185Y128972
X303185Y123067
X303185Y122575
X303185Y122083
X303185Y121591
X264799Y105350
X264307Y105843
X263815Y106335
X263323Y106827
X248559Y66965
X248067Y66965
X247575Y66965
X247083Y66965
X241177Y66965
X240685Y66965
X240193Y66965
X239701Y66965
X223461Y105350
X223953Y105843
X224445Y106335
X224937Y106827
X239701Y185075
X240193Y185075
X240685Y185075
X241177Y185075
X247083Y185075
X247575Y185075
X248067Y185075
X248559Y185075
X264799Y223461
X264307Y223953
X263815Y224445
X263323Y224937
X303185Y239701
X303185Y240193
X303185Y240685
X303185Y241177
X303185Y247083
X303185Y247575
X303185Y248067
X303185Y248559
X264799Y264799
X264307Y264307
X263815Y263815
X263323Y263323
X248559Y303185
X248067Y303185
X247575Y303185
X247083Y303185
X241177Y303185
X240685Y303185
X240193Y303185
X239701Y303185
X223461Y264799
X223953Y264307
X224445Y263815
X224937Y263323
X185075Y248559
X185075Y248067
X185075Y247575
X185075Y247083
X185075Y241177
X185075Y240685
X185075Y240193
X185075Y239701
X223461Y223461
X223953Y223953
X224445Y224445
X224937Y224937
T03
X224445Y196886
X224445Y195902
X224445Y194917
X224445Y193933
X224445Y192949
X224445Y191965
X224445Y190980
X224445Y189996
X224445Y189012
X224445Y188028
X224445Y187043
X224445Y186059
X224445Y185075
X224445Y184091
X224445Y183106
X224445Y182122
X224445Y181138
X224445Y180154
X224445Y179169
X224445Y178185
X224445Y177201
X224445Y176217
X224445Y175232
X224445Y174248
X224445Y173264
X263815Y173264
X263815Y174248
X263815Y175232
X263815Y176217
X263815Y177201
X263815Y178185
X263815Y179169
X263815Y180154
X263815Y181138
X263815Y182122
X263815Y183106
X263815Y184091
X263815Y185075
X263815Y186059
X263815Y187043
X263815Y188028
X263815Y189012
X263815Y189996
X263815Y190980
X263815Y191965
X263815Y192949
X263815Y193933
X263815Y194917
X263815Y195902
X263815Y196886
X342555Y196886
X342555Y195902
X342555Y194917
X342555Y193933
X342555Y192949
X342555Y191965
X342555Y190980
X342555Y189996
X342555Y189012
X342555Y188028
X342555Y187043
X342555Y186059
X342555Y185075
X342555Y184091
X342555Y183106
X342555Y182122
X342555Y181138
X342555Y180154
X342555Y179169
X342555Y178185
X342555Y177201
X342555Y176217
X342555Y175232
X342555Y174248
X342555Y173264
X342555Y78776
X342555Y77791
X342555Y76807
X342555Y75823
X342555Y74839
X342555Y73854
X342555Y72870
X342555Y71886
X342555Y70902
X342555Y69917
X342555Y68933
X342555Y67949
X342555Y66965
X342555Y65980
X342555Y64996
X342555Y64012
X342555Y63028
X342555Y62043
X342555Y61059
X342555Y60075
X342555Y59091
X342555Y58106
X342555Y57122
X342555Y56138
X342555Y55154
X263815Y55154
X263815Y56138
X263815Y57122
X263815Y58106
X263815Y59091
X263815Y60075
X263815Y61059
X263815Y62043
X263815Y63028
X263815Y64012
X263815Y64996
X263815Y65980
X263815Y66965
X263815Y67949
X263815Y68933
X263815Y69917
X263815Y70902
X263815Y71886
X263815Y72870
X263815Y73854
X263815Y74839
X263815Y75823
X263815Y76807
X263815Y77791
X263815Y78776
X224445Y78776
X224445Y77791
X224445Y76807
X224445Y75823
X224445Y74839
X224445Y73854
X224445Y72870
X224445Y71886
X224445Y70902
X224445Y69917
X224445Y68933
X224445Y67949
X224445Y66965
X224445Y65980
X224445Y64996
X224445Y64012
X224445Y63028
X224445Y62043
X224445Y61059
X224445Y60075
X224445Y59091
X224445Y58106
X224445Y57122
X224445Y56138
X224445Y55154
X145705Y55154
X145705Y56138
X145705Y57122
X145705Y58106
X145705Y59091
X145705Y60075
X145705Y61059
X145705Y62043
X145705Y63028
X145705Y64012
X145705Y64996
X145705Y65980
X145705Y66965
X145705Y67949
X145705Y68933
X145705Y69917
X145705Y70902
X145705Y71886
X145705Y72870
X145705Y73854
X145705Y74839
X145705Y75823
X145705Y76807
X145705Y77791
X145705Y78776
X106335Y78776
X106335Y77791
X106335Y76807
X106335Y75823
X106335Y74839
X106335Y73854
X106335Y72870
X106335Y71886
X106335Y70902
X106335Y69917
X106335Y68933
X106335Y67949
X106335Y66965
X106335Y65980
X106335Y64996
X106335Y64012
X106335Y63028
X106335Y62043
X106335Y61059
X106335Y60075
X106335Y59091
X106335Y58106
X106335Y57122
X106335Y56138
X106335Y55154
X27594Y55154
X27594Y56138
X27594Y57122
X27594Y58106
X27594Y59091
X27594Y60075
X27594Y61059
X27594Y62043
X27594Y63028
X27594Y64012
X27594Y64996
X27594Y65980
X27594Y66965
X27594Y67949
X27594Y68933
X27594Y69917
X27594Y70902
X27594Y71886
X27594Y72870
X27594Y73854
X27594Y74839
X27594Y75823
X27594Y76807
X27594Y77791
X27594Y78776
X27594Y173264
X27594Y174248
X27594Y175232
X27594Y176217
X27594Y177201
X27594Y178185
X27594Y179169
X27594Y180154
X27594Y181138
X27594Y182122
X27594Y183106
X27594Y184091
X27594Y185075
X27594Y186059
X27594Y187043
X27594Y188028
X27594Y189012
X27594Y189996
X27594Y190980
X27594Y191965
X27594Y192949
X27594Y193933
X27594Y194917
X27594Y195902
X27594Y196886
X106335Y196886
X106335Y195902
X106335Y194917
X106335Y193933
X106335Y192949
X106335Y191965
X106335Y190980
X106335Y189996
X106335Y189012
X106335Y188028
X106335Y187043
X106335Y186059
X106335Y185075
X106335Y184091
X106335Y183106
X106335Y182122
X106335Y181138
X106335Y180154
X106335Y179169
X106335Y178185
X106335Y177201
X106335Y176217
X106335Y175232
X106335Y174248
X106335Y173264
X145705Y173264
X145705Y174248
X145705Y175232
X145705Y176217
X145705Y177201
X145705Y178185
X145705Y179169
X145705Y180154
X145705Y181138
X145705Y182122
X145705Y183106
X145705Y184091
X145705Y185075
X145705Y186059
X145705Y187043
X145705Y188028
X145705Y189012
X145705Y189996
X145705Y190980
X145705Y191965
X145705Y192949
X145705Y193933
X145705Y194917
X145705Y195902
X145705Y196886
X145705Y291374
X145705Y292358
X145705Y293343
X145705Y294327
X145705Y295311
X145705Y296295
X145705Y297280
X145705Y298264
X145705Y299248
X145705Y300232
X145705Y301217
X145705Y302201
X145705Y303185
X145705Y304169
X145705Y305154
X145705Y306138
X145705Y307122
X145705Y308106
X145705Y309091
X145705Y310075
X145705Y311059
X145705Y312043
X145705Y313028
X145705Y314012
X145705Y314996
X106335Y314996
X106335Y314012
X106335Y313028
X106335Y312043
X106335Y311059
X106335Y310075
X106335Y309091
X106335Y308106
X106335Y307122
X106335Y306138
X106335Y305154
X106335Y304169
X106335Y303185
X106335Y302201
X106335Y301217
X106335Y300232
X106335Y299248
X106335Y298264
X106335Y297280
X106335Y296295
X106335Y295311
X106335Y294327
X106335Y293343
X106335Y292358
X106335Y291374
X27594Y291374
X27594Y292358
X27594Y293343
X27594Y294327
X27594Y295311
X27594Y296295
X27594Y297280
X27594Y298264
X27594Y299248
X27594Y300232
X27594Y301217
X27594Y302201
X27594Y303185
X27594Y304169
X27594Y305154
X27594Y306138
X27594Y307122
X27594Y308106
X27594Y309091
X27594Y310075
X27594Y311059
X27594Y312043
X27594Y313028
X27594Y314012
X27594Y314996
X224445Y314996
X224445Y314012
X224445Y313028
X224445Y312043
X224445Y311059
X224445Y310075
X224445Y309091
X224445Y308106
X224445Y307122
X224445Y306138
X224445Y305154
X224445Y304169
X224445Y303185
X224445Y302201
X224445Y301217
X224445Y300232
X224445Y299248
X224445Y298264
X224445Y297280
X224445Y296295
X224445Y295311
X224445Y294327
X224445Y293343
X224445Y292358
X224445Y291374
X263815Y291374
X263815Y292358
X263815Y293343
X263815Y294327
X263815Y295311
X263815Y296295
X263815Y297280
X263815Y298264
X263815Y299248
X263815Y300232
X263815Y301217
X263815Y302201
X263815Y303185
X263815Y304169
X263815Y305154
X263815Y306138
X263815Y307122
X263815Y308106
X263815Y309091
X263815Y310075
X263815Y311059
X263815Y312043
X263815Y313028
X263815Y314012
X263815Y314996
X342555Y314996
X342555Y314012
X342555Y313028
X342555Y312043
X342555Y311059
X342555Y310075
X342555Y309091
X342555Y308106
X342555Y307122
X342555Y306138
X342555Y305154
X342555Y304169
X342555Y303185
X342555Y302201
X342555Y301217
X342555Y300232
X342555Y299248
X342555Y298264
X342555Y297280
X342555Y296295
X342555Y295311
X342555Y294327
X342555Y293343
X342555Y292358
X342555Y291374
M30
