G75*
%MOIN*%
%OFA0B0*%
%FSLAX25Y25*%
%IPPOS*%
%LPD*%
%AMOC8*
5,1,8,0,0,1.08239X$1,22.5*
%
%ADD10C,0.01981*%
%ADD11C,0.04762*%
%ADD12C,0.07887*%
D10*
X0009878Y0065980D03*
X0009878Y0067949D03*
X0065980Y0124051D03*
X0067949Y0124051D03*
X0067949Y0127988D03*
X0065980Y0127988D03*
X0009878Y0184091D03*
X0009878Y0186059D03*
X0065980Y0242161D03*
X0067949Y0242161D03*
X0067949Y0246098D03*
X0065980Y0246098D03*
X0009878Y0302201D03*
X0009878Y0304169D03*
X0065980Y0360272D03*
X0067949Y0360272D03*
X0124051Y0304169D03*
X0124051Y0302201D03*
X0127988Y0302201D03*
X0127988Y0304169D03*
X0184091Y0360272D03*
X0186059Y0360272D03*
X0242161Y0304169D03*
X0242161Y0302201D03*
X0246098Y0302201D03*
X0246098Y0304169D03*
X0302201Y0360272D03*
X0304169Y0360272D03*
X0360272Y0304169D03*
X0360272Y0302201D03*
X0304169Y0246098D03*
X0302201Y0246098D03*
X0302201Y0242161D03*
X0304169Y0242161D03*
X0360272Y0186059D03*
X0360272Y0184091D03*
X0304169Y0127988D03*
X0302201Y0127988D03*
X0302201Y0124051D03*
X0304169Y0124051D03*
X0360272Y0067949D03*
X0360272Y0065980D03*
X0304169Y0009878D03*
X0302201Y0009878D03*
X0246098Y0065980D03*
X0246098Y0067949D03*
X0242161Y0067949D03*
X0242161Y0065980D03*
X0186059Y0009878D03*
X0184091Y0009878D03*
X0127988Y0065980D03*
X0127988Y0067949D03*
X0124051Y0067949D03*
X0124051Y0065980D03*
X0067949Y0009878D03*
X0065980Y0009878D03*
X0184091Y0124051D03*
X0186059Y0124051D03*
X0186059Y0127988D03*
X0184091Y0127988D03*
X0240193Y0127004D03*
X0240193Y0125035D03*
X0244130Y0125035D03*
X0244130Y0127004D03*
X0246098Y0184091D03*
X0246098Y0186059D03*
X0242161Y0186059D03*
X0242161Y0184091D03*
X0186059Y0242161D03*
X0184091Y0242161D03*
X0184091Y0246098D03*
X0186059Y0246098D03*
X0127988Y0186059D03*
X0127988Y0184091D03*
X0124051Y0184091D03*
X0124051Y0186059D03*
D11*
X0027102Y0027102D03*
X0027594Y0027594D03*
X0028087Y0028087D03*
X0028579Y0028579D03*
X0012339Y0066965D03*
X0011846Y0066965D03*
X0011354Y0066965D03*
X0010862Y0066965D03*
X0028579Y0105350D03*
X0028087Y0105843D03*
X0027594Y0106335D03*
X0027102Y0106827D03*
X0027102Y0145213D03*
X0027594Y0145705D03*
X0028087Y0146197D03*
X0028579Y0146689D03*
X0066965Y0130449D03*
X0066965Y0129957D03*
X0066965Y0129465D03*
X0066965Y0128972D03*
X0066965Y0123067D03*
X0066965Y0122575D03*
X0066965Y0122083D03*
X0066965Y0121591D03*
X0105350Y0105350D03*
X0105843Y0105843D03*
X0106335Y0106335D03*
X0106827Y0106827D03*
X0121591Y0066965D03*
X0122083Y0066965D03*
X0122575Y0066965D03*
X0123067Y0066965D03*
X0128972Y0066965D03*
X0129465Y0066965D03*
X0129957Y0066965D03*
X0130449Y0066965D03*
X0146689Y0105350D03*
X0146197Y0105843D03*
X0145705Y0106335D03*
X0145213Y0106827D03*
X0145213Y0145213D03*
X0145705Y0145705D03*
X0146197Y0146197D03*
X0146689Y0146689D03*
X0106827Y0145213D03*
X0106335Y0145705D03*
X0105843Y0146197D03*
X0105350Y0146689D03*
X0121591Y0185075D03*
X0122083Y0185075D03*
X0122575Y0185075D03*
X0123067Y0185075D03*
X0128972Y0185075D03*
X0129465Y0185075D03*
X0129957Y0185075D03*
X0130449Y0185075D03*
X0146689Y0223461D03*
X0146197Y0223953D03*
X0145705Y0224445D03*
X0145213Y0224937D03*
X0145213Y0263323D03*
X0145705Y0263815D03*
X0146197Y0264307D03*
X0146689Y0264799D03*
X0130449Y0303185D03*
X0129957Y0303185D03*
X0129465Y0303185D03*
X0128972Y0303185D03*
X0123067Y0303185D03*
X0122575Y0303185D03*
X0122083Y0303185D03*
X0121591Y0303185D03*
X0105350Y0264799D03*
X0105843Y0264307D03*
X0106335Y0263815D03*
X0106827Y0263323D03*
X0066965Y0248559D03*
X0066965Y0248067D03*
X0066965Y0247575D03*
X0066965Y0247083D03*
X0066965Y0241177D03*
X0066965Y0240685D03*
X0066965Y0240193D03*
X0066965Y0239701D03*
X0105350Y0223461D03*
X0105843Y0223953D03*
X0106335Y0224445D03*
X0106827Y0224937D03*
X0028579Y0223461D03*
X0028087Y0223953D03*
X0027594Y0224445D03*
X0027102Y0224937D03*
X0012339Y0185075D03*
X0011846Y0185075D03*
X0011354Y0185075D03*
X0010862Y0185075D03*
X0027102Y0263323D03*
X0027594Y0263815D03*
X0028087Y0264307D03*
X0028579Y0264799D03*
X0012339Y0303185D03*
X0011846Y0303185D03*
X0011354Y0303185D03*
X0010862Y0303185D03*
X0028579Y0341571D03*
X0028087Y0342063D03*
X0027594Y0342555D03*
X0027102Y0343047D03*
X0066965Y0357811D03*
X0066965Y0358303D03*
X0066965Y0358795D03*
X0066965Y0359287D03*
X0105350Y0341571D03*
X0105843Y0342063D03*
X0106335Y0342555D03*
X0106827Y0343047D03*
X0145213Y0343047D03*
X0145705Y0342555D03*
X0146197Y0342063D03*
X0146689Y0341571D03*
X0185075Y0357811D03*
X0185075Y0358303D03*
X0185075Y0358795D03*
X0185075Y0359287D03*
X0223461Y0341571D03*
X0223953Y0342063D03*
X0224445Y0342555D03*
X0224937Y0343047D03*
X0263323Y0343047D03*
X0263815Y0342555D03*
X0264307Y0342063D03*
X0264799Y0341571D03*
X0303185Y0357811D03*
X0303185Y0358303D03*
X0303185Y0358795D03*
X0303185Y0359287D03*
X0341571Y0341571D03*
X0342063Y0342063D03*
X0342555Y0342555D03*
X0343047Y0343047D03*
X0357811Y0303185D03*
X0358303Y0303185D03*
X0358795Y0303185D03*
X0359287Y0303185D03*
X0341571Y0264799D03*
X0342063Y0264307D03*
X0342555Y0263815D03*
X0343047Y0263323D03*
X0343047Y0224937D03*
X0342555Y0224445D03*
X0342063Y0223953D03*
X0341571Y0223461D03*
X0357811Y0185075D03*
X0358303Y0185075D03*
X0358795Y0185075D03*
X0359287Y0185075D03*
X0341571Y0146689D03*
X0342063Y0146197D03*
X0342555Y0145705D03*
X0343047Y0145213D03*
X0343047Y0106827D03*
X0342555Y0106335D03*
X0342063Y0105843D03*
X0341571Y0105350D03*
X0357811Y0066965D03*
X0358303Y0066965D03*
X0358795Y0066965D03*
X0359287Y0066965D03*
X0341571Y0028579D03*
X0342063Y0028087D03*
X0342555Y0027594D03*
X0343047Y0027102D03*
X0303185Y0012339D03*
X0303185Y0011846D03*
X0303185Y0011354D03*
X0303185Y0010862D03*
X0264799Y0028579D03*
X0264307Y0028087D03*
X0263815Y0027594D03*
X0263323Y0027102D03*
X0224937Y0027102D03*
X0224445Y0027594D03*
X0223953Y0028087D03*
X0223461Y0028579D03*
X0185075Y0012339D03*
X0185075Y0011846D03*
X0185075Y0011354D03*
X0185075Y0010862D03*
X0146689Y0028579D03*
X0146197Y0028087D03*
X0145705Y0027594D03*
X0145213Y0027102D03*
X0106827Y0027102D03*
X0106335Y0027594D03*
X0105843Y0028087D03*
X0105350Y0028579D03*
X0066965Y0012339D03*
X0066965Y0011846D03*
X0066965Y0011354D03*
X0066965Y0010862D03*
X0185075Y0121591D03*
X0185075Y0122083D03*
X0185075Y0122575D03*
X0185075Y0123067D03*
X0185075Y0128972D03*
X0185075Y0129465D03*
X0185075Y0129957D03*
X0185075Y0130449D03*
X0223461Y0146689D03*
X0223953Y0146197D03*
X0224445Y0145705D03*
X0224937Y0145213D03*
X0263323Y0145213D03*
X0263815Y0145705D03*
X0264307Y0146197D03*
X0264799Y0146689D03*
X0303185Y0130449D03*
X0303185Y0129957D03*
X0303185Y0129465D03*
X0303185Y0128972D03*
X0303185Y0123067D03*
X0303185Y0122575D03*
X0303185Y0122083D03*
X0303185Y0121591D03*
X0264799Y0105350D03*
X0264307Y0105843D03*
X0263815Y0106335D03*
X0263323Y0106827D03*
X0248559Y0066965D03*
X0248067Y0066965D03*
X0247575Y0066965D03*
X0247083Y0066965D03*
X0241177Y0066965D03*
X0240685Y0066965D03*
X0240193Y0066965D03*
X0239701Y0066965D03*
X0223461Y0105350D03*
X0223953Y0105843D03*
X0224445Y0106335D03*
X0224937Y0106827D03*
X0239701Y0185075D03*
X0240193Y0185075D03*
X0240685Y0185075D03*
X0241177Y0185075D03*
X0247083Y0185075D03*
X0247575Y0185075D03*
X0248067Y0185075D03*
X0248559Y0185075D03*
X0264799Y0223461D03*
X0264307Y0223953D03*
X0263815Y0224445D03*
X0263323Y0224937D03*
X0303185Y0239701D03*
X0303185Y0240193D03*
X0303185Y0240685D03*
X0303185Y0241177D03*
X0303185Y0247083D03*
X0303185Y0247575D03*
X0303185Y0248067D03*
X0303185Y0248559D03*
X0264799Y0264799D03*
X0264307Y0264307D03*
X0263815Y0263815D03*
X0263323Y0263323D03*
X0248559Y0303185D03*
X0248067Y0303185D03*
X0247575Y0303185D03*
X0247083Y0303185D03*
X0241177Y0303185D03*
X0240685Y0303185D03*
X0240193Y0303185D03*
X0239701Y0303185D03*
X0223461Y0264799D03*
X0223953Y0264307D03*
X0224445Y0263815D03*
X0224937Y0263323D03*
X0185075Y0248559D03*
X0185075Y0248067D03*
X0185075Y0247575D03*
X0185075Y0247083D03*
X0185075Y0241177D03*
X0185075Y0240685D03*
X0185075Y0240193D03*
X0185075Y0239701D03*
X0223461Y0223461D03*
X0223953Y0223953D03*
X0224445Y0224445D03*
X0224937Y0224937D03*
D12*
X0224445Y0196886D03*
X0224445Y0195902D03*
X0224445Y0194917D03*
X0224445Y0193933D03*
X0224445Y0192949D03*
X0224445Y0191965D03*
X0224445Y0190980D03*
X0224445Y0189996D03*
X0224445Y0189012D03*
X0224445Y0188028D03*
X0224445Y0187043D03*
X0224445Y0186059D03*
X0224445Y0185075D03*
X0224445Y0184091D03*
X0224445Y0183106D03*
X0224445Y0182122D03*
X0224445Y0181138D03*
X0224445Y0180154D03*
X0224445Y0179169D03*
X0224445Y0178185D03*
X0224445Y0177201D03*
X0224445Y0176217D03*
X0224445Y0175232D03*
X0224445Y0174248D03*
X0224445Y0173264D03*
X0263815Y0173264D03*
X0263815Y0174248D03*
X0263815Y0175232D03*
X0263815Y0176217D03*
X0263815Y0177201D03*
X0263815Y0178185D03*
X0263815Y0179169D03*
X0263815Y0180154D03*
X0263815Y0181138D03*
X0263815Y0182122D03*
X0263815Y0183106D03*
X0263815Y0184091D03*
X0263815Y0185075D03*
X0263815Y0186059D03*
X0263815Y0187043D03*
X0263815Y0188028D03*
X0263815Y0189012D03*
X0263815Y0189996D03*
X0263815Y0190980D03*
X0263815Y0191965D03*
X0263815Y0192949D03*
X0263815Y0193933D03*
X0263815Y0194917D03*
X0263815Y0195902D03*
X0263815Y0196886D03*
X0342555Y0196886D03*
X0342555Y0195902D03*
X0342555Y0194917D03*
X0342555Y0193933D03*
X0342555Y0192949D03*
X0342555Y0191965D03*
X0342555Y0190980D03*
X0342555Y0189996D03*
X0342555Y0189012D03*
X0342555Y0188028D03*
X0342555Y0187043D03*
X0342555Y0186059D03*
X0342555Y0185075D03*
X0342555Y0184091D03*
X0342555Y0183106D03*
X0342555Y0182122D03*
X0342555Y0181138D03*
X0342555Y0180154D03*
X0342555Y0179169D03*
X0342555Y0178185D03*
X0342555Y0177201D03*
X0342555Y0176217D03*
X0342555Y0175232D03*
X0342555Y0174248D03*
X0342555Y0173264D03*
X0342555Y0078776D03*
X0342555Y0077791D03*
X0342555Y0076807D03*
X0342555Y0075823D03*
X0342555Y0074839D03*
X0342555Y0073854D03*
X0342555Y0072870D03*
X0342555Y0071886D03*
X0342555Y0070902D03*
X0342555Y0069917D03*
X0342555Y0068933D03*
X0342555Y0067949D03*
X0342555Y0066965D03*
X0342555Y0065980D03*
X0342555Y0064996D03*
X0342555Y0064012D03*
X0342555Y0063028D03*
X0342555Y0062043D03*
X0342555Y0061059D03*
X0342555Y0060075D03*
X0342555Y0059091D03*
X0342555Y0058106D03*
X0342555Y0057122D03*
X0342555Y0056138D03*
X0342555Y0055154D03*
X0263815Y0055154D03*
X0263815Y0056138D03*
X0263815Y0057122D03*
X0263815Y0058106D03*
X0263815Y0059091D03*
X0263815Y0060075D03*
X0263815Y0061059D03*
X0263815Y0062043D03*
X0263815Y0063028D03*
X0263815Y0064012D03*
X0263815Y0064996D03*
X0263815Y0065980D03*
X0263815Y0066965D03*
X0263815Y0067949D03*
X0263815Y0068933D03*
X0263815Y0069917D03*
X0263815Y0070902D03*
X0263815Y0071886D03*
X0263815Y0072870D03*
X0263815Y0073854D03*
X0263815Y0074839D03*
X0263815Y0075823D03*
X0263815Y0076807D03*
X0263815Y0077791D03*
X0263815Y0078776D03*
X0224445Y0078776D03*
X0224445Y0077791D03*
X0224445Y0076807D03*
X0224445Y0075823D03*
X0224445Y0074839D03*
X0224445Y0073854D03*
X0224445Y0072870D03*
X0224445Y0071886D03*
X0224445Y0070902D03*
X0224445Y0069917D03*
X0224445Y0068933D03*
X0224445Y0067949D03*
X0224445Y0066965D03*
X0224445Y0065980D03*
X0224445Y0064996D03*
X0224445Y0064012D03*
X0224445Y0063028D03*
X0224445Y0062043D03*
X0224445Y0061059D03*
X0224445Y0060075D03*
X0224445Y0059091D03*
X0224445Y0058106D03*
X0224445Y0057122D03*
X0224445Y0056138D03*
X0224445Y0055154D03*
X0145705Y0055154D03*
X0145705Y0056138D03*
X0145705Y0057122D03*
X0145705Y0058106D03*
X0145705Y0059091D03*
X0145705Y0060075D03*
X0145705Y0061059D03*
X0145705Y0062043D03*
X0145705Y0063028D03*
X0145705Y0064012D03*
X0145705Y0064996D03*
X0145705Y0065980D03*
X0145705Y0066965D03*
X0145705Y0067949D03*
X0145705Y0068933D03*
X0145705Y0069917D03*
X0145705Y0070902D03*
X0145705Y0071886D03*
X0145705Y0072870D03*
X0145705Y0073854D03*
X0145705Y0074839D03*
X0145705Y0075823D03*
X0145705Y0076807D03*
X0145705Y0077791D03*
X0145705Y0078776D03*
X0106335Y0078776D03*
X0106335Y0077791D03*
X0106335Y0076807D03*
X0106335Y0075823D03*
X0106335Y0074839D03*
X0106335Y0073854D03*
X0106335Y0072870D03*
X0106335Y0071886D03*
X0106335Y0070902D03*
X0106335Y0069917D03*
X0106335Y0068933D03*
X0106335Y0067949D03*
X0106335Y0066965D03*
X0106335Y0065980D03*
X0106335Y0064996D03*
X0106335Y0064012D03*
X0106335Y0063028D03*
X0106335Y0062043D03*
X0106335Y0061059D03*
X0106335Y0060075D03*
X0106335Y0059091D03*
X0106335Y0058106D03*
X0106335Y0057122D03*
X0106335Y0056138D03*
X0106335Y0055154D03*
X0027594Y0055154D03*
X0027594Y0056138D03*
X0027594Y0057122D03*
X0027594Y0058106D03*
X0027594Y0059091D03*
X0027594Y0060075D03*
X0027594Y0061059D03*
X0027594Y0062043D03*
X0027594Y0063028D03*
X0027594Y0064012D03*
X0027594Y0064996D03*
X0027594Y0065980D03*
X0027594Y0066965D03*
X0027594Y0067949D03*
X0027594Y0068933D03*
X0027594Y0069917D03*
X0027594Y0070902D03*
X0027594Y0071886D03*
X0027594Y0072870D03*
X0027594Y0073854D03*
X0027594Y0074839D03*
X0027594Y0075823D03*
X0027594Y0076807D03*
X0027594Y0077791D03*
X0027594Y0078776D03*
X0027594Y0173264D03*
X0027594Y0174248D03*
X0027594Y0175232D03*
X0027594Y0176217D03*
X0027594Y0177201D03*
X0027594Y0178185D03*
X0027594Y0179169D03*
X0027594Y0180154D03*
X0027594Y0181138D03*
X0027594Y0182122D03*
X0027594Y0183106D03*
X0027594Y0184091D03*
X0027594Y0185075D03*
X0027594Y0186059D03*
X0027594Y0187043D03*
X0027594Y0188028D03*
X0027594Y0189012D03*
X0027594Y0189996D03*
X0027594Y0190980D03*
X0027594Y0191965D03*
X0027594Y0192949D03*
X0027594Y0193933D03*
X0027594Y0194917D03*
X0027594Y0195902D03*
X0027594Y0196886D03*
X0106335Y0196886D03*
X0106335Y0195902D03*
X0106335Y0194917D03*
X0106335Y0193933D03*
X0106335Y0192949D03*
X0106335Y0191965D03*
X0106335Y0190980D03*
X0106335Y0189996D03*
X0106335Y0189012D03*
X0106335Y0188028D03*
X0106335Y0187043D03*
X0106335Y0186059D03*
X0106335Y0185075D03*
X0106335Y0184091D03*
X0106335Y0183106D03*
X0106335Y0182122D03*
X0106335Y0181138D03*
X0106335Y0180154D03*
X0106335Y0179169D03*
X0106335Y0178185D03*
X0106335Y0177201D03*
X0106335Y0176217D03*
X0106335Y0175232D03*
X0106335Y0174248D03*
X0106335Y0173264D03*
X0145705Y0173264D03*
X0145705Y0174248D03*
X0145705Y0175232D03*
X0145705Y0176217D03*
X0145705Y0177201D03*
X0145705Y0178185D03*
X0145705Y0179169D03*
X0145705Y0180154D03*
X0145705Y0181138D03*
X0145705Y0182122D03*
X0145705Y0183106D03*
X0145705Y0184091D03*
X0145705Y0185075D03*
X0145705Y0186059D03*
X0145705Y0187043D03*
X0145705Y0188028D03*
X0145705Y0189012D03*
X0145705Y0189996D03*
X0145705Y0190980D03*
X0145705Y0191965D03*
X0145705Y0192949D03*
X0145705Y0193933D03*
X0145705Y0194917D03*
X0145705Y0195902D03*
X0145705Y0196886D03*
X0145705Y0291374D03*
X0145705Y0292358D03*
X0145705Y0293343D03*
X0145705Y0294327D03*
X0145705Y0295311D03*
X0145705Y0296295D03*
X0145705Y0297280D03*
X0145705Y0298264D03*
X0145705Y0299248D03*
X0145705Y0300232D03*
X0145705Y0301217D03*
X0145705Y0302201D03*
X0145705Y0303185D03*
X0145705Y0304169D03*
X0145705Y0305154D03*
X0145705Y0306138D03*
X0145705Y0307122D03*
X0145705Y0308106D03*
X0145705Y0309091D03*
X0145705Y0310075D03*
X0145705Y0311059D03*
X0145705Y0312043D03*
X0145705Y0313028D03*
X0145705Y0314012D03*
X0145705Y0314996D03*
X0106335Y0314996D03*
X0106335Y0314012D03*
X0106335Y0313028D03*
X0106335Y0312043D03*
X0106335Y0311059D03*
X0106335Y0310075D03*
X0106335Y0309091D03*
X0106335Y0308106D03*
X0106335Y0307122D03*
X0106335Y0306138D03*
X0106335Y0305154D03*
X0106335Y0304169D03*
X0106335Y0303185D03*
X0106335Y0302201D03*
X0106335Y0301217D03*
X0106335Y0300232D03*
X0106335Y0299248D03*
X0106335Y0298264D03*
X0106335Y0297280D03*
X0106335Y0296295D03*
X0106335Y0295311D03*
X0106335Y0294327D03*
X0106335Y0293343D03*
X0106335Y0292358D03*
X0106335Y0291374D03*
X0027594Y0291374D03*
X0027594Y0292358D03*
X0027594Y0293343D03*
X0027594Y0294327D03*
X0027594Y0295311D03*
X0027594Y0296295D03*
X0027594Y0297280D03*
X0027594Y0298264D03*
X0027594Y0299248D03*
X0027594Y0300232D03*
X0027594Y0301217D03*
X0027594Y0302201D03*
X0027594Y0303185D03*
X0027594Y0304169D03*
X0027594Y0305154D03*
X0027594Y0306138D03*
X0027594Y0307122D03*
X0027594Y0308106D03*
X0027594Y0309091D03*
X0027594Y0310075D03*
X0027594Y0311059D03*
X0027594Y0312043D03*
X0027594Y0313028D03*
X0027594Y0314012D03*
X0027594Y0314996D03*
X0224445Y0314996D03*
X0224445Y0314012D03*
X0224445Y0313028D03*
X0224445Y0312043D03*
X0224445Y0311059D03*
X0224445Y0310075D03*
X0224445Y0309091D03*
X0224445Y0308106D03*
X0224445Y0307122D03*
X0224445Y0306138D03*
X0224445Y0305154D03*
X0224445Y0304169D03*
X0224445Y0303185D03*
X0224445Y0302201D03*
X0224445Y0301217D03*
X0224445Y0300232D03*
X0224445Y0299248D03*
X0224445Y0298264D03*
X0224445Y0297280D03*
X0224445Y0296295D03*
X0224445Y0295311D03*
X0224445Y0294327D03*
X0224445Y0293343D03*
X0224445Y0292358D03*
X0224445Y0291374D03*
X0263815Y0291374D03*
X0263815Y0292358D03*
X0263815Y0293343D03*
X0263815Y0294327D03*
X0263815Y0295311D03*
X0263815Y0296295D03*
X0263815Y0297280D03*
X0263815Y0298264D03*
X0263815Y0299248D03*
X0263815Y0300232D03*
X0263815Y0301217D03*
X0263815Y0302201D03*
X0263815Y0303185D03*
X0263815Y0304169D03*
X0263815Y0305154D03*
X0263815Y0306138D03*
X0263815Y0307122D03*
X0263815Y0308106D03*
X0263815Y0309091D03*
X0263815Y0310075D03*
X0263815Y0311059D03*
X0263815Y0312043D03*
X0263815Y0313028D03*
X0263815Y0314012D03*
X0263815Y0314996D03*
X0342555Y0314996D03*
X0342555Y0314012D03*
X0342555Y0313028D03*
X0342555Y0312043D03*
X0342555Y0311059D03*
X0342555Y0310075D03*
X0342555Y0309091D03*
X0342555Y0308106D03*
X0342555Y0307122D03*
X0342555Y0306138D03*
X0342555Y0305154D03*
X0342555Y0304169D03*
X0342555Y0303185D03*
X0342555Y0302201D03*
X0342555Y0301217D03*
X0342555Y0300232D03*
X0342555Y0299248D03*
X0342555Y0298264D03*
X0342555Y0297280D03*
X0342555Y0296295D03*
X0342555Y0295311D03*
X0342555Y0294327D03*
X0342555Y0293343D03*
X0342555Y0292358D03*
X0342555Y0291374D03*
M02*
