%
M48
M72
T01C0.01000
T02C0.03937
%
T01
X34000Y23500
X39500Y36000
X57000Y36000
X74500Y36000
T02
X23000Y21000
X23000Y31000
X23000Y41000
X23000Y51000
X42000Y49000
X52000Y49000
X62000Y49000
X72000Y49000
X91000Y51000
X91000Y41000
X91000Y31000
X91000Y21000
X72000Y23000
X62000Y23000
X52000Y23000
X42000Y23000
M30
