%
M48
M72
T01C0.01000
T02C0.03543
T03C0.03937
T04C0.07500
T05C0.16000
%
T01
X158000Y39500
X157957Y49457
T02
X88500Y54500
X88500Y34500
X44500Y34500
X44500Y54500
T03
X138000Y66000
X148000Y66000
X158000Y66000
X168000Y66000
X168000Y23000
X158000Y23000
X148000Y23000
X138000Y23000
T04
X31500Y16500
X101500Y16500
X101500Y71500
X31500Y71500
T05
X54500Y75500
X78500Y75500
X119500Y56500
X119500Y32500
X78500Y13500
X54500Y13500
X13500Y32500
X13500Y56500
M30
