G75*
%MOIN*%
%OFA0B0*%
%FSLAX25Y25*%
%IPPOS*%
%LPD*%
%AMOC8*
5,1,8,0,0,1.08239X$1,22.5*
%
%ADD10C,0.00600*%
%ADD11C,0.02200*%
%ADD12C,0.00500*%
D10*
X0065319Y0024138D02*
X0067681Y0024138D01*
X0067681Y0028862D02*
X0065319Y0028862D01*
X0046862Y0043319D02*
X0046862Y0045681D01*
X0042138Y0045681D02*
X0042138Y0043319D01*
X0028862Y0043319D02*
X0028862Y0045681D01*
X0024138Y0045681D02*
X0024138Y0043319D01*
X0065319Y0060138D02*
X0067681Y0060138D01*
X0067681Y0064862D02*
X0065319Y0064862D01*
X0086138Y0045681D02*
X0086138Y0043319D01*
X0090862Y0043319D02*
X0090862Y0045681D01*
X0104138Y0045681D02*
X0104138Y0043319D01*
X0108862Y0043319D02*
X0108862Y0045681D01*
X0135638Y0051819D02*
X0135638Y0054181D01*
X0140362Y0054181D02*
X0140362Y0051819D01*
X0140362Y0037181D02*
X0140362Y0034819D01*
X0135638Y0034819D02*
X0135638Y0037181D01*
D11*
X0137880Y0036000D02*
X0138120Y0036000D01*
X0106620Y0044500D02*
X0106380Y0044500D01*
X0088620Y0044500D02*
X0088380Y0044500D01*
X0066500Y0062380D02*
X0066500Y0062620D01*
X0044620Y0044500D02*
X0044380Y0044500D01*
X0026620Y0044500D02*
X0026380Y0044500D01*
X0066500Y0026620D02*
X0066500Y0026380D01*
X0137880Y0053000D02*
X0138120Y0053000D01*
D12*
X0141500Y0055000D02*
X0143500Y0055000D01*
X0141500Y0055000D02*
X0141500Y0034000D01*
X0143500Y0034000D01*
X0159086Y0040000D02*
X0159088Y0040075D01*
X0159094Y0040149D01*
X0159104Y0040223D01*
X0159117Y0040296D01*
X0159135Y0040369D01*
X0159156Y0040440D01*
X0159181Y0040511D01*
X0159210Y0040580D01*
X0159243Y0040647D01*
X0159279Y0040712D01*
X0159318Y0040776D01*
X0159360Y0040837D01*
X0159406Y0040896D01*
X0159455Y0040953D01*
X0159507Y0041006D01*
X0159561Y0041057D01*
X0159618Y0041106D01*
X0159678Y0041150D01*
X0159740Y0041192D01*
X0159804Y0041231D01*
X0159870Y0041266D01*
X0159937Y0041297D01*
X0160007Y0041325D01*
X0160077Y0041349D01*
X0160149Y0041370D01*
X0160222Y0041386D01*
X0160295Y0041399D01*
X0160370Y0041408D01*
X0160444Y0041413D01*
X0160519Y0041414D01*
X0160593Y0041411D01*
X0160668Y0041404D01*
X0160741Y0041393D01*
X0160815Y0041379D01*
X0160887Y0041360D01*
X0160958Y0041338D01*
X0161028Y0041312D01*
X0161097Y0041282D01*
X0161163Y0041249D01*
X0161228Y0041212D01*
X0161291Y0041172D01*
X0161352Y0041128D01*
X0161410Y0041082D01*
X0161466Y0041032D01*
X0161519Y0040980D01*
X0161570Y0040925D01*
X0161617Y0040867D01*
X0161661Y0040807D01*
X0161702Y0040744D01*
X0161740Y0040680D01*
X0161774Y0040614D01*
X0161805Y0040545D01*
X0161832Y0040476D01*
X0161855Y0040405D01*
X0161874Y0040333D01*
X0161890Y0040260D01*
X0161902Y0040186D01*
X0161910Y0040112D01*
X0161914Y0040037D01*
X0161914Y0039963D01*
X0161910Y0039888D01*
X0161902Y0039814D01*
X0161890Y0039740D01*
X0161874Y0039667D01*
X0161855Y0039595D01*
X0161832Y0039524D01*
X0161805Y0039455D01*
X0161774Y0039386D01*
X0161740Y0039320D01*
X0161702Y0039256D01*
X0161661Y0039193D01*
X0161617Y0039133D01*
X0161570Y0039075D01*
X0161519Y0039020D01*
X0161466Y0038968D01*
X0161410Y0038918D01*
X0161352Y0038872D01*
X0161291Y0038828D01*
X0161228Y0038788D01*
X0161163Y0038751D01*
X0161097Y0038718D01*
X0161028Y0038688D01*
X0160958Y0038662D01*
X0160887Y0038640D01*
X0160815Y0038621D01*
X0160741Y0038607D01*
X0160668Y0038596D01*
X0160593Y0038589D01*
X0160519Y0038586D01*
X0160444Y0038587D01*
X0160370Y0038592D01*
X0160295Y0038601D01*
X0160222Y0038614D01*
X0160149Y0038630D01*
X0160077Y0038651D01*
X0160007Y0038675D01*
X0159937Y0038703D01*
X0159870Y0038734D01*
X0159804Y0038769D01*
X0159740Y0038808D01*
X0159678Y0038850D01*
X0159618Y0038894D01*
X0159561Y0038943D01*
X0159507Y0038994D01*
X0159455Y0039047D01*
X0159406Y0039104D01*
X0159360Y0039163D01*
X0159318Y0039224D01*
X0159279Y0039288D01*
X0159243Y0039353D01*
X0159210Y0039420D01*
X0159181Y0039489D01*
X0159156Y0039560D01*
X0159135Y0039631D01*
X0159117Y0039704D01*
X0159104Y0039777D01*
X0159094Y0039851D01*
X0159088Y0039925D01*
X0159086Y0040000D01*
X0162500Y0034000D02*
X0164500Y0034000D01*
X0164500Y0055000D01*
X0162500Y0055000D01*
M02*
