%
M48
M72
T01C0.01000
T02C0.03900
T03C0.03937
T04C0.07500
%
T01
X25369Y28517
X30257Y24633
X36107Y24833
X41357Y22633
X42357Y28633
X41357Y33333
X34857Y36333
X31607Y33833
X26607Y39083
X30107Y44833
X35107Y42833
X39607Y43333
X42857Y45083
X43107Y40583
X48607Y51333
X49857Y55583
X53857Y50333
X58607Y48833
X59857Y43333
X59857Y39083
X64857Y30833
X57607Y29083
X57357Y21333
X66357Y23333
X70357Y40083
X72357Y57083
X64307Y71533
X59607Y72333
X54857Y71583
X50107Y72333
X45307Y71533
X40357Y72333
X35807Y71533
X40357Y78833
X26857Y89083
X18107Y64833
X25357Y58333
X40357Y56583
X65357Y79333
X76107Y92583
X89107Y76333
X9357Y62833
T02
X8157Y18633
X8157Y28633
X8157Y38633
X8157Y48633
X79657Y39883
X79657Y29883
X79657Y19883
X89657Y19883
X89657Y29883
X89657Y39883
T03
X81857Y51333
X81857Y61333
X81857Y71333
X81857Y81333
X55357Y86583
X45357Y86583
T04
X9357Y93333
X89357Y93333
M30
