G75*
%MOIN*%
%OFA0B0*%
%FSLAX25Y25*%
%IPPOS*%
%LPD*%
%AMOC8*
5,1,8,0,0,1.08239X$1,22.5*
%
%ADD10C,0.08300*%
%ADD11R,0.05524X0.03950*%
%ADD12R,0.04737X0.12414*%
%ADD13R,0.06700X0.06700*%
%ADD14C,0.06700*%
%ADD15R,0.05524X0.05524*%
%ADD16R,0.06600X0.02800*%
%ADD17R,0.02800X0.06600*%
%ADD18C,0.06737*%
%ADD19C,0.03400*%
D10*
X0009357Y0093333D03*
X0089357Y0093333D03*
D11*
X0070307Y0034427D03*
X0070307Y0027340D03*
D12*
X0018157Y0060235D03*
X0018157Y0079132D03*
D13*
X0008157Y0048633D03*
X0079657Y0039883D03*
D14*
X0008157Y0018633D03*
X0008157Y0028633D03*
X0008157Y0038633D03*
X0079657Y0029883D03*
X0079657Y0019883D03*
X0089657Y0019883D03*
X0089657Y0029883D03*
X0089657Y0039883D03*
D15*
X0064307Y0059899D03*
X0064307Y0068167D03*
X0054807Y0068167D03*
X0054807Y0059899D03*
X0045307Y0059899D03*
X0045307Y0068167D03*
X0035807Y0068167D03*
X0035807Y0059899D03*
D16*
X0049607Y0046133D03*
X0049607Y0043033D03*
X0049607Y0039833D03*
X0049607Y0036733D03*
X0049607Y0033533D03*
X0049607Y0030433D03*
X0049607Y0027233D03*
X0049607Y0024133D03*
X0017207Y0024133D03*
X0017207Y0027233D03*
X0017207Y0030433D03*
X0017207Y0033533D03*
X0017207Y0036733D03*
X0017207Y0039833D03*
X0017207Y0043033D03*
X0017207Y0046133D03*
D17*
X0022407Y0051333D03*
X0025507Y0051333D03*
X0028707Y0051333D03*
X0031807Y0051333D03*
X0035007Y0051333D03*
X0038107Y0051333D03*
X0041307Y0051333D03*
X0044407Y0051333D03*
X0044407Y0018933D03*
X0041307Y0018933D03*
X0038107Y0018933D03*
X0035007Y0018933D03*
X0031807Y0018933D03*
X0028707Y0018933D03*
X0025507Y0018933D03*
X0022407Y0018933D03*
D18*
X0078889Y0051333D02*
X0084826Y0051333D01*
X0084826Y0061333D02*
X0078889Y0061333D01*
X0078889Y0071333D02*
X0084826Y0071333D01*
X0084826Y0081333D02*
X0078889Y0081333D01*
X0055357Y0083615D02*
X0055357Y0089552D01*
X0045357Y0089552D02*
X0045357Y0083615D01*
D19*
X0040357Y0078833D03*
X0040357Y0072333D03*
X0045307Y0071533D03*
X0050107Y0072333D03*
X0054857Y0071583D03*
X0059607Y0072333D03*
X0064307Y0071533D03*
X0065357Y0079333D03*
X0076107Y0092583D03*
X0089107Y0076333D03*
X0072357Y0057083D03*
X0059857Y0043333D03*
X0059857Y0039083D03*
X0064857Y0030833D03*
X0057607Y0029083D03*
X0057357Y0021333D03*
X0066357Y0023333D03*
X0070357Y0040083D03*
X0058607Y0048833D03*
X0053857Y0050333D03*
X0048607Y0051333D03*
X0049857Y0055583D03*
X0040357Y0056583D03*
X0042857Y0045083D03*
X0039607Y0043333D03*
X0043107Y0040583D03*
X0041357Y0033333D03*
X0042357Y0028633D03*
X0041357Y0022633D03*
X0036107Y0024833D03*
X0030257Y0024633D03*
X0025369Y0028517D03*
X0031607Y0033833D03*
X0034857Y0036333D03*
X0035107Y0042833D03*
X0030107Y0044833D03*
X0026607Y0039083D03*
X0025357Y0058333D03*
X0018107Y0064833D03*
X0009357Y0062833D03*
X0026857Y0089083D03*
X0035807Y0071533D03*
M02*
